<svg width="22" height="21" viewBox="0 0 22 21" fill="none" xmlns="http://www.w3.org/2000/svg">
<path d="M19.5259 1.75V5.25H2.02588V1.75H19.5259ZM19.5259 0H2.02588C1.56175 0 1.11663 0.184374 0.788442 0.512563C0.460253 0.840752 0.275879 1.28587 0.275879 1.75V5.25C0.275879 5.71413 0.460253 6.15925 0.788442 6.48744C1.11663 6.81563 1.56175 7 2.02588 7H19.5259C19.99 7 20.4351 6.81563 20.7633 6.48744C21.0915 6.15925 21.2759 5.71413 21.2759 5.25V1.75C21.2759 1.28587 21.0915 0.840752 20.7633 0.512563C20.4351 0.184374 19.99 0 19.5259 0Z" fill="white"/>
<path d="M5.52588 10.5V19.25H2.02588V10.5H5.52588ZM5.52588 8.75H2.02588C1.56175 8.75 1.11663 8.93437 0.788442 9.26256C0.460253 9.59075 0.275879 10.0359 0.275879 10.5V19.25C0.275879 19.7141 0.460253 20.1592 0.788442 20.4874C1.11663 20.8156 1.56175 21 2.02588 21H5.52588C5.99001 21 6.43513 20.8156 6.76332 20.4874C7.0915 20.1592 7.27588 19.7141 7.27588 19.25V10.5C7.27588 10.0359 7.0915 9.59075 6.76332 9.26256C6.43513 8.93437 5.99001 8.75 5.52588 8.75Z" fill="white"/>
<path d="M19.5259 10.5V19.25H10.7759V10.5H19.5259ZM19.5259 8.75H10.7759C10.3117 8.75 9.86663 8.93437 9.53844 9.26256C9.21025 9.59075 9.02588 10.0359 9.02588 10.5V19.25C9.02588 19.7141 9.21025 20.1592 9.53844 20.4874C9.86663 20.8156 10.3117 21 10.7759 21H19.5259C19.99 21 20.4351 20.8156 20.7633 20.4874C21.0915 20.1592 21.2759 19.7141 21.2759 19.25V10.5C21.2759 10.0359 21.0915 9.59075 20.7633 9.26256C20.4351 8.93437 19.99 8.75 19.5259 8.75Z" fill="white"/>
</svg>
