<?xml version="1.0" encoding="UTF-8"?>
<svg width="700pt" height="700pt" version="1.1" viewBox="0 0 700 700" xmlns="http://www.w3.org/2000/svg">
 <path d="m350.1 19.617 1.5625 0.027343c13.723 0.42188 26.371 6.2305 35.57 15.34 9.2539 9.168 15.066 21.734 15.062 35.609 0 49.355-3.1602 101.29-4.7227 150.9-0.30469 9.7305 3.332 18.727 9.4766 25.406 6.1445 6.6797 14.809 11.066 24.512 11.574l29.102 1.5195c18.184 0.95312 34.32 9.2188 45.672 21.773 11.363 12.559 17.949 29.441 17.086 47.602l-2.4219 50.137c-0.21094 4.4844-3.9219 7.9844-8.3672 7.9766h-3.9219v144.51c0 4.6367-3.7617 8.3984-8.3984 8.3984h-45.406c-4.6367 0-8.3984-3.7617-8.3984-8.3984v-68.578c0-0.89844-0.37891-1.7266-0.97266-2.3203-0.57422-0.60156-1.4141-0.97266-2.3281-0.97266s-1.7461 0.37109-2.3359 0.96094c-0.58984 0.58984-0.96094 1.4219-0.96094 2.3359v68.578c0 4.6367-3.7617 8.3984-8.3984 8.3984h-121.42c-4.6367 0-8.3984-3.7617-8.3984-8.3984v-84.695c0-1.0703-0.44141-2.0508-1.1328-2.7461-0.69531-0.6875-1.6719-1.1328-2.75-1.1328-1.0586 0-2.0312 0.44141-2.7305 1.1445-0.69922 0.67969-1.1445 1.6602-1.1445 2.7305v84.695c0 4.6367-3.7617 8.3984-8.3984 8.3984h-28.605c-4.6367 0-8.3984-3.7617-8.3984-8.3984v-68.578c0-0.91406-0.37109-1.7461-0.96094-2.3359-0.58984-0.58984-1.4219-0.96094-2.3359-0.96094-0.80078 0-1.543 0.28516-2.1172 0.74609l-0.21094 0.22656c-0.59375 0.59375-0.97266 1.4219-0.97266 2.3203v68.578c0 4.6367-3.7617 8.3984-8.3984 8.3984h-33.852c-4.6367 0-8.3984-3.7617-8.3984-8.3984v-144.48h-3.9102c-4.6367 0-8.3984-3.7617-8.3984-8.3984l-2.3867-49.738c-0.86719-18.164 5.7227-35.043 17.086-47.602 11.352-12.555 27.488-20.82 45.672-21.773l29.102-1.5195c9.7148-0.50391 18.383-4.8867 24.52-11.566 6.1445-6.6797 9.7773-15.676 9.4727-25.41-1.5625-49.613-4.7227-101.54-4.7227-150.9-0.03125-13.875 5.7891-26.445 15.062-35.617 9.1992-9.1094 21.852-14.91 35.57-15.34l1.7578-0.019531zm141.81 367.86-283.83 0.027343v136.08h17.051v-60.176c0-5.5352 2.2695-10.574 5.8945-14.199l0.61328-0.5625c3.5859-3.293 8.3672-5.332 13.594-5.332 5.5039 0 10.531 2.2617 14.168 5.8945 3.6641 3.6719 5.9258 8.6992 5.9258 14.199v60.176h11.805v-76.297c0-5.6602 2.3359-10.836 6.0664-14.578 3.7305-3.7617 8.9141-6.0977 14.609-6.0977 5.668 0 10.84 2.3359 14.586 6.0664 3.7617 3.7773 6.0977 8.9492 6.0977 14.609v76.297h104.62v-60.176c0-5.5039 2.2617-10.531 5.8945-14.168 3.6719-3.6641 8.6992-5.9258 14.199-5.9258 5.5156 0 10.535 2.2695 14.176 5.8945 3.6562 3.625 5.9258 8.6641 5.9258 14.199v60.176h28.605zm-141.91-337.07c5.8984 0 11.258 2.4062 15.16 6.2969l0.054688 0.054687c3.875 3.8945 6.2773 9.2461 6.2773 15.141 0 5.8984-2.4141 11.277-6.3164 15.172-3.8633 3.9023-9.2344 6.3164-15.172 6.3164-5.9414 0-11.309-2.4141-15.191-6.2969l-0.54297-0.59375c-3.5703-3.8438-5.7539-8.9883-5.7539-14.598 0-5.8984 2.4062-11.258 6.2969-15.16l0.054687-0.054687c3.8945-3.875 9.2461-6.2773 15.141-6.2773zm3.3281 18.156c-0.83203-0.83984-2.0156-1.3555-3.3281-1.3555-1.3086 0-2.4922 0.51562-3.3125 1.3438-0.85938 0.85156-1.375 2.0391-1.375 3.3477 0 1.1719 0.41797 2.25 1.0977 3.0508l0.27734 0.26562c0.83984 0.83984 2.0234 1.375 3.3125 1.375 1.2891 0 2.4727-0.53516 3.3125-1.375 0.85938-0.82031 1.375-2.0039 1.375-3.3125s-0.51562-2.4922-1.3633-3.332zm-160.06 258.82h313.46c0.31641-13.137-4.5781-25.301-12.805-34.395-8.4805-9.3789-20.531-15.551-34.109-16.258l-29.102-1.5195c-14.293-0.75391-27.012-7.168-36.008-16.957-9.0039-9.7773-14.312-22.977-13.871-37.285l4.7227-150.43c-0.019532-9.1484-3.9219-17.508-10.141-23.664-6.2852-6.2227-14.922-10.199-24.289-10.488h-2.2617c-9.3672 0.29297-18.004 4.2578-24.289 10.484-6.2031 6.1445-10.105 14.523-10.105 23.738-0.99219 47.496 3.168 102.14 4.6914 150.37 0.45703 14.305-4.8672 27.5-13.863 37.289-8.9961 9.7891-21.707 16.203-36.016 16.953l-29.102 1.5195c-13.578 0.70703-25.629 6.8789-34.109 16.258-8.2266 9.0938-13.121 21.258-12.805 34.395zm312.66 16.801h-311.86l1.2812 26.531h309.29l1.2812-26.531z"/>
</svg>
