<?xml version="1.0" encoding="UTF-8"?>
<svg width="700pt" height="700pt" version="1.1" viewBox="0 0 700 700" xmlns="http://www.w3.org/2000/svg">
 <path d="m192.5 210h315c4.6406 0 9.0938-1.8438 12.375-5.125s5.125-7.7344 5.125-12.375v-70c0-4.6406-1.8438-9.0938-5.125-12.375s-7.7344-5.125-12.375-5.125h-315c-4.6406 0-9.0938 1.8438-12.375 5.125s-5.125 7.7344-5.125 12.375v70c0 4.6406 1.8438 9.0938 5.125 12.375s7.7344 5.125 12.375 5.125zm297.5-35h-122.5v-35h122.5zm-280-35h122.5v35h-122.5zm297.5 210h-315c-4.6406 0-9.0938 1.8438-12.375 5.125s-5.125 7.7344-5.125 12.375v70c0 4.6406 1.8438 9.0938 5.125 12.375s7.7344 5.125 12.375 5.125h315c4.6406 0 9.0938-1.8438 12.375-5.125s5.125-7.7344 5.125-12.375v-70c0-4.6406-1.8438-9.0938-5.125-12.375s-7.7344-5.125-12.375-5.125zm-297.5 35h122.5v35h-122.5zm280 35h-122.5v-35h122.5zm87.5-192.5h-455c-4.6406 0-9.0938 1.8438-12.375 5.125s-5.125 7.7344-5.125 12.375v70c0 4.6406 1.8438 9.0938 5.125 12.375s7.7344 5.125 12.375 5.125h455c4.6406 0 9.0938-1.8438 12.375-5.125s5.125-7.7344 5.125-12.375v-70c0-4.6406-1.8438-9.0938-5.125-12.375s-7.7344-5.125-12.375-5.125zm-437.5 35h105v35h-105zm140 0h140v35h-140zm280 35h-105v-35h105z"/>
</svg>
