<?xml version="1.0" encoding="UTF-8"?>
<svg width="700pt" height="700pt" version="1.1" viewBox="0 0 700 700" xmlns="http://www.w3.org/2000/svg">
 <path d="m120.75 372.75 35 61.25c5.25 8.75 12.25 14 21 15.75s19.25 1.75 26.25-3.5l26.25-15.75c15.75 12.25 31.5 22.75 50.75 29.75v29.75c0 19.25 15.75 35 35 35h70c19.25 0 35-15.75 35-35v-31.5c17.5-7 35-17.5 50.75-29.75l26.25 15.75c17.5 8.75 38.5 3.5 47.25-12.25l35-61.25c5.25-8.75 5.25-17.5 3.5-26.25s-8.75-15.75-15.75-21l-26.25-15.75c1.75-8.75 1.75-17.5 1.75-28s0-19.25-1.75-29.75l26.25-15.75c8.75-5.25 14-12.25 15.75-21s1.75-19.25-3.5-26.25l-35-61.25c-10.5-17.5-31.5-22.75-47.25-12.25l-26.25 15.75c-15.75-12.25-33.25-21-50.75-28v-31.5c0-19.25-15.75-35-35-35h-70c-19.25 0-35 15.75-35 35v31.5c-17.5 7-35 17.5-50.75 29.75l-26.25-17.5c-8.75-5.25-17.5-5.25-26.25-3.5-8.75 3.5-17.5 8.75-21 17.5l-35 61.25c-10.5 17.5-3.5 38.5 12.25 47.25l26.25 15.75c-1.75 8.75-1.75 17.5-1.75 28s0 19.25 1.75 29.75l-26.25 15.75c-15.75 8.75-22.75 29.75-12.25 47.25zm66.5-40.25c7-3.5 10.5-12.25 8.75-19.25-1.75-10.5-3.5-21-3.5-33.25s1.75-22.75 3.5-33.25c1.75-7-1.75-15.75-8.75-19.25l-36.75-21 35-61.25 36.75 21c7 3.5 15.75 3.5 21-1.75 17.5-15.75 36.75-28 59.5-35 7-1.75 12.25-8.75 12.25-17.5v-42h70v43.75c0 7 5.25 14 12.25 17.5 21 7 42 19.25 59.5 35 5.25 5.25 14 5.25 21 1.75l36.75-21 35 61.25-36.75 19.25c-7 3.5-10.5 12.25-8.75 19.25 1.75 10.5 3.5 22.75 3.5 33.25s-1.75 22.75-3.5 33.25c-1.75 7 1.75 15.75 8.75 19.25l36.75 21-35 61.25-36.75-21c-7-3.5-15.75-3.5-21 1.75-17.5 15.75-36.75 28-59.5 35-7 1.75-12.25 8.75-12.25 17.5v42h-70v-43.75c0-7-5.25-14-12.25-17.5-21-7-42-19.25-59.5-35-3.5-3.5-7-5.25-12.25-5.25-3.5 0-5.25 0-8.75 1.75l-36.75 21-35-61.25zm162.75 35c49 0 87.5-38.5 87.5-87.5s-38.5-87.5-87.5-87.5-87.5 38.5-87.5 87.5 38.5 87.5 87.5 87.5zm0-140c29.75 0 52.5 22.75 52.5 52.5s-22.75 52.5-52.5 52.5-52.5-22.75-52.5-52.5 22.75-52.5 52.5-52.5z"/>
</svg>
