<svg width="28" height="19" viewBox="0 0 28 19" fill="none" xmlns="http://www.w3.org/2000/svg">
<path d="M1.99023 4.64282H15.3474M26.2759 4.64282H22.6331" stroke="white" stroke-width="2" stroke-linecap="round" stroke-linejoin="round"/>
<path d="M26.2759 14.3572H12.9188M1.99023 14.3572H5.63309" stroke="white" stroke-width="2" stroke-linecap="round" stroke-linejoin="round"/>
<path d="M18.9903 8.28571C21.0022 8.28571 22.6331 6.65475 22.6331 4.64286C22.6331 2.63096 21.0022 1 18.9903 1C16.9784 1 15.3474 2.63096 15.3474 4.64286C15.3474 6.65475 16.9784 8.28571 18.9903 8.28571Z" stroke="white" stroke-width="2" stroke-linecap="round" stroke-linejoin="round"/>
<path d="M9.27609 18.0001C7.26419 18.0001 5.63323 16.3691 5.63323 14.3572C5.63323 12.3453 7.26419 10.7144 9.27609 10.7144C11.288 10.7144 12.9189 12.3453 12.9189 14.3572C12.9189 16.3691 11.288 18.0001 9.27609 18.0001Z" stroke="white" stroke-width="2" stroke-linecap="round" stroke-linejoin="round"/>
</svg>
