<svg width="398" height="398" viewBox="0 0 398 398" fill="none" xmlns="http://www.w3.org/2000/svg">
<path d="M199.004 0C89.0869 0.0066864 0.00732374 89.0953 0 199.007C0.00700532 308.915 89.0869 398 199.004 398C308.909 398 397.993 308.915 398 199.007C397.993 89.0956 308.909 0.00732319 199.004 0ZM332.62 332.629C298.408 366.834 251.192 387.969 199.004 387.969C146.804 387.969 99.592 366.834 65.3803 332.629C31.1721 298.417 10.0386 251.2 10.0386 199.007C9.99104 162.746 20.4309 127.244 40.1003 96.7802H58.4559L119.025 181.111V234.036H63.4398V244.071H182.55V234.036H129.057V182.323L149.841 153.307H225.057L244.961 180.697H156.167V190.725H196.254V303.295H160.363V313.326H294.806V268.503H284.775V303.295H206.275V190.725H275.069V238.811H240.964V248.839H355.309V193.422H345.274V238.811H285.101V190.725H335.441V180.697H285.101V138.179H345.274V178.146H355.309V128.147H240.964V138.179H275.069V180.697H257.361L196.385 96.791H241.462V86.749H135.582V96.791H177.994L124.476 171.493L70.8027 96.7805H119.665V86.749H46.9901C52.586 79.1837 58.7329 72.0419 65.3806 65.3818C99.5924 31.1729 146.804 10.0353 199.004 10.0283C251.192 10.035 298.409 31.1729 332.62 65.3818C366.824 99.5904 387.962 146.807 387.962 199.007C387.962 251.2 366.824 298.417 332.62 332.629ZM157.026 143.279L187.184 101.173L217.776 143.279H157.026Z" fill="black"/>
</svg>
