<svg xmlns="http://www.w3.org/2000/svg" width="1249.908" height="1250.001" viewBox="0 0 1249.9077 1250.0005"><defs><style>.cls-1{fill:#fff;}</style></defs><title>Yale-University-Press-1985-2010</title><g id="Yale_University_Press_1985-2010-2"><circle class="cls-1" cx="625.025" cy="624.994" r="593.5"/><path d="M624.965 0c-345.19.021-624.942 279.822-624.965 625.021.022 345.189 279.775 624.979 624.965 624.979 345.156 0 624.92-279.79 624.943-624.979-.023-345.198-279.787-624.998-624.943-625.021zm419.618 1044.69c-107.44 107.429-255.721 173.805-419.618 173.805-163.931 0-312.199-66.376-419.64-173.805-107.43-107.45-173.799-255.744-173.799-419.668a590.509 590.509 0 0 1 94.408-321.064h57.645l190.217 264.858v166.222h-174.565v31.517h374.062v-31.517h-167.994v-162.415l65.271-91.131h236.216l62.507 86.025h-278.854v31.495h125.89v353.548h-112.713v31.506h422.215v-140.777h-31.502v109.271h-246.529v-353.548h216.047v151.024h-107.107v31.494h359.099v-174.047h-31.515v142.553h-188.973v-151.024h158.092v-31.495h-158.092v-133.538h188.973v125.524h31.515v-157.03h-359.099v31.506h107.107v133.538h-55.613l-191.492-263.525h141.563v-31.539h-332.514v31.539h133.194l-168.071 234.618-168.56-234.651h153.452v-31.506h-228.235a600.377 600.377 0 0 1 57.755-67.108c107.441-107.44 255.709-173.827 419.64-173.849 163.897.021 312.178 66.409 419.618 173.849 107.418 107.439 173.799 255.732 173.799 419.678 0 163.921-66.381 312.216-173.799 419.666zm-551.447-594.694l94.709-132.24 96.073 132.24h-190.782z"/></g></svg>