<svg width="130" height="35" viewBox="0 0 130 35" fill="none" xmlns="http://www.w3.org/2000/svg">
<path d="M18.3871 28.624L19.1431 29.254C16.7071 32.194 14.4811 34.336 12.2971 34.336C11.3731 34.336 10.9951 33.034 10.9951 31.564L12.1291 26.692C8.68506 30.892 5.24106 34.336 2.97306 34.336C2.25906 34.336 0.957062 33.118 0.957062 29.842C0.957062 26.44 2.17506 23.164 4.69506 20.602C7.84506 17.368 11.8771 15.646 16.1611 15.646H17.4211L14.4811 29.464C14.3971 29.884 14.3131 30.682 14.3131 30.976C14.3131 31.522 14.3131 31.942 14.7751 31.942C15.2791 31.942 16.7911 30.514 18.3871 28.624ZM12.3391 24.97L13.7251 18.46C13.2211 18.334 12.5911 18.292 12.1291 18.292C10.4491 18.292 8.60106 18.628 7.97106 19.132C5.91306 20.77 4.23306 23.836 4.23306 28.666C4.23306 31.186 4.86306 31.9 5.32506 31.9C6.08106 31.9 9.31506 28.708 12.3391 24.97ZM31.977 17.83C31.977 18.46 30.675 19.552 29.919 19.93C28.911 18.712 27.651 17.494 25.845 17.494C25.719 17.494 25.593 17.494 25.467 17.536C25.131 17.788 24.417 18.922 24.417 19.93C24.417 20.56 24.669 21.442 25.173 22.072C26.139 23.29 27.273 24.298 28.197 25.264C28.953 26.062 29.793 27.196 29.793 28.414C29.793 31.354 26.643 34.462 22.695 34.462C19.965 34.462 18.495 32.572 18.495 31.648C18.495 30.976 19.797 29.926 20.511 29.59C21.225 30.724 22.821 32.656 25.425 32.656C25.677 32.656 25.971 32.614 26.265 32.53C26.727 32.278 27.525 31.27 27.525 30.304C27.525 28.96 25.887 27.7 24.333 26.062C22.779 24.424 21.729 23.29 21.729 21.736C21.729 19.006 25.383 15.562 28.365 15.562C30.633 15.562 31.977 16.864 31.977 17.83ZM49.7798 28.624L50.5358 29.254C48.1418 32.278 46.4198 34.336 44.3198 34.336C43.6478 34.336 42.9338 33.412 42.4718 32.656C40.9178 30.136 40.3718 28.75 38.8598 25.516L37.5998 26.062L36.0458 34H32.9378L37.9358 9.472C38.1038 8.716 38.1878 8.212 38.1878 7.792C38.1878 6.952 37.8098 6.658 36.6338 6.658C36.2558 6.658 35.6258 6.784 35.0798 6.826L35.2898 5.86L41.4218 4.264H42.0938L37.8518 24.886C42.9338 23.122 44.9078 21.19 45.1598 20.854C45.5798 20.182 45.6218 19.804 45.6218 19.174C45.6218 18.292 45.2018 17.788 44.6558 17.074C45.2438 16.402 47.2598 15.562 48.0998 15.52C48.6878 15.604 49.2338 16.234 49.2338 17.2C49.2338 17.788 49.1078 18.376 48.6038 19.258C47.3858 21.4 45.0758 22.996 41.7158 24.466C42.7658 26.818 43.6478 28.834 44.9918 30.766C45.3278 31.27 45.8738 31.9 46.2938 31.9C46.8818 31.9 48.3098 30.556 49.7798 28.624Z" fill="#106EBE"/>
<path d="M82.6402 4.155V5.189C80.0082 5.33 78.7862 6.176 77.4232 8.432L69.6212 21.263V30.381C70.6082 32.59 72.7702 32.825 74.9322 32.919V34H59.9392V32.919C62.1012 32.825 64.6862 32.449 65.3912 31.039V21.686L57.3072 8.385C55.9442 6.176 54.6752 5.33 52.0902 5.189V4.155H65.0622V5.189C62.5712 5.33 61.8192 5.847 61.1142 6.411L68.5402 19.007L75.8722 6.505C75.1202 5.941 74.4152 5.33 71.9242 5.189V4.155H82.6402ZM98.9473 30.569V31.791C97.8193 32.966 95.5163 34.423 94.0123 34.423C91.6153 34.423 90.6283 32.496 90.5813 31.415C88.9363 33.107 86.3513 34.423 84.6123 34.423C82.3093 34.423 79.9123 32.872 79.9123 30.146C79.9123 28.877 80.1003 27.279 80.8523 26.198L90.5813 22.767L90.6283 19.477C90.6753 17.315 88.8893 14.965 86.7273 14.965C85.4113 14.965 84.2833 16.61 84.1893 18.913L80.3823 19.618V19.101C81.6983 15.153 86.7273 13.179 88.7953 13.179C93.0723 13.179 94.4823 15.435 94.4353 19.054L94.2473 29.206C94.2003 31.133 95.2343 31.744 96.2213 31.744C97.2553 31.744 97.8663 31.321 98.9473 30.569ZM90.5343 30.522L90.5813 23.895C89.3593 24.459 85.7873 25.822 84.4243 26.574C84.2363 27.326 84.0953 28.36 84.0953 29.3C84.0953 30.71 84.8943 32.026 86.3043 32.026C88.1843 32.026 89.0773 31.556 90.5343 30.522ZM109.591 32.919V34H99.2513V32.919C101.507 32.778 102.071 32.308 102.447 31.509V6.317C102.447 4.719 102.541 4.061 99.2983 3.732V2.839L106.348 0.724H107.1V1.382L106.207 2.98V31.509C106.677 32.449 107.241 32.684 109.591 32.919ZM128.326 29.112L129.031 30.193C126.164 32.825 124.002 34.376 120.148 34.376C115.307 34.376 111.594 30.475 111.594 24.788C111.594 17.879 115.73 13.226 121.417 13.226C126.164 13.226 128.373 15.717 128.373 20.182V20.981L115.542 20.887C115.495 21.31 115.448 22.344 115.448 23.425C115.448 28.36 118.738 31.65 122.639 31.65C125.318 31.65 126.305 30.851 128.326 29.112ZM115.73 19.618L124.566 19.524C124.566 16.986 122.686 14.636 120.571 14.636C118.08 14.636 116.247 16.516 115.73 19.618Z" fill="#00356B"/>
</svg>
