<svg width="190" height="137" viewBox="0 0 190 137" fill="none" xmlns="http://www.w3.org/2000/svg">
<rect x="0.5" y="0.5" width="188.253" height="135.205" rx="8.5" fill="white" stroke="#8C8C8C"/>
<rect width="167" height="52" transform="matrix(-1 0 0 1 178 51)" fill="#C9C8CE"/>
<path d="M11 51H178" stroke="black"/>
<rect x="92" y="39" width="27" height="54" fill="white"/>
<rect x="92" y="52" width="86" height="41" fill="white"/>
<line x1="92.5" y1="39" x2="92.5" y2="93" stroke="black"/>
<path d="M95.768 58H95.4V55.2H95.756L97.524 57.212V55.2H97.888V58.02H97.756L95.768 55.756V58ZM100.261 56.784V57.952L99.901 58.032V57.676C99.7516 57.796 99.6103 57.8853 99.477 57.944C99.3463 58.0027 99.2183 58.032 99.093 58.032C98.917 58.032 98.7743 57.984 98.665 57.888C98.5556 57.7893 98.501 57.6587 98.501 57.496C98.501 57.2667 98.6156 57.0973 98.845 56.988C99.0743 56.876 99.4263 56.8173 99.901 56.812V56.804C99.901 56.6387 99.861 56.5133 99.781 56.428C99.7036 56.34 99.5903 56.296 99.441 56.296C99.329 56.296 99.213 56.32 99.093 56.368C98.9756 56.416 98.8543 56.488 98.729 56.584L98.721 56.58L98.797 56.176C98.9036 56.104 99.0143 56.0507 99.129 56.016C99.2463 55.9813 99.369 55.964 99.497 55.964C99.7423 55.964 99.9303 56.0347 100.061 56.176C100.194 56.3173 100.261 56.52 100.261 56.784ZM98.865 57.48C98.865 57.5547 98.8916 57.6147 98.945 57.66C98.9983 57.7027 99.0716 57.724 99.165 57.724C99.2583 57.724 99.365 57.7013 99.485 57.656C99.605 57.6107 99.7436 57.54 99.901 57.444V57.044C99.5543 57.0653 99.2943 57.112 99.121 57.184C98.9503 57.2533 98.865 57.352 98.865 57.48ZM102.312 56H102.704L101.648 58.056H101.572L100.588 56H100.984L101.624 57.412L102.312 56ZM104.453 58H104.065V55.2H104.453V58ZM106.495 57.52L106.415 57.904C106.356 57.9467 106.287 57.98 106.207 58.004C106.127 58.0307 106.044 58.044 105.959 58.044C105.77 58.044 105.62 57.9853 105.511 57.868C105.402 57.7507 105.347 57.5867 105.347 57.376V56.308H105.007V56H105.347V55.552L105.703 55.42V56H106.487V56.308H105.703V57.36C105.703 57.48 105.731 57.5707 105.787 57.632C105.843 57.6907 105.926 57.72 106.035 57.72C106.11 57.72 106.184 57.704 106.259 57.672C106.334 57.6373 106.41 57.5853 106.487 57.516L106.495 57.52ZM108.66 57.472L108.528 57.868C108.411 57.932 108.301 57.9773 108.2 58.004C108.099 58.0307 107.988 58.044 107.868 58.044C107.551 58.044 107.299 57.9493 107.112 57.76C106.925 57.5707 106.832 57.3173 106.832 57C106.832 56.7067 106.925 56.4573 107.112 56.252C107.299 56.0467 107.531 55.944 107.808 55.944C108.085 55.944 108.307 56.0413 108.472 56.236C108.637 56.428 108.72 56.676 108.72 56.98C108.72 57.0067 108.719 57.036 108.716 57.068C108.713 57.1 108.711 57.124 108.708 57.14H107.204C107.231 57.3213 107.305 57.4627 107.428 57.564C107.553 57.6653 107.713 57.716 107.908 57.716C108.025 57.716 108.148 57.6947 108.276 57.652C108.407 57.6067 108.532 57.5453 108.652 57.468L108.66 57.472ZM107.796 56.26C107.633 56.26 107.496 56.3173 107.384 56.432C107.275 56.5467 107.212 56.6933 107.196 56.872H108.356C108.34 56.68 108.283 56.5307 108.184 56.424C108.085 56.3147 107.956 56.26 107.796 56.26ZM110.155 56.284C110.061 56.284 109.972 56.3107 109.887 56.364C109.804 56.4147 109.707 56.5027 109.595 56.628V58H109.235V56.048L109.595 55.968V56.36C109.701 56.2187 109.808 56.1173 109.915 56.056C110.021 55.992 110.137 55.96 110.263 55.96C110.409 55.96 110.536 55.9987 110.643 56.076C110.752 56.1533 110.832 56.2627 110.883 56.404C111 56.2467 111.115 56.1333 111.227 56.064C111.339 55.9947 111.464 55.96 111.603 55.96C111.805 55.96 111.968 56.0307 112.091 56.172C112.216 56.3133 112.279 56.5027 112.279 56.74V58H111.915V56.776C111.915 56.6213 111.877 56.5013 111.803 56.416C111.728 56.328 111.625 56.284 111.495 56.284C111.401 56.284 111.311 56.3107 111.223 56.364C111.137 56.4173 111.04 56.5067 110.931 56.632C110.933 56.6427 110.935 56.656 110.935 56.672C110.935 56.6853 110.935 56.708 110.935 56.74V58H110.575V56.776C110.575 56.6213 110.537 56.5013 110.463 56.416C110.388 56.328 110.285 56.284 110.155 56.284Z" fill="black"/>
<path d="M122.768 58H122.4V55.2H122.756L124.524 57.212V55.2H124.888V58.02H124.756L122.768 55.756V58ZM127.261 56.784V57.952L126.901 58.032V57.676C126.752 57.796 126.61 57.8853 126.477 57.944C126.346 58.0027 126.218 58.032 126.093 58.032C125.917 58.032 125.774 57.984 125.665 57.888C125.556 57.7893 125.501 57.6587 125.501 57.496C125.501 57.2667 125.616 57.0973 125.845 56.988C126.074 56.876 126.426 56.8173 126.901 56.812V56.804C126.901 56.6387 126.861 56.5133 126.781 56.428C126.704 56.34 126.59 56.296 126.441 56.296C126.329 56.296 126.213 56.32 126.093 56.368C125.976 56.416 125.854 56.488 125.729 56.584L125.721 56.58L125.797 56.176C125.904 56.104 126.014 56.0507 126.129 56.016C126.246 55.9813 126.369 55.964 126.497 55.964C126.742 55.964 126.93 56.0347 127.061 56.176C127.194 56.3173 127.261 56.52 127.261 56.784ZM125.865 57.48C125.865 57.5547 125.892 57.6147 125.945 57.66C125.998 57.7027 126.072 57.724 126.165 57.724C126.258 57.724 126.365 57.7013 126.485 57.656C126.605 57.6107 126.744 57.54 126.901 57.444V57.044C126.554 57.0653 126.294 57.112 126.121 57.184C125.95 57.2533 125.865 57.352 125.865 57.48ZM129.312 56H129.704L128.648 58.056H128.572L127.588 56H127.984L128.624 57.412L129.312 56ZM131.453 58H131.065V55.2H131.453V58ZM133.495 57.52L133.415 57.904C133.356 57.9467 133.287 57.98 133.207 58.004C133.127 58.0307 133.044 58.044 132.959 58.044C132.77 58.044 132.62 57.9853 132.511 57.868C132.402 57.7507 132.347 57.5867 132.347 57.376V56.308H132.007V56H132.347V55.552L132.703 55.42V56H133.487V56.308H132.703V57.36C132.703 57.48 132.731 57.5707 132.787 57.632C132.843 57.6907 132.926 57.72 133.035 57.72C133.11 57.72 133.184 57.704 133.259 57.672C133.334 57.6373 133.41 57.5853 133.487 57.516L133.495 57.52ZM135.66 57.472L135.528 57.868C135.411 57.932 135.301 57.9773 135.2 58.004C135.099 58.0307 134.988 58.044 134.868 58.044C134.551 58.044 134.299 57.9493 134.112 57.76C133.925 57.5707 133.832 57.3173 133.832 57C133.832 56.7067 133.925 56.4573 134.112 56.252C134.299 56.0467 134.531 55.944 134.808 55.944C135.085 55.944 135.307 56.0413 135.472 56.236C135.637 56.428 135.72 56.676 135.72 56.98C135.72 57.0067 135.719 57.036 135.716 57.068C135.713 57.1 135.711 57.124 135.708 57.14H134.204C134.231 57.3213 134.305 57.4627 134.428 57.564C134.553 57.6653 134.713 57.716 134.908 57.716C135.025 57.716 135.148 57.6947 135.276 57.652C135.407 57.6067 135.532 57.5453 135.652 57.468L135.66 57.472ZM134.796 56.26C134.633 56.26 134.496 56.3173 134.384 56.432C134.275 56.5467 134.212 56.6933 134.196 56.872H135.356C135.34 56.68 135.283 56.5307 135.184 56.424C135.085 56.3147 134.956 56.26 134.796 56.26ZM137.155 56.284C137.061 56.284 136.972 56.3107 136.887 56.364C136.804 56.4147 136.707 56.5027 136.595 56.628V58H136.235V56.048L136.595 55.968V56.36C136.701 56.2187 136.808 56.1173 136.915 56.056C137.021 55.992 137.137 55.96 137.263 55.96C137.409 55.96 137.536 55.9987 137.643 56.076C137.752 56.1533 137.832 56.2627 137.883 56.404C138 56.2467 138.115 56.1333 138.227 56.064C138.339 55.9947 138.464 55.96 138.603 55.96C138.805 55.96 138.968 56.0307 139.091 56.172C139.216 56.3133 139.279 56.5027 139.279 56.74V58H138.915V56.776C138.915 56.6213 138.877 56.5013 138.803 56.416C138.728 56.328 138.625 56.284 138.495 56.284C138.401 56.284 138.311 56.3107 138.223 56.364C138.137 56.4173 138.04 56.5067 137.931 56.632C137.933 56.6427 137.935 56.656 137.935 56.672C137.935 56.6853 137.935 56.708 137.935 56.74V58H137.575V56.776C137.575 56.6213 137.537 56.5013 137.463 56.416C137.388 56.328 137.285 56.284 137.155 56.284Z" fill="black"/>
<path d="M149.768 58H149.4V55.2H149.756L151.524 57.212V55.2H151.888V58.02H151.756L149.768 55.756V58ZM154.261 56.784V57.952L153.901 58.032V57.676C153.752 57.796 153.61 57.8853 153.477 57.944C153.346 58.0027 153.218 58.032 153.093 58.032C152.917 58.032 152.774 57.984 152.665 57.888C152.556 57.7893 152.501 57.6587 152.501 57.496C152.501 57.2667 152.616 57.0973 152.845 56.988C153.074 56.876 153.426 56.8173 153.901 56.812V56.804C153.901 56.6387 153.861 56.5133 153.781 56.428C153.704 56.34 153.59 56.296 153.441 56.296C153.329 56.296 153.213 56.32 153.093 56.368C152.976 56.416 152.854 56.488 152.729 56.584L152.721 56.58L152.797 56.176C152.904 56.104 153.014 56.0507 153.129 56.016C153.246 55.9813 153.369 55.964 153.497 55.964C153.742 55.964 153.93 56.0347 154.061 56.176C154.194 56.3173 154.261 56.52 154.261 56.784ZM152.865 57.48C152.865 57.5547 152.892 57.6147 152.945 57.66C152.998 57.7027 153.072 57.724 153.165 57.724C153.258 57.724 153.365 57.7013 153.485 57.656C153.605 57.6107 153.744 57.54 153.901 57.444V57.044C153.554 57.0653 153.294 57.112 153.121 57.184C152.95 57.2533 152.865 57.352 152.865 57.48ZM156.312 56H156.704L155.648 58.056H155.572L154.588 56H154.984L155.624 57.412L156.312 56ZM158.453 58H158.065V55.2H158.453V58ZM160.495 57.52L160.415 57.904C160.356 57.9467 160.287 57.98 160.207 58.004C160.127 58.0307 160.044 58.044 159.959 58.044C159.77 58.044 159.62 57.9853 159.511 57.868C159.402 57.7507 159.347 57.5867 159.347 57.376V56.308H159.007V56H159.347V55.552L159.703 55.42V56H160.487V56.308H159.703V57.36C159.703 57.48 159.731 57.5707 159.787 57.632C159.843 57.6907 159.926 57.72 160.035 57.72C160.11 57.72 160.184 57.704 160.259 57.672C160.334 57.6373 160.41 57.5853 160.487 57.516L160.495 57.52ZM162.66 57.472L162.528 57.868C162.411 57.932 162.301 57.9773 162.2 58.004C162.099 58.0307 161.988 58.044 161.868 58.044C161.551 58.044 161.299 57.9493 161.112 57.76C160.925 57.5707 160.832 57.3173 160.832 57C160.832 56.7067 160.925 56.4573 161.112 56.252C161.299 56.0467 161.531 55.944 161.808 55.944C162.085 55.944 162.307 56.0413 162.472 56.236C162.637 56.428 162.72 56.676 162.72 56.98C162.72 57.0067 162.719 57.036 162.716 57.068C162.713 57.1 162.711 57.124 162.708 57.14H161.204C161.231 57.3213 161.305 57.4627 161.428 57.564C161.553 57.6653 161.713 57.716 161.908 57.716C162.025 57.716 162.148 57.6947 162.276 57.652C162.407 57.6067 162.532 57.5453 162.652 57.468L162.66 57.472ZM161.796 56.26C161.633 56.26 161.496 56.3173 161.384 56.432C161.275 56.5467 161.212 56.6933 161.196 56.872H162.356C162.34 56.68 162.283 56.5307 162.184 56.424C162.085 56.3147 161.956 56.26 161.796 56.26ZM164.155 56.284C164.061 56.284 163.972 56.3107 163.887 56.364C163.804 56.4147 163.707 56.5027 163.595 56.628V58H163.235V56.048L163.595 55.968V56.36C163.701 56.2187 163.808 56.1173 163.915 56.056C164.021 55.992 164.137 55.96 164.263 55.96C164.409 55.96 164.536 55.9987 164.643 56.076C164.752 56.1533 164.832 56.2627 164.883 56.404C165 56.2467 165.115 56.1333 165.227 56.064C165.339 55.9947 165.464 55.96 165.603 55.96C165.805 55.96 165.968 56.0307 166.091 56.172C166.216 56.3133 166.279 56.5027 166.279 56.74V58H165.915V56.776C165.915 56.6213 165.877 56.5013 165.803 56.416C165.728 56.328 165.625 56.284 165.495 56.284C165.401 56.284 165.311 56.3107 165.223 56.364C165.137 56.4173 165.04 56.5067 164.931 56.632C164.933 56.6427 164.935 56.656 164.935 56.672C164.935 56.6853 164.935 56.708 164.935 56.74V58H164.575V56.776C164.575 56.6213 164.537 56.5013 164.463 56.416C164.388 56.328 164.285 56.284 164.155 56.284Z" fill="black"/>
<path d="M95.768 69H95.4V66.2H95.756L97.524 68.212V66.2H97.888V69.02H97.756L95.768 66.756V69ZM100.261 67.784V68.952L99.901 69.032V68.676C99.7516 68.796 99.6103 68.8853 99.477 68.944C99.3463 69.0027 99.2183 69.032 99.093 69.032C98.917 69.032 98.7743 68.984 98.665 68.888C98.5556 68.7893 98.501 68.6587 98.501 68.496C98.501 68.2667 98.6156 68.0973 98.845 67.988C99.0743 67.876 99.4263 67.8173 99.901 67.812V67.804C99.901 67.6387 99.861 67.5133 99.781 67.428C99.7036 67.34 99.5903 67.296 99.441 67.296C99.329 67.296 99.213 67.32 99.093 67.368C98.9756 67.416 98.8543 67.488 98.729 67.584L98.721 67.58L98.797 67.176C98.9036 67.104 99.0143 67.0507 99.129 67.016C99.2463 66.9813 99.369 66.964 99.497 66.964C99.7423 66.964 99.9303 67.0347 100.061 67.176C100.194 67.3173 100.261 67.52 100.261 67.784ZM98.865 68.48C98.865 68.5547 98.8916 68.6147 98.945 68.66C98.9983 68.7027 99.0716 68.724 99.165 68.724C99.2583 68.724 99.365 68.7013 99.485 68.656C99.605 68.6107 99.7436 68.54 99.901 68.444V68.044C99.5543 68.0653 99.2943 68.112 99.121 68.184C98.9503 68.2533 98.865 68.352 98.865 68.48ZM102.312 67H102.704L101.648 69.056H101.572L100.588 67H100.984L101.624 68.412L102.312 67ZM104.453 69H104.065V66.2H104.453V69ZM106.495 68.52L106.415 68.904C106.356 68.9467 106.287 68.98 106.207 69.004C106.127 69.0307 106.044 69.044 105.959 69.044C105.77 69.044 105.62 68.9853 105.511 68.868C105.402 68.7507 105.347 68.5867 105.347 68.376V67.308H105.007V67H105.347V66.552L105.703 66.42V67H106.487V67.308H105.703V68.36C105.703 68.48 105.731 68.5707 105.787 68.632C105.843 68.6907 105.926 68.72 106.035 68.72C106.11 68.72 106.184 68.704 106.259 68.672C106.334 68.6373 106.41 68.5853 106.487 68.516L106.495 68.52ZM108.66 68.472L108.528 68.868C108.411 68.932 108.301 68.9773 108.2 69.004C108.099 69.0307 107.988 69.044 107.868 69.044C107.551 69.044 107.299 68.9493 107.112 68.76C106.925 68.5707 106.832 68.3173 106.832 68C106.832 67.7067 106.925 67.4573 107.112 67.252C107.299 67.0467 107.531 66.944 107.808 66.944C108.085 66.944 108.307 67.0413 108.472 67.236C108.637 67.428 108.72 67.676 108.72 67.98C108.72 68.0067 108.719 68.036 108.716 68.068C108.713 68.1 108.711 68.124 108.708 68.14H107.204C107.231 68.3213 107.305 68.4627 107.428 68.564C107.553 68.6653 107.713 68.716 107.908 68.716C108.025 68.716 108.148 68.6947 108.276 68.652C108.407 68.6067 108.532 68.5453 108.652 68.468L108.66 68.472ZM107.796 67.26C107.633 67.26 107.496 67.3173 107.384 67.432C107.275 67.5467 107.212 67.6933 107.196 67.872H108.356C108.34 67.68 108.283 67.5307 108.184 67.424C108.085 67.3147 107.956 67.26 107.796 67.26ZM110.155 67.284C110.061 67.284 109.972 67.3107 109.887 67.364C109.804 67.4147 109.707 67.5027 109.595 67.628V69H109.235V67.048L109.595 66.968V67.36C109.701 67.2187 109.808 67.1173 109.915 67.056C110.021 66.992 110.137 66.96 110.263 66.96C110.409 66.96 110.536 66.9987 110.643 67.076C110.752 67.1533 110.832 67.2627 110.883 67.404C111 67.2467 111.115 67.1333 111.227 67.064C111.339 66.9947 111.464 66.96 111.603 66.96C111.805 66.96 111.968 67.0307 112.091 67.172C112.216 67.3133 112.279 67.5027 112.279 67.74V69H111.915V67.776C111.915 67.6213 111.877 67.5013 111.803 67.416C111.728 67.328 111.625 67.284 111.495 67.284C111.401 67.284 111.311 67.3107 111.223 67.364C111.137 67.4173 111.04 67.5067 110.931 67.632C110.933 67.6427 110.935 67.656 110.935 67.672C110.935 67.6853 110.935 67.708 110.935 67.74V69H110.575V67.776C110.575 67.6213 110.537 67.5013 110.463 67.416C110.388 67.328 110.285 67.284 110.155 67.284Z" fill="black"/>
<path d="M122.768 69H122.4V66.2H122.756L124.524 68.212V66.2H124.888V69.02H124.756L122.768 66.756V69ZM127.261 67.784V68.952L126.901 69.032V68.676C126.752 68.796 126.61 68.8853 126.477 68.944C126.346 69.0027 126.218 69.032 126.093 69.032C125.917 69.032 125.774 68.984 125.665 68.888C125.556 68.7893 125.501 68.6587 125.501 68.496C125.501 68.2667 125.616 68.0973 125.845 67.988C126.074 67.876 126.426 67.8173 126.901 67.812V67.804C126.901 67.6387 126.861 67.5133 126.781 67.428C126.704 67.34 126.59 67.296 126.441 67.296C126.329 67.296 126.213 67.32 126.093 67.368C125.976 67.416 125.854 67.488 125.729 67.584L125.721 67.58L125.797 67.176C125.904 67.104 126.014 67.0507 126.129 67.016C126.246 66.9813 126.369 66.964 126.497 66.964C126.742 66.964 126.93 67.0347 127.061 67.176C127.194 67.3173 127.261 67.52 127.261 67.784ZM125.865 68.48C125.865 68.5547 125.892 68.6147 125.945 68.66C125.998 68.7027 126.072 68.724 126.165 68.724C126.258 68.724 126.365 68.7013 126.485 68.656C126.605 68.6107 126.744 68.54 126.901 68.444V68.044C126.554 68.0653 126.294 68.112 126.121 68.184C125.95 68.2533 125.865 68.352 125.865 68.48ZM129.312 67H129.704L128.648 69.056H128.572L127.588 67H127.984L128.624 68.412L129.312 67ZM131.453 69H131.065V66.2H131.453V69ZM133.495 68.52L133.415 68.904C133.356 68.9467 133.287 68.98 133.207 69.004C133.127 69.0307 133.044 69.044 132.959 69.044C132.77 69.044 132.62 68.9853 132.511 68.868C132.402 68.7507 132.347 68.5867 132.347 68.376V67.308H132.007V67H132.347V66.552L132.703 66.42V67H133.487V67.308H132.703V68.36C132.703 68.48 132.731 68.5707 132.787 68.632C132.843 68.6907 132.926 68.72 133.035 68.72C133.11 68.72 133.184 68.704 133.259 68.672C133.334 68.6373 133.41 68.5853 133.487 68.516L133.495 68.52ZM135.66 68.472L135.528 68.868C135.411 68.932 135.301 68.9773 135.2 69.004C135.099 69.0307 134.988 69.044 134.868 69.044C134.551 69.044 134.299 68.9493 134.112 68.76C133.925 68.5707 133.832 68.3173 133.832 68C133.832 67.7067 133.925 67.4573 134.112 67.252C134.299 67.0467 134.531 66.944 134.808 66.944C135.085 66.944 135.307 67.0413 135.472 67.236C135.637 67.428 135.72 67.676 135.72 67.98C135.72 68.0067 135.719 68.036 135.716 68.068C135.713 68.1 135.711 68.124 135.708 68.14H134.204C134.231 68.3213 134.305 68.4627 134.428 68.564C134.553 68.6653 134.713 68.716 134.908 68.716C135.025 68.716 135.148 68.6947 135.276 68.652C135.407 68.6067 135.532 68.5453 135.652 68.468L135.66 68.472ZM134.796 67.26C134.633 67.26 134.496 67.3173 134.384 67.432C134.275 67.5467 134.212 67.6933 134.196 67.872H135.356C135.34 67.68 135.283 67.5307 135.184 67.424C135.085 67.3147 134.956 67.26 134.796 67.26ZM137.155 67.284C137.061 67.284 136.972 67.3107 136.887 67.364C136.804 67.4147 136.707 67.5027 136.595 67.628V69H136.235V67.048L136.595 66.968V67.36C136.701 67.2187 136.808 67.1173 136.915 67.056C137.021 66.992 137.137 66.96 137.263 66.96C137.409 66.96 137.536 66.9987 137.643 67.076C137.752 67.1533 137.832 67.2627 137.883 67.404C138 67.2467 138.115 67.1333 138.227 67.064C138.339 66.9947 138.464 66.96 138.603 66.96C138.805 66.96 138.968 67.0307 139.091 67.172C139.216 67.3133 139.279 67.5027 139.279 67.74V69H138.915V67.776C138.915 67.6213 138.877 67.5013 138.803 67.416C138.728 67.328 138.625 67.284 138.495 67.284C138.401 67.284 138.311 67.3107 138.223 67.364C138.137 67.4173 138.04 67.5067 137.931 67.632C137.933 67.6427 137.935 67.656 137.935 67.672C137.935 67.6853 137.935 67.708 137.935 67.74V69H137.575V67.776C137.575 67.6213 137.537 67.5013 137.463 67.416C137.388 67.328 137.285 67.284 137.155 67.284Z" fill="black"/>
<path d="M149.768 69H149.4V66.2H149.756L151.524 68.212V66.2H151.888V69.02H151.756L149.768 66.756V69ZM154.261 67.784V68.952L153.901 69.032V68.676C153.752 68.796 153.61 68.8853 153.477 68.944C153.346 69.0027 153.218 69.032 153.093 69.032C152.917 69.032 152.774 68.984 152.665 68.888C152.556 68.7893 152.501 68.6587 152.501 68.496C152.501 68.2667 152.616 68.0973 152.845 67.988C153.074 67.876 153.426 67.8173 153.901 67.812V67.804C153.901 67.6387 153.861 67.5133 153.781 67.428C153.704 67.34 153.59 67.296 153.441 67.296C153.329 67.296 153.213 67.32 153.093 67.368C152.976 67.416 152.854 67.488 152.729 67.584L152.721 67.58L152.797 67.176C152.904 67.104 153.014 67.0507 153.129 67.016C153.246 66.9813 153.369 66.964 153.497 66.964C153.742 66.964 153.93 67.0347 154.061 67.176C154.194 67.3173 154.261 67.52 154.261 67.784ZM152.865 68.48C152.865 68.5547 152.892 68.6147 152.945 68.66C152.998 68.7027 153.072 68.724 153.165 68.724C153.258 68.724 153.365 68.7013 153.485 68.656C153.605 68.6107 153.744 68.54 153.901 68.444V68.044C153.554 68.0653 153.294 68.112 153.121 68.184C152.95 68.2533 152.865 68.352 152.865 68.48ZM156.312 67H156.704L155.648 69.056H155.572L154.588 67H154.984L155.624 68.412L156.312 67ZM158.453 69H158.065V66.2H158.453V69ZM160.495 68.52L160.415 68.904C160.356 68.9467 160.287 68.98 160.207 69.004C160.127 69.0307 160.044 69.044 159.959 69.044C159.77 69.044 159.62 68.9853 159.511 68.868C159.402 68.7507 159.347 68.5867 159.347 68.376V67.308H159.007V67H159.347V66.552L159.703 66.42V67H160.487V67.308H159.703V68.36C159.703 68.48 159.731 68.5707 159.787 68.632C159.843 68.6907 159.926 68.72 160.035 68.72C160.11 68.72 160.184 68.704 160.259 68.672C160.334 68.6373 160.41 68.5853 160.487 68.516L160.495 68.52ZM162.66 68.472L162.528 68.868C162.411 68.932 162.301 68.9773 162.2 69.004C162.099 69.0307 161.988 69.044 161.868 69.044C161.551 69.044 161.299 68.9493 161.112 68.76C160.925 68.5707 160.832 68.3173 160.832 68C160.832 67.7067 160.925 67.4573 161.112 67.252C161.299 67.0467 161.531 66.944 161.808 66.944C162.085 66.944 162.307 67.0413 162.472 67.236C162.637 67.428 162.72 67.676 162.72 67.98C162.72 68.0067 162.719 68.036 162.716 68.068C162.713 68.1 162.711 68.124 162.708 68.14H161.204C161.231 68.3213 161.305 68.4627 161.428 68.564C161.553 68.6653 161.713 68.716 161.908 68.716C162.025 68.716 162.148 68.6947 162.276 68.652C162.407 68.6067 162.532 68.5453 162.652 68.468L162.66 68.472ZM161.796 67.26C161.633 67.26 161.496 67.3173 161.384 67.432C161.275 67.5467 161.212 67.6933 161.196 67.872H162.356C162.34 67.68 162.283 67.5307 162.184 67.424C162.085 67.3147 161.956 67.26 161.796 67.26ZM164.155 67.284C164.061 67.284 163.972 67.3107 163.887 67.364C163.804 67.4147 163.707 67.5027 163.595 67.628V69H163.235V67.048L163.595 66.968V67.36C163.701 67.2187 163.808 67.1173 163.915 67.056C164.021 66.992 164.137 66.96 164.263 66.96C164.409 66.96 164.536 66.9987 164.643 67.076C164.752 67.1533 164.832 67.2627 164.883 67.404C165 67.2467 165.115 67.1333 165.227 67.064C165.339 66.9947 165.464 66.96 165.603 66.96C165.805 66.96 165.968 67.0307 166.091 67.172C166.216 67.3133 166.279 67.5027 166.279 67.74V69H165.915V67.776C165.915 67.6213 165.877 67.5013 165.803 67.416C165.728 67.328 165.625 67.284 165.495 67.284C165.401 67.284 165.311 67.3107 165.223 67.364C165.137 67.4173 165.04 67.5067 164.931 67.632C164.933 67.6427 164.935 67.656 164.935 67.672C164.935 67.6853 164.935 67.708 164.935 67.74V69H164.575V67.776C164.575 67.6213 164.537 67.5013 164.463 67.416C164.388 67.328 164.285 67.284 164.155 67.284Z" fill="black"/>
<path d="M95.768 80H95.4V77.2H95.756L97.524 79.212V77.2H97.888V80.02H97.756L95.768 77.756V80ZM100.261 78.784V79.952L99.901 80.032V79.676C99.7516 79.796 99.6103 79.8853 99.477 79.944C99.3463 80.0027 99.2183 80.032 99.093 80.032C98.917 80.032 98.7743 79.984 98.665 79.888C98.5556 79.7893 98.501 79.6587 98.501 79.496C98.501 79.2667 98.6156 79.0973 98.845 78.988C99.0743 78.876 99.4263 78.8173 99.901 78.812V78.804C99.901 78.6387 99.861 78.5133 99.781 78.428C99.7036 78.34 99.5903 78.296 99.441 78.296C99.329 78.296 99.213 78.32 99.093 78.368C98.9756 78.416 98.8543 78.488 98.729 78.584L98.721 78.58L98.797 78.176C98.9036 78.104 99.0143 78.0507 99.129 78.016C99.2463 77.9813 99.369 77.964 99.497 77.964C99.7423 77.964 99.9303 78.0347 100.061 78.176C100.194 78.3173 100.261 78.52 100.261 78.784ZM98.865 79.48C98.865 79.5547 98.8916 79.6147 98.945 79.66C98.9983 79.7027 99.0716 79.724 99.165 79.724C99.2583 79.724 99.365 79.7013 99.485 79.656C99.605 79.6107 99.7436 79.54 99.901 79.444V79.044C99.5543 79.0653 99.2943 79.112 99.121 79.184C98.9503 79.2533 98.865 79.352 98.865 79.48ZM102.312 78H102.704L101.648 80.056H101.572L100.588 78H100.984L101.624 79.412L102.312 78ZM104.453 80H104.065V77.2H104.453V80ZM106.495 79.52L106.415 79.904C106.356 79.9467 106.287 79.98 106.207 80.004C106.127 80.0307 106.044 80.044 105.959 80.044C105.77 80.044 105.62 79.9853 105.511 79.868C105.402 79.7507 105.347 79.5867 105.347 79.376V78.308H105.007V78H105.347V77.552L105.703 77.42V78H106.487V78.308H105.703V79.36C105.703 79.48 105.731 79.5707 105.787 79.632C105.843 79.6907 105.926 79.72 106.035 79.72C106.11 79.72 106.184 79.704 106.259 79.672C106.334 79.6373 106.41 79.5853 106.487 79.516L106.495 79.52ZM108.66 79.472L108.528 79.868C108.411 79.932 108.301 79.9773 108.2 80.004C108.099 80.0307 107.988 80.044 107.868 80.044C107.551 80.044 107.299 79.9493 107.112 79.76C106.925 79.5707 106.832 79.3173 106.832 79C106.832 78.7067 106.925 78.4573 107.112 78.252C107.299 78.0467 107.531 77.944 107.808 77.944C108.085 77.944 108.307 78.0413 108.472 78.236C108.637 78.428 108.72 78.676 108.72 78.98C108.72 79.0067 108.719 79.036 108.716 79.068C108.713 79.1 108.711 79.124 108.708 79.14H107.204C107.231 79.3213 107.305 79.4627 107.428 79.564C107.553 79.6653 107.713 79.716 107.908 79.716C108.025 79.716 108.148 79.6947 108.276 79.652C108.407 79.6067 108.532 79.5453 108.652 79.468L108.66 79.472ZM107.796 78.26C107.633 78.26 107.496 78.3173 107.384 78.432C107.275 78.5467 107.212 78.6933 107.196 78.872H108.356C108.34 78.68 108.283 78.5307 108.184 78.424C108.085 78.3147 107.956 78.26 107.796 78.26ZM110.155 78.284C110.061 78.284 109.972 78.3107 109.887 78.364C109.804 78.4147 109.707 78.5027 109.595 78.628V80H109.235V78.048L109.595 77.968V78.36C109.701 78.2187 109.808 78.1173 109.915 78.056C110.021 77.992 110.137 77.96 110.263 77.96C110.409 77.96 110.536 77.9987 110.643 78.076C110.752 78.1533 110.832 78.2627 110.883 78.404C111 78.2467 111.115 78.1333 111.227 78.064C111.339 77.9947 111.464 77.96 111.603 77.96C111.805 77.96 111.968 78.0307 112.091 78.172C112.216 78.3133 112.279 78.5027 112.279 78.74V80H111.915V78.776C111.915 78.6213 111.877 78.5013 111.803 78.416C111.728 78.328 111.625 78.284 111.495 78.284C111.401 78.284 111.311 78.3107 111.223 78.364C111.137 78.4173 111.04 78.5067 110.931 78.632C110.933 78.6427 110.935 78.656 110.935 78.672C110.935 78.6853 110.935 78.708 110.935 78.74V80H110.575V78.776C110.575 78.6213 110.537 78.5013 110.463 78.416C110.388 78.328 110.285 78.284 110.155 78.284Z" fill="black"/>
<path d="M122.768 80H122.4V77.2H122.756L124.524 79.212V77.2H124.888V80.02H124.756L122.768 77.756V80ZM127.261 78.784V79.952L126.901 80.032V79.676C126.752 79.796 126.61 79.8853 126.477 79.944C126.346 80.0027 126.218 80.032 126.093 80.032C125.917 80.032 125.774 79.984 125.665 79.888C125.556 79.7893 125.501 79.6587 125.501 79.496C125.501 79.2667 125.616 79.0973 125.845 78.988C126.074 78.876 126.426 78.8173 126.901 78.812V78.804C126.901 78.6387 126.861 78.5133 126.781 78.428C126.704 78.34 126.59 78.296 126.441 78.296C126.329 78.296 126.213 78.32 126.093 78.368C125.976 78.416 125.854 78.488 125.729 78.584L125.721 78.58L125.797 78.176C125.904 78.104 126.014 78.0507 126.129 78.016C126.246 77.9813 126.369 77.964 126.497 77.964C126.742 77.964 126.93 78.0347 127.061 78.176C127.194 78.3173 127.261 78.52 127.261 78.784ZM125.865 79.48C125.865 79.5547 125.892 79.6147 125.945 79.66C125.998 79.7027 126.072 79.724 126.165 79.724C126.258 79.724 126.365 79.7013 126.485 79.656C126.605 79.6107 126.744 79.54 126.901 79.444V79.044C126.554 79.0653 126.294 79.112 126.121 79.184C125.95 79.2533 125.865 79.352 125.865 79.48ZM129.312 78H129.704L128.648 80.056H128.572L127.588 78H127.984L128.624 79.412L129.312 78ZM131.453 80H131.065V77.2H131.453V80ZM133.495 79.52L133.415 79.904C133.356 79.9467 133.287 79.98 133.207 80.004C133.127 80.0307 133.044 80.044 132.959 80.044C132.77 80.044 132.62 79.9853 132.511 79.868C132.402 79.7507 132.347 79.5867 132.347 79.376V78.308H132.007V78H132.347V77.552L132.703 77.42V78H133.487V78.308H132.703V79.36C132.703 79.48 132.731 79.5707 132.787 79.632C132.843 79.6907 132.926 79.72 133.035 79.72C133.11 79.72 133.184 79.704 133.259 79.672C133.334 79.6373 133.41 79.5853 133.487 79.516L133.495 79.52ZM135.66 79.472L135.528 79.868C135.411 79.932 135.301 79.9773 135.2 80.004C135.099 80.0307 134.988 80.044 134.868 80.044C134.551 80.044 134.299 79.9493 134.112 79.76C133.925 79.5707 133.832 79.3173 133.832 79C133.832 78.7067 133.925 78.4573 134.112 78.252C134.299 78.0467 134.531 77.944 134.808 77.944C135.085 77.944 135.307 78.0413 135.472 78.236C135.637 78.428 135.72 78.676 135.72 78.98C135.72 79.0067 135.719 79.036 135.716 79.068C135.713 79.1 135.711 79.124 135.708 79.14H134.204C134.231 79.3213 134.305 79.4627 134.428 79.564C134.553 79.6653 134.713 79.716 134.908 79.716C135.025 79.716 135.148 79.6947 135.276 79.652C135.407 79.6067 135.532 79.5453 135.652 79.468L135.66 79.472ZM134.796 78.26C134.633 78.26 134.496 78.3173 134.384 78.432C134.275 78.5467 134.212 78.6933 134.196 78.872H135.356C135.34 78.68 135.283 78.5307 135.184 78.424C135.085 78.3147 134.956 78.26 134.796 78.26ZM137.155 78.284C137.061 78.284 136.972 78.3107 136.887 78.364C136.804 78.4147 136.707 78.5027 136.595 78.628V80H136.235V78.048L136.595 77.968V78.36C136.701 78.2187 136.808 78.1173 136.915 78.056C137.021 77.992 137.137 77.96 137.263 77.96C137.409 77.96 137.536 77.9987 137.643 78.076C137.752 78.1533 137.832 78.2627 137.883 78.404C138 78.2467 138.115 78.1333 138.227 78.064C138.339 77.9947 138.464 77.96 138.603 77.96C138.805 77.96 138.968 78.0307 139.091 78.172C139.216 78.3133 139.279 78.5027 139.279 78.74V80H138.915V78.776C138.915 78.6213 138.877 78.5013 138.803 78.416C138.728 78.328 138.625 78.284 138.495 78.284C138.401 78.284 138.311 78.3107 138.223 78.364C138.137 78.4173 138.04 78.5067 137.931 78.632C137.933 78.6427 137.935 78.656 137.935 78.672C137.935 78.6853 137.935 78.708 137.935 78.74V80H137.575V78.776C137.575 78.6213 137.537 78.5013 137.463 78.416C137.388 78.328 137.285 78.284 137.155 78.284Z" fill="black"/>
<path d="M149.768 80H149.4V77.2H149.756L151.524 79.212V77.2H151.888V80.02H151.756L149.768 77.756V80ZM154.261 78.784V79.952L153.901 80.032V79.676C153.752 79.796 153.61 79.8853 153.477 79.944C153.346 80.0027 153.218 80.032 153.093 80.032C152.917 80.032 152.774 79.984 152.665 79.888C152.556 79.7893 152.501 79.6587 152.501 79.496C152.501 79.2667 152.616 79.0973 152.845 78.988C153.074 78.876 153.426 78.8173 153.901 78.812V78.804C153.901 78.6387 153.861 78.5133 153.781 78.428C153.704 78.34 153.59 78.296 153.441 78.296C153.329 78.296 153.213 78.32 153.093 78.368C152.976 78.416 152.854 78.488 152.729 78.584L152.721 78.58L152.797 78.176C152.904 78.104 153.014 78.0507 153.129 78.016C153.246 77.9813 153.369 77.964 153.497 77.964C153.742 77.964 153.93 78.0347 154.061 78.176C154.194 78.3173 154.261 78.52 154.261 78.784ZM152.865 79.48C152.865 79.5547 152.892 79.6147 152.945 79.66C152.998 79.7027 153.072 79.724 153.165 79.724C153.258 79.724 153.365 79.7013 153.485 79.656C153.605 79.6107 153.744 79.54 153.901 79.444V79.044C153.554 79.0653 153.294 79.112 153.121 79.184C152.95 79.2533 152.865 79.352 152.865 79.48ZM156.312 78H156.704L155.648 80.056H155.572L154.588 78H154.984L155.624 79.412L156.312 78ZM158.453 80H158.065V77.2H158.453V80ZM160.495 79.52L160.415 79.904C160.356 79.9467 160.287 79.98 160.207 80.004C160.127 80.0307 160.044 80.044 159.959 80.044C159.77 80.044 159.62 79.9853 159.511 79.868C159.402 79.7507 159.347 79.5867 159.347 79.376V78.308H159.007V78H159.347V77.552L159.703 77.42V78H160.487V78.308H159.703V79.36C159.703 79.48 159.731 79.5707 159.787 79.632C159.843 79.6907 159.926 79.72 160.035 79.72C160.11 79.72 160.184 79.704 160.259 79.672C160.334 79.6373 160.41 79.5853 160.487 79.516L160.495 79.52ZM162.66 79.472L162.528 79.868C162.411 79.932 162.301 79.9773 162.2 80.004C162.099 80.0307 161.988 80.044 161.868 80.044C161.551 80.044 161.299 79.9493 161.112 79.76C160.925 79.5707 160.832 79.3173 160.832 79C160.832 78.7067 160.925 78.4573 161.112 78.252C161.299 78.0467 161.531 77.944 161.808 77.944C162.085 77.944 162.307 78.0413 162.472 78.236C162.637 78.428 162.72 78.676 162.72 78.98C162.72 79.0067 162.719 79.036 162.716 79.068C162.713 79.1 162.711 79.124 162.708 79.14H161.204C161.231 79.3213 161.305 79.4627 161.428 79.564C161.553 79.6653 161.713 79.716 161.908 79.716C162.025 79.716 162.148 79.6947 162.276 79.652C162.407 79.6067 162.532 79.5453 162.652 79.468L162.66 79.472ZM161.796 78.26C161.633 78.26 161.496 78.3173 161.384 78.432C161.275 78.5467 161.212 78.6933 161.196 78.872H162.356C162.34 78.68 162.283 78.5307 162.184 78.424C162.085 78.3147 161.956 78.26 161.796 78.26ZM164.155 78.284C164.061 78.284 163.972 78.3107 163.887 78.364C163.804 78.4147 163.707 78.5027 163.595 78.628V80H163.235V78.048L163.595 77.968V78.36C163.701 78.2187 163.808 78.1173 163.915 78.056C164.021 77.992 164.137 77.96 164.263 77.96C164.409 77.96 164.536 77.9987 164.643 78.076C164.752 78.1533 164.832 78.2627 164.883 78.404C165 78.2467 165.115 78.1333 165.227 78.064C165.339 77.9947 165.464 77.96 165.603 77.96C165.805 77.96 165.968 78.0307 166.091 78.172C166.216 78.3133 166.279 78.5027 166.279 78.74V80H165.915V78.776C165.915 78.6213 165.877 78.5013 165.803 78.416C165.728 78.328 165.625 78.284 165.495 78.284C165.401 78.284 165.311 78.3107 165.223 78.364C165.137 78.4173 165.04 78.5067 164.931 78.632C164.933 78.6427 164.935 78.656 164.935 78.672C164.935 78.6853 164.935 78.708 164.935 78.74V80H164.575V78.776C164.575 78.6213 164.537 78.5013 164.463 78.416C164.388 78.328 164.285 78.284 164.155 78.284Z" fill="black"/>
<path d="M95.768 91H95.4V88.2H95.756L97.524 90.212V88.2H97.888V91.02H97.756L95.768 88.756V91ZM100.261 89.784V90.952L99.901 91.032V90.676C99.7516 90.796 99.6103 90.8853 99.477 90.944C99.3463 91.0027 99.2183 91.032 99.093 91.032C98.917 91.032 98.7743 90.984 98.665 90.888C98.5556 90.7893 98.501 90.6587 98.501 90.496C98.501 90.2667 98.6156 90.0973 98.845 89.988C99.0743 89.876 99.4263 89.8173 99.901 89.812V89.804C99.901 89.6387 99.861 89.5133 99.781 89.428C99.7036 89.34 99.5903 89.296 99.441 89.296C99.329 89.296 99.213 89.32 99.093 89.368C98.9756 89.416 98.8543 89.488 98.729 89.584L98.721 89.58L98.797 89.176C98.9036 89.104 99.0143 89.0507 99.129 89.016C99.2463 88.9813 99.369 88.964 99.497 88.964C99.7423 88.964 99.9303 89.0347 100.061 89.176C100.194 89.3173 100.261 89.52 100.261 89.784ZM98.865 90.48C98.865 90.5547 98.8916 90.6147 98.945 90.66C98.9983 90.7027 99.0716 90.724 99.165 90.724C99.2583 90.724 99.365 90.7013 99.485 90.656C99.605 90.6107 99.7436 90.54 99.901 90.444V90.044C99.5543 90.0653 99.2943 90.112 99.121 90.184C98.9503 90.2533 98.865 90.352 98.865 90.48ZM102.312 89H102.704L101.648 91.056H101.572L100.588 89H100.984L101.624 90.412L102.312 89ZM104.453 91H104.065V88.2H104.453V91ZM106.495 90.52L106.415 90.904C106.356 90.9467 106.287 90.98 106.207 91.004C106.127 91.0307 106.044 91.044 105.959 91.044C105.77 91.044 105.62 90.9853 105.511 90.868C105.402 90.7507 105.347 90.5867 105.347 90.376V89.308H105.007V89H105.347V88.552L105.703 88.42V89H106.487V89.308H105.703V90.36C105.703 90.48 105.731 90.5707 105.787 90.632C105.843 90.6907 105.926 90.72 106.035 90.72C106.11 90.72 106.184 90.704 106.259 90.672C106.334 90.6373 106.41 90.5853 106.487 90.516L106.495 90.52ZM108.66 90.472L108.528 90.868C108.411 90.932 108.301 90.9773 108.2 91.004C108.099 91.0307 107.988 91.044 107.868 91.044C107.551 91.044 107.299 90.9493 107.112 90.76C106.925 90.5707 106.832 90.3173 106.832 90C106.832 89.7067 106.925 89.4573 107.112 89.252C107.299 89.0467 107.531 88.944 107.808 88.944C108.085 88.944 108.307 89.0413 108.472 89.236C108.637 89.428 108.72 89.676 108.72 89.98C108.72 90.0067 108.719 90.036 108.716 90.068C108.713 90.1 108.711 90.124 108.708 90.14H107.204C107.231 90.3213 107.305 90.4627 107.428 90.564C107.553 90.6653 107.713 90.716 107.908 90.716C108.025 90.716 108.148 90.6947 108.276 90.652C108.407 90.6067 108.532 90.5453 108.652 90.468L108.66 90.472ZM107.796 89.26C107.633 89.26 107.496 89.3173 107.384 89.432C107.275 89.5467 107.212 89.6933 107.196 89.872H108.356C108.34 89.68 108.283 89.5307 108.184 89.424C108.085 89.3147 107.956 89.26 107.796 89.26ZM110.155 89.284C110.061 89.284 109.972 89.3107 109.887 89.364C109.804 89.4147 109.707 89.5027 109.595 89.628V91H109.235V89.048L109.595 88.968V89.36C109.701 89.2187 109.808 89.1173 109.915 89.056C110.021 88.992 110.137 88.96 110.263 88.96C110.409 88.96 110.536 88.9987 110.643 89.076C110.752 89.1533 110.832 89.2627 110.883 89.404C111 89.2467 111.115 89.1333 111.227 89.064C111.339 88.9947 111.464 88.96 111.603 88.96C111.805 88.96 111.968 89.0307 112.091 89.172C112.216 89.3133 112.279 89.5027 112.279 89.74V91H111.915V89.776C111.915 89.6213 111.877 89.5013 111.803 89.416C111.728 89.328 111.625 89.284 111.495 89.284C111.401 89.284 111.311 89.3107 111.223 89.364C111.137 89.4173 111.04 89.5067 110.931 89.632C110.933 89.6427 110.935 89.656 110.935 89.672C110.935 89.6853 110.935 89.708 110.935 89.74V91H110.575V89.776C110.575 89.6213 110.537 89.5013 110.463 89.416C110.388 89.328 110.285 89.284 110.155 89.284Z" fill="black"/>
<path d="M122.768 91H122.4V88.2H122.756L124.524 90.212V88.2H124.888V91.02H124.756L122.768 88.756V91ZM127.261 89.784V90.952L126.901 91.032V90.676C126.752 90.796 126.61 90.8853 126.477 90.944C126.346 91.0027 126.218 91.032 126.093 91.032C125.917 91.032 125.774 90.984 125.665 90.888C125.556 90.7893 125.501 90.6587 125.501 90.496C125.501 90.2667 125.616 90.0973 125.845 89.988C126.074 89.876 126.426 89.8173 126.901 89.812V89.804C126.901 89.6387 126.861 89.5133 126.781 89.428C126.704 89.34 126.59 89.296 126.441 89.296C126.329 89.296 126.213 89.32 126.093 89.368C125.976 89.416 125.854 89.488 125.729 89.584L125.721 89.58L125.797 89.176C125.904 89.104 126.014 89.0507 126.129 89.016C126.246 88.9813 126.369 88.964 126.497 88.964C126.742 88.964 126.93 89.0347 127.061 89.176C127.194 89.3173 127.261 89.52 127.261 89.784ZM125.865 90.48C125.865 90.5547 125.892 90.6147 125.945 90.66C125.998 90.7027 126.072 90.724 126.165 90.724C126.258 90.724 126.365 90.7013 126.485 90.656C126.605 90.6107 126.744 90.54 126.901 90.444V90.044C126.554 90.0653 126.294 90.112 126.121 90.184C125.95 90.2533 125.865 90.352 125.865 90.48ZM129.312 89H129.704L128.648 91.056H128.572L127.588 89H127.984L128.624 90.412L129.312 89ZM131.453 91H131.065V88.2H131.453V91ZM133.495 90.52L133.415 90.904C133.356 90.9467 133.287 90.98 133.207 91.004C133.127 91.0307 133.044 91.044 132.959 91.044C132.77 91.044 132.62 90.9853 132.511 90.868C132.402 90.7507 132.347 90.5867 132.347 90.376V89.308H132.007V89H132.347V88.552L132.703 88.42V89H133.487V89.308H132.703V90.36C132.703 90.48 132.731 90.5707 132.787 90.632C132.843 90.6907 132.926 90.72 133.035 90.72C133.11 90.72 133.184 90.704 133.259 90.672C133.334 90.6373 133.41 90.5853 133.487 90.516L133.495 90.52ZM135.66 90.472L135.528 90.868C135.411 90.932 135.301 90.9773 135.2 91.004C135.099 91.0307 134.988 91.044 134.868 91.044C134.551 91.044 134.299 90.9493 134.112 90.76C133.925 90.5707 133.832 90.3173 133.832 90C133.832 89.7067 133.925 89.4573 134.112 89.252C134.299 89.0467 134.531 88.944 134.808 88.944C135.085 88.944 135.307 89.0413 135.472 89.236C135.637 89.428 135.72 89.676 135.72 89.98C135.72 90.0067 135.719 90.036 135.716 90.068C135.713 90.1 135.711 90.124 135.708 90.14H134.204C134.231 90.3213 134.305 90.4627 134.428 90.564C134.553 90.6653 134.713 90.716 134.908 90.716C135.025 90.716 135.148 90.6947 135.276 90.652C135.407 90.6067 135.532 90.5453 135.652 90.468L135.66 90.472ZM134.796 89.26C134.633 89.26 134.496 89.3173 134.384 89.432C134.275 89.5467 134.212 89.6933 134.196 89.872H135.356C135.34 89.68 135.283 89.5307 135.184 89.424C135.085 89.3147 134.956 89.26 134.796 89.26ZM137.155 89.284C137.061 89.284 136.972 89.3107 136.887 89.364C136.804 89.4147 136.707 89.5027 136.595 89.628V91H136.235V89.048L136.595 88.968V89.36C136.701 89.2187 136.808 89.1173 136.915 89.056C137.021 88.992 137.137 88.96 137.263 88.96C137.409 88.96 137.536 88.9987 137.643 89.076C137.752 89.1533 137.832 89.2627 137.883 89.404C138 89.2467 138.115 89.1333 138.227 89.064C138.339 88.9947 138.464 88.96 138.603 88.96C138.805 88.96 138.968 89.0307 139.091 89.172C139.216 89.3133 139.279 89.5027 139.279 89.74V91H138.915V89.776C138.915 89.6213 138.877 89.5013 138.803 89.416C138.728 89.328 138.625 89.284 138.495 89.284C138.401 89.284 138.311 89.3107 138.223 89.364C138.137 89.4173 138.04 89.5067 137.931 89.632C137.933 89.6427 137.935 89.656 137.935 89.672C137.935 89.6853 137.935 89.708 137.935 89.74V91H137.575V89.776C137.575 89.6213 137.537 89.5013 137.463 89.416C137.388 89.328 137.285 89.284 137.155 89.284Z" fill="black"/>
<path d="M149.768 91H149.4V88.2H149.756L151.524 90.212V88.2H151.888V91.02H151.756L149.768 88.756V91ZM154.261 89.784V90.952L153.901 91.032V90.676C153.752 90.796 153.61 90.8853 153.477 90.944C153.346 91.0027 153.218 91.032 153.093 91.032C152.917 91.032 152.774 90.984 152.665 90.888C152.556 90.7893 152.501 90.6587 152.501 90.496C152.501 90.2667 152.616 90.0973 152.845 89.988C153.074 89.876 153.426 89.8173 153.901 89.812V89.804C153.901 89.6387 153.861 89.5133 153.781 89.428C153.704 89.34 153.59 89.296 153.441 89.296C153.329 89.296 153.213 89.32 153.093 89.368C152.976 89.416 152.854 89.488 152.729 89.584L152.721 89.58L152.797 89.176C152.904 89.104 153.014 89.0507 153.129 89.016C153.246 88.9813 153.369 88.964 153.497 88.964C153.742 88.964 153.93 89.0347 154.061 89.176C154.194 89.3173 154.261 89.52 154.261 89.784ZM152.865 90.48C152.865 90.5547 152.892 90.6147 152.945 90.66C152.998 90.7027 153.072 90.724 153.165 90.724C153.258 90.724 153.365 90.7013 153.485 90.656C153.605 90.6107 153.744 90.54 153.901 90.444V90.044C153.554 90.0653 153.294 90.112 153.121 90.184C152.95 90.2533 152.865 90.352 152.865 90.48ZM156.312 89H156.704L155.648 91.056H155.572L154.588 89H154.984L155.624 90.412L156.312 89ZM158.453 91H158.065V88.2H158.453V91ZM160.495 90.52L160.415 90.904C160.356 90.9467 160.287 90.98 160.207 91.004C160.127 91.0307 160.044 91.044 159.959 91.044C159.77 91.044 159.62 90.9853 159.511 90.868C159.402 90.7507 159.347 90.5867 159.347 90.376V89.308H159.007V89H159.347V88.552L159.703 88.42V89H160.487V89.308H159.703V90.36C159.703 90.48 159.731 90.5707 159.787 90.632C159.843 90.6907 159.926 90.72 160.035 90.72C160.11 90.72 160.184 90.704 160.259 90.672C160.334 90.6373 160.41 90.5853 160.487 90.516L160.495 90.52ZM162.66 90.472L162.528 90.868C162.411 90.932 162.301 90.9773 162.2 91.004C162.099 91.0307 161.988 91.044 161.868 91.044C161.551 91.044 161.299 90.9493 161.112 90.76C160.925 90.5707 160.832 90.3173 160.832 90C160.832 89.7067 160.925 89.4573 161.112 89.252C161.299 89.0467 161.531 88.944 161.808 88.944C162.085 88.944 162.307 89.0413 162.472 89.236C162.637 89.428 162.72 89.676 162.72 89.98C162.72 90.0067 162.719 90.036 162.716 90.068C162.713 90.1 162.711 90.124 162.708 90.14H161.204C161.231 90.3213 161.305 90.4627 161.428 90.564C161.553 90.6653 161.713 90.716 161.908 90.716C162.025 90.716 162.148 90.6947 162.276 90.652C162.407 90.6067 162.532 90.5453 162.652 90.468L162.66 90.472ZM161.796 89.26C161.633 89.26 161.496 89.3173 161.384 89.432C161.275 89.5467 161.212 89.6933 161.196 89.872H162.356C162.34 89.68 162.283 89.5307 162.184 89.424C162.085 89.3147 161.956 89.26 161.796 89.26ZM164.155 89.284C164.061 89.284 163.972 89.3107 163.887 89.364C163.804 89.4147 163.707 89.5027 163.595 89.628V91H163.235V89.048L163.595 88.968V89.36C163.701 89.2187 163.808 89.1173 163.915 89.056C164.021 88.992 164.137 88.96 164.263 88.96C164.409 88.96 164.536 88.9987 164.643 89.076C164.752 89.1533 164.832 89.2627 164.883 89.404C165 89.2467 165.115 89.1333 165.227 89.064C165.339 88.9947 165.464 88.96 165.603 88.96C165.805 88.96 165.968 89.0307 166.091 89.172C166.216 89.3133 166.279 89.5027 166.279 89.74V91H165.915V89.776C165.915 89.6213 165.877 89.5013 165.803 89.416C165.728 89.328 165.625 89.284 165.495 89.284C165.401 89.284 165.311 89.3107 165.223 89.364C165.137 89.4173 165.04 89.5067 164.931 89.632C164.933 89.6427 164.935 89.656 164.935 89.672C164.935 89.6853 164.935 89.708 164.935 89.74V91H164.575V89.776C164.575 89.6213 164.537 89.5013 164.463 89.416C164.388 89.328 164.285 89.284 164.155 89.284Z" fill="black"/>
<path d="M158.344 46H157.7V41.1H158.323L161.417 44.621V41.1H162.054V46.035H161.823L158.344 42.073V46ZM166.207 43.872V45.916L165.577 46.056V45.433C165.315 45.643 165.068 45.7993 164.835 45.902C164.606 46.0047 164.382 46.056 164.163 46.056C163.855 46.056 163.605 45.972 163.414 45.804C163.222 45.6313 163.127 45.4027 163.127 45.118C163.127 44.7167 163.327 44.4203 163.729 44.229C164.13 44.033 164.746 43.9303 165.577 43.921V43.907C165.577 43.6177 165.507 43.3983 165.367 43.249C165.231 43.095 165.033 43.018 164.772 43.018C164.576 43.018 164.373 43.06 164.163 43.144C163.957 43.228 163.745 43.354 163.526 43.522L163.512 43.515L163.645 42.808C163.831 42.682 164.025 42.5887 164.226 42.528C164.431 42.4673 164.646 42.437 164.87 42.437C165.299 42.437 165.628 42.5607 165.857 42.808C166.09 43.0553 166.207 43.41 166.207 43.872ZM163.764 45.09C163.764 45.2207 163.81 45.3257 163.904 45.405C163.997 45.4797 164.125 45.517 164.289 45.517C164.452 45.517 164.639 45.4773 164.849 45.398C165.059 45.3187 165.301 45.195 165.577 45.027V44.327C164.97 44.3643 164.515 44.446 164.212 44.572C163.913 44.6933 163.764 44.866 163.764 45.09ZM169.796 42.5H170.482L168.634 46.098H168.501L166.779 42.5H167.472L168.592 44.971L169.796 42.5ZM174.508 43.431C174.849 43.529 175.112 43.69 175.299 43.914C175.486 44.138 175.579 44.397 175.579 44.691C175.579 45.0877 175.42 45.419 175.103 45.685C174.79 45.9463 174.408 46.077 173.955 46.077C173.708 46.077 173.486 46.0513 173.29 46C173.099 45.944 172.87 45.8343 172.604 45.671L172.485 44.908L172.499 44.901C172.793 45.1157 173.047 45.2673 173.262 45.356C173.477 45.44 173.701 45.482 173.934 45.482C174.214 45.482 174.445 45.4073 174.627 45.258C174.814 45.1087 174.907 44.9173 174.907 44.684C174.907 44.404 174.776 44.1823 174.515 44.019C174.258 43.851 173.852 43.7273 173.297 43.648V43.396C173.838 43.2233 174.223 43.053 174.452 42.885C174.681 42.717 174.795 42.5163 174.795 42.283C174.795 42.0823 174.723 41.9213 174.578 41.8C174.438 41.6787 174.251 41.618 174.018 41.618C173.817 41.618 173.61 41.6647 173.395 41.758C173.18 41.8467 172.935 41.9937 172.66 42.199H172.646V41.478C172.926 41.3007 173.171 41.1817 173.381 41.121C173.591 41.0557 173.817 41.023 174.06 41.023C174.489 41.023 174.83 41.1303 175.082 41.345C175.334 41.5597 175.46 41.849 175.46 42.213C175.46 42.465 175.378 42.6937 175.215 42.899C175.056 43.1043 174.821 43.2817 174.508 43.431Z" fill="black"/>
<path d="M126.344 46H125.7V41.1H126.323L129.417 44.621V41.1H130.054V46.035H129.823L126.344 42.073V46ZM134.207 43.872V45.916L133.577 46.056V45.433C133.315 45.643 133.068 45.7993 132.835 45.902C132.606 46.0047 132.382 46.056 132.163 46.056C131.855 46.056 131.605 45.972 131.414 45.804C131.222 45.6313 131.127 45.4027 131.127 45.118C131.127 44.7167 131.327 44.4203 131.729 44.229C132.13 44.033 132.746 43.9303 133.577 43.921V43.907C133.577 43.6177 133.507 43.3983 133.367 43.249C133.231 43.095 133.033 43.018 132.772 43.018C132.576 43.018 132.373 43.06 132.163 43.144C131.957 43.228 131.745 43.354 131.526 43.522L131.512 43.515L131.645 42.808C131.831 42.682 132.025 42.5887 132.226 42.528C132.431 42.4673 132.646 42.437 132.87 42.437C133.299 42.437 133.628 42.5607 133.857 42.808C134.09 43.0553 134.207 43.41 134.207 43.872ZM131.764 45.09C131.764 45.2207 131.81 45.3257 131.904 45.405C131.997 45.4797 132.125 45.517 132.289 45.517C132.452 45.517 132.639 45.4773 132.849 45.398C133.059 45.3187 133.301 45.195 133.577 45.027V44.327C132.97 44.3643 132.515 44.446 132.212 44.572C131.913 44.6933 131.764 44.866 131.764 45.09ZM137.796 42.5H138.482L136.634 46.098H136.501L134.779 42.5H135.472L136.592 44.971L137.796 42.5ZM141.549 45.419H143.859L143.53 46H140.527L140.471 45.874L142.193 43.781C142.473 43.445 142.657 43.1837 142.746 42.997C142.839 42.8103 142.886 42.619 142.886 42.423C142.886 42.1943 142.811 42.0053 142.662 41.856C142.513 41.702 142.321 41.625 142.088 41.625C141.845 41.625 141.61 41.7043 141.381 41.863C141.152 42.0217 140.919 42.269 140.681 42.605L140.667 42.598L140.562 41.87C140.781 41.59 141.019 41.38 141.276 41.24C141.537 41.1 141.822 41.03 142.13 41.03C142.55 41.03 142.888 41.1537 143.145 41.401C143.402 41.6437 143.53 41.9657 143.53 42.367C143.53 42.6283 143.474 42.878 143.362 43.116C143.25 43.3493 143.04 43.6503 142.732 44.019L141.549 45.419Z" fill="black"/>
<path d="M96.344 46H95.7V41.1H96.323L99.417 44.621V41.1H100.054V46.035H99.823L96.344 42.073V46ZM104.207 43.872V45.916L103.577 46.056V45.433C103.315 45.643 103.068 45.7993 102.835 45.902C102.606 46.0047 102.382 46.056 102.163 46.056C101.855 46.056 101.605 45.972 101.414 45.804C101.222 45.6313 101.127 45.4027 101.127 45.118C101.127 44.7167 101.327 44.4203 101.729 44.229C102.13 44.033 102.746 43.9303 103.577 43.921V43.907C103.577 43.6177 103.507 43.3983 103.367 43.249C103.231 43.095 103.033 43.018 102.772 43.018C102.576 43.018 102.373 43.06 102.163 43.144C101.957 43.228 101.745 43.354 101.526 43.522L101.512 43.515L101.645 42.808C101.831 42.682 102.025 42.5887 102.226 42.528C102.431 42.4673 102.646 42.437 102.87 42.437C103.299 42.437 103.628 42.5607 103.857 42.808C104.09 43.0553 104.207 43.41 104.207 43.872ZM101.764 45.09C101.764 45.2207 101.81 45.3257 101.904 45.405C101.997 45.4797 102.125 45.517 102.289 45.517C102.452 45.517 102.639 45.4773 102.849 45.398C103.059 45.3187 103.301 45.195 103.577 45.027V44.327C102.97 44.3643 102.515 44.446 102.212 44.572C101.913 44.6933 101.764 44.866 101.764 45.09ZM107.796 42.5H108.482L106.634 46.098H106.501L104.779 42.5H105.472L106.592 44.971L107.796 42.5ZM110.45 42.85L110.436 42.843V42.157L112.242 41.009L112.361 41.044V46H111.71V42.045L110.45 42.85Z" fill="black"/>
<path d="M18.23 43.39C18.23 45.16 16.685 46.225 14.675 46.225C13.52 46.225 12.635 45.895 12.065 45.64L11.795 43.255H12.125C12.26 43.915 12.68 44.695 13.265 45.085C13.655 45.34 14.27 45.655 14.945 45.655C16.28 45.655 16.94 44.875 16.94 43.96C16.94 42.91 16.295 42.4 14.96 41.89C12.98 41.125 12.155 40.465 12.155 39.04C12.155 37.39 13.7 36.265 15.815 36.265C16.805 36.265 17.51 36.49 18.02 36.715V39.055H17.69C17.63 38.38 17.405 37.63 16.82 37.3C16.58 37.165 16.115 36.865 15.425 36.865C14.015 36.865 13.445 37.615 13.445 38.425C13.445 39.37 13.76 39.835 15.56 40.6C17.39 41.38 18.23 41.98 18.23 43.39ZM21.7738 36.7C21.7738 37.06 21.4438 37.45 20.9788 37.45C20.4988 37.45 20.1688 37.06 20.1688 36.7C20.1688 36.325 20.4988 35.92 20.9788 35.92C21.4438 35.92 21.7738 36.325 21.7738 36.7ZM22.6138 45.64V46H19.4338V45.64C20.1688 45.58 20.2888 45.445 20.4388 45.19L20.4538 41.11C20.4538 40.765 20.2588 40.495 19.4938 40.3V40.03L21.4288 39.325H21.6088V45.19C21.7738 45.49 21.8638 45.565 22.6138 45.64ZM27.6942 45.085V45.385C27.3042 45.7 26.3892 46.12 25.8492 46.12C24.4842 46.12 24.0792 45.385 24.0792 44.185C24.0792 42.76 24.1692 41.695 24.1992 40.27L23.3742 40.285V39.97L25.1592 38.2H25.3542L25.3392 39.595H27.5742V40.3L25.3542 40.285C25.3242 41.8 25.2942 42.655 25.2942 43.99C25.2942 44.83 25.8192 45.355 26.7042 45.355C27.0492 45.355 27.5442 45.145 27.6942 45.085ZM33.4603 44.44L33.6853 44.785C32.7703 45.625 32.0803 46.12 30.8503 46.12C29.3053 46.12 28.1203 44.875 28.1203 43.06C28.1203 40.855 29.4403 39.37 31.2553 39.37C32.7703 39.37 33.4753 40.165 33.4753 41.59V41.845L29.3803 41.815C29.3653 41.95 29.3503 42.28 29.3503 42.625C29.3503 44.2 30.4003 45.25 31.6453 45.25C32.5003 45.25 32.8153 44.995 33.4603 44.44ZM29.4403 41.41L32.2603 41.38C32.2603 40.57 31.6603 39.82 30.9853 39.82C30.1903 39.82 29.6053 40.42 29.4403 41.41ZM46.7718 36.385V38.92H46.4718C46.4418 37.645 45.7668 37.195 44.6568 37.18L42.9768 37.165V44.83C43.3068 45.535 44.1018 45.625 44.7918 45.655V46H39.7668V45.655C40.4568 45.625 41.4018 45.49 41.6118 45.04V37.165L39.9318 37.18C38.8218 37.195 38.1618 37.645 38.1318 38.92H37.8168V36.385H38.1018C38.2968 36.445 38.5068 36.49 39.0018 36.49H45.5868C45.9618 36.49 46.2918 36.445 46.4868 36.385H46.7718ZM49.43 36.7C49.43 37.06 49.1 37.45 48.635 37.45C48.155 37.45 47.825 37.06 47.825 36.7C47.825 36.325 48.155 35.92 48.635 35.92C49.1 35.92 49.43 36.325 49.43 36.7ZM50.27 45.64V46H47.09V45.64C47.825 45.58 47.945 45.445 48.095 45.19L48.11 41.11C48.11 40.765 47.915 40.495 47.15 40.3V40.03L49.085 39.325H49.265V45.19C49.43 45.49 49.52 45.565 50.27 45.64ZM55.3504 45.085V45.385C54.9604 45.7 54.0454 46.12 53.5054 46.12C52.1404 46.12 51.7354 45.385 51.7354 44.185C51.7354 42.76 51.8254 41.695 51.8554 40.27L51.0304 40.285V39.97L52.8154 38.2H53.0104L52.9954 39.595H55.2304V40.3L53.0104 40.285C52.9804 41.8 52.9504 42.655 52.9504 43.99C52.9504 44.83 53.4754 45.355 54.3604 45.355C54.7054 45.355 55.2004 45.145 55.3504 45.085ZM58.9415 45.655V46H55.6415V45.655C56.3615 45.61 56.5415 45.46 56.6615 45.205V37.165C56.6615 36.655 56.6915 36.445 55.6565 36.34V36.055L57.9065 35.38H58.1465V35.59L57.8615 36.1V45.205C58.0115 45.505 58.1915 45.58 58.9415 45.655ZM64.9837 44.44L65.2087 44.785C64.2937 45.625 63.6037 46.12 62.3737 46.12C60.8287 46.12 59.6437 44.875 59.6437 43.06C59.6437 40.855 60.9637 39.37 62.7787 39.37C64.2937 39.37 64.9987 40.165 64.9987 41.59V41.845L60.9037 41.815C60.8887 41.95 60.8737 42.28 60.8737 42.625C60.8737 44.2 61.9237 45.25 63.1687 45.25C64.0237 45.25 64.3387 44.995 64.9837 44.44ZM60.9637 41.41L63.7837 41.38C63.7837 40.57 63.1837 39.82 62.5087 39.82C61.7137 39.82 61.1287 40.42 60.9637 41.41Z" fill="black"/>
</svg>
