<svg width="501" height="261" viewBox="0 0 501 261" fill="none" xmlns="http://www.w3.org/2000/svg">
<rect width="501" height="261" fill="white"/>
<rect x="44" y="68" width="414" height="126" rx="5" fill="#EEEEEE"/>
<path d="M142.022 124.561L44 178.614V189C44 191.761 46.2386 194 49 194H453C455.761 194 458 191.761 458 189V142.579L341.499 101.023C341.234 100.929 340.942 100.95 340.694 101.082L241.779 153.723C241.547 153.846 241.275 153.873 241.023 153.798L142.791 124.478C142.534 124.402 142.257 124.432 142.022 124.561Z" fill="#376C74"/>
<circle cx="162" cy="87" r="9" fill="#376C74"/>
<path d="M44 146H458V189C458 191.761 455.761 194 453 194H49C46.2386 194 44 191.761 44 189V146Z" fill="#343434" fill-opacity="0.88"/>
<rect x="377" y="161" width="60" height="18" fill="#E3E3E3"/>
<path d="M388.552 167.4V168.56H386.552V173H385.264V168.56H383.264V167.4H388.552ZM392.293 172.904L391.125 173.056V172.44C390.858 172.653 390.602 172.813 390.357 172.92C390.117 173.021 389.877 173.072 389.637 173.072C389.279 173.072 388.991 172.973 388.773 172.776C388.554 172.573 388.445 172.304 388.445 171.968C388.445 171.52 388.663 171.187 389.101 170.968C389.538 170.744 390.202 170.624 391.093 170.608C391.077 170.347 390.999 170.149 390.861 170.016C390.722 169.883 390.522 169.816 390.261 169.816C390.047 169.816 389.823 169.861 389.589 169.952C389.354 170.037 389.114 170.165 388.869 170.336L388.845 170.32L389.029 169.224C389.253 169.091 389.487 168.992 389.733 168.928C389.978 168.864 390.239 168.832 390.517 168.832C391.098 168.832 391.538 168.987 391.837 169.296C392.141 169.605 392.293 170.056 392.293 170.648V172.904ZM389.549 171.848C389.549 171.971 389.591 172.067 389.677 172.136C389.762 172.205 389.882 172.24 390.037 172.24C390.175 172.24 390.33 172.213 390.501 172.16C390.677 172.101 390.874 172.016 391.093 171.904V171.176C390.57 171.213 390.181 171.285 389.925 171.392C389.674 171.499 389.549 171.651 389.549 171.848ZM397.446 173H395.99L394.678 171.32H394.494V173H393.278V167.256L394.494 166.936V170.544H394.67L395.95 168.912H397.334V168.928L395.726 170.88L397.446 172.984V173ZM401.52 171.744L401.184 172.768C400.939 172.885 400.707 172.968 400.488 173.016C400.275 173.064 400.037 173.088 399.776 173.088C399.115 173.088 398.584 172.893 398.184 172.504C397.789 172.115 397.592 171.595 397.592 170.944C397.592 170.341 397.787 169.835 398.176 169.424C398.571 169.008 399.067 168.8 399.664 168.8C400.261 168.8 400.733 168.997 401.08 169.392C401.432 169.781 401.608 170.296 401.608 170.936C401.608 170.968 401.605 171.016 401.6 171.08C401.595 171.144 401.589 171.211 401.584 171.28H398.76C398.824 171.552 398.963 171.763 399.176 171.912C399.389 172.061 399.661 172.136 399.992 172.136C400.232 172.136 400.475 172.104 400.72 172.04C400.971 171.971 401.229 171.867 401.496 171.728L401.52 171.744ZM399.64 169.672C399.4 169.672 399.2 169.757 399.04 169.928C398.88 170.093 398.784 170.315 398.752 170.592H400.48C400.453 170.309 400.365 170.085 400.216 169.92C400.067 169.755 399.875 169.672 399.64 169.672ZM405.105 173H403.769L406.225 167.384H407.593L409.993 173H408.609L408.145 171.848H405.585L405.105 173ZM406.881 168.696L405.985 170.816H407.745L406.881 168.696ZM413.895 171.52L413.751 172.704C413.543 172.832 413.322 172.931 413.087 173C412.858 173.064 412.623 173.096 412.383 173.096C411.765 173.096 411.261 172.899 410.871 172.504C410.487 172.109 410.295 171.592 410.295 170.952C410.295 170.333 410.498 169.824 410.903 169.424C411.314 169.019 411.839 168.816 412.479 168.816C412.735 168.816 412.973 168.851 413.191 168.92C413.415 168.989 413.626 169.093 413.823 169.232V170.448H413.807C413.589 170.261 413.375 170.123 413.167 170.032C412.959 169.941 412.757 169.896 412.559 169.896C412.245 169.896 411.989 169.997 411.791 170.2C411.594 170.397 411.495 170.651 411.495 170.96C411.495 171.269 411.591 171.523 411.783 171.72C411.975 171.917 412.223 172.016 412.527 172.016C412.741 172.016 412.97 171.971 413.215 171.88C413.461 171.784 413.682 171.661 413.879 171.512L413.895 171.52ZM417.699 171.744L417.515 172.8C417.365 172.896 417.2 172.968 417.019 173.016C416.843 173.064 416.656 173.088 416.459 173.088C416.005 173.088 415.659 172.957 415.419 172.696C415.184 172.429 415.067 172.04 415.067 171.528V169.856H414.443V168.912H415.067V168.032L416.259 167.736V168.912H417.675V169.856H416.259V171.432C416.259 171.64 416.309 171.797 416.411 171.904C416.517 172.005 416.672 172.056 416.875 172.056C417.003 172.056 417.131 172.032 417.259 171.984C417.387 171.931 417.528 171.848 417.683 171.736L417.699 171.744ZM419.16 166.864C419.368 166.864 419.542 166.931 419.68 167.064C419.824 167.197 419.896 167.363 419.896 167.56C419.896 167.757 419.824 167.923 419.68 168.056C419.542 168.189 419.368 168.256 419.16 168.256C418.952 168.256 418.776 168.189 418.632 168.056C418.494 167.923 418.424 167.757 418.424 167.56C418.424 167.363 418.494 167.197 418.632 167.064C418.776 166.931 418.952 166.864 419.16 166.864ZM419.76 173H418.552V168.912H419.76V173ZM422.808 173.112C422.163 173.112 421.632 172.907 421.216 172.496C420.805 172.08 420.6 171.568 420.6 170.96C420.6 170.357 420.811 169.848 421.232 169.432C421.653 169.011 422.181 168.8 422.816 168.8C423.461 168.8 423.989 169.005 424.4 169.416C424.816 169.827 425.024 170.336 425.024 170.944C425.024 171.547 424.813 172.059 424.392 172.48C423.971 172.901 423.443 173.112 422.808 173.112ZM423.848 170.944C423.848 170.624 423.749 170.36 423.552 170.152C423.36 169.939 423.115 169.832 422.816 169.832C422.512 169.832 422.261 169.939 422.064 170.152C421.872 170.365 421.776 170.635 421.776 170.96C421.776 171.28 421.875 171.547 422.072 171.76C422.269 171.973 422.515 172.08 422.808 172.08C423.107 172.08 423.355 171.973 423.552 171.76C423.749 171.541 423.848 171.269 423.848 170.944ZM427.913 169.88C427.764 169.88 427.622 169.909 427.489 169.968C427.361 170.027 427.212 170.128 427.041 170.272V173H425.825V169.008L427.009 168.856V169.64C427.228 169.352 427.449 169.144 427.673 169.016C427.902 168.883 428.156 168.816 428.433 168.816C428.854 168.816 429.188 168.957 429.433 169.24C429.684 169.523 429.809 169.907 429.809 170.392V173H428.601V170.64C428.601 170.4 428.54 170.213 428.417 170.08C428.3 169.947 428.132 169.88 427.913 169.88Z" fill="#376C74"/>
<path d="M78.544 165.504C77.824 165.472 77.248 165.264 77.072 164.8C76.576 163.44 76.224 162.416 75.856 161.28C75.408 159.936 75.008 158.624 74.496 156.928C74.336 156.416 74.336 156.192 74.288 155.696H72.128C72.096 156 72.096 156.192 71.92 156.752C71.552 157.856 70.944 159.568 70.304 161.344C69.84 162.64 69.344 163.808 68.928 164.864C68.608 165.28 68.16 165.472 67.44 165.504V166H71.568V165.504C70.832 165.472 70.256 165.088 70.08 164.704L71.04 162.032H73.92L74.896 164.96C74.736 165.296 74.16 165.472 73.424 165.504V166H78.544V165.504ZM71.312 161.216L72.416 157.904L72.528 157.296L72.64 157.904L73.648 161.216H71.312ZM84.08 164.112C83.696 164.496 83.152 164.848 82.608 164.848C81.28 164.848 80.432 163.776 80.432 162.176C80.432 160.592 80.976 159.824 81.232 159.648C82.208 160.208 82.672 160.56 83.504 161.216C83.84 161.04 84.336 160.064 84.336 159.712C84.24 159.424 83.6 158.864 82.352 158.864C80.08 158.864 78.384 160.432 78.384 162.88C78.384 164.752 79.696 166.128 81.456 166.128C82.512 166.128 83.504 165.632 84.432 164.608L84.08 164.112ZM89.9739 164.848C89.8139 164.912 89.3179 165.136 88.9659 165.136C88.0539 165.136 87.5259 164.592 87.5259 163.696C87.5259 162.272 87.5579 161.568 87.5899 159.952L89.8459 159.968V159.104H87.5739L87.5899 157.584H87.2859L84.7899 159.504V159.952H85.6379C85.6059 161.472 85.5099 162.544 85.5099 164.064C85.5099 165.344 86.0219 166.128 87.6859 166.128C88.3259 166.128 89.5099 165.68 89.9739 165.344V164.848ZM93.3009 156.144C93.3009 155.584 92.8049 154.96 92.1009 154.96C91.3809 154.96 90.8689 155.584 90.8689 156.144C90.8689 156.688 91.3489 157.296 92.0849 157.296C92.7889 157.296 93.3009 156.688 93.3009 156.144ZM94.1009 165.504C93.4289 165.424 93.3169 165.344 93.1569 165.024V158.816H92.8689L90.2129 159.568V159.984C90.9969 160.192 91.2049 160.464 91.2049 160.832L91.1889 165.024C91.0289 165.296 90.9489 165.408 90.2289 165.504V166H94.1009V165.504ZM101.927 162.496C101.927 160.336 100.647 158.848 98.471 158.848C96.311 158.848 94.775 160.352 94.775 162.432C94.775 164.704 96.055 166.144 98.231 166.144C100.359 166.144 101.927 164.608 101.927 162.496ZM99.783 162.896C99.783 164.352 99.335 165.488 98.503 165.488C97.431 165.488 96.919 164.048 96.919 162.048C96.919 160.672 97.415 159.504 98.135 159.504C99.271 159.504 99.783 160.816 99.783 162.896ZM111.128 165.472C110.696 165.424 110.168 165.376 109.896 165.136V161.024C109.896 159.728 109.448 158.848 108.088 158.848C107.528 158.848 106.36 159.44 105.688 159.968V158.832H105.416L102.744 159.584V160.016C103.464 160.208 103.72 160.56 103.72 160.88V165.04C103.592 165.312 103.384 165.472 102.776 165.52V166H106.488V165.52C106.104 165.472 105.832 165.36 105.688 165.04V160.416C106.024 160.16 106.536 160.096 106.84 160.096C107.448 160.096 107.88 160.832 107.88 161.696V165.024C107.768 165.296 107.624 165.424 107.128 165.504V166H111.128V165.472ZM123.996 162.72C123.996 161.536 123.084 160.544 121.452 160.144C123.004 159.52 123.42 158.88 123.42 157.888C123.42 156.736 122.316 155.76 119.724 155.76C118.348 155.76 117.372 155.824 115.148 155.84V156.32C115.868 156.352 116.508 156.56 116.652 156.88V164.768C116.428 165.296 115.484 165.472 114.796 165.504V166H119.628C122.492 166 123.996 164.928 123.996 162.72ZM121.18 158.176C121.18 158.928 121.02 159.488 120.556 159.968C120.332 159.968 120.06 159.936 119.756 159.936C119.452 159.936 119.164 159.952 118.828 159.984V156.432H119.404C120.54 156.432 121.18 157.168 121.18 158.176ZM121.676 162.816C121.676 164.288 121.084 165.376 119.852 165.376C119.26 165.376 119.004 165.12 118.828 164.672V160.64C118.972 160.624 119.148 160.608 119.372 160.608C120.492 160.608 121.676 161.376 121.676 162.816ZM131.988 164.704C131.62 164.96 131.444 165.056 131.092 165.056C130.772 165.056 130.452 164.896 130.468 164.24L130.532 160.848C130.548 159.616 129.972 158.848 128.356 158.848C127.556 158.848 125.636 159.52 125.124 160.864V161.168L127.124 160.928C127.156 160.064 127.38 159.584 127.668 159.584C128.148 159.584 128.532 160.256 128.516 160.992L128.5 162.016L125.284 163.184C125.044 163.552 124.964 164.176 124.964 164.608C124.964 165.536 125.764 166.144 126.516 166.144C127.092 166.144 127.956 165.696 128.5 165.12C128.516 165.488 128.836 166.144 129.7 166.144C130.58 166.144 131.604 165.68 131.988 165.28V164.704ZM128.484 164.704C128.212 164.912 127.956 164.976 127.572 164.976C127.268 164.976 127.06 164.592 127.06 164.128C127.06 163.808 127.14 163.488 127.172 163.28C127.476 163.056 128.196 162.704 128.5 162.528L128.484 164.704ZM140.534 165.472C140.102 165.424 139.574 165.376 139.302 165.136V161.024C139.302 159.728 138.854 158.848 137.494 158.848C136.934 158.848 135.766 159.44 135.094 159.968V158.832H134.822L132.15 159.584V160.016C132.87 160.208 133.126 160.56 133.126 160.88V165.04C132.998 165.312 132.79 165.472 132.182 165.52V166H135.894V165.52C135.51 165.472 135.238 165.36 135.094 165.04V160.416C135.43 160.16 135.942 160.096 136.246 160.096C136.854 160.096 137.286 160.832 137.286 161.696V165.024C137.174 165.296 137.03 165.424 136.534 165.504V166H140.534V165.472ZM149.347 165.472C148.915 165.424 148.387 165.376 148.115 165.136V161.024C148.115 159.728 147.667 158.848 146.307 158.848C145.747 158.848 144.579 159.44 143.907 159.968V158.832H143.635L140.963 159.584V160.016C141.683 160.208 141.939 160.56 141.939 160.88V165.04C141.811 165.312 141.603 165.472 140.995 165.52V166H144.707V165.52C144.323 165.472 144.051 165.36 143.907 165.04V160.416C144.243 160.16 144.755 160.096 145.059 160.096C145.667 160.096 146.099 160.832 146.099 161.696V165.024C145.987 165.296 145.843 165.424 145.347 165.504V166H149.347V165.472ZM155.775 164.208C155.231 164.672 154.767 164.848 154.031 164.848C152.815 164.848 151.759 163.872 151.759 162.368C151.759 162.192 151.775 161.856 151.791 161.744L155.855 161.76V161.376C155.855 159.776 155.039 158.864 153.311 158.864C151.199 158.864 149.743 160.48 149.743 162.832C149.743 164.768 151.087 166.128 152.847 166.128C154.239 166.128 155.071 165.6 156.095 164.704L155.775 164.208ZM151.823 161.184C151.919 160.08 152.287 159.472 152.943 159.472C153.551 159.472 153.855 160.176 153.855 161.152L151.823 161.184ZM162.698 159.216C162.33 159.04 162.058 158.912 161.61 158.912C160.922 158.912 160.266 159.696 159.578 160.464L159.546 158.832H159.274L156.666 159.584V160.016C157.434 160.208 157.642 160.464 157.642 160.784V165.024C157.498 165.296 157.418 165.408 156.73 165.504V166H160.938V165.488C160.33 165.376 159.77 165.312 159.61 164.992V160.896C159.882 160.768 160.074 160.736 160.442 160.736C160.794 160.736 161.434 161.024 161.706 161.2H161.978L162.698 159.216Z" fill="white"/>
<path d="M71.232 180.096C70.4373 180.096 69.7733 179.824 69.24 179.28C68.7067 178.736 68.44 178.043 68.44 177.2C68.44 176.805 68.512 176.432 68.656 176.08C68.8053 175.728 69.016 175.416 69.288 175.144C69.56 174.877 69.872 174.672 70.224 174.528C70.5813 174.379 70.9547 174.304 71.344 174.304C71.7067 174.304 72.0427 174.363 72.352 174.48C72.6667 174.597 72.9547 174.771 73.216 175V175.936H73.2C72.8907 175.627 72.5787 175.397 72.264 175.248C71.9547 175.099 71.6347 175.024 71.304 175.024C70.7387 175.024 70.2507 175.235 69.84 175.656C69.4347 176.077 69.232 176.584 69.232 177.176C69.232 177.805 69.432 178.331 69.832 178.752C70.232 179.168 70.7147 179.376 71.28 179.376C71.6373 179.376 71.984 179.301 72.32 179.152C72.6613 178.997 72.9893 178.768 73.304 178.464L73.32 178.472L73.208 179.376C72.8987 179.621 72.5813 179.803 72.256 179.92C71.9307 180.037 71.5893 180.096 71.232 180.096ZM76.6536 176.704C76.419 176.704 76.187 176.76 75.9576 176.872C75.7336 176.984 75.4696 177.173 75.1656 177.44V180H74.4456V176.096L75.1656 175.936V176.952C75.4963 176.541 75.755 176.269 75.9416 176.136C76.1336 176.003 76.339 175.936 76.5576 175.936C76.6056 175.936 76.6456 175.939 76.6776 175.944C76.715 175.949 76.7603 175.957 76.8136 175.968L76.8696 176.728C76.8323 176.717 76.795 176.712 76.7576 176.712C76.7256 176.707 76.691 176.704 76.6536 176.704ZM81.0859 178.944L80.8219 179.736C80.5873 179.864 80.3686 179.955 80.1659 180.008C79.9633 180.061 79.7419 180.088 79.5019 180.088C78.8673 180.088 78.3633 179.899 77.9899 179.52C77.6166 179.141 77.4299 178.635 77.4299 178C77.4299 177.413 77.6166 176.915 77.9899 176.504C78.3633 176.093 78.8273 175.888 79.3819 175.888C79.9366 175.888 80.3793 176.083 80.7099 176.472C81.0406 176.856 81.2059 177.352 81.2059 177.96C81.2059 178.013 81.2033 178.072 81.1979 178.136C81.1926 178.2 81.1873 178.248 81.1819 178.28H78.1739C78.2273 178.643 78.3766 178.925 78.6219 179.128C78.8726 179.331 79.1926 179.432 79.5819 179.432C79.8166 179.432 80.0619 179.389 80.3179 179.304C80.5793 179.213 80.8299 179.091 81.0699 178.936L81.0859 178.944ZM79.3579 176.52C79.0326 176.52 78.7579 176.635 78.5339 176.864C78.3153 177.093 78.1899 177.387 78.1579 177.744H80.4779C80.4459 177.36 80.3313 177.061 80.1339 176.848C79.9366 176.629 79.6779 176.52 79.3579 176.52ZM85.4907 177.568V179.904L84.7707 180.064V179.352C84.472 179.592 84.1894 179.771 83.9227 179.888C83.6614 180.005 83.4054 180.064 83.1547 180.064C82.8027 180.064 82.5174 179.968 82.2987 179.776C82.08 179.579 81.9707 179.317 81.9707 178.992C81.9707 178.533 82.2 178.195 82.6587 177.976C83.1174 177.752 83.8214 177.635 84.7707 177.624V177.608C84.7707 177.277 84.6907 177.027 84.5307 176.856C84.376 176.68 84.1494 176.592 83.8507 176.592C83.6267 176.592 83.3947 176.64 83.1547 176.736C82.92 176.832 82.6774 176.976 82.4267 177.168L82.4107 177.16L82.5627 176.352C82.776 176.208 82.9974 176.101 83.2267 176.032C83.4614 175.963 83.7067 175.928 83.9627 175.928C84.4534 175.928 84.8294 176.069 85.0907 176.352C85.3574 176.635 85.4907 177.04 85.4907 177.568ZM82.6987 178.96C82.6987 179.109 82.752 179.229 82.8587 179.32C82.9654 179.405 83.112 179.448 83.2987 179.448C83.4854 179.448 83.6987 179.403 83.9387 179.312C84.1787 179.221 84.456 179.08 84.7707 178.888V178.088C84.0774 178.131 83.5574 178.224 83.2107 178.368C82.8694 178.507 82.6987 178.704 82.6987 178.96ZM89.3418 179.04L89.1818 179.808C89.0644 179.893 88.9258 179.96 88.7658 180.008C88.6058 180.061 88.4404 180.088 88.2698 180.088C87.8911 180.088 87.5924 179.971 87.3738 179.736C87.1551 179.501 87.0458 179.173 87.0458 178.752V176.616H86.3658V176H87.0458V175.104L87.7578 174.84V176H89.3258V176.616H87.7578V178.72C87.7578 178.96 87.8138 179.141 87.9258 179.264C88.0378 179.381 88.2031 179.44 88.4218 179.44C88.5711 179.44 88.7204 179.408 88.8698 179.344C89.0191 179.275 89.1711 179.171 89.3258 179.032L89.3418 179.04ZM93.6719 178.944L93.4079 179.736C93.1732 179.864 92.9545 179.955 92.7519 180.008C92.5492 180.061 92.3279 180.088 92.0879 180.088C91.4532 180.088 90.9492 179.899 90.5759 179.52C90.2025 179.141 90.0159 178.635 90.0159 178C90.0159 177.413 90.2025 176.915 90.5759 176.504C90.9492 176.093 91.4132 175.888 91.9679 175.888C92.5225 175.888 92.9652 176.083 93.2959 176.472C93.6265 176.856 93.7919 177.352 93.7919 177.96C93.7919 178.013 93.7892 178.072 93.7839 178.136C93.7785 178.2 93.7732 178.248 93.7679 178.28H90.7599C90.8132 178.643 90.9625 178.925 91.2079 179.128C91.4585 179.331 91.7785 179.432 92.1679 179.432C92.4025 179.432 92.6479 179.389 92.9039 179.304C93.1652 179.213 93.4159 179.091 93.6559 178.936L93.6719 178.944ZM91.9439 176.52C91.6185 176.52 91.3439 176.635 91.1199 176.864C90.9012 177.093 90.7759 177.387 90.7439 177.744H93.0639C93.0319 177.36 92.9172 177.061 92.7199 176.848C92.5225 176.629 92.2639 176.52 91.9439 176.52ZM99.8032 177.568V179.904L99.0832 180.064V179.352C98.7845 179.592 98.5019 179.771 98.2352 179.888C97.9739 180.005 97.7179 180.064 97.4672 180.064C97.1152 180.064 96.8299 179.968 96.6112 179.776C96.3925 179.579 96.2832 179.317 96.2832 178.992C96.2832 178.533 96.5125 178.195 96.9712 177.976C97.4299 177.752 98.1339 177.635 99.0832 177.624V177.608C99.0832 177.277 99.0032 177.027 98.8432 176.856C98.6885 176.68 98.4619 176.592 98.1632 176.592C97.9392 176.592 97.7072 176.64 97.4672 176.736C97.2325 176.832 96.9899 176.976 96.7392 177.168L96.7232 177.16L96.8752 176.352C97.0885 176.208 97.3099 176.101 97.5392 176.032C97.7739 175.963 98.0192 175.928 98.2752 175.928C98.7659 175.928 99.1419 176.069 99.4032 176.352C99.6699 176.635 99.8032 177.04 99.8032 177.568ZM97.0112 178.96C97.0112 179.109 97.0645 179.229 97.1712 179.32C97.2779 179.405 97.4245 179.448 97.6112 179.448C97.7979 179.448 98.0112 179.403 98.2512 179.312C98.4912 179.221 98.7685 179.08 99.0832 178.888V178.088C98.3899 178.131 97.8699 178.224 97.5232 178.368C97.1819 178.507 97.0112 178.704 97.0112 178.96ZM103.03 176.568C102.822 176.568 102.625 176.624 102.438 176.736C102.257 176.843 102.046 177.027 101.806 177.288V180H101.086V176.096L101.806 175.936V176.752C102.036 176.459 102.262 176.248 102.486 176.12C102.71 175.987 102.958 175.92 103.23 175.92C103.652 175.92 103.99 176.061 104.246 176.344C104.508 176.627 104.638 177.005 104.638 177.48V180H103.918V177.552C103.918 177.243 103.838 177.003 103.678 176.832C103.524 176.656 103.308 176.568 103.03 176.568ZM108.041 174.072C108.18 174.072 108.297 174.12 108.393 174.216C108.489 174.312 108.537 174.429 108.537 174.568C108.537 174.707 108.489 174.824 108.393 174.92C108.297 175.016 108.18 175.064 108.041 175.064C107.902 175.064 107.785 175.016 107.689 174.92C107.593 174.824 107.545 174.707 107.545 174.568C107.545 174.429 107.593 174.312 107.689 174.216C107.785 174.12 107.902 174.072 108.041 174.072ZM108.401 180H107.681V176H108.401V180ZM111.741 176.568C111.533 176.568 111.336 176.624 111.149 176.736C110.968 176.843 110.757 177.027 110.517 177.288V180H109.797V176.096L110.517 175.936V176.752C110.747 176.459 110.973 176.248 111.197 176.12C111.421 175.987 111.669 175.92 111.941 175.92C112.363 175.92 112.701 176.061 112.957 176.344C113.219 176.627 113.349 177.005 113.349 177.48V180H112.629V177.552C112.629 177.243 112.549 177.003 112.389 176.832C112.235 176.656 112.019 176.568 111.741 176.568ZM117.193 179.04L117.033 179.808C116.916 179.893 116.777 179.96 116.617 180.008C116.457 180.061 116.292 180.088 116.121 180.088C115.743 180.088 115.444 179.971 115.225 179.736C115.007 179.501 114.897 179.173 114.897 178.752V176.616H114.217V176H114.897V175.104L115.609 174.84V176H117.177V176.616H115.609V178.72C115.609 178.96 115.665 179.141 115.777 179.264C115.889 179.381 116.055 179.44 116.273 179.44C116.423 179.44 116.572 179.408 116.721 179.344C116.871 179.275 117.023 179.171 117.177 179.032L117.193 179.04ZM121.523 178.944L121.259 179.736C121.025 179.864 120.806 179.955 120.603 180.008C120.401 180.061 120.179 180.088 119.939 180.088C119.305 180.088 118.801 179.899 118.427 179.52C118.054 179.141 117.867 178.635 117.867 178C117.867 177.413 118.054 176.915 118.427 176.504C118.801 176.093 119.265 175.888 119.819 175.888C120.374 175.888 120.817 176.083 121.147 176.472C121.478 176.856 121.643 177.352 121.643 177.96C121.643 178.013 121.641 178.072 121.635 178.136C121.63 178.2 121.625 178.248 121.619 178.28H118.611C118.665 178.643 118.814 178.925 119.059 179.128C119.31 179.331 119.63 179.432 120.019 179.432C120.254 179.432 120.499 179.389 120.755 179.304C121.017 179.213 121.267 179.091 121.507 178.936L121.523 178.944ZM119.795 176.52C119.47 176.52 119.195 176.635 118.971 176.864C118.753 177.093 118.627 177.387 118.595 177.744H120.915C120.883 177.36 120.769 177.061 120.571 176.848C120.374 176.629 120.115 176.52 119.795 176.52ZM124.616 176.568C124.408 176.568 124.211 176.624 124.024 176.736C123.843 176.843 123.632 177.027 123.392 177.288V180H122.672V176.096L123.392 175.936V176.752C123.622 176.459 123.848 176.248 124.072 176.12C124.296 175.987 124.544 175.92 124.816 175.92C125.238 175.92 125.576 176.061 125.832 176.344C126.094 176.627 126.224 177.005 126.224 177.48V180H125.504V177.552C125.504 177.243 125.424 177.003 125.264 176.832C125.11 176.656 124.894 176.568 124.616 176.568ZM130.068 179.04L129.908 179.808C129.791 179.893 129.652 179.96 129.492 180.008C129.332 180.061 129.167 180.088 128.996 180.088C128.618 180.088 128.319 179.971 128.1 179.736C127.882 179.501 127.772 179.173 127.772 178.752V176.616H127.092V176H127.772V175.104L128.484 174.84V176H130.052V176.616H128.484V178.72C128.484 178.96 128.54 179.141 128.652 179.264C128.764 179.381 128.93 179.44 129.148 179.44C129.298 179.44 129.447 179.408 129.596 179.344C129.746 179.275 129.898 179.171 130.052 179.032L130.068 179.04ZM131.478 174.072C131.617 174.072 131.734 174.12 131.83 174.216C131.926 174.312 131.974 174.429 131.974 174.568C131.974 174.707 131.926 174.824 131.83 174.92C131.734 175.016 131.617 175.064 131.478 175.064C131.34 175.064 131.222 175.016 131.126 174.92C131.03 174.824 130.982 174.707 130.982 174.568C130.982 174.429 131.03 174.312 131.126 174.216C131.222 174.12 131.34 174.072 131.478 174.072ZM131.838 180H131.118V176H131.838V180ZM135.003 180.112C134.389 180.112 133.885 179.909 133.491 179.504C133.096 179.093 132.899 178.595 132.899 178.008C132.899 177.427 133.101 176.928 133.507 176.512C133.912 176.096 134.416 175.888 135.019 175.888C135.637 175.888 136.141 176.091 136.531 176.496C136.925 176.896 137.123 177.392 137.123 177.984C137.123 178.571 136.92 179.072 136.515 179.488C136.115 179.904 135.611 180.112 135.003 180.112ZM136.387 177.984C136.387 177.568 136.256 177.224 135.995 176.952C135.739 176.675 135.413 176.536 135.019 176.536C134.619 176.536 134.288 176.677 134.027 176.96C133.771 177.237 133.643 177.587 133.643 178.008C133.643 178.424 133.771 178.771 134.027 179.048C134.288 179.325 134.613 179.464 135.003 179.464C135.403 179.464 135.733 179.323 135.995 179.04C136.256 178.757 136.387 178.405 136.387 177.984ZM140.093 176.568C139.885 176.568 139.687 176.624 139.501 176.736C139.319 176.843 139.109 177.027 138.869 177.288V180H138.149V176.096L138.869 175.936V176.752C139.098 176.459 139.325 176.248 139.549 176.12C139.773 175.987 140.021 175.92 140.293 175.92C140.714 175.92 141.053 176.061 141.309 176.344C141.57 176.627 141.701 177.005 141.701 177.48V180H140.981V177.552C140.981 177.243 140.901 177.003 140.741 176.832C140.586 176.656 140.37 176.568 140.093 176.568ZM146.233 177.568V179.904L145.513 180.064V179.352C145.214 179.592 144.932 179.771 144.665 179.888C144.404 180.005 144.148 180.064 143.897 180.064C143.545 180.064 143.26 179.968 143.041 179.776C142.822 179.579 142.713 179.317 142.713 178.992C142.713 178.533 142.942 178.195 143.401 177.976C143.86 177.752 144.564 177.635 145.513 177.624V177.608C145.513 177.277 145.433 177.027 145.273 176.856C145.118 176.68 144.892 176.592 144.593 176.592C144.369 176.592 144.137 176.64 143.897 176.736C143.662 176.832 143.42 176.976 143.169 177.168L143.153 177.16L143.305 176.352C143.518 176.208 143.74 176.101 143.969 176.032C144.204 175.963 144.449 175.928 144.705 175.928C145.196 175.928 145.572 176.069 145.833 176.352C146.1 176.635 146.233 177.04 146.233 177.568ZM143.441 178.96C143.441 179.109 143.494 179.229 143.601 179.32C143.708 179.405 143.854 179.448 144.041 179.448C144.228 179.448 144.441 179.403 144.681 179.312C144.921 179.221 145.198 179.08 145.513 178.888V178.088C144.82 178.131 144.3 178.224 143.953 178.368C143.612 178.507 143.441 178.704 143.441 178.96ZM148.276 180H147.556V174.192L148.276 173.928V180ZM155.327 177.92C155.327 178.533 155.129 179.045 154.735 179.456C154.345 179.861 153.873 180.064 153.319 180.064C153.105 180.064 152.9 180.029 152.703 179.96C152.511 179.891 152.316 179.784 152.119 179.64V181.528H151.399V176.096L152.119 175.936V176.584C152.343 176.349 152.564 176.181 152.783 176.08C153.001 175.973 153.241 175.92 153.503 175.92C154.015 175.92 154.447 176.112 154.799 176.496C155.151 176.875 155.327 177.349 155.327 177.92ZM154.583 177.976C154.583 177.56 154.46 177.221 154.215 176.96C153.975 176.699 153.673 176.568 153.311 176.568C153.103 176.568 152.905 176.608 152.719 176.688C152.532 176.768 152.332 176.896 152.119 177.072V179.08C152.3 179.197 152.476 179.285 152.647 179.344C152.823 179.397 153.007 179.424 153.199 179.424C153.599 179.424 153.929 179.288 154.191 179.016C154.452 178.739 154.583 178.392 154.583 177.976ZM159.616 177.568V179.904L158.896 180.064V179.352C158.597 179.592 158.314 179.771 158.048 179.888C157.786 180.005 157.53 180.064 157.28 180.064C156.928 180.064 156.642 179.968 156.424 179.776C156.205 179.579 156.096 179.317 156.096 178.992C156.096 178.533 156.325 178.195 156.784 177.976C157.242 177.752 157.946 177.635 158.896 177.624V177.608C158.896 177.277 158.816 177.027 158.656 176.856C158.501 176.68 158.274 176.592 157.976 176.592C157.752 176.592 157.52 176.64 157.28 176.736C157.045 176.832 156.802 176.976 156.552 177.168L156.536 177.16L156.688 176.352C156.901 176.208 157.122 176.101 157.352 176.032C157.586 175.963 157.832 175.928 158.088 175.928C158.578 175.928 158.954 176.069 159.216 176.352C159.482 176.635 159.616 177.04 159.616 177.568ZM156.824 178.96C156.824 179.109 156.877 179.229 156.984 179.32C157.09 179.405 157.237 179.448 157.424 179.448C157.61 179.448 157.824 179.403 158.064 179.312C158.304 179.221 158.581 179.08 158.896 178.888V178.088C158.202 178.131 157.682 178.224 157.336 178.368C156.994 178.507 156.824 178.704 156.824 178.96ZM163.467 179.04L163.307 179.808C163.189 179.893 163.051 179.96 162.891 180.008C162.731 180.061 162.565 180.088 162.395 180.088C162.016 180.088 161.717 179.971 161.499 179.736C161.28 179.501 161.171 179.173 161.171 178.752V176.616H160.491V176H161.171V175.104L161.883 174.84V176H163.451V176.616H161.883V178.72C161.883 178.96 161.939 179.141 162.051 179.264C162.163 179.381 162.328 179.44 162.547 179.44C162.696 179.44 162.845 179.408 162.995 179.344C163.144 179.275 163.296 179.171 163.451 179.032L163.467 179.04ZM166.421 176.568C166.213 176.568 166.016 176.624 165.829 176.736C165.648 176.843 165.437 177.027 165.197 177.288V180H164.477V174.192L165.197 173.928V176.752C165.426 176.459 165.653 176.248 165.877 176.12C166.101 175.987 166.349 175.92 166.621 175.92C167.042 175.92 167.381 176.061 167.637 176.344C167.898 176.627 168.029 177.005 168.029 177.48V180H167.309V177.552C167.309 177.243 167.229 177.003 167.069 176.832C166.914 176.656 166.698 176.568 166.421 176.568ZM173.424 176V176.616H172.104V180H171.384V176.616H170.672V176H171.384V175.368C171.384 174.925 171.504 174.579 171.744 174.328C171.984 174.072 172.312 173.944 172.728 173.944C172.856 173.944 172.973 173.955 173.08 173.976C173.186 173.997 173.296 174.035 173.408 174.088L173.528 174.832L173.512 174.84C173.362 174.755 173.232 174.696 173.12 174.664C173.008 174.627 172.893 174.608 172.776 174.608C172.568 174.608 172.402 174.675 172.28 174.808C172.162 174.936 172.104 175.115 172.104 175.344V176H173.424ZM175.925 180.112C175.311 180.112 174.807 179.909 174.413 179.504C174.018 179.093 173.821 178.595 173.821 178.008C173.821 177.427 174.023 176.928 174.429 176.512C174.834 176.096 175.338 175.888 175.941 175.888C176.559 175.888 177.063 176.091 177.453 176.496C177.847 176.896 178.045 177.392 178.045 177.984C178.045 178.571 177.842 179.072 177.437 179.488C177.037 179.904 176.533 180.112 175.925 180.112ZM177.309 177.984C177.309 177.568 177.178 177.224 176.917 176.952C176.661 176.675 176.335 176.536 175.941 176.536C175.541 176.536 175.21 176.677 174.949 176.96C174.693 177.237 174.565 177.587 174.565 178.008C174.565 178.424 174.693 178.771 174.949 179.048C175.21 179.325 175.535 179.464 175.925 179.464C176.325 179.464 176.655 179.323 176.917 179.04C177.178 178.757 177.309 178.405 177.309 177.984ZM181.279 176.704C181.044 176.704 180.812 176.76 180.583 176.872C180.359 176.984 180.095 177.173 179.791 177.44V180H179.071V176.096L179.791 175.936V176.952C180.121 176.541 180.38 176.269 180.567 176.136C180.759 176.003 180.964 175.936 181.183 175.936C181.231 175.936 181.271 175.939 181.303 175.944C181.34 175.949 181.385 175.957 181.439 175.968L181.495 176.728C181.457 176.717 181.42 176.712 181.383 176.712C181.351 176.707 181.316 176.704 181.279 176.704ZM187.654 176L185.798 180.448C185.643 180.821 185.448 181.101 185.214 181.288C184.979 181.475 184.707 181.568 184.398 181.568C184.28 181.568 184.166 181.555 184.054 181.528C183.942 181.507 183.832 181.469 183.726 181.416L183.582 180.68L183.598 180.672C183.726 180.747 183.843 180.8 183.95 180.832C184.056 180.869 184.168 180.888 184.286 180.888C184.478 180.888 184.64 180.832 184.774 180.72C184.912 180.613 185.032 180.443 185.134 180.208L185.318 179.776L183.622 176H184.422L185.686 178.952L186.87 176H187.654ZM190.19 180.112C189.577 180.112 189.073 179.909 188.678 179.504C188.284 179.093 188.086 178.595 188.086 178.008C188.086 177.427 188.289 176.928 188.694 176.512C189.1 176.096 189.604 175.888 190.206 175.888C190.825 175.888 191.329 176.091 191.718 176.496C192.113 176.896 192.31 177.392 192.31 177.984C192.31 178.571 192.108 179.072 191.702 179.488C191.302 179.904 190.798 180.112 190.19 180.112ZM191.574 177.984C191.574 177.568 191.444 177.224 191.182 176.952C190.926 176.675 190.601 176.536 190.206 176.536C189.806 176.536 189.476 176.677 189.214 176.96C188.958 177.237 188.83 177.587 188.83 178.008C188.83 178.424 188.958 178.771 189.214 179.048C189.476 179.325 189.801 179.464 190.19 179.464C190.59 179.464 190.921 179.323 191.182 179.04C191.444 178.757 191.574 178.405 191.574 177.984ZM196.816 180H196.088V179.248C195.859 179.541 195.632 179.755 195.408 179.888C195.184 180.016 194.936 180.08 194.664 180.08C194.243 180.08 193.902 179.939 193.64 179.656C193.384 179.373 193.256 178.995 193.256 178.52V176H193.984V178.448C193.984 178.757 194.062 179 194.216 179.176C194.376 179.347 194.595 179.432 194.872 179.432C195.075 179.432 195.267 179.379 195.448 179.272C195.635 179.16 195.848 178.973 196.088 178.712V176H196.816V180ZM200.372 176.704C200.138 176.704 199.906 176.76 199.676 176.872C199.452 176.984 199.188 177.173 198.884 177.44V180H198.164V176.096L198.884 175.936V176.952C199.215 176.541 199.474 176.269 199.66 176.136C199.852 176.003 200.058 175.936 200.276 175.936C200.324 175.936 200.364 175.939 200.396 175.944C200.434 175.949 200.479 175.957 200.532 175.968L200.588 176.728C200.551 176.717 200.514 176.712 200.476 176.712C200.444 176.707 200.41 176.704 200.372 176.704ZM206.147 176H206.931L204.819 180.112H204.667L202.699 176H203.491L204.771 178.824L206.147 176ZM208.166 174.072C208.305 174.072 208.422 174.12 208.518 174.216C208.614 174.312 208.662 174.429 208.662 174.568C208.662 174.707 208.614 174.824 208.518 174.92C208.422 175.016 208.305 175.064 208.166 175.064C208.027 175.064 207.91 175.016 207.814 174.92C207.718 174.824 207.67 174.707 207.67 174.568C207.67 174.429 207.718 174.312 207.814 174.216C207.91 174.12 208.027 174.072 208.166 174.072ZM208.526 180H207.806V176H208.526V180ZM211.49 177.664C212.018 177.787 212.384 177.941 212.586 178.128C212.794 178.315 212.898 178.571 212.898 178.896C212.898 179.243 212.746 179.528 212.442 179.752C212.144 179.976 211.76 180.088 211.29 180.088C211.008 180.088 210.738 180.048 210.482 179.968C210.226 179.888 209.973 179.765 209.722 179.6L209.57 178.728L209.586 178.72C209.885 178.955 210.186 179.133 210.49 179.256C210.794 179.379 211.088 179.44 211.37 179.44C211.61 179.44 211.808 179.395 211.962 179.304C212.122 179.208 212.202 179.085 212.202 178.936C212.202 178.776 212.128 178.651 211.978 178.56C211.834 178.469 211.546 178.373 211.114 178.272C210.597 178.149 210.237 177.997 210.034 177.816C209.832 177.635 209.73 177.397 209.73 177.104C209.73 176.752 209.874 176.467 210.162 176.248C210.456 176.024 210.832 175.912 211.29 175.912C211.514 175.912 211.738 175.944 211.962 176.008C212.186 176.072 212.4 176.163 212.602 176.28V177.048H212.586C212.336 176.888 212.093 176.768 211.858 176.688C211.629 176.603 211.413 176.56 211.21 176.56C210.97 176.56 210.778 176.603 210.634 176.688C210.496 176.773 210.426 176.885 210.426 177.024C210.426 177.173 210.498 177.293 210.642 177.384C210.786 177.469 211.069 177.563 211.49 177.664ZM214.353 174.072C214.492 174.072 214.609 174.12 214.705 174.216C214.801 174.312 214.849 174.429 214.849 174.568C214.849 174.707 214.801 174.824 214.705 174.92C214.609 175.016 214.492 175.064 214.353 175.064C214.215 175.064 214.097 175.016 214.001 174.92C213.905 174.824 213.857 174.707 213.857 174.568C213.857 174.429 213.905 174.312 214.001 174.216C214.097 174.12 214.215 174.072 214.353 174.072ZM214.713 180H213.993V176H214.713V180ZM218.678 179.04L218.518 179.808C218.4 179.893 218.262 179.96 218.102 180.008C217.942 180.061 217.776 180.088 217.606 180.088C217.227 180.088 216.928 179.971 216.71 179.736C216.491 179.501 216.382 179.173 216.382 178.752V176.616H215.702V176H216.382V175.104L217.094 174.84V176H218.662V176.616H217.094V178.72C217.094 178.96 217.15 179.141 217.262 179.264C217.374 179.381 217.539 179.44 217.758 179.44C217.907 179.44 218.056 179.408 218.206 179.344C218.355 179.275 218.507 179.171 218.662 179.032L218.678 179.04ZM221.456 180.112C220.842 180.112 220.338 179.909 219.944 179.504C219.549 179.093 219.352 178.595 219.352 178.008C219.352 177.427 219.554 176.928 219.96 176.512C220.365 176.096 220.869 175.888 221.472 175.888C222.09 175.888 222.594 176.091 222.984 176.496C223.378 176.896 223.576 177.392 223.576 177.984C223.576 178.571 223.373 179.072 222.968 179.488C222.568 179.904 222.064 180.112 221.456 180.112ZM222.84 177.984C222.84 177.568 222.709 177.224 222.448 176.952C222.192 176.675 221.866 176.536 221.472 176.536C221.072 176.536 220.741 176.677 220.48 176.96C220.224 177.237 220.096 177.587 220.096 178.008C220.096 178.424 220.224 178.771 220.48 179.048C220.741 179.325 221.066 179.464 221.456 179.464C221.856 179.464 222.186 179.323 222.448 179.04C222.709 178.757 222.84 178.405 222.84 177.984ZM226.81 176.704C226.575 176.704 226.343 176.76 226.114 176.872C225.89 176.984 225.626 177.173 225.322 177.44V180H224.602V176.096L225.322 175.936V176.952C225.653 176.541 225.911 176.269 226.098 176.136C226.29 176.003 226.495 175.936 226.714 175.936C226.762 175.936 226.802 175.939 226.834 175.944C226.871 175.949 226.917 175.957 226.97 175.968L227.026 176.728C226.989 176.717 226.951 176.712 226.914 176.712C226.882 176.707 226.847 176.704 226.81 176.704ZM229.49 177.664C230.018 177.787 230.384 177.941 230.586 178.128C230.794 178.315 230.898 178.571 230.898 178.896C230.898 179.243 230.746 179.528 230.442 179.752C230.144 179.976 229.76 180.088 229.29 180.088C229.008 180.088 228.738 180.048 228.482 179.968C228.226 179.888 227.973 179.765 227.722 179.6L227.57 178.728L227.586 178.72C227.885 178.955 228.186 179.133 228.49 179.256C228.794 179.379 229.088 179.44 229.37 179.44C229.61 179.44 229.808 179.395 229.962 179.304C230.122 179.208 230.202 179.085 230.202 178.936C230.202 178.776 230.128 178.651 229.978 178.56C229.834 178.469 229.546 178.373 229.114 178.272C228.597 178.149 228.237 177.997 228.034 177.816C227.832 177.635 227.73 177.397 227.73 177.104C227.73 176.752 227.874 176.467 228.162 176.248C228.456 176.024 228.832 175.912 229.29 175.912C229.514 175.912 229.738 175.944 229.962 176.008C230.186 176.072 230.4 176.163 230.602 176.28V177.048H230.586C230.336 176.888 230.093 176.768 229.858 176.688C229.629 176.603 229.413 176.56 229.21 176.56C228.97 176.56 228.778 176.603 228.634 176.688C228.496 176.773 228.426 176.885 228.426 177.024C228.426 177.173 228.498 177.293 228.642 177.384C228.786 177.469 229.069 177.563 229.49 177.664ZM236.248 179.04L236.088 179.808C235.971 179.893 235.832 179.96 235.672 180.008C235.512 180.061 235.347 180.088 235.176 180.088C234.797 180.088 234.499 179.971 234.28 179.736C234.061 179.501 233.952 179.173 233.952 178.752V176.616H233.272V176H233.952V175.104L234.664 174.84V176H236.232V176.616H234.664V178.72C234.664 178.96 234.72 179.141 234.832 179.264C234.944 179.381 235.109 179.44 235.328 179.44C235.477 179.44 235.627 179.408 235.776 179.344C235.925 179.275 236.077 179.171 236.232 179.032L236.248 179.04ZM239.026 180.112C238.413 180.112 237.909 179.909 237.514 179.504C237.119 179.093 236.922 178.595 236.922 178.008C236.922 177.427 237.125 176.928 237.53 176.512C237.935 176.096 238.439 175.888 239.042 175.888C239.661 175.888 240.165 176.091 240.554 176.496C240.949 176.896 241.146 177.392 241.146 177.984C241.146 178.571 240.943 179.072 240.538 179.488C240.138 179.904 239.634 180.112 239.026 180.112ZM240.41 177.984C240.41 177.568 240.279 177.224 240.018 176.952C239.762 176.675 239.437 176.536 239.042 176.536C238.642 176.536 238.311 176.677 238.05 176.96C237.794 177.237 237.666 177.587 237.666 178.008C237.666 178.424 237.794 178.771 238.05 179.048C238.311 179.325 238.637 179.464 239.026 179.464C239.426 179.464 239.757 179.323 240.018 179.04C240.279 178.757 240.41 178.405 240.41 177.984ZM246.291 176V176.616H244.971V180H244.251V176.616H243.539V176H244.251V175.368C244.251 174.925 244.371 174.579 244.611 174.328C244.851 174.072 245.179 173.944 245.595 173.944C245.723 173.944 245.84 173.955 245.947 173.976C246.053 173.997 246.163 174.035 246.275 174.088L246.395 174.832L246.379 174.84C246.229 174.755 246.099 174.696 245.987 174.664C245.875 174.627 245.76 174.608 245.643 174.608C245.435 174.608 245.269 174.675 245.147 174.808C245.029 174.936 244.971 175.115 244.971 175.344V176H246.291ZM248.792 180.112C248.178 180.112 247.674 179.909 247.28 179.504C246.885 179.093 246.688 178.595 246.688 178.008C246.688 177.427 246.89 176.928 247.296 176.512C247.701 176.096 248.205 175.888 248.808 175.888C249.426 175.888 249.93 176.091 250.32 176.496C250.714 176.896 250.912 177.392 250.912 177.984C250.912 178.571 250.709 179.072 250.304 179.488C249.904 179.904 249.4 180.112 248.792 180.112ZM250.176 177.984C250.176 177.568 250.045 177.224 249.784 176.952C249.528 176.675 249.202 176.536 248.808 176.536C248.408 176.536 248.077 176.677 247.816 176.96C247.56 177.237 247.432 177.587 247.432 178.008C247.432 178.424 247.56 178.771 247.816 179.048C248.077 179.325 248.402 179.464 248.792 179.464C249.192 179.464 249.522 179.323 249.784 179.04C250.045 178.757 250.176 178.405 250.176 177.984ZM252.698 180H251.978V174.192L252.698 173.928V180ZM254.854 180H254.134V174.192L254.854 173.928V180ZM258.018 180.112C257.405 180.112 256.901 179.909 256.506 179.504C256.112 179.093 255.914 178.595 255.914 178.008C255.914 177.427 256.117 176.928 256.522 176.512C256.928 176.096 257.432 175.888 258.034 175.888C258.653 175.888 259.157 176.091 259.546 176.496C259.941 176.896 260.138 177.392 260.138 177.984C260.138 178.571 259.936 179.072 259.53 179.488C259.13 179.904 258.626 180.112 258.018 180.112ZM259.402 177.984C259.402 177.568 259.272 177.224 259.01 176.952C258.754 176.675 258.429 176.536 258.034 176.536C257.634 176.536 257.304 176.677 257.042 176.96C256.786 177.237 256.658 177.587 256.658 178.008C256.658 178.424 256.786 178.771 257.042 179.048C257.304 179.325 257.629 179.464 258.018 179.464C258.418 179.464 258.749 179.323 259.01 179.04C259.272 178.757 259.402 178.405 259.402 177.984ZM266.58 176H267.316L265.748 180.056H265.148L263.988 177.4L262.756 180.056H262.148L260.692 176H261.468L262.5 179.096L263.956 175.952H264.092L265.444 179.096L266.58 176ZM268.097 180.072C267.948 180.072 267.82 180.019 267.713 179.912C267.607 179.805 267.553 179.677 267.553 179.528C267.553 179.379 267.607 179.251 267.713 179.144C267.82 179.037 267.948 178.984 268.097 178.984C268.247 178.984 268.372 179.037 268.473 179.144C268.58 179.251 268.633 179.379 268.633 179.528C268.633 179.677 268.58 179.805 268.473 179.912C268.372 180.019 268.247 180.072 268.097 180.072Z" fill="white"/>
</svg>
