<svg width="501" height="261" viewBox="0 0 501 261" fill="none" xmlns="http://www.w3.org/2000/svg">
<rect width="501" height="261" fill="white"/>
<rect x="75" y="209" width="353" height="15" rx="5" fill="#E3E3E3"/>
<rect x="75" y="184" width="353" height="15" rx="5" fill="#E3E3E3"/>
<rect x="73" y="43" width="353" height="15" rx="5" fill="#E3E3E3"/>
<rect x="73" y="68" width="353" height="15" rx="5" fill="#E3E3E3"/>
<rect x="75" y="101" width="351" height="65" fill="#376C74"/>
<path d="M94.544 127.541V128.037H89.424V127.541C90.16 127.509 90.736 127.333 90.896 126.997L89.92 124.069H87.04L86.08 126.741C86.256 127.125 86.832 127.509 87.568 127.541V128.037H83.44V127.541C84.16 127.509 84.608 127.317 84.928 126.901C85.344 125.845 85.84 124.677 86.304 123.381C86.944 121.605 87.552 119.893 87.92 118.789C88.096 118.229 88.096 118.037 88.128 117.733H90.288C90.336 118.229 90.336 118.453 90.496 118.965C91.008 120.661 91.408 121.973 91.856 123.317C92.224 124.453 92.576 125.477 93.072 126.837C93.248 127.301 93.824 127.509 94.544 127.541ZM87.312 123.253H89.648L88.64 119.941L88.528 119.333L88.416 119.941L87.312 123.253ZM102.563 126.933V127.477L99.6354 128.245H99.3474L99.2514 127.157C98.5794 127.669 97.3634 128.213 96.8194 128.213C95.4914 128.213 95.1074 127.301 95.1074 125.989V122.725C95.1074 122.165 94.8354 121.973 94.0834 121.765V121.317L96.8354 120.917H97.1234L97.1074 125.365C97.1074 126.213 97.4754 126.981 98.1154 126.981C98.5634 126.981 98.9634 126.901 99.2514 126.693V122.725C99.2514 122.085 99.0914 121.893 98.0354 121.765V121.317L100.979 120.917H101.219V126.469C101.219 126.805 101.395 127.045 101.523 127.109L102.563 126.933ZM111.252 126.933V127.461L108.244 128.277H107.94L107.796 127.109C107.14 127.637 106.292 128.181 105.588 128.181C104.276 128.181 102.916 127.093 102.916 124.837C102.916 122.645 104.324 120.885 106.708 120.885C107.14 120.885 107.54 121.029 107.828 121.109L107.78 118.757C107.764 118.101 107.556 117.957 106.5 117.861V117.429L109.684 116.709H110.036V117.045L109.732 117.589L109.764 126.485C109.764 126.837 109.956 127.045 110.004 127.125L111.252 126.933ZM107.796 126.661L107.78 122.917C107.556 122.021 106.884 121.589 106.42 121.589C105.556 121.589 105.012 122.869 105.012 124.229C105.012 125.669 105.636 126.933 106.756 126.933C107.044 126.933 107.476 126.901 107.796 126.661ZM114.551 118.181C114.551 118.725 114.039 119.333 113.335 119.333C112.599 119.333 112.119 118.725 112.119 118.181C112.119 117.621 112.631 116.997 113.351 116.997C114.055 116.997 114.551 117.621 114.551 118.181ZM115.351 127.541V128.037H111.479V127.541C112.199 127.445 112.279 127.333 112.439 127.061L112.455 122.869C112.455 122.501 112.247 122.229 111.463 122.021V121.605L114.119 120.853H114.407V127.061C114.567 127.381 114.679 127.461 115.351 127.541ZM123.177 124.533C123.177 126.645 121.609 128.181 119.481 128.181C117.305 128.181 116.025 126.741 116.025 124.469C116.025 122.389 117.561 120.885 119.721 120.885C121.897 120.885 123.177 122.373 123.177 124.533ZM121.033 124.933C121.033 122.853 120.521 121.541 119.385 121.541C118.665 121.541 118.169 122.709 118.169 124.085C118.169 126.085 118.681 127.525 119.753 127.525C120.585 127.525 121.033 126.389 121.033 124.933ZM136.066 120.789C136.066 122.645 134.818 124.085 132.37 124.085C132.002 124.085 131.746 124.021 131.266 123.893V126.741C131.474 127.269 132.418 127.509 133.09 127.541V128.037H127.41V127.541C128.13 127.509 128.882 127.349 129.09 126.821V118.965C128.946 118.597 128.226 118.389 127.49 118.357V117.877C129.394 117.877 131.042 117.829 131.826 117.829C134.722 117.829 136.066 118.965 136.066 120.789ZM133.762 120.741C133.762 119.525 133.154 118.517 132.002 118.517C131.794 118.517 131.522 118.517 131.266 118.549V123.349C131.506 123.413 131.682 123.413 131.906 123.413C133.122 123.413 133.762 122.341 133.762 120.741ZM140.867 127.557V128.037H136.867V127.557C137.555 127.477 137.715 127.349 137.827 127.077V118.741C137.827 118.197 137.859 117.973 136.803 117.861V117.429L139.779 116.709H140.131V117.045L139.827 117.589V127.077C139.987 127.397 140.179 127.461 140.867 127.557ZM148.567 126.741V127.317C148.183 127.717 147.159 128.181 146.279 128.181C145.415 128.181 145.095 127.525 145.079 127.157C144.535 127.733 143.671 128.181 143.095 128.181C142.343 128.181 141.543 127.573 141.543 126.645C141.543 126.213 141.623 125.589 141.863 125.221L145.079 124.053L145.095 123.029C145.111 122.293 144.727 121.621 144.247 121.621C143.959 121.621 143.735 122.101 143.703 122.965L141.703 123.205V122.901C142.215 121.557 144.135 120.885 144.935 120.885C146.551 120.885 147.127 121.653 147.111 122.885L147.047 126.277C147.031 126.933 147.351 127.093 147.671 127.093C148.023 127.093 148.199 126.997 148.567 126.741ZM145.062 126.741L145.079 124.565C144.775 124.741 144.055 125.093 143.751 125.317C143.719 125.525 143.639 125.845 143.639 126.165C143.639 126.629 143.847 127.013 144.151 127.013C144.535 127.013 144.791 126.949 145.062 126.741ZM155.868 121.109V121.589C155.212 121.621 154.844 122.069 154.684 122.485L152.78 127.381C152.252 128.741 151.804 130.021 151.292 131.301C151.084 131.813 150.716 132.165 150.124 132.165C149.436 132.165 149.036 131.621 149.036 131.077C149.036 130.517 149.404 130.005 150.124 130.005C150.396 130.005 150.732 130.149 150.908 130.341L151.692 128.485L149.228 122.309C149.068 121.925 148.78 121.621 148.124 121.589V121.109H152.204V121.589C151.676 121.621 151.404 121.749 151.196 121.877L152.748 125.813L154.028 122.149C153.932 121.909 153.564 121.621 152.956 121.589V121.109H155.868ZM162.041 126.245L162.361 126.741C161.337 127.637 160.505 128.165 159.113 128.165C157.353 128.165 156.009 126.805 156.009 124.869C156.009 122.517 157.465 120.901 159.577 120.901C161.305 120.901 162.121 121.813 162.121 123.413V123.797L158.057 123.781C158.041 123.893 158.025 124.229 158.025 124.405C158.025 125.909 159.081 126.885 160.297 126.885C161.033 126.885 161.497 126.709 162.041 126.245ZM158.089 123.221L160.121 123.189C160.121 122.213 159.817 121.509 159.209 121.509C158.553 121.509 158.185 122.117 158.089 123.221ZM168.964 121.253L168.244 123.237H167.972C167.7 123.061 167.06 122.773 166.708 122.773C166.34 122.773 166.148 122.805 165.876 122.933V127.029C166.036 127.349 166.596 127.413 167.204 127.525V128.037H162.996V127.541C163.684 127.445 163.764 127.333 163.908 127.061V122.821C163.908 122.501 163.7 122.245 162.932 122.053V121.621L165.54 120.869H165.812L165.844 122.501C166.532 121.733 167.188 120.949 167.876 120.949C168.324 120.949 168.596 121.077 168.964 121.253Z" fill="white"/>
<path d="M376.75 145.801V146.111H373.19V145.801C373.65 145.781 374.21 145.641 374.31 145.451V141.141C374.31 140.701 373.97 140.691 373.21 140.691V140.391L375.62 139.621H375.83V139.801L375.63 140.141V145.451C375.73 145.641 376.29 145.781 376.75 145.801ZM380.314 142.591C380.314 143.031 379.954 143.411 379.494 143.411C379.054 143.411 378.684 143.031 378.684 142.591C378.684 142.151 379.054 141.781 379.494 141.781C379.964 141.781 380.314 142.151 380.314 142.591ZM380.314 145.401C380.314 145.841 379.954 146.221 379.494 146.221C379.054 146.221 378.684 145.841 378.684 145.401C378.684 144.961 379.054 144.591 379.494 144.591C379.964 144.591 380.314 144.961 380.314 145.401ZM386.263 143.971V146.111H381.503L381.423 145.611C383.913 143.981 384.413 142.841 384.413 141.761C384.413 141.021 383.923 140.571 383.263 140.571C382.463 140.571 382.043 141.191 381.843 141.741L381.523 141.651C381.673 140.691 382.393 139.621 383.793 139.621C384.943 139.621 385.813 140.321 385.813 141.371C385.813 142.891 384.413 143.961 382.963 144.991H385.523C385.733 144.891 385.963 144.421 385.983 143.971H386.263ZM391.727 144.111C391.727 145.351 390.527 146.251 389.087 146.251C388.307 146.251 387.707 146.031 387.327 145.791L387.167 144.311H387.487C387.597 144.711 387.867 145.131 388.147 145.391C388.297 145.531 388.707 145.801 389.017 145.801C389.707 145.801 390.297 145.241 390.297 144.321C390.297 143.471 389.667 143.131 388.977 143.131C388.747 143.131 388.527 143.211 388.337 143.281L388.227 142.911C388.727 142.731 388.957 142.621 389.077 142.561C389.707 142.241 389.977 141.881 389.977 141.341C389.977 140.871 389.657 140.431 388.987 140.431C388.267 140.431 387.887 141.081 387.737 141.371L387.417 141.221C387.567 140.691 388.187 139.621 389.567 139.621C390.527 139.621 391.337 140.141 391.337 140.961C391.337 141.641 390.867 142.101 390.027 142.421C390.617 142.521 391.727 142.971 391.727 144.111ZM395.341 139.051H396.111L392.861 148.031H392.131L395.341 139.051ZM401.728 143.591V144.301H400.338V145.451C400.438 145.651 400.748 145.781 401.198 145.801V146.111H398.098V145.801C398.538 145.781 398.938 145.651 399.038 145.451V144.301H396.358V143.741L399.558 139.681H400.378C400.338 140.141 400.338 140.591 400.338 140.721V143.591H401.728ZM397.088 143.591H399.038V141.131L397.088 143.591ZM404.582 142.591C404.582 143.031 404.222 143.411 403.762 143.411C403.322 143.411 402.952 143.031 402.952 142.591C402.952 142.151 403.322 141.781 403.762 141.781C404.232 141.781 404.582 142.151 404.582 142.591ZM404.582 145.401C404.582 145.841 404.222 146.221 403.762 146.221C403.322 146.221 402.952 145.841 402.952 145.401C402.952 144.961 403.322 144.591 403.762 144.591C404.232 144.591 404.582 144.961 404.582 145.401ZM410.321 144.071C410.321 145.191 409.301 146.251 407.751 146.251C407.011 146.251 406.331 146.031 405.951 145.841L405.771 144.291H406.101C406.271 144.751 406.491 145.171 406.841 145.441C407.141 145.681 407.601 145.801 407.711 145.801C408.441 145.801 408.951 145.251 408.951 144.391C408.951 143.411 407.961 143.151 407.001 143.151H406.101L406.621 139.781H409.561C409.751 139.641 409.811 139.391 409.861 139.221H410.111V141.071H409.921C409.841 141.031 409.601 140.991 409.321 140.991H406.891L406.711 142.031H407.281C408.811 142.031 410.321 142.481 410.321 144.071ZM416.275 143.911C416.275 145.141 415.275 146.251 413.795 146.251C412.265 146.251 411.415 145.031 411.415 143.431C411.415 141.011 413.765 139.571 415.665 139.511L415.735 139.891C414.035 140.231 413.115 141.421 412.845 142.631C413.355 142.121 413.905 141.861 414.535 141.861C415.495 141.861 416.275 142.731 416.275 143.911ZM414.905 144.221C414.905 143.291 414.525 142.601 413.755 142.601C413.465 142.601 413.165 142.721 412.805 143.061V143.511C412.805 144.901 413.265 145.791 413.945 145.791C414.475 145.791 414.905 145.261 414.905 144.221Z" fill="white"/>
<line x1="104" y1="143.333" x2="364" y2="143.333" stroke="#767676" stroke-width="2"/>
<line x1="104" y1="143.333" x2="145" y2="143.333" stroke="white" stroke-width="2"/>
<circle cx="145.5" cy="143.5" r="3.5" fill="white"/>
<path d="M96.7222 143.134C97.3889 143.519 97.3889 144.481 96.7222 144.866L90.3889 148.523C89.7222 148.908 88.8889 148.427 88.8889 147.657L88.8889 140.344C88.8889 139.574 89.7222 139.093 90.3889 139.478L96.7222 143.134Z" fill="#D9D9D9"/>
<circle cx="92" cy="144" r="7.5" stroke="#D9D9D9"/>
</svg>
