<svg width="501" height="261" viewBox="0 0 501 261" fill="none" xmlns="http://www.w3.org/2000/svg">
<rect width="501" height="261" fill="white"/>
<path d="M190 102.52H179.008V103.96C181.456 104.104 182.128 104.872 182.848 105.448L176.464 116.68L169.984 105.208C170.656 104.632 171.376 104.104 173.824 103.96V102.52H158.704V103.96C161.248 104.104 162.496 104.968 163.84 107.224L171.232 119.896V129.592C170.56 131.032 168.016 131.416 165.904 131.512V133H182.896V131.512C180.784 131.416 178.672 131.176 177.712 128.92V119.464L184.816 107.416C186.16 105.112 187.408 104.104 190 103.96V102.52ZM207.215 129.112C206.111 129.88 205.583 130.168 204.527 130.168C203.567 130.168 202.607 129.688 202.655 127.72L202.847 117.544C202.895 113.848 201.167 111.544 196.319 111.544C193.919 111.544 188.159 113.56 186.623 117.592V118.504L192.623 117.784C192.719 115.192 193.391 113.752 194.255 113.752C195.695 113.752 196.847 115.768 196.799 117.976L196.751 121.048L187.103 124.552C186.383 125.656 186.143 127.528 186.143 128.824C186.143 131.608 188.543 133.432 190.799 133.432C192.527 133.432 195.119 132.088 196.751 130.36C196.799 131.464 197.759 133.432 200.351 133.432C202.991 133.432 206.063 132.04 207.215 130.84V129.112ZM196.703 129.112C195.887 129.736 195.119 129.928 193.967 129.928C193.055 129.928 192.431 128.776 192.431 127.384C192.431 126.424 192.671 125.464 192.767 124.84C193.679 124.168 195.839 123.112 196.751 122.584L196.703 129.112ZM219.365 131.56C217.301 131.272 216.725 131.08 216.245 130.12V101.656L217.157 100.024V99.016H216.101L207.173 101.176V102.472C210.341 102.808 210.245 103.48 210.245 105.112V130.12C209.909 130.936 209.429 131.32 207.365 131.56V133H219.365V131.56ZM239.201 127.624C237.569 129.016 236.177 129.544 233.969 129.544C230.321 129.544 227.153 126.616 227.153 122.104C227.153 121.576 227.201 120.568 227.249 120.232L239.441 120.28V119.128C239.441 114.328 236.993 111.592 231.809 111.592C225.473 111.592 221.105 116.44 221.105 123.496C221.105 129.304 225.137 133.384 230.417 133.384C234.593 133.384 237.089 131.8 240.161 129.112L239.201 127.624ZM227.345 118.552C227.633 115.24 228.737 113.416 230.705 113.416C232.529 113.416 233.441 115.528 233.441 118.456L227.345 118.552ZM265.395 124.216C265.395 119.512 262.515 117.208 256.755 115C250.755 112.696 249.987 111.256 249.987 108.664C249.987 105.928 252.531 104.056 255.891 104.056C257.667 104.056 259.731 105.304 260.451 105.976C261.939 107.368 262.899 109.24 263.235 111.304H264.627V103.288C262.803 102.616 259.875 101.848 256.707 101.848C249.123 101.848 243.651 105.592 243.651 111.112C243.651 115.912 246.483 118.408 252.723 120.616C257.283 122.2 259.059 123.64 259.059 126.616C259.059 129.16 256.803 131.608 253.011 131.608C251.043 131.608 249.075 130.552 247.731 129.4C246.051 127.96 244.707 125.8 243.987 123.688H242.595L243.459 131.848C245.475 132.664 248.691 133.72 252.819 133.72C259.923 133.72 265.395 130.168 265.395 124.216ZM277.621 103.432C277.621 101.752 276.133 99.88 274.021 99.88C271.861 99.88 270.325 101.752 270.325 103.432C270.325 105.064 271.765 106.888 273.973 106.888C276.085 106.888 277.621 105.064 277.621 103.432ZM280.021 131.512C278.005 131.272 277.669 131.032 277.189 130.072V111.448H276.325L268.357 113.704V114.952C270.709 115.576 271.333 116.392 271.333 117.496L271.285 130.072C270.805 130.888 270.565 131.224 268.405 131.512V133H280.021V131.512ZM297.5 129.544C297.02 129.736 295.532 130.408 294.476 130.408C291.74 130.408 290.156 128.776 290.156 126.088C290.156 121.816 290.252 119.704 290.348 114.856L297.116 114.904V112.312H290.3L290.348 107.752H289.436L281.948 113.512V114.856H284.492C284.396 119.416 284.108 122.632 284.108 127.192C284.108 131.032 285.644 133.384 290.636 133.384C292.556 133.384 296.108 132.04 297.5 131.032V129.544ZM316.029 127.624C314.397 129.016 313.005 129.544 310.797 129.544C307.149 129.544 303.981 126.616 303.981 122.104C303.981 121.576 304.029 120.568 304.077 120.232L316.269 120.28V119.128C316.269 114.328 313.821 111.592 308.637 111.592C302.301 111.592 297.933 116.44 297.933 123.496C297.933 129.304 301.965 133.384 307.245 133.384C311.421 133.384 313.917 131.8 316.989 129.112L316.029 127.624ZM304.173 118.552C304.461 115.24 305.565 113.416 307.533 113.416C309.357 113.416 310.269 115.528 310.269 118.456L304.173 118.552ZM335.215 126.808C335.215 123.496 333.103 121.72 329.455 120.28C326.143 118.984 324.991 118.12 324.991 116.248C324.991 115.048 325.903 113.464 329.167 113.464C330.031 113.464 331.951 115.672 333.343 118.456H334.735L334.495 112.888C333.103 112.312 330.751 111.592 327.871 111.592C323.167 111.592 319.327 114.376 319.327 117.928C319.327 121.432 321.247 123.208 325.087 124.648C327.583 125.608 329.503 126.472 329.503 128.392C329.503 130.024 328.303 131.464 324.799 131.464C324.079 131.464 321.679 129.064 320.239 126.28H318.703L319.279 131.992C320.623 132.568 323.119 133.432 327.103 133.432C331.711 133.432 335.215 130.504 335.215 126.808Z" fill="#376C74"/>
<path d="M179.584 156.144C179.264 157.648 178.336 159.152 177.056 160.176C176.512 160.624 175.264 161.2 173.504 161.2C168.096 161.2 164.576 156.912 164.576 150.896C164.576 146.352 167.328 142.48 171.968 142.48C175.04 142.48 176.512 143.504 177.088 143.856C178.336 144.624 178.848 146.256 178.976 147.696H179.68V142.416C177.312 141.84 175.52 141.264 172.448 141.264C166.24 141.264 161.248 145.52 161.248 151.664C161.248 157.712 165.952 162.416 172.384 162.416C176.064 162.416 176.896 162.032 179.232 161.296L180.352 156.336L179.584 156.144ZM198.02 160.08L195.844 160.464C195.556 160.336 195.204 159.856 195.204 159.184V147.888H194.916L190.052 148.688V149.328C192.26 149.584 192.708 150 192.708 151.28V159.6C191.78 160.08 190.852 160.592 189.572 160.592C187.684 160.592 186.596 159.056 186.596 157.36L186.628 147.888H186.276L181.924 148.688V149.328C183.492 149.744 184.036 150.16 184.036 151.28V157.904C184.036 160.528 184.804 162.352 187.652 162.352C188.804 162.352 191.268 161.264 192.708 160.24L192.9 162.416H193.284L198.02 160.88V160.08ZM209.099 158C209.099 155.888 207.691 154.992 205.195 153.968C202.763 152.976 202.219 152.304 202.219 150.96C202.219 150.128 202.603 148.752 205.195 148.752C205.931 148.752 207.211 150.256 208.171 152.112H208.875L208.715 148.72C207.883 148.336 206.539 147.856 204.843 147.856C202.027 147.856 199.851 149.68 199.851 151.888C199.851 154.096 201.131 155.056 203.787 156.144C205.579 156.88 206.699 157.584 206.699 158.928C206.699 160.112 206.091 161.36 203.403 161.36C202.731 161.36 201.227 159.728 200.235 157.872H199.435L199.819 161.424C200.619 161.808 201.995 162.32 204.363 162.32C207.115 162.32 209.099 160.304 209.099 158ZM220.583 160.048C220.263 160.176 219.207 160.624 218.471 160.624C216.583 160.624 215.463 159.504 215.463 157.712C215.463 154.864 215.527 153.04 215.591 149.808L220.327 149.84V148.336H215.559L215.591 145.36H215.175L211.367 149.136V149.808L213.127 149.776C213.063 152.816 212.871 155.088 212.871 158.128C212.871 160.688 213.735 162.256 216.647 162.256C217.799 162.256 219.751 161.36 220.583 160.688V160.048ZM235.412 155.056C235.412 150.736 232.884 147.824 228.692 147.824C224.532 147.824 221.524 150.768 221.524 154.928C221.524 159.472 224.052 162.288 228.276 162.288C232.372 162.288 235.412 159.28 235.412 155.056ZM232.532 155.888C232.532 158.736 231.124 161.264 228.98 161.264C226.068 161.264 224.436 158.096 224.436 154.128C224.436 151.472 225.908 148.848 227.828 148.848C230.836 148.848 232.532 151.728 232.532 155.888ZM262.294 161.136C261.078 161.04 260.31 160.976 259.67 160.528L259.574 152.24C259.542 149.584 258.742 147.856 255.862 147.856C254.678 147.856 252.054 149.2 250.678 150.256C250.198 148.784 249.11 147.824 247.094 147.824C245.942 147.824 243.51 149.008 242.07 150.064V147.76H241.718L237.718 149.36V149.872C239.19 150.352 239.574 151.024 239.574 151.696V160.304C239.286 160.848 239.126 161.168 237.558 161.264V162H244.118V161.264C242.518 161.104 242.422 160.944 242.07 160.304V150.736C243.062 150.128 244.598 149.616 245.43 149.616C247.35 149.616 248.246 151.344 248.246 152.816V160.304C248.022 160.848 247.862 161.168 246.326 161.264V162H252.854V161.264C251.286 161.104 251.19 160.944 250.806 160.304V150.8C251.798 150.16 253.238 149.68 254.134 149.68C256.022 149.68 256.982 151.216 257.014 152.848L257.11 160.272C256.822 160.816 256.63 161.168 255.126 161.264V162.032C255.926 162 257.046 161.936 258.262 161.936C259.862 161.936 261.334 161.968 262.294 162V161.136ZM287.19 155.44C287.19 153.072 285.43 151.024 282.358 150.224C285.27 148.976 286.038 147.728 286.038 145.744C286.038 143.44 283.958 141.52 279.126 141.52C276.534 141.52 274.742 141.648 270.55 141.68V142.384C272.054 142.448 273.398 142.864 273.686 143.504V159.792C273.238 160.848 271.318 161.2 269.846 161.264V162H278.934C284.31 162 287.19 159.856 287.19 155.44ZM283.03 146.256C283.03 147.824 282.582 148.976 281.302 149.968C280.694 149.968 279.958 149.904 279.126 149.904C278.326 149.904 277.462 149.904 276.598 149.968V142.64H278.134C281.238 142.64 283.03 144.144 283.03 146.256ZM284.022 155.664C284.022 158.704 282.518 160.976 279.286 160.976C277.75 160.976 277.142 160.592 276.598 159.504V151.088C276.95 151.056 277.462 151.024 278.038 151.024C281.014 151.024 284.022 152.688 284.022 155.664ZM296.682 161.264C295.082 161.104 294.698 160.944 294.378 160.304V140.88L294.986 139.792V139.344H294.474L289.674 140.784V141.392C291.882 141.616 291.818 142.064 291.818 143.152V160.304C291.562 160.848 291.178 161.168 289.642 161.264V162H296.682V161.264ZM312.1 155.056C312.1 150.736 309.572 147.824 305.38 147.824C301.22 147.824 298.212 150.768 298.212 154.928C298.212 159.472 300.74 162.288 304.964 162.288C309.06 162.288 312.1 159.28 312.1 155.056ZM309.22 155.888C309.22 158.736 307.812 161.264 305.668 161.264C302.756 161.264 301.124 158.096 301.124 154.128C301.124 151.472 302.596 148.848 304.516 148.848C307.524 148.848 309.22 151.728 309.22 155.888ZM324.997 158.48C324.197 159.568 323.109 160.4 321.637 160.4C318.789 160.4 316.805 158.256 316.805 154.704C316.805 151.408 317.957 149.584 319.589 149.232C321.989 149.616 322.981 150.8 324.421 151.344C324.869 151.088 325.349 149.936 325.413 149.488C325.253 148.88 324.037 147.856 321.701 147.856C317.637 147.856 314.117 150.96 314.117 155.888C314.117 159.76 316.613 162.256 319.941 162.256C321.957 162.256 323.813 161.264 325.573 159.216L324.997 158.48ZM342.23 161.264C340.79 161.2 339.798 160.72 338.998 159.728L334.198 153.872L337.686 150.352C338.55 149.488 339.83 149.136 341.302 149.04V148.272H334.582V149.04C335.542 149.168 336.438 149.424 336.662 149.68L331.702 154.928L336.694 160.848C336.47 161.104 335.958 161.232 334.934 161.264V162H342.23V161.264ZM333.11 161.264C331.542 161.104 331.51 160.944 331.19 160.304V140.88L331.862 139.792V139.344H331.35L326.486 140.784V141.392C328.694 141.616 328.63 142.032 328.63 143.184V160.304C328.374 160.848 328.118 161.168 326.582 161.264V162H333.11V161.264Z" fill="#376C74"/>
</svg>
