<svg width="501" height="261" viewBox="0 0 501 261" fill="none" xmlns="http://www.w3.org/2000/svg">
<rect width="501" height="261" fill="white"/>
<rect x="74" y="104" width="135.471" height="47" rx="1" fill="#376C74"/>
<path d="M96.55 127.43C97.294 127.706 97.858 128.096 98.242 128.6C98.626 129.104 98.818 129.698 98.818 130.382C98.818 131.486 98.386 132.368 97.522 133.028C96.67 133.676 95.53 134 94.102 134H89.422V121.4H94.084C95.416 121.4 96.454 121.694 97.198 122.282C97.954 122.87 98.332 123.686 98.332 124.73C98.332 125.306 98.176 125.828 97.864 126.296C97.564 126.752 97.126 127.13 96.55 127.43ZM93.742 123.632H92.176V126.62H93.634C94.222 126.62 94.69 126.482 95.038 126.206C95.386 125.918 95.56 125.54 95.56 125.072C95.56 124.616 95.398 124.262 95.074 124.01C94.75 123.758 94.306 123.632 93.742 123.632ZM92.176 128.618V131.768H93.886C94.534 131.768 95.044 131.63 95.416 131.354C95.788 131.066 95.974 130.682 95.974 130.202C95.974 129.686 95.788 129.296 95.416 129.032C95.044 128.756 94.51 128.618 93.814 128.618H92.176ZM109.592 134H106.946V132.344C106.454 132.992 105.956 133.466 105.452 133.766C104.948 134.054 104.372 134.198 103.724 134.198C102.776 134.198 102.02 133.88 101.456 133.244C100.904 132.608 100.628 131.744 100.628 130.652V124.802H103.364V130.094C103.364 130.646 103.496 131.072 103.76 131.372C104.024 131.672 104.402 131.822 104.894 131.822C105.23 131.822 105.548 131.756 105.848 131.624C106.148 131.48 106.49 131.246 106.874 130.922V124.802H109.592V134ZM118.611 131.174L118.197 133.55C117.861 133.766 117.489 133.928 117.081 134.036C116.685 134.144 116.265 134.198 115.821 134.198C114.801 134.198 114.021 133.904 113.481 133.316C112.953 132.716 112.689 131.84 112.689 130.688V126.926H111.285V124.802H112.689V122.822L115.371 122.156V124.802H118.557V126.926H115.371V130.472C115.371 130.94 115.485 131.294 115.713 131.534C115.953 131.762 116.301 131.876 116.757 131.876C117.045 131.876 117.333 131.822 117.621 131.714C117.909 131.594 118.227 131.408 118.575 131.156L118.611 131.174ZM126.89 131.174L126.476 133.55C126.14 133.766 125.768 133.928 125.36 134.036C124.964 134.144 124.544 134.198 124.1 134.198C123.08 134.198 122.3 133.904 121.76 133.316C121.232 132.716 120.968 131.84 120.968 130.688V126.926H119.564V124.802H120.968V122.822L123.65 122.156V124.802H126.836V126.926H123.65V130.472C123.65 130.94 123.764 131.294 123.992 131.534C124.232 131.762 124.58 131.876 125.036 131.876C125.324 131.876 125.612 131.822 125.9 131.714C126.188 131.594 126.506 131.408 126.854 131.156L126.89 131.174ZM132.919 134.252C131.467 134.252 130.273 133.79 129.337 132.866C128.413 131.93 127.951 130.778 127.951 129.41C127.951 128.054 128.425 126.908 129.373 125.972C130.321 125.024 131.509 124.55 132.937 124.55C134.389 124.55 135.577 125.012 136.501 125.936C137.437 126.86 137.905 128.006 137.905 129.374C137.905 130.73 137.431 131.882 136.483 132.83C135.535 133.778 134.347 134.252 132.919 134.252ZM135.259 129.374C135.259 128.654 135.037 128.06 134.593 127.592C134.161 127.112 133.609 126.872 132.937 126.872C132.253 126.872 131.689 127.112 131.245 127.592C130.813 128.072 130.597 128.678 130.597 129.41C130.597 130.13 130.819 130.73 131.263 131.21C131.707 131.69 132.259 131.93 132.919 131.93C133.591 131.93 134.149 131.69 134.593 131.21C135.037 130.718 135.259 130.106 135.259 129.374ZM144.406 126.98C144.07 126.98 143.752 127.046 143.452 127.178C143.164 127.31 142.828 127.538 142.444 127.862V134H139.708V125.018L142.372 124.676V126.44C142.864 125.792 143.362 125.324 143.866 125.036C144.382 124.736 144.952 124.586 145.576 124.586C146.524 124.586 147.274 124.904 147.826 125.54C148.39 126.176 148.672 127.04 148.672 128.132V134H145.954V128.69C145.954 128.15 145.816 127.73 145.54 127.43C145.276 127.13 144.898 126.98 144.406 126.98ZM163.068 134H155.094V121.4H158.01V131.39H163.068V134ZM166.337 120.194C166.805 120.194 167.195 120.344 167.507 120.644C167.831 120.944 167.993 121.316 167.993 121.76C167.993 122.204 167.831 122.576 167.507 122.876C167.195 123.176 166.805 123.326 166.337 123.326C165.869 123.326 165.473 123.176 165.149 122.876C164.837 122.576 164.681 122.204 164.681 121.76C164.681 121.316 164.837 120.944 165.149 120.644C165.473 120.344 165.869 120.194 166.337 120.194ZM167.687 134H164.969V124.802H167.687V134ZM174.886 126.98C174.55 126.98 174.232 127.046 173.932 127.178C173.644 127.31 173.308 127.538 172.924 127.862V134H170.188V125.018L172.852 124.676V126.44C173.344 125.792 173.842 125.324 174.346 125.036C174.862 124.736 175.432 124.586 176.056 124.586C177.004 124.586 177.754 124.904 178.306 125.54C178.87 126.176 179.152 127.04 179.152 128.132V134H176.434V128.69C176.434 128.15 176.296 127.73 176.02 127.43C175.756 127.13 175.378 126.98 174.886 126.98ZM190.799 134H187.523L184.571 130.22H184.157V134H181.421V121.076L184.157 120.356V128.474H184.553L187.433 124.802H190.547V124.838L186.929 129.23L190.799 133.964V134Z" fill="white"/>
<rect x="74" y="216" width="353" height="15" rx="5" fill="#E3E3E3"/>
<rect x="74" y="166" width="353" height="15" rx="5" fill="#E3E3E3"/>
<rect x="74" y="191" width="353" height="15" rx="5" fill="#E3E3E3"/>
<rect x="74" y="74" width="353" height="15" rx="5" fill="#E3E3E3"/>
<rect x="74" y="24" width="353" height="15" rx="5" fill="#E3E3E3"/>
<rect x="74" y="49" width="353" height="15" rx="5" fill="#E3E3E3"/>
</svg>
