<svg width="501" height="261" viewBox="0 0 501 261" fill="none" xmlns="http://www.w3.org/2000/svg">
<rect width="501" height="261" fill="white"/>
<rect x="183" y="104" width="135.471" height="47" rx="1" fill="#376C74"/>
<path d="M205.55 127.43C206.294 127.706 206.858 128.096 207.242 128.6C207.626 129.104 207.818 129.698 207.818 130.382C207.818 131.486 207.386 132.368 206.522 133.028C205.67 133.676 204.53 134 203.102 134H198.422V121.4H203.084C204.416 121.4 205.454 121.694 206.198 122.282C206.954 122.87 207.332 123.686 207.332 124.73C207.332 125.306 207.176 125.828 206.864 126.296C206.564 126.752 206.126 127.13 205.55 127.43ZM202.742 123.632H201.176V126.62H202.634C203.222 126.62 203.69 126.482 204.038 126.206C204.386 125.918 204.56 125.54 204.56 125.072C204.56 124.616 204.398 124.262 204.074 124.01C203.75 123.758 203.306 123.632 202.742 123.632ZM201.176 128.618V131.768H202.886C203.534 131.768 204.044 131.63 204.416 131.354C204.788 131.066 204.974 130.682 204.974 130.202C204.974 129.686 204.788 129.296 204.416 129.032C204.044 128.756 203.51 128.618 202.814 128.618H201.176ZM218.592 134H215.946V132.344C215.454 132.992 214.956 133.466 214.452 133.766C213.948 134.054 213.372 134.198 212.724 134.198C211.776 134.198 211.02 133.88 210.456 133.244C209.904 132.608 209.628 131.744 209.628 130.652V124.802H212.364V130.094C212.364 130.646 212.496 131.072 212.76 131.372C213.024 131.672 213.402 131.822 213.894 131.822C214.23 131.822 214.548 131.756 214.848 131.624C215.148 131.48 215.49 131.246 215.874 130.922V124.802H218.592V134ZM227.611 131.174L227.197 133.55C226.861 133.766 226.489 133.928 226.081 134.036C225.685 134.144 225.265 134.198 224.821 134.198C223.801 134.198 223.021 133.904 222.481 133.316C221.953 132.716 221.689 131.84 221.689 130.688V126.926H220.285V124.802H221.689V122.822L224.371 122.156V124.802H227.557V126.926H224.371V130.472C224.371 130.94 224.485 131.294 224.713 131.534C224.953 131.762 225.301 131.876 225.757 131.876C226.045 131.876 226.333 131.822 226.621 131.714C226.909 131.594 227.227 131.408 227.575 131.156L227.611 131.174ZM235.89 131.174L235.476 133.55C235.14 133.766 234.768 133.928 234.36 134.036C233.964 134.144 233.544 134.198 233.1 134.198C232.08 134.198 231.3 133.904 230.76 133.316C230.232 132.716 229.968 131.84 229.968 130.688V126.926H228.564V124.802H229.968V122.822L232.65 122.156V124.802H235.836V126.926H232.65V130.472C232.65 130.94 232.764 131.294 232.992 131.534C233.232 131.762 233.58 131.876 234.036 131.876C234.324 131.876 234.612 131.822 234.9 131.714C235.188 131.594 235.506 131.408 235.854 131.156L235.89 131.174ZM241.919 134.252C240.467 134.252 239.273 133.79 238.337 132.866C237.413 131.93 236.951 130.778 236.951 129.41C236.951 128.054 237.425 126.908 238.373 125.972C239.321 125.024 240.509 124.55 241.937 124.55C243.389 124.55 244.577 125.012 245.501 125.936C246.437 126.86 246.905 128.006 246.905 129.374C246.905 130.73 246.431 131.882 245.483 132.83C244.535 133.778 243.347 134.252 241.919 134.252ZM244.259 129.374C244.259 128.654 244.037 128.06 243.593 127.592C243.161 127.112 242.609 126.872 241.937 126.872C241.253 126.872 240.689 127.112 240.245 127.592C239.813 128.072 239.597 128.678 239.597 129.41C239.597 130.13 239.819 130.73 240.263 131.21C240.707 131.69 241.259 131.93 241.919 131.93C242.591 131.93 243.149 131.69 243.593 131.21C244.037 130.718 244.259 130.106 244.259 129.374ZM253.406 126.98C253.07 126.98 252.752 127.046 252.452 127.178C252.164 127.31 251.828 127.538 251.444 127.862V134H248.708V125.018L251.372 124.676V126.44C251.864 125.792 252.362 125.324 252.866 125.036C253.382 124.736 253.952 124.586 254.576 124.586C255.524 124.586 256.274 124.904 256.826 125.54C257.39 126.176 257.672 127.04 257.672 128.132V134H254.954V128.69C254.954 128.15 254.816 127.73 254.54 127.43C254.276 127.13 253.898 126.98 253.406 126.98ZM272.068 134H264.094V121.4H267.01V131.39H272.068V134ZM275.337 120.194C275.805 120.194 276.195 120.344 276.507 120.644C276.831 120.944 276.993 121.316 276.993 121.76C276.993 122.204 276.831 122.576 276.507 122.876C276.195 123.176 275.805 123.326 275.337 123.326C274.869 123.326 274.473 123.176 274.149 122.876C273.837 122.576 273.681 122.204 273.681 121.76C273.681 121.316 273.837 120.944 274.149 120.644C274.473 120.344 274.869 120.194 275.337 120.194ZM276.687 134H273.969V124.802H276.687V134ZM283.886 126.98C283.55 126.98 283.232 127.046 282.932 127.178C282.644 127.31 282.308 127.538 281.924 127.862V134H279.188V125.018L281.852 124.676V126.44C282.344 125.792 282.842 125.324 283.346 125.036C283.862 124.736 284.432 124.586 285.056 124.586C286.004 124.586 286.754 124.904 287.306 125.54C287.87 126.176 288.152 127.04 288.152 128.132V134H285.434V128.69C285.434 128.15 285.296 127.73 285.02 127.43C284.756 127.13 284.378 126.98 283.886 126.98ZM299.799 134H296.523L293.571 130.22H293.157V134H290.421V121.076L293.157 120.356V128.474H293.553L296.433 124.802H299.547V124.838L295.929 129.23L299.799 133.964V134Z" fill="white"/>
<rect x="74" y="216" width="353" height="15" rx="5" fill="#E3E3E3"/>
<rect x="74" y="166" width="353" height="15" rx="5" fill="#E3E3E3"/>
<rect x="74" y="191" width="353" height="15" rx="5" fill="#E3E3E3"/>
<rect x="74" y="74" width="353" height="15" rx="5" fill="#E3E3E3"/>
<rect x="74" y="24" width="353" height="15" rx="5" fill="#E3E3E3"/>
<rect x="74" y="49" width="353" height="15" rx="5" fill="#E3E3E3"/>
</svg>
