<svg width="501" height="261" viewBox="0 0 501 261" fill="none" xmlns="http://www.w3.org/2000/svg">
<rect width="501" height="261" fill="white"/>
<rect y="62" width="501" height="118" fill="#376C74"/>
<path d="M156.312 82.84H152.104V83.32C152.808 83.352 153.656 83.768 153.8 84.088C153.816 84.584 153.88 85.704 153.88 86.552V88.696C153.88 90.904 153.08 92.024 151.352 92.024C149.752 92.024 148.856 90.952 148.856 89.016V83.896C149 83.576 149.624 83.352 150.328 83.32V82.84H145.256V83.32C145.944 83.352 146.52 83.576 146.68 83.896V89.304C146.68 91.816 148.2 93.256 150.696 93.256C153.128 93.256 154.888 91.96 154.888 89.016V84.088C155.032 83.768 155.624 83.352 156.312 83.32V82.84ZM162.171 90.936C162.171 89.832 161.467 89.24 160.251 88.76C159.147 88.328 158.763 88.04 158.763 87.416C158.763 87.016 159.067 86.488 160.155 86.488C160.443 86.488 161.083 87.224 161.547 88.152H162.011L161.931 86.296C161.467 86.104 160.683 85.864 159.723 85.864C158.155 85.864 156.875 86.792 156.875 87.976C156.875 89.144 157.515 89.736 158.795 90.216C159.627 90.536 160.267 90.824 160.267 91.464C160.267 92.008 159.867 92.488 158.699 92.488C158.459 92.488 157.659 91.688 157.179 90.76H156.667L156.859 92.664C157.307 92.856 158.139 93.144 159.467 93.144C161.003 93.144 162.171 92.168 162.171 90.936ZM169.072 91.208C168.528 91.672 168.064 91.848 167.328 91.848C166.112 91.848 165.056 90.872 165.056 89.368C165.056 89.192 165.072 88.856 165.088 88.744L169.152 88.76V88.376C169.152 86.776 168.336 85.864 166.608 85.864C164.496 85.864 163.04 87.48 163.04 89.832C163.04 91.768 164.384 93.128 166.144 93.128C167.536 93.128 168.368 92.6 169.392 91.704L169.072 91.208ZM165.12 88.184C165.216 87.08 165.584 86.472 166.24 86.472C166.848 86.472 167.152 87.176 167.152 88.152L165.12 88.184ZM183.747 92.504C183.027 92.472 182.451 92.264 182.275 91.8C181.779 90.44 181.427 89.416 181.059 88.28C180.611 86.936 180.211 85.624 179.699 83.928C179.539 83.416 179.539 83.192 179.491 82.696H177.331C177.299 83 177.299 83.192 177.123 83.752C176.755 84.856 176.147 86.568 175.507 88.344C175.043 89.64 174.547 90.808 174.131 91.864C173.811 92.28 173.363 92.472 172.643 92.504V93H176.771V92.504C176.035 92.472 175.459 92.088 175.283 91.704L176.243 89.032H179.123L180.099 91.96C179.939 92.296 179.363 92.472 178.627 92.504V93H183.747V92.504ZM176.515 88.216L177.619 84.904L177.731 84.296L177.843 84.904L178.851 88.216H176.515ZM195.947 89.992C195.787 90.552 195.323 91.384 194.811 91.896C194.539 92.168 194.107 92.504 193.387 92.504C191.131 92.504 189.739 90.376 189.739 87.464C189.739 85.256 190.811 83.336 192.763 83.336C193.803 83.336 194.571 83.96 194.795 84.168C195.259 84.6 195.595 85.384 195.643 85.944H196.107V83.208C194.971 82.92 194.139 82.632 192.667 82.632C189.723 82.632 187.371 84.76 187.371 87.832C187.371 90.856 189.579 93.208 192.635 93.208C194.139 93.208 194.795 93.016 195.899 92.632L196.459 90.088L195.947 89.992ZM204.238 91.704C203.87 91.96 203.694 92.056 203.342 92.056C203.022 92.056 202.702 91.896 202.718 91.24L202.782 87.848C202.798 86.616 202.222 85.848 200.606 85.848C199.806 85.848 197.886 86.52 197.374 87.864V88.168L199.374 87.928C199.406 87.064 199.63 86.584 199.918 86.584C200.398 86.584 200.782 87.256 200.766 87.992L200.75 89.016L197.534 90.184C197.294 90.552 197.214 91.176 197.214 91.608C197.214 92.536 198.014 93.144 198.766 93.144C199.342 93.144 200.206 92.696 200.75 92.12C200.766 92.488 201.086 93.144 201.95 93.144C202.83 93.144 203.854 92.68 204.238 92.28V91.704ZM200.734 91.704C200.462 91.912 200.206 91.976 199.822 91.976C199.518 91.976 199.31 91.592 199.31 91.128C199.31 90.808 199.39 90.488 199.422 90.28C199.726 90.056 200.446 89.704 200.75 89.528L200.734 91.704ZM208.288 92.52C207.6 92.424 207.408 92.36 207.248 92.04V82.552L207.552 82.008V81.672H207.2L204.224 82.392V82.824C205.28 82.936 205.248 83.16 205.248 83.704V92.04C205.136 92.312 204.976 92.44 204.288 92.52V93H208.288V92.52ZM212.788 92.52C212.1 92.424 211.908 92.36 211.748 92.04V82.552L212.052 82.008V81.672H211.7L208.724 82.392V82.824C209.78 82.936 209.748 83.16 209.748 83.704V92.04C209.636 92.312 209.476 92.44 208.788 92.52V93H212.788V92.52ZM220.536 89.496C220.536 87.336 219.256 85.848 217.08 85.848C214.92 85.848 213.384 87.352 213.384 89.432C213.384 91.704 214.664 93.144 216.84 93.144C218.968 93.144 220.536 91.608 220.536 89.496ZM218.392 89.896C218.392 91.352 217.944 92.488 217.112 92.488C216.04 92.488 215.528 91.048 215.528 89.048C215.528 87.672 216.024 86.504 216.744 86.504C217.88 86.504 218.392 87.816 218.392 89.896ZM229.642 91.896L228.602 92.072C228.474 92.008 228.298 91.768 228.298 91.432V85.88H228.058L225.114 86.28V86.728C226.17 86.856 226.33 87.048 226.33 87.688V91.656C226.042 91.864 225.641 91.944 225.194 91.944C224.554 91.944 224.186 91.176 224.186 90.328L224.202 85.88H223.914L221.162 86.28V86.728C221.914 86.936 222.186 87.128 222.186 87.688V90.952C222.186 92.264 222.57 93.176 223.898 93.176C224.442 93.176 225.658 92.632 226.33 92.12L226.426 93.208H226.714L229.642 92.44V91.896ZM235.146 91.848C234.986 91.912 234.49 92.136 234.138 92.136C233.226 92.136 232.698 91.592 232.698 90.696C232.698 89.272 232.73 88.568 232.762 86.952L235.018 86.968V86.104H232.746L232.762 84.584H232.458L229.962 86.504V86.952H230.81C230.778 88.472 230.682 89.544 230.682 91.064C230.682 92.344 231.194 93.128 232.858 93.128C233.498 93.128 234.682 92.68 235.146 92.344V91.848ZM248.448 82.744H248.048C247.84 82.808 247.504 82.856 247.12 82.856H240.304C239.792 82.856 239.584 82.808 239.376 82.744H238.976V85.56H239.44C239.472 84.2 240.176 83.72 241.312 83.704L242.624 83.688V91.848C242.4 92.328 241.44 92.472 240.736 92.504V93H246.656V92.504C245.952 92.472 245.136 92.376 244.8 91.624V83.688L246.096 83.704C247.232 83.72 247.968 84.2 248 85.56H248.448V82.744ZM254.615 89.496C254.615 87.336 253.335 85.848 251.159 85.848C248.999 85.848 247.463 87.352 247.463 89.432C247.463 91.704 248.743 93.144 250.919 93.144C253.047 93.144 254.615 91.608 254.615 89.496ZM252.471 89.896C252.471 91.352 252.023 92.488 251.191 92.488C250.119 92.488 249.607 91.048 249.607 89.048C249.607 87.672 250.103 86.504 250.823 86.504C251.959 86.504 252.471 87.816 252.471 89.896ZM269.407 88.424H264.335V88.904C265.039 88.936 265.903 89.144 266.079 89.464V91.704C265.887 92.072 265.119 92.568 264.495 92.568C262.623 92.568 261.551 90.456 261.551 87.64C261.551 85.448 262.607 83.336 264.655 83.336C265.775 83.336 266.655 84.072 266.863 84.28C267.375 84.792 267.583 85.48 267.647 85.944H268.111V83.192C266.991 82.904 266.127 82.632 264.671 82.632C261.647 82.632 259.183 84.744 259.183 87.864C259.183 90.792 261.135 93.24 264.159 93.24C265.903 93.24 267.135 92.76 268.207 92.232V89.48C268.367 89.16 268.719 88.936 269.407 88.904V88.424ZM275.917 86.216C275.549 86.04 275.277 85.912 274.829 85.912C274.141 85.912 273.485 86.696 272.797 87.464L272.765 85.832H272.493L269.885 86.584V87.016C270.653 87.208 270.861 87.464 270.861 87.784V92.024C270.717 92.296 270.637 92.408 269.949 92.504V93H274.157V92.488C273.549 92.376 272.989 92.312 272.829 91.992V87.896C273.101 87.768 273.293 87.736 273.661 87.736C274.013 87.736 274.653 88.024 274.925 88.2H275.197L275.917 86.216ZM283.113 91.704C282.745 91.96 282.569 92.056 282.217 92.056C281.897 92.056 281.577 91.896 281.593 91.24L281.657 87.848C281.673 86.616 281.097 85.848 279.481 85.848C278.681 85.848 276.761 86.52 276.249 87.864V88.168L278.249 87.928C278.281 87.064 278.505 86.584 278.793 86.584C279.273 86.584 279.657 87.256 279.641 87.992L279.625 89.016L276.409 90.184C276.169 90.552 276.089 91.176 276.089 91.608C276.089 92.536 276.889 93.144 277.641 93.144C278.217 93.144 279.081 92.696 279.625 92.12C279.641 92.488 279.961 93.144 280.825 93.144C281.705 93.144 282.729 92.68 283.113 92.28V91.704ZM279.609 91.704C279.337 91.912 279.081 91.976 278.697 91.976C278.393 91.976 278.185 91.592 278.185 91.128C278.185 90.808 278.265 90.488 278.297 90.28C278.601 90.056 279.321 89.704 279.625 89.528L279.609 91.704ZM290.779 89.128C290.779 86.872 289.387 85.848 288.059 85.848C287.387 85.848 286.571 86.312 285.915 86.84V82.568L286.235 82.008V81.672H285.915L282.907 82.376V82.808C283.963 82.92 283.947 83.112 283.947 83.704L283.899 92.552C284.587 92.888 285.275 93.16 286.443 93.16C289.227 93.16 290.779 91.416 290.779 89.128ZM288.715 89.752C288.715 91.192 288.091 92.488 287.147 92.488C286.667 92.488 286.059 92.072 285.915 91.032V87.288C286.235 87.08 286.587 87.08 286.875 87.08C287.995 87.08 288.715 88.344 288.715 89.752ZM305.403 92.504C304.683 92.472 304.107 92.264 303.931 91.8C303.435 90.44 303.083 89.416 302.715 88.28C302.267 86.936 301.867 85.624 301.355 83.928C301.195 83.416 301.195 83.192 301.147 82.696H298.987C298.955 83 298.955 83.192 298.779 83.752C298.411 84.856 297.803 86.568 297.163 88.344C296.699 89.64 296.203 90.808 295.787 91.864C295.467 92.28 295.019 92.472 294.299 92.504V93H298.427V92.504C297.691 92.472 297.115 92.088 296.939 91.704L297.899 89.032H300.779L301.755 91.96C301.595 92.296 301.019 92.472 300.283 92.504V93H305.403V92.504ZM298.171 88.216L299.275 84.904L299.387 84.296L299.499 84.904L300.507 88.216H298.171ZM310.411 91.848C310.251 91.912 309.755 92.136 309.403 92.136C308.491 92.136 307.963 91.592 307.963 90.696C307.963 89.272 307.995 88.568 308.027 86.952L310.283 86.968V86.104H308.011L308.027 84.584H307.723L305.227 86.504V86.952H306.075C306.043 88.472 305.947 89.544 305.947 91.064C305.947 92.344 306.459 93.128 308.123 93.128C308.763 93.128 309.947 92.68 310.411 92.344V91.848ZM315.677 91.848C315.517 91.912 315.021 92.136 314.669 92.136C313.757 92.136 313.229 91.592 313.229 90.696C313.229 89.272 313.261 88.568 313.293 86.952L315.549 86.968V86.104H313.277L313.293 84.584H312.989L310.493 86.504V86.952H311.341C311.309 88.472 311.213 89.544 311.213 91.064C311.213 92.344 311.725 93.128 313.389 93.128C314.029 93.128 315.213 92.68 315.677 92.344V91.848ZM321.854 91.208C321.31 91.672 320.846 91.848 320.11 91.848C318.894 91.848 317.838 90.872 317.838 89.368C317.838 89.192 317.854 88.856 317.87 88.744L321.934 88.76V88.376C321.934 86.776 321.118 85.864 319.39 85.864C317.278 85.864 315.822 87.48 315.822 89.832C315.822 91.768 317.166 93.128 318.926 93.128C320.318 93.128 321.15 92.6 322.174 91.704L321.854 91.208ZM317.902 88.184C317.998 87.08 318.366 86.472 319.022 86.472C319.63 86.472 319.934 87.176 319.934 88.152L317.902 88.184ZM331.128 92.472C330.696 92.424 330.168 92.376 329.896 92.136V88.024C329.896 86.728 329.448 85.848 328.088 85.848C327.528 85.848 326.36 86.44 325.688 86.968V85.832H325.416L322.744 86.584V87.016C323.464 87.208 323.72 87.56 323.72 87.88V92.04C323.592 92.312 323.384 92.472 322.776 92.52V93H326.488V92.52C326.104 92.472 325.832 92.36 325.688 92.04V87.416C326.024 87.16 326.536 87.096 326.84 87.096C327.448 87.096 327.88 87.832 327.88 88.696V92.024C327.768 92.296 327.624 92.424 327.128 92.504V93H331.128V92.472ZM336.693 91.848C336.533 91.912 336.037 92.136 335.685 92.136C334.773 92.136 334.245 91.592 334.245 90.696C334.245 89.272 334.277 88.568 334.309 86.952L336.565 86.968V86.104H334.293L334.309 84.584H334.005L331.509 86.504V86.952H332.357C332.325 88.472 332.229 89.544 332.229 91.064C332.229 92.344 332.741 93.128 334.405 93.128C335.045 93.128 336.229 92.68 336.693 92.344V91.848ZM340.02 83.144C340.02 82.584 339.524 81.96 338.82 81.96C338.1 81.96 337.588 82.584 337.588 83.144C337.588 83.688 338.068 84.296 338.804 84.296C339.508 84.296 340.02 83.688 340.02 83.144ZM340.82 92.504C340.148 92.424 340.036 92.344 339.876 92.024V85.816H339.588L336.932 86.568V86.984C337.716 87.192 337.924 87.464 337.924 87.832L337.908 92.024C337.748 92.296 337.668 92.408 336.948 92.504V93H340.82V92.504ZM348.646 89.496C348.646 87.336 347.366 85.848 345.19 85.848C343.03 85.848 341.494 87.352 341.494 89.432C341.494 91.704 342.774 93.144 344.95 93.144C347.078 93.144 348.646 91.608 348.646 89.496ZM346.502 89.896C346.502 91.352 346.054 92.488 345.222 92.488C344.15 92.488 343.638 91.048 343.638 89.048C343.638 87.672 344.134 86.504 344.854 86.504C345.99 86.504 346.502 87.816 346.502 89.896ZM357.847 92.472C357.415 92.424 356.887 92.376 356.615 92.136V88.024C356.615 86.728 356.167 85.848 354.807 85.848C354.247 85.848 353.079 86.44 352.407 86.968V85.832H352.135L349.463 86.584V87.016C350.183 87.208 350.439 87.56 350.439 87.88V92.04C350.311 92.312 350.103 92.472 349.495 92.52V93H353.207V92.52C352.823 92.472 352.551 92.36 352.407 92.04V87.416C352.743 87.16 353.255 87.096 353.559 87.096C354.167 87.096 354.599 87.832 354.599 88.696V92.024C354.487 92.296 354.343 92.424 353.847 92.504V93H357.847V92.472Z" fill="white"/>
<path d="M170.799 105.4V106.096H168.599V111H167.831V106.096H165.639V105.4H170.799ZM173.702 107.568C173.494 107.568 173.297 107.624 173.11 107.736C172.929 107.843 172.718 108.027 172.478 108.288V111H171.758V105.192L172.478 104.928V107.752C172.707 107.459 172.934 107.248 173.158 107.12C173.382 106.987 173.63 106.92 173.902 106.92C174.323 106.92 174.662 107.061 174.918 107.344C175.179 107.627 175.31 108.005 175.31 108.48V111H174.59V108.552C174.59 108.243 174.51 108.003 174.35 107.832C174.195 107.656 173.979 107.568 173.702 107.568ZM179.906 109.944L179.642 110.736C179.408 110.864 179.189 110.955 178.986 111.008C178.784 111.061 178.562 111.088 178.322 111.088C177.688 111.088 177.184 110.899 176.81 110.52C176.437 110.141 176.25 109.635 176.25 109C176.25 108.413 176.437 107.915 176.81 107.504C177.184 107.093 177.648 106.888 178.202 106.888C178.757 106.888 179.2 107.083 179.53 107.472C179.861 107.856 180.026 108.352 180.026 108.96C180.026 109.013 180.024 109.072 180.018 109.136C180.013 109.2 180.008 109.248 180.002 109.28H176.994C177.048 109.643 177.197 109.925 177.442 110.128C177.693 110.331 178.013 110.432 178.402 110.432C178.637 110.432 178.882 110.389 179.138 110.304C179.4 110.213 179.65 110.091 179.89 109.936L179.906 109.944ZM178.178 107.52C177.853 107.52 177.578 107.635 177.354 107.864C177.136 108.093 177.01 108.387 176.978 108.744H179.298C179.266 108.36 179.152 108.061 178.954 107.848C178.757 107.629 178.498 107.52 178.178 107.52ZM186.014 109.808L185.886 110.64C185.667 110.789 185.44 110.904 185.206 110.984C184.971 111.059 184.734 111.096 184.494 111.096C183.891 111.096 183.4 110.901 183.022 110.512C182.643 110.123 182.454 109.621 182.454 109.008C182.454 108.411 182.654 107.912 183.054 107.512C183.459 107.107 183.968 106.904 184.582 106.904C184.848 106.904 185.091 106.944 185.31 107.024C185.528 107.099 185.734 107.219 185.926 107.384V108.272H185.91C185.67 108.027 185.44 107.848 185.222 107.736C185.008 107.624 184.79 107.568 184.566 107.568C184.176 107.568 183.851 107.707 183.59 107.984C183.328 108.261 183.198 108.6 183.198 109C183.198 109.416 183.32 109.76 183.566 110.032C183.816 110.299 184.136 110.432 184.526 110.432C184.76 110.432 185.008 110.376 185.27 110.264C185.531 110.147 185.774 109.992 185.998 109.8L186.014 109.808ZM190.35 108.568V110.904L189.63 111.064V110.352C189.331 110.592 189.049 110.771 188.782 110.888C188.521 111.005 188.265 111.064 188.014 111.064C187.662 111.064 187.377 110.968 187.158 110.776C186.939 110.579 186.83 110.317 186.83 109.992C186.83 109.533 187.059 109.195 187.518 108.976C187.977 108.752 188.681 108.635 189.63 108.624V108.608C189.63 108.277 189.55 108.027 189.39 107.856C189.235 107.68 189.009 107.592 188.71 107.592C188.486 107.592 188.254 107.64 188.014 107.736C187.779 107.832 187.537 107.976 187.286 108.168L187.27 108.16L187.422 107.352C187.635 107.208 187.857 107.101 188.086 107.032C188.321 106.963 188.566 106.928 188.822 106.928C189.313 106.928 189.689 107.069 189.95 107.352C190.217 107.635 190.35 108.04 190.35 108.568ZM187.558 109.96C187.558 110.109 187.611 110.229 187.718 110.32C187.825 110.405 187.971 110.448 188.158 110.448C188.345 110.448 188.558 110.403 188.798 110.312C189.038 110.221 189.315 110.08 189.63 109.888V109.088C188.937 109.131 188.417 109.224 188.07 109.368C187.729 109.507 187.558 109.704 187.558 109.96ZM192.393 111H191.673V105.192L192.393 104.928V111ZM194.549 111H193.829V105.192L194.549 104.928V111ZM197.714 111.112C197.1 111.112 196.596 110.909 196.202 110.504C195.807 110.093 195.61 109.595 195.61 109.008C195.61 108.427 195.812 107.928 196.218 107.512C196.623 107.096 197.127 106.888 197.73 106.888C198.348 106.888 198.852 107.091 199.242 107.496C199.636 107.896 199.834 108.392 199.834 108.984C199.834 109.571 199.631 110.072 199.226 110.488C198.826 110.904 198.322 111.112 197.714 111.112ZM199.098 108.984C199.098 108.568 198.967 108.224 198.706 107.952C198.45 107.675 198.124 107.536 197.73 107.536C197.33 107.536 196.999 107.677 196.738 107.96C196.482 108.237 196.354 108.587 196.354 109.008C196.354 109.424 196.482 109.771 196.738 110.048C196.999 110.325 197.324 110.464 197.714 110.464C198.114 110.464 198.444 110.323 198.706 110.04C198.967 109.757 199.098 109.405 199.098 108.984ZM204.34 111H203.612V110.248C203.382 110.541 203.156 110.755 202.932 110.888C202.708 111.016 202.46 111.08 202.188 111.08C201.766 111.08 201.425 110.939 201.164 110.656C200.908 110.373 200.78 109.995 200.78 109.52V107H201.508V109.448C201.508 109.757 201.585 110 201.74 110.176C201.9 110.347 202.118 110.432 202.396 110.432C202.598 110.432 202.79 110.379 202.972 110.272C203.158 110.16 203.372 109.973 203.612 109.712V107H204.34V111ZM208.256 110.04L208.096 110.808C207.978 110.893 207.84 110.96 207.68 111.008C207.52 111.061 207.354 111.088 207.184 111.088C206.805 111.088 206.506 110.971 206.288 110.736C206.069 110.501 205.96 110.173 205.96 109.752V107.616H205.28V107H205.96V106.104L206.672 105.84V107H208.24V107.616H206.672V109.72C206.672 109.96 206.728 110.141 206.84 110.264C206.952 110.381 207.117 110.44 207.336 110.44C207.485 110.44 207.634 110.408 207.784 110.344C207.933 110.275 208.085 110.171 208.24 110.032L208.256 110.04ZM213.121 106.92C213.617 106.92 214.033 107.109 214.369 107.488C214.71 107.861 214.881 108.328 214.881 108.888C214.881 109.523 214.67 110.045 214.249 110.456C213.827 110.861 213.305 111.064 212.681 111.064C212.499 111.064 212.321 111.045 212.145 111.008C211.969 110.971 211.787 110.912 211.601 110.832L211.081 111H210.993V105.192L211.713 104.928V107.584C211.947 107.349 212.177 107.181 212.401 107.08C212.625 106.973 212.865 106.92 213.121 106.92ZM214.145 108.936C214.145 108.531 214.027 108.203 213.793 107.952C213.563 107.696 213.267 107.568 212.905 107.568C212.697 107.568 212.499 107.608 212.312 107.688C212.126 107.768 211.926 107.896 211.713 108.072V110.232C211.873 110.296 212.03 110.344 212.185 110.376C212.339 110.408 212.499 110.424 212.664 110.424C213.091 110.424 213.443 110.283 213.721 110C214.003 109.717 214.145 109.363 214.145 108.936ZM216.682 111H215.962V105.192L216.682 104.928V111ZM219.846 111.112C219.233 111.112 218.729 110.909 218.334 110.504C217.94 110.093 217.742 109.595 217.742 109.008C217.742 108.427 217.945 107.928 218.35 107.512C218.756 107.096 219.26 106.888 219.862 106.888C220.481 106.888 220.985 107.091 221.374 107.496C221.769 107.896 221.966 108.392 221.966 108.984C221.966 109.571 221.764 110.072 221.358 110.488C220.958 110.904 220.454 111.112 219.846 111.112ZM221.23 108.984C221.23 108.568 221.1 108.224 220.838 107.952C220.582 107.675 220.257 107.536 219.862 107.536C219.462 107.536 219.132 107.677 218.87 107.96C218.614 108.237 218.486 108.587 218.486 109.008C218.486 109.424 218.614 109.771 218.87 110.048C219.132 110.325 219.457 110.464 219.846 110.464C220.246 110.464 220.577 110.323 220.838 110.04C221.1 109.757 221.23 109.405 221.23 108.984ZM226.225 109.808L226.097 110.64C225.878 110.789 225.651 110.904 225.417 110.984C225.182 111.059 224.945 111.096 224.705 111.096C224.102 111.096 223.611 110.901 223.233 110.512C222.854 110.123 222.665 109.621 222.665 109.008C222.665 108.411 222.865 107.912 223.265 107.512C223.67 107.107 224.179 106.904 224.793 106.904C225.059 106.904 225.302 106.944 225.521 107.024C225.739 107.099 225.945 107.219 226.137 107.384V108.272H226.121C225.881 108.027 225.651 107.848 225.433 107.736C225.219 107.624 225.001 107.568 224.777 107.568C224.387 107.568 224.062 107.707 223.801 107.984C223.539 108.261 223.409 108.6 223.409 109C223.409 109.416 223.531 109.76 223.777 110.032C224.027 110.299 224.347 110.432 224.737 110.432C224.971 110.432 225.219 110.376 225.481 110.264C225.742 110.147 225.985 109.992 226.209 109.8L226.225 109.808ZM230.969 111H230.017L228.257 109.24H228.025V111H227.305V105.192L228.025 104.928V108.696H228.249L229.921 107H230.833V107.016L228.873 108.944L230.969 110.984V111ZM233.838 105.072C233.976 105.072 234.094 105.12 234.19 105.216C234.286 105.312 234.334 105.429 234.334 105.568C234.334 105.707 234.286 105.824 234.19 105.92C234.094 106.016 233.976 106.064 233.838 106.064C233.699 106.064 233.582 106.016 233.486 105.92C233.39 105.824 233.342 105.707 233.342 105.568C233.342 105.429 233.39 105.312 233.486 105.216C233.582 105.12 233.699 105.072 233.838 105.072ZM234.198 111H233.478V107H234.198V111ZM237.162 108.664C237.69 108.787 238.055 108.941 238.258 109.128C238.466 109.315 238.57 109.571 238.57 109.896C238.57 110.243 238.418 110.528 238.114 110.752C237.815 110.976 237.431 111.088 236.962 111.088C236.679 111.088 236.41 111.048 236.154 110.968C235.898 110.888 235.645 110.765 235.394 110.6L235.242 109.728L235.258 109.72C235.557 109.955 235.858 110.133 236.162 110.256C236.466 110.379 236.759 110.44 237.042 110.44C237.282 110.44 237.479 110.395 237.634 110.304C237.794 110.208 237.874 110.085 237.874 109.936C237.874 109.776 237.799 109.651 237.65 109.56C237.506 109.469 237.218 109.373 236.786 109.272C236.269 109.149 235.909 108.997 235.706 108.816C235.503 108.635 235.402 108.397 235.402 108.104C235.402 107.752 235.546 107.467 235.834 107.248C236.127 107.024 236.503 106.912 236.962 106.912C237.186 106.912 237.41 106.944 237.634 107.008C237.858 107.072 238.071 107.163 238.274 107.28V108.048H238.258C238.007 107.888 237.765 107.768 237.53 107.688C237.301 107.603 237.085 107.56 236.882 107.56C236.642 107.56 236.45 107.603 236.306 107.688C236.167 107.773 236.098 107.885 236.098 108.024C236.098 108.173 236.17 108.293 236.314 108.384C236.458 108.469 236.741 108.563 237.162 108.664ZM244.608 108.568V110.904L243.888 111.064V110.352C243.589 110.592 243.307 110.771 243.04 110.888C242.779 111.005 242.523 111.064 242.272 111.064C241.92 111.064 241.635 110.968 241.416 110.776C241.197 110.579 241.088 110.317 241.088 109.992C241.088 109.533 241.317 109.195 241.776 108.976C242.235 108.752 242.939 108.635 243.888 108.624V108.608C243.888 108.277 243.808 108.027 243.648 107.856C243.493 107.68 243.267 107.592 242.968 107.592C242.744 107.592 242.512 107.64 242.272 107.736C242.037 107.832 241.795 107.976 241.544 108.168L241.528 108.16L241.68 107.352C241.893 107.208 242.115 107.101 242.344 107.032C242.579 106.963 242.824 106.928 243.08 106.928C243.571 106.928 243.947 107.069 244.208 107.352C244.475 107.635 244.608 108.04 244.608 108.568ZM241.816 109.96C241.816 110.109 241.869 110.229 241.976 110.32C242.083 110.405 242.229 110.448 242.416 110.448C242.603 110.448 242.816 110.403 243.056 110.312C243.296 110.221 243.573 110.08 243.888 109.888V109.088C243.195 109.131 242.675 109.224 242.328 109.368C241.987 109.507 241.816 109.704 241.816 109.96ZM251.226 111H250.498V110.424C250.268 110.653 250.044 110.821 249.826 110.928C249.612 111.029 249.375 111.08 249.114 111.08C248.602 111.08 248.17 110.891 247.818 110.512C247.466 110.128 247.29 109.651 247.29 109.08C247.29 108.467 247.487 107.957 247.882 107.552C248.276 107.141 248.751 106.936 249.306 106.936C249.514 106.936 249.714 106.971 249.906 107.04C250.103 107.104 250.3 107.208 250.498 107.352V105.192L251.226 104.928V111ZM249.426 107.576C249.026 107.576 248.692 107.712 248.426 107.984C248.164 108.256 248.034 108.603 248.034 109.024C248.034 109.435 248.154 109.773 248.394 110.04C248.639 110.301 248.943 110.432 249.306 110.432C249.514 110.432 249.711 110.392 249.898 110.312C250.084 110.232 250.284 110.104 250.498 109.928V107.912C250.311 107.795 250.132 107.709 249.962 107.656C249.791 107.603 249.612 107.576 249.426 107.576ZM255.898 109.944L255.634 110.736C255.4 110.864 255.181 110.955 254.978 111.008C254.776 111.061 254.554 111.088 254.314 111.088C253.68 111.088 253.176 110.899 252.802 110.52C252.429 110.141 252.242 109.635 252.242 109C252.242 108.413 252.429 107.915 252.802 107.504C253.176 107.093 253.64 106.888 254.194 106.888C254.749 106.888 255.192 107.083 255.522 107.472C255.853 107.856 256.018 108.352 256.018 108.96C256.018 109.013 256.016 109.072 256.01 109.136C256.005 109.2 256 109.248 255.994 109.28H252.986C253.04 109.643 253.189 109.925 253.434 110.128C253.685 110.331 254.005 110.432 254.394 110.432C254.629 110.432 254.874 110.389 255.13 110.304C255.392 110.213 255.642 110.091 255.882 109.936L255.898 109.944ZM254.17 107.52C253.845 107.52 253.57 107.635 253.346 107.864C253.128 108.093 253.002 108.387 252.97 108.744H255.29C255.258 108.36 255.144 108.061 254.946 107.848C254.749 107.629 254.49 107.52 254.17 107.52ZM258.615 108.664C259.143 108.787 259.509 108.941 259.711 109.128C259.919 109.315 260.023 109.571 260.023 109.896C260.023 110.243 259.871 110.528 259.567 110.752C259.269 110.976 258.885 111.088 258.415 111.088C258.133 111.088 257.863 111.048 257.607 110.968C257.351 110.888 257.098 110.765 256.847 110.6L256.695 109.728L256.711 109.72C257.01 109.955 257.311 110.133 257.615 110.256C257.919 110.379 258.213 110.44 258.495 110.44C258.735 110.44 258.933 110.395 259.087 110.304C259.247 110.208 259.327 110.085 259.327 109.936C259.327 109.776 259.253 109.651 259.103 109.56C258.959 109.469 258.671 109.373 258.239 109.272C257.722 109.149 257.362 108.997 257.159 108.816C256.957 108.635 256.855 108.397 256.855 108.104C256.855 107.752 256.999 107.467 257.287 107.248C257.581 107.024 257.957 106.912 258.415 106.912C258.639 106.912 258.863 106.944 259.087 107.008C259.311 107.072 259.525 107.163 259.727 107.28V108.048H259.711C259.461 107.888 259.218 107.768 258.983 107.688C258.754 107.603 258.538 107.56 258.335 107.56C258.095 107.56 257.903 107.603 257.759 107.688C257.621 107.773 257.551 107.885 257.551 108.024C257.551 108.173 257.623 108.293 257.767 108.384C257.911 108.469 258.194 108.563 258.615 108.664ZM261.478 105.072C261.617 105.072 261.734 105.12 261.83 105.216C261.926 105.312 261.974 105.429 261.974 105.568C261.974 105.707 261.926 105.824 261.83 105.92C261.734 106.016 261.617 106.064 261.478 106.064C261.34 106.064 261.222 106.016 261.126 105.92C261.03 105.824 260.982 105.707 260.982 105.568C260.982 105.429 261.03 105.312 261.126 105.216C261.222 105.12 261.34 105.072 261.478 105.072ZM261.838 111H261.118V107H261.838V111ZM266.843 107V110.616C266.843 111.224 266.656 111.701 266.283 112.048C265.915 112.395 265.411 112.568 264.771 112.568C264.499 112.568 264.235 112.539 263.979 112.48C263.723 112.421 263.464 112.328 263.203 112.2L263.051 111.392L263.067 111.384C263.387 111.565 263.683 111.696 263.955 111.776C264.232 111.861 264.515 111.904 264.803 111.904C265.197 111.904 265.515 111.787 265.755 111.552C265.995 111.323 266.115 111.011 266.115 110.616V110.256C265.875 110.491 265.64 110.661 265.411 110.768C265.181 110.869 264.936 110.92 264.675 110.92C264.163 110.92 263.739 110.741 263.403 110.384C263.072 110.027 262.907 109.573 262.907 109.024C262.907 108.416 263.117 107.917 263.539 107.528C263.965 107.133 264.488 106.936 265.107 106.936C265.288 106.936 265.467 106.955 265.643 106.992C265.819 107.029 266.008 107.091 266.211 107.176L266.747 107H266.843ZM265.123 107.552C264.701 107.552 264.349 107.688 264.067 107.96C263.789 108.232 263.651 108.573 263.651 108.984C263.651 109.373 263.765 109.688 263.995 109.928C264.224 110.168 264.523 110.288 264.891 110.288C265.093 110.288 265.291 110.248 265.483 110.168C265.68 110.083 265.891 109.947 266.115 109.76V107.776C265.939 107.701 265.771 107.645 265.611 107.608C265.451 107.571 265.288 107.552 265.123 107.552ZM270.14 107.568C269.932 107.568 269.734 107.624 269.548 107.736C269.366 107.843 269.156 108.027 268.916 108.288V111H268.196V107.096L268.916 106.936V107.752C269.145 107.459 269.372 107.248 269.596 107.12C269.82 106.987 270.068 106.92 270.34 106.92C270.761 106.92 271.1 107.061 271.356 107.344C271.617 107.627 271.748 108.005 271.748 108.48V111H271.028V108.552C271.028 108.243 270.948 108.003 270.788 107.832C270.633 107.656 270.417 107.568 270.14 107.568ZM278.07 109.944L277.806 110.736C277.572 110.864 277.353 110.955 277.15 111.008C276.948 111.061 276.726 111.088 276.486 111.088C275.852 111.088 275.348 110.899 274.974 110.52C274.601 110.141 274.414 109.635 274.414 109C274.414 108.413 274.601 107.915 274.974 107.504C275.348 107.093 275.812 106.888 276.366 106.888C276.921 106.888 277.364 107.083 277.694 107.472C278.025 107.856 278.19 108.352 278.19 108.96C278.19 109.013 278.188 109.072 278.182 109.136C278.177 109.2 278.172 109.248 278.166 109.28H275.158C275.212 109.643 275.361 109.925 275.606 110.128C275.857 110.331 276.177 110.432 276.566 110.432C276.801 110.432 277.046 110.389 277.302 110.304C277.564 110.213 277.814 110.091 278.054 109.936L278.07 109.944ZM276.342 107.52C276.017 107.52 275.742 107.635 275.518 107.864C275.3 108.093 275.174 108.387 275.142 108.744H277.462C277.43 108.36 277.316 108.061 277.118 107.848C276.921 107.629 276.662 107.52 276.342 107.52ZM279.979 111H279.259V105.192L279.979 104.928V111ZM284.695 109.944L284.431 110.736C284.197 110.864 283.978 110.955 283.775 111.008C283.573 111.061 283.351 111.088 283.111 111.088C282.477 111.088 281.973 110.899 281.599 110.52C281.226 110.141 281.039 109.635 281.039 109C281.039 108.413 281.226 107.915 281.599 107.504C281.973 107.093 282.437 106.888 282.991 106.888C283.546 106.888 283.989 107.083 284.319 107.472C284.65 107.856 284.815 108.352 284.815 108.96C284.815 109.013 284.813 109.072 284.807 109.136C284.802 109.2 284.797 109.248 284.791 109.28H281.783C281.837 109.643 281.986 109.925 282.231 110.128C282.482 110.331 282.802 110.432 283.191 110.432C283.426 110.432 283.671 110.389 283.927 110.304C284.189 110.213 284.439 110.091 284.679 109.936L284.695 109.944ZM282.967 107.52C282.642 107.52 282.367 107.635 282.143 107.864C281.925 108.093 281.799 108.387 281.767 108.744H284.087C284.055 108.36 283.941 108.061 283.743 107.848C283.546 107.629 283.287 107.52 282.967 107.52ZM287.684 107.568C287.497 107.568 287.319 107.621 287.148 107.728C286.983 107.829 286.788 108.005 286.564 108.256V111H285.844V107.096L286.564 106.936V107.72C286.777 107.437 286.991 107.235 287.204 107.112C287.417 106.984 287.649 106.92 287.9 106.92C288.193 106.92 288.447 106.997 288.66 107.152C288.879 107.307 289.039 107.525 289.14 107.808C289.375 107.493 289.604 107.267 289.828 107.128C290.052 106.989 290.303 106.92 290.58 106.92C290.985 106.92 291.311 107.061 291.556 107.344C291.807 107.627 291.932 108.005 291.932 108.48V111H291.204V108.552C291.204 108.243 291.129 108.003 290.98 107.832C290.831 107.656 290.625 107.568 290.364 107.568C290.177 107.568 289.996 107.621 289.82 107.728C289.649 107.835 289.455 108.013 289.236 108.264C289.241 108.285 289.244 108.312 289.244 108.344C289.244 108.371 289.244 108.416 289.244 108.48V111H288.524V108.552C288.524 108.243 288.449 108.003 288.3 107.832C288.151 107.656 287.945 107.568 287.684 107.568ZM296.531 109.944L296.267 110.736C296.033 110.864 295.814 110.955 295.611 111.008C295.409 111.061 295.187 111.088 294.947 111.088C294.313 111.088 293.809 110.899 293.435 110.52C293.062 110.141 292.875 109.635 292.875 109C292.875 108.413 293.062 107.915 293.435 107.504C293.809 107.093 294.273 106.888 294.827 106.888C295.382 106.888 295.825 107.083 296.155 107.472C296.486 107.856 296.651 108.352 296.651 108.96C296.651 109.013 296.649 109.072 296.643 109.136C296.638 109.2 296.633 109.248 296.627 109.28H293.619C293.673 109.643 293.822 109.925 294.067 110.128C294.318 110.331 294.638 110.432 295.027 110.432C295.262 110.432 295.507 110.389 295.763 110.304C296.025 110.213 296.275 110.091 296.515 109.936L296.531 109.944ZM294.803 107.52C294.478 107.52 294.203 107.635 293.979 107.864C293.761 108.093 293.635 108.387 293.603 108.744H295.923C295.891 108.36 295.777 108.061 295.579 107.848C295.382 107.629 295.123 107.52 294.803 107.52ZM299.624 107.568C299.416 107.568 299.219 107.624 299.032 107.736C298.851 107.843 298.64 108.027 298.4 108.288V111H297.68V107.096L298.4 106.936V107.752C298.629 107.459 298.856 107.248 299.08 107.12C299.304 106.987 299.552 106.92 299.824 106.92C300.245 106.92 300.584 107.061 300.84 107.344C301.101 107.627 301.232 108.005 301.232 108.48V111H300.512V108.552C300.512 108.243 300.432 108.003 300.272 107.832C300.117 107.656 299.901 107.568 299.624 107.568ZM305.076 110.04L304.916 110.808C304.799 110.893 304.66 110.96 304.5 111.008C304.34 111.061 304.175 111.088 304.004 111.088C303.625 111.088 303.327 110.971 303.108 110.736C302.889 110.501 302.78 110.173 302.78 109.752V107.616H302.1V107H302.78V106.104L303.492 105.84V107H305.06V107.616H303.492V109.72C303.492 109.96 303.548 110.141 303.66 110.264C303.772 110.381 303.937 110.44 304.156 110.44C304.305 110.44 304.455 110.408 304.604 110.344C304.753 110.275 304.905 110.171 305.06 110.032L305.076 110.04ZM311.293 111H310.565V110.248C310.335 110.541 310.109 110.755 309.885 110.888C309.661 111.016 309.413 111.08 309.141 111.08C308.719 111.08 308.378 110.939 308.117 110.656C307.861 110.373 307.733 109.995 307.733 109.52V107H308.461V109.448C308.461 109.757 308.538 110 308.693 110.176C308.853 110.347 309.071 110.432 309.349 110.432C309.551 110.432 309.743 110.379 309.925 110.272C310.111 110.16 310.325 109.973 310.565 109.712V107H311.293V111ZM314.209 108.664C314.737 108.787 315.102 108.941 315.305 109.128C315.513 109.315 315.617 109.571 315.617 109.896C315.617 110.243 315.465 110.528 315.161 110.752C314.862 110.976 314.478 111.088 314.009 111.088C313.726 111.088 313.457 111.048 313.201 110.968C312.945 110.888 312.692 110.765 312.441 110.6L312.289 109.728L312.305 109.72C312.604 109.955 312.905 110.133 313.209 110.256C313.513 110.379 313.806 110.44 314.089 110.44C314.329 110.44 314.526 110.395 314.681 110.304C314.841 110.208 314.921 110.085 314.921 109.936C314.921 109.776 314.846 109.651 314.697 109.56C314.553 109.469 314.265 109.373 313.833 109.272C313.316 109.149 312.956 108.997 312.753 108.816C312.55 108.635 312.449 108.397 312.449 108.104C312.449 107.752 312.593 107.467 312.881 107.248C313.174 107.024 313.55 106.912 314.009 106.912C314.233 106.912 314.457 106.944 314.681 107.008C314.905 107.072 315.118 107.163 315.321 107.28V108.048H315.305C315.054 107.888 314.812 107.768 314.577 107.688C314.348 107.603 314.132 107.56 313.929 107.56C313.689 107.56 313.497 107.603 313.353 107.688C313.214 107.773 313.145 107.885 313.145 108.024C313.145 108.173 313.217 108.293 313.361 108.384C313.505 108.469 313.788 108.563 314.209 108.664ZM319.992 109.944L319.728 110.736C319.494 110.864 319.275 110.955 319.072 111.008C318.87 111.061 318.648 111.088 318.408 111.088C317.774 111.088 317.27 110.899 316.896 110.52C316.523 110.141 316.336 109.635 316.336 109C316.336 108.413 316.523 107.915 316.896 107.504C317.27 107.093 317.734 106.888 318.288 106.888C318.843 106.888 319.286 107.083 319.616 107.472C319.947 107.856 320.112 108.352 320.112 108.96C320.112 109.013 320.11 109.072 320.104 109.136C320.099 109.2 320.094 109.248 320.088 109.28H317.08C317.134 109.643 317.283 109.925 317.528 110.128C317.779 110.331 318.099 110.432 318.488 110.432C318.723 110.432 318.968 110.389 319.224 110.304C319.486 110.213 319.736 110.091 319.976 109.936L319.992 109.944ZM318.264 107.52C317.939 107.52 317.664 107.635 317.44 107.864C317.222 108.093 317.096 108.387 317.064 108.744H319.384C319.352 108.36 319.238 108.061 319.04 107.848C318.843 107.629 318.584 107.52 318.264 107.52ZM324.749 111H324.021V110.424C323.792 110.653 323.568 110.821 323.349 110.928C323.136 111.029 322.898 111.08 322.637 111.08C322.125 111.08 321.693 110.891 321.341 110.512C320.989 110.128 320.813 109.651 320.813 109.08C320.813 108.467 321.01 107.957 321.405 107.552C321.8 107.141 322.274 106.936 322.829 106.936C323.037 106.936 323.237 106.971 323.429 107.04C323.626 107.104 323.824 107.208 324.021 107.352V105.192L324.749 104.928V111ZM322.949 107.576C322.549 107.576 322.216 107.712 321.949 107.984C321.688 108.256 321.557 108.603 321.557 109.024C321.557 109.435 321.677 109.773 321.917 110.04C322.162 110.301 322.466 110.432 322.829 110.432C323.037 110.432 323.234 110.392 323.421 110.312C323.608 110.232 323.808 110.104 324.021 109.928V107.912C323.834 107.795 323.656 107.709 323.485 107.656C323.314 107.603 323.136 107.576 322.949 107.576ZM330.396 110.04L330.236 110.808C330.119 110.893 329.98 110.96 329.82 111.008C329.66 111.061 329.495 111.088 329.324 111.088C328.946 111.088 328.647 110.971 328.428 110.736C328.21 110.501 328.1 110.173 328.1 109.752V107.616H327.42V107H328.1V106.104L328.812 105.84V107H330.38V107.616H328.812V109.72C328.812 109.96 328.868 110.141 328.98 110.264C329.092 110.381 329.258 110.44 329.476 110.44C329.626 110.44 329.775 110.408 329.924 110.344C330.074 110.275 330.226 110.171 330.38 110.032L330.396 110.04ZM333.175 111.112C332.561 111.112 332.057 110.909 331.663 110.504C331.268 110.093 331.071 109.595 331.071 109.008C331.071 108.427 331.273 107.928 331.679 107.512C332.084 107.096 332.588 106.888 333.191 106.888C333.809 106.888 334.313 107.091 334.703 107.496C335.097 107.896 335.295 108.392 335.295 108.984C335.295 109.571 335.092 110.072 334.687 110.488C334.287 110.904 333.783 111.112 333.175 111.112ZM334.559 108.984C334.559 108.568 334.428 108.224 334.167 107.952C333.911 107.675 333.585 107.536 333.191 107.536C332.791 107.536 332.46 107.677 332.199 107.96C331.943 108.237 331.815 108.587 331.815 109.008C331.815 109.424 331.943 109.771 332.199 110.048C332.46 110.325 332.785 110.464 333.175 110.464C333.575 110.464 333.905 110.323 334.167 110.04C334.428 109.757 334.559 109.405 334.559 108.984ZM156.999 119.568C156.791 119.568 156.594 119.624 156.407 119.736C156.226 119.843 156.015 120.027 155.775 120.288V123H155.055V117.192L155.775 116.928V119.752C156.004 119.459 156.231 119.248 156.455 119.12C156.679 118.987 156.927 118.92 157.199 118.92C157.62 118.92 157.959 119.061 158.215 119.344C158.476 119.627 158.607 120.005 158.607 120.48V123H157.887V120.552C157.887 120.243 157.807 120.003 157.647 119.832C157.492 119.656 157.276 119.568 156.999 119.568ZM160.283 117.072C160.422 117.072 160.539 117.12 160.635 117.216C160.731 117.312 160.779 117.429 160.779 117.568C160.779 117.707 160.731 117.824 160.635 117.92C160.539 118.016 160.422 118.064 160.283 118.064C160.144 118.064 160.027 118.016 159.931 117.92C159.835 117.824 159.787 117.707 159.787 117.568C159.787 117.429 159.835 117.312 159.931 117.216C160.027 117.12 160.144 117.072 160.283 117.072ZM160.643 123H159.923V119H160.643V123ZM165.647 119V122.616C165.647 123.224 165.461 123.701 165.087 124.048C164.719 124.395 164.215 124.568 163.575 124.568C163.303 124.568 163.039 124.539 162.783 124.48C162.527 124.421 162.269 124.328 162.007 124.2L161.855 123.392L161.871 123.384C162.191 123.565 162.487 123.696 162.759 123.776C163.037 123.861 163.319 123.904 163.607 123.904C164.002 123.904 164.319 123.787 164.559 123.552C164.799 123.323 164.919 123.011 164.919 122.616V122.256C164.679 122.491 164.445 122.661 164.215 122.768C163.986 122.869 163.741 122.92 163.479 122.92C162.967 122.92 162.543 122.741 162.207 122.384C161.877 122.027 161.711 121.573 161.711 121.024C161.711 120.416 161.922 119.917 162.343 119.528C162.77 119.133 163.293 118.936 163.911 118.936C164.093 118.936 164.271 118.955 164.447 118.992C164.623 119.029 164.813 119.091 165.015 119.176L165.551 119H165.647ZM163.927 119.552C163.506 119.552 163.154 119.688 162.871 119.96C162.594 120.232 162.455 120.573 162.455 120.984C162.455 121.373 162.57 121.688 162.799 121.928C163.029 122.168 163.327 122.288 163.695 122.288C163.898 122.288 164.095 122.248 164.287 122.168C164.485 122.083 164.695 121.947 164.919 121.76V119.776C164.743 119.701 164.575 119.645 164.415 119.608C164.255 119.571 164.093 119.552 163.927 119.552ZM168.944 119.568C168.736 119.568 168.539 119.624 168.352 119.736C168.171 119.843 167.96 120.027 167.72 120.288V123H167V117.192L167.72 116.928V119.752C167.95 119.459 168.176 119.248 168.4 119.12C168.624 118.987 168.872 118.92 169.144 118.92C169.566 118.92 169.904 119.061 170.16 119.344C170.422 119.627 170.552 120.005 170.552 120.48V123H169.832V120.552C169.832 120.243 169.752 120.003 169.592 119.832C169.438 119.656 169.222 119.568 168.944 119.568ZM172.588 123H171.868V117.192L172.588 116.928V123ZM174.385 117.072C174.523 117.072 174.641 117.12 174.737 117.216C174.833 117.312 174.881 117.429 174.881 117.568C174.881 117.707 174.833 117.824 174.737 117.92C174.641 118.016 174.523 118.064 174.385 118.064C174.246 118.064 174.129 118.016 174.033 117.92C173.937 117.824 173.889 117.707 173.889 117.568C173.889 117.429 173.937 117.312 174.033 117.216C174.129 117.12 174.246 117.072 174.385 117.072ZM174.745 123H174.025V119H174.745V123ZM179.749 119V122.616C179.749 123.224 179.562 123.701 179.189 124.048C178.821 124.395 178.317 124.568 177.677 124.568C177.405 124.568 177.141 124.539 176.885 124.48C176.629 124.421 176.37 124.328 176.109 124.2L175.957 123.392L175.973 123.384C176.293 123.565 176.589 123.696 176.861 123.776C177.138 123.861 177.421 123.904 177.709 123.904C178.104 123.904 178.421 123.787 178.661 123.552C178.901 123.323 179.021 123.011 179.021 122.616V122.256C178.781 122.491 178.546 122.661 178.317 122.768C178.088 122.869 177.842 122.92 177.581 122.92C177.069 122.92 176.645 122.741 176.309 122.384C175.978 122.027 175.813 121.573 175.813 121.024C175.813 120.416 176.024 119.917 176.445 119.528C176.872 119.133 177.394 118.936 178.013 118.936C178.194 118.936 178.373 118.955 178.549 118.992C178.725 119.029 178.914 119.091 179.117 119.176L179.653 119H179.749ZM178.029 119.552C177.608 119.552 177.256 119.688 176.973 119.96C176.696 120.232 176.557 120.573 176.557 120.984C176.557 121.373 176.672 121.688 176.901 121.928C177.13 122.168 177.429 122.288 177.797 122.288C178 122.288 178.197 122.248 178.389 122.168C178.586 122.083 178.797 121.947 179.021 121.76V119.776C178.845 119.701 178.677 119.645 178.517 119.608C178.357 119.571 178.194 119.552 178.029 119.552ZM183.046 119.568C182.838 119.568 182.641 119.624 182.454 119.736C182.273 119.843 182.062 120.027 181.822 120.288V123H181.102V117.192L181.822 116.928V119.752C182.051 119.459 182.278 119.248 182.502 119.12C182.726 118.987 182.974 118.92 183.246 118.92C183.667 118.92 184.006 119.061 184.262 119.344C184.523 119.627 184.654 120.005 184.654 120.48V123H183.934V120.552C183.934 120.243 183.854 120.003 183.694 119.832C183.539 119.656 183.323 119.568 183.046 119.568ZM188.498 122.04L188.338 122.808C188.221 122.893 188.082 122.96 187.922 123.008C187.762 123.061 187.597 123.088 187.426 123.088C187.047 123.088 186.749 122.971 186.53 122.736C186.311 122.501 186.202 122.173 186.202 121.752V119.616H185.522V119H186.202V118.104L186.914 117.84V119H188.482V119.616H186.914V121.72C186.914 121.96 186.97 122.141 187.082 122.264C187.194 122.381 187.359 122.44 187.578 122.44C187.727 122.44 187.877 122.408 188.026 122.344C188.175 122.275 188.327 122.171 188.482 122.032L188.498 122.04ZM191.635 117.072C191.773 117.072 191.891 117.12 191.987 117.216C192.083 117.312 192.131 117.429 192.131 117.568C192.131 117.707 192.083 117.824 191.987 117.92C191.891 118.016 191.773 118.064 191.635 118.064C191.496 118.064 191.379 118.016 191.283 117.92C191.187 117.824 191.139 117.707 191.139 117.568C191.139 117.429 191.187 117.312 191.283 117.216C191.379 117.12 191.496 117.072 191.635 117.072ZM191.995 123H191.275V119H191.995V123ZM195.231 119.568C195.044 119.568 194.866 119.621 194.695 119.728C194.53 119.829 194.335 120.005 194.111 120.256V123H193.391V119.096L194.111 118.936V119.72C194.324 119.437 194.538 119.235 194.751 119.112C194.964 118.984 195.196 118.92 195.447 118.92C195.74 118.92 195.994 118.997 196.207 119.152C196.426 119.307 196.586 119.525 196.687 119.808C196.922 119.493 197.151 119.267 197.375 119.128C197.599 118.989 197.85 118.92 198.127 118.92C198.532 118.92 198.858 119.061 199.103 119.344C199.354 119.627 199.479 120.005 199.479 120.48V123H198.751V120.552C198.751 120.243 198.676 120.003 198.527 119.832C198.378 119.656 198.172 119.568 197.911 119.568C197.724 119.568 197.543 119.621 197.367 119.728C197.196 119.835 197.002 120.013 196.783 120.264C196.788 120.285 196.791 120.312 196.791 120.344C196.791 120.371 196.791 120.416 196.791 120.48V123H196.071V120.552C196.071 120.243 195.996 120.003 195.847 119.832C195.698 119.656 195.492 119.568 195.231 119.568ZM204.686 120.92C204.686 121.533 204.489 122.045 204.094 122.456C203.705 122.861 203.233 123.064 202.678 123.064C202.465 123.064 202.259 123.029 202.062 122.96C201.87 122.891 201.675 122.784 201.478 122.64V124.528H200.758V119.096L201.478 118.936V119.584C201.702 119.349 201.923 119.181 202.142 119.08C202.361 118.973 202.601 118.92 202.862 118.92C203.374 118.92 203.806 119.112 204.158 119.496C204.51 119.875 204.686 120.349 204.686 120.92ZM203.942 120.976C203.942 120.56 203.819 120.221 203.574 119.96C203.334 119.699 203.033 119.568 202.67 119.568C202.462 119.568 202.265 119.608 202.078 119.688C201.891 119.768 201.691 119.896 201.478 120.072V122.08C201.659 122.197 201.835 122.285 202.006 122.344C202.182 122.397 202.366 122.424 202.558 122.424C202.958 122.424 203.289 122.288 203.55 122.016C203.811 121.739 203.942 121.392 203.942 120.976ZM207.487 123.112C206.874 123.112 206.37 122.909 205.975 122.504C205.58 122.093 205.383 121.595 205.383 121.008C205.383 120.427 205.586 119.928 205.991 119.512C206.396 119.096 206.9 118.888 207.503 118.888C208.122 118.888 208.626 119.091 209.015 119.496C209.41 119.896 209.607 120.392 209.607 120.984C209.607 121.571 209.404 122.072 208.999 122.488C208.599 122.904 208.095 123.112 207.487 123.112ZM208.871 120.984C208.871 120.568 208.74 120.224 208.479 119.952C208.223 119.675 207.898 119.536 207.503 119.536C207.103 119.536 206.772 119.677 206.511 119.96C206.255 120.237 206.127 120.587 206.127 121.008C206.127 121.424 206.255 121.771 206.511 122.048C206.772 122.325 207.098 122.464 207.487 122.464C207.887 122.464 208.218 122.323 208.479 122.04C208.74 121.757 208.871 121.405 208.871 120.984ZM212.841 119.704C212.606 119.704 212.374 119.76 212.145 119.872C211.921 119.984 211.657 120.173 211.353 120.44V123H210.633V119.096L211.353 118.936V119.952C211.684 119.541 211.942 119.269 212.129 119.136C212.321 119.003 212.526 118.936 212.745 118.936C212.793 118.936 212.833 118.939 212.865 118.944C212.902 118.949 212.948 118.957 213.001 118.968L213.057 119.728C213.02 119.717 212.982 119.712 212.945 119.712C212.913 119.707 212.878 119.704 212.841 119.704ZM216.521 122.04L216.361 122.808C216.244 122.893 216.105 122.96 215.945 123.008C215.785 123.061 215.62 123.088 215.449 123.088C215.071 123.088 214.772 122.971 214.553 122.736C214.335 122.501 214.225 122.173 214.225 121.752V119.616H213.545V119H214.225V118.104L214.937 117.84V119H216.505V119.616H214.937V121.72C214.937 121.96 214.993 122.141 215.105 122.264C215.217 122.381 215.383 122.44 215.601 122.44C215.751 122.44 215.9 122.408 216.049 122.344C216.199 122.275 216.351 122.171 216.505 122.032L216.521 122.04ZM220.788 120.568V122.904L220.068 123.064V122.352C219.769 122.592 219.486 122.771 219.22 122.888C218.958 123.005 218.702 123.064 218.452 123.064C218.1 123.064 217.814 122.968 217.596 122.776C217.377 122.579 217.268 122.317 217.268 121.992C217.268 121.533 217.497 121.195 217.956 120.976C218.414 120.752 219.118 120.635 220.068 120.624V120.608C220.068 120.277 219.988 120.027 219.828 119.856C219.673 119.68 219.446 119.592 219.148 119.592C218.924 119.592 218.692 119.64 218.452 119.736C218.217 119.832 217.974 119.976 217.724 120.168L217.708 120.16L217.86 119.352C218.073 119.208 218.294 119.101 218.524 119.032C218.758 118.963 219.004 118.928 219.26 118.928C219.75 118.928 220.126 119.069 220.388 119.352C220.654 119.635 220.788 120.04 220.788 120.568ZM217.996 121.96C217.996 122.109 218.049 122.229 218.156 122.32C218.262 122.405 218.409 122.448 218.596 122.448C218.782 122.448 218.996 122.403 219.236 122.312C219.476 122.221 219.753 122.08 220.068 121.888V121.088C219.374 121.131 218.854 121.224 218.508 121.368C218.166 121.507 217.996 121.704 217.996 121.96ZM224.015 119.568C223.807 119.568 223.609 119.624 223.423 119.736C223.241 119.843 223.031 120.027 222.791 120.288V123H222.071V119.096L222.791 118.936V119.752C223.02 119.459 223.247 119.248 223.471 119.12C223.695 118.987 223.943 118.92 224.215 118.92C224.636 118.92 224.975 119.061 225.231 119.344C225.492 119.627 225.623 120.005 225.623 120.48V123H224.903V120.552C224.903 120.243 224.823 120.003 224.663 119.832C224.508 119.656 224.292 119.568 224.015 119.568ZM229.467 122.04L229.307 122.808C229.189 122.893 229.051 122.96 228.891 123.008C228.731 123.061 228.565 123.088 228.395 123.088C228.016 123.088 227.717 122.971 227.499 122.736C227.28 122.501 227.171 122.173 227.171 121.752V119.616H226.491V119H227.171V118.104L227.883 117.84V119H229.451V119.616H227.883V121.72C227.883 121.96 227.939 122.141 228.051 122.264C228.163 122.381 228.328 122.44 228.547 122.44C228.696 122.44 228.845 122.408 228.995 122.344C229.144 122.275 229.296 122.171 229.451 122.032L229.467 122.04ZM232.603 117.072C232.742 117.072 232.859 117.12 232.955 117.216C233.051 117.312 233.099 117.429 233.099 117.568C233.099 117.707 233.051 117.824 232.955 117.92C232.859 118.016 232.742 118.064 232.603 118.064C232.465 118.064 232.347 118.016 232.251 117.92C232.155 117.824 232.107 117.707 232.107 117.568C232.107 117.429 232.155 117.312 232.251 117.216C232.347 117.12 232.465 117.072 232.603 117.072ZM232.963 123H232.243V119H232.963V123ZM236.304 119.568C236.096 119.568 235.898 119.624 235.712 119.736C235.53 119.843 235.32 120.027 235.08 120.288V123H234.36V119.096L235.08 118.936V119.752C235.309 119.459 235.536 119.248 235.76 119.12C235.984 118.987 236.232 118.92 236.504 118.92C236.925 118.92 237.264 119.061 237.52 119.344C237.781 119.627 237.912 120.005 237.912 120.48V123H237.192V120.552C237.192 120.243 237.112 120.003 236.952 119.832C236.797 119.656 236.581 119.568 236.304 119.568ZM241.58 119V119.616H240.26V123H239.54V119.616H238.828V119H239.54V118.368C239.54 117.925 239.66 117.579 239.9 117.328C240.14 117.072 240.468 116.944 240.884 116.944C241.012 116.944 241.129 116.955 241.236 116.976C241.342 116.997 241.452 117.035 241.564 117.088L241.684 117.832L241.668 117.84C241.518 117.755 241.388 117.696 241.276 117.664C241.164 117.627 241.049 117.608 240.932 117.608C240.724 117.608 240.558 117.675 240.436 117.808C240.318 117.936 240.26 118.115 240.26 118.344V119H241.58ZM244.081 123.112C243.467 123.112 242.963 122.909 242.569 122.504C242.174 122.093 241.977 121.595 241.977 121.008C241.977 120.427 242.179 119.928 242.585 119.512C242.99 119.096 243.494 118.888 244.097 118.888C244.715 118.888 245.219 119.091 245.609 119.496C246.003 119.896 246.201 120.392 246.201 120.984C246.201 121.571 245.998 122.072 245.593 122.488C245.193 122.904 244.689 123.112 244.081 123.112ZM245.465 120.984C245.465 120.568 245.334 120.224 245.073 119.952C244.817 119.675 244.491 119.536 244.097 119.536C243.697 119.536 243.366 119.677 243.105 119.96C242.849 120.237 242.721 120.587 242.721 121.008C242.721 121.424 242.849 121.771 243.105 122.048C243.366 122.325 243.691 122.464 244.081 122.464C244.481 122.464 244.811 122.323 245.073 122.04C245.334 121.757 245.465 121.405 245.465 120.984ZM249.435 119.704C249.2 119.704 248.968 119.76 248.739 119.872C248.515 119.984 248.251 120.173 247.947 120.44V123H247.227V119.096L247.947 118.936V119.952C248.278 119.541 248.536 119.269 248.723 119.136C248.915 119.003 249.12 118.936 249.339 118.936C249.387 118.936 249.427 118.939 249.459 118.944C249.496 118.949 249.542 118.957 249.595 118.968L249.651 119.728C249.614 119.717 249.576 119.712 249.539 119.712C249.507 119.707 249.472 119.704 249.435 119.704ZM252.387 119.568C252.201 119.568 252.022 119.621 251.851 119.728C251.686 119.829 251.491 120.005 251.267 120.256V123H250.547V119.096L251.267 118.936V119.72C251.481 119.437 251.694 119.235 251.907 119.112C252.121 118.984 252.353 118.92 252.603 118.92C252.897 118.92 253.15 118.997 253.363 119.152C253.582 119.307 253.742 119.525 253.843 119.808C254.078 119.493 254.307 119.267 254.531 119.128C254.755 118.989 255.006 118.92 255.283 118.92C255.689 118.92 256.014 119.061 256.259 119.344C256.51 119.627 256.635 120.005 256.635 120.48V123H255.907V120.552C255.907 120.243 255.833 120.003 255.683 119.832C255.534 119.656 255.329 119.568 255.067 119.568C254.881 119.568 254.699 119.621 254.523 119.728C254.353 119.835 254.158 120.013 253.939 120.264C253.945 120.285 253.947 120.312 253.947 120.344C253.947 120.371 253.947 120.416 253.947 120.48V123H253.227V120.552C253.227 120.243 253.153 120.003 253.003 119.832C252.854 119.656 252.649 119.568 252.387 119.568ZM261.17 120.568V122.904L260.45 123.064V122.352C260.152 122.592 259.869 122.771 259.602 122.888C259.341 123.005 259.085 123.064 258.834 123.064C258.482 123.064 258.197 122.968 257.978 122.776C257.76 122.579 257.65 122.317 257.65 121.992C257.65 121.533 257.88 121.195 258.338 120.976C258.797 120.752 259.501 120.635 260.45 120.624V120.608C260.45 120.277 260.37 120.027 260.21 119.856C260.056 119.68 259.829 119.592 259.53 119.592C259.306 119.592 259.074 119.64 258.834 119.736C258.6 119.832 258.357 119.976 258.106 120.168L258.09 120.16L258.242 119.352C258.456 119.208 258.677 119.101 258.906 119.032C259.141 118.963 259.386 118.928 259.642 118.928C260.133 118.928 260.509 119.069 260.77 119.352C261.037 119.635 261.17 120.04 261.17 120.568ZM258.378 121.96C258.378 122.109 258.432 122.229 258.538 122.32C258.645 122.405 258.792 122.448 258.978 122.448C259.165 122.448 259.378 122.403 259.618 122.312C259.858 122.221 260.136 122.08 260.45 121.888V121.088C259.757 121.131 259.237 121.224 258.89 121.368C258.549 121.507 258.378 121.704 258.378 121.96ZM265.021 122.04L264.861 122.808C264.744 122.893 264.605 122.96 264.445 123.008C264.285 123.061 264.12 123.088 263.949 123.088C263.571 123.088 263.272 122.971 263.053 122.736C262.835 122.501 262.725 122.173 262.725 121.752V119.616H262.045V119H262.725V118.104L263.437 117.84V119H265.005V119.616H263.437V121.72C263.437 121.96 263.493 122.141 263.605 122.264C263.717 122.381 263.883 122.44 264.101 122.44C264.251 122.44 264.4 122.408 264.549 122.344C264.699 122.275 264.851 122.171 265.005 122.032L265.021 122.04ZM266.432 117.072C266.57 117.072 266.688 117.12 266.784 117.216C266.88 117.312 266.928 117.429 266.928 117.568C266.928 117.707 266.88 117.824 266.784 117.92C266.688 118.016 266.57 118.064 266.432 118.064C266.293 118.064 266.176 118.016 266.08 117.92C265.984 117.824 265.936 117.707 265.936 117.568C265.936 117.429 265.984 117.312 266.08 117.216C266.176 117.12 266.293 117.072 266.432 117.072ZM266.792 123H266.072V119H266.792V123ZM269.956 123.112C269.342 123.112 268.838 122.909 268.444 122.504C268.049 122.093 267.852 121.595 267.852 121.008C267.852 120.427 268.054 119.928 268.46 119.512C268.865 119.096 269.369 118.888 269.972 118.888C270.59 118.888 271.094 119.091 271.484 119.496C271.878 119.896 272.076 120.392 272.076 120.984C272.076 121.571 271.873 122.072 271.468 122.488C271.068 122.904 270.564 123.112 269.956 123.112ZM271.34 120.984C271.34 120.568 271.209 120.224 270.948 119.952C270.692 119.675 270.366 119.536 269.972 119.536C269.572 119.536 269.241 119.677 268.98 119.96C268.724 120.237 268.596 120.587 268.596 121.008C268.596 121.424 268.724 121.771 268.98 122.048C269.241 122.325 269.566 122.464 269.956 122.464C270.356 122.464 270.686 122.323 270.948 122.04C271.209 121.757 271.34 121.405 271.34 120.984ZM275.046 119.568C274.838 119.568 274.641 119.624 274.454 119.736C274.273 119.843 274.062 120.027 273.822 120.288V123H273.102V119.096L273.822 118.936V119.752C274.051 119.459 274.278 119.248 274.502 119.12C274.726 118.987 274.974 118.92 275.246 118.92C275.667 118.92 276.006 119.061 276.262 119.344C276.523 119.627 276.654 120.005 276.654 120.48V123H275.934V120.552C275.934 120.243 275.854 120.003 275.694 119.832C275.539 119.656 275.323 119.568 275.046 119.568ZM281.425 123.112C280.811 123.112 280.307 122.909 279.913 122.504C279.518 122.093 279.321 121.595 279.321 121.008C279.321 120.427 279.523 119.928 279.929 119.512C280.334 119.096 280.838 118.888 281.441 118.888C282.059 118.888 282.563 119.091 282.953 119.496C283.347 119.896 283.545 120.392 283.545 120.984C283.545 121.571 283.342 122.072 282.937 122.488C282.537 122.904 282.033 123.112 281.425 123.112ZM282.809 120.984C282.809 120.568 282.678 120.224 282.417 119.952C282.161 119.675 281.835 119.536 281.441 119.536C281.041 119.536 280.71 119.677 280.449 119.96C280.193 120.237 280.065 120.587 280.065 121.008C280.065 121.424 280.193 121.771 280.449 122.048C280.71 122.325 281.035 122.464 281.425 122.464C281.825 122.464 282.155 122.323 282.417 122.04C282.678 121.757 282.809 121.405 282.809 120.984ZM286.779 119.704C286.544 119.704 286.312 119.76 286.083 119.872C285.859 119.984 285.595 120.173 285.291 120.44V123H284.571V119.096L285.291 118.936V119.952C285.621 119.541 285.88 119.269 286.067 119.136C286.259 119.003 286.464 118.936 286.683 118.936C286.731 118.936 286.771 118.939 286.803 118.944C286.84 118.949 286.885 118.957 286.939 118.968L286.995 119.728C286.957 119.717 286.92 119.712 286.883 119.712C286.851 119.707 286.816 119.704 286.779 119.704ZM293.226 123H292.498V122.424C292.268 122.653 292.044 122.821 291.826 122.928C291.612 123.029 291.375 123.08 291.114 123.08C290.602 123.08 290.17 122.891 289.818 122.512C289.466 122.128 289.29 121.651 289.29 121.08C289.29 120.467 289.487 119.957 289.882 119.552C290.276 119.141 290.751 118.936 291.306 118.936C291.514 118.936 291.714 118.971 291.906 119.04C292.103 119.104 292.3 119.208 292.498 119.352V117.192L293.226 116.928V123ZM291.426 119.576C291.026 119.576 290.692 119.712 290.426 119.984C290.164 120.256 290.034 120.603 290.034 121.024C290.034 121.435 290.154 121.773 290.394 122.04C290.639 122.301 290.943 122.432 291.306 122.432C291.514 122.432 291.711 122.392 291.898 122.312C292.084 122.232 292.284 122.104 292.498 121.928V119.912C292.311 119.795 292.132 119.709 291.962 119.656C291.791 119.603 291.612 119.576 291.426 119.576ZM296.786 119.704C296.552 119.704 296.32 119.76 296.09 119.872C295.866 119.984 295.602 120.173 295.298 120.44V123H294.578V119.096L295.298 118.936V119.952C295.629 119.541 295.888 119.269 296.074 119.136C296.266 119.003 296.472 118.936 296.69 118.936C296.738 118.936 296.778 118.939 296.81 118.944C296.848 118.949 296.893 118.957 296.946 118.968L297.002 119.728C296.965 119.717 296.928 119.712 296.89 119.712C296.858 119.707 296.824 119.704 296.786 119.704ZM300.874 120.568V122.904L300.154 123.064V122.352C299.855 122.592 299.572 122.771 299.306 122.888C299.044 123.005 298.788 123.064 298.538 123.064C298.186 123.064 297.9 122.968 297.682 122.776C297.463 122.579 297.354 122.317 297.354 121.992C297.354 121.533 297.583 121.195 298.042 120.976C298.5 120.752 299.204 120.635 300.154 120.624V120.608C300.154 120.277 300.074 120.027 299.914 119.856C299.759 119.68 299.532 119.592 299.234 119.592C299.01 119.592 298.778 119.64 298.538 119.736C298.303 119.832 298.06 119.976 297.81 120.168L297.794 120.16L297.946 119.352C298.159 119.208 298.38 119.101 298.61 119.032C298.844 118.963 299.09 118.928 299.346 118.928C299.836 118.928 300.212 119.069 300.474 119.352C300.74 119.635 300.874 120.04 300.874 120.568ZM298.082 121.96C298.082 122.109 298.135 122.229 298.242 122.32C298.348 122.405 298.495 122.448 298.682 122.448C298.868 122.448 299.082 122.403 299.322 122.312C299.562 122.221 299.839 122.08 300.154 121.888V121.088C299.46 121.131 298.94 121.224 298.594 121.368C298.252 121.507 298.082 121.704 298.082 121.96ZM307.573 119H308.309L306.741 123.056H306.141L304.981 120.4L303.749 123.056H303.141L301.685 119H302.461L303.493 122.096L304.949 118.952H305.085L306.437 122.096L307.573 119ZM314.17 120.568V122.904L313.45 123.064V122.352C313.152 122.592 312.869 122.771 312.602 122.888C312.341 123.005 312.085 123.064 311.834 123.064C311.482 123.064 311.197 122.968 310.978 122.776C310.76 122.579 310.65 122.317 310.65 121.992C310.65 121.533 310.88 121.195 311.338 120.976C311.797 120.752 312.501 120.635 313.45 120.624V120.608C313.45 120.277 313.37 120.027 313.21 119.856C313.056 119.68 312.829 119.592 312.53 119.592C312.306 119.592 312.074 119.64 311.834 119.736C311.6 119.832 311.357 119.976 311.106 120.168L311.09 120.16L311.242 119.352C311.456 119.208 311.677 119.101 311.906 119.032C312.141 118.963 312.386 118.928 312.642 118.928C313.133 118.928 313.509 119.069 313.77 119.352C314.037 119.635 314.17 120.04 314.17 120.568ZM311.378 121.96C311.378 122.109 311.432 122.229 311.538 122.32C311.645 122.405 311.792 122.448 311.978 122.448C312.165 122.448 312.378 122.403 312.618 122.312C312.858 122.221 313.136 122.08 313.45 121.888V121.088C312.757 121.131 312.237 121.224 311.89 121.368C311.549 121.507 311.378 121.704 311.378 121.96ZM318.021 122.04L317.861 122.808C317.744 122.893 317.605 122.96 317.445 123.008C317.285 123.061 317.12 123.088 316.949 123.088C316.571 123.088 316.272 122.971 316.053 122.736C315.835 122.501 315.725 122.173 315.725 121.752V119.616H315.045V119H315.725V118.104L316.437 117.84V119H318.005V119.616H316.437V121.72C316.437 121.96 316.493 122.141 316.605 122.264C316.717 122.381 316.883 122.44 317.101 122.44C317.251 122.44 317.4 122.408 317.549 122.344C317.699 122.275 317.851 122.171 318.005 122.032L318.021 122.04ZM321.521 122.04L321.361 122.808C321.244 122.893 321.105 122.96 320.945 123.008C320.785 123.061 320.62 123.088 320.449 123.088C320.071 123.088 319.772 122.971 319.553 122.736C319.335 122.501 319.225 122.173 319.225 121.752V119.616H318.545V119H319.225V118.104L319.937 117.84V119H321.505V119.616H319.937V121.72C319.937 121.96 319.993 122.141 320.105 122.264C320.217 122.381 320.383 122.44 320.601 122.44C320.751 122.44 320.9 122.408 321.049 122.344C321.199 122.275 321.351 122.171 321.505 122.032L321.521 122.04ZM325.852 121.944L325.588 122.736C325.353 122.864 325.134 122.955 324.932 123.008C324.729 123.061 324.508 123.088 324.268 123.088C323.633 123.088 323.129 122.899 322.756 122.52C322.382 122.141 322.196 121.635 322.196 121C322.196 120.413 322.382 119.915 322.756 119.504C323.129 119.093 323.593 118.888 324.148 118.888C324.702 118.888 325.145 119.083 325.476 119.472C325.806 119.856 325.972 120.352 325.972 120.96C325.972 121.013 325.969 121.072 325.964 121.136C325.958 121.2 325.953 121.248 325.948 121.28H322.94C322.993 121.643 323.142 121.925 323.388 122.128C323.638 122.331 323.958 122.432 324.348 122.432C324.582 122.432 324.828 122.389 325.084 122.304C325.345 122.213 325.596 122.091 325.836 121.936L325.852 121.944ZM324.124 119.52C323.798 119.52 323.524 119.635 323.3 119.864C323.081 120.093 322.956 120.387 322.924 120.744H325.244C325.212 120.36 325.097 120.061 324.9 119.848C324.702 119.629 324.444 119.52 324.124 119.52ZM328.944 119.568C328.736 119.568 328.539 119.624 328.352 119.736C328.171 119.843 327.96 120.027 327.72 120.288V123H327V119.096L327.72 118.936V119.752C327.95 119.459 328.176 119.248 328.4 119.12C328.624 118.987 328.872 118.92 329.144 118.92C329.566 118.92 329.904 119.061 330.16 119.344C330.422 119.627 330.552 120.005 330.552 120.48V123H329.832V120.552C329.832 120.243 329.752 120.003 329.592 119.832C329.438 119.656 329.222 119.568 328.944 119.568ZM334.396 122.04L334.236 122.808C334.119 122.893 333.98 122.96 333.82 123.008C333.66 123.061 333.495 123.088 333.324 123.088C332.946 123.088 332.647 122.971 332.428 122.736C332.21 122.501 332.1 122.173 332.1 121.752V119.616H331.42V119H332.1V118.104L332.812 117.84V119H334.38V119.616H332.812V121.72C332.812 121.96 332.868 122.141 332.98 122.264C333.092 122.381 333.258 122.44 333.476 122.44C333.626 122.44 333.775 122.408 333.924 122.344C334.074 122.275 334.226 122.171 334.38 122.032L334.396 122.04ZM335.807 117.072C335.945 117.072 336.063 117.12 336.159 117.216C336.255 117.312 336.303 117.429 336.303 117.568C336.303 117.707 336.255 117.824 336.159 117.92C336.063 118.016 335.945 118.064 335.807 118.064C335.668 118.064 335.551 118.016 335.455 117.92C335.359 117.824 335.311 117.707 335.311 117.568C335.311 117.429 335.359 117.312 335.455 117.216C335.551 117.12 335.668 117.072 335.807 117.072ZM336.167 123H335.447V119H336.167V123ZM339.331 123.112C338.717 123.112 338.213 122.909 337.819 122.504C337.424 122.093 337.227 121.595 337.227 121.008C337.227 120.427 337.429 119.928 337.835 119.512C338.24 119.096 338.744 118.888 339.347 118.888C339.965 118.888 340.469 119.091 340.859 119.496C341.253 119.896 341.451 120.392 341.451 120.984C341.451 121.571 341.248 122.072 340.843 122.488C340.443 122.904 339.939 123.112 339.331 123.112ZM340.715 120.984C340.715 120.568 340.584 120.224 340.323 119.952C340.067 119.675 339.741 119.536 339.347 119.536C338.947 119.536 338.616 119.677 338.355 119.96C338.099 120.237 337.971 120.587 337.971 121.008C337.971 121.424 338.099 121.771 338.355 122.048C338.616 122.325 338.941 122.464 339.331 122.464C339.731 122.464 340.061 122.323 340.323 122.04C340.584 121.757 340.715 121.405 340.715 120.984ZM344.421 119.568C344.213 119.568 344.016 119.624 343.829 119.736C343.648 119.843 343.437 120.027 343.197 120.288V123H342.477V119.096L343.197 118.936V119.752C343.426 119.459 343.653 119.248 343.877 119.12C344.101 118.987 344.349 118.92 344.621 118.92C345.042 118.92 345.381 119.061 345.637 119.344C345.898 119.627 346.029 120.005 346.029 120.48V123H345.309V120.552C345.309 120.243 345.229 120.003 345.069 119.832C344.914 119.656 344.698 119.568 344.421 119.568ZM185.924 134.04L185.764 134.808C185.646 134.893 185.508 134.96 185.348 135.008C185.188 135.061 185.022 135.088 184.852 135.088C184.473 135.088 184.174 134.971 183.956 134.736C183.737 134.501 183.628 134.173 183.628 133.752V131.616H182.948V131H183.628V130.104L184.34 129.84V131H185.908V131.616H184.34V133.72C184.34 133.96 184.396 134.141 184.508 134.264C184.62 134.381 184.785 134.44 185.004 134.44C185.153 134.44 185.302 134.408 185.452 134.344C185.601 134.275 185.753 134.171 185.908 134.032L185.924 134.04ZM188.702 135.112C188.089 135.112 187.585 134.909 187.19 134.504C186.795 134.093 186.598 133.595 186.598 133.008C186.598 132.427 186.801 131.928 187.206 131.512C187.611 131.096 188.115 130.888 188.718 130.888C189.337 130.888 189.841 131.091 190.23 131.496C190.625 131.896 190.822 132.392 190.822 132.984C190.822 133.571 190.619 134.072 190.214 134.488C189.814 134.904 189.31 135.112 188.702 135.112ZM190.086 132.984C190.086 132.568 189.955 132.224 189.694 131.952C189.438 131.675 189.113 131.536 188.718 131.536C188.318 131.536 187.987 131.677 187.726 131.96C187.47 132.237 187.342 132.587 187.342 133.008C187.342 133.424 187.47 133.771 187.726 134.048C187.987 134.325 188.313 134.464 188.702 134.464C189.102 134.464 189.433 134.323 189.694 134.04C189.955 133.757 190.086 133.405 190.086 132.984ZM196.831 132.568V134.904L196.111 135.064V134.352C195.812 134.592 195.529 134.771 195.263 134.888C195.001 135.005 194.745 135.064 194.495 135.064C194.143 135.064 193.857 134.968 193.639 134.776C193.42 134.579 193.311 134.317 193.311 133.992C193.311 133.533 193.54 133.195 193.999 132.976C194.457 132.752 195.161 132.635 196.111 132.624V132.608C196.111 132.277 196.031 132.027 195.871 131.856C195.716 131.68 195.489 131.592 195.191 131.592C194.967 131.592 194.735 131.64 194.495 131.736C194.26 131.832 194.017 131.976 193.767 132.168L193.751 132.16L193.903 131.352C194.116 131.208 194.337 131.101 194.567 131.032C194.801 130.963 195.047 130.928 195.303 130.928C195.793 130.928 196.169 131.069 196.431 131.352C196.697 131.635 196.831 132.04 196.831 132.568ZM194.039 133.96C194.039 134.109 194.092 134.229 194.199 134.32C194.305 134.405 194.452 134.448 194.639 134.448C194.825 134.448 195.039 134.403 195.279 134.312C195.519 134.221 195.796 134.08 196.111 133.888V133.088C195.417 133.131 194.897 133.224 194.551 133.368C194.209 133.507 194.039 133.704 194.039 133.96ZM201.408 132.664C201.936 132.787 202.301 132.941 202.504 133.128C202.712 133.315 202.816 133.571 202.816 133.896C202.816 134.243 202.664 134.528 202.36 134.752C202.061 134.976 201.677 135.088 201.208 135.088C200.925 135.088 200.656 135.048 200.4 134.968C200.144 134.888 199.891 134.765 199.64 134.6L199.488 133.728L199.504 133.72C199.803 133.955 200.104 134.133 200.408 134.256C200.712 134.379 201.005 134.44 201.288 134.44C201.528 134.44 201.725 134.395 201.88 134.304C202.04 134.208 202.12 134.085 202.12 133.936C202.12 133.776 202.045 133.651 201.896 133.56C201.752 133.469 201.464 133.373 201.032 133.272C200.515 133.149 200.155 132.997 199.952 132.816C199.749 132.635 199.648 132.397 199.648 132.104C199.648 131.752 199.792 131.467 200.08 131.248C200.373 131.024 200.749 130.912 201.208 130.912C201.432 130.912 201.656 130.944 201.88 131.008C202.104 131.072 202.317 131.163 202.52 131.28V132.048H202.504C202.253 131.888 202.011 131.768 201.776 131.688C201.547 131.603 201.331 131.56 201.128 131.56C200.888 131.56 200.696 131.603 200.552 131.688C200.413 131.773 200.344 131.885 200.344 132.024C200.344 132.173 200.416 132.293 200.56 132.384C200.704 132.469 200.987 132.563 201.408 132.664ZM207.799 132.92C207.799 133.533 207.602 134.045 207.207 134.456C206.818 134.861 206.346 135.064 205.791 135.064C205.578 135.064 205.373 135.029 205.175 134.96C204.983 134.891 204.789 134.784 204.591 134.64V136.528H203.871V131.096L204.591 130.936V131.584C204.815 131.349 205.037 131.181 205.255 131.08C205.474 130.973 205.714 130.92 205.975 130.92C206.487 130.92 206.919 131.112 207.271 131.496C207.623 131.875 207.799 132.349 207.799 132.92ZM207.055 132.976C207.055 132.56 206.933 132.221 206.687 131.96C206.447 131.699 206.146 131.568 205.783 131.568C205.575 131.568 205.378 131.608 205.191 131.688C205.005 131.768 204.805 131.896 204.591 132.072V134.08C204.773 134.197 204.949 134.285 205.119 134.344C205.295 134.397 205.479 134.424 205.671 134.424C206.071 134.424 206.402 134.288 206.663 134.016C206.925 133.739 207.055 133.392 207.055 132.976ZM212.152 133.944L211.888 134.736C211.654 134.864 211.435 134.955 211.232 135.008C211.03 135.061 210.808 135.088 210.568 135.088C209.934 135.088 209.43 134.899 209.056 134.52C208.683 134.141 208.496 133.635 208.496 133C208.496 132.413 208.683 131.915 209.056 131.504C209.43 131.093 209.894 130.888 210.448 130.888C211.003 130.888 211.446 131.083 211.776 131.472C212.107 131.856 212.272 132.352 212.272 132.96C212.272 133.013 212.27 133.072 212.264 133.136C212.259 133.2 212.254 133.248 212.248 133.28H209.24C209.294 133.643 209.443 133.925 209.688 134.128C209.939 134.331 210.259 134.432 210.648 134.432C210.883 134.432 211.128 134.389 211.384 134.304C211.646 134.213 211.896 134.091 212.136 133.936L212.152 133.944ZM210.424 131.52C210.099 131.52 209.824 131.635 209.6 131.864C209.382 132.093 209.256 132.387 209.224 132.744H211.544C211.512 132.36 211.398 132.061 211.2 131.848C211.003 131.629 210.744 131.52 210.424 131.52ZM216.533 133.808L216.405 134.64C216.186 134.789 215.96 134.904 215.725 134.984C215.49 135.059 215.253 135.096 215.013 135.096C214.41 135.096 213.92 134.901 213.541 134.512C213.162 134.123 212.973 133.621 212.973 133.008C212.973 132.411 213.173 131.912 213.573 131.512C213.978 131.107 214.488 130.904 215.101 130.904C215.368 130.904 215.61 130.944 215.829 131.024C216.048 131.099 216.253 131.219 216.445 131.384V132.272H216.429C216.189 132.027 215.96 131.848 215.741 131.736C215.528 131.624 215.309 131.568 215.085 131.568C214.696 131.568 214.37 131.707 214.109 131.984C213.848 132.261 213.717 132.6 213.717 133C213.717 133.416 213.84 133.76 214.085 134.032C214.336 134.299 214.656 134.432 215.045 134.432C215.28 134.432 215.528 134.376 215.789 134.264C216.05 134.147 216.293 133.992 216.517 133.8L216.533 133.808ZM218.014 129.072C218.152 129.072 218.27 129.12 218.366 129.216C218.462 129.312 218.51 129.429 218.51 129.568C218.51 129.707 218.462 129.824 218.366 129.92C218.27 130.016 218.152 130.064 218.014 130.064C217.875 130.064 217.758 130.016 217.662 129.92C217.566 129.824 217.518 129.707 217.518 129.568C217.518 129.429 217.566 129.312 217.662 129.216C217.758 129.12 217.875 129.072 218.014 129.072ZM218.374 135H217.654V131H218.374V135ZM222.162 131V131.616H220.842V135H220.122V131.616H219.41V131H220.122V130.368C220.122 129.925 220.242 129.579 220.482 129.328C220.722 129.072 221.05 128.944 221.466 128.944C221.594 128.944 221.711 128.955 221.818 128.976C221.925 128.997 222.034 129.035 222.146 129.088L222.266 129.832L222.25 129.84C222.101 129.755 221.97 129.696 221.858 129.664C221.746 129.627 221.631 129.608 221.514 129.608C221.306 129.608 221.141 129.675 221.018 129.808C220.901 129.936 220.842 130.115 220.842 130.344V131H222.162ZM223.37 129.072C223.509 129.072 223.626 129.12 223.722 129.216C223.818 129.312 223.866 129.429 223.866 129.568C223.866 129.707 223.818 129.824 223.722 129.92C223.626 130.016 223.509 130.064 223.37 130.064C223.231 130.064 223.114 130.016 223.018 129.92C222.922 129.824 222.874 129.707 222.874 129.568C222.874 129.429 222.922 129.312 223.018 129.216C223.114 129.12 223.231 129.072 223.37 129.072ZM223.73 135H223.01V131H223.73V135ZM228.361 133.808L228.233 134.64C228.015 134.789 227.788 134.904 227.553 134.984C227.319 135.059 227.081 135.096 226.841 135.096C226.239 135.096 225.748 134.901 225.369 134.512C224.991 134.123 224.801 133.621 224.801 133.008C224.801 132.411 225.001 131.912 225.401 131.512C225.807 131.107 226.316 130.904 226.929 130.904C227.196 130.904 227.439 130.944 227.657 131.024C227.876 131.099 228.081 131.219 228.273 131.384V132.272H228.257C228.017 132.027 227.788 131.848 227.569 131.736C227.356 131.624 227.137 131.568 226.913 131.568C226.524 131.568 226.199 131.707 225.937 131.984C225.676 132.261 225.545 132.6 225.545 133C225.545 133.416 225.668 133.76 225.913 134.032C226.164 134.299 226.484 134.432 226.873 134.432C227.108 134.432 227.356 134.376 227.617 134.264C227.879 134.147 228.121 133.992 228.345 133.8L228.361 133.808ZM233.56 131V131.616H232.24V135H231.52V131.616H230.808V131H231.52V130.368C231.52 129.925 231.64 129.579 231.88 129.328C232.12 129.072 232.448 128.944 232.864 128.944C232.992 128.944 233.11 128.955 233.216 128.976C233.323 128.997 233.432 129.035 233.544 129.088L233.664 129.832L233.648 129.84C233.499 129.755 233.368 129.696 233.256 129.664C233.144 129.627 233.03 129.608 232.912 129.608C232.704 129.608 232.539 129.675 232.416 129.808C232.299 129.936 232.24 130.115 232.24 130.344V131H233.56ZM237.613 133.944L237.349 134.736C237.115 134.864 236.896 134.955 236.693 135.008C236.491 135.061 236.269 135.088 236.029 135.088C235.395 135.088 234.891 134.899 234.517 134.52C234.144 134.141 233.957 133.635 233.957 133C233.957 132.413 234.144 131.915 234.517 131.504C234.891 131.093 235.355 130.888 235.909 130.888C236.464 130.888 236.907 131.083 237.237 131.472C237.568 131.856 237.733 132.352 237.733 132.96C237.733 133.013 237.731 133.072 237.725 133.136C237.72 133.2 237.715 133.248 237.709 133.28H234.701C234.755 133.643 234.904 133.925 235.149 134.128C235.4 134.331 235.72 134.432 236.109 134.432C236.344 134.432 236.589 134.389 236.845 134.304C237.107 134.213 237.357 134.091 237.597 133.936L237.613 133.944ZM235.885 131.52C235.56 131.52 235.285 131.635 235.061 131.864C234.843 132.093 234.717 132.387 234.685 132.744H237.005C236.973 132.36 236.859 132.061 236.661 131.848C236.464 131.629 236.205 131.52 235.885 131.52ZM242.018 132.568V134.904L241.298 135.064V134.352C240.999 134.592 240.717 134.771 240.45 134.888C240.189 135.005 239.933 135.064 239.682 135.064C239.33 135.064 239.045 134.968 238.826 134.776C238.607 134.579 238.498 134.317 238.498 133.992C238.498 133.533 238.727 133.195 239.186 132.976C239.645 132.752 240.349 132.635 241.298 132.624V132.608C241.298 132.277 241.218 132.027 241.058 131.856C240.903 131.68 240.677 131.592 240.378 131.592C240.154 131.592 239.922 131.64 239.682 131.736C239.447 131.832 239.205 131.976 238.954 132.168L238.938 132.16L239.09 131.352C239.303 131.208 239.525 131.101 239.754 131.032C239.989 130.963 240.234 130.928 240.49 130.928C240.981 130.928 241.357 131.069 241.618 131.352C241.885 131.635 242.018 132.04 242.018 132.568ZM239.226 133.96C239.226 134.109 239.279 134.229 239.386 134.32C239.493 134.405 239.639 134.448 239.826 134.448C240.013 134.448 240.226 134.403 240.466 134.312C240.706 134.221 240.983 134.08 241.298 133.888V133.088C240.605 133.131 240.085 133.224 239.738 133.368C239.397 133.507 239.226 133.704 239.226 133.96ZM245.869 134.04L245.709 134.808C245.592 134.893 245.453 134.96 245.293 135.008C245.133 135.061 244.968 135.088 244.797 135.088C244.418 135.088 244.12 134.971 243.901 134.736C243.682 134.501 243.573 134.173 243.573 133.752V131.616H242.893V131H243.573V130.104L244.285 129.84V131H245.853V131.616H244.285V133.72C244.285 133.96 244.341 134.141 244.453 134.264C244.565 134.381 244.73 134.44 244.949 134.44C245.098 134.44 245.248 134.408 245.397 134.344C245.546 134.275 245.698 134.171 245.853 134.032L245.869 134.04ZM250.359 135H249.631V134.248C249.402 134.541 249.175 134.755 248.951 134.888C248.727 135.016 248.479 135.08 248.207 135.08C247.786 135.08 247.445 134.939 247.183 134.656C246.927 134.373 246.799 133.995 246.799 133.52V131H247.527V133.448C247.527 133.757 247.605 134 247.759 134.176C247.919 134.347 248.138 134.432 248.415 134.432C248.618 134.432 248.81 134.379 248.991 134.272C249.178 134.16 249.391 133.973 249.631 133.712V131H250.359V135ZM253.915 131.704C253.681 131.704 253.449 131.76 253.219 131.872C252.995 131.984 252.731 132.173 252.427 132.44V135H251.707V131.096L252.427 130.936V131.952C252.758 131.541 253.017 131.269 253.203 131.136C253.395 131.003 253.601 130.936 253.819 130.936C253.867 130.936 253.907 130.939 253.939 130.944C253.977 130.949 254.022 130.957 254.075 130.968L254.131 131.728C254.094 131.717 254.057 131.712 254.019 131.712C253.987 131.707 253.953 131.704 253.915 131.704ZM258.348 133.944L258.084 134.736C257.849 134.864 257.63 134.955 257.428 135.008C257.225 135.061 257.004 135.088 256.764 135.088C256.129 135.088 255.625 134.899 255.252 134.52C254.878 134.141 254.692 133.635 254.692 133C254.692 132.413 254.878 131.915 255.252 131.504C255.625 131.093 256.089 130.888 256.644 130.888C257.198 130.888 257.641 131.083 257.972 131.472C258.302 131.856 258.468 132.352 258.468 132.96C258.468 133.013 258.465 133.072 258.46 133.136C258.454 133.2 258.449 133.248 258.444 133.28H255.436C255.489 133.643 255.638 133.925 255.884 134.128C256.134 134.331 256.454 134.432 256.844 134.432C257.078 134.432 257.324 134.389 257.58 134.304C257.841 134.213 258.092 134.091 258.332 133.936L258.348 133.944ZM256.62 131.52C256.294 131.52 256.02 131.635 255.796 131.864C255.577 132.093 255.452 132.387 255.42 132.744H257.74C257.708 132.36 257.593 132.061 257.396 131.848C257.198 131.629 256.94 131.52 256.62 131.52ZM262.991 135.112C262.378 135.112 261.874 134.909 261.479 134.504C261.084 134.093 260.887 133.595 260.887 133.008C260.887 132.427 261.09 131.928 261.495 131.512C261.9 131.096 262.404 130.888 263.007 130.888C263.626 130.888 264.13 131.091 264.519 131.496C264.914 131.896 265.111 132.392 265.111 132.984C265.111 133.571 264.908 134.072 264.503 134.488C264.103 134.904 263.599 135.112 262.991 135.112ZM264.375 132.984C264.375 132.568 264.244 132.224 263.983 131.952C263.727 131.675 263.402 131.536 263.007 131.536C262.607 131.536 262.276 131.677 262.015 131.96C261.759 132.237 261.631 132.587 261.631 133.008C261.631 133.424 261.759 133.771 262.015 134.048C262.276 134.325 262.602 134.464 262.991 134.464C263.391 134.464 263.722 134.323 263.983 134.04C264.244 133.757 264.375 133.405 264.375 132.984ZM268.345 131.704C268.11 131.704 267.878 131.76 267.649 131.872C267.425 131.984 267.161 132.173 266.857 132.44V135H266.137V131.096L266.857 130.936V131.952C267.188 131.541 267.446 131.269 267.633 131.136C267.825 131.003 268.03 130.936 268.249 130.936C268.297 130.936 268.337 130.939 268.369 130.944C268.406 130.949 268.452 130.957 268.505 130.968L268.561 131.728C268.524 131.717 268.486 131.712 268.449 131.712C268.417 131.707 268.382 131.704 268.345 131.704ZM272.952 135.112C272.339 135.112 271.835 134.909 271.44 134.504C271.045 134.093 270.848 133.595 270.848 133.008C270.848 132.427 271.051 131.928 271.456 131.512C271.861 131.096 272.365 130.888 272.968 130.888C273.587 130.888 274.091 131.091 274.48 131.496C274.875 131.896 275.072 132.392 275.072 132.984C275.072 133.571 274.869 134.072 274.464 134.488C274.064 134.904 273.56 135.112 272.952 135.112ZM274.336 132.984C274.336 132.568 274.205 132.224 273.944 131.952C273.688 131.675 273.363 131.536 272.968 131.536C272.568 131.536 272.237 131.677 271.976 131.96C271.72 132.237 271.592 132.587 271.592 133.008C271.592 133.424 271.72 133.771 271.976 134.048C272.237 134.325 272.563 134.464 272.952 134.464C273.352 134.464 273.683 134.323 273.944 134.04C274.205 133.757 274.336 133.405 274.336 132.984ZM280.026 132.92C280.026 133.533 279.829 134.045 279.434 134.456C279.045 134.861 278.573 135.064 278.018 135.064C277.805 135.064 277.599 135.029 277.402 134.96C277.21 134.891 277.015 134.784 276.818 134.64V136.528H276.098V131.096L276.818 130.936V131.584C277.042 131.349 277.263 131.181 277.482 131.08C277.701 130.973 277.941 130.92 278.202 130.92C278.714 130.92 279.146 131.112 279.498 131.496C279.85 131.875 280.026 132.349 280.026 132.92ZM279.282 132.976C279.282 132.56 279.159 132.221 278.914 131.96C278.674 131.699 278.373 131.568 278.01 131.568C277.802 131.568 277.605 131.608 277.418 131.688C277.231 131.768 277.031 131.896 276.818 132.072V134.08C276.999 134.197 277.175 134.285 277.346 134.344C277.522 134.397 277.706 134.424 277.898 134.424C278.298 134.424 278.629 134.288 278.89 134.016C279.151 133.739 279.282 133.392 279.282 132.976ZM284.987 132.92C284.987 133.533 284.79 134.045 284.395 134.456C284.006 134.861 283.534 135.064 282.979 135.064C282.766 135.064 282.56 135.029 282.363 134.96C282.171 134.891 281.976 134.784 281.779 134.64V136.528H281.059V131.096L281.779 130.936V131.584C282.003 131.349 282.224 131.181 282.443 131.08C282.662 130.973 282.902 130.92 283.163 130.92C283.675 130.92 284.107 131.112 284.459 131.496C284.811 131.875 284.987 132.349 284.987 132.92ZM284.243 132.976C284.243 132.56 284.12 132.221 283.875 131.96C283.635 131.699 283.334 131.568 282.971 131.568C282.763 131.568 282.566 131.608 282.379 131.688C282.192 131.768 281.992 131.896 281.779 132.072V134.08C281.96 134.197 282.136 134.285 282.307 134.344C282.483 134.397 282.667 134.424 282.859 134.424C283.259 134.424 283.59 134.288 283.851 134.016C284.112 133.739 284.243 133.392 284.243 132.976ZM287.788 135.112C287.175 135.112 286.671 134.909 286.276 134.504C285.881 134.093 285.684 133.595 285.684 133.008C285.684 132.427 285.887 131.928 286.292 131.512C286.697 131.096 287.201 130.888 287.804 130.888C288.423 130.888 288.927 131.091 289.316 131.496C289.711 131.896 289.908 132.392 289.908 132.984C289.908 133.571 289.705 134.072 289.3 134.488C288.9 134.904 288.396 135.112 287.788 135.112ZM289.172 132.984C289.172 132.568 289.041 132.224 288.78 131.952C288.524 131.675 288.199 131.536 287.804 131.536C287.404 131.536 287.073 131.677 286.812 131.96C286.556 132.237 286.428 132.587 286.428 133.008C286.428 133.424 286.556 133.771 286.812 134.048C287.073 134.325 287.399 134.464 287.788 134.464C288.188 134.464 288.519 134.323 288.78 134.04C289.041 133.757 289.172 133.405 289.172 132.984ZM293.142 131.704C292.907 131.704 292.675 131.76 292.446 131.872C292.222 131.984 291.958 132.173 291.654 132.44V135H290.934V131.096L291.654 130.936V131.952C291.985 131.541 292.243 131.269 292.43 131.136C292.622 131.003 292.827 130.936 293.046 130.936C293.094 130.936 293.134 130.939 293.166 130.944C293.203 130.949 293.249 130.957 293.302 130.968L293.358 131.728C293.321 131.717 293.283 131.712 293.246 131.712C293.214 131.707 293.179 131.704 293.142 131.704ZM296.822 134.04L296.662 134.808C296.545 134.893 296.406 134.96 296.246 135.008C296.086 135.061 295.921 135.088 295.75 135.088C295.372 135.088 295.073 134.971 294.854 134.736C294.636 134.501 294.526 134.173 294.526 133.752V131.616H293.846V131H294.526V130.104L295.238 129.84V131H296.806V131.616H295.238V133.72C295.238 133.96 295.294 134.141 295.406 134.264C295.518 134.381 295.684 134.44 295.902 134.44C296.052 134.44 296.201 134.408 296.35 134.344C296.5 134.275 296.652 134.171 296.806 134.032L296.822 134.04ZM301.312 135H300.584V134.248C300.355 134.541 300.128 134.755 299.904 134.888C299.68 135.016 299.432 135.08 299.16 135.08C298.739 135.08 298.398 134.939 298.136 134.656C297.88 134.373 297.752 133.995 297.752 133.52V131H298.48V133.448C298.48 133.757 298.558 134 298.712 134.176C298.872 134.347 299.091 134.432 299.368 134.432C299.571 134.432 299.763 134.379 299.944 134.272C300.131 134.16 300.344 133.973 300.584 133.712V131H301.312V135ZM304.604 131.568C304.396 131.568 304.199 131.624 304.012 131.736C303.831 131.843 303.62 132.027 303.38 132.288V135H302.66V131.096L303.38 130.936V131.752C303.61 131.459 303.836 131.248 304.06 131.12C304.284 130.987 304.532 130.92 304.804 130.92C305.226 130.92 305.564 131.061 305.82 131.344C306.082 131.627 306.212 132.005 306.212 132.48V135H305.492V132.552C305.492 132.243 305.412 132.003 305.252 131.832C305.098 131.656 304.882 131.568 304.604 131.568ZM307.889 129.072C308.027 129.072 308.145 129.12 308.241 129.216C308.337 129.312 308.385 129.429 308.385 129.568C308.385 129.707 308.337 129.824 308.241 129.92C308.145 130.016 308.027 130.064 307.889 130.064C307.75 130.064 307.633 130.016 307.537 129.92C307.441 129.824 307.393 129.707 307.393 129.568C307.393 129.429 307.441 129.312 307.537 129.216C307.633 129.12 307.75 129.072 307.889 129.072ZM308.249 135H307.529V131H308.249V135ZM312.213 134.04L312.053 134.808C311.936 134.893 311.797 134.96 311.637 135.008C311.477 135.061 311.312 135.088 311.141 135.088C310.762 135.088 310.464 134.971 310.245 134.736C310.026 134.501 309.917 134.173 309.917 133.752V131.616H309.237V131H309.917V130.104L310.629 129.84V131H312.197V131.616H310.629V133.72C310.629 133.96 310.685 134.141 310.797 134.264C310.909 134.381 311.074 134.44 311.293 134.44C311.442 134.44 311.592 134.408 311.741 134.344C311.89 134.275 312.042 134.171 312.197 134.032L312.213 134.04ZM316.759 131L314.903 135.448C314.748 135.821 314.554 136.101 314.319 136.288C314.084 136.475 313.812 136.568 313.503 136.568C313.386 136.568 313.271 136.555 313.159 136.528C313.047 136.507 312.938 136.469 312.831 136.416L312.687 135.68L312.703 135.672C312.831 135.747 312.948 135.8 313.055 135.832C313.162 135.869 313.274 135.888 313.391 135.888C313.583 135.888 313.746 135.832 313.879 135.72C314.018 135.613 314.138 135.443 314.239 135.208L314.423 134.776L312.727 131H313.527L314.791 133.952L315.975 131H316.759ZM317.508 135.072C317.358 135.072 317.23 135.019 317.124 134.912C317.017 134.805 316.964 134.677 316.964 134.528C316.964 134.379 317.017 134.251 317.124 134.144C317.23 134.037 317.358 133.984 317.508 133.984C317.657 133.984 317.782 134.037 317.884 134.144C317.99 134.251 318.044 134.379 318.044 134.528C318.044 134.677 317.99 134.805 317.884 134.912C317.782 135.019 317.657 135.072 317.508 135.072Z" fill="white"/>
<rect x="74" y="193" width="353" height="15" rx="5" fill="#E3E3E3"/>
<rect x="74" y="221" width="353" height="15" rx="5" fill="#E3E3E3"/>
<rect x="74" y="34" width="353" height="15" rx="5" fill="#E3E3E3"/>
<rect x="74" y="6" width="353" height="15" rx="5" fill="#E3E3E3"/>
<rect x="223" y="146" width="56" height="20" fill="white"/>
<path d="M238.388 159H235.044V153.4H238.364L238.604 154.288H236.052V155.736H238.18V156.576H236.052V158.112H238.628L238.388 159ZM241.587 155.712C241.421 155.712 241.267 155.752 241.123 155.832C240.979 155.912 240.811 156.051 240.619 156.248V159H239.675V155.056L240.611 154.896V155.648C240.819 155.376 241.027 155.179 241.235 155.056C241.448 154.933 241.683 154.872 241.939 154.872C242.227 154.872 242.477 154.949 242.691 155.104C242.909 155.253 243.067 155.464 243.163 155.736C243.387 155.432 243.611 155.213 243.835 155.08C244.059 154.941 244.309 154.872 244.587 154.872C244.997 154.872 245.323 155.013 245.563 155.296C245.808 155.579 245.931 155.96 245.931 156.44V159H244.987V156.584C244.987 156.312 244.92 156.099 244.787 155.944C244.659 155.789 244.477 155.712 244.243 155.712C244.077 155.712 243.92 155.755 243.771 155.84C243.627 155.92 243.459 156.056 243.267 156.248C243.272 156.269 243.275 156.293 243.275 156.32C243.275 156.347 243.275 156.387 243.275 156.44V159H242.331V156.584C242.331 156.312 242.264 156.099 242.131 155.944C242.003 155.789 241.821 155.712 241.587 155.712ZM250.513 156.6V158.904L249.585 159.064V158.4C249.302 158.624 249.033 158.792 248.777 158.904C248.526 159.011 248.278 159.064 248.033 159.064C247.675 159.064 247.387 158.965 247.169 158.768C246.955 158.571 246.849 158.307 246.849 157.976C246.849 157.523 247.073 157.184 247.521 156.96C247.974 156.736 248.659 156.619 249.577 156.608C249.571 156.309 249.494 156.085 249.345 155.936C249.201 155.781 248.99 155.704 248.713 155.704C248.489 155.704 248.257 155.752 248.017 155.848C247.782 155.939 247.542 156.075 247.297 156.256L247.281 156.248L247.449 155.288C247.673 155.149 247.899 155.048 248.129 154.984C248.363 154.915 248.614 154.88 248.881 154.88C249.409 154.88 249.811 155.027 250.089 155.32C250.371 155.613 250.513 156.04 250.513 156.6ZM247.753 157.904C247.753 158.037 247.798 158.144 247.889 158.224C247.985 158.299 248.118 158.336 248.289 158.336C248.449 158.336 248.633 158.299 248.841 158.224C249.054 158.149 249.299 158.037 249.577 157.888V157.136C248.963 157.179 248.505 157.261 248.201 157.384C247.902 157.507 247.753 157.68 247.753 157.904ZM252.179 152.96C252.349 152.96 252.493 153.019 252.611 153.136C252.728 153.248 252.787 153.387 252.787 153.552C252.787 153.717 252.728 153.859 252.611 153.976C252.493 154.088 252.349 154.144 252.179 154.144C252.008 154.144 251.864 154.088 251.747 153.976C251.629 153.859 251.571 153.717 251.571 153.552C251.571 153.387 251.629 153.248 251.747 153.136C251.864 153.019 252.008 152.96 252.179 152.96ZM252.651 159H251.707V154.952H252.651V159ZM254.909 159H253.965V153.224L254.909 152.928V159ZM260.453 159.096C259.669 159.096 259.058 158.869 258.621 158.416C258.183 157.957 257.965 157.32 257.965 156.504V153.4H258.973V156.52C258.973 157.048 259.103 157.456 259.365 157.744C259.626 158.032 259.994 158.176 260.469 158.176C260.943 158.176 261.311 158.032 261.573 157.744C261.834 157.451 261.965 157.037 261.965 156.504V153.4H262.949V156.504C262.949 157.32 262.73 157.957 262.293 158.416C261.855 158.869 261.242 159.096 260.453 159.096ZM265.925 156.576C266.464 156.704 266.835 156.864 267.037 157.056C267.245 157.248 267.349 157.512 267.349 157.848C267.349 158.216 267.192 158.515 266.877 158.744C266.563 158.973 266.157 159.088 265.661 159.088C265.373 159.088 265.101 159.051 264.845 158.976C264.595 158.901 264.339 158.784 264.077 158.624L263.917 157.624L263.933 157.608C264.237 157.837 264.544 158.013 264.853 158.136C265.163 158.253 265.459 158.312 265.741 158.312C265.955 158.312 266.125 158.275 266.253 158.2C266.387 158.12 266.453 158.019 266.453 157.896C266.453 157.763 266.384 157.659 266.245 157.584C266.112 157.504 265.845 157.416 265.445 157.32C264.923 157.187 264.557 157.027 264.349 156.84C264.147 156.653 264.045 156.408 264.045 156.104C264.045 155.736 264.195 155.437 264.493 155.208C264.797 154.979 265.195 154.864 265.685 154.864C265.925 154.864 266.16 154.896 266.389 154.96C266.624 155.019 266.843 155.107 267.045 155.224V156.136H267.029C266.779 155.976 266.531 155.853 266.285 155.768C266.045 155.683 265.821 155.64 265.613 155.64C265.405 155.64 265.24 155.675 265.117 155.744C265 155.813 264.941 155.907 264.941 156.024C264.941 156.152 265.008 156.253 265.141 156.328C265.28 156.403 265.541 156.485 265.925 156.576Z" fill="#376C74"/>
</svg>
