<svg width="501" height="261" viewBox="0 0 501 261" fill="none" xmlns="http://www.w3.org/2000/svg">
<rect width="501" height="261" fill="white"/>
<rect x="67" y="50" width="113" height="77" rx="5" fill="#EEEEEE"/>
<path d="M93.3174 91.5721L67 119.049V122C67 124.761 69.2386 127 72 127H175C177.761 127 180 124.761 180 122V100.427L148.774 79.3384C148.376 79.0696 147.843 79.1218 147.505 79.4627L121.422 105.744C121.104 106.064 120.612 106.132 120.22 105.91L94.5315 91.3932C94.1335 91.1683 93.6336 91.2419 93.3174 91.5721Z" fill="#376C74"/>
<ellipse cx="100.011" cy="69.7272" rx="3.17416" ry="3.18182" fill="#376C74"/>
<path d="M86.956 143.621C86.826 144.232 86.449 144.843 85.929 145.259C85.708 145.441 85.201 145.675 84.486 145.675C82.289 145.675 80.859 143.933 80.859 141.489C80.859 139.643 81.977 138.07 83.862 138.07C85.11 138.07 85.708 138.486 85.942 138.629C86.449 138.941 86.657 139.604 86.709 140.189H86.995V138.044C86.033 137.81 85.305 137.576 84.057 137.576C81.535 137.576 79.507 139.305 79.507 141.801C79.507 144.258 81.418 146.169 84.031 146.169C85.526 146.169 85.864 146.013 86.813 145.714L87.268 143.699L86.956 143.621ZM94.4454 145.22L93.5614 145.376C93.4444 145.324 93.3014 145.129 93.3014 144.856V140.267H93.1844L91.2084 140.592V140.852C92.1054 140.956 92.2874 141.125 92.2874 141.645V145.025C91.9104 145.22 91.5334 145.428 91.0134 145.428C90.2464 145.428 89.8044 144.804 89.8044 144.115L89.8174 140.267H89.6744L87.9064 140.592V140.852C88.5434 141.021 88.7644 141.19 88.7644 141.645V144.336C88.7644 145.402 89.0764 146.143 90.2334 146.143C90.7014 146.143 91.7024 145.701 92.2874 145.285L92.3654 146.169H92.5214L94.4454 145.545V145.22ZM98.9464 144.375C98.9464 143.517 98.3744 143.153 97.3604 142.737C96.3724 142.334 96.1514 142.061 96.1514 141.515C96.1514 141.177 96.3074 140.618 97.3604 140.618C97.6594 140.618 98.1794 141.229 98.5694 141.983H98.8554L98.7904 140.605C98.4524 140.449 97.9064 140.254 97.2174 140.254C96.0734 140.254 95.1894 140.995 95.1894 141.892C95.1894 142.789 95.7094 143.179 96.7884 143.621C97.5164 143.92 97.9714 144.206 97.9714 144.752C97.9714 145.233 97.7244 145.74 96.6324 145.74C96.3594 145.74 95.7484 145.077 95.3454 144.323H95.0204L95.1764 145.766C95.5014 145.922 96.0604 146.13 97.0224 146.13C98.1404 146.13 98.9464 145.311 98.9464 144.375ZM103.612 145.207C103.482 145.259 103.053 145.441 102.754 145.441C101.987 145.441 101.532 144.986 101.532 144.258C101.532 143.101 101.558 142.36 101.584 141.047L103.508 141.06V140.449H101.571L101.584 139.24H101.415L99.8678 140.774V141.047L100.583 141.034C100.557 142.269 100.479 143.192 100.479 144.427C100.479 145.467 100.83 146.104 102.013 146.104C102.481 146.104 103.274 145.74 103.612 145.467V145.207ZM109.636 143.179C109.636 141.424 108.609 140.241 106.906 140.241C105.216 140.241 103.994 141.437 103.994 143.127C103.994 144.973 105.021 146.117 106.737 146.117C108.401 146.117 109.636 144.895 109.636 143.179ZM108.466 143.517C108.466 144.674 107.894 145.701 107.023 145.701C105.84 145.701 105.177 144.414 105.177 142.802C105.177 141.723 105.775 140.657 106.555 140.657C107.777 140.657 108.466 141.827 108.466 143.517ZM120.557 145.649C120.063 145.61 119.751 145.584 119.491 145.402L119.452 142.035C119.439 140.956 119.114 140.254 117.944 140.254C117.463 140.254 116.397 140.8 115.838 141.229C115.643 140.631 115.201 140.241 114.382 140.241C113.914 140.241 112.926 140.722 112.341 141.151V140.215H112.198L110.573 140.865V141.073C111.171 141.268 111.327 141.541 111.327 141.814V145.311C111.21 145.532 111.145 145.662 110.508 145.701V146H113.173V145.701C112.523 145.636 112.484 145.571 112.341 145.311V141.424C112.744 141.177 113.368 140.969 113.706 140.969C114.486 140.969 114.85 141.671 114.85 142.269V145.311C114.759 145.532 114.694 145.662 114.07 145.701V146H116.722V145.701C116.085 145.636 116.046 145.571 115.89 145.311V141.45C116.293 141.19 116.878 140.995 117.242 140.995C118.009 140.995 118.399 141.619 118.412 142.282L118.451 145.298C118.334 145.519 118.256 145.662 117.645 145.701V146.013C117.97 146 118.425 145.974 118.919 145.974C119.569 145.974 120.167 145.987 120.557 146V145.649ZM131.542 143.621C131.412 144.232 131.035 144.843 130.515 145.259C130.294 145.441 129.787 145.675 129.072 145.675C126.875 145.675 125.445 143.933 125.445 141.489C125.445 139.643 126.563 138.07 128.448 138.07C129.696 138.07 130.294 138.486 130.528 138.629C131.035 138.941 131.243 139.604 131.295 140.189H131.581V138.044C130.619 137.81 129.891 137.576 128.643 137.576C126.121 137.576 124.093 139.305 124.093 141.801C124.093 144.258 126.004 146.169 128.617 146.169C130.112 146.169 130.45 146.013 131.399 145.714L131.854 143.699L131.542 143.621ZM137.939 145.051C137.64 145.259 137.471 145.376 137.185 145.376C136.912 145.376 136.626 145.207 136.639 144.674L136.691 141.866C136.704 140.865 136.314 140.241 135.131 140.241C134.559 140.241 133.168 140.787 132.804 141.879V142.022L133.857 141.827C133.883 141.19 134.195 140.735 134.559 140.735C135.157 140.735 135.651 141.385 135.638 141.983L135.625 142.893L132.934 143.842C132.726 144.141 132.674 144.583 132.674 144.934C132.674 145.688 133.337 146.117 133.974 146.117C134.455 146.117 135.17 145.753 135.625 145.285C135.638 145.584 135.911 146.117 136.574 146.117C136.99 146.117 137.627 145.714 137.939 145.389V145.051ZM135.612 145.038C135.209 145.324 134.962 145.454 134.442 145.454C134.052 145.454 133.831 145.09 133.831 144.7C133.831 144.44 133.87 144.154 133.922 143.946C134.299 143.738 135.287 143.361 135.625 143.205L135.612 145.038ZM142.55 140.54C142.251 140.397 141.952 140.293 141.627 140.293C141.159 140.293 140.639 140.839 140.054 141.463L140.028 140.228H139.898L138.247 140.839V141.086C138.897 141.242 139.066 141.463 139.066 141.723V145.298C138.949 145.519 138.884 145.636 138.247 145.688V146H141.276V145.675C140.717 145.597 140.223 145.532 140.08 145.272V141.71C140.379 141.437 140.522 141.242 140.86 141.242C141.198 141.242 141.484 141.372 141.887 141.606H142.017L142.55 140.54ZM149.381 145.207L148.328 145.376C148.289 145.311 148.133 145.142 148.133 144.856L148.107 137.42L148.354 136.978V136.796H148.146L146.014 137.381V137.628C146.911 137.706 147.093 137.823 147.106 138.356L147.145 140.423C146.898 140.358 146.521 140.241 146.157 140.241C144.038 140.241 142.829 141.645 142.829 143.426C142.829 145.259 143.973 146.117 145.143 146.117C145.754 146.117 146.534 145.675 147.119 145.246L147.236 146.195H147.405L149.381 145.532V145.207ZM147.119 144.999C146.755 145.194 146.261 145.389 145.936 145.389C144.675 145.389 143.947 144.31 143.947 143.036C143.947 141.827 144.558 140.696 145.546 140.696C146.066 140.696 146.872 141.073 147.106 141.801L147.119 144.999ZM158.204 145.701C157.606 145.675 156.878 145.493 156.748 145.246V138.187L157.008 137.745V137.563H156.787L154.187 138.434V138.72C155.175 138.72 155.617 138.733 155.617 139.305V145.246C155.487 145.493 154.759 145.675 154.161 145.701V146H158.204V145.701Z" fill="black"/>
<path d="M80.616 164H79.84V158.4H80.616V164ZM84.0771 160.568C83.8691 160.568 83.6718 160.624 83.4851 160.736C83.3038 160.843 83.0931 161.027 82.8531 161.288V164H82.1331V160.096L82.8531 159.936V160.752C83.0825 160.459 83.3091 160.248 83.5331 160.12C83.7571 159.987 84.0051 159.92 84.2771 159.92C84.6985 159.92 85.0371 160.061 85.2931 160.344C85.5545 160.627 85.6851 161.005 85.6851 161.48V164H84.9651V161.552C84.9651 161.243 84.8851 161.003 84.7251 160.832C84.5705 160.656 84.3545 160.568 84.0771 160.568ZM91.2558 163.04L91.0958 163.808C90.9785 163.893 90.8398 163.96 90.6798 164.008C90.5198 164.061 90.3545 164.088 90.1838 164.088C89.8051 164.088 89.5065 163.971 89.2878 163.736C89.0691 163.501 88.9598 163.173 88.9598 162.752V160.616H88.2798V160H88.9598V159.104L89.6718 158.84V160H91.2398V160.616H89.6718V162.72C89.6718 162.96 89.7278 163.141 89.8398 163.264C89.9518 163.381 90.1171 163.44 90.3358 163.44C90.4851 163.44 90.6345 163.408 90.7838 163.344C90.9331 163.275 91.0851 163.171 91.2398 163.032L91.2558 163.04ZM94.2099 160.568C94.0019 160.568 93.8046 160.624 93.6179 160.736C93.4366 160.843 93.2259 161.027 92.9859 161.288V164H92.2659V158.192L92.9859 157.928V160.752C93.2153 160.459 93.4419 160.248 93.6659 160.12C93.8899 159.987 94.1379 159.92 94.4099 159.92C94.8313 159.92 95.1699 160.061 95.4259 160.344C95.6873 160.627 95.8179 161.005 95.8179 161.48V164H95.0979V161.552C95.0979 161.243 95.0179 161.003 94.8579 160.832C94.7033 160.656 94.4873 160.568 94.2099 160.568ZM100.414 162.944L100.15 163.736C99.9154 163.864 99.6967 163.955 99.4941 164.008C99.2914 164.061 99.0701 164.088 98.8301 164.088C98.1954 164.088 97.6914 163.899 97.3181 163.52C96.9447 163.141 96.7581 162.635 96.7581 162C96.7581 161.413 96.9447 160.915 97.3181 160.504C97.6914 160.093 98.1554 159.888 98.7101 159.888C99.2647 159.888 99.7074 160.083 100.038 160.472C100.369 160.856 100.534 161.352 100.534 161.96C100.534 162.013 100.531 162.072 100.526 162.136C100.521 162.2 100.515 162.248 100.51 162.28H97.5021C97.5554 162.643 97.7047 162.925 97.9501 163.128C98.2007 163.331 98.5207 163.432 98.9101 163.432C99.1447 163.432 99.3901 163.389 99.6461 163.304C99.9074 163.213 100.158 163.091 100.398 162.936L100.414 162.944ZM98.6861 160.52C98.3607 160.52 98.0861 160.635 97.8621 160.864C97.6434 161.093 97.5181 161.387 97.4861 161.744H99.8061C99.7741 161.36 99.6594 161.061 99.4621 160.848C99.2647 160.629 99.0061 160.52 98.6861 160.52ZM104.857 161.664C105.385 161.787 105.751 161.941 105.953 162.128C106.161 162.315 106.265 162.571 106.265 162.896C106.265 163.243 106.113 163.528 105.809 163.752C105.511 163.976 105.127 164.088 104.657 164.088C104.375 164.088 104.105 164.048 103.849 163.968C103.593 163.888 103.34 163.765 103.089 163.6L102.937 162.728L102.953 162.72C103.252 162.955 103.553 163.133 103.857 163.256C104.161 163.379 104.455 163.44 104.737 163.44C104.977 163.44 105.175 163.395 105.329 163.304C105.489 163.208 105.569 163.085 105.569 162.936C105.569 162.776 105.495 162.651 105.345 162.56C105.201 162.469 104.913 162.373 104.481 162.272C103.964 162.149 103.604 161.997 103.401 161.816C103.199 161.635 103.097 161.397 103.097 161.104C103.097 160.752 103.241 160.467 103.529 160.248C103.823 160.024 104.199 159.912 104.657 159.912C104.881 159.912 105.105 159.944 105.329 160.008C105.553 160.072 105.767 160.163 105.969 160.28V161.048H105.953C105.703 160.888 105.46 160.768 105.225 160.688C104.996 160.603 104.78 160.56 104.577 160.56C104.337 160.56 104.145 160.603 104.001 160.688C103.863 160.773 103.793 160.885 103.793 161.024C103.793 161.173 103.865 161.293 104.009 161.384C104.153 161.469 104.436 161.563 104.857 161.664ZM109.889 163.04L109.729 163.808C109.611 163.893 109.473 163.96 109.313 164.008C109.153 164.061 108.987 164.088 108.817 164.088C108.438 164.088 108.139 163.971 107.921 163.736C107.702 163.501 107.593 163.173 107.593 162.752V160.616H106.913V160H107.593V159.104L108.305 158.84V160H109.873V160.616H108.305V162.72C108.305 162.96 108.361 163.141 108.473 163.264C108.585 163.381 108.75 163.44 108.969 163.44C109.118 163.44 109.267 163.408 109.417 163.344C109.566 163.275 109.718 163.171 109.873 163.032L109.889 163.04ZM114.435 160L112.579 164.448C112.424 164.821 112.229 165.101 111.995 165.288C111.76 165.475 111.488 165.568 111.179 165.568C111.061 165.568 110.947 165.555 110.835 165.528C110.723 165.507 110.613 165.469 110.507 165.416L110.363 164.68L110.379 164.672C110.507 164.747 110.624 164.8 110.731 164.832C110.837 164.869 110.949 164.888 111.067 164.888C111.259 164.888 111.421 164.832 111.555 164.72C111.693 164.613 111.813 164.443 111.915 164.208L112.099 163.776L110.403 160H111.203L112.467 162.952L113.651 160H114.435ZM116.042 164H115.322V158.192L116.042 157.928V164ZM120.758 162.944L120.494 163.736C120.259 163.864 120.04 163.955 119.838 164.008C119.635 164.061 119.414 164.088 119.174 164.088C118.539 164.088 118.035 163.899 117.662 163.52C117.288 163.141 117.102 162.635 117.102 162C117.102 161.413 117.288 160.915 117.662 160.504C118.035 160.093 118.499 159.888 119.054 159.888C119.608 159.888 120.051 160.083 120.382 160.472C120.712 160.856 120.878 161.352 120.878 161.96C120.878 162.013 120.875 162.072 120.87 162.136C120.864 162.2 120.859 162.248 120.854 162.28H117.846C117.899 162.643 118.048 162.925 118.294 163.128C118.544 163.331 118.864 163.432 119.254 163.432C119.488 163.432 119.734 163.389 119.99 163.304C120.251 163.213 120.502 163.091 120.742 162.936L120.758 162.944ZM119.03 160.52C118.704 160.52 118.43 160.635 118.206 160.864C117.987 161.093 117.862 161.387 117.83 161.744H120.15C120.118 161.36 120.003 161.061 119.806 160.848C119.608 160.629 119.35 160.52 119.03 160.52ZM125.401 164.112C124.788 164.112 124.284 163.909 123.889 163.504C123.494 163.093 123.297 162.595 123.297 162.008C123.297 161.427 123.5 160.928 123.905 160.512C124.31 160.096 124.814 159.888 125.417 159.888C126.036 159.888 126.54 160.091 126.929 160.496C127.324 160.896 127.521 161.392 127.521 161.984C127.521 162.571 127.318 163.072 126.913 163.488C126.513 163.904 126.009 164.112 125.401 164.112ZM126.785 161.984C126.785 161.568 126.654 161.224 126.393 160.952C126.137 160.675 125.812 160.536 125.417 160.536C125.017 160.536 124.686 160.677 124.425 160.96C124.169 161.237 124.041 161.587 124.041 162.008C124.041 162.424 124.169 162.771 124.425 163.048C124.686 163.325 125.012 163.464 125.401 163.464C125.801 163.464 126.132 163.323 126.393 163.04C126.654 162.757 126.785 162.405 126.785 161.984ZM130.939 160V160.616H129.619V164H128.899V160.616H128.187V160H128.899V159.368C128.899 158.925 129.019 158.579 129.259 158.328C129.499 158.072 129.827 157.944 130.243 157.944C130.371 157.944 130.489 157.955 130.595 157.976C130.702 157.997 130.811 158.035 130.923 158.088L131.043 158.832L131.027 158.84C130.878 158.755 130.747 158.696 130.635 158.664C130.523 158.627 130.409 158.608 130.291 158.608C130.083 158.608 129.918 158.675 129.795 158.808C129.678 158.936 129.619 159.115 129.619 159.344V160H130.939ZM136.733 161.568V163.904L136.013 164.064V163.352C135.714 163.592 135.432 163.771 135.165 163.888C134.904 164.005 134.648 164.064 134.397 164.064C134.045 164.064 133.76 163.968 133.541 163.776C133.322 163.579 133.213 163.317 133.213 162.992C133.213 162.533 133.442 162.195 133.901 161.976C134.36 161.752 135.064 161.635 136.013 161.624V161.608C136.013 161.277 135.933 161.027 135.773 160.856C135.618 160.68 135.392 160.592 135.093 160.592C134.869 160.592 134.637 160.64 134.397 160.736C134.162 160.832 133.92 160.976 133.669 161.168L133.653 161.16L133.805 160.352C134.018 160.208 134.24 160.101 134.469 160.032C134.704 159.963 134.949 159.928 135.205 159.928C135.696 159.928 136.072 160.069 136.333 160.352C136.6 160.635 136.733 161.04 136.733 161.568ZM133.941 162.96C133.941 163.109 133.994 163.229 134.101 163.32C134.208 163.405 134.354 163.448 134.541 163.448C134.728 163.448 134.941 163.403 135.181 163.312C135.421 163.221 135.698 163.08 136.013 162.888V162.088C135.32 162.131 134.8 162.224 134.453 162.368C134.112 162.507 133.941 162.704 133.941 162.96ZM143.671 161.92C143.671 162.533 143.473 163.045 143.079 163.456C142.689 163.861 142.217 164.064 141.663 164.064C141.449 164.064 141.244 164.029 141.047 163.96C140.855 163.891 140.66 163.784 140.463 163.64V165.528H139.743V160.096L140.463 159.936V160.584C140.687 160.349 140.908 160.181 141.127 160.08C141.345 159.973 141.585 159.92 141.847 159.92C142.359 159.92 142.791 160.112 143.143 160.496C143.495 160.875 143.671 161.349 143.671 161.92ZM142.927 161.976C142.927 161.56 142.804 161.221 142.559 160.96C142.319 160.699 142.017 160.568 141.655 160.568C141.447 160.568 141.249 160.608 141.062 160.688C140.876 160.768 140.676 160.896 140.463 161.072V163.08C140.644 163.197 140.82 163.285 140.991 163.344C141.167 163.397 141.351 163.424 141.543 163.424C141.943 163.424 142.273 163.288 142.535 163.016C142.796 162.739 142.927 162.392 142.927 161.976ZM145.463 164H144.743V158.192L145.463 157.928V164ZM150.116 161.568V163.904L149.396 164.064V163.352C149.097 163.592 148.814 163.771 148.548 163.888C148.286 164.005 148.03 164.064 147.78 164.064C147.428 164.064 147.142 163.968 146.924 163.776C146.705 163.579 146.596 163.317 146.596 162.992C146.596 162.533 146.825 162.195 147.284 161.976C147.742 161.752 148.446 161.635 149.396 161.624V161.608C149.396 161.277 149.316 161.027 149.156 160.856C149.001 160.68 148.774 160.592 148.476 160.592C148.252 160.592 148.02 160.64 147.78 160.736C147.545 160.832 147.302 160.976 147.052 161.168L147.036 161.16L147.188 160.352C147.401 160.208 147.622 160.101 147.852 160.032C148.086 159.963 148.332 159.928 148.588 159.928C149.078 159.928 149.454 160.069 149.716 160.352C149.982 160.635 150.116 161.04 150.116 161.568ZM147.324 162.96C147.324 163.109 147.377 163.229 147.484 163.32C147.59 163.405 147.737 163.448 147.924 163.448C148.11 163.448 148.324 163.403 148.564 163.312C148.804 163.221 149.081 163.08 149.396 162.888V162.088C148.702 162.131 148.182 162.224 147.836 162.368C147.494 162.507 147.324 162.704 147.324 162.96ZM154.857 160L153.001 164.448C152.846 164.821 152.651 165.101 152.417 165.288C152.182 165.475 151.91 165.568 151.601 165.568C151.483 165.568 151.369 165.555 151.257 165.528C151.145 165.507 151.035 165.469 150.929 165.416L150.785 164.68L150.801 164.672C150.929 164.747 151.046 164.8 151.153 164.832C151.259 164.869 151.371 164.888 151.489 164.888C151.681 164.888 151.843 164.832 151.977 164.72C152.115 164.613 152.235 164.443 152.337 164.208L152.521 163.776L150.825 160H151.625L152.889 162.952L154.073 160H154.857ZM156.103 158.072C156.242 158.072 156.359 158.12 156.455 158.216C156.551 158.312 156.599 158.429 156.599 158.568C156.599 158.707 156.551 158.824 156.455 158.92C156.359 159.016 156.242 159.064 156.103 159.064C155.965 159.064 155.847 159.016 155.751 158.92C155.655 158.824 155.607 158.707 155.607 158.568C155.607 158.429 155.655 158.312 155.751 158.216C155.847 158.12 155.965 158.072 156.103 158.072ZM156.463 164H155.743V160H156.463V164ZM159.804 160.568C159.596 160.568 159.398 160.624 159.212 160.736C159.03 160.843 158.82 161.027 158.58 161.288V164H157.86V160.096L158.58 159.936V160.752C158.809 160.459 159.036 160.248 159.26 160.12C159.484 159.987 159.732 159.92 160.004 159.92C160.425 159.92 160.764 160.061 161.02 160.344C161.281 160.627 161.412 161.005 161.412 161.48V164H160.692V161.552C160.692 161.243 160.612 161.003 160.452 160.832C160.297 160.656 160.081 160.568 159.804 160.568ZM166.296 160V163.616C166.296 164.224 166.109 164.701 165.736 165.048C165.368 165.395 164.864 165.568 164.224 165.568C163.952 165.568 163.688 165.539 163.432 165.48C163.176 165.421 162.917 165.328 162.656 165.2L162.504 164.392L162.52 164.384C162.84 164.565 163.136 164.696 163.408 164.776C163.685 164.861 163.968 164.904 164.256 164.904C164.65 164.904 164.968 164.787 165.208 164.552C165.448 164.323 165.568 164.011 165.568 163.616V163.256C165.328 163.491 165.093 163.661 164.864 163.768C164.634 163.869 164.389 163.92 164.128 163.92C163.616 163.92 163.192 163.741 162.856 163.384C162.525 163.027 162.36 162.573 162.36 162.024C162.36 161.416 162.57 160.917 162.992 160.528C163.418 160.133 163.941 159.936 164.56 159.936C164.741 159.936 164.92 159.955 165.096 159.992C165.272 160.029 165.461 160.091 165.664 160.176L166.2 160H166.296ZM164.576 160.552C164.154 160.552 163.802 160.688 163.52 160.96C163.242 161.232 163.104 161.573 163.104 161.984C163.104 162.373 163.218 162.688 163.448 162.928C163.677 163.168 163.976 163.288 164.344 163.288C164.546 163.288 164.744 163.248 164.936 163.168C165.133 163.083 165.344 162.947 165.568 162.76V160.776C165.392 160.701 165.224 160.645 165.064 160.608C164.904 160.571 164.741 160.552 164.576 160.552ZM82.912 174.808L82.784 175.64C82.5653 175.789 82.3387 175.904 82.104 175.984C81.8693 176.059 81.632 176.096 81.392 176.096C80.7893 176.096 80.2987 175.901 79.92 175.512C79.5413 175.123 79.352 174.621 79.352 174.008C79.352 173.411 79.552 172.912 79.952 172.512C80.3573 172.107 80.8667 171.904 81.48 171.904C81.7467 171.904 81.9893 171.944 82.208 172.024C82.4267 172.099 82.632 172.219 82.824 172.384V173.272H82.808C82.568 173.027 82.3387 172.848 82.12 172.736C81.9067 172.624 81.688 172.568 81.464 172.568C81.0747 172.568 80.7493 172.707 80.488 172.984C80.2267 173.261 80.096 173.6 80.096 174C80.096 174.416 80.2187 174.76 80.464 175.032C80.7147 175.299 81.0347 175.432 81.424 175.432C81.6587 175.432 81.9067 175.376 82.168 175.264C82.4293 175.147 82.672 174.992 82.896 174.8L82.912 174.808ZM87.2485 173.568V175.904L86.5285 176.064V175.352C86.2298 175.592 85.9472 175.771 85.6805 175.888C85.4192 176.005 85.1632 176.064 84.9125 176.064C84.5605 176.064 84.2752 175.968 84.0565 175.776C83.8378 175.579 83.7285 175.317 83.7285 174.992C83.7285 174.533 83.9578 174.195 84.4165 173.976C84.8752 173.752 85.5792 173.635 86.5285 173.624V173.608C86.5285 173.277 86.4485 173.027 86.2885 172.856C86.1338 172.68 85.9072 172.592 85.6085 172.592C85.3845 172.592 85.1525 172.64 84.9125 172.736C84.6778 172.832 84.4352 172.976 84.1845 173.168L84.1685 173.16L84.3205 172.352C84.5338 172.208 84.7552 172.101 84.9845 172.032C85.2192 171.963 85.4645 171.928 85.7205 171.928C86.2112 171.928 86.5872 172.069 86.8485 172.352C87.1152 172.635 87.2485 173.04 87.2485 173.568ZM84.4565 174.96C84.4565 175.109 84.5098 175.229 84.6165 175.32C84.7232 175.405 84.8698 175.448 85.0565 175.448C85.2432 175.448 85.4565 175.403 85.6965 175.312C85.9365 175.221 86.2138 175.08 86.5285 174.888V174.088C85.8352 174.131 85.3152 174.224 84.9685 174.368C84.6272 174.507 84.4565 174.704 84.4565 174.96ZM90.7396 172.704C90.5049 172.704 90.2729 172.76 90.0436 172.872C89.8196 172.984 89.5556 173.173 89.2516 173.44V176H88.5316V172.096L89.2516 171.936V172.952C89.5822 172.541 89.8409 172.269 90.0276 172.136C90.2196 172.003 90.4249 171.936 90.6436 171.936C90.6916 171.936 90.7316 171.939 90.7636 171.944C90.8009 171.949 90.8462 171.957 90.8996 171.968L90.9556 172.728C90.9182 172.717 90.8809 172.712 90.8436 172.712C90.8116 172.707 90.7769 172.704 90.7396 172.704ZM95.3818 176H94.6538V175.424C94.4244 175.653 94.2004 175.821 93.9818 175.928C93.7684 176.029 93.5311 176.08 93.2698 176.08C92.7578 176.08 92.3258 175.891 91.9738 175.512C91.6218 175.128 91.4458 174.651 91.4458 174.08C91.4458 173.467 91.6431 172.957 92.0378 172.552C92.4324 172.141 92.9071 171.936 93.4618 171.936C93.6698 171.936 93.8698 171.971 94.0618 172.04C94.2591 172.104 94.4564 172.208 94.6538 172.352V170.192L95.3818 169.928V176ZM93.5818 172.576C93.1818 172.576 92.8484 172.712 92.5818 172.984C92.3204 173.256 92.1898 173.603 92.1898 174.024C92.1898 174.435 92.3098 174.773 92.5498 175.04C92.7951 175.301 93.0991 175.432 93.4618 175.432C93.6698 175.432 93.8671 175.392 94.0538 175.312C94.2404 175.232 94.4404 175.104 94.6538 174.928V172.912C94.4671 172.795 94.2884 172.709 94.1178 172.656C93.9471 172.603 93.7684 172.576 93.5818 172.576ZM96.8787 176.072C96.7294 176.072 96.6014 176.019 96.4947 175.912C96.388 175.805 96.3347 175.677 96.3347 175.528C96.3347 175.379 96.388 175.251 96.4947 175.144C96.6014 175.037 96.7294 174.984 96.8787 174.984C97.028 174.984 97.1534 175.037 97.2547 175.144C97.3614 175.251 97.4147 175.379 97.4147 175.528C97.4147 175.677 97.3614 175.805 97.2547 175.912C97.1534 176.019 97.028 176.072 96.8787 176.072Z" fill="black"/>
<g filter="url(#filter0_d_319_425)">
<path d="M72 51.5H175C176.933 51.5 178.5 53.067 178.5 55V206C178.5 207.933 176.933 209.5 175 209.5H72C70.067 209.5 68.5 207.933 68.5 206V55C68.5 53.067 70.067 51.5 72 51.5Z" stroke="#D3D3D3" stroke-width="3" shape-rendering="crispEdges"/>
</g>
<rect x="194" y="50" width="113" height="77" rx="5" fill="#EEEEEE"/>
<path d="M220.317 91.5721L194 119.049V122C194 124.761 196.239 127 199 127H302C304.761 127 307 124.761 307 122V100.427L275.774 79.3384C275.376 79.0696 274.843 79.1218 274.505 79.4627L248.422 105.744C248.104 106.064 247.612 106.132 247.22 105.91L221.532 91.3932C221.134 91.1683 220.634 91.2419 220.317 91.5721Z" fill="#376C74"/>
<ellipse cx="227.011" cy="69.7272" rx="3.17416" ry="3.18182" fill="#376C74"/>
<path d="M213.956 143.621C213.826 144.232 213.449 144.843 212.929 145.259C212.708 145.441 212.201 145.675 211.486 145.675C209.289 145.675 207.859 143.933 207.859 141.489C207.859 139.643 208.977 138.07 210.862 138.07C212.11 138.07 212.708 138.486 212.942 138.629C213.449 138.941 213.657 139.604 213.709 140.189H213.995V138.044C213.033 137.81 212.305 137.576 211.057 137.576C208.535 137.576 206.507 139.305 206.507 141.801C206.507 144.258 208.418 146.169 211.031 146.169C212.526 146.169 212.864 146.013 213.813 145.714L214.268 143.699L213.956 143.621ZM221.445 145.22L220.561 145.376C220.444 145.324 220.301 145.129 220.301 144.856V140.267H220.184L218.208 140.592V140.852C219.105 140.956 219.287 141.125 219.287 141.645V145.025C218.91 145.22 218.533 145.428 218.013 145.428C217.246 145.428 216.804 144.804 216.804 144.115L216.817 140.267H216.674L214.906 140.592V140.852C215.543 141.021 215.764 141.19 215.764 141.645V144.336C215.764 145.402 216.076 146.143 217.233 146.143C217.701 146.143 218.702 145.701 219.287 145.285L219.365 146.169H219.521L221.445 145.545V145.22ZM225.946 144.375C225.946 143.517 225.374 143.153 224.36 142.737C223.372 142.334 223.151 142.061 223.151 141.515C223.151 141.177 223.307 140.618 224.36 140.618C224.659 140.618 225.179 141.229 225.569 141.983H225.855L225.79 140.605C225.452 140.449 224.906 140.254 224.217 140.254C223.073 140.254 222.189 140.995 222.189 141.892C222.189 142.789 222.709 143.179 223.788 143.621C224.516 143.92 224.971 144.206 224.971 144.752C224.971 145.233 224.724 145.74 223.632 145.74C223.359 145.74 222.748 145.077 222.345 144.323H222.02L222.176 145.766C222.501 145.922 223.06 146.13 224.022 146.13C225.14 146.13 225.946 145.311 225.946 144.375ZM230.612 145.207C230.482 145.259 230.053 145.441 229.754 145.441C228.987 145.441 228.532 144.986 228.532 144.258C228.532 143.101 228.558 142.36 228.584 141.047L230.508 141.06V140.449H228.571L228.584 139.24H228.415L226.868 140.774V141.047L227.583 141.034C227.557 142.269 227.479 143.192 227.479 144.427C227.479 145.467 227.83 146.104 229.013 146.104C229.481 146.104 230.274 145.74 230.612 145.467V145.207ZM236.636 143.179C236.636 141.424 235.609 140.241 233.906 140.241C232.216 140.241 230.994 141.437 230.994 143.127C230.994 144.973 232.021 146.117 233.737 146.117C235.401 146.117 236.636 144.895 236.636 143.179ZM235.466 143.517C235.466 144.674 234.894 145.701 234.023 145.701C232.84 145.701 232.177 144.414 232.177 142.802C232.177 141.723 232.775 140.657 233.555 140.657C234.777 140.657 235.466 141.827 235.466 143.517ZM247.557 145.649C247.063 145.61 246.751 145.584 246.491 145.402L246.452 142.035C246.439 140.956 246.114 140.254 244.944 140.254C244.463 140.254 243.397 140.8 242.838 141.229C242.643 140.631 242.201 140.241 241.382 140.241C240.914 140.241 239.926 140.722 239.341 141.151V140.215H239.198L237.573 140.865V141.073C238.171 141.268 238.327 141.541 238.327 141.814V145.311C238.21 145.532 238.145 145.662 237.508 145.701V146H240.173V145.701C239.523 145.636 239.484 145.571 239.341 145.311V141.424C239.744 141.177 240.368 140.969 240.706 140.969C241.486 140.969 241.85 141.671 241.85 142.269V145.311C241.759 145.532 241.694 145.662 241.07 145.701V146H243.722V145.701C243.085 145.636 243.046 145.571 242.89 145.311V141.45C243.293 141.19 243.878 140.995 244.242 140.995C245.009 140.995 245.399 141.619 245.412 142.282L245.451 145.298C245.334 145.519 245.256 145.662 244.645 145.701V146.013C244.97 146 245.425 145.974 245.919 145.974C246.569 145.974 247.167 145.987 247.557 146V145.649ZM258.542 143.621C258.412 144.232 258.035 144.843 257.515 145.259C257.294 145.441 256.787 145.675 256.072 145.675C253.875 145.675 252.445 143.933 252.445 141.489C252.445 139.643 253.563 138.07 255.448 138.07C256.696 138.07 257.294 138.486 257.528 138.629C258.035 138.941 258.243 139.604 258.295 140.189H258.581V138.044C257.619 137.81 256.891 137.576 255.643 137.576C253.121 137.576 251.093 139.305 251.093 141.801C251.093 144.258 253.004 146.169 255.617 146.169C257.112 146.169 257.45 146.013 258.399 145.714L258.854 143.699L258.542 143.621ZM264.939 145.051C264.64 145.259 264.471 145.376 264.185 145.376C263.912 145.376 263.626 145.207 263.639 144.674L263.691 141.866C263.704 140.865 263.314 140.241 262.131 140.241C261.559 140.241 260.168 140.787 259.804 141.879V142.022L260.857 141.827C260.883 141.19 261.195 140.735 261.559 140.735C262.157 140.735 262.651 141.385 262.638 141.983L262.625 142.893L259.934 143.842C259.726 144.141 259.674 144.583 259.674 144.934C259.674 145.688 260.337 146.117 260.974 146.117C261.455 146.117 262.17 145.753 262.625 145.285C262.638 145.584 262.911 146.117 263.574 146.117C263.99 146.117 264.627 145.714 264.939 145.389V145.051ZM262.612 145.038C262.209 145.324 261.962 145.454 261.442 145.454C261.052 145.454 260.831 145.09 260.831 144.7C260.831 144.44 260.87 144.154 260.922 143.946C261.299 143.738 262.287 143.361 262.625 143.205L262.612 145.038ZM269.55 140.54C269.251 140.397 268.952 140.293 268.627 140.293C268.159 140.293 267.639 140.839 267.054 141.463L267.028 140.228H266.898L265.247 140.839V141.086C265.897 141.242 266.066 141.463 266.066 141.723V145.298C265.949 145.519 265.884 145.636 265.247 145.688V146H268.276V145.675C267.717 145.597 267.223 145.532 267.08 145.272V141.71C267.379 141.437 267.522 141.242 267.86 141.242C268.198 141.242 268.484 141.372 268.887 141.606H269.017L269.55 140.54ZM276.381 145.207L275.328 145.376C275.289 145.311 275.133 145.142 275.133 144.856L275.107 137.42L275.354 136.978V136.796H275.146L273.014 137.381V137.628C273.911 137.706 274.093 137.823 274.106 138.356L274.145 140.423C273.898 140.358 273.521 140.241 273.157 140.241C271.038 140.241 269.829 141.645 269.829 143.426C269.829 145.259 270.973 146.117 272.143 146.117C272.754 146.117 273.534 145.675 274.119 145.246L274.236 146.195H274.405L276.381 145.532V145.207ZM274.119 144.999C273.755 145.194 273.261 145.389 272.936 145.389C271.675 145.389 270.947 144.31 270.947 143.036C270.947 141.827 271.558 140.696 272.546 140.696C273.066 140.696 273.872 141.073 274.106 141.801L274.119 144.999ZM286.062 143.725H285.802C285.776 144.31 285.477 144.895 285.204 145.025H281.538C283.397 143.452 285.438 142.204 285.438 139.916C285.438 138.512 284.359 137.563 282.916 137.563C281.148 137.563 280.329 138.915 280.082 140.072L280.355 140.163C280.654 139.435 281.304 138.577 282.5 138.577C283.488 138.577 284.203 139.175 284.203 140.254C284.203 141.84 283.176 143.413 279.913 145.779L280.004 146H286.062V143.725Z" fill="black"/>
<path d="M209.232 164.096C208.437 164.096 207.773 163.824 207.24 163.28C206.707 162.736 206.44 162.043 206.44 161.2C206.44 160.805 206.512 160.432 206.656 160.08C206.805 159.728 207.016 159.416 207.288 159.144C207.56 158.877 207.872 158.672 208.224 158.528C208.581 158.379 208.955 158.304 209.344 158.304C209.707 158.304 210.043 158.363 210.352 158.48C210.667 158.597 210.955 158.771 211.216 159V159.936H211.2C210.891 159.627 210.579 159.397 210.264 159.248C209.955 159.099 209.635 159.024 209.304 159.024C208.739 159.024 208.251 159.235 207.84 159.656C207.435 160.077 207.232 160.584 207.232 161.176C207.232 161.805 207.432 162.331 207.832 162.752C208.232 163.168 208.715 163.376 209.28 163.376C209.637 163.376 209.984 163.301 210.32 163.152C210.661 162.997 210.989 162.768 211.304 162.464L211.32 162.472L211.208 163.376C210.899 163.621 210.581 163.803 210.256 163.92C209.931 164.037 209.589 164.096 209.232 164.096ZM215.926 164H215.198V163.248C214.968 163.541 214.742 163.755 214.518 163.888C214.294 164.016 214.046 164.08 213.774 164.08C213.352 164.08 213.011 163.939 212.75 163.656C212.494 163.373 212.366 162.995 212.366 162.52V160H213.094V162.448C213.094 162.757 213.171 163 213.326 163.176C213.486 163.347 213.704 163.432 213.982 163.432C214.184 163.432 214.376 163.379 214.558 163.272C214.744 163.16 214.958 162.973 215.198 162.712V160H215.926V164ZM218.842 161.664C219.37 161.787 219.735 161.941 219.938 162.128C220.146 162.315 220.25 162.571 220.25 162.896C220.25 163.243 220.098 163.528 219.794 163.752C219.495 163.976 219.111 164.088 218.642 164.088C218.359 164.088 218.09 164.048 217.834 163.968C217.578 163.888 217.324 163.765 217.074 163.6L216.922 162.728L216.938 162.72C217.236 162.955 217.538 163.133 217.842 163.256C218.146 163.379 218.439 163.44 218.722 163.44C218.962 163.44 219.159 163.395 219.314 163.304C219.474 163.208 219.554 163.085 219.554 162.936C219.554 162.776 219.479 162.651 219.33 162.56C219.186 162.469 218.898 162.373 218.466 162.272C217.948 162.149 217.588 161.997 217.386 161.816C217.183 161.635 217.082 161.397 217.082 161.104C217.082 160.752 217.226 160.467 217.514 160.248C217.807 160.024 218.183 159.912 218.642 159.912C218.866 159.912 219.09 159.944 219.314 160.008C219.538 160.072 219.751 160.163 219.954 160.28V161.048H219.938C219.687 160.888 219.444 160.768 219.21 160.688C218.98 160.603 218.764 160.56 218.562 160.56C218.322 160.56 218.13 160.603 217.986 160.688C217.847 160.773 217.778 160.885 217.778 161.024C217.778 161.173 217.85 161.293 217.994 161.384C218.138 161.469 218.42 161.563 218.842 161.664ZM223.873 163.04L223.713 163.808C223.596 163.893 223.457 163.96 223.297 164.008C223.137 164.061 222.972 164.088 222.801 164.088C222.422 164.088 222.124 163.971 221.905 163.736C221.686 163.501 221.577 163.173 221.577 162.752V160.616H220.897V160H221.577V159.104L222.289 158.84V160H223.857V160.616H222.289V162.72C222.289 162.96 222.345 163.141 222.457 163.264C222.569 163.381 222.734 163.44 222.953 163.44C223.102 163.44 223.252 163.408 223.401 163.344C223.55 163.275 223.702 163.171 223.857 163.032L223.873 163.04ZM226.651 164.112C226.038 164.112 225.534 163.909 225.139 163.504C224.744 163.093 224.547 162.595 224.547 162.008C224.547 161.427 224.75 160.928 225.155 160.512C225.56 160.096 226.064 159.888 226.667 159.888C227.286 159.888 227.79 160.091 228.179 160.496C228.574 160.896 228.771 161.392 228.771 161.984C228.771 162.571 228.568 163.072 228.163 163.488C227.763 163.904 227.259 164.112 226.651 164.112ZM228.035 161.984C228.035 161.568 227.904 161.224 227.643 160.952C227.387 160.675 227.062 160.536 226.667 160.536C226.267 160.536 225.936 160.677 225.675 160.96C225.419 161.237 225.291 161.587 225.291 162.008C225.291 162.424 225.419 162.771 225.675 163.048C225.936 163.325 226.262 163.464 226.651 163.464C227.051 163.464 227.382 163.323 227.643 163.04C227.904 162.757 228.035 162.405 228.035 161.984ZM231.637 160.568C231.451 160.568 231.272 160.621 231.101 160.728C230.936 160.829 230.741 161.005 230.517 161.256V164H229.797V160.096L230.517 159.936V160.72C230.731 160.437 230.944 160.235 231.157 160.112C231.371 159.984 231.603 159.92 231.853 159.92C232.147 159.92 232.4 159.997 232.613 160.152C232.832 160.307 232.992 160.525 233.093 160.808C233.328 160.493 233.557 160.267 233.781 160.128C234.005 159.989 234.256 159.92 234.533 159.92C234.939 159.92 235.264 160.061 235.509 160.344C235.76 160.627 235.885 161.005 235.885 161.48V164H235.157V161.552C235.157 161.243 235.083 161.003 234.933 160.832C234.784 160.656 234.579 160.568 234.317 160.568C234.131 160.568 233.949 160.621 233.773 160.728C233.603 160.835 233.408 161.013 233.189 161.264C233.195 161.285 233.197 161.312 233.197 161.344C233.197 161.371 233.197 161.416 233.197 161.48V164H232.477V161.552C232.477 161.243 232.403 161.003 232.253 160.832C232.104 160.656 231.899 160.568 231.637 160.568ZM242.123 162.808L241.995 163.64C241.776 163.789 241.55 163.904 241.315 163.984C241.08 164.059 240.843 164.096 240.603 164.096C240 164.096 239.51 163.901 239.131 163.512C238.752 163.123 238.563 162.621 238.563 162.008C238.563 161.411 238.763 160.912 239.163 160.512C239.568 160.107 240.078 159.904 240.691 159.904C240.958 159.904 241.2 159.944 241.419 160.024C241.638 160.099 241.843 160.219 242.035 160.384V161.272H242.019C241.779 161.027 241.55 160.848 241.331 160.736C241.118 160.624 240.899 160.568 240.675 160.568C240.286 160.568 239.96 160.707 239.699 160.984C239.438 161.261 239.307 161.6 239.307 162C239.307 162.416 239.43 162.76 239.675 163.032C239.926 163.299 240.246 163.432 240.635 163.432C240.87 163.432 241.118 163.376 241.379 163.264C241.64 163.147 241.883 162.992 242.107 162.8L242.123 162.808ZM246.459 161.568V163.904L245.739 164.064V163.352C245.441 163.592 245.158 163.771 244.891 163.888C244.63 164.005 244.374 164.064 244.123 164.064C243.771 164.064 243.486 163.968 243.267 163.776C243.049 163.579 242.939 163.317 242.939 162.992C242.939 162.533 243.169 162.195 243.627 161.976C244.086 161.752 244.79 161.635 245.739 161.624V161.608C245.739 161.277 245.659 161.027 245.499 160.856C245.345 160.68 245.118 160.592 244.819 160.592C244.595 160.592 244.363 160.64 244.123 160.736C243.889 160.832 243.646 160.976 243.395 161.168L243.379 161.16L243.531 160.352C243.745 160.208 243.966 160.101 244.195 160.032C244.43 159.963 244.675 159.928 244.931 159.928C245.422 159.928 245.798 160.069 246.059 160.352C246.326 160.635 246.459 161.04 246.459 161.568ZM243.667 162.96C243.667 163.109 243.721 163.229 243.827 163.32C243.934 163.405 244.081 163.448 244.267 163.448C244.454 163.448 244.667 163.403 244.907 163.312C245.147 163.221 245.425 163.08 245.739 162.888V162.088C245.046 162.131 244.526 162.224 244.179 162.368C243.838 162.507 243.667 162.704 243.667 162.96ZM249.951 160.704C249.716 160.704 249.484 160.76 249.255 160.872C249.031 160.984 248.767 161.173 248.463 161.44V164H247.743V160.096L248.463 159.936V160.952C248.793 160.541 249.052 160.269 249.239 160.136C249.431 160.003 249.636 159.936 249.855 159.936C249.903 159.936 249.943 159.939 249.975 159.944C250.012 159.949 250.057 159.957 250.111 159.968L250.167 160.728C250.129 160.717 250.092 160.712 250.055 160.712C250.023 160.707 249.988 160.704 249.951 160.704ZM254.593 164H253.865V163.424C253.635 163.653 253.411 163.821 253.193 163.928C252.979 164.029 252.742 164.08 252.481 164.08C251.969 164.08 251.537 163.891 251.185 163.512C250.833 163.128 250.657 162.651 250.657 162.08C250.657 161.467 250.854 160.957 251.249 160.552C251.643 160.141 252.118 159.936 252.673 159.936C252.881 159.936 253.081 159.971 253.273 160.04C253.47 160.104 253.667 160.208 253.865 160.352V158.192L254.593 157.928V164ZM252.793 160.576C252.393 160.576 252.059 160.712 251.793 160.984C251.531 161.256 251.401 161.603 251.401 162.024C251.401 162.435 251.521 162.773 251.761 163.04C252.006 163.301 252.31 163.432 252.673 163.432C252.881 163.432 253.078 163.392 253.265 163.312C253.451 163.232 253.651 163.104 253.865 162.928V160.912C253.678 160.795 253.499 160.709 253.329 160.656C253.158 160.603 252.979 160.576 252.793 160.576ZM257.514 161.664C258.042 161.787 258.407 161.941 258.61 162.128C258.818 162.315 258.922 162.571 258.922 162.896C258.922 163.243 258.77 163.528 258.466 163.752C258.167 163.976 257.783 164.088 257.314 164.088C257.031 164.088 256.762 164.048 256.506 163.968C256.25 163.888 255.996 163.765 255.746 163.6L255.594 162.728L255.61 162.72C255.908 162.955 256.21 163.133 256.514 163.256C256.818 163.379 257.111 163.44 257.394 163.44C257.634 163.44 257.831 163.395 257.986 163.304C258.146 163.208 258.226 163.085 258.226 162.936C258.226 162.776 258.151 162.651 258.002 162.56C257.858 162.469 257.57 162.373 257.138 162.272C256.62 162.149 256.26 161.997 256.058 161.816C255.855 161.635 255.754 161.397 255.754 161.104C255.754 160.752 255.898 160.467 256.186 160.248C256.479 160.024 256.855 159.912 257.314 159.912C257.538 159.912 257.762 159.944 257.986 160.008C258.21 160.072 258.423 160.163 258.626 160.28V161.048H258.61C258.359 160.888 258.116 160.768 257.882 160.688C257.652 160.603 257.436 160.56 257.234 160.56C256.994 160.56 256.802 160.603 256.658 160.688C256.519 160.773 256.45 160.885 256.45 161.024C256.45 161.173 256.522 161.293 256.666 161.384C256.81 161.469 257.092 161.563 257.514 161.664ZM264.935 162.808L264.807 163.64C264.589 163.789 264.362 163.904 264.127 163.984C263.893 164.059 263.655 164.096 263.415 164.096C262.813 164.096 262.322 163.901 261.943 163.512C261.565 163.123 261.375 162.621 261.375 162.008C261.375 161.411 261.575 160.912 261.975 160.512C262.381 160.107 262.89 159.904 263.503 159.904C263.77 159.904 264.013 159.944 264.231 160.024C264.45 160.099 264.655 160.219 264.847 160.384V161.272H264.831C264.591 161.027 264.362 160.848 264.143 160.736C263.93 160.624 263.711 160.568 263.487 160.568C263.098 160.568 262.773 160.707 262.511 160.984C262.25 161.261 262.119 161.6 262.119 162C262.119 162.416 262.242 162.76 262.487 163.032C262.738 163.299 263.058 163.432 263.447 163.432C263.682 163.432 263.93 163.376 264.191 163.264C264.453 163.147 264.695 162.992 264.919 162.8L264.935 162.808ZM269.272 161.568V163.904L268.552 164.064V163.352C268.253 163.592 267.971 163.771 267.704 163.888C267.443 164.005 267.187 164.064 266.936 164.064C266.584 164.064 266.299 163.968 266.08 163.776C265.861 163.579 265.752 163.317 265.752 162.992C265.752 162.533 265.981 162.195 266.44 161.976C266.899 161.752 267.603 161.635 268.552 161.624V161.608C268.552 161.277 268.472 161.027 268.312 160.856C268.157 160.68 267.931 160.592 267.632 160.592C267.408 160.592 267.176 160.64 266.936 160.736C266.701 160.832 266.459 160.976 266.208 161.168L266.192 161.16L266.344 160.352C266.557 160.208 266.779 160.101 267.008 160.032C267.243 159.963 267.488 159.928 267.744 159.928C268.235 159.928 268.611 160.069 268.872 160.352C269.139 160.635 269.272 161.04 269.272 161.568ZM266.48 162.96C266.48 163.109 266.533 163.229 266.64 163.32C266.747 163.405 266.893 163.448 267.08 163.448C267.267 163.448 267.48 163.403 267.72 163.312C267.96 163.221 268.237 163.08 268.552 162.888V162.088C267.859 162.131 267.339 162.224 266.992 162.368C266.651 162.507 266.48 162.704 266.48 162.96ZM272.499 160.568C272.291 160.568 272.094 160.624 271.907 160.736C271.726 160.843 271.515 161.027 271.275 161.288V164H270.555V160.096L271.275 159.936V160.752C271.504 160.459 271.731 160.248 271.955 160.12C272.179 159.987 272.427 159.92 272.699 159.92C273.12 159.92 273.459 160.061 273.715 160.344C273.976 160.627 274.107 161.005 274.107 161.48V164H273.387V161.552C273.387 161.243 273.307 161.003 273.147 160.832C272.992 160.656 272.776 160.568 272.499 160.568ZM277.87 164H277.15V158.192L277.87 157.928V164ZM279.666 158.072C279.805 158.072 279.922 158.12 280.018 158.216C280.114 158.312 280.162 158.429 280.162 158.568C280.162 158.707 280.114 158.824 280.018 158.92C279.922 159.016 279.805 159.064 279.666 159.064C279.527 159.064 279.41 159.016 279.314 158.92C279.218 158.824 279.17 158.707 279.17 158.568C279.17 158.429 279.218 158.312 279.314 158.216C279.41 158.12 279.527 158.072 279.666 158.072ZM280.026 164H279.306V160H280.026V164ZM283.366 160.568C283.158 160.568 282.961 160.624 282.774 160.736C282.593 160.843 282.382 161.027 282.142 161.288V164H281.422V160.096L282.142 159.936V160.752C282.372 160.459 282.598 160.248 282.822 160.12C283.046 159.987 283.294 159.92 283.566 159.92C283.988 159.92 284.326 160.061 284.582 160.344C284.844 160.627 284.974 161.005 284.974 161.48V164H284.254V161.552C284.254 161.243 284.174 161.003 284.014 160.832C283.86 160.656 283.644 160.568 283.366 160.568ZM289.914 164H288.962L287.202 162.24H286.97V164H286.25V158.192L286.97 157.928V161.696H287.194L288.866 160H289.778V160.016L287.818 161.944L289.914 163.984V164ZM208.448 176.112C207.835 176.112 207.331 175.909 206.936 175.504C206.541 175.093 206.344 174.595 206.344 174.008C206.344 173.427 206.547 172.928 206.952 172.512C207.357 172.096 207.861 171.888 208.464 171.888C209.083 171.888 209.587 172.091 209.976 172.496C210.371 172.896 210.568 173.392 210.568 173.984C210.568 174.571 210.365 175.072 209.96 175.488C209.56 175.904 209.056 176.112 208.448 176.112ZM209.832 173.984C209.832 173.568 209.701 173.224 209.44 172.952C209.184 172.675 208.859 172.536 208.464 172.536C208.064 172.536 207.733 172.677 207.472 172.96C207.216 173.237 207.088 173.587 207.088 174.008C207.088 174.424 207.216 174.771 207.472 175.048C207.733 175.325 208.059 175.464 208.448 175.464C208.848 175.464 209.179 175.323 209.44 175.04C209.701 174.757 209.832 174.405 209.832 173.984ZM215.074 176H214.346V175.248C214.117 175.541 213.89 175.755 213.666 175.888C213.442 176.016 213.194 176.08 212.922 176.08C212.501 176.08 212.159 175.939 211.898 175.656C211.642 175.373 211.514 174.995 211.514 174.52V172H212.242V174.448C212.242 174.757 212.319 175 212.474 175.176C212.634 175.347 212.853 175.432 213.13 175.432C213.333 175.432 213.525 175.379 213.706 175.272C213.893 175.16 214.106 174.973 214.346 174.712V172H215.074V176ZM218.99 175.04L218.83 175.808C218.713 175.893 218.574 175.96 218.414 176.008C218.254 176.061 218.089 176.088 217.918 176.088C217.54 176.088 217.241 175.971 217.022 175.736C216.804 175.501 216.694 175.173 216.694 174.752V172.616H216.014V172H216.694V171.104L217.406 170.84V172H218.974V172.616H217.406V174.72C217.406 174.96 217.462 175.141 217.574 175.264C217.686 175.381 217.852 175.44 218.07 175.44C218.22 175.44 218.369 175.408 218.518 175.344C218.668 175.275 218.82 175.171 218.974 175.032L218.99 175.04ZM224.295 175.04L224.135 175.808C224.018 175.893 223.879 175.96 223.719 176.008C223.559 176.061 223.394 176.088 223.223 176.088C222.844 176.088 222.546 175.971 222.327 175.736C222.108 175.501 221.999 175.173 221.999 174.752V172.616H221.319V172H221.999V171.104L222.711 170.84V172H224.279V172.616H222.711V174.72C222.711 174.96 222.767 175.141 222.879 175.264C222.991 175.381 223.156 175.44 223.375 175.44C223.524 175.44 223.674 175.408 223.823 175.344C223.972 175.275 224.124 175.171 224.279 175.032L224.295 175.04ZM227.073 176.112C226.46 176.112 225.956 175.909 225.561 175.504C225.166 175.093 224.969 174.595 224.969 174.008C224.969 173.427 225.172 172.928 225.577 172.512C225.982 172.096 226.486 171.888 227.089 171.888C227.708 171.888 228.212 172.091 228.601 172.496C228.996 172.896 229.193 173.392 229.193 173.984C229.193 174.571 228.99 175.072 228.585 175.488C228.185 175.904 227.681 176.112 227.073 176.112ZM228.457 173.984C228.457 173.568 228.326 173.224 228.065 172.952C227.809 172.675 227.484 172.536 227.089 172.536C226.689 172.536 226.358 172.677 226.097 172.96C225.841 173.237 225.713 173.587 225.713 174.008C225.713 174.424 225.841 174.771 226.097 175.048C226.358 175.325 226.684 175.464 227.073 175.464C227.473 175.464 227.804 175.323 228.065 175.04C228.326 174.757 228.457 174.405 228.457 173.984ZM235.202 173.568V175.904L234.482 176.064V175.352C234.183 175.592 233.9 175.771 233.634 175.888C233.372 176.005 233.116 176.064 232.866 176.064C232.514 176.064 232.228 175.968 232.01 175.776C231.791 175.579 231.682 175.317 231.682 174.992C231.682 174.533 231.911 174.195 232.37 173.976C232.828 173.752 233.532 173.635 234.482 173.624V173.608C234.482 173.277 234.402 173.027 234.242 172.856C234.087 172.68 233.86 172.592 233.562 172.592C233.338 172.592 233.106 172.64 232.866 172.736C232.631 172.832 232.388 172.976 232.138 173.168L232.122 173.16L232.274 172.352C232.487 172.208 232.708 172.101 232.938 172.032C233.172 171.963 233.418 171.928 233.674 171.928C234.164 171.928 234.54 172.069 234.802 172.352C235.068 172.635 235.202 173.04 235.202 173.568ZM232.41 174.96C232.41 175.109 232.463 175.229 232.57 175.32C232.676 175.405 232.823 175.448 233.01 175.448C233.196 175.448 233.41 175.403 233.65 175.312C233.89 175.221 234.167 175.08 234.482 174.888V174.088C233.788 174.131 233.268 174.224 232.922 174.368C232.58 174.507 232.41 174.704 232.41 174.96ZM242.139 173.92C242.139 174.533 241.942 175.045 241.547 175.456C241.158 175.861 240.686 176.064 240.131 176.064C239.918 176.064 239.713 176.029 239.515 175.96C239.323 175.891 239.129 175.784 238.931 175.64V177.528H238.211V172.096L238.931 171.936V172.584C239.155 172.349 239.377 172.181 239.595 172.08C239.814 171.973 240.054 171.92 240.315 171.92C240.827 171.92 241.259 172.112 241.611 172.496C241.963 172.875 242.139 173.349 242.139 173.92ZM241.395 173.976C241.395 173.56 241.273 173.221 241.027 172.96C240.787 172.699 240.486 172.568 240.123 172.568C239.915 172.568 239.718 172.608 239.531 172.688C239.345 172.768 239.145 172.896 238.931 173.072V175.08C239.113 175.197 239.289 175.285 239.459 175.344C239.635 175.397 239.819 175.424 240.011 175.424C240.411 175.424 240.742 175.288 241.003 175.016C241.265 174.739 241.395 174.392 241.395 173.976ZM246.428 173.568V175.904L245.708 176.064V175.352C245.41 175.592 245.127 175.771 244.86 175.888C244.599 176.005 244.343 176.064 244.092 176.064C243.74 176.064 243.455 175.968 243.236 175.776C243.018 175.579 242.908 175.317 242.908 174.992C242.908 174.533 243.138 174.195 243.596 173.976C244.055 173.752 244.759 173.635 245.708 173.624V173.608C245.708 173.277 245.628 173.027 245.468 172.856C245.314 172.68 245.087 172.592 244.788 172.592C244.564 172.592 244.332 172.64 244.092 172.736C243.858 172.832 243.615 172.976 243.364 173.168L243.348 173.16L243.5 172.352C243.714 172.208 243.935 172.101 244.164 172.032C244.399 171.963 244.644 171.928 244.9 171.928C245.391 171.928 245.767 172.069 246.028 172.352C246.295 172.635 246.428 173.04 246.428 173.568ZM243.636 174.96C243.636 175.109 243.69 175.229 243.796 175.32C243.903 175.405 244.05 175.448 244.236 175.448C244.423 175.448 244.636 175.403 244.876 175.312C245.116 175.221 245.394 175.08 245.708 174.888V174.088C245.015 174.131 244.495 174.224 244.148 174.368C243.807 174.507 243.636 174.704 243.636 174.96ZM251.319 172V175.616C251.319 176.224 251.133 176.701 250.759 177.048C250.391 177.395 249.887 177.568 249.247 177.568C248.975 177.568 248.711 177.539 248.455 177.48C248.199 177.421 247.941 177.328 247.679 177.2L247.527 176.392L247.543 176.384C247.863 176.565 248.159 176.696 248.431 176.776C248.709 176.861 248.991 176.904 249.279 176.904C249.674 176.904 249.991 176.787 250.231 176.552C250.471 176.323 250.591 176.011 250.591 175.616V175.256C250.351 175.491 250.117 175.661 249.887 175.768C249.658 175.869 249.413 175.92 249.151 175.92C248.639 175.92 248.215 175.741 247.879 175.384C247.549 175.027 247.383 174.573 247.383 174.024C247.383 173.416 247.594 172.917 248.015 172.528C248.442 172.133 248.965 171.936 249.583 171.936C249.765 171.936 249.943 171.955 250.119 171.992C250.295 172.029 250.485 172.091 250.687 172.176L251.223 172H251.319ZM249.599 172.552C249.178 172.552 248.826 172.688 248.543 172.96C248.266 173.232 248.127 173.573 248.127 173.984C248.127 174.373 248.242 174.688 248.471 174.928C248.701 175.168 248.999 175.288 249.367 175.288C249.57 175.288 249.767 175.248 249.959 175.168C250.157 175.083 250.367 174.947 250.591 174.76V172.776C250.415 172.701 250.247 172.645 250.087 172.608C249.927 172.571 249.765 172.552 249.599 172.552ZM255.992 174.944L255.728 175.736C255.494 175.864 255.275 175.955 255.072 176.008C254.87 176.061 254.648 176.088 254.408 176.088C253.774 176.088 253.27 175.899 252.896 175.52C252.523 175.141 252.336 174.635 252.336 174C252.336 173.413 252.523 172.915 252.896 172.504C253.27 172.093 253.734 171.888 254.288 171.888C254.843 171.888 255.286 172.083 255.616 172.472C255.947 172.856 256.112 173.352 256.112 173.96C256.112 174.013 256.11 174.072 256.104 174.136C256.099 174.2 256.094 174.248 256.088 174.28H253.08C253.134 174.643 253.283 174.925 253.528 175.128C253.779 175.331 254.099 175.432 254.488 175.432C254.723 175.432 254.968 175.389 255.224 175.304C255.486 175.213 255.736 175.091 255.976 174.936L255.992 174.944ZM254.264 172.52C253.939 172.52 253.664 172.635 253.44 172.864C253.222 173.093 253.096 173.387 253.064 173.744H255.384C255.352 173.36 255.238 173.061 255.04 172.848C254.843 172.629 254.584 172.52 254.264 172.52ZM257.285 176.072C257.136 176.072 257.008 176.019 256.901 175.912C256.794 175.805 256.741 175.677 256.741 175.528C256.741 175.379 256.794 175.251 256.901 175.144C257.008 175.037 257.136 174.984 257.285 174.984C257.434 174.984 257.56 175.037 257.661 175.144C257.768 175.251 257.821 175.379 257.821 175.528C257.821 175.677 257.768 175.805 257.661 175.912C257.56 176.019 257.434 176.072 257.285 176.072Z" fill="black"/>
<g filter="url(#filter1_d_319_425)">
<path d="M199 51.5H302C303.933 51.5 305.5 53.067 305.5 55V206C305.5 207.933 303.933 209.5 302 209.5H199C197.067 209.5 195.5 207.933 195.5 206V55C195.5 53.067 197.067 51.5 199 51.5Z" stroke="#D3D3D3" stroke-width="3" shape-rendering="crispEdges"/>
</g>
<rect x="321" y="50" width="113" height="77" rx="5" fill="#EEEEEE"/>
<path d="M347.317 91.5721L321 119.049V122C321 124.761 323.239 127 326 127H429C431.761 127 434 124.761 434 122V100.427L402.774 79.3384C402.376 79.0696 401.843 79.1218 401.505 79.4627L375.422 105.744C375.104 106.064 374.612 106.132 374.22 105.91L348.532 91.3932C348.134 91.1683 347.634 91.2419 347.317 91.5721Z" fill="#376C74"/>
<ellipse cx="354.011" cy="69.7272" rx="3.17416" ry="3.18182" fill="#376C74"/>
<g filter="url(#filter2_d_319_425)">
<path d="M326 51.5H429C430.933 51.5 432.5 53.067 432.5 55V206C432.5 207.933 430.933 209.5 429 209.5H326C324.067 209.5 322.5 207.933 322.5 206V55C322.5 53.067 324.067 51.5 326 51.5Z" stroke="#D3D3D3" stroke-width="3" shape-rendering="crispEdges"/>
</g>
<path d="M340.956 143.621C340.826 144.232 340.449 144.843 339.929 145.259C339.708 145.441 339.201 145.675 338.486 145.675C336.289 145.675 334.859 143.933 334.859 141.489C334.859 139.643 335.977 138.07 337.862 138.07C339.11 138.07 339.708 138.486 339.942 138.629C340.449 138.941 340.657 139.604 340.709 140.189H340.995V138.044C340.033 137.81 339.305 137.576 338.057 137.576C335.535 137.576 333.507 139.305 333.507 141.801C333.507 144.258 335.418 146.169 338.031 146.169C339.526 146.169 339.864 146.013 340.813 145.714L341.268 143.699L340.956 143.621ZM348.445 145.22L347.561 145.376C347.444 145.324 347.301 145.129 347.301 144.856V140.267H347.184L345.208 140.592V140.852C346.105 140.956 346.287 141.125 346.287 141.645V145.025C345.91 145.22 345.533 145.428 345.013 145.428C344.246 145.428 343.804 144.804 343.804 144.115L343.817 140.267H343.674L341.906 140.592V140.852C342.543 141.021 342.764 141.19 342.764 141.645V144.336C342.764 145.402 343.076 146.143 344.233 146.143C344.701 146.143 345.702 145.701 346.287 145.285L346.365 146.169H346.521L348.445 145.545V145.22ZM352.946 144.375C352.946 143.517 352.374 143.153 351.36 142.737C350.372 142.334 350.151 142.061 350.151 141.515C350.151 141.177 350.307 140.618 351.36 140.618C351.659 140.618 352.179 141.229 352.569 141.983H352.855L352.79 140.605C352.452 140.449 351.906 140.254 351.217 140.254C350.073 140.254 349.189 140.995 349.189 141.892C349.189 142.789 349.709 143.179 350.788 143.621C351.516 143.92 351.971 144.206 351.971 144.752C351.971 145.233 351.724 145.74 350.632 145.74C350.359 145.74 349.748 145.077 349.345 144.323H349.02L349.176 145.766C349.501 145.922 350.06 146.13 351.022 146.13C352.14 146.13 352.946 145.311 352.946 144.375ZM357.612 145.207C357.482 145.259 357.053 145.441 356.754 145.441C355.987 145.441 355.532 144.986 355.532 144.258C355.532 143.101 355.558 142.36 355.584 141.047L357.508 141.06V140.449H355.571L355.584 139.24H355.415L353.868 140.774V141.047L354.583 141.034C354.557 142.269 354.479 143.192 354.479 144.427C354.479 145.467 354.83 146.104 356.013 146.104C356.481 146.104 357.274 145.74 357.612 145.467V145.207ZM363.636 143.179C363.636 141.424 362.609 140.241 360.906 140.241C359.216 140.241 357.994 141.437 357.994 143.127C357.994 144.973 359.021 146.117 360.737 146.117C362.401 146.117 363.636 144.895 363.636 143.179ZM362.466 143.517C362.466 144.674 361.894 145.701 361.023 145.701C359.84 145.701 359.177 144.414 359.177 142.802C359.177 141.723 359.775 140.657 360.555 140.657C361.777 140.657 362.466 141.827 362.466 143.517ZM374.557 145.649C374.063 145.61 373.751 145.584 373.491 145.402L373.452 142.035C373.439 140.956 373.114 140.254 371.944 140.254C371.463 140.254 370.397 140.8 369.838 141.229C369.643 140.631 369.201 140.241 368.382 140.241C367.914 140.241 366.926 140.722 366.341 141.151V140.215H366.198L364.573 140.865V141.073C365.171 141.268 365.327 141.541 365.327 141.814V145.311C365.21 145.532 365.145 145.662 364.508 145.701V146H367.173V145.701C366.523 145.636 366.484 145.571 366.341 145.311V141.424C366.744 141.177 367.368 140.969 367.706 140.969C368.486 140.969 368.85 141.671 368.85 142.269V145.311C368.759 145.532 368.694 145.662 368.07 145.701V146H370.722V145.701C370.085 145.636 370.046 145.571 369.89 145.311V141.45C370.293 141.19 370.878 140.995 371.242 140.995C372.009 140.995 372.399 141.619 372.412 142.282L372.451 145.298C372.334 145.519 372.256 145.662 371.645 145.701V146.013C371.97 146 372.425 145.974 372.919 145.974C373.569 145.974 374.167 145.987 374.557 146V145.649ZM385.542 143.621C385.412 144.232 385.035 144.843 384.515 145.259C384.294 145.441 383.787 145.675 383.072 145.675C380.875 145.675 379.445 143.933 379.445 141.489C379.445 139.643 380.563 138.07 382.448 138.07C383.696 138.07 384.294 138.486 384.528 138.629C385.035 138.941 385.243 139.604 385.295 140.189H385.581V138.044C384.619 137.81 383.891 137.576 382.643 137.576C380.121 137.576 378.093 139.305 378.093 141.801C378.093 144.258 380.004 146.169 382.617 146.169C384.112 146.169 384.45 146.013 385.399 145.714L385.854 143.699L385.542 143.621ZM391.939 145.051C391.64 145.259 391.471 145.376 391.185 145.376C390.912 145.376 390.626 145.207 390.639 144.674L390.691 141.866C390.704 140.865 390.314 140.241 389.131 140.241C388.559 140.241 387.168 140.787 386.804 141.879V142.022L387.857 141.827C387.883 141.19 388.195 140.735 388.559 140.735C389.157 140.735 389.651 141.385 389.638 141.983L389.625 142.893L386.934 143.842C386.726 144.141 386.674 144.583 386.674 144.934C386.674 145.688 387.337 146.117 387.974 146.117C388.455 146.117 389.17 145.753 389.625 145.285C389.638 145.584 389.911 146.117 390.574 146.117C390.99 146.117 391.627 145.714 391.939 145.389V145.051ZM389.612 145.038C389.209 145.324 388.962 145.454 388.442 145.454C388.052 145.454 387.831 145.09 387.831 144.7C387.831 144.44 387.87 144.154 387.922 143.946C388.299 143.738 389.287 143.361 389.625 143.205L389.612 145.038ZM396.55 140.54C396.251 140.397 395.952 140.293 395.627 140.293C395.159 140.293 394.639 140.839 394.054 141.463L394.028 140.228H393.898L392.247 140.839V141.086C392.897 141.242 393.066 141.463 393.066 141.723V145.298C392.949 145.519 392.884 145.636 392.247 145.688V146H395.276V145.675C394.717 145.597 394.223 145.532 394.08 145.272V141.71C394.379 141.437 394.522 141.242 394.86 141.242C395.198 141.242 395.484 141.372 395.887 141.606H396.017L396.55 140.54ZM403.381 145.207L402.328 145.376C402.289 145.311 402.133 145.142 402.133 144.856L402.107 137.42L402.354 136.978V136.796H402.146L400.014 137.381V137.628C400.911 137.706 401.093 137.823 401.106 138.356L401.145 140.423C400.898 140.358 400.521 140.241 400.157 140.241C398.038 140.241 396.829 141.645 396.829 143.426C396.829 145.259 397.973 146.117 399.143 146.117C399.754 146.117 400.534 145.675 401.119 145.246L401.236 146.195H401.405L403.381 145.532V145.207ZM401.119 144.999C400.755 145.194 400.261 145.389 399.936 145.389C398.675 145.389 397.947 144.31 397.947 143.036C397.947 141.827 398.558 140.696 399.546 140.696C400.066 140.696 400.872 141.073 401.106 141.801L401.119 144.999ZM412.75 143.4C412.75 141.918 411.372 141.333 410.631 141.203C411.684 140.787 412.256 140.189 412.256 139.305C412.256 138.239 411.255 137.563 410.046 137.563C408.317 137.563 407.576 138.993 407.42 139.565L407.654 139.682C407.888 139.344 408.46 138.395 409.578 138.395C410.592 138.395 411.034 139.032 411.034 139.682C411.034 140.436 410.644 140.943 409.695 141.385C409.513 141.476 409.188 141.619 408.421 141.853L408.538 142.243C408.824 142.139 409.136 142.022 409.487 142.022C410.397 142.022 411.476 142.425 411.476 143.686C411.476 144.934 410.605 145.701 409.591 145.701C409.019 145.701 408.564 145.545 408.2 145.272C407.758 144.947 407.42 144.31 407.277 143.738H407.017L407.225 145.597C407.693 145.909 408.447 146.182 409.435 146.182C411.242 146.182 412.75 144.973 412.75 143.4Z" fill="black"/>
<path d="M336.976 164H333.8V158.4H336.952L337.184 159.096H334.576V160.808H336.76V161.496H334.576V163.304H337.208L336.976 164ZM341.608 161.568V163.904L340.888 164.064V163.352C340.589 163.592 340.307 163.771 340.04 163.888C339.779 164.005 339.523 164.064 339.272 164.064C338.92 164.064 338.635 163.968 338.416 163.776C338.197 163.579 338.088 163.317 338.088 162.992C338.088 162.533 338.317 162.195 338.776 161.976C339.235 161.752 339.939 161.635 340.888 161.624V161.608C340.888 161.277 340.808 161.027 340.648 160.856C340.493 160.68 340.267 160.592 339.968 160.592C339.744 160.592 339.512 160.64 339.272 160.736C339.037 160.832 338.795 160.976 338.544 161.168L338.528 161.16L338.68 160.352C338.893 160.208 339.115 160.101 339.344 160.032C339.579 159.963 339.824 159.928 340.08 159.928C340.571 159.928 340.947 160.069 341.208 160.352C341.475 160.635 341.608 161.04 341.608 161.568ZM338.816 162.96C338.816 163.109 338.869 163.229 338.976 163.32C339.083 163.405 339.229 163.448 339.416 163.448C339.603 163.448 339.816 163.403 340.056 163.312C340.296 163.221 340.573 163.08 340.888 162.888V162.088C340.195 162.131 339.675 162.224 339.328 162.368C338.987 162.507 338.816 162.704 338.816 162.96ZM344.459 161.664C344.987 161.787 345.352 161.941 345.555 162.128C345.763 162.315 345.867 162.571 345.867 162.896C345.867 163.243 345.715 163.528 345.411 163.752C345.112 163.976 344.728 164.088 344.259 164.088C343.976 164.088 343.707 164.048 343.451 163.968C343.195 163.888 342.942 163.765 342.691 163.6L342.539 162.728L342.555 162.72C342.854 162.955 343.155 163.133 343.459 163.256C343.763 163.379 344.056 163.44 344.339 163.44C344.579 163.44 344.776 163.395 344.931 163.304C345.091 163.208 345.171 163.085 345.171 162.936C345.171 162.776 345.096 162.651 344.947 162.56C344.803 162.469 344.515 162.373 344.083 162.272C343.566 162.149 343.206 161.997 343.003 161.816C342.8 161.635 342.699 161.397 342.699 161.104C342.699 160.752 342.843 160.467 343.131 160.248C343.424 160.024 343.8 159.912 344.259 159.912C344.483 159.912 344.707 159.944 344.931 160.008C345.155 160.072 345.368 160.163 345.571 160.28V161.048H345.555C345.304 160.888 345.062 160.768 344.827 160.688C344.598 160.603 344.382 160.56 344.179 160.56C343.939 160.56 343.747 160.603 343.603 160.688C343.464 160.773 343.395 160.885 343.395 161.024C343.395 161.173 343.467 161.293 343.611 161.384C343.755 161.469 344.038 161.563 344.459 161.664ZM350.458 160L348.602 164.448C348.448 164.821 348.253 165.101 348.018 165.288C347.784 165.475 347.512 165.568 347.202 165.568C347.085 165.568 346.97 165.555 346.858 165.528C346.746 165.507 346.637 165.469 346.53 165.416L346.386 164.68L346.402 164.672C346.53 164.747 346.648 164.8 346.754 164.832C346.861 164.869 346.973 164.888 347.09 164.888C347.282 164.888 347.445 164.832 347.578 164.72C347.717 164.613 347.837 164.443 347.938 164.208L348.122 163.776L346.426 160H347.226L348.49 162.952L349.674 160H350.458ZM355.6 163.04L355.44 163.808C355.322 163.893 355.184 163.96 355.024 164.008C354.864 164.061 354.698 164.088 354.528 164.088C354.149 164.088 353.85 163.971 353.632 163.736C353.413 163.501 353.304 163.173 353.304 162.752V160.616H352.624V160H353.304V159.104L354.016 158.84V160H355.584V160.616H354.016V162.72C354.016 162.96 354.072 163.141 354.184 163.264C354.296 163.381 354.461 163.44 354.68 163.44C354.829 163.44 354.978 163.408 355.128 163.344C355.277 163.275 355.429 163.171 355.584 163.032L355.6 163.04ZM358.378 164.112C357.764 164.112 357.26 163.909 356.866 163.504C356.471 163.093 356.274 162.595 356.274 162.008C356.274 161.427 356.476 160.928 356.882 160.512C357.287 160.096 357.791 159.888 358.394 159.888C359.012 159.888 359.516 160.091 359.906 160.496C360.3 160.896 360.498 161.392 360.498 161.984C360.498 162.571 360.295 163.072 359.89 163.488C359.49 163.904 358.986 164.112 358.378 164.112ZM359.762 161.984C359.762 161.568 359.631 161.224 359.37 160.952C359.114 160.675 358.788 160.536 358.394 160.536C357.994 160.536 357.663 160.677 357.402 160.96C357.146 161.237 357.018 161.587 357.018 162.008C357.018 162.424 357.146 162.771 357.402 163.048C357.663 163.325 357.988 163.464 358.378 163.464C358.778 163.464 359.108 163.323 359.37 163.04C359.631 162.757 359.762 162.405 359.762 161.984ZM364.818 161.664C365.346 161.787 365.712 161.941 365.914 162.128C366.122 162.315 366.226 162.571 366.226 162.896C366.226 163.243 366.074 163.528 365.77 163.752C365.472 163.976 365.088 164.088 364.618 164.088C364.336 164.088 364.066 164.048 363.81 163.968C363.554 163.888 363.301 163.765 363.05 163.6L362.898 162.728L362.914 162.72C363.213 162.955 363.514 163.133 363.818 163.256C364.122 163.379 364.416 163.44 364.698 163.44C364.938 163.44 365.136 163.395 365.29 163.304C365.45 163.208 365.53 163.085 365.53 162.936C365.53 162.776 365.456 162.651 365.306 162.56C365.162 162.469 364.874 162.373 364.442 162.272C363.925 162.149 363.565 161.997 363.362 161.816C363.16 161.635 363.058 161.397 363.058 161.104C363.058 160.752 363.202 160.467 363.49 160.248C363.784 160.024 364.16 159.912 364.618 159.912C364.842 159.912 365.066 159.944 365.29 160.008C365.514 160.072 365.728 160.163 365.93 160.28V161.048H365.914C365.664 160.888 365.421 160.768 365.186 160.688C364.957 160.603 364.741 160.56 364.538 160.56C364.298 160.56 364.106 160.603 363.962 160.688C363.824 160.773 363.754 160.885 363.754 161.024C363.754 161.173 363.826 161.293 363.97 161.384C364.114 161.469 364.397 161.563 364.818 161.664ZM370.514 162.808L370.386 163.64C370.167 163.789 369.94 163.904 369.706 163.984C369.471 164.059 369.234 164.096 368.994 164.096C368.391 164.096 367.9 163.901 367.522 163.512C367.143 163.123 366.954 162.621 366.954 162.008C366.954 161.411 367.154 160.912 367.554 160.512C367.959 160.107 368.468 159.904 369.082 159.904C369.348 159.904 369.591 159.944 369.81 160.024C370.028 160.099 370.234 160.219 370.426 160.384V161.272H370.41C370.17 161.027 369.94 160.848 369.722 160.736C369.508 160.624 369.29 160.568 369.066 160.568C368.676 160.568 368.351 160.707 368.09 160.984C367.828 161.261 367.698 161.6 367.698 162C367.698 162.416 367.82 162.76 368.066 163.032C368.316 163.299 368.636 163.432 369.026 163.432C369.26 163.432 369.508 163.376 369.77 163.264C370.031 163.147 370.274 162.992 370.498 162.8L370.514 162.808ZM374.85 161.568V163.904L374.13 164.064V163.352C373.831 163.592 373.549 163.771 373.282 163.888C373.021 164.005 372.765 164.064 372.514 164.064C372.162 164.064 371.877 163.968 371.658 163.776C371.439 163.579 371.33 163.317 371.33 162.992C371.33 162.533 371.559 162.195 372.018 161.976C372.477 161.752 373.181 161.635 374.13 161.624V161.608C374.13 161.277 374.05 161.027 373.89 160.856C373.735 160.68 373.509 160.592 373.21 160.592C372.986 160.592 372.754 160.64 372.514 160.736C372.279 160.832 372.037 160.976 371.786 161.168L371.77 161.16L371.922 160.352C372.135 160.208 372.357 160.101 372.586 160.032C372.821 159.963 373.066 159.928 373.322 159.928C373.813 159.928 374.189 160.069 374.45 160.352C374.717 160.635 374.85 161.04 374.85 161.568ZM372.058 162.96C372.058 163.109 372.111 163.229 372.218 163.32C372.325 163.405 372.471 163.448 372.658 163.448C372.845 163.448 373.058 163.403 373.298 163.312C373.538 163.221 373.815 163.08 374.13 162.888V162.088C373.437 162.131 372.917 162.224 372.57 162.368C372.229 162.507 372.058 162.704 372.058 162.96ZM378.077 160.568C377.869 160.568 377.672 160.624 377.485 160.736C377.304 160.843 377.093 161.027 376.853 161.288V164H376.133V160.096L376.853 159.936V160.752C377.082 160.459 377.309 160.248 377.533 160.12C377.757 159.987 378.005 159.92 378.277 159.92C378.698 159.92 379.037 160.061 379.293 160.344C379.554 160.627 379.685 161.005 379.685 161.48V164H378.965V161.552C378.965 161.243 378.885 161.003 378.725 160.832C378.57 160.656 378.354 160.568 378.077 160.568ZM385.92 162.808L385.792 163.64C385.573 163.789 385.346 163.904 385.112 163.984C384.877 164.059 384.64 164.096 384.4 164.096C383.797 164.096 383.306 163.901 382.928 163.512C382.549 163.123 382.36 162.621 382.36 162.008C382.36 161.411 382.56 160.912 382.96 160.512C383.365 160.107 383.874 159.904 384.488 159.904C384.754 159.904 384.997 159.944 385.216 160.024C385.434 160.099 385.64 160.219 385.832 160.384V161.272H385.816C385.576 161.027 385.346 160.848 385.128 160.736C384.914 160.624 384.696 160.568 384.472 160.568C384.082 160.568 383.757 160.707 383.496 160.984C383.234 161.261 383.104 161.6 383.104 162C383.104 162.416 383.226 162.76 383.472 163.032C383.722 163.299 384.042 163.432 384.432 163.432C384.666 163.432 384.914 163.376 385.176 163.264C385.437 163.147 385.68 162.992 385.904 162.8L385.92 162.808ZM388.768 164.112C388.155 164.112 387.651 163.909 387.256 163.504C386.862 163.093 386.664 162.595 386.664 162.008C386.664 161.427 386.867 160.928 387.272 160.512C387.678 160.096 388.182 159.888 388.784 159.888C389.403 159.888 389.907 160.091 390.296 160.496C390.691 160.896 390.888 161.392 390.888 161.984C390.888 162.571 390.686 163.072 390.28 163.488C389.88 163.904 389.376 164.112 388.768 164.112ZM390.152 161.984C390.152 161.568 390.022 161.224 389.76 160.952C389.504 160.675 389.179 160.536 388.784 160.536C388.384 160.536 388.054 160.677 387.792 160.96C387.536 161.237 387.408 161.587 387.408 162.008C387.408 162.424 387.536 162.771 387.792 163.048C388.054 163.325 388.379 163.464 388.768 163.464C389.168 163.464 389.499 163.323 389.76 163.04C390.022 162.757 390.152 162.405 390.152 161.984ZM392.674 164H391.954V158.192L392.674 157.928V164ZM394.831 164H394.111V158.192L394.831 157.928V164ZM399.547 162.944L399.283 163.736C399.048 163.864 398.83 163.955 398.627 164.008C398.424 164.061 398.203 164.088 397.963 164.088C397.328 164.088 396.824 163.899 396.451 163.52C396.078 163.141 395.891 162.635 395.891 162C395.891 161.413 396.078 160.915 396.451 160.504C396.824 160.093 397.288 159.888 397.843 159.888C398.398 159.888 398.84 160.083 399.171 160.472C399.502 160.856 399.667 161.352 399.667 161.96C399.667 162.013 399.664 162.072 399.659 162.136C399.654 162.2 399.648 162.248 399.643 162.28H396.635C396.688 162.643 396.838 162.925 397.083 163.128C397.334 163.331 397.654 163.432 398.043 163.432C398.278 163.432 398.523 163.389 398.779 163.304C399.04 163.213 399.291 163.091 399.531 162.936L399.547 162.944ZM397.819 160.52C397.494 160.52 397.219 160.635 396.995 160.864C396.776 161.093 396.651 161.387 396.619 161.744H398.939C398.907 161.36 398.792 161.061 398.595 160.848C398.398 160.629 398.139 160.52 397.819 160.52ZM403.928 162.808L403.8 163.64C403.581 163.789 403.354 163.904 403.12 163.984C402.885 164.059 402.648 164.096 402.408 164.096C401.805 164.096 401.314 163.901 400.936 163.512C400.557 163.123 400.368 162.621 400.368 162.008C400.368 161.411 400.568 160.912 400.968 160.512C401.373 160.107 401.882 159.904 402.496 159.904C402.762 159.904 403.005 159.944 403.224 160.024C403.442 160.099 403.648 160.219 403.84 160.384V161.272H403.824C403.584 161.027 403.354 160.848 403.136 160.736C402.922 160.624 402.704 160.568 402.48 160.568C402.09 160.568 401.765 160.707 401.504 160.984C401.242 161.261 401.112 161.6 401.112 162C401.112 162.416 401.234 162.76 401.48 163.032C401.73 163.299 402.05 163.432 402.44 163.432C402.674 163.432 402.922 163.376 403.184 163.264C403.445 163.147 403.688 162.992 403.912 162.8L403.928 162.808ZM407.576 163.04L407.416 163.808C407.299 163.893 407.16 163.96 407 164.008C406.84 164.061 406.675 164.088 406.504 164.088C406.125 164.088 405.827 163.971 405.608 163.736C405.389 163.501 405.28 163.173 405.28 162.752V160.616H404.6V160H405.28V159.104L405.992 158.84V160H407.56V160.616H405.992V162.72C405.992 162.96 406.048 163.141 406.16 163.264C406.272 163.381 406.437 163.44 406.656 163.44C406.805 163.44 406.955 163.408 407.104 163.344C407.253 163.275 407.405 163.171 407.56 163.032L407.576 163.04ZM408.986 158.072C409.125 158.072 409.242 158.12 409.338 158.216C409.434 158.312 409.482 158.429 409.482 158.568C409.482 158.707 409.434 158.824 409.338 158.92C409.242 159.016 409.125 159.064 408.986 159.064C408.848 159.064 408.73 159.016 408.634 158.92C408.538 158.824 408.49 158.707 408.49 158.568C408.49 158.429 408.538 158.312 408.634 158.216C408.73 158.12 408.848 158.072 408.986 158.072ZM409.346 164H408.626V160H409.346V164ZM412.511 164.112C411.897 164.112 411.393 163.909 410.999 163.504C410.604 163.093 410.407 162.595 410.407 162.008C410.407 161.427 410.609 160.928 411.015 160.512C411.42 160.096 411.924 159.888 412.527 159.888C413.145 159.888 413.649 160.091 414.039 160.496C414.433 160.896 414.631 161.392 414.631 161.984C414.631 162.571 414.428 163.072 414.023 163.488C413.623 163.904 413.119 164.112 412.511 164.112ZM413.895 161.984C413.895 161.568 413.764 161.224 413.503 160.952C413.247 160.675 412.921 160.536 412.527 160.536C412.127 160.536 411.796 160.677 411.535 160.96C411.279 161.237 411.151 161.587 411.151 162.008C411.151 162.424 411.279 162.771 411.535 163.048C411.796 163.325 412.121 163.464 412.511 163.464C412.911 163.464 413.241 163.323 413.503 163.04C413.764 162.757 413.895 162.405 413.895 161.984ZM417.601 160.568C417.393 160.568 417.195 160.624 417.009 160.736C416.827 160.843 416.617 161.027 416.377 161.288V164H415.657V160.096L416.377 159.936V160.752C416.606 160.459 416.833 160.248 417.057 160.12C417.281 159.987 417.529 159.92 417.801 159.92C418.222 159.92 418.561 160.061 418.817 160.344C419.078 160.627 419.209 161.005 419.209 161.48V164H418.489V161.552C418.489 161.243 418.409 161.003 418.249 160.832C418.094 160.656 417.878 160.568 417.601 160.568ZM335.448 176.112C334.835 176.112 334.331 175.909 333.936 175.504C333.541 175.093 333.344 174.595 333.344 174.008C333.344 173.427 333.547 172.928 333.952 172.512C334.357 172.096 334.861 171.888 335.464 171.888C336.083 171.888 336.587 172.091 336.976 172.496C337.371 172.896 337.568 173.392 337.568 173.984C337.568 174.571 337.365 175.072 336.96 175.488C336.56 175.904 336.056 176.112 335.448 176.112ZM336.832 173.984C336.832 173.568 336.701 173.224 336.44 172.952C336.184 172.675 335.859 172.536 335.464 172.536C335.064 172.536 334.733 172.677 334.472 172.96C334.216 173.237 334.088 173.587 334.088 174.008C334.088 174.424 334.216 174.771 334.472 175.048C334.733 175.325 335.059 175.464 335.448 175.464C335.848 175.464 336.179 175.323 336.44 175.04C336.701 174.757 336.832 174.405 336.832 173.984ZM340.986 172V172.616H339.666V176H338.946V172.616H338.234V172H338.946V171.368C338.946 170.925 339.066 170.579 339.306 170.328C339.546 170.072 339.874 169.944 340.29 169.944C340.418 169.944 340.535 169.955 340.642 169.976C340.749 169.997 340.858 170.035 340.97 170.088L341.09 170.832L341.074 170.84C340.925 170.755 340.794 170.696 340.682 170.664C340.57 170.627 340.455 170.608 340.338 170.608C340.13 170.608 339.965 170.675 339.842 170.808C339.725 170.936 339.666 171.115 339.666 171.344V172H340.986ZM343.924 170.072C344.062 170.072 344.18 170.12 344.276 170.216C344.372 170.312 344.42 170.429 344.42 170.568C344.42 170.707 344.372 170.824 344.276 170.92C344.18 171.016 344.062 171.064 343.924 171.064C343.785 171.064 343.668 171.016 343.572 170.92C343.476 170.824 343.428 170.707 343.428 170.568C343.428 170.429 343.476 170.312 343.572 170.216C343.668 170.12 343.785 170.072 343.924 170.072ZM344.284 176H343.564V172H344.284V176ZM348.248 175.04L348.088 175.808C347.971 175.893 347.832 175.96 347.672 176.008C347.512 176.061 347.347 176.088 347.176 176.088C346.797 176.088 346.499 175.971 346.28 175.736C346.061 175.501 345.952 175.173 345.952 174.752V172.616H345.272V172H345.952V171.104L346.664 170.84V172H348.232V172.616H346.664V174.72C346.664 174.96 346.72 175.141 346.832 175.264C346.944 175.381 347.109 175.44 347.328 175.44C347.477 175.44 347.627 175.408 347.776 175.344C347.925 175.275 348.077 175.171 348.232 175.032L348.248 175.04ZM352.578 174.944L352.314 175.736C352.079 175.864 351.861 175.955 351.658 176.008C351.455 176.061 351.234 176.088 350.994 176.088C350.359 176.088 349.855 175.899 349.482 175.52C349.109 175.141 348.922 174.635 348.922 174C348.922 173.413 349.109 172.915 349.482 172.504C349.855 172.093 350.319 171.888 350.874 171.888C351.429 171.888 351.871 172.083 352.202 172.472C352.533 172.856 352.698 173.352 352.698 173.96C352.698 174.013 352.695 174.072 352.69 174.136C352.685 174.2 352.679 174.248 352.674 174.28H349.666C349.719 174.643 349.869 174.925 350.114 175.128C350.365 175.331 350.685 175.432 351.074 175.432C351.309 175.432 351.554 175.389 351.81 175.304C352.071 175.213 352.322 175.091 352.562 174.936L352.578 174.944ZM350.85 172.52C350.525 172.52 350.25 172.635 350.026 172.864C349.807 173.093 349.682 173.387 349.65 173.744H351.97C351.938 173.36 351.823 173.061 351.626 172.848C351.429 172.629 351.17 172.52 350.85 172.52ZM355.567 172.568C355.38 172.568 355.202 172.621 355.031 172.728C354.866 172.829 354.671 173.005 354.447 173.256V176H353.727V172.096L354.447 171.936V172.72C354.66 172.437 354.874 172.235 355.087 172.112C355.3 171.984 355.532 171.92 355.783 171.92C356.076 171.92 356.33 171.997 356.543 172.152C356.762 172.307 356.922 172.525 357.023 172.808C357.258 172.493 357.487 172.267 357.711 172.128C357.935 171.989 358.186 171.92 358.463 171.92C358.868 171.92 359.194 172.061 359.439 172.344C359.69 172.627 359.815 173.005 359.815 173.48V176H359.087V173.552C359.087 173.243 359.012 173.003 358.863 172.832C358.714 172.656 358.508 172.568 358.247 172.568C358.06 172.568 357.879 172.621 357.703 172.728C357.532 172.835 357.338 173.013 357.119 173.264C357.124 173.285 357.127 173.312 357.127 173.344C357.127 173.371 357.127 173.416 357.127 173.48V176H356.407V173.552C356.407 173.243 356.332 173.003 356.183 172.832C356.034 172.656 355.828 172.568 355.567 172.568ZM362.662 173.664C363.19 173.787 363.555 173.941 363.758 174.128C363.966 174.315 364.07 174.571 364.07 174.896C364.07 175.243 363.918 175.528 363.614 175.752C363.315 175.976 362.931 176.088 362.462 176.088C362.179 176.088 361.91 176.048 361.654 175.968C361.398 175.888 361.145 175.765 360.894 175.6L360.742 174.728L360.758 174.72C361.057 174.955 361.358 175.133 361.662 175.256C361.966 175.379 362.259 175.44 362.542 175.44C362.782 175.44 362.979 175.395 363.134 175.304C363.294 175.208 363.374 175.085 363.374 174.936C363.374 174.776 363.299 174.651 363.15 174.56C363.006 174.469 362.718 174.373 362.286 174.272C361.769 174.149 361.409 173.997 361.206 173.816C361.003 173.635 360.902 173.397 360.902 173.104C360.902 172.752 361.046 172.467 361.334 172.248C361.627 172.024 362.003 171.912 362.462 171.912C362.686 171.912 362.91 171.944 363.134 172.008C363.358 172.072 363.571 172.163 363.774 172.28V173.048H363.758C363.507 172.888 363.265 172.768 363.03 172.688C362.801 172.603 362.585 172.56 362.382 172.56C362.142 172.56 361.95 172.603 361.806 172.688C361.667 172.773 361.598 172.885 361.598 173.024C361.598 173.173 361.67 173.293 361.814 173.384C361.958 173.469 362.241 173.563 362.662 173.664ZM365.269 176.072C365.12 176.072 364.992 176.019 364.885 175.912C364.779 175.805 364.725 175.677 364.725 175.528C364.725 175.379 364.779 175.251 364.885 175.144C364.992 175.037 365.12 174.984 365.269 174.984C365.419 174.984 365.544 175.037 365.645 175.144C365.752 175.251 365.805 175.379 365.805 175.528C365.805 175.677 365.752 175.805 365.645 175.912C365.544 176.019 365.419 176.072 365.269 176.072Z" fill="black"/>
<defs>
<filter id="filter0_d_319_425" x="65" y="50" width="117" height="165" filterUnits="userSpaceOnUse" color-interpolation-filters="sRGB">
<feFlood flood-opacity="0" result="BackgroundImageFix"/>
<feColorMatrix in="SourceAlpha" type="matrix" values="0 0 0 0 0 0 0 0 0 0 0 0 0 0 0 0 0 0 127 0" result="hardAlpha"/>
<feOffset dy="2"/>
<feGaussianBlur stdDeviation="1"/>
<feComposite in2="hardAlpha" operator="out"/>
<feColorMatrix type="matrix" values="0 0 0 0 0 0 0 0 0 0 0 0 0 0 0 0 0 0 0.11 0"/>
<feBlend mode="normal" in2="BackgroundImageFix" result="effect1_dropShadow_319_425"/>
<feBlend mode="normal" in="SourceGraphic" in2="effect1_dropShadow_319_425" result="shape"/>
</filter>
<filter id="filter1_d_319_425" x="192" y="50" width="117" height="165" filterUnits="userSpaceOnUse" color-interpolation-filters="sRGB">
<feFlood flood-opacity="0" result="BackgroundImageFix"/>
<feColorMatrix in="SourceAlpha" type="matrix" values="0 0 0 0 0 0 0 0 0 0 0 0 0 0 0 0 0 0 127 0" result="hardAlpha"/>
<feOffset dy="2"/>
<feGaussianBlur stdDeviation="1"/>
<feComposite in2="hardAlpha" operator="out"/>
<feColorMatrix type="matrix" values="0 0 0 0 0 0 0 0 0 0 0 0 0 0 0 0 0 0 0.11 0"/>
<feBlend mode="normal" in2="BackgroundImageFix" result="effect1_dropShadow_319_425"/>
<feBlend mode="normal" in="SourceGraphic" in2="effect1_dropShadow_319_425" result="shape"/>
</filter>
<filter id="filter2_d_319_425" x="319" y="50" width="117" height="165" filterUnits="userSpaceOnUse" color-interpolation-filters="sRGB">
<feFlood flood-opacity="0" result="BackgroundImageFix"/>
<feColorMatrix in="SourceAlpha" type="matrix" values="0 0 0 0 0 0 0 0 0 0 0 0 0 0 0 0 0 0 127 0" result="hardAlpha"/>
<feOffset dy="2"/>
<feGaussianBlur stdDeviation="1"/>
<feComposite in2="hardAlpha" operator="out"/>
<feColorMatrix type="matrix" values="0 0 0 0 0 0 0 0 0 0 0 0 0 0 0 0 0 0 0.11 0"/>
<feBlend mode="normal" in2="BackgroundImageFix" result="effect1_dropShadow_319_425"/>
<feBlend mode="normal" in="SourceGraphic" in2="effect1_dropShadow_319_425" result="shape"/>
</filter>
</defs>
</svg>
