
<svg width="170" height="64" viewBox="0 0 170 64" fill="none" xmlns="http://www.w3.org/2000/svg">
<rect width="170" height="64" fill="#D9D9D9"/>
<path d="M11.26 47.65V47.87C10.7 47.9 10.44 48.08 10.15 48.56L8.49 51.29V53.23C8.7 53.7 9.16 53.75 9.62 53.77V54H6.43V53.77C6.89 53.75 7.44 53.67 7.59 53.37V51.38L5.87 48.55C5.58 48.08 5.31 47.9 4.76 47.87V47.65H7.52V47.87C6.99 47.9 6.83 48.01 6.68 48.13L8.26 50.81L9.82 48.15C9.66 48.03 9.51 47.9 8.98 47.87V47.65H11.26ZM14.7716 53.27V53.53C14.5316 53.78 14.0416 54.09 13.7216 54.09C13.2116 54.09 13.0016 53.68 12.9916 53.45C12.6416 53.81 12.0916 54.09 11.7216 54.09C11.2316 54.09 10.7216 53.76 10.7216 53.18C10.7216 52.91 10.7616 52.57 10.9216 52.34L12.9916 51.61L13.0016 50.91C13.0116 50.45 12.6316 49.95 12.1716 49.95C11.8916 49.95 11.6516 50.3 11.6316 50.79L10.8216 50.94V50.83C11.1016 49.99 12.1716 49.57 12.6116 49.57C13.5216 49.57 13.8216 50.05 13.8116 50.82L13.7716 52.98C13.7616 53.39 13.9816 53.52 14.1916 53.52C14.4116 53.52 14.5416 53.43 14.7716 53.27ZM12.9816 53.26L12.9916 51.85C12.7316 51.97 11.9716 52.26 11.6816 52.42C11.6416 52.58 11.6116 52.8 11.6116 53C11.6116 53.3 11.7816 53.58 12.0816 53.58C12.4816 53.58 12.6716 53.48 12.9816 53.26ZM17.0782 53.77V54H14.8782V53.77C15.3582 53.74 15.4782 53.64 15.5582 53.47V48.11C15.5582 47.77 15.5782 47.63 14.8882 47.56V47.37L16.3882 46.92H16.5482V47.06L16.3582 47.4V53.47C16.4582 53.67 16.5782 53.72 17.0782 53.77ZM21.1063 52.96L21.2563 53.19C20.6463 53.75 20.1863 54.08 19.3663 54.08C18.3363 54.08 17.5463 53.25 17.5463 52.04C17.5463 50.57 18.4263 49.58 19.6363 49.58C20.6463 49.58 21.1163 50.11 21.1163 51.06V51.23L18.3863 51.21C18.3763 51.3 18.3663 51.52 18.3663 51.75C18.3663 52.8 19.0663 53.5 19.8963 53.5C20.4663 53.5 20.6763 53.33 21.1063 52.96ZM18.4263 50.94L20.3063 50.92C20.3063 50.38 19.9063 49.88 19.4563 49.88C18.9263 49.88 18.5363 50.28 18.4263 50.94Z" fill="black"/>
<rect x="83" y="50" width="83" height="4" fill="#989898"/>
<rect x="5" y="9" width="26" height="11" fill="#989898"/>
<rect x="33" y="9" width="26" height="11" fill="#989898"/>
<rect x="5" y="25" width="54" height="11" fill="#989898"/>
<rect x="153" y="31" width="5" height="5" fill="#989898"/>
<rect x="145" y="31" width="5" height="5" fill="#989898"/>
<rect x="161" y="31" width="5" height="5" fill="#989898"/>
<rect x="137" y="31" width="5" height="5" fill="#989898"/>
<rect x="129" y="31" width="5" height="5" fill="#989898"/>
</svg>
