<svg width="190" height="137" viewBox="0 0 190 137" fill="none" xmlns="http://www.w3.org/2000/svg">
<rect x="10" y="47" width="170" height="42" fill="#D9D9D9"/>
<path d="M21.26 55.65V55.87C20.7 55.9 20.44 56.08 20.15 56.56L18.49 59.29V61.23C18.7 61.7 19.16 61.75 19.62 61.77V62H16.43V61.77C16.89 61.75 17.44 61.67 17.59 61.37V59.38L15.87 56.55C15.58 56.08 15.31 55.9 14.76 55.87V55.65H17.52V55.87C16.99 55.9 16.83 56.01 16.68 56.13L18.26 58.81L19.82 56.15C19.66 56.03 19.51 55.9 18.98 55.87V55.65H21.26ZM24.7716 61.27V61.53C24.5316 61.78 24.0416 62.09 23.7216 62.09C23.2116 62.09 23.0016 61.68 22.9916 61.45C22.6416 61.81 22.0916 62.09 21.7216 62.09C21.2316 62.09 20.7216 61.76 20.7216 61.18C20.7216 60.91 20.7616 60.57 20.9216 60.34L22.9916 59.61L23.0016 58.91C23.0116 58.45 22.6316 57.95 22.1716 57.95C21.8916 57.95 21.6516 58.3 21.6316 58.79L20.8216 58.94V58.83C21.1016 57.99 22.1716 57.57 22.6116 57.57C23.5216 57.57 23.8216 58.05 23.8116 58.82L23.7716 60.98C23.7616 61.39 23.9816 61.52 24.1916 61.52C24.4116 61.52 24.5416 61.43 24.7716 61.27ZM22.9816 61.26L22.9916 59.85C22.7316 59.97 21.9716 60.26 21.6816 60.42C21.6416 60.58 21.6116 60.8 21.6116 61C21.6116 61.3 21.7816 61.58 22.0816 61.58C22.4816 61.58 22.6716 61.48 22.9816 61.26ZM27.0782 61.77V62H24.8782V61.77C25.3582 61.74 25.4782 61.64 25.5582 61.47V56.11C25.5582 55.77 25.5782 55.63 24.8882 55.56V55.37L26.3882 54.92H26.5482V55.06L26.3582 55.4V61.47C26.4582 61.67 26.5782 61.72 27.0782 61.77ZM31.1063 60.96L31.2563 61.19C30.6463 61.75 30.1863 62.08 29.3663 62.08C28.3363 62.08 27.5463 61.25 27.5463 60.04C27.5463 58.57 28.4263 57.58 29.6363 57.58C30.6463 57.58 31.1163 58.11 31.1163 59.06V59.23L28.3863 59.21C28.3763 59.3 28.3663 59.52 28.3663 59.75C28.3663 60.8 29.0663 61.5 29.8963 61.5C30.4663 61.5 30.6763 61.33 31.1063 60.96ZM28.4263 58.94L30.3063 58.92C30.3063 58.38 29.9063 57.88 29.4563 57.88C28.9263 57.88 28.5363 58.28 28.4263 58.94Z" fill="black"/>
<rect x="15" y="77" width="83" height="4" fill="#989898"/>
<rect x="164" y="76" width="5" height="5" fill="#989898"/>
<rect x="156" y="76" width="5" height="5" fill="#989898"/>
<rect x="171" y="76" width="5" height="5" fill="#989898"/>
<rect x="149" y="76" width="5" height="5" fill="#989898"/>
<rect x="141" y="76" width="5" height="5" fill="#989898"/>
</svg>
