<svg width="190" height="137" viewBox="0 0 190 137" fill="none" xmlns="http://www.w3.org/2000/svg">
<rect x="11" y="33" width="170" height="64" fill="#D9D9D9"/>
<path d="M22.26 83.65V83.87C21.7 83.9 21.44 84.08 21.15 84.56L19.49 87.29V89.23C19.7 89.7 20.16 89.75 20.62 89.77V90H17.43V89.77C17.89 89.75 18.44 89.67 18.59 89.37V87.38L16.87 84.55C16.58 84.08 16.31 83.9 15.76 83.87V83.65H18.52V83.87C17.99 83.9 17.83 84.01 17.68 84.13L19.26 86.81L20.82 84.15C20.66 84.03 20.51 83.9 19.98 83.87V83.65H22.26ZM25.7716 89.27V89.53C25.5316 89.78 25.0416 90.09 24.7216 90.09C24.2116 90.09 24.0016 89.68 23.9916 89.45C23.6416 89.81 23.0916 90.09 22.7216 90.09C22.2316 90.09 21.7216 89.76 21.7216 89.18C21.7216 88.91 21.7616 88.57 21.9216 88.34L23.9916 87.61L24.0016 86.91C24.0116 86.45 23.6316 85.95 23.1716 85.95C22.8916 85.95 22.6516 86.3 22.6316 86.79L21.8216 86.94V86.83C22.1016 85.99 23.1716 85.57 23.6116 85.57C24.5216 85.57 24.8216 86.05 24.8116 86.82L24.7716 88.98C24.7616 89.39 24.9816 89.52 25.1916 89.52C25.4116 89.52 25.5416 89.43 25.7716 89.27ZM23.9816 89.26L23.9916 87.85C23.7316 87.97 22.9716 88.26 22.6816 88.42C22.6416 88.58 22.6116 88.8 22.6116 89C22.6116 89.3 22.7816 89.58 23.0816 89.58C23.4816 89.58 23.6716 89.48 23.9816 89.26ZM28.0782 89.77V90H25.8782V89.77C26.3582 89.74 26.4782 89.64 26.5582 89.47V84.11C26.5582 83.77 26.5782 83.63 25.8882 83.56V83.37L27.3882 82.92H27.5482V83.06L27.3582 83.4V89.47C27.4582 89.67 27.5782 89.72 28.0782 89.77ZM32.1063 88.96L32.2563 89.19C31.6463 89.75 31.1863 90.08 30.3663 90.08C29.3363 90.08 28.5463 89.25 28.5463 88.04C28.5463 86.57 29.4263 85.58 30.6363 85.58C31.6463 85.58 32.1163 86.11 32.1163 87.06V87.23L29.3863 87.21C29.3763 87.3 29.3663 87.52 29.3663 87.75C29.3663 88.8 30.0663 89.5 30.8963 89.5C31.4663 89.5 31.6763 89.33 32.1063 88.96ZM29.4263 86.94L31.3063 86.92C31.3063 86.38 30.9063 85.88 30.4563 85.88C29.9263 85.88 29.5363 86.28 29.4263 86.94Z" fill="black"/>
<rect x="94" y="86" width="83" height="4" fill="#989898"/>
<rect x="164" y="69" width="5" height="5" fill="#989898"/>
<rect x="156" y="69" width="5" height="5" fill="#989898"/>
<rect x="172" y="69" width="5" height="5" fill="#989898"/>
<rect x="148" y="69" width="5" height="5" fill="#989898"/>
<rect x="140" y="69" width="5" height="5" fill="#989898"/>
<rect x="16" y="38" width="20" height="11" fill="#989898"/>
<rect x="16" y="51" width="20" height="11" fill="#989898"/>
<rect x="38" y="38" width="20" height="11" fill="#989898"/>
<rect x="38" y="51" width="20" height="11" fill="#989898"/>
<rect x="16" y="64" width="42" height="11" fill="#989898"/>
<rect x="72" y="38" width="42" height="2" rx="1" fill="#989898"/>
<rect x="132" y="38" width="18" height="3" rx="1.5" fill="#989898"/>
<rect x="132" y="43" width="18" height="2" rx="1" fill="#989898"/>
<rect x="132" y="47" width="18" height="2" rx="1" fill="#989898"/>
<rect x="132" y="51" width="18" height="2" rx="1" fill="#989898"/>
<rect x="132" y="55" width="18" height="2" rx="1" fill="#989898"/>
<rect x="156" y="38" width="18" height="3" rx="1.5" fill="#989898"/>
<rect x="156" y="43" width="18" height="2" rx="1" fill="#989898"/>
<rect x="156" y="47" width="18" height="2" rx="1" fill="#989898"/>
<rect x="156" y="51" width="18" height="2" rx="1" fill="#989898"/>
<rect x="156" y="55" width="18" height="2" rx="1" fill="#989898"/>
<rect x="72" y="41" width="42" height="2" rx="1" fill="#989898"/>
<rect x="72" y="44" width="42" height="2" rx="1" fill="#989898"/>
<rect x="72" y="47" width="29" height="2" rx="1" fill="#989898"/>
</svg>
