<svg width="501" height="261" viewBox="0 0 501 261" fill="none" xmlns="http://www.w3.org/2000/svg">
<rect width="501" height="261" fill="white"/>
<rect y="49" width="501" height="186" rx="5" fill="#EEEEEE"/>
<path d="M118.618 123.154L0 210.217V230C0 232.761 2.23857 235 4.99999 235H496C498.761 235 501 232.761 501 230V152.174L360.043 85.2512C359.716 85.096 359.331 85.1294 359.036 85.3385L239.346 170.121C239.069 170.317 238.713 170.359 238.398 170.234L119.579 123.031C119.259 122.903 118.896 122.95 118.618 123.154Z" fill="#376C74"/>
<circle cx="168" cy="90" r="10" fill="#376C74"/>
<rect y="49" width="501" height="186" fill="#1F1F1F" fill-opacity="0.71"/>
<path d="M81.272 112.241H80.968C80.744 112.321 80.376 112.353 80.008 112.353H73.304V112.833C74.008 112.865 74.664 113.073 74.824 113.441V121.281C74.6 121.809 73.896 121.969 73.208 122.001V122.497H78.792V122.001C78.136 121.969 77.224 121.729 77 121.201V117.841L78.792 117.873C79.928 117.889 80.28 117.889 80.408 119.185H80.872V115.713H80.44C80.28 116.881 79.88 116.913 78.792 116.945L77 117.009V113.185H78.984C80.184 113.185 80.744 113.521 80.808 114.929H81.272V112.241ZM85.3165 112.641C85.3165 112.081 84.8205 111.457 84.1165 111.457C83.3965 111.457 82.8845 112.081 82.8845 112.641C82.8845 113.185 83.3645 113.793 84.1005 113.793C84.8045 113.793 85.3165 113.185 85.3165 112.641ZM86.1165 122.001C85.4445 121.921 85.3325 121.841 85.1725 121.521V115.313H84.8845L82.2285 116.065V116.481C83.0125 116.689 83.2205 116.961 83.2205 117.329L83.2045 121.521C83.0445 121.793 82.9645 121.905 82.2445 122.001V122.497H86.1165V122.001ZM92.8386 115.713C92.4706 115.537 92.1986 115.409 91.7506 115.409C91.0626 115.409 90.4066 116.193 89.7186 116.961L89.6866 115.329H89.4146L86.8066 116.081V116.513C87.5746 116.705 87.7826 116.961 87.7826 117.281V121.521C87.6386 121.793 87.5586 121.905 86.8706 122.001V122.497H91.0786V121.985C90.4706 121.873 89.9106 121.809 89.7506 121.489V117.393C90.0226 117.265 90.2146 117.233 90.5826 117.233C90.9346 117.233 91.5746 117.521 91.8466 117.697H92.1186L92.8386 115.713ZM98.577 120.433C98.577 119.329 97.873 118.737 96.657 118.257C95.553 117.825 95.169 117.537 95.169 116.913C95.169 116.513 95.473 115.985 96.561 115.985C96.849 115.985 97.489 116.721 97.953 117.649H98.417L98.337 115.793C97.873 115.601 97.089 115.361 96.129 115.361C94.561 115.361 93.281 116.289 93.281 117.473C93.281 118.641 93.921 119.233 95.201 119.713C96.033 120.033 96.673 120.321 96.673 120.961C96.673 121.505 96.273 121.985 95.105 121.985C94.865 121.985 94.065 121.185 93.585 120.257H93.073L93.265 122.161C93.713 122.353 94.545 122.641 95.873 122.641C97.409 122.641 98.577 121.665 98.577 120.433ZM104.615 121.345C104.455 121.409 103.959 121.633 103.607 121.633C102.695 121.633 102.167 121.089 102.167 120.193C102.167 118.769 102.199 118.065 102.231 116.449L104.487 116.465V115.601H102.215L102.231 114.081H101.927L99.4305 116.001V116.449H100.279C100.247 117.969 100.151 119.041 100.151 120.561C100.151 121.841 100.663 122.625 102.327 122.625C102.967 122.625 104.151 122.177 104.615 121.841V121.345ZM113.725 122.001C113.005 121.969 112.333 121.761 112.189 121.441V113.393C112.333 113.073 113.005 112.849 113.725 112.817V112.337H108.477V112.817C109.197 112.849 109.869 113.073 110.013 113.393V121.441C109.869 121.761 109.197 121.969 108.477 122.001V122.497H113.725V122.001ZM126.802 121.953C126.322 121.905 125.954 121.873 125.634 121.649L125.586 117.553C125.57 116.225 125.17 115.361 123.778 115.361C123.17 115.361 122.018 116.017 121.362 116.545C121.122 115.809 120.594 115.345 119.618 115.345C118.978 115.345 117.97 115.937 117.266 116.465V115.313H116.994L114.418 116.113V116.497C115.122 116.737 115.298 117.057 115.298 117.393V121.537C115.17 121.809 115.074 121.953 114.402 122.017V122.497H118.066V122.017C117.618 121.953 117.426 121.857 117.266 121.537V116.945C117.602 116.689 118.162 116.593 118.45 116.593C119.106 116.593 119.426 117.457 119.426 118.193V121.537C119.33 121.809 119.154 121.969 118.674 122.017V122.497H122.226V122.017C121.714 121.953 121.57 121.841 121.426 121.537V116.977C121.746 116.705 122.274 116.625 122.594 116.625C123.234 116.625 123.57 117.393 123.586 118.209L123.634 121.521C123.506 121.793 123.394 121.937 122.834 122.017V122.513C123.218 122.497 124.018 122.449 124.594 122.449C125.362 122.449 126.354 122.481 126.802 122.497V121.953ZM134.924 118.689C134.924 116.417 133.612 115.361 132.268 115.361C131.564 115.361 130.716 115.873 130.076 116.385V115.265H129.788L127.148 116.065V116.497C127.9 116.689 128.092 116.977 128.092 117.345V125.601C127.964 125.889 127.532 126.017 126.844 126.097V126.609H131.5V126.081C130.892 126.001 130.396 125.953 130.108 125.761L130.06 122.369C130.332 122.449 130.668 122.641 131.084 122.641C133.532 122.641 134.924 120.961 134.924 118.689ZM132.844 119.281C132.844 120.657 132.268 121.937 131.356 121.937C130.924 121.937 130.284 121.473 130.092 120.513V116.817C130.396 116.609 130.78 116.593 131.084 116.593C132.188 116.593 132.844 117.873 132.844 119.281ZM141.761 115.713C141.393 115.537 141.121 115.409 140.673 115.409C139.985 115.409 139.329 116.193 138.641 116.961L138.609 115.329H138.337L135.729 116.081V116.513C136.497 116.705 136.705 116.961 136.705 117.281V121.521C136.561 121.793 136.481 121.905 135.793 122.001V122.497H140.001V121.985C139.393 121.873 138.833 121.809 138.673 121.489V117.393C138.945 117.265 139.137 117.233 139.505 117.233C139.857 117.233 140.497 117.521 140.769 117.697H141.041L141.761 115.713ZM147.885 120.705C147.341 121.169 146.877 121.345 146.141 121.345C144.925 121.345 143.869 120.369 143.869 118.865C143.869 118.689 143.885 118.353 143.901 118.241L147.965 118.257V117.873C147.965 116.273 147.149 115.361 145.421 115.361C143.309 115.361 141.853 116.977 141.853 119.329C141.853 121.265 143.197 122.625 144.957 122.625C146.349 122.625 147.181 122.097 148.205 121.201L147.885 120.705ZM143.933 117.681C144.029 116.577 144.397 115.969 145.053 115.969C145.661 115.969 145.965 116.673 145.965 117.649L143.933 117.681ZM154.28 120.433C154.28 119.329 153.576 118.737 152.36 118.257C151.256 117.825 150.872 117.537 150.872 116.913C150.872 116.513 151.176 115.985 152.264 115.985C152.552 115.985 153.192 116.721 153.656 117.649H154.12L154.04 115.793C153.576 115.601 152.792 115.361 151.832 115.361C150.264 115.361 148.984 116.289 148.984 117.473C148.984 118.641 149.624 119.233 150.904 119.713C151.736 120.033 152.376 120.321 152.376 120.961C152.376 121.505 151.976 121.985 150.808 121.985C150.568 121.985 149.768 121.185 149.288 120.257H148.776L148.968 122.161C149.416 122.353 150.248 122.641 151.576 122.641C153.112 122.641 154.28 121.665 154.28 120.433ZM160.515 120.433C160.515 119.329 159.811 118.737 158.595 118.257C157.491 117.825 157.107 117.537 157.107 116.913C157.107 116.513 157.411 115.985 158.499 115.985C158.786 115.985 159.427 116.721 159.891 117.649H160.355L160.275 115.793C159.811 115.601 159.027 115.361 158.067 115.361C156.499 115.361 155.219 116.289 155.219 117.473C155.219 118.641 155.859 119.233 157.139 119.713C157.971 120.033 158.611 120.321 158.611 120.961C158.611 121.505 158.211 121.985 157.043 121.985C156.803 121.985 156.003 121.185 155.523 120.257H155.011L155.203 122.161C155.651 122.353 156.483 122.641 157.811 122.641C159.347 122.641 160.515 121.665 160.515 120.433ZM164.504 112.641C164.504 112.081 164.008 111.457 163.304 111.457C162.584 111.457 162.072 112.081 162.072 112.641C162.072 113.185 162.552 113.793 163.288 113.793C163.992 113.793 164.504 113.185 164.504 112.641ZM165.304 122.001C164.632 121.921 164.52 121.841 164.36 121.521V115.313H164.072L161.416 116.065V116.481C162.2 116.689 162.408 116.961 162.408 117.329L162.392 121.521C162.232 121.793 162.152 121.905 161.432 122.001V122.497H165.304V122.001ZM173.13 118.993C173.13 116.833 171.85 115.345 169.674 115.345C167.514 115.345 165.978 116.849 165.978 118.929C165.978 121.201 167.258 122.641 169.434 122.641C171.562 122.641 173.13 121.105 173.13 118.993ZM170.986 119.393C170.986 120.849 170.538 121.985 169.706 121.985C168.634 121.985 168.122 120.545 168.122 118.545C168.122 117.169 168.618 116.001 169.338 116.001C170.474 116.001 170.986 117.313 170.986 119.393ZM182.331 121.969C181.899 121.921 181.371 121.873 181.099 121.633V117.521C181.099 116.225 180.651 115.345 179.291 115.345C178.731 115.345 177.563 115.937 176.891 116.465V115.329H176.619L173.947 116.081V116.513C174.667 116.705 174.923 117.057 174.923 117.377V121.537C174.795 121.809 174.587 121.969 173.979 122.017V122.497H177.691V122.017C177.307 121.969 177.035 121.857 176.891 121.537V116.913C177.227 116.657 177.739 116.593 178.043 116.593C178.651 116.593 179.083 117.329 179.083 118.193V121.521C178.971 121.793 178.827 121.921 178.331 122.001V122.497H182.331V121.969ZM188.296 120.433C188.296 119.329 187.592 118.737 186.376 118.257C185.272 117.825 184.888 117.537 184.888 116.913C184.888 116.513 185.192 115.985 186.28 115.985C186.568 115.985 187.208 116.721 187.672 117.649H188.136L188.056 115.793C187.592 115.601 186.808 115.361 185.848 115.361C184.28 115.361 183 116.289 183 117.473C183 118.641 183.64 119.233 184.92 119.713C185.752 120.033 186.392 120.321 186.392 120.961C186.392 121.505 185.992 121.985 184.824 121.985C184.584 121.985 183.784 121.185 183.304 120.257H182.792L182.984 122.161C183.432 122.353 184.264 122.641 185.592 122.641C187.128 122.641 188.296 121.665 188.296 120.433ZM206.693 122.001C205.989 121.969 205.397 121.761 205.205 121.441L204.885 115.617C204.853 115.153 204.773 113.921 204.773 113.761C204.773 113.601 204.773 113.473 204.773 113.345C204.933 113.089 205.413 112.849 206.117 112.817V112.337H202.789L202.149 114.001L199.781 119.617L197.461 113.857L196.949 112.337H193.301V112.817C194.005 112.849 194.485 113.121 194.645 113.377C194.661 113.537 194.661 113.713 194.661 113.921C194.661 114.001 194.565 115.105 194.533 115.617L194.101 121.249C193.909 121.569 193.301 121.969 192.597 122.001V122.497H196.677V122.001C195.973 121.969 195.237 121.569 195.125 121.249L195.557 115.153L195.541 114.177L195.877 115.281L198.789 122.513H199.429L202.565 115.265L202.869 114.321L202.789 115.649L203.077 121.441C202.949 121.761 202.213 121.969 201.509 122.001V122.497H206.693V122.001ZM214.192 121.201C213.824 121.457 213.648 121.553 213.296 121.553C212.976 121.553 212.656 121.393 212.672 120.737L212.736 117.345C212.752 116.113 212.176 115.345 210.56 115.345C209.76 115.345 207.84 116.017 207.328 117.361V117.665L209.328 117.425C209.36 116.561 209.584 116.081 209.872 116.081C210.352 116.081 210.736 116.753 210.72 117.489L210.704 118.513L207.488 119.681C207.248 120.049 207.168 120.673 207.168 121.105C207.168 122.033 207.968 122.641 208.72 122.641C209.296 122.641 210.16 122.193 210.704 121.617C210.72 121.985 211.04 122.641 211.904 122.641C212.784 122.641 213.808 122.177 214.192 121.777V121.201ZM210.688 121.201C210.416 121.409 210.16 121.473 209.776 121.473C209.472 121.473 209.264 121.089 209.264 120.625C209.264 120.305 209.344 119.985 209.376 119.777C209.68 119.553 210.4 119.201 210.704 119.025L210.688 121.201ZM219.411 121.345C219.251 121.409 218.755 121.633 218.403 121.633C217.491 121.633 216.963 121.089 216.963 120.193C216.963 118.769 216.995 118.065 217.027 116.449L219.283 116.465V115.601H217.011L217.027 114.081H216.723L214.227 116.001V116.449H215.075C215.043 117.969 214.947 119.041 214.947 120.561C214.947 121.841 215.459 122.625 217.123 122.625C217.763 122.625 218.947 122.177 219.411 121.841V121.345ZM224.677 121.345C224.517 121.409 224.021 121.633 223.669 121.633C222.757 121.633 222.229 121.089 222.229 120.193C222.229 118.769 222.261 118.065 222.293 116.449L224.549 116.465V115.601H222.277L222.293 114.081H221.989L219.493 116.001V116.449H220.341C220.309 117.969 220.213 119.041 220.213 120.561C220.213 121.841 220.725 122.625 222.389 122.625C223.029 122.625 224.213 122.177 224.677 121.841V121.345ZM230.854 120.705C230.31 121.169 229.846 121.345 229.11 121.345C227.894 121.345 226.838 120.369 226.838 118.865C226.838 118.689 226.854 118.353 226.87 118.241L230.934 118.257V117.873C230.934 116.273 230.118 115.361 228.39 115.361C226.278 115.361 224.822 116.977 224.822 119.329C224.822 121.265 226.166 122.625 227.926 122.625C229.318 122.625 230.15 122.097 231.174 121.201L230.854 120.705ZM226.902 117.681C226.998 116.577 227.366 115.969 228.022 115.969C228.63 115.969 228.934 116.673 228.934 117.649L226.902 117.681ZM237.776 115.713C237.408 115.537 237.136 115.409 236.688 115.409C236 115.409 235.344 116.193 234.656 116.961L234.624 115.329H234.352L231.744 116.081V116.513C232.512 116.705 232.72 116.961 232.72 117.281V121.521C232.576 121.793 232.496 121.905 231.808 122.001V122.497H236.016V121.985C235.408 121.873 234.848 121.809 234.688 121.489V117.393C234.96 117.265 235.152 117.233 235.52 117.233C235.872 117.233 236.512 117.521 236.784 117.697H237.056L237.776 115.713ZM240.08 121.361C240.08 120.657 239.52 120.065 238.768 120.065C238.064 120.065 237.488 120.657 237.488 121.361C237.488 122.065 238.064 122.673 238.768 122.673C239.504 122.673 240.08 122.065 240.08 121.361Z" fill="white"/>
<path d="M76.232 144.356C75.4373 144.356 74.7733 144.084 74.24 143.54C73.7067 142.996 73.44 142.303 73.44 141.46C73.44 141.065 73.512 140.692 73.656 140.34C73.8053 139.988 74.016 139.676 74.288 139.404C74.56 139.137 74.872 138.932 75.224 138.788C75.5813 138.639 75.9547 138.564 76.344 138.564C76.7067 138.564 77.0427 138.623 77.352 138.74C77.6667 138.857 77.9547 139.031 78.216 139.26V140.196H78.2C77.8907 139.887 77.5787 139.657 77.264 139.508C76.9547 139.359 76.6347 139.284 76.304 139.284C75.7387 139.284 75.2507 139.495 74.84 139.916C74.4347 140.337 74.232 140.844 74.232 141.436C74.232 142.065 74.432 142.591 74.832 143.012C75.232 143.428 75.7147 143.636 76.28 143.636C76.6373 143.636 76.984 143.561 77.32 143.412C77.6613 143.257 77.9893 143.028 78.304 142.724L78.32 142.732L78.208 143.636C77.8987 143.881 77.5813 144.063 77.256 144.18C76.9307 144.297 76.5893 144.356 76.232 144.356ZM82.7016 141.828V144.164L81.9816 144.324V143.612C81.683 143.852 81.4003 144.031 81.1336 144.148C80.8723 144.265 80.6163 144.324 80.3656 144.324C80.0136 144.324 79.7283 144.228 79.5096 144.036C79.291 143.839 79.1816 143.577 79.1816 143.252C79.1816 142.793 79.411 142.455 79.8696 142.236C80.3283 142.012 81.0323 141.895 81.9816 141.884V141.868C81.9816 141.537 81.9016 141.287 81.7416 141.116C81.587 140.94 81.3603 140.852 81.0616 140.852C80.8376 140.852 80.6056 140.9 80.3656 140.996C80.131 141.092 79.8883 141.236 79.6376 141.428L79.6216 141.42L79.7736 140.612C79.987 140.468 80.2083 140.361 80.4376 140.292C80.6723 140.223 80.9176 140.188 81.1736 140.188C81.6643 140.188 82.0403 140.329 82.3016 140.612C82.5683 140.895 82.7016 141.3 82.7016 141.828ZM79.9096 143.22C79.9096 143.369 79.963 143.489 80.0696 143.58C80.1763 143.665 80.323 143.708 80.5096 143.708C80.6963 143.708 80.9096 143.663 81.1496 143.572C81.3896 143.481 81.667 143.34 81.9816 143.148V142.348C81.2883 142.391 80.7683 142.484 80.4216 142.628C80.0803 142.767 79.9096 142.964 79.9096 143.22ZM87.9127 142.18C87.9127 142.793 87.7154 143.305 87.3207 143.716C86.9314 144.121 86.4594 144.324 85.9047 144.324C85.6914 144.324 85.486 144.289 85.2887 144.22C85.0967 144.151 84.902 144.044 84.7047 143.9V145.788H83.9847V140.356L84.7047 140.196V140.844C84.9287 140.609 85.15 140.441 85.3687 140.34C85.5874 140.233 85.8274 140.18 86.0887 140.18C86.6007 140.18 87.0327 140.372 87.3847 140.756C87.7367 141.135 87.9127 141.609 87.9127 142.18ZM87.1687 142.236C87.1687 141.82 87.046 141.481 86.8007 141.22C86.5607 140.959 86.2594 140.828 85.8967 140.828C85.6887 140.828 85.4914 140.868 85.3047 140.948C85.118 141.028 84.918 141.156 84.7047 141.332V143.34C84.886 143.457 85.062 143.545 85.2327 143.604C85.4087 143.657 85.5927 143.684 85.7847 143.684C86.1847 143.684 86.5154 143.548 86.7767 143.276C87.038 142.999 87.1687 142.652 87.1687 142.236ZM91.5136 143.3L91.3536 144.068C91.2363 144.153 91.0976 144.22 90.9376 144.268C90.7776 144.321 90.6123 144.348 90.4416 144.348C90.063 144.348 89.7643 144.231 89.5456 143.996C89.327 143.761 89.2176 143.433 89.2176 143.012V140.876H88.5376V140.26H89.2176V139.364L89.9296 139.1V140.26H91.4976V140.876H89.9296V142.98C89.9296 143.22 89.9856 143.401 90.0976 143.524C90.2096 143.641 90.375 143.7 90.5936 143.7C90.743 143.7 90.8923 143.668 91.0416 143.604C91.191 143.535 91.343 143.431 91.4976 143.292L91.5136 143.3ZM96.0038 144.26H95.2758V143.508C95.0464 143.801 94.8198 144.015 94.5958 144.148C94.3718 144.276 94.1238 144.34 93.8518 144.34C93.4304 144.34 93.0891 144.199 92.8278 143.916C92.5718 143.633 92.4438 143.255 92.4438 142.78V140.26H93.1718V142.708C93.1718 143.017 93.2491 143.26 93.4038 143.436C93.5638 143.607 93.7824 143.692 94.0598 143.692C94.2624 143.692 94.4544 143.639 94.6358 143.532C94.8224 143.42 95.0358 143.233 95.2758 142.972V140.26H96.0038V144.26ZM99.5599 140.964C99.3252 140.964 99.0932 141.02 98.8639 141.132C98.6399 141.244 98.3759 141.433 98.0719 141.7V144.26H97.3519V140.356L98.0719 140.196V141.212C98.4025 140.801 98.6612 140.529 98.8479 140.396C99.0399 140.263 99.2452 140.196 99.4639 140.196C99.5119 140.196 99.5519 140.199 99.5839 140.204C99.6212 140.209 99.6665 140.217 99.7199 140.228L99.7759 140.988C99.7385 140.977 99.7012 140.972 99.6639 140.972C99.6319 140.967 99.5972 140.964 99.5599 140.964ZM103.992 143.204L103.728 143.996C103.494 144.124 103.275 144.215 103.072 144.268C102.87 144.321 102.648 144.348 102.408 144.348C101.774 144.348 101.27 144.159 100.896 143.78C100.523 143.401 100.336 142.895 100.336 142.26C100.336 141.673 100.523 141.175 100.896 140.764C101.27 140.353 101.734 140.148 102.288 140.148C102.843 140.148 103.286 140.343 103.616 140.732C103.947 141.116 104.112 141.612 104.112 142.22C104.112 142.273 104.11 142.332 104.104 142.396C104.099 142.46 104.094 142.508 104.088 142.54H101.08C101.134 142.903 101.283 143.185 101.528 143.388C101.779 143.591 102.099 143.692 102.488 143.692C102.723 143.692 102.968 143.649 103.224 143.564C103.486 143.473 103.736 143.351 103.976 143.196L103.992 143.204ZM102.264 140.78C101.939 140.78 101.664 140.895 101.44 141.124C101.222 141.353 101.096 141.647 101.064 142.004H103.384C103.352 141.62 103.238 141.321 103.04 141.108C102.843 140.889 102.584 140.78 102.264 140.78ZM110.404 140.26L108.548 144.708C108.393 145.081 108.198 145.361 107.964 145.548C107.729 145.735 107.457 145.828 107.148 145.828C107.03 145.828 106.916 145.815 106.804 145.788C106.692 145.767 106.582 145.729 106.476 145.676L106.332 144.94L106.348 144.932C106.476 145.007 106.593 145.06 106.7 145.092C106.806 145.129 106.918 145.148 107.036 145.148C107.228 145.148 107.39 145.092 107.524 144.98C107.662 144.873 107.782 144.703 107.884 144.468L108.068 144.036L106.372 140.26H107.172L108.436 143.212L109.62 140.26H110.404ZM112.94 144.372C112.327 144.372 111.823 144.169 111.428 143.764C111.034 143.353 110.836 142.855 110.836 142.268C110.836 141.687 111.039 141.188 111.444 140.772C111.85 140.356 112.354 140.148 112.956 140.148C113.575 140.148 114.079 140.351 114.468 140.756C114.863 141.156 115.06 141.652 115.06 142.244C115.06 142.831 114.858 143.332 114.452 143.748C114.052 144.164 113.548 144.372 112.94 144.372ZM114.324 142.244C114.324 141.828 114.194 141.484 113.932 141.212C113.676 140.935 113.351 140.796 112.956 140.796C112.556 140.796 112.226 140.937 111.964 141.22C111.708 141.497 111.58 141.847 111.58 142.268C111.58 142.684 111.708 143.031 111.964 143.308C112.226 143.585 112.551 143.724 112.94 143.724C113.34 143.724 113.671 143.583 113.932 143.3C114.194 143.017 114.324 142.665 114.324 142.244ZM119.566 144.26H118.838V143.508C118.609 143.801 118.382 144.015 118.158 144.148C117.934 144.276 117.686 144.34 117.414 144.34C116.993 144.34 116.652 144.199 116.39 143.916C116.134 143.633 116.006 143.255 116.006 142.78V140.26H116.734V142.708C116.734 143.017 116.812 143.26 116.966 143.436C117.126 143.607 117.345 143.692 117.622 143.692C117.825 143.692 118.017 143.639 118.198 143.532C118.385 143.42 118.598 143.233 118.838 142.972V140.26H119.566V144.26ZM123.122 140.964C122.888 140.964 122.656 141.02 122.426 141.132C122.202 141.244 121.938 141.433 121.634 141.7V144.26H120.914V140.356L121.634 140.196V141.212C121.965 140.801 122.224 140.529 122.41 140.396C122.602 140.263 122.808 140.196 123.026 140.196C123.074 140.196 123.114 140.199 123.146 140.204C123.184 140.209 123.229 140.217 123.282 140.228L123.338 140.988C123.301 140.977 123.264 140.972 123.226 140.972C123.194 140.967 123.16 140.964 123.122 140.964ZM129.441 144.26H128.713V143.508C128.484 143.801 128.257 144.015 128.033 144.148C127.809 144.276 127.561 144.34 127.289 144.34C126.868 144.34 126.527 144.199 126.265 143.916C126.009 143.633 125.881 143.255 125.881 142.78V140.26H126.609V142.708C126.609 143.017 126.687 143.26 126.841 143.436C127.001 143.607 127.22 143.692 127.497 143.692C127.7 143.692 127.892 143.639 128.073 143.532C128.26 143.42 128.473 143.233 128.713 142.972V140.26H129.441V144.26ZM132.357 141.924C132.885 142.047 133.251 142.201 133.453 142.388C133.661 142.575 133.765 142.831 133.765 143.156C133.765 143.503 133.613 143.788 133.309 144.012C133.011 144.236 132.627 144.348 132.157 144.348C131.875 144.348 131.605 144.308 131.349 144.228C131.093 144.148 130.84 144.025 130.589 143.86L130.437 142.988L130.453 142.98C130.752 143.215 131.053 143.393 131.357 143.516C131.661 143.639 131.955 143.7 132.237 143.7C132.477 143.7 132.675 143.655 132.829 143.564C132.989 143.468 133.069 143.345 133.069 143.196C133.069 143.036 132.995 142.911 132.845 142.82C132.701 142.729 132.413 142.633 131.981 142.532C131.464 142.409 131.104 142.257 130.901 142.076C130.699 141.895 130.597 141.657 130.597 141.364C130.597 141.012 130.741 140.727 131.029 140.508C131.323 140.284 131.699 140.172 132.157 140.172C132.381 140.172 132.605 140.204 132.829 140.268C133.053 140.332 133.267 140.423 133.469 140.54V141.308H133.453C133.203 141.148 132.96 141.028 132.725 140.948C132.496 140.863 132.28 140.82 132.077 140.82C131.837 140.82 131.645 140.863 131.501 140.948C131.363 141.033 131.293 141.145 131.293 141.284C131.293 141.433 131.365 141.553 131.509 141.644C131.653 141.729 131.936 141.823 132.357 141.924ZM138.141 143.204L137.877 143.996C137.642 144.124 137.423 144.215 137.221 144.268C137.018 144.321 136.797 144.348 136.557 144.348C135.922 144.348 135.418 144.159 135.045 143.78C134.671 143.401 134.485 142.895 134.485 142.26C134.485 141.673 134.671 141.175 135.045 140.764C135.418 140.353 135.882 140.148 136.437 140.148C136.991 140.148 137.434 140.343 137.765 140.732C138.095 141.116 138.261 141.612 138.261 142.22C138.261 142.273 138.258 142.332 138.253 142.396C138.247 142.46 138.242 142.508 138.237 142.54H135.229C135.282 142.903 135.431 143.185 135.677 143.388C135.927 143.591 136.247 143.692 136.637 143.692C136.871 143.692 137.117 143.649 137.373 143.564C137.634 143.473 137.885 143.351 138.125 143.196L138.141 143.204ZM136.413 140.78C136.087 140.78 135.813 140.895 135.589 141.124C135.37 141.353 135.245 141.647 135.213 142.004H137.533C137.501 141.62 137.386 141.321 137.189 141.108C136.991 140.889 136.733 140.78 136.413 140.78ZM141.497 140.964C141.263 140.964 141.031 141.02 140.801 141.132C140.577 141.244 140.313 141.433 140.009 141.7V144.26H139.289V140.356L140.009 140.196V141.212C140.34 140.801 140.599 140.529 140.785 140.396C140.977 140.263 141.183 140.196 141.401 140.196C141.449 140.196 141.489 140.199 141.521 140.204C141.559 140.209 141.604 140.217 141.657 140.228L141.713 140.988C141.676 140.977 141.639 140.972 141.601 140.972C141.569 140.967 141.535 140.964 141.497 140.964ZM144.178 141.924C144.706 142.047 145.071 142.201 145.274 142.388C145.482 142.575 145.586 142.831 145.586 143.156C145.586 143.503 145.434 143.788 145.13 144.012C144.831 144.236 144.447 144.348 143.978 144.348C143.695 144.348 143.426 144.308 143.17 144.228C142.914 144.148 142.66 144.025 142.41 143.86L142.258 142.988L142.274 142.98C142.572 143.215 142.874 143.393 143.178 143.516C143.482 143.639 143.775 143.7 144.058 143.7C144.298 143.7 144.495 143.655 144.65 143.564C144.81 143.468 144.89 143.345 144.89 143.196C144.89 143.036 144.815 142.911 144.666 142.82C144.522 142.729 144.234 142.633 143.802 142.532C143.284 142.409 142.924 142.257 142.722 142.076C142.519 141.895 142.418 141.657 142.418 141.364C142.418 141.012 142.562 140.727 142.85 140.508C143.143 140.284 143.519 140.172 143.978 140.172C144.202 140.172 144.426 140.204 144.65 140.268C144.874 140.332 145.087 140.423 145.29 140.54V141.308H145.274C145.023 141.148 144.78 141.028 144.546 140.948C144.316 140.863 144.1 140.82 143.898 140.82C143.658 140.82 143.466 140.863 143.322 140.948C143.183 141.033 143.114 141.145 143.114 141.284C143.114 141.433 143.186 141.553 143.33 141.644C143.474 141.729 143.756 141.823 144.178 141.924ZM146.729 139.652C146.729 139.524 146.702 139.399 146.649 139.276C146.596 139.148 146.473 138.943 146.281 138.66H147.049C147.177 138.836 147.268 138.991 147.321 139.124C147.374 139.257 147.401 139.396 147.401 139.54C147.401 139.663 147.372 139.788 147.313 139.916C147.26 140.039 147.172 140.175 147.049 140.324C147.012 140.367 146.942 140.441 146.841 140.548C146.74 140.655 146.606 140.791 146.441 140.956L146.201 140.78C146.388 140.524 146.521 140.308 146.601 140.132C146.686 139.956 146.729 139.796 146.729 139.652ZM153.358 141.828V144.164L152.638 144.324V143.612C152.339 143.852 152.057 144.031 151.79 144.148C151.529 144.265 151.273 144.324 151.022 144.324C150.67 144.324 150.385 144.228 150.166 144.036C149.947 143.839 149.838 143.577 149.838 143.252C149.838 142.793 150.067 142.455 150.526 142.236C150.985 142.012 151.689 141.895 152.638 141.884V141.868C152.638 141.537 152.558 141.287 152.398 141.116C152.243 140.94 152.017 140.852 151.718 140.852C151.494 140.852 151.262 140.9 151.022 140.996C150.787 141.092 150.545 141.236 150.294 141.428L150.278 141.42L150.43 140.612C150.643 140.468 150.865 140.361 151.094 140.292C151.329 140.223 151.574 140.188 151.83 140.188C152.321 140.188 152.697 140.329 152.958 140.612C153.225 140.895 153.358 141.3 153.358 141.828ZM150.566 143.22C150.566 143.369 150.619 143.489 150.726 143.58C150.833 143.665 150.979 143.708 151.166 143.708C151.353 143.708 151.566 143.663 151.806 143.572C152.046 143.481 152.323 143.34 152.638 143.148V142.348C151.945 142.391 151.425 142.484 151.078 142.628C150.737 142.767 150.566 142.964 150.566 143.22ZM157.209 143.3L157.049 144.068C156.932 144.153 156.793 144.22 156.633 144.268C156.473 144.321 156.308 144.348 156.137 144.348C155.758 144.348 155.46 144.231 155.241 143.996C155.022 143.761 154.913 143.433 154.913 143.012V140.876H154.233V140.26H154.913V139.364L155.625 139.1V140.26H157.193V140.876H155.625V142.98C155.625 143.22 155.681 143.401 155.793 143.524C155.905 143.641 156.07 143.7 156.289 143.7C156.438 143.7 156.588 143.668 156.737 143.604C156.886 143.535 157.038 143.431 157.193 143.292L157.209 143.3ZM160.709 143.3L160.549 144.068C160.432 144.153 160.293 144.22 160.133 144.268C159.973 144.321 159.808 144.348 159.637 144.348C159.258 144.348 158.96 144.231 158.741 143.996C158.522 143.761 158.413 143.433 158.413 143.012V140.876H157.733V140.26H158.413V139.364L159.125 139.1V140.26H160.693V140.876H159.125V142.98C159.125 143.22 159.181 143.401 159.293 143.524C159.405 143.641 159.57 143.7 159.789 143.7C159.938 143.7 160.088 143.668 160.237 143.604C160.386 143.535 160.538 143.431 160.693 143.292L160.709 143.3ZM165.039 143.204L164.775 143.996C164.54 144.124 164.322 144.215 164.119 144.268C163.916 144.321 163.695 144.348 163.455 144.348C162.82 144.348 162.316 144.159 161.943 143.78C161.57 143.401 161.383 142.895 161.383 142.26C161.383 141.673 161.57 141.175 161.943 140.764C162.316 140.353 162.78 140.148 163.335 140.148C163.89 140.148 164.332 140.343 164.663 140.732C164.994 141.116 165.159 141.612 165.159 142.22C165.159 142.273 165.156 142.332 165.151 142.396C165.146 142.46 165.14 142.508 165.135 142.54H162.127C162.18 142.903 162.33 143.185 162.575 143.388C162.826 143.591 163.146 143.692 163.535 143.692C163.77 143.692 164.015 143.649 164.271 143.564C164.532 143.473 164.783 143.351 165.023 143.196L165.039 143.204ZM163.311 140.78C162.986 140.78 162.711 140.895 162.487 141.124C162.268 141.353 162.143 141.647 162.111 142.004H164.431C164.399 141.62 164.284 141.321 164.087 141.108C163.89 140.889 163.631 140.78 163.311 140.78ZM168.132 140.828C167.924 140.828 167.726 140.884 167.54 140.996C167.358 141.103 167.148 141.287 166.908 141.548V144.26H166.188V140.356L166.908 140.196V141.012C167.137 140.719 167.364 140.508 167.588 140.38C167.812 140.247 168.06 140.18 168.332 140.18C168.753 140.18 169.092 140.321 169.348 140.604C169.609 140.887 169.74 141.265 169.74 141.74V144.26H169.02V141.812C169.02 141.503 168.94 141.263 168.78 141.092C168.625 140.916 168.409 140.828 168.132 140.828ZM173.584 143.3L173.424 144.068C173.307 144.153 173.168 144.22 173.008 144.268C172.848 144.321 172.683 144.348 172.512 144.348C172.133 144.348 171.835 144.231 171.616 143.996C171.397 143.761 171.288 143.433 171.288 143.012V140.876H170.608V140.26H171.288V139.364L172 139.1V140.26H173.568V140.876H172V142.98C172 143.22 172.056 143.401 172.168 143.524C172.28 143.641 172.445 143.7 172.664 143.7C172.813 143.7 172.963 143.668 173.112 143.604C173.261 143.535 173.413 143.431 173.568 143.292L173.584 143.3ZM174.994 138.332C175.133 138.332 175.25 138.38 175.346 138.476C175.442 138.572 175.49 138.689 175.49 138.828C175.49 138.967 175.442 139.084 175.346 139.18C175.25 139.276 175.133 139.324 174.994 139.324C174.855 139.324 174.738 139.276 174.642 139.18C174.546 139.084 174.498 138.967 174.498 138.828C174.498 138.689 174.546 138.572 174.642 138.476C174.738 138.38 174.855 138.332 174.994 138.332ZM175.354 144.26H174.634V140.26H175.354V144.26ZM178.518 144.372C177.905 144.372 177.401 144.169 177.006 143.764C176.612 143.353 176.414 142.855 176.414 142.268C176.414 141.687 176.617 141.188 177.022 140.772C177.428 140.356 177.932 140.148 178.534 140.148C179.153 140.148 179.657 140.351 180.046 140.756C180.441 141.156 180.638 141.652 180.638 142.244C180.638 142.831 180.436 143.332 180.03 143.748C179.63 144.164 179.126 144.372 178.518 144.372ZM179.902 142.244C179.902 141.828 179.772 141.484 179.51 141.212C179.254 140.935 178.929 140.796 178.534 140.796C178.134 140.796 177.804 140.937 177.542 141.22C177.286 141.497 177.158 141.847 177.158 142.268C177.158 142.684 177.286 143.031 177.542 143.308C177.804 143.585 178.129 143.724 178.518 143.724C178.918 143.724 179.249 143.583 179.51 143.3C179.772 143.017 179.902 142.665 179.902 142.244ZM183.608 140.828C183.4 140.828 183.203 140.884 183.016 140.996C182.835 141.103 182.624 141.287 182.384 141.548V144.26H181.664V140.356L182.384 140.196V141.012C182.614 140.719 182.84 140.508 183.064 140.38C183.288 140.247 183.536 140.18 183.808 140.18C184.23 140.18 184.568 140.321 184.824 140.604C185.086 140.887 185.216 141.265 185.216 141.74V144.26H184.496V141.812C184.496 141.503 184.416 141.263 184.256 141.092C184.102 140.916 183.886 140.828 183.608 140.828ZM193.635 140.26H194.371L192.803 144.316H192.203L191.043 141.66L189.811 144.316H189.203L187.747 140.26H188.523L189.555 143.356L191.011 140.212H191.147L192.499 143.356L193.635 140.26ZM195.65 138.332C195.789 138.332 195.906 138.38 196.002 138.476C196.098 138.572 196.146 138.689 196.146 138.828C196.146 138.967 196.098 139.084 196.002 139.18C195.906 139.276 195.789 139.324 195.65 139.324C195.512 139.324 195.394 139.276 195.298 139.18C195.202 139.084 195.154 138.967 195.154 138.828C195.154 138.689 195.202 138.572 195.298 138.476C195.394 138.38 195.512 138.332 195.65 138.332ZM196.01 144.26H195.29V140.26H196.01V144.26ZM199.975 143.3L199.815 144.068C199.697 144.153 199.559 144.22 199.399 144.268C199.239 144.321 199.073 144.348 198.903 144.348C198.524 144.348 198.225 144.231 198.007 143.996C197.788 143.761 197.679 143.433 197.679 143.012V140.876H196.999V140.26H197.679V139.364L198.391 139.1V140.26H199.959V140.876H198.391V142.98C198.391 143.22 198.447 143.401 198.559 143.524C198.671 143.641 198.836 143.7 199.055 143.7C199.204 143.7 199.353 143.668 199.503 143.604C199.652 143.535 199.804 143.431 199.959 143.292L199.975 143.3ZM202.929 140.828C202.721 140.828 202.523 140.884 202.337 140.996C202.155 141.103 201.945 141.287 201.705 141.548V144.26H200.985V138.452L201.705 138.188V141.012C201.934 140.719 202.161 140.508 202.385 140.38C202.609 140.247 202.857 140.18 203.129 140.18C203.55 140.18 203.889 140.321 204.145 140.604C204.406 140.887 204.537 141.265 204.537 141.74V144.26H203.817V141.812C203.817 141.503 203.737 141.263 203.577 141.092C203.422 140.916 203.206 140.828 202.929 140.828ZM210.107 143.3L209.947 144.068C209.83 144.153 209.691 144.22 209.531 144.268C209.371 144.321 209.206 144.348 209.035 144.348C208.657 144.348 208.358 144.231 208.139 143.996C207.921 143.761 207.811 143.433 207.811 143.012V140.876H207.131V140.26H207.811V139.364L208.523 139.1V140.26H210.091V140.876H208.523V142.98C208.523 143.22 208.579 143.401 208.691 143.524C208.803 143.641 208.969 143.7 209.187 143.7C209.337 143.7 209.486 143.668 209.635 143.604C209.785 143.535 209.937 143.431 210.091 143.292L210.107 143.3ZM213.062 140.828C212.854 140.828 212.656 140.884 212.47 140.996C212.288 141.103 212.078 141.287 211.838 141.548V144.26H211.118V138.452L211.838 138.188V141.012C212.067 140.719 212.294 140.508 212.518 140.38C212.742 140.247 212.99 140.18 213.262 140.18C213.683 140.18 214.022 140.321 214.278 140.604C214.539 140.887 214.67 141.265 214.67 141.74V144.26H213.95V141.812C213.95 141.503 213.87 141.263 213.71 141.092C213.555 140.916 213.339 140.828 213.062 140.828ZM219.266 143.204L219.002 143.996C218.767 144.124 218.548 144.215 218.346 144.268C218.143 144.321 217.922 144.348 217.682 144.348C217.047 144.348 216.543 144.159 216.17 143.78C215.796 143.401 215.61 142.895 215.61 142.26C215.61 141.673 215.796 141.175 216.17 140.764C216.543 140.353 217.007 140.148 217.562 140.148C218.116 140.148 218.559 140.343 218.89 140.732C219.22 141.116 219.386 141.612 219.386 142.22C219.386 142.273 219.383 142.332 219.378 142.396C219.372 142.46 219.367 142.508 219.362 142.54H216.354C216.407 142.903 216.556 143.185 216.802 143.388C217.052 143.591 217.372 143.692 217.762 143.692C217.996 143.692 218.242 143.649 218.498 143.564C218.759 143.473 219.01 143.351 219.25 143.196L219.266 143.204ZM217.538 140.78C217.212 140.78 216.938 140.895 216.714 141.124C216.495 141.353 216.37 141.647 216.338 142.004H218.658C218.626 141.62 218.511 141.321 218.314 141.108C218.116 140.889 217.858 140.78 217.538 140.78ZM224.269 140.18C224.765 140.18 225.181 140.369 225.517 140.748C225.858 141.121 226.029 141.588 226.029 142.148C226.029 142.783 225.818 143.305 225.397 143.716C224.976 144.121 224.453 144.324 223.829 144.324C223.648 144.324 223.469 144.305 223.293 144.268C223.117 144.231 222.936 144.172 222.749 144.092L222.229 144.26H222.141V138.452L222.861 138.188V140.844C223.096 140.609 223.325 140.441 223.549 140.34C223.773 140.233 224.013 140.18 224.269 140.18ZM225.293 142.196C225.293 141.791 225.176 141.463 224.941 141.212C224.712 140.956 224.416 140.828 224.053 140.828C223.845 140.828 223.648 140.868 223.461 140.948C223.274 141.028 223.074 141.156 222.861 141.332V143.492C223.021 143.556 223.178 143.604 223.333 143.636C223.488 143.668 223.648 143.684 223.813 143.684C224.24 143.684 224.592 143.543 224.869 143.26C225.152 142.977 225.293 142.623 225.293 142.196ZM228.839 144.372C228.225 144.372 227.721 144.169 227.327 143.764C226.932 143.353 226.735 142.855 226.735 142.268C226.735 141.687 226.937 141.188 227.343 140.772C227.748 140.356 228.252 140.148 228.855 140.148C229.473 140.148 229.977 140.351 230.367 140.756C230.761 141.156 230.959 141.652 230.959 142.244C230.959 142.831 230.756 143.332 230.351 143.748C229.951 144.164 229.447 144.372 228.839 144.372ZM230.223 142.244C230.223 141.828 230.092 141.484 229.831 141.212C229.575 140.935 229.249 140.796 228.855 140.796C228.455 140.796 228.124 140.937 227.863 141.22C227.607 141.497 227.479 141.847 227.479 142.268C227.479 142.684 227.607 143.031 227.863 143.308C228.124 143.585 228.449 143.724 228.839 143.724C229.239 143.724 229.569 143.583 229.831 143.3C230.092 143.017 230.223 142.665 230.223 142.244ZM232.745 144.26H232.025V138.452L232.745 138.188V144.26ZM237.749 144.26H237.021V143.684C236.792 143.913 236.568 144.081 236.349 144.188C236.136 144.289 235.898 144.34 235.637 144.34C235.125 144.34 234.693 144.151 234.341 143.772C233.989 143.388 233.813 142.911 233.813 142.34C233.813 141.727 234.01 141.217 234.405 140.812C234.8 140.401 235.274 140.196 235.829 140.196C236.037 140.196 236.237 140.231 236.429 140.3C236.626 140.364 236.824 140.468 237.021 140.612V138.452L237.749 138.188V144.26ZM235.949 140.836C235.549 140.836 235.216 140.972 234.949 141.244C234.688 141.516 234.557 141.863 234.557 142.284C234.557 142.695 234.677 143.033 234.917 143.3C235.162 143.561 235.466 143.692 235.829 143.692C236.037 143.692 236.234 143.652 236.421 143.572C236.608 143.492 236.808 143.364 237.021 143.188V141.172C236.834 141.055 236.656 140.969 236.485 140.916C236.314 140.863 236.136 140.836 235.949 140.836ZM238.542 145.596L238.326 145.412C238.582 145.071 238.75 144.783 238.83 144.548C238.91 144.313 238.95 144.009 238.95 143.636V143.372H239.694C239.694 143.831 239.622 144.212 239.478 144.516C239.334 144.825 239.022 145.185 238.542 145.596ZM245.405 140.26H246.189L244.077 144.372H243.925L241.957 140.26H242.749L244.029 143.084L245.405 140.26ZM247.424 138.332C247.562 138.332 247.68 138.38 247.776 138.476C247.872 138.572 247.92 138.689 247.92 138.828C247.92 138.967 247.872 139.084 247.776 139.18C247.68 139.276 247.562 139.324 247.424 139.324C247.285 139.324 247.168 139.276 247.072 139.18C246.976 139.084 246.928 138.967 246.928 138.828C246.928 138.689 246.976 138.572 247.072 138.476C247.168 138.38 247.285 138.332 247.424 138.332ZM247.784 144.26H247.064V140.26H247.784V144.26ZM250.748 141.924C251.276 142.047 251.641 142.201 251.844 142.388C252.052 142.575 252.156 142.831 252.156 143.156C252.156 143.503 252.004 143.788 251.7 144.012C251.401 144.236 251.017 144.348 250.548 144.348C250.265 144.348 249.996 144.308 249.74 144.228C249.484 144.148 249.231 144.025 248.98 143.86L248.828 142.988L248.844 142.98C249.143 143.215 249.444 143.393 249.748 143.516C250.052 143.639 250.345 143.7 250.628 143.7C250.868 143.7 251.065 143.655 251.22 143.564C251.38 143.468 251.46 143.345 251.46 143.196C251.46 143.036 251.385 142.911 251.236 142.82C251.092 142.729 250.804 142.633 250.372 142.532C249.855 142.409 249.495 142.257 249.292 142.076C249.089 141.895 248.988 141.657 248.988 141.364C248.988 141.012 249.132 140.727 249.42 140.508C249.713 140.284 250.089 140.172 250.548 140.172C250.772 140.172 250.996 140.204 251.22 140.268C251.444 140.332 251.657 140.423 251.86 140.54V141.308H251.844C251.593 141.148 251.351 141.028 251.116 140.948C250.887 140.863 250.671 140.82 250.468 140.82C250.228 140.82 250.036 140.863 249.892 140.948C249.753 141.033 249.684 141.145 249.684 141.284C249.684 141.433 249.756 141.553 249.9 141.644C250.044 141.729 250.327 141.823 250.748 141.924ZM256.691 144.26H255.963V143.508C255.734 143.801 255.507 144.015 255.283 144.148C255.059 144.276 254.811 144.34 254.539 144.34C254.118 144.34 253.777 144.199 253.515 143.916C253.259 143.633 253.131 143.255 253.131 142.78V140.26H253.859V142.708C253.859 143.017 253.937 143.26 254.091 143.436C254.251 143.607 254.47 143.692 254.747 143.692C254.95 143.692 255.142 143.639 255.323 143.532C255.51 143.42 255.723 143.233 255.963 142.972V140.26H256.691V144.26ZM261.295 141.828V144.164L260.575 144.324V143.612C260.277 143.852 259.994 144.031 259.727 144.148C259.466 144.265 259.21 144.324 258.959 144.324C258.607 144.324 258.322 144.228 258.103 144.036C257.885 143.839 257.775 143.577 257.775 143.252C257.775 142.793 258.005 142.455 258.463 142.236C258.922 142.012 259.626 141.895 260.575 141.884V141.868C260.575 141.537 260.495 141.287 260.335 141.116C260.181 140.94 259.954 140.852 259.655 140.852C259.431 140.852 259.199 140.9 258.959 140.996C258.725 141.092 258.482 141.236 258.231 141.428L258.215 141.42L258.367 140.612C258.581 140.468 258.802 140.361 259.031 140.292C259.266 140.223 259.511 140.188 259.767 140.188C260.258 140.188 260.634 140.329 260.895 140.612C261.162 140.895 261.295 141.3 261.295 141.828ZM258.503 143.22C258.503 143.369 258.557 143.489 258.663 143.58C258.77 143.665 258.917 143.708 259.103 143.708C259.29 143.708 259.503 143.663 259.743 143.572C259.983 143.481 260.261 143.34 260.575 143.148V142.348C259.882 142.391 259.362 142.484 259.015 142.628C258.674 142.767 258.503 142.964 258.503 143.22ZM263.338 144.26H262.618V138.452L263.338 138.188V144.26ZM265.495 144.26H264.775V138.452L265.495 138.188V144.26ZM270.427 140.26L268.571 144.708C268.416 145.081 268.222 145.361 267.987 145.548C267.752 145.735 267.48 145.828 267.171 145.828C267.054 145.828 266.939 145.815 266.827 145.788C266.715 145.767 266.606 145.729 266.499 145.676L266.355 144.94L266.371 144.932C266.499 145.007 266.616 145.06 266.723 145.092C266.83 145.129 266.942 145.148 267.059 145.148C267.251 145.148 267.414 145.092 267.547 144.98C267.686 144.873 267.806 144.703 267.907 144.468L268.091 144.036L266.395 140.26H267.195L268.459 143.212L269.643 140.26H270.427ZM77 155.204L76.736 155.996C76.5013 156.124 76.2827 156.215 76.08 156.268C75.8773 156.321 75.656 156.348 75.416 156.348C74.7813 156.348 74.2773 156.159 73.904 155.78C73.5307 155.401 73.344 154.895 73.344 154.26C73.344 153.673 73.5307 153.175 73.904 152.764C74.2773 152.353 74.7413 152.148 75.296 152.148C75.8507 152.148 76.2933 152.343 76.624 152.732C76.9547 153.116 77.12 153.612 77.12 154.22C77.12 154.273 77.1173 154.332 77.112 154.396C77.1067 154.46 77.1013 154.508 77.096 154.54H74.088C74.1413 154.903 74.2907 155.185 74.536 155.388C74.7867 155.591 75.1067 155.692 75.496 155.692C75.7307 155.692 75.976 155.649 76.232 155.564C76.4933 155.473 76.744 155.351 76.984 155.196L77 155.204ZM75.272 152.78C74.9467 152.78 74.672 152.895 74.448 153.124C74.2293 153.353 74.104 153.647 74.072 154.004H76.392C76.36 153.62 76.2453 153.321 76.048 153.108C75.8507 152.889 75.592 152.78 75.272 152.78ZM80.0928 152.828C79.8848 152.828 79.6874 152.884 79.5008 152.996C79.3194 153.103 79.1088 153.287 78.8688 153.548V156.26H78.1488V152.356L78.8688 152.196V153.012C79.0981 152.719 79.3248 152.508 79.5488 152.38C79.7728 152.247 80.0208 152.18 80.2928 152.18C80.7141 152.18 81.0528 152.321 81.3088 152.604C81.5701 152.887 81.7008 153.265 81.7008 153.74V156.26H80.9808V153.812C80.9808 153.503 80.9008 153.263 80.7408 153.092C80.5861 152.916 80.3701 152.828 80.0928 152.828ZM86.5849 152.26V155.876C86.5849 156.484 86.3982 156.961 86.0249 157.308C85.6569 157.655 85.1529 157.828 84.5129 157.828C84.2409 157.828 83.9769 157.799 83.7209 157.74C83.4649 157.681 83.2062 157.588 82.9449 157.46L82.7929 156.652L82.8089 156.644C83.1289 156.825 83.4249 156.956 83.6969 157.036C83.9742 157.121 84.2569 157.164 84.5449 157.164C84.9395 157.164 85.2569 157.047 85.4969 156.812C85.7369 156.583 85.8569 156.271 85.8569 155.876V155.516C85.6169 155.751 85.3822 155.921 85.1529 156.028C84.9235 156.129 84.6782 156.18 84.4169 156.18C83.9049 156.18 83.4809 156.001 83.1449 155.644C82.8142 155.287 82.6489 154.833 82.6489 154.284C82.6489 153.676 82.8595 153.177 83.2809 152.788C83.7075 152.393 84.2302 152.196 84.8489 152.196C85.0302 152.196 85.2089 152.215 85.3849 152.252C85.5609 152.289 85.7502 152.351 85.9529 152.436L86.4889 152.26H86.5849ZM84.8649 152.812C84.4435 152.812 84.0915 152.948 83.8089 153.22C83.5315 153.492 83.3929 153.833 83.3929 154.244C83.3929 154.633 83.5075 154.948 83.7369 155.188C83.9662 155.428 84.2649 155.548 84.6329 155.548C84.8355 155.548 85.0329 155.508 85.2249 155.428C85.4222 155.343 85.6329 155.207 85.8569 155.02V153.036C85.6809 152.961 85.5129 152.905 85.3529 152.868C85.1929 152.831 85.0302 152.812 84.8649 152.812ZM91.1938 153.828V156.164L90.4738 156.324V155.612C90.1751 155.852 89.8925 156.031 89.6258 156.148C89.3645 156.265 89.1085 156.324 88.8578 156.324C88.5058 156.324 88.2205 156.228 88.0018 156.036C87.7831 155.839 87.6738 155.577 87.6738 155.252C87.6738 154.793 87.9031 154.455 88.3618 154.236C88.8205 154.012 89.5245 153.895 90.4738 153.884V153.868C90.4738 153.537 90.3938 153.287 90.2338 153.116C90.0791 152.94 89.8525 152.852 89.5538 152.852C89.3298 152.852 89.0978 152.9 88.8578 152.996C88.6231 153.092 88.3805 153.236 88.1298 153.428L88.1138 153.42L88.2658 152.612C88.4791 152.468 88.7005 152.361 88.9298 152.292C89.1645 152.223 89.4098 152.188 89.6658 152.188C90.1565 152.188 90.5325 152.329 90.7938 152.612C91.0605 152.895 91.1938 153.3 91.1938 153.828ZM88.4018 155.22C88.4018 155.369 88.4551 155.489 88.5618 155.58C88.6685 155.665 88.8151 155.708 89.0018 155.708C89.1885 155.708 89.4018 155.663 89.6418 155.572C89.8818 155.481 90.1591 155.34 90.4738 155.148V154.348C89.7805 154.391 89.2605 154.484 88.9138 154.628C88.5725 154.767 88.4018 154.964 88.4018 155.22ZM96.0849 152.26V155.876C96.0849 156.484 95.8982 156.961 95.5249 157.308C95.1569 157.655 94.6529 157.828 94.0129 157.828C93.7409 157.828 93.4769 157.799 93.2209 157.74C92.9649 157.681 92.7062 157.588 92.4449 157.46L92.2929 156.652L92.3089 156.644C92.6289 156.825 92.9249 156.956 93.1969 157.036C93.4742 157.121 93.7569 157.164 94.0449 157.164C94.4395 157.164 94.7569 157.047 94.9969 156.812C95.2369 156.583 95.3569 156.271 95.3569 155.876V155.516C95.1169 155.751 94.8822 155.921 94.6529 156.028C94.4235 156.129 94.1782 156.18 93.9169 156.18C93.4049 156.18 92.9809 156.001 92.6449 155.644C92.3142 155.287 92.1489 154.833 92.1489 154.284C92.1489 153.676 92.3595 153.177 92.7809 152.788C93.2075 152.393 93.7302 152.196 94.3489 152.196C94.5302 152.196 94.7089 152.215 94.8849 152.252C95.0609 152.289 95.2502 152.351 95.4529 152.436L95.9889 152.26H96.0849ZM94.3649 152.812C93.9435 152.812 93.5915 152.948 93.3089 153.22C93.0315 153.492 92.8929 153.833 92.8929 154.244C92.8929 154.633 93.0075 154.948 93.2369 155.188C93.4662 155.428 93.7649 155.548 94.1329 155.548C94.3355 155.548 94.5329 155.508 94.7249 155.428C94.9222 155.343 95.1329 155.207 95.3569 155.02V153.036C95.1809 152.961 95.0129 152.905 94.8529 152.868C94.6929 152.831 94.5302 152.812 94.3649 152.812ZM97.8378 150.332C97.9765 150.332 98.0938 150.38 98.1898 150.476C98.2858 150.572 98.3338 150.689 98.3338 150.828C98.3338 150.967 98.2858 151.084 98.1898 151.18C98.0938 151.276 97.9765 151.324 97.8378 151.324C97.6991 151.324 97.5818 151.276 97.4858 151.18C97.3898 151.084 97.3418 150.967 97.3418 150.828C97.3418 150.689 97.3898 150.572 97.4858 150.476C97.5818 150.38 97.6991 150.332 97.8378 150.332ZM98.1978 156.26H97.4778V152.26H98.1978V156.26ZM101.538 152.828C101.33 152.828 101.133 152.884 100.946 152.996C100.765 153.103 100.554 153.287 100.314 153.548V156.26H99.5941V152.356L100.314 152.196V153.012C100.543 152.719 100.77 152.508 100.994 152.38C101.218 152.247 101.466 152.18 101.738 152.18C102.159 152.18 102.498 152.321 102.754 152.604C103.015 152.887 103.146 153.265 103.146 153.74V156.26H102.426V153.812C102.426 153.503 102.346 153.263 102.186 153.092C102.031 152.916 101.815 152.828 101.538 152.828ZM108.03 152.26V155.876C108.03 156.484 107.844 156.961 107.47 157.308C107.102 157.655 106.598 157.828 105.958 157.828C105.686 157.828 105.422 157.799 105.166 157.74C104.91 157.681 104.652 157.588 104.39 157.46L104.238 156.652L104.254 156.644C104.574 156.825 104.87 156.956 105.142 157.036C105.42 157.121 105.702 157.164 105.99 157.164C106.385 157.164 106.702 157.047 106.942 156.812C107.182 156.583 107.302 156.271 107.302 155.876V155.516C107.062 155.751 106.828 155.921 106.598 156.028C106.369 156.129 106.124 156.18 105.862 156.18C105.35 156.18 104.926 156.001 104.59 155.644C104.26 155.287 104.094 154.833 104.094 154.284C104.094 153.676 104.305 153.177 104.726 152.788C105.153 152.393 105.676 152.196 106.294 152.196C106.476 152.196 106.654 152.215 106.83 152.252C107.006 152.289 107.196 152.351 107.398 152.436L107.934 152.26H108.03ZM106.31 152.812C105.889 152.812 105.537 152.948 105.254 153.22C104.977 153.492 104.838 153.833 104.838 154.244C104.838 154.633 104.953 154.948 105.182 155.188C105.412 155.428 105.71 155.548 106.078 155.548C106.281 155.548 106.478 155.508 106.67 155.428C106.868 155.343 107.078 155.207 107.302 155.02V153.036C107.126 152.961 106.958 152.905 106.798 152.868C106.638 152.831 106.476 152.812 106.31 152.812ZM116.046 153.348V155.644C115.678 155.889 115.31 156.068 114.942 156.18C114.574 156.287 114.176 156.34 113.75 156.34C112.896 156.34 112.203 156.079 111.67 155.556C111.136 155.028 110.87 154.335 110.87 153.476C110.87 152.633 111.158 151.94 111.734 151.396C112.315 150.852 113.051 150.58 113.942 150.58C114.304 150.58 114.643 150.62 114.958 150.7C115.272 150.775 115.587 150.895 115.902 151.06V151.916H115.886C115.534 151.708 115.198 151.556 114.878 151.46C114.563 151.359 114.243 151.308 113.918 151.308C113.278 151.308 112.742 151.516 112.31 151.932C111.878 152.343 111.662 152.852 111.662 153.46C111.662 154.105 111.859 154.628 112.254 155.028C112.648 155.423 113.16 155.62 113.79 155.62C114.078 155.62 114.342 155.591 114.582 155.532C114.827 155.473 115.062 155.38 115.286 155.252V154.052H113.678V153.348H116.046ZM119.677 152.964C119.442 152.964 119.21 153.02 118.981 153.132C118.757 153.244 118.493 153.433 118.189 153.7V156.26H117.469V152.356L118.189 152.196V153.212C118.52 152.801 118.778 152.529 118.965 152.396C119.157 152.263 119.362 152.196 119.581 152.196C119.629 152.196 119.669 152.199 119.701 152.204C119.738 152.209 119.784 152.217 119.837 152.228L119.893 152.988C119.856 152.977 119.818 152.972 119.781 152.972C119.749 152.967 119.714 152.964 119.677 152.964ZM123.764 153.828V156.164L123.044 156.324V155.612C122.745 155.852 122.463 156.031 122.196 156.148C121.935 156.265 121.679 156.324 121.428 156.324C121.076 156.324 120.791 156.228 120.572 156.036C120.353 155.839 120.244 155.577 120.244 155.252C120.244 154.793 120.473 154.455 120.932 154.236C121.391 154.012 122.095 153.895 123.044 153.884V153.868C123.044 153.537 122.964 153.287 122.804 153.116C122.649 152.94 122.423 152.852 122.124 152.852C121.9 152.852 121.668 152.9 121.428 152.996C121.193 153.092 120.951 153.236 120.7 153.428L120.684 153.42L120.836 152.612C121.049 152.468 121.271 152.361 121.5 152.292C121.735 152.223 121.98 152.188 122.236 152.188C122.727 152.188 123.103 152.329 123.364 152.612C123.631 152.895 123.764 153.3 123.764 153.828ZM120.972 155.22C120.972 155.369 121.025 155.489 121.132 155.58C121.239 155.665 121.385 155.708 121.572 155.708C121.759 155.708 121.972 155.663 122.212 155.572C122.452 155.481 122.729 155.34 123.044 155.148V154.348C122.351 154.391 121.831 154.484 121.484 154.628C121.143 154.767 120.972 154.964 120.972 155.22ZM126.991 152.828C126.783 152.828 126.586 152.884 126.399 152.996C126.218 153.103 126.007 153.287 125.767 153.548V156.26H125.047V152.356L125.767 152.196V153.012C125.997 152.719 126.223 152.508 126.447 152.38C126.671 152.247 126.919 152.18 127.191 152.18C127.613 152.18 127.951 152.321 128.207 152.604C128.469 152.887 128.599 153.265 128.599 153.74V156.26H127.879V153.812C127.879 153.503 127.799 153.263 127.639 153.092C127.485 152.916 127.269 152.828 126.991 152.828ZM133.483 156.26H132.755V155.684C132.526 155.913 132.302 156.081 132.083 156.188C131.87 156.289 131.633 156.34 131.371 156.34C130.859 156.34 130.427 156.151 130.075 155.772C129.723 155.388 129.547 154.911 129.547 154.34C129.547 153.727 129.745 153.217 130.139 152.812C130.534 152.401 131.009 152.196 131.563 152.196C131.771 152.196 131.971 152.231 132.163 152.3C132.361 152.364 132.558 152.468 132.755 152.612V150.452L133.483 150.188V156.26ZM131.683 152.836C131.283 152.836 130.95 152.972 130.683 153.244C130.422 153.516 130.291 153.863 130.291 154.284C130.291 154.695 130.411 155.033 130.651 155.3C130.897 155.561 131.201 155.692 131.563 155.692C131.771 155.692 131.969 155.652 132.155 155.572C132.342 155.492 132.542 155.364 132.755 155.188V153.172C132.569 153.055 132.39 152.969 132.219 152.916C132.049 152.863 131.87 152.836 131.683 152.836ZM141.603 156.26H140.835V153.756H137.459V156.26H136.683V150.66H137.459V153.044H140.835V150.66H141.603V156.26ZM146.414 155.204L146.15 155.996C145.915 156.124 145.697 156.215 145.494 156.268C145.291 156.321 145.07 156.348 144.83 156.348C144.195 156.348 143.691 156.159 143.318 155.78C142.945 155.401 142.758 154.895 142.758 154.26C142.758 153.673 142.945 153.175 143.318 152.764C143.691 152.353 144.155 152.148 144.71 152.148C145.265 152.148 145.707 152.343 146.038 152.732C146.369 153.116 146.534 153.612 146.534 154.22C146.534 154.273 146.531 154.332 146.526 154.396C146.521 154.46 146.515 154.508 146.51 154.54H143.502C143.555 154.903 143.705 155.185 143.95 155.388C144.201 155.591 144.521 155.692 144.91 155.692C145.145 155.692 145.39 155.649 145.646 155.564C145.907 155.473 146.158 155.351 146.398 155.196L146.414 155.204ZM144.686 152.78C144.361 152.78 144.086 152.895 143.862 153.124C143.643 153.353 143.518 153.647 143.486 154.004H145.806C145.774 153.62 145.659 153.321 145.462 153.108C145.265 152.889 145.006 152.78 144.686 152.78ZM149.771 152.964C149.536 152.964 149.304 153.02 149.075 153.132C148.851 153.244 148.587 153.433 148.283 153.7V156.26H147.563V152.356L148.283 152.196V153.212C148.613 152.801 148.872 152.529 149.059 152.396C149.251 152.263 149.456 152.196 149.675 152.196C149.723 152.196 149.763 152.199 149.795 152.204C149.832 152.209 149.877 152.217 149.931 152.228L149.987 152.988C149.949 152.977 149.912 152.972 149.875 152.972C149.843 152.967 149.808 152.964 149.771 152.964ZM152.651 156.372C152.038 156.372 151.534 156.169 151.139 155.764C150.744 155.353 150.547 154.855 150.547 154.268C150.547 153.687 150.75 153.188 151.155 152.772C151.56 152.356 152.064 152.148 152.667 152.148C153.286 152.148 153.79 152.351 154.179 152.756C154.574 153.156 154.771 153.652 154.771 154.244C154.771 154.831 154.568 155.332 154.163 155.748C153.763 156.164 153.259 156.372 152.651 156.372ZM154.035 154.244C154.035 153.828 153.904 153.484 153.643 153.212C153.387 152.935 153.062 152.796 152.667 152.796C152.267 152.796 151.936 152.937 151.675 153.22C151.419 153.497 151.291 153.847 151.291 154.268C151.291 154.684 151.419 155.031 151.675 155.308C151.936 155.585 152.262 155.724 152.651 155.724C153.051 155.724 153.382 155.583 153.643 155.3C153.904 155.017 154.035 154.665 154.035 154.244ZM160.252 153.348C160.604 153.455 160.873 153.623 161.06 153.852C161.252 154.076 161.348 154.351 161.348 154.676C161.348 155.156 161.161 155.54 160.788 155.828C160.414 156.116 159.924 156.26 159.316 156.26H157.644V150.66H159.332C159.881 150.66 160.313 150.791 160.628 151.052C160.942 151.308 161.1 151.665 161.1 152.124C161.1 152.391 161.025 152.628 160.876 152.836C160.732 153.044 160.524 153.215 160.252 153.348ZM159.284 151.324H158.388V153.076H159.204C159.54 153.076 159.812 152.993 160.02 152.828C160.228 152.657 160.332 152.439 160.332 152.172C160.332 151.911 160.236 151.705 160.044 151.556C159.857 151.401 159.604 151.324 159.284 151.324ZM158.388 153.732V155.596H159.356C159.729 155.596 160.025 155.511 160.244 155.34C160.468 155.169 160.58 154.943 160.58 154.66C160.58 154.367 160.468 154.14 160.244 153.98C160.025 153.815 159.716 153.732 159.316 153.732H158.388ZM163.221 156.26H162.501V150.452L163.221 150.188V156.26ZM166.386 156.372C165.772 156.372 165.268 156.169 164.874 155.764C164.479 155.353 164.282 154.855 164.282 154.268C164.282 153.687 164.484 153.188 164.89 152.772C165.295 152.356 165.799 152.148 166.402 152.148C167.02 152.148 167.524 152.351 167.914 152.756C168.308 153.156 168.506 153.652 168.506 154.244C168.506 154.831 168.303 155.332 167.898 155.748C167.498 156.164 166.994 156.372 166.386 156.372ZM167.77 154.244C167.77 153.828 167.639 153.484 167.378 153.212C167.122 152.935 166.796 152.796 166.402 152.796C166.002 152.796 165.671 152.937 165.41 153.22C165.154 153.497 165.026 153.847 165.026 154.268C165.026 154.684 165.154 155.031 165.41 155.308C165.671 155.585 165.996 155.724 166.386 155.724C166.786 155.724 167.116 155.583 167.378 155.3C167.639 155.017 167.77 154.665 167.77 154.244ZM172.764 155.068L172.636 155.9C172.417 156.049 172.19 156.164 171.956 156.244C171.721 156.319 171.484 156.356 171.244 156.356C170.641 156.356 170.15 156.161 169.772 155.772C169.393 155.383 169.204 154.881 169.204 154.268C169.204 153.671 169.404 153.172 169.804 152.772C170.209 152.367 170.718 152.164 171.332 152.164C171.598 152.164 171.841 152.204 172.06 152.284C172.278 152.359 172.484 152.479 172.676 152.644V153.532H172.66C172.42 153.287 172.19 153.108 171.972 152.996C171.758 152.884 171.54 152.828 171.316 152.828C170.926 152.828 170.601 152.967 170.34 153.244C170.078 153.521 169.948 153.86 169.948 154.26C169.948 154.676 170.07 155.02 170.316 155.292C170.566 155.559 170.886 155.692 171.276 155.692C171.51 155.692 171.758 155.636 172.02 155.524C172.281 155.407 172.524 155.252 172.748 155.06L172.764 155.068ZM177.508 156.26H176.556L174.796 154.5H174.564V156.26H173.844V150.452L174.564 150.188V153.956H174.788L176.46 152.26H177.372V152.276L175.412 154.204L177.508 156.244V156.26ZM178.512 156.332C178.362 156.332 178.234 156.279 178.128 156.172C178.021 156.065 177.968 155.937 177.968 155.788C177.968 155.639 178.021 155.511 178.128 155.404C178.234 155.297 178.362 155.244 178.512 155.244C178.661 155.244 178.786 155.297 178.888 155.404C178.994 155.511 179.048 155.639 179.048 155.788C179.048 155.937 178.994 156.065 178.888 156.172C178.786 156.279 178.661 156.332 178.512 156.332Z" fill="white"/>
<path d="M76.36 177.276C75.5333 177.276 74.84 176.996 74.28 176.436C73.72 175.876 73.44 175.188 73.44 174.372C73.44 173.55 73.7227 172.86 74.288 172.3C74.8533 171.734 75.5493 171.452 76.376 171.452C77.1973 171.452 77.888 171.732 78.448 172.292C79.008 172.852 79.288 173.54 79.288 174.356C79.288 175.177 79.0053 175.87 78.44 176.436C77.8747 176.996 77.1813 177.276 76.36 177.276ZM76.344 172.172C75.7573 172.172 75.2587 172.385 74.848 172.812C74.4373 173.233 74.232 173.748 74.232 174.356C74.232 174.974 74.4373 175.497 74.848 175.924C75.2587 176.345 75.7627 176.556 76.36 176.556C76.9467 176.556 77.448 176.345 77.864 175.924C78.2853 175.497 78.496 174.98 78.496 174.372C78.496 173.758 78.2853 173.238 77.864 172.812C77.448 172.385 76.9413 172.172 76.344 172.172ZM84.3346 175.084C84.3346 175.697 84.1372 176.209 83.7426 176.62C83.3532 177.025 82.8812 177.228 82.3266 177.228C82.1132 177.228 81.9079 177.193 81.7106 177.124C81.5186 177.054 81.3239 176.948 81.1266 176.804V178.692H80.4066V173.26L81.1266 173.1V173.748C81.3506 173.513 81.5719 173.345 81.7906 173.244C82.0092 173.137 82.2492 173.084 82.5106 173.084C83.0226 173.084 83.4546 173.276 83.8066 173.66C84.1586 174.038 84.3346 174.513 84.3346 175.084ZM83.5906 175.14C83.5906 174.724 83.4679 174.385 83.2226 174.124C82.9826 173.862 82.6812 173.732 82.3186 173.732C82.1106 173.732 81.9132 173.772 81.7266 173.852C81.5399 173.932 81.3399 174.06 81.1266 174.236V176.244C81.3079 176.361 81.4839 176.449 81.6546 176.508C81.8306 176.561 82.0146 176.588 82.2066 176.588C82.6066 176.588 82.9372 176.452 83.1986 176.18C83.4599 175.902 83.5906 175.556 83.5906 175.14ZM87.9355 176.204L87.7755 176.972C87.6582 177.057 87.5195 177.124 87.3595 177.172C87.1995 177.225 87.0342 177.252 86.8635 177.252C86.4848 177.252 86.1862 177.134 85.9675 176.9C85.7488 176.665 85.6395 176.337 85.6395 175.916V173.78H84.9595V173.164H85.6395V172.268L86.3515 172.004V173.164H87.9195V173.78H86.3515V175.884C86.3515 176.124 86.4075 176.305 86.5195 176.428C86.6315 176.545 86.7968 176.604 87.0155 176.604C87.1648 176.604 87.3142 176.572 87.4635 176.508C87.6128 176.438 87.7648 176.334 87.9195 176.196L87.9355 176.204ZM89.3456 171.236C89.4843 171.236 89.6016 171.284 89.6976 171.38C89.7936 171.476 89.8416 171.593 89.8416 171.732C89.8416 171.87 89.7936 171.988 89.6976 172.084C89.6016 172.18 89.4843 172.228 89.3456 172.228C89.207 172.228 89.0896 172.18 88.9936 172.084C88.8976 171.988 88.8496 171.87 88.8496 171.732C88.8496 171.593 88.8976 171.476 88.9936 171.38C89.0896 171.284 89.207 171.236 89.3456 171.236ZM89.7056 177.164H88.9856V173.164H89.7056V177.164ZM92.8699 177.276C92.2565 177.276 91.7525 177.073 91.3579 176.668C90.9632 176.257 90.7659 175.758 90.7659 175.172C90.7659 174.59 90.9685 174.092 91.3739 173.676C91.7792 173.26 92.2832 173.052 92.8859 173.052C93.5045 173.052 94.0085 173.254 94.3979 173.66C94.7925 174.06 94.9899 174.556 94.9899 175.148C94.9899 175.734 94.7872 176.236 94.3819 176.652C93.9819 177.068 93.4779 177.276 92.8699 177.276ZM94.2539 175.148C94.2539 174.732 94.1232 174.388 93.8619 174.116C93.6059 173.838 93.2805 173.7 92.8859 173.7C92.4859 173.7 92.1552 173.841 91.8939 174.124C91.6379 174.401 91.5099 174.75 91.5099 175.172C91.5099 175.588 91.6379 175.934 91.8939 176.212C92.1552 176.489 92.4805 176.628 92.8699 176.628C93.2699 176.628 93.6005 176.486 93.8619 176.204C94.1232 175.921 94.2539 175.569 94.2539 175.148ZM97.9599 173.732C97.7519 173.732 97.5546 173.788 97.3679 173.9C97.1866 174.006 96.9759 174.19 96.7359 174.452V177.164H96.0159V173.26L96.7359 173.1V173.916C96.9653 173.622 97.1919 173.412 97.4159 173.284C97.6399 173.15 97.8879 173.084 98.1599 173.084C98.5813 173.084 98.9199 173.225 99.1759 173.508C99.4373 173.79 99.5679 174.169 99.5679 174.644V177.164H98.8479V174.716C98.8479 174.406 98.7679 174.166 98.6079 173.996C98.4533 173.82 98.2373 173.732 97.9599 173.732ZM104.1 174.732V177.068L103.38 177.228V176.516C103.081 176.756 102.799 176.934 102.532 177.052C102.271 177.169 102.015 177.228 101.764 177.228C101.412 177.228 101.127 177.132 100.908 176.94C100.689 176.742 100.58 176.481 100.58 176.156C100.58 175.697 100.809 175.358 101.268 175.14C101.727 174.916 102.431 174.798 103.38 174.788V174.772C103.38 174.441 103.3 174.19 103.14 174.02C102.985 173.844 102.759 173.756 102.46 173.756C102.236 173.756 102.004 173.804 101.764 173.9C101.529 173.996 101.287 174.14 101.036 174.332L101.02 174.324L101.172 173.516C101.385 173.372 101.607 173.265 101.836 173.196C102.071 173.126 102.316 173.092 102.572 173.092C103.063 173.092 103.439 173.233 103.7 173.516C103.967 173.798 104.1 174.204 104.1 174.732ZM101.308 176.124C101.308 176.273 101.361 176.393 101.468 176.484C101.575 176.569 101.721 176.612 101.908 176.612C102.095 176.612 102.308 176.566 102.548 176.476C102.788 176.385 103.065 176.244 103.38 176.052V175.252C102.687 175.294 102.167 175.388 101.82 175.532C101.479 175.67 101.308 175.868 101.308 176.124ZM106.143 177.164H105.423V171.356L106.143 171.092V177.164ZM112.498 175.972L112.37 176.804C112.151 176.953 111.925 177.068 111.69 177.148C111.455 177.222 111.218 177.26 110.978 177.26C110.375 177.26 109.885 177.065 109.506 176.676C109.127 176.286 108.938 175.785 108.938 175.172C108.938 174.574 109.138 174.076 109.538 173.676C109.943 173.27 110.453 173.068 111.066 173.068C111.333 173.068 111.575 173.108 111.794 173.188C112.013 173.262 112.218 173.382 112.41 173.548V174.436H112.394C112.154 174.19 111.925 174.012 111.706 173.9C111.493 173.788 111.274 173.732 111.05 173.732C110.661 173.732 110.335 173.87 110.074 174.148C109.813 174.425 109.682 174.764 109.682 175.164C109.682 175.58 109.805 175.924 110.05 176.196C110.301 176.462 110.621 176.596 111.01 176.596C111.245 176.596 111.493 176.54 111.754 176.428C112.015 176.31 112.258 176.156 112.482 175.964L112.498 175.972ZM116.834 174.732V177.068L116.114 177.228V176.516C115.816 176.756 115.533 176.934 115.266 177.052C115.005 177.169 114.749 177.228 114.498 177.228C114.146 177.228 113.861 177.132 113.642 176.94C113.424 176.742 113.314 176.481 113.314 176.156C113.314 175.697 113.544 175.358 114.002 175.14C114.461 174.916 115.165 174.798 116.114 174.788V174.772C116.114 174.441 116.034 174.19 115.874 174.02C115.72 173.844 115.493 173.756 115.194 173.756C114.97 173.756 114.738 173.804 114.498 173.9C114.264 173.996 114.021 174.14 113.77 174.332L113.754 174.324L113.906 173.516C114.12 173.372 114.341 173.265 114.57 173.196C114.805 173.126 115.05 173.092 115.306 173.092C115.797 173.092 116.173 173.233 116.434 173.516C116.701 173.798 116.834 174.204 116.834 174.732ZM114.042 176.124C114.042 176.273 114.096 176.393 114.202 176.484C114.309 176.569 114.456 176.612 114.642 176.612C114.829 176.612 115.042 176.566 115.282 176.476C115.522 176.385 115.8 176.244 116.114 176.052V175.252C115.421 175.294 114.901 175.388 114.554 175.532C114.213 175.67 114.042 175.868 114.042 176.124ZM118.878 177.164H118.158V171.356L118.878 171.092V177.164ZM121.034 177.164H120.314V171.356L121.034 171.092V177.164ZM122.262 175.308V174.628H124.35V175.308H122.262ZM127.99 176.204L127.83 176.972C127.713 177.057 127.574 177.124 127.414 177.172C127.254 177.225 127.089 177.252 126.918 177.252C126.54 177.252 126.241 177.134 126.022 176.9C125.804 176.665 125.694 176.337 125.694 175.916V173.78H125.014V173.164H125.694V172.268L126.406 172.004V173.164H127.974V173.78H126.406V175.884C126.406 176.124 126.462 176.305 126.574 176.428C126.686 176.545 126.852 176.604 127.07 176.604C127.22 176.604 127.369 176.572 127.518 176.508C127.668 176.438 127.82 176.334 127.974 176.196L127.99 176.204ZM130.768 177.276C130.155 177.276 129.651 177.073 129.256 176.668C128.862 176.257 128.664 175.758 128.664 175.172C128.664 174.59 128.867 174.092 129.272 173.676C129.678 173.26 130.182 173.052 130.784 173.052C131.403 173.052 131.907 173.254 132.296 173.66C132.691 174.06 132.888 174.556 132.888 175.148C132.888 175.734 132.686 176.236 132.28 176.652C131.88 177.068 131.376 177.276 130.768 177.276ZM132.152 175.148C132.152 174.732 132.022 174.388 131.76 174.116C131.504 173.838 131.179 173.7 130.784 173.7C130.384 173.7 130.054 173.841 129.792 174.124C129.536 174.401 129.408 174.75 129.408 175.172C129.408 175.588 129.536 175.934 129.792 176.212C130.054 176.489 130.379 176.628 130.768 176.628C131.168 176.628 131.499 176.486 131.76 176.204C132.022 175.921 132.152 175.569 132.152 175.148ZM133.746 175.308V174.628H135.834V175.308H133.746ZM140.202 174.732V177.068L139.482 177.228V176.516C139.183 176.756 138.9 176.934 138.634 177.052C138.372 177.169 138.116 177.228 137.866 177.228C137.514 177.228 137.228 177.132 137.01 176.94C136.791 176.742 136.682 176.481 136.682 176.156C136.682 175.697 136.911 175.358 137.37 175.14C137.828 174.916 138.532 174.798 139.482 174.788V174.772C139.482 174.441 139.402 174.19 139.242 174.02C139.087 173.844 138.86 173.756 138.562 173.756C138.338 173.756 138.106 173.804 137.866 173.9C137.631 173.996 137.388 174.14 137.138 174.332L137.122 174.324L137.274 173.516C137.487 173.372 137.708 173.265 137.938 173.196C138.172 173.126 138.418 173.092 138.674 173.092C139.164 173.092 139.54 173.233 139.802 173.516C140.068 173.798 140.202 174.204 140.202 174.732ZM137.41 176.124C137.41 176.273 137.463 176.393 137.57 176.484C137.676 176.569 137.823 176.612 138.01 176.612C138.196 176.612 138.41 176.566 138.65 176.476C138.89 176.385 139.167 176.244 139.482 176.052V175.252C138.788 175.294 138.268 175.388 137.922 175.532C137.58 175.67 137.41 175.868 137.41 176.124ZM144.717 175.972L144.589 176.804C144.37 176.953 144.143 177.068 143.909 177.148C143.674 177.222 143.437 177.26 143.197 177.26C142.594 177.26 142.103 177.065 141.725 176.676C141.346 176.286 141.157 175.785 141.157 175.172C141.157 174.574 141.357 174.076 141.757 173.676C142.162 173.27 142.671 173.068 143.285 173.068C143.551 173.068 143.794 173.108 144.013 173.188C144.231 173.262 144.437 173.382 144.629 173.548V174.436H144.613C144.373 174.19 144.143 174.012 143.925 173.9C143.711 173.788 143.493 173.732 143.269 173.732C142.879 173.732 142.554 173.87 142.293 174.148C142.031 174.425 141.901 174.764 141.901 175.164C141.901 175.58 142.023 175.924 142.269 176.196C142.519 176.462 142.839 176.596 143.229 176.596C143.463 176.596 143.711 176.54 143.973 176.428C144.234 176.31 144.477 176.156 144.701 175.964L144.717 175.972ZM148.365 176.204L148.205 176.972C148.088 177.057 147.949 177.124 147.789 177.172C147.629 177.225 147.464 177.252 147.293 177.252C146.915 177.252 146.616 177.134 146.397 176.9C146.179 176.665 146.069 176.337 146.069 175.916V173.78H145.389V173.164H146.069V172.268L146.781 172.004V173.164H148.349V173.78H146.781V175.884C146.781 176.124 146.837 176.305 146.949 176.428C147.061 176.545 147.227 176.604 147.445 176.604C147.595 176.604 147.744 176.572 147.893 176.508C148.043 176.438 148.195 176.334 148.349 176.196L148.365 176.204ZM149.775 171.236C149.914 171.236 150.031 171.284 150.127 171.38C150.223 171.476 150.271 171.593 150.271 171.732C150.271 171.87 150.223 171.988 150.127 172.084C150.031 172.18 149.914 172.228 149.775 172.228C149.637 172.228 149.519 172.18 149.423 172.084C149.327 171.988 149.279 171.87 149.279 171.732C149.279 171.593 149.327 171.476 149.423 171.38C149.519 171.284 149.637 171.236 149.775 171.236ZM150.135 177.164H149.415V173.164H150.135V177.164ZM153.3 177.276C152.686 177.276 152.182 177.073 151.788 176.668C151.393 176.257 151.196 175.758 151.196 175.172C151.196 174.59 151.398 174.092 151.804 173.676C152.209 173.26 152.713 173.052 153.316 173.052C153.934 173.052 154.438 173.254 154.828 173.66C155.222 174.06 155.42 174.556 155.42 175.148C155.42 175.734 155.217 176.236 154.812 176.652C154.412 177.068 153.908 177.276 153.3 177.276ZM154.684 175.148C154.684 174.732 154.553 174.388 154.292 174.116C154.036 173.838 153.71 173.7 153.316 173.7C152.916 173.7 152.585 173.841 152.324 174.124C152.068 174.401 151.94 174.75 151.94 175.172C151.94 175.588 152.068 175.934 152.324 176.212C152.585 176.489 152.91 176.628 153.3 176.628C153.7 176.628 154.03 176.486 154.292 176.204C154.553 175.921 154.684 175.569 154.684 175.148ZM158.39 173.732C158.182 173.732 157.984 173.788 157.798 173.9C157.616 174.006 157.406 174.19 157.166 174.452V177.164H156.446V173.26L157.166 173.1V173.916C157.395 173.622 157.622 173.412 157.846 173.284C158.07 173.15 158.318 173.084 158.59 173.084C159.011 173.084 159.35 173.225 159.606 173.508C159.867 173.79 159.998 174.169 159.998 174.644V177.164H159.278V174.716C159.278 174.406 159.198 174.166 159.038 173.996C158.883 173.82 158.667 173.732 158.39 173.732Z" fill="white"/>
<path d="M59.568 33.824C59.568 31.568 58.224 30.608 55.296 29.36C52.416 28.136 51.912 27.392 51.912 25.88C51.912 24.584 52.824 23.384 55.08 23.384C56.184 23.384 56.928 23.864 57.312 24.08C58.248 24.608 58.608 25.808 58.704 26.888H59.232V23.144C58.416 22.784 57.288 22.424 55.704 22.424C52.32 22.424 49.848 24.224 49.848 26.864C49.848 29.144 51.168 30.2 54.336 31.424C56.472 32.24 57.504 33.056 57.504 34.736C57.504 36.2 56.448 37.448 54.312 37.448C53.232 37.448 52.248 36.944 51.624 36.536C50.688 35.912 50.016 34.664 49.8 33.608H49.272L49.704 37.424C50.616 37.832 52.032 38.36 53.88 38.36C57.096 38.36 59.568 36.656 59.568 33.824ZM65.238 23.12C65.238 22.52 64.71 21.872 63.966 21.872C63.198 21.872 62.67 22.52 62.67 23.12C62.67 23.696 63.198 24.32 63.966 24.32C64.71 24.32 65.238 23.696 65.238 23.12ZM66.582 37.424C65.382 37.304 65.238 37.184 64.974 36.704V27.32H64.686L61.59 28.448V28.88C62.814 29.192 63.126 29.624 63.126 30.176L63.102 36.704C62.862 37.112 62.67 37.328 61.494 37.424V38H66.582V37.424ZM74.7107 36.536C74.4707 36.632 73.6787 36.968 73.1267 36.968C71.7107 36.968 70.8707 36.128 70.8707 34.784C70.8707 32.648 70.9187 31.28 70.9667 28.856L74.5187 28.88V27.752H70.9427L70.9667 25.52H70.6547L67.7987 28.352V28.856L69.1187 28.832C69.0707 31.112 68.9267 32.816 68.9267 35.096C68.9267 37.016 69.5747 38.192 71.7587 38.192C72.6227 38.192 74.0867 37.52 74.7107 37.016V36.536ZM83.9364 35.504C82.9044 36.392 82.4004 36.8 81.0324 36.8C79.0404 36.8 77.3604 35.12 77.3604 32.6C77.3604 32.048 77.3844 31.52 77.4084 31.304L83.9604 31.352V30.944C83.9604 28.664 82.8324 27.392 80.4084 27.392C77.5044 27.392 75.3924 29.768 75.3924 33.296C75.3924 36.2 77.2884 38.192 79.7604 38.192C81.7284 38.192 82.8324 37.4 84.2964 36.056L83.9364 35.504ZM77.5044 30.656C77.7684 29.072 78.7044 28.112 79.9764 28.112C81.0564 28.112 82.0164 29.312 82.0164 30.608L77.5044 30.656ZM105.235 22.616H104.779C104.467 22.712 103.939 22.784 103.339 22.784H92.8029C92.0109 22.784 91.6749 22.712 91.3629 22.616H90.9069V26.672H91.4109C91.4589 24.632 92.5149 23.912 94.2909 23.888L96.9789 23.864V36.464C96.6429 37.184 95.1309 37.4 94.0269 37.448V38H102.067V37.448C100.963 37.4 99.6909 37.256 99.1629 36.128V23.864L101.851 23.888C103.627 23.912 104.707 24.632 104.755 26.672H105.235V22.616ZM109.488 23.12C109.488 22.52 108.96 21.872 108.216 21.872C107.448 21.872 106.92 22.52 106.92 23.12C106.92 23.696 107.448 24.32 108.216 24.32C108.96 24.32 109.488 23.696 109.488 23.12ZM110.832 37.424C109.632 37.304 109.488 37.184 109.224 36.704V27.32H108.936L105.84 28.448V28.88C107.064 29.192 107.376 29.624 107.376 30.176L107.352 36.704C107.112 37.112 106.92 37.328 105.744 37.424V38H110.832V37.424ZM118.961 36.536C118.721 36.632 117.929 36.968 117.377 36.968C115.961 36.968 115.121 36.128 115.121 34.784C115.121 32.648 115.169 31.28 115.217 28.856L118.769 28.88V27.752H115.193L115.217 25.52H114.905L112.049 28.352V28.856L113.369 28.832C113.321 31.112 113.177 32.816 113.177 35.096C113.177 37.016 113.825 38.192 116.009 38.192C116.873 38.192 118.337 37.52 118.961 37.016V36.536ZM124.706 37.448C123.506 37.328 123.218 37.208 122.978 36.728V22.16L123.434 21.344V21.008H123.05L119.45 22.088V22.544C121.106 22.712 121.058 23.048 121.058 23.864V36.728C120.866 37.136 120.578 37.376 119.426 37.448V38H124.706V37.448ZM134.374 35.504C133.342 36.392 132.838 36.8 131.47 36.8C129.478 36.8 127.798 35.12 127.798 32.6C127.798 32.048 127.822 31.52 127.846 31.304L134.398 31.352V30.944C134.398 28.664 133.27 27.392 130.846 27.392C127.942 27.392 125.83 29.768 125.83 33.296C125.83 36.2 127.726 38.192 130.198 38.192C132.166 38.192 133.27 37.4 134.734 36.056L134.374 35.504ZM127.942 30.656C128.206 29.072 129.142 28.112 130.414 28.112C131.494 28.112 132.454 29.312 132.454 30.608L127.942 30.656Z" fill="black"/>
<path d="M436.92 35H436V28H436.89L441.31 33.03V28H442.22V35.05H441.89L436.92 29.39V35ZM448.152 31.96V34.88L447.252 35.08V34.19C446.879 34.49 446.526 34.7133 446.192 34.86C445.866 35.0067 445.546 35.08 445.232 35.08C444.792 35.08 444.436 34.96 444.162 34.72C443.889 34.4733 443.752 34.1467 443.752 33.74C443.752 33.1667 444.039 32.7433 444.612 32.47C445.186 32.19 446.066 32.0433 447.252 32.03V32.01C447.252 31.5967 447.152 31.2833 446.952 31.07C446.759 30.85 446.476 30.74 446.102 30.74C445.822 30.74 445.532 30.8 445.232 30.92C444.939 31.04 444.636 31.22 444.322 31.46L444.302 31.45L444.492 30.44C444.759 30.26 445.036 30.1267 445.322 30.04C445.616 29.9533 445.922 29.91 446.242 29.91C446.856 29.91 447.326 30.0867 447.652 30.44C447.986 30.7933 448.152 31.3 448.152 31.96ZM444.662 33.7C444.662 33.8867 444.729 34.0367 444.862 34.15C444.996 34.2567 445.179 34.31 445.412 34.31C445.646 34.31 445.912 34.2533 446.212 34.14C446.512 34.0267 446.859 33.85 447.252 33.61V32.61C446.386 32.6633 445.736 32.78 445.302 32.96C444.876 33.1333 444.662 33.38 444.662 33.7ZM453.28 30H454.26L451.62 35.14H451.43L448.97 30H449.96L451.56 33.53L453.28 30ZM460.011 31.33C460.498 31.47 460.875 31.7 461.141 32.02C461.408 32.34 461.541 32.71 461.541 33.13C461.541 33.6967 461.315 34.17 460.861 34.55C460.415 34.9233 459.868 35.11 459.221 35.11C458.868 35.11 458.551 35.0733 458.271 35C457.998 34.92 457.671 34.7633 457.291 34.53L457.121 33.44L457.141 33.43C457.561 33.7367 457.925 33.9533 458.231 34.08C458.538 34.2 458.858 34.26 459.191 34.26C459.591 34.26 459.921 34.1533 460.181 33.94C460.448 33.7267 460.581 33.4533 460.581 33.12C460.581 32.72 460.395 32.4033 460.021 32.17C459.655 31.93 459.075 31.7533 458.281 31.64V31.28C459.055 31.0333 459.605 30.79 459.931 30.55C460.258 30.31 460.421 30.0233 460.421 29.69C460.421 29.4033 460.318 29.1733 460.111 29C459.911 28.8267 459.645 28.74 459.311 28.74C459.025 28.74 458.728 28.8067 458.421 28.94C458.115 29.0667 457.765 29.2767 457.371 29.57H457.351V28.54C457.751 28.2867 458.101 28.1167 458.401 28.03C458.701 27.9367 459.025 27.89 459.371 27.89C459.985 27.89 460.471 28.0433 460.831 28.35C461.191 28.6567 461.371 29.07 461.371 29.59C461.371 29.95 461.255 30.2767 461.021 30.57C460.795 30.8633 460.458 31.1167 460.011 31.33Z" fill="black"/>
<path d="M394.92 35H394V28H394.89L399.31 33.03V28H400.22V35.05H399.89L394.92 29.39V35ZM406.152 31.96V34.88L405.252 35.08V34.19C404.879 34.49 404.526 34.7133 404.192 34.86C403.866 35.0067 403.546 35.08 403.232 35.08C402.792 35.08 402.436 34.96 402.162 34.72C401.889 34.4733 401.752 34.1467 401.752 33.74C401.752 33.1667 402.039 32.7433 402.612 32.47C403.186 32.19 404.066 32.0433 405.252 32.03V32.01C405.252 31.5967 405.152 31.2833 404.952 31.07C404.759 30.85 404.476 30.74 404.102 30.74C403.822 30.74 403.532 30.8 403.232 30.92C402.939 31.04 402.636 31.22 402.322 31.46L402.302 31.45L402.492 30.44C402.759 30.26 403.036 30.1267 403.322 30.04C403.616 29.9533 403.922 29.91 404.242 29.91C404.856 29.91 405.326 30.0867 405.652 30.44C405.986 30.7933 406.152 31.3 406.152 31.96ZM402.662 33.7C402.662 33.8867 402.729 34.0367 402.862 34.15C402.996 34.2567 403.179 34.31 403.412 34.31C403.646 34.31 403.912 34.2533 404.212 34.14C404.512 34.0267 404.859 33.85 405.252 33.61V32.61C404.386 32.6633 403.736 32.78 403.302 32.96C402.876 33.1333 402.662 33.38 402.662 33.7ZM411.28 30H412.26L409.62 35.14H409.43L406.97 30H407.96L409.56 33.53L411.28 30ZM416.641 34.17H419.941L419.471 35H415.181L415.101 34.82L417.561 31.83C417.961 31.35 418.225 30.9767 418.351 30.71C418.485 30.4433 418.551 30.17 418.551 29.89C418.551 29.5633 418.445 29.2933 418.231 29.08C418.018 28.86 417.745 28.75 417.411 28.75C417.065 28.75 416.728 28.8633 416.401 29.09C416.075 29.3167 415.741 29.67 415.401 30.15L415.381 30.14L415.231 29.1C415.545 28.7 415.885 28.4 416.251 28.2C416.625 28 417.031 27.9 417.471 27.9C418.071 27.9 418.555 28.0767 418.921 28.43C419.288 28.7767 419.471 29.2367 419.471 29.81C419.471 30.1833 419.391 30.54 419.231 30.88C419.071 31.2133 418.771 31.6433 418.331 32.17L416.641 34.17Z" fill="black"/>
<path d="M354.92 35H354V28H354.89L359.31 33.03V28H360.22V35.05H359.89L354.92 29.39V35ZM366.152 31.96V34.88L365.252 35.08V34.19C364.879 34.49 364.526 34.7133 364.192 34.86C363.866 35.0067 363.546 35.08 363.232 35.08C362.792 35.08 362.436 34.96 362.162 34.72C361.889 34.4733 361.752 34.1467 361.752 33.74C361.752 33.1667 362.039 32.7433 362.612 32.47C363.186 32.19 364.066 32.0433 365.252 32.03V32.01C365.252 31.5967 365.152 31.2833 364.952 31.07C364.759 30.85 364.476 30.74 364.102 30.74C363.822 30.74 363.532 30.8 363.232 30.92C362.939 31.04 362.636 31.22 362.322 31.46L362.302 31.45L362.492 30.44C362.759 30.26 363.036 30.1267 363.322 30.04C363.616 29.9533 363.922 29.91 364.242 29.91C364.856 29.91 365.326 30.0867 365.652 30.44C365.986 30.7933 366.152 31.3 366.152 31.96ZM362.662 33.7C362.662 33.8867 362.729 34.0367 362.862 34.15C362.996 34.2567 363.179 34.31 363.412 34.31C363.646 34.31 363.912 34.2533 364.212 34.14C364.512 34.0267 364.859 33.85 365.252 33.61V32.61C364.386 32.6633 363.736 32.78 363.302 32.96C362.876 33.1333 362.662 33.38 362.662 33.7ZM371.28 30H372.26L369.62 35.14H369.43L366.97 30H367.96L369.56 33.53L371.28 30ZM375.071 30.5L375.051 30.49V29.51L377.631 27.87L377.801 27.92V35H376.871V29.35L375.071 30.5Z" fill="black"/>
<line x1="73" y1="181.5" x2="161" y2="181.5" stroke="white"/>
</svg>
