<svg width="375" height="19" viewBox="0 0 375 19" fill="none" xmlns="http://www.w3.org/2000/svg">
<path d="M7.44 3.4V4.096H5.24V9H4.472V4.096H2.28V3.4H7.44ZM10.8969 6.568V8.904L10.1769 9.064V8.352C9.87827 8.592 9.5956 8.77067 9.32894 8.888C9.0676 9.00533 8.8116 9.064 8.56094 9.064C8.20894 9.064 7.9236 8.968 7.70494 8.776C7.48627 8.57867 7.37694 8.31733 7.37694 7.992C7.37694 7.53333 7.60627 7.19467 8.06494 6.976C8.5236 6.752 9.2276 6.63467 10.1769 6.624V6.608C10.1769 6.27733 10.0969 6.02667 9.93694 5.856C9.78227 5.68 9.5556 5.592 9.25694 5.592C9.03294 5.592 8.80094 5.64 8.56094 5.736C8.32627 5.832 8.0836 5.976 7.83294 6.168L7.81694 6.16L7.96894 5.352C8.18227 5.208 8.4036 5.10133 8.63294 5.032C8.8676 4.96267 9.11294 4.928 9.36894 4.928C9.8596 4.928 10.2356 5.06933 10.4969 5.352C10.7636 5.63467 10.8969 6.04 10.8969 6.568ZM8.10494 7.96C8.10494 8.10933 8.15827 8.22933 8.26494 8.32C8.3716 8.40533 8.51827 8.448 8.70494 8.448C8.8916 8.448 9.10494 8.40267 9.34494 8.312C9.58494 8.22133 9.86227 8.08 10.1769 7.888V7.088C9.4836 7.13067 8.9636 7.224 8.61694 7.368C8.2756 7.50667 8.10494 7.704 8.10494 7.96ZM14.308 4.92C14.804 4.92 15.22 5.10933 15.556 5.488C15.8973 5.86133 16.068 6.328 16.068 6.888C16.068 7.52267 15.8573 8.04533 15.436 8.456C15.0147 8.86133 14.492 9.064 13.868 9.064C13.6867 9.064 13.508 9.04533 13.332 9.008C13.156 8.97067 12.9747 8.912 12.788 8.832L12.268 9H12.18V3.192L12.9 2.928V5.584C13.1347 5.34933 13.364 5.18133 13.588 5.08C13.812 4.97333 14.052 4.92 14.308 4.92ZM15.332 6.936C15.332 6.53067 15.2147 6.20267 14.98 5.952C14.7507 5.696 14.4547 5.568 14.092 5.568C13.884 5.568 13.6867 5.608 13.5 5.688C13.3133 5.768 13.1133 5.896 12.9 6.072V8.232C13.06 8.296 13.2173 8.344 13.372 8.376C13.5267 8.408 13.6867 8.424 13.852 8.424C14.2787 8.424 14.6307 8.28267 14.908 8C15.1907 7.71733 15.332 7.36267 15.332 6.936ZM18.6777 6.664C19.2057 6.78667 19.571 6.94133 19.7737 7.128C19.9817 7.31467 20.0857 7.57067 20.0857 7.896C20.0857 8.24267 19.9337 8.528 19.6297 8.752C19.331 8.976 18.947 9.088 18.4777 9.088C18.195 9.088 17.9257 9.048 17.6697 8.968C17.4137 8.888 17.1604 8.76533 16.9097 8.6L16.7577 7.728L16.7737 7.72C17.0724 7.95467 17.3737 8.13333 17.6777 8.256C17.9817 8.37867 18.275 8.44 18.5577 8.44C18.7977 8.44 18.995 8.39467 19.1497 8.304C19.3097 8.208 19.3897 8.08533 19.3897 7.936C19.3897 7.776 19.315 7.65067 19.1657 7.56C19.0217 7.46933 18.7337 7.37333 18.3017 7.272C17.7844 7.14933 17.4244 6.99733 17.2217 6.816C17.019 6.63467 16.9177 6.39733 16.9177 6.104C16.9177 5.752 17.0617 5.46667 17.3497 5.248C17.643 5.024 18.019 4.912 18.4777 4.912C18.7017 4.912 18.9257 4.944 19.1497 5.008C19.3737 5.072 19.587 5.16267 19.7897 5.28V6.048H19.7737C19.523 5.888 19.2804 5.768 19.0457 5.688C18.8164 5.60267 18.6004 5.56 18.3977 5.56C18.1577 5.56 17.9657 5.60267 17.8217 5.688C17.683 5.77333 17.6137 5.88533 17.6137 6.024C17.6137 6.17333 17.6857 6.29333 17.8297 6.384C17.9737 6.46933 18.2564 6.56267 18.6777 6.664ZM25.4195 9.096C24.6248 9.096 23.9608 8.824 23.4275 8.28C22.8942 7.736 22.6275 7.04267 22.6275 6.2C22.6275 5.80533 22.6995 5.432 22.8435 5.08C22.9928 4.728 23.2035 4.416 23.4755 4.144C23.7475 3.87733 24.0595 3.672 24.4115 3.528C24.7688 3.37867 25.1422 3.304 25.5315 3.304C25.8942 3.304 26.2302 3.36267 26.5395 3.48C26.8542 3.59733 27.1422 3.77067 27.4035 4V4.936H27.3875C27.0782 4.62667 26.7662 4.39733 26.4515 4.248C26.1422 4.09867 25.8222 4.024 25.4915 4.024C24.9262 4.024 24.4382 4.23467 24.0275 4.656C23.6222 5.07733 23.4195 5.584 23.4195 6.176C23.4195 6.80533 23.6195 7.33067 24.0195 7.752C24.4195 8.168 24.9022 8.376 25.4675 8.376C25.8248 8.376 26.1715 8.30133 26.5075 8.152C26.8488 7.99733 27.1768 7.768 27.4915 7.464L27.5075 7.472L27.3955 8.376C27.0862 8.62133 26.7688 8.80267 26.4435 8.92C26.1182 9.03733 25.7768 9.096 25.4195 9.096ZM31.8891 6.568V8.904L31.1691 9.064V8.352C30.8705 8.592 30.5878 8.77067 30.3211 8.888C30.0598 9.00533 29.8038 9.064 29.5531 9.064C29.2011 9.064 28.9158 8.968 28.6971 8.776C28.4785 8.57867 28.3691 8.31733 28.3691 7.992C28.3691 7.53333 28.5985 7.19467 29.0571 6.976C29.5158 6.752 30.2198 6.63467 31.1691 6.624V6.608C31.1691 6.27733 31.0891 6.02667 30.9291 5.856C30.7745 5.68 30.5478 5.592 30.2491 5.592C30.0251 5.592 29.7931 5.64 29.5531 5.736C29.3185 5.832 29.0758 5.976 28.8251 6.168L28.8091 6.16L28.9611 5.352C29.1745 5.208 29.3958 5.10133 29.6251 5.032C29.8598 4.96267 30.1051 4.928 30.3611 4.928C30.8518 4.928 31.2278 5.06933 31.4891 5.352C31.7558 5.63467 31.8891 6.04 31.8891 6.568ZM29.0971 7.96C29.0971 8.10933 29.1505 8.22933 29.2571 8.32C29.3638 8.40533 29.5105 8.448 29.6971 8.448C29.8838 8.448 30.0971 8.40267 30.3371 8.312C30.5771 8.22133 30.8545 8.08 31.1691 7.888V7.088C30.4758 7.13067 29.9558 7.224 29.6091 7.368C29.2678 7.50667 29.0971 7.704 29.0971 7.96ZM35.1162 5.568C34.9082 5.568 34.7109 5.624 34.5242 5.736C34.3429 5.84267 34.1322 6.02667 33.8922 6.288V9H33.1722V5.096L33.8922 4.936V5.752C34.1215 5.45867 34.3482 5.248 34.5722 5.12C34.7962 4.98667 35.0442 4.92 35.3162 4.92C35.7375 4.92 36.0762 5.06133 36.3322 5.344C36.5935 5.62667 36.7242 6.00533 36.7242 6.48V9H36.0042V6.552C36.0042 6.24267 35.9242 6.00267 35.7642 5.832C35.6095 5.656 35.3935 5.568 35.1162 5.568ZM44.1669 9H43.1989L41.2309 6.76H40.6229V9H39.8469V3.4H41.4789C42.0442 3.4 42.4975 3.54933 42.8389 3.848C43.1855 4.14667 43.3589 4.54933 43.3589 5.056C43.3589 5.43467 43.2415 5.76533 43.0069 6.048C42.7722 6.33067 42.4549 6.52533 42.0549 6.632L44.1669 9ZM42.5749 5.056C42.5749 4.768 42.4709 4.536 42.2629 4.36C42.0549 4.17867 41.7855 4.088 41.4549 4.088H40.6069V6.08H41.4149C41.7562 6.08 42.0335 5.984 42.2469 5.792C42.4655 5.6 42.5749 5.35467 42.5749 5.056ZM48.125 7.944L47.861 8.736C47.6263 8.864 47.4077 8.95467 47.205 9.008C47.0023 9.06133 46.781 9.088 46.541 9.088C45.9063 9.088 45.4023 8.89867 45.029 8.52C44.6557 8.14133 44.469 7.63467 44.469 7C44.469 6.41333 44.6557 5.91467 45.029 5.504C45.4023 5.09333 45.8663 4.888 46.421 4.888C46.9757 4.888 47.4183 5.08267 47.749 5.472C48.0797 5.856 48.245 6.352 48.245 6.96C48.245 7.01333 48.2423 7.072 48.237 7.136C48.2317 7.2 48.2263 7.248 48.221 7.28H45.213C45.2663 7.64267 45.4157 7.92533 45.661 8.128C45.9117 8.33067 46.2317 8.432 46.621 8.432C46.8557 8.432 47.101 8.38933 47.357 8.304C47.6183 8.21333 47.869 8.09067 48.109 7.936L48.125 7.944ZM46.397 5.52C46.0717 5.52 45.797 5.63467 45.573 5.864C45.3543 6.09333 45.229 6.38667 45.197 6.744H47.517C47.485 6.36 47.3703 6.06133 47.173 5.848C46.9757 5.62933 46.717 5.52 46.397 5.52ZM52.8818 9H52.1538V8.424C51.9244 8.65333 51.7004 8.82133 51.4818 8.928C51.2684 9.02933 51.0311 9.08 50.7698 9.08C50.2578 9.08 49.8258 8.89067 49.4738 8.512C49.1218 8.128 48.9458 7.65067 48.9458 7.08C48.9458 6.46667 49.1431 5.95733 49.5378 5.552C49.9324 5.14133 50.4071 4.936 50.9618 4.936C51.1698 4.936 51.3698 4.97067 51.5618 5.04C51.7591 5.104 51.9564 5.208 52.1538 5.352V3.192L52.8818 2.928V9ZM51.0818 5.576C50.6818 5.576 50.3484 5.712 50.0818 5.984C49.8204 6.256 49.6898 6.60267 49.6898 7.024C49.6898 7.43467 49.8098 7.77333 50.0498 8.04C50.2951 8.30133 50.5991 8.432 50.9618 8.432C51.1698 8.432 51.3671 8.392 51.5538 8.312C51.7404 8.232 51.9404 8.104 52.1538 7.928V5.912C51.9671 5.79467 51.7884 5.70933 51.6178 5.656C51.4471 5.60267 51.2684 5.576 51.0818 5.576ZM57.7147 9H56.9867V8.248C56.7574 8.54133 56.5307 8.75467 56.3067 8.888C56.0827 9.016 55.8347 9.08 55.5627 9.08C55.1414 9.08 54.8 8.93867 54.5387 8.656C54.2827 8.37333 54.1547 7.99467 54.1547 7.52V5H54.8827V7.448C54.8827 7.75733 54.96 8 55.1147 8.176C55.2747 8.34667 55.4934 8.432 55.7707 8.432C55.9734 8.432 56.1654 8.37867 56.3467 8.272C56.5334 8.16 56.7467 7.97333 56.9867 7.712V5H57.7147V9ZM62.2948 7.808L62.1668 8.64C61.9481 8.78933 61.7215 8.904 61.4868 8.984C61.2521 9.05867 61.0148 9.096 60.7748 9.096C60.1721 9.096 59.6815 8.90133 59.3028 8.512C58.9241 8.12267 58.7348 7.62133 58.7348 7.008C58.7348 6.41067 58.9348 5.912 59.3348 5.512C59.7401 5.10667 60.2495 4.904 60.8628 4.904C61.1295 4.904 61.3721 4.944 61.5908 5.024C61.8095 5.09867 62.0148 5.21867 62.2068 5.384V6.272H62.1908C61.9508 6.02667 61.7215 5.848 61.5028 5.736C61.2895 5.624 61.0708 5.568 60.8468 5.568C60.4575 5.568 60.1321 5.70667 59.8708 5.984C59.6095 6.26133 59.4788 6.6 59.4788 7C59.4788 7.416 59.6015 7.76 59.8468 8.032C60.0975 8.29867 60.4175 8.432 60.8068 8.432C61.0415 8.432 61.2895 8.376 61.5508 8.264C61.8121 8.14667 62.0548 7.992 62.2788 7.8L62.2948 7.808ZM66.6953 7.944L66.4313 8.736C66.1966 8.864 65.978 8.95467 65.7753 9.008C65.5726 9.06133 65.3513 9.088 65.1113 9.088C64.4766 9.088 63.9726 8.89867 63.5993 8.52C63.226 8.14133 63.0393 7.63467 63.0393 7C63.0393 6.41333 63.226 5.91467 63.5993 5.504C63.9726 5.09333 64.4366 4.888 64.9913 4.888C65.546 4.888 65.9886 5.08267 66.3193 5.472C66.65 5.856 66.8153 6.352 66.8153 6.96C66.8153 7.01333 66.8126 7.072 66.8073 7.136C66.802 7.2 66.7966 7.248 66.7913 7.28H63.7833C63.8366 7.64267 63.986 7.92533 64.2313 8.128C64.482 8.33067 64.802 8.432 65.1913 8.432C65.426 8.432 65.6713 8.38933 65.9273 8.304C66.1886 8.21333 66.4393 8.09067 66.6793 7.936L66.6953 7.944ZM64.9673 5.52C64.642 5.52 64.3673 5.63467 64.1433 5.864C63.9246 6.09333 63.7993 6.38667 63.7673 6.744H66.0873C66.0553 6.36 65.9406 6.06133 65.7433 5.848C65.546 5.62933 65.2873 5.52 64.9673 5.52ZM72.1226 9.096C71.328 9.096 70.664 8.824 70.1306 8.28C69.5973 7.736 69.3306 7.04267 69.3306 6.2C69.3306 5.80533 69.4026 5.432 69.5466 5.08C69.696 4.728 69.9066 4.416 70.1786 4.144C70.4506 3.87733 70.7626 3.672 71.1146 3.528C71.472 3.37867 71.8453 3.304 72.2346 3.304C72.5973 3.304 72.9333 3.36267 73.2426 3.48C73.5573 3.59733 73.8453 3.77067 74.1066 4V4.936H74.0906C73.7813 4.62667 73.4693 4.39733 73.1546 4.248C72.8453 4.09867 72.5253 4.024 72.1946 4.024C71.6293 4.024 71.1413 4.23467 70.7306 4.656C70.3253 5.07733 70.1226 5.584 70.1226 6.176C70.1226 6.80533 70.3226 7.33067 70.7226 7.752C71.1226 8.168 71.6053 8.376 72.1706 8.376C72.528 8.376 72.8746 8.30133 73.2106 8.152C73.552 7.99733 73.88 7.768 74.1946 7.464L74.2106 7.472L74.0986 8.376C73.7893 8.62133 73.472 8.80267 73.1466 8.92C72.8213 9.03733 72.48 9.096 72.1226 9.096ZM77.1043 9.112C76.4909 9.112 75.9869 8.90933 75.5923 8.504C75.1976 8.09333 75.0003 7.59467 75.0003 7.008C75.0003 6.42667 75.2029 5.928 75.6083 5.512C76.0136 5.096 76.5176 4.888 77.1203 4.888C77.7389 4.888 78.2429 5.09067 78.6323 5.496C79.0269 5.896 79.2243 6.392 79.2243 6.984C79.2243 7.57067 79.0216 8.072 78.6163 8.488C78.2163 8.904 77.7123 9.112 77.1043 9.112ZM78.4883 6.984C78.4883 6.568 78.3576 6.224 78.0963 5.952C77.8403 5.67467 77.5149 5.536 77.1203 5.536C76.7203 5.536 76.3896 5.67733 76.1283 5.96C75.8723 6.23733 75.7443 6.58667 75.7443 7.008C75.7443 7.424 75.8723 7.77067 76.1283 8.048C76.3896 8.32533 76.7149 8.464 77.1043 8.464C77.5043 8.464 77.8349 8.32267 78.0963 8.04C78.3576 7.75733 78.4883 7.40533 78.4883 6.984ZM83.8583 5V8.616C83.8583 9.224 83.6716 9.70133 83.2983 10.048C82.9303 10.3947 82.4263 10.568 81.7863 10.568C81.5143 10.568 81.2503 10.5387 80.9943 10.48C80.7383 10.4213 80.4796 10.328 80.2183 10.2L80.0663 9.392L80.0823 9.384C80.4023 9.56533 80.6983 9.696 80.9703 9.776C81.2476 9.86133 81.5303 9.904 81.8183 9.904C82.213 9.904 82.5303 9.78667 82.7703 9.552C83.0103 9.32267 83.1303 9.01067 83.1303 8.616V8.256C82.8903 8.49067 82.6556 8.66133 82.4263 8.768C82.197 8.86933 81.9516 8.92 81.6903 8.92C81.1783 8.92 80.7543 8.74133 80.4183 8.384C80.0876 8.02667 79.9223 7.57333 79.9223 7.024C79.9223 6.416 80.133 5.91733 80.5543 5.528C80.981 5.13333 81.5036 4.936 82.1223 4.936C82.3036 4.936 82.4823 4.95467 82.6583 4.992C82.8343 5.02933 83.0236 5.09067 83.2263 5.176L83.7623 5H83.8583ZM82.1383 5.552C81.717 5.552 81.365 5.688 81.0823 5.96C80.805 6.232 80.6663 6.57333 80.6663 6.984C80.6663 7.37333 80.781 7.688 81.0103 7.928C81.2396 8.168 81.5383 8.288 81.9063 8.288C82.109 8.288 82.3063 8.248 82.4983 8.168C82.6956 8.08267 82.9063 7.94667 83.1303 7.76V5.776C82.9543 5.70133 82.7863 5.64533 82.6263 5.608C82.4663 5.57067 82.3036 5.552 82.1383 5.552ZM87.1553 5.568C86.9473 5.568 86.7499 5.624 86.5633 5.736C86.3819 5.84267 86.1713 6.02667 85.9313 6.288V9H85.2113V5.096L85.9313 4.936V5.752C86.1606 5.45867 86.3873 5.248 86.6113 5.12C86.8353 4.98667 87.0833 4.92 87.3553 4.92C87.7766 4.92 88.1153 5.06133 88.3713 5.344C88.6326 5.62667 88.7633 6.00533 88.7633 6.48V9H88.0433V6.552C88.0433 6.24267 87.9633 6.00267 87.8033 5.832C87.6486 5.656 87.4326 5.568 87.1553 5.568ZM90.4394 3.072C90.578 3.072 90.6954 3.12 90.7914 3.216C90.8874 3.312 90.9354 3.42933 90.9354 3.568C90.9354 3.70667 90.8874 3.824 90.7914 3.92C90.6954 4.016 90.578 4.064 90.4394 4.064C90.3007 4.064 90.1834 4.016 90.0874 3.92C89.9914 3.824 89.9434 3.70667 89.9434 3.568C89.9434 3.42933 89.9914 3.312 90.0874 3.216C90.1834 3.12 90.3007 3.072 90.4394 3.072ZM90.7994 9H90.0794V5H90.7994V9ZM94.7636 8.04L94.6036 8.808C94.4863 8.89333 94.3476 8.96 94.1876 9.008C94.0276 9.06133 93.8623 9.088 93.6916 9.088C93.313 9.088 93.0143 8.97067 92.7956 8.736C92.577 8.50133 92.4676 8.17333 92.4676 7.752V5.616H91.7876V5H92.4676V4.104L93.1796 3.84V5H94.7476V5.616H93.1796V7.72C93.1796 7.96 93.2356 8.14133 93.3476 8.264C93.4596 8.38133 93.625 8.44 93.8436 8.44C93.993 8.44 94.1423 8.408 94.2916 8.344C94.441 8.27467 94.593 8.17067 94.7476 8.032L94.7636 8.04ZM96.1738 3.072C96.3124 3.072 96.4298 3.12 96.5258 3.216C96.6218 3.312 96.6698 3.42933 96.6698 3.568C96.6698 3.70667 96.6218 3.824 96.5258 3.92C96.4298 4.016 96.3124 4.064 96.1738 4.064C96.0351 4.064 95.9178 4.016 95.8218 3.92C95.7258 3.824 95.6778 3.70667 95.6778 3.568C95.6778 3.42933 95.7258 3.312 95.8218 3.216C95.9178 3.12 96.0351 3.072 96.1738 3.072ZM96.5338 9H95.8138V5H96.5338V9ZM100.866 5H101.65L99.538 9.112H99.386L97.418 5H98.21L99.49 7.824L100.866 5ZM105.727 7.944L105.463 8.736C105.228 8.864 105.009 8.95467 104.807 9.008C104.604 9.06133 104.383 9.088 104.143 9.088C103.508 9.088 103.004 8.89867 102.631 8.52C102.257 8.14133 102.071 7.63467 102.071 7C102.071 6.41333 102.257 5.91467 102.631 5.504C103.004 5.09333 103.468 4.888 104.023 4.888C104.577 4.888 105.02 5.08267 105.351 5.472C105.681 5.856 105.847 6.352 105.847 6.96C105.847 7.01333 105.844 7.072 105.839 7.136C105.833 7.2 105.828 7.248 105.823 7.28H102.815C102.868 7.64267 103.017 7.92533 103.263 8.128C103.513 8.33067 103.833 8.432 104.223 8.432C104.457 8.432 104.703 8.38933 104.959 8.304C105.22 8.21333 105.471 8.09067 105.711 7.936L105.727 7.944ZM103.999 5.52C103.673 5.52 103.399 5.63467 103.175 5.864C102.956 6.09333 102.831 6.38667 102.799 6.744H105.119C105.087 6.36 104.972 6.06133 104.775 5.848C104.577 5.62933 104.319 5.52 103.999 5.52ZM111.906 9H108.722V3.4H109.498V8.304H111.906V9ZM114.667 9.112C114.053 9.112 113.549 8.90933 113.155 8.504C112.76 8.09333 112.563 7.59467 112.563 7.008C112.563 6.42667 112.765 5.928 113.171 5.512C113.576 5.096 114.08 4.888 114.683 4.888C115.301 4.888 115.805 5.09067 116.195 5.496C116.589 5.896 116.787 6.392 116.787 6.984C116.787 7.57067 116.584 8.072 116.179 8.488C115.779 8.904 115.275 9.112 114.667 9.112ZM116.051 6.984C116.051 6.568 115.92 6.224 115.659 5.952C115.403 5.67467 115.077 5.536 114.683 5.536C114.283 5.536 113.952 5.67733 113.691 5.96C113.435 6.23733 113.307 6.58667 113.307 7.008C113.307 7.424 113.435 7.77067 113.691 8.048C113.952 8.32533 114.277 8.464 114.667 8.464C115.067 8.464 115.397 8.32267 115.659 8.04C115.92 7.75733 116.051 7.40533 116.051 6.984ZM121.069 6.568V8.904L120.349 9.064V8.352C120.05 8.592 119.767 8.77067 119.501 8.888C119.239 9.00533 118.983 9.064 118.733 9.064C118.381 9.064 118.095 8.968 117.877 8.776C117.658 8.57867 117.549 8.31733 117.549 7.992C117.549 7.53333 117.778 7.19467 118.237 6.976C118.695 6.752 119.399 6.63467 120.349 6.624V6.608C120.349 6.27733 120.269 6.02667 120.109 5.856C119.954 5.68 119.727 5.592 119.429 5.592C119.205 5.592 118.973 5.64 118.733 5.736C118.498 5.832 118.255 5.976 118.005 6.168L117.989 6.16L118.141 5.352C118.354 5.208 118.575 5.10133 118.805 5.032C119.039 4.96267 119.285 4.928 119.541 4.928C120.031 4.928 120.407 5.06933 120.669 5.352C120.935 5.63467 121.069 6.04 121.069 6.568ZM118.277 7.96C118.277 8.10933 118.33 8.22933 118.437 8.32C118.543 8.40533 118.69 8.448 118.877 8.448C119.063 8.448 119.277 8.40267 119.517 8.312C119.757 8.22133 120.034 8.08 120.349 7.888V7.088C119.655 7.13067 119.135 7.224 118.789 7.368C118.447 7.50667 118.277 7.704 118.277 7.96ZM125.96 9H125.232V8.424C125.003 8.65333 124.779 8.82133 124.56 8.928C124.347 9.02933 124.109 9.08 123.848 9.08C123.336 9.08 122.904 8.89067 122.552 8.512C122.2 8.128 122.024 7.65067 122.024 7.08C122.024 6.46667 122.221 5.95733 122.616 5.552C123.011 5.14133 123.485 4.936 124.04 4.936C124.248 4.936 124.448 4.97067 124.64 5.04C124.837 5.104 125.035 5.208 125.232 5.352V3.192L125.96 2.928V9ZM124.16 5.576C123.76 5.576 123.427 5.712 123.16 5.984C122.899 6.256 122.768 6.60267 122.768 7.024C122.768 7.43467 122.888 7.77333 123.128 8.04C123.373 8.30133 123.677 8.432 124.04 8.432C124.248 8.432 124.445 8.392 124.632 8.312C124.819 8.232 125.019 8.104 125.232 7.928V5.912C125.045 5.79467 124.867 5.70933 124.696 5.656C124.525 5.60267 124.347 5.576 124.16 5.576Z" fill="black"/>
<path d="M277.44 3.4V4.096H275.24V9H274.472V4.096H272.28V3.4H277.44ZM280.897 6.568V8.904L280.177 9.064V8.352C279.878 8.592 279.596 8.77067 279.329 8.888C279.068 9.00533 278.812 9.064 278.561 9.064C278.209 9.064 277.924 8.968 277.705 8.776C277.486 8.57867 277.377 8.31733 277.377 7.992C277.377 7.53333 277.606 7.19467 278.065 6.976C278.524 6.752 279.228 6.63467 280.177 6.624V6.608C280.177 6.27733 280.097 6.02667 279.937 5.856C279.782 5.68 279.556 5.592 279.257 5.592C279.033 5.592 278.801 5.64 278.561 5.736C278.326 5.832 278.084 5.976 277.833 6.168L277.817 6.16L277.969 5.352C278.182 5.208 278.404 5.10133 278.633 5.032C278.868 4.96267 279.113 4.928 279.369 4.928C279.86 4.928 280.236 5.06933 280.497 5.352C280.764 5.63467 280.897 6.04 280.897 6.568ZM278.105 7.96C278.105 8.10933 278.158 8.22933 278.265 8.32C278.372 8.40533 278.518 8.448 278.705 8.448C278.892 8.448 279.105 8.40267 279.345 8.312C279.585 8.22133 279.862 8.08 280.177 7.888V7.088C279.484 7.13067 278.964 7.224 278.617 7.368C278.276 7.50667 278.105 7.704 278.105 7.96ZM284.308 4.92C284.804 4.92 285.22 5.10933 285.556 5.488C285.897 5.86133 286.068 6.328 286.068 6.888C286.068 7.52267 285.857 8.04533 285.436 8.456C285.015 8.86133 284.492 9.064 283.868 9.064C283.687 9.064 283.508 9.04533 283.332 9.008C283.156 8.97067 282.975 8.912 282.788 8.832L282.268 9H282.18V3.192L282.9 2.928V5.584C283.135 5.34933 283.364 5.18133 283.588 5.08C283.812 4.97333 284.052 4.92 284.308 4.92ZM285.332 6.936C285.332 6.53067 285.215 6.20267 284.98 5.952C284.751 5.696 284.455 5.568 284.092 5.568C283.884 5.568 283.687 5.608 283.5 5.688C283.313 5.768 283.113 5.896 282.9 6.072V8.232C283.06 8.296 283.217 8.344 283.372 8.376C283.527 8.408 283.687 8.424 283.852 8.424C284.279 8.424 284.631 8.28267 284.908 8C285.191 7.71733 285.332 7.36267 285.332 6.936ZM288.678 6.664C289.206 6.78667 289.571 6.94133 289.774 7.128C289.982 7.31467 290.086 7.57067 290.086 7.896C290.086 8.24267 289.934 8.528 289.63 8.752C289.331 8.976 288.947 9.088 288.478 9.088C288.195 9.088 287.926 9.048 287.67 8.968C287.414 8.888 287.16 8.76533 286.91 8.6L286.758 7.728L286.774 7.72C287.072 7.95467 287.374 8.13333 287.678 8.256C287.982 8.37867 288.275 8.44 288.558 8.44C288.798 8.44 288.995 8.39467 289.15 8.304C289.31 8.208 289.39 8.08533 289.39 7.936C289.39 7.776 289.315 7.65067 289.166 7.56C289.022 7.46933 288.734 7.37333 288.302 7.272C287.784 7.14933 287.424 6.99733 287.222 6.816C287.019 6.63467 286.918 6.39733 286.918 6.104C286.918 5.752 287.062 5.46667 287.35 5.248C287.643 5.024 288.019 4.912 288.478 4.912C288.702 4.912 288.926 4.944 289.15 5.008C289.374 5.072 289.587 5.16267 289.79 5.28V6.048H289.774C289.523 5.888 289.28 5.768 289.046 5.688C288.816 5.60267 288.6 5.56 288.398 5.56C288.158 5.56 287.966 5.60267 287.822 5.688C287.683 5.77333 287.614 5.88533 287.614 6.024C287.614 6.17333 287.686 6.29333 287.83 6.384C287.974 6.46933 288.256 6.56267 288.678 6.664ZM297.292 3.4H298.124L295.324 9.128H295.148L292.436 3.4H293.3L295.268 7.736L297.292 3.4ZM301.797 7.944L301.533 8.736C301.298 8.864 301.08 8.95467 300.877 9.008C300.674 9.06133 300.453 9.088 300.213 9.088C299.578 9.088 299.074 8.89867 298.701 8.52C298.328 8.14133 298.141 7.63467 298.141 7C298.141 6.41333 298.328 5.91467 298.701 5.504C299.074 5.09333 299.538 4.888 300.093 4.888C300.648 4.888 301.09 5.08267 301.421 5.472C301.752 5.856 301.917 6.352 301.917 6.96C301.917 7.01333 301.914 7.072 301.909 7.136C301.904 7.2 301.898 7.248 301.893 7.28H298.885C298.938 7.64267 299.088 7.92533 299.333 8.128C299.584 8.33067 299.904 8.432 300.293 8.432C300.528 8.432 300.773 8.38933 301.029 8.304C301.29 8.21333 301.541 8.09067 301.781 7.936L301.797 7.944ZM300.069 5.52C299.744 5.52 299.469 5.63467 299.245 5.864C299.026 6.09333 298.901 6.38667 298.869 6.744H301.189C301.157 6.36 301.042 6.06133 300.845 5.848C300.648 5.62933 300.389 5.52 300.069 5.52ZM305.154 5.704C304.919 5.704 304.687 5.76 304.458 5.872C304.234 5.984 303.97 6.17333 303.666 6.44V9H302.946V5.096L303.666 4.936V5.952C303.996 5.54133 304.255 5.26933 304.442 5.136C304.634 5.00267 304.839 4.936 305.058 4.936C305.106 4.936 305.146 4.93867 305.178 4.944C305.215 4.94933 305.26 4.95733 305.314 4.968L305.37 5.728C305.332 5.71733 305.295 5.712 305.258 5.712C305.226 5.70667 305.191 5.704 305.154 5.704ZM307.834 6.664C308.362 6.78667 308.727 6.94133 308.93 7.128C309.138 7.31467 309.242 7.57067 309.242 7.896C309.242 8.24267 309.09 8.528 308.786 8.752C308.487 8.976 308.103 9.088 307.634 9.088C307.351 9.088 307.082 9.048 306.826 8.968C306.57 8.888 306.317 8.76533 306.066 8.6L305.914 7.728L305.93 7.72C306.229 7.95467 306.53 8.13333 306.834 8.256C307.138 8.37867 307.431 8.44 307.714 8.44C307.954 8.44 308.151 8.39467 308.306 8.304C308.466 8.208 308.546 8.08533 308.546 7.936C308.546 7.776 308.471 7.65067 308.322 7.56C308.178 7.46933 307.89 7.37333 307.458 7.272C306.941 7.14933 306.581 6.99733 306.378 6.816C306.175 6.63467 306.074 6.39733 306.074 6.104C306.074 5.752 306.218 5.46667 306.506 5.248C306.799 5.024 307.175 4.912 307.634 4.912C307.858 4.912 308.082 4.944 308.306 5.008C308.53 5.072 308.743 5.16267 308.946 5.28V6.048H308.93C308.679 5.888 308.437 5.768 308.202 5.688C307.973 5.60267 307.757 5.56 307.554 5.56C307.314 5.56 307.122 5.60267 306.978 5.688C306.839 5.77333 306.77 5.88533 306.77 6.024C306.77 6.17333 306.842 6.29333 306.986 6.384C307.13 6.46933 307.413 6.56267 307.834 6.664ZM313.777 9H313.049V8.248C312.82 8.54133 312.593 8.75467 312.369 8.888C312.145 9.016 311.897 9.08 311.625 9.08C311.204 9.08 310.863 8.93867 310.601 8.656C310.345 8.37333 310.217 7.99467 310.217 7.52V5H310.945V7.448C310.945 7.75733 311.023 8 311.177 8.176C311.337 8.34667 311.556 8.432 311.833 8.432C312.036 8.432 312.228 8.37867 312.409 8.272C312.596 8.16 312.809 7.97333 313.049 7.712V5H313.777V9ZM316.693 6.664C317.221 6.78667 317.587 6.94133 317.789 7.128C317.997 7.31467 318.101 7.57067 318.101 7.896C318.101 8.24267 317.949 8.528 317.645 8.752C317.347 8.976 316.963 9.088 316.493 9.088C316.211 9.088 315.941 9.048 315.685 8.968C315.429 8.888 315.176 8.76533 314.925 8.6L314.773 7.728L314.789 7.72C315.088 7.95467 315.389 8.13333 315.693 8.256C315.997 8.37867 316.291 8.44 316.573 8.44C316.813 8.44 317.011 8.39467 317.165 8.304C317.325 8.208 317.405 8.08533 317.405 7.936C317.405 7.776 317.331 7.65067 317.181 7.56C317.037 7.46933 316.749 7.37333 316.317 7.272C315.8 7.14933 315.44 6.99733 315.237 6.816C315.035 6.63467 314.933 6.39733 314.933 6.104C314.933 5.752 315.077 5.46667 315.365 5.248C315.659 5.024 316.035 4.912 316.493 4.912C316.717 4.912 316.941 4.944 317.165 5.008C317.389 5.072 317.603 5.16267 317.805 5.28V6.048H317.789C317.539 5.888 317.296 5.768 317.061 5.688C316.832 5.60267 316.616 5.56 316.413 5.56C316.173 5.56 315.981 5.60267 315.837 5.688C315.699 5.77333 315.629 5.88533 315.629 6.024C315.629 6.17333 315.701 6.29333 315.845 6.384C315.989 6.46933 316.272 6.56267 316.693 6.664ZM321.235 9H320.435L323.043 3.368H323.755L326.267 9H325.435L324.811 7.56H321.883L321.235 9ZM323.371 4.248L322.187 6.88H324.515L323.371 4.248ZM330.428 7.808L330.3 8.64C330.081 8.78933 329.854 8.904 329.62 8.984C329.385 9.05867 329.148 9.096 328.908 9.096C328.305 9.096 327.814 8.90133 327.436 8.512C327.057 8.12267 326.868 7.62133 326.868 7.008C326.868 6.41067 327.068 5.912 327.468 5.512C327.873 5.10667 328.382 4.904 328.996 4.904C329.262 4.904 329.505 4.944 329.724 5.024C329.942 5.09867 330.148 5.21867 330.34 5.384V6.272H330.324C330.084 6.02667 329.854 5.848 329.636 5.736C329.422 5.624 329.204 5.568 328.98 5.568C328.59 5.568 328.265 5.70667 328.004 5.984C327.742 6.26133 327.612 6.6 327.612 7C327.612 7.416 327.734 7.76 327.98 8.032C328.23 8.29867 328.55 8.432 328.94 8.432C329.174 8.432 329.422 8.376 329.684 8.264C329.945 8.14667 330.188 7.992 330.412 7.8L330.428 7.808ZM334.74 7.808L334.612 8.64C334.393 8.78933 334.167 8.904 333.932 8.984C333.697 9.05867 333.46 9.096 333.22 9.096C332.617 9.096 332.127 8.90133 331.748 8.512C331.369 8.12267 331.18 7.62133 331.18 7.008C331.18 6.41067 331.38 5.912 331.78 5.512C332.185 5.10667 332.695 4.904 333.308 4.904C333.575 4.904 333.817 4.944 334.036 5.024C334.255 5.09867 334.46 5.21867 334.652 5.384V6.272H334.636C334.396 6.02667 334.167 5.848 333.948 5.736C333.735 5.624 333.516 5.568 333.292 5.568C332.903 5.568 332.577 5.70667 332.316 5.984C332.055 6.26133 331.924 6.6 331.924 7C331.924 7.416 332.047 7.76 332.292 8.032C332.543 8.29867 332.863 8.432 333.252 8.432C333.487 8.432 333.735 8.376 333.996 8.264C334.257 8.14667 334.5 7.992 334.724 7.8L334.74 7.808ZM337.589 9.112C336.975 9.112 336.471 8.90933 336.077 8.504C335.682 8.09333 335.485 7.59467 335.485 7.008C335.485 6.42667 335.687 5.928 336.093 5.512C336.498 5.096 337.002 4.888 337.605 4.888C338.223 4.888 338.727 5.09067 339.117 5.496C339.511 5.896 339.709 6.392 339.709 6.984C339.709 7.57067 339.506 8.072 339.101 8.488C338.701 8.904 338.197 9.112 337.589 9.112ZM338.973 6.984C338.973 6.568 338.842 6.224 338.581 5.952C338.325 5.67467 337.999 5.536 337.605 5.536C337.205 5.536 336.874 5.67733 336.613 5.96C336.357 6.23733 336.229 6.58667 336.229 7.008C336.229 7.424 336.357 7.77067 336.613 8.048C336.874 8.32533 337.199 8.464 337.589 8.464C337.989 8.464 338.319 8.32267 338.581 8.04C338.842 7.75733 338.973 7.40533 338.973 6.984ZM342.943 5.704C342.708 5.704 342.476 5.76 342.247 5.872C342.023 5.984 341.759 6.17333 341.455 6.44V9H340.735V5.096L341.455 4.936V5.952C341.785 5.54133 342.044 5.26933 342.231 5.136C342.423 5.00267 342.628 4.936 342.847 4.936C342.895 4.936 342.935 4.93867 342.967 4.944C343.004 4.94933 343.049 4.95733 343.103 4.968L343.159 5.728C343.121 5.71733 343.084 5.712 343.047 5.712C343.015 5.70667 342.98 5.704 342.943 5.704ZM347.585 9H346.857V8.424C346.628 8.65333 346.404 8.82133 346.185 8.928C345.972 9.02933 345.734 9.08 345.473 9.08C344.961 9.08 344.529 8.89067 344.177 8.512C343.825 8.128 343.649 7.65067 343.649 7.08C343.649 6.46667 343.846 5.95733 344.241 5.552C344.636 5.14133 345.11 4.936 345.665 4.936C345.873 4.936 346.073 4.97067 346.265 5.04C346.462 5.104 346.66 5.208 346.857 5.352V3.192L347.585 2.928V9ZM345.785 5.576C345.385 5.576 345.052 5.712 344.785 5.984C344.524 6.256 344.393 6.60267 344.393 7.024C344.393 7.43467 344.513 7.77333 344.753 8.04C344.998 8.30133 345.302 8.432 345.665 8.432C345.873 8.432 346.07 8.392 346.257 8.312C346.444 8.232 346.644 8.104 346.857 7.928V5.912C346.67 5.79467 346.492 5.70933 346.321 5.656C346.15 5.60267 345.972 5.576 345.785 5.576ZM349.338 3.072C349.476 3.072 349.594 3.12 349.69 3.216C349.786 3.312 349.834 3.42933 349.834 3.568C349.834 3.70667 349.786 3.824 349.69 3.92C349.594 4.016 349.476 4.064 349.338 4.064C349.199 4.064 349.082 4.016 348.986 3.92C348.89 3.824 348.842 3.70667 348.842 3.568C348.842 3.42933 348.89 3.312 348.986 3.216C349.082 3.12 349.199 3.072 349.338 3.072ZM349.698 9H348.978V5H349.698V9ZM352.862 9.112C352.249 9.112 351.745 8.90933 351.35 8.504C350.955 8.09333 350.758 7.59467 350.758 7.008C350.758 6.42667 350.961 5.928 351.366 5.512C351.771 5.096 352.275 4.888 352.878 4.888C353.497 4.888 354.001 5.09067 354.39 5.496C354.785 5.896 354.982 6.392 354.982 6.984C354.982 7.57067 354.779 8.072 354.374 8.488C353.974 8.904 353.47 9.112 352.862 9.112ZM354.246 6.984C354.246 6.568 354.115 6.224 353.854 5.952C353.598 5.67467 353.273 5.536 352.878 5.536C352.478 5.536 352.147 5.67733 351.886 5.96C351.63 6.23733 351.502 6.58667 351.502 7.008C351.502 7.424 351.63 7.77067 351.886 8.048C352.147 8.32533 352.473 8.464 352.862 8.464C353.262 8.464 353.593 8.32267 353.854 8.04C354.115 7.75733 354.246 7.40533 354.246 6.984ZM357.952 5.568C357.744 5.568 357.547 5.624 357.36 5.736C357.179 5.84267 356.968 6.02667 356.728 6.288V9H356.008V5.096L356.728 4.936V5.752C356.957 5.45867 357.184 5.248 357.408 5.12C357.632 4.98667 357.88 4.92 358.152 4.92C358.573 4.92 358.912 5.06133 359.168 5.344C359.429 5.62667 359.56 6.00533 359.56 6.48V9H358.84V6.552C358.84 6.24267 358.76 6.00267 358.6 5.832C358.445 5.656 358.229 5.568 357.952 5.568ZM362.404 6.664C362.932 6.78667 363.298 6.94133 363.5 7.128C363.708 7.31467 363.812 7.57067 363.812 7.896C363.812 8.24267 363.66 8.528 363.356 8.752C363.058 8.976 362.674 9.088 362.204 9.088C361.922 9.088 361.652 9.048 361.396 8.968C361.14 8.888 360.887 8.76533 360.636 8.6L360.484 7.728L360.5 7.72C360.799 7.95467 361.1 8.13333 361.404 8.256C361.708 8.37867 362.002 8.44 362.284 8.44C362.524 8.44 362.722 8.39467 362.876 8.304C363.036 8.208 363.116 8.08533 363.116 7.936C363.116 7.776 363.042 7.65067 362.892 7.56C362.748 7.46933 362.46 7.37333 362.028 7.272C361.511 7.14933 361.151 6.99733 360.948 6.816C360.746 6.63467 360.644 6.39733 360.644 6.104C360.644 5.752 360.788 5.46667 361.076 5.248C361.37 5.024 361.746 4.912 362.204 4.912C362.428 4.912 362.652 4.944 362.876 5.008C363.1 5.072 363.314 5.16267 363.516 5.28V6.048H363.5C363.25 5.888 363.007 5.768 362.772 5.688C362.543 5.60267 362.327 5.56 362.124 5.56C361.884 5.56 361.692 5.60267 361.548 5.688C361.41 5.77333 361.34 5.88533 361.34 6.024C361.34 6.17333 361.412 6.29333 361.556 6.384C361.7 6.46933 361.983 6.56267 362.404 6.664Z" fill="#7A7A7A"/>
<line y1="18.75" x2="375" y2="18.75" stroke="black" stroke-width="0.5"/>
<line y1="17.5" x2="130" y2="17.5" stroke="#376C74" stroke-width="3"/>
<path d="M144.152 9.096C143.4 9.096 142.808 8.86933 142.376 8.416C141.944 7.96267 141.728 7.34133 141.728 6.552V3.4H142.504V6.568C142.504 7.13867 142.651 7.584 142.944 7.904C143.237 8.224 143.645 8.384 144.168 8.384C144.691 8.384 145.099 8.224 145.392 7.904C145.685 7.584 145.832 7.13067 145.832 6.544V3.4H146.576V6.552C146.576 7.34667 146.36 7.97067 145.928 8.424C145.501 8.872 144.909 9.096 144.152 9.096ZM149.561 6.664C150.089 6.78667 150.454 6.94133 150.657 7.128C150.865 7.31467 150.969 7.57067 150.969 7.896C150.969 8.24267 150.817 8.528 150.513 8.752C150.214 8.976 149.83 9.088 149.361 9.088C149.078 9.088 148.809 9.048 148.553 8.968C148.297 8.888 148.043 8.76533 147.793 8.6L147.641 7.728L147.657 7.72C147.955 7.95467 148.257 8.13333 148.561 8.256C148.865 8.37867 149.158 8.44 149.441 8.44C149.681 8.44 149.878 8.39467 150.033 8.304C150.193 8.208 150.273 8.08533 150.273 7.936C150.273 7.776 150.198 7.65067 150.049 7.56C149.905 7.46933 149.617 7.37333 149.185 7.272C148.667 7.14933 148.307 6.99733 148.105 6.816C147.902 6.63467 147.801 6.39733 147.801 6.104C147.801 5.752 147.945 5.46667 148.233 5.248C148.526 5.024 148.902 4.912 149.361 4.912C149.585 4.912 149.809 4.944 150.033 5.008C150.257 5.072 150.47 5.16267 150.673 5.28V6.048H150.657C150.406 5.888 150.163 5.768 149.929 5.688C149.699 5.60267 149.483 5.56 149.281 5.56C149.041 5.56 148.849 5.60267 148.705 5.688C148.566 5.77333 148.497 5.88533 148.497 6.024C148.497 6.17333 148.569 6.29333 148.713 6.384C148.857 6.46933 149.139 6.56267 149.561 6.664ZM155.344 7.944L155.08 8.736C154.845 8.864 154.626 8.95467 154.424 9.008C154.221 9.06133 154 9.088 153.76 9.088C153.125 9.088 152.621 8.89867 152.248 8.52C151.874 8.14133 151.688 7.63467 151.688 7C151.688 6.41333 151.874 5.91467 152.248 5.504C152.621 5.09333 153.085 4.888 153.64 4.888C154.194 4.888 154.637 5.08267 154.968 5.472C155.298 5.856 155.464 6.352 155.464 6.96C155.464 7.01333 155.461 7.072 155.456 7.136C155.45 7.2 155.445 7.248 155.44 7.28H152.432C152.485 7.64267 152.634 7.92533 152.88 8.128C153.13 8.33067 153.45 8.432 153.84 8.432C154.074 8.432 154.32 8.38933 154.576 8.304C154.837 8.21333 155.088 8.09067 155.328 7.936L155.344 7.944ZM153.616 5.52C153.29 5.52 153.016 5.63467 152.792 5.864C152.573 6.09333 152.448 6.38667 152.416 6.744H154.736C154.704 6.36 154.589 6.06133 154.392 5.848C154.194 5.62933 153.936 5.52 153.616 5.52ZM159.155 9H158.379V3.4H159.155V9ZM162.616 5.568C162.408 5.568 162.211 5.624 162.024 5.736C161.843 5.84267 161.632 6.02667 161.392 6.288V9H160.672V5.096L161.392 4.936V5.752C161.622 5.45867 161.848 5.248 162.072 5.12C162.296 4.98667 162.544 4.92 162.816 4.92C163.238 4.92 163.576 5.06133 163.832 5.344C164.094 5.62667 164.224 6.00533 164.224 6.48V9H163.504V6.552C163.504 6.24267 163.424 6.00267 163.264 5.832C163.11 5.656 162.894 5.568 162.616 5.568ZM167.892 5V5.616H166.572V9H165.852V5.616H165.14V5H165.852V4.368C165.852 3.92533 165.972 3.57867 166.212 3.328C166.452 3.072 166.78 2.944 167.196 2.944C167.324 2.944 167.442 2.95467 167.548 2.976C167.655 2.99733 167.764 3.03467 167.876 3.088L167.996 3.832L167.98 3.84C167.831 3.75467 167.7 3.696 167.588 3.664C167.476 3.62667 167.362 3.608 167.244 3.608C167.036 3.608 166.871 3.67467 166.748 3.808C166.631 3.936 166.572 4.11467 166.572 4.344V5H167.892ZM170.393 9.112C169.78 9.112 169.276 8.90933 168.881 8.504C168.487 8.09333 168.289 7.59467 168.289 7.008C168.289 6.42667 168.492 5.928 168.897 5.512C169.303 5.096 169.807 4.888 170.409 4.888C171.028 4.888 171.532 5.09067 171.921 5.496C172.316 5.896 172.513 6.392 172.513 6.984C172.513 7.57067 172.311 8.072 171.905 8.488C171.505 8.904 171.001 9.112 170.393 9.112ZM171.777 6.984C171.777 6.568 171.647 6.224 171.385 5.952C171.129 5.67467 170.804 5.536 170.409 5.536C170.009 5.536 169.679 5.67733 169.417 5.96C169.161 6.23733 169.033 6.58667 169.033 7.008C169.033 7.424 169.161 7.77067 169.417 8.048C169.679 8.32533 170.004 8.464 170.393 8.464C170.793 8.464 171.124 8.32267 171.385 8.04C171.647 7.75733 171.777 7.40533 171.777 6.984ZM175.747 5.704C175.513 5.704 175.281 5.76 175.051 5.872C174.827 5.984 174.563 6.17333 174.259 6.44V9H173.539V5.096L174.259 4.936V5.952C174.59 5.54133 174.849 5.26933 175.035 5.136C175.227 5.00267 175.433 4.936 175.651 4.936C175.699 4.936 175.739 4.93867 175.771 4.944C175.809 4.94933 175.854 4.95733 175.907 4.968L175.963 5.728C175.926 5.71733 175.889 5.712 175.851 5.712C175.819 5.70667 175.785 5.704 175.747 5.704ZM178.7 5.568C178.513 5.568 178.334 5.62133 178.164 5.728C177.998 5.82933 177.804 6.00533 177.58 6.256V9H176.86V5.096L177.58 4.936V5.72C177.793 5.43733 178.006 5.23467 178.22 5.112C178.433 4.984 178.665 4.92 178.916 4.92C179.209 4.92 179.462 4.99733 179.676 5.152C179.894 5.30667 180.054 5.52533 180.156 5.808C180.39 5.49333 180.62 5.26667 180.844 5.128C181.068 4.98933 181.318 4.92 181.596 4.92C182.001 4.92 182.326 5.06133 182.572 5.344C182.822 5.62667 182.948 6.00533 182.948 6.48V9H182.22V6.552C182.22 6.24267 182.145 6.00267 181.996 5.832C181.846 5.656 181.641 5.568 181.38 5.568C181.193 5.568 181.012 5.62133 180.836 5.728C180.665 5.83467 180.47 6.01333 180.252 6.264C180.257 6.28533 180.26 6.312 180.26 6.344C180.26 6.37067 180.26 6.416 180.26 6.48V9H179.54V6.552C179.54 6.24267 179.465 6.00267 179.316 5.832C179.166 5.656 178.961 5.568 178.7 5.568ZM187.483 6.568V8.904L186.763 9.064V8.352C186.464 8.592 186.182 8.77067 185.915 8.888C185.654 9.00533 185.398 9.064 185.147 9.064C184.795 9.064 184.51 8.968 184.291 8.776C184.072 8.57867 183.963 8.31733 183.963 7.992C183.963 7.53333 184.192 7.19467 184.651 6.976C185.11 6.752 185.814 6.63467 186.763 6.624V6.608C186.763 6.27733 186.683 6.02667 186.523 5.856C186.368 5.68 186.142 5.592 185.843 5.592C185.619 5.592 185.387 5.64 185.147 5.736C184.912 5.832 184.67 5.976 184.419 6.168L184.403 6.16L184.555 5.352C184.768 5.208 184.99 5.10133 185.219 5.032C185.454 4.96267 185.699 4.928 185.955 4.928C186.446 4.928 186.822 5.06933 187.083 5.352C187.35 5.63467 187.483 6.04 187.483 6.568ZM184.691 7.96C184.691 8.10933 184.744 8.22933 184.851 8.32C184.958 8.40533 185.104 8.448 185.291 8.448C185.478 8.448 185.691 8.40267 185.931 8.312C186.171 8.22133 186.448 8.08 186.763 7.888V7.088C186.07 7.13067 185.55 7.224 185.203 7.368C184.862 7.50667 184.691 7.704 184.691 7.96ZM191.334 8.04L191.174 8.808C191.057 8.89333 190.918 8.96 190.758 9.008C190.598 9.06133 190.433 9.088 190.262 9.088C189.883 9.088 189.585 8.97067 189.366 8.736C189.147 8.50133 189.038 8.17333 189.038 7.752V5.616H188.358V5H189.038V4.104L189.75 3.84V5H191.318V5.616H189.75V7.72C189.75 7.96 189.806 8.14133 189.918 8.264C190.03 8.38133 190.195 8.44 190.414 8.44C190.563 8.44 190.713 8.408 190.862 8.344C191.011 8.27467 191.163 8.17067 191.318 8.032L191.334 8.04ZM192.744 3.072C192.883 3.072 193 3.12 193.096 3.216C193.192 3.312 193.24 3.42933 193.24 3.568C193.24 3.70667 193.192 3.824 193.096 3.92C193 4.016 192.883 4.064 192.744 4.064C192.605 4.064 192.488 4.016 192.392 3.92C192.296 3.824 192.248 3.70667 192.248 3.568C192.248 3.42933 192.296 3.312 192.392 3.216C192.488 3.12 192.605 3.072 192.744 3.072ZM193.104 9H192.384V5H193.104V9ZM197.436 5H198.22L196.108 9.112H195.956L193.988 5H194.78L196.06 7.824L197.436 5ZM202.297 7.944L202.033 8.736C201.798 8.864 201.58 8.95467 201.377 9.008C201.174 9.06133 200.953 9.088 200.713 9.088C200.078 9.088 199.574 8.89867 199.201 8.52C198.828 8.14133 198.641 7.63467 198.641 7C198.641 6.41333 198.828 5.91467 199.201 5.504C199.574 5.09333 200.038 4.888 200.593 4.888C201.148 4.888 201.59 5.08267 201.921 5.472C202.252 5.856 202.417 6.352 202.417 6.96C202.417 7.01333 202.414 7.072 202.409 7.136C202.404 7.2 202.398 7.248 202.393 7.28H199.385C199.438 7.64267 199.588 7.92533 199.833 8.128C200.084 8.33067 200.404 8.432 200.793 8.432C201.028 8.432 201.273 8.38933 201.529 8.304C201.79 8.21333 202.041 8.09067 202.281 7.936L202.297 7.944ZM200.569 5.52C200.244 5.52 199.969 5.63467 199.745 5.864C199.526 6.09333 199.401 6.38667 199.369 6.744H201.689C201.657 6.36 201.542 6.06133 201.345 5.848C201.148 5.62933 200.889 5.52 200.569 5.52ZM209.815 3.4V4.096H207.615V9H206.847V4.096H204.655V3.4H209.815ZM213.272 6.568V8.904L212.552 9.064V8.352C212.253 8.592 211.971 8.77067 211.704 8.888C211.443 9.00533 211.187 9.064 210.936 9.064C210.584 9.064 210.299 8.968 210.08 8.776C209.861 8.57867 209.752 8.31733 209.752 7.992C209.752 7.53333 209.981 7.19467 210.44 6.976C210.899 6.752 211.603 6.63467 212.552 6.624V6.608C212.552 6.27733 212.472 6.02667 212.312 5.856C212.157 5.68 211.931 5.592 211.632 5.592C211.408 5.592 211.176 5.64 210.936 5.736C210.701 5.832 210.459 5.976 210.208 6.168L210.192 6.16L210.344 5.352C210.557 5.208 210.779 5.10133 211.008 5.032C211.243 4.96267 211.488 4.928 211.744 4.928C212.235 4.928 212.611 5.06933 212.872 5.352C213.139 5.63467 213.272 6.04 213.272 6.568ZM210.48 7.96C210.48 8.10933 210.533 8.22933 210.64 8.32C210.747 8.40533 210.893 8.448 211.08 8.448C211.267 8.448 211.48 8.40267 211.72 8.312C211.96 8.22133 212.237 8.08 212.552 7.888V7.088C211.859 7.13067 211.339 7.224 210.992 7.368C210.651 7.50667 210.48 7.704 210.48 7.96ZM216.683 4.92C217.179 4.92 217.595 5.10933 217.931 5.488C218.272 5.86133 218.443 6.328 218.443 6.888C218.443 7.52267 218.232 8.04533 217.811 8.456C217.39 8.86133 216.867 9.064 216.243 9.064C216.062 9.064 215.883 9.04533 215.707 9.008C215.531 8.97067 215.35 8.912 215.163 8.832L214.643 9H214.555V3.192L215.275 2.928V5.584C215.51 5.34933 215.739 5.18133 215.963 5.08C216.187 4.97333 216.427 4.92 216.683 4.92ZM217.707 6.936C217.707 6.53067 217.59 6.20267 217.355 5.952C217.126 5.696 216.83 5.568 216.467 5.568C216.259 5.568 216.062 5.608 215.875 5.688C215.688 5.768 215.488 5.896 215.275 6.072V8.232C215.435 8.296 215.592 8.344 215.747 8.376C215.902 8.408 216.062 8.424 216.227 8.424C216.654 8.424 217.006 8.28267 217.283 8C217.566 7.71733 217.707 7.36267 217.707 6.936ZM226.251 9H225.483V6.496H222.107V9H221.331V3.4H222.107V5.784H225.483V3.4H226.251V9ZM231.062 7.944L230.799 8.736C230.564 8.864 230.345 8.95467 230.143 9.008C229.94 9.06133 229.719 9.088 229.479 9.088C228.844 9.088 228.34 8.89867 227.967 8.52C227.593 8.14133 227.407 7.63467 227.407 7C227.407 6.41333 227.593 5.91467 227.967 5.504C228.34 5.09333 228.804 4.888 229.359 4.888C229.913 4.888 230.356 5.08267 230.687 5.472C231.017 5.856 231.183 6.352 231.183 6.96C231.183 7.01333 231.18 7.072 231.174 7.136C231.169 7.2 231.164 7.248 231.159 7.28H228.151C228.204 7.64267 228.353 7.92533 228.599 8.128C228.849 8.33067 229.169 8.432 229.559 8.432C229.793 8.432 230.039 8.38933 230.295 8.304C230.556 8.21333 230.807 8.09067 231.047 7.936L231.062 7.944ZM229.335 5.52C229.009 5.52 228.735 5.63467 228.511 5.864C228.292 6.09333 228.167 6.38667 228.135 6.744H230.455C230.423 6.36 230.308 6.06133 230.111 5.848C229.913 5.62933 229.655 5.52 229.335 5.52ZM235.467 6.568V8.904L234.747 9.064V8.352C234.449 8.592 234.166 8.77067 233.899 8.888C233.638 9.00533 233.382 9.064 233.131 9.064C232.779 9.064 232.494 8.968 232.275 8.776C232.057 8.57867 231.947 8.31733 231.947 7.992C231.947 7.53333 232.177 7.19467 232.635 6.976C233.094 6.752 233.798 6.63467 234.747 6.624V6.608C234.747 6.27733 234.667 6.02667 234.507 5.856C234.353 5.68 234.126 5.592 233.827 5.592C233.603 5.592 233.371 5.64 233.131 5.736C232.897 5.832 232.654 5.976 232.403 6.168L232.387 6.16L232.539 5.352C232.753 5.208 232.974 5.10133 233.203 5.032C233.438 4.96267 233.683 4.928 233.939 4.928C234.43 4.928 234.806 5.06933 235.067 5.352C235.334 5.63467 235.467 6.04 235.467 6.568ZM232.675 7.96C232.675 8.10933 232.729 8.22933 232.835 8.32C232.942 8.40533 233.089 8.448 233.275 8.448C233.462 8.448 233.675 8.40267 233.915 8.312C234.155 8.22133 234.433 8.08 234.747 7.888V7.088C234.054 7.13067 233.534 7.224 233.187 7.368C232.846 7.50667 232.675 7.704 232.675 7.96ZM240.358 9H239.63V8.424C239.401 8.65333 239.177 8.82133 238.958 8.928C238.745 9.02933 238.508 9.08 238.246 9.08C237.734 9.08 237.302 8.89067 236.95 8.512C236.598 8.128 236.422 7.65067 236.422 7.08C236.422 6.46667 236.62 5.95733 237.014 5.552C237.409 5.14133 237.884 4.936 238.438 4.936C238.646 4.936 238.846 4.97067 239.038 5.04C239.236 5.104 239.433 5.208 239.63 5.352V3.192L240.358 2.928V9ZM238.558 5.576C238.158 5.576 237.825 5.712 237.558 5.984C237.297 6.256 237.166 6.60267 237.166 7.024C237.166 7.43467 237.286 7.77333 237.526 8.04C237.772 8.30133 238.076 8.432 238.438 8.432C238.646 8.432 238.844 8.392 239.03 8.312C239.217 8.232 239.417 8.104 239.63 7.928V5.912C239.444 5.79467 239.265 5.70933 239.094 5.656C238.924 5.60267 238.745 5.576 238.558 5.576ZM242.111 3.072C242.25 3.072 242.367 3.12 242.463 3.216C242.559 3.312 242.607 3.42933 242.607 3.568C242.607 3.70667 242.559 3.824 242.463 3.92C242.367 4.016 242.25 4.064 242.111 4.064C241.973 4.064 241.855 4.016 241.759 3.92C241.663 3.824 241.615 3.70667 241.615 3.568C241.615 3.42933 241.663 3.312 241.759 3.216C241.855 3.12 241.973 3.072 242.111 3.072ZM242.471 9H241.751V5H242.471V9ZM245.812 5.568C245.604 5.568 245.406 5.624 245.22 5.736C245.038 5.84267 244.828 6.02667 244.588 6.288V9H243.868V5.096L244.588 4.936V5.752C244.817 5.45867 245.044 5.248 245.268 5.12C245.492 4.98667 245.74 4.92 246.012 4.92C246.433 4.92 246.772 5.06133 247.028 5.344C247.289 5.62667 247.42 6.00533 247.42 6.48V9H246.7V6.552C246.7 6.24267 246.62 6.00267 246.46 5.832C246.305 5.656 246.089 5.568 245.812 5.568ZM252.304 5V8.616C252.304 9.224 252.117 9.70133 251.744 10.048C251.376 10.3947 250.872 10.568 250.232 10.568C249.96 10.568 249.696 10.5387 249.44 10.48C249.184 10.4213 248.925 10.328 248.664 10.2L248.512 9.392L248.528 9.384C248.848 9.56533 249.144 9.696 249.416 9.776C249.693 9.86133 249.976 9.904 250.264 9.904C250.658 9.904 250.976 9.78667 251.216 9.552C251.456 9.32267 251.576 9.01067 251.576 8.616V8.256C251.336 8.49067 251.101 8.66133 250.872 8.768C250.642 8.86933 250.397 8.92 250.136 8.92C249.624 8.92 249.2 8.74133 248.864 8.384C248.533 8.02667 248.368 7.57333 248.368 7.024C248.368 6.416 248.578 5.91733 249 5.528C249.426 5.13333 249.949 4.936 250.568 4.936C250.749 4.936 250.928 4.95467 251.104 4.992C251.28 5.02933 251.469 5.09067 251.672 5.176L252.208 5H252.304ZM250.584 5.552C250.162 5.552 249.81 5.688 249.528 5.96C249.25 6.232 249.112 6.57333 249.112 6.984C249.112 7.37333 249.226 7.688 249.456 7.928C249.685 8.168 249.984 8.288 250.352 8.288C250.554 8.288 250.752 8.248 250.944 8.168C251.141 8.08267 251.352 7.94667 251.576 7.76V5.776C251.4 5.70133 251.232 5.64533 251.072 5.608C250.912 5.57067 250.749 5.552 250.584 5.552ZM255.225 6.664C255.753 6.78667 256.118 6.94133 256.321 7.128C256.529 7.31467 256.633 7.57067 256.633 7.896C256.633 8.24267 256.481 8.528 256.177 8.752C255.878 8.976 255.494 9.088 255.025 9.088C254.742 9.088 254.473 9.048 254.217 8.968C253.961 8.888 253.707 8.76533 253.457 8.6L253.305 7.728L253.321 7.72C253.619 7.95467 253.921 8.13333 254.225 8.256C254.529 8.37867 254.822 8.44 255.105 8.44C255.345 8.44 255.542 8.39467 255.697 8.304C255.857 8.208 255.937 8.08533 255.937 7.936C255.937 7.776 255.862 7.65067 255.713 7.56C255.569 7.46933 255.281 7.37333 254.849 7.272C254.331 7.14933 253.971 6.99733 253.769 6.816C253.566 6.63467 253.465 6.39733 253.465 6.104C253.465 5.752 253.609 5.46667 253.897 5.248C254.19 5.024 254.566 4.912 255.025 4.912C255.249 4.912 255.473 4.944 255.697 5.008C255.921 5.072 256.134 5.16267 256.337 5.28V6.048H256.321C256.07 5.888 255.827 5.768 255.593 5.688C255.363 5.60267 255.147 5.56 254.945 5.56C254.705 5.56 254.513 5.60267 254.369 5.688C254.23 5.77333 254.161 5.88533 254.161 6.024C254.161 6.17333 254.233 6.29333 254.377 6.384C254.521 6.46933 254.803 6.56267 255.225 6.664Z" fill="#7A7A7A"/>
</svg>
