<svg width="190" height="137" viewBox="0 0 190 137" fill="none" xmlns="http://www.w3.org/2000/svg">
<rect x="0.5" y="0.5" width="188.253" height="135.205" rx="8.5" fill="white" stroke="#8C8C8C"/>
<rect width="167" height="52" transform="matrix(-1 0 0 1 178 51)" fill="#C9C8CE"/>
<path d="M11 51H178" stroke="black"/>
<rect x="92" y="39" width="27" height="54" fill="white"/>
<line x1="92.5" y1="39" x2="92.5" y2="93" stroke="black"/>
<path d="M95.768 56H95.4V53.2H95.756L97.524 55.212V53.2H97.888V56.02H97.756L95.768 53.756V56ZM100.261 54.784V55.952L99.901 56.032V55.676C99.7516 55.796 99.6103 55.8853 99.477 55.944C99.3463 56.0027 99.2183 56.032 99.093 56.032C98.917 56.032 98.7743 55.984 98.665 55.888C98.5556 55.7893 98.501 55.6587 98.501 55.496C98.501 55.2667 98.6156 55.0973 98.845 54.988C99.0743 54.876 99.4263 54.8173 99.901 54.812V54.804C99.901 54.6387 99.861 54.5133 99.781 54.428C99.7036 54.34 99.5903 54.296 99.441 54.296C99.329 54.296 99.213 54.32 99.093 54.368C98.9756 54.416 98.8543 54.488 98.729 54.584L98.721 54.58L98.797 54.176C98.9036 54.104 99.0143 54.0507 99.129 54.016C99.2463 53.9813 99.369 53.964 99.497 53.964C99.7423 53.964 99.9303 54.0347 100.061 54.176C100.194 54.3173 100.261 54.52 100.261 54.784ZM98.865 55.48C98.865 55.5547 98.8916 55.6147 98.945 55.66C98.9983 55.7027 99.0716 55.724 99.165 55.724C99.2583 55.724 99.365 55.7013 99.485 55.656C99.605 55.6107 99.7436 55.54 99.901 55.444V55.044C99.5543 55.0653 99.2943 55.112 99.121 55.184C98.9503 55.2533 98.865 55.352 98.865 55.48ZM102.312 54H102.704L101.648 56.056H101.572L100.588 54H100.984L101.624 55.412L102.312 54ZM104.453 56H104.065V53.2H104.453V56ZM106.495 55.52L106.415 55.904C106.356 55.9467 106.287 55.98 106.207 56.004C106.127 56.0307 106.044 56.044 105.959 56.044C105.77 56.044 105.62 55.9853 105.511 55.868C105.402 55.7507 105.347 55.5867 105.347 55.376V54.308H105.007V54H105.347V53.552L105.703 53.42V54H106.487V54.308H105.703V55.36C105.703 55.48 105.731 55.5707 105.787 55.632C105.843 55.6907 105.926 55.72 106.035 55.72C106.11 55.72 106.184 55.704 106.259 55.672C106.334 55.6373 106.41 55.5853 106.487 55.516L106.495 55.52ZM108.66 55.472L108.528 55.868C108.411 55.932 108.301 55.9773 108.2 56.004C108.099 56.0307 107.988 56.044 107.868 56.044C107.551 56.044 107.299 55.9493 107.112 55.76C106.925 55.5707 106.832 55.3173 106.832 55C106.832 54.7067 106.925 54.4573 107.112 54.252C107.299 54.0467 107.531 53.944 107.808 53.944C108.085 53.944 108.307 54.0413 108.472 54.236C108.637 54.428 108.72 54.676 108.72 54.98C108.72 55.0067 108.719 55.036 108.716 55.068C108.713 55.1 108.711 55.124 108.708 55.14H107.204C107.231 55.3213 107.305 55.4627 107.428 55.564C107.553 55.6653 107.713 55.716 107.908 55.716C108.025 55.716 108.148 55.6947 108.276 55.652C108.407 55.6067 108.532 55.5453 108.652 55.468L108.66 55.472ZM107.796 54.26C107.633 54.26 107.496 54.3173 107.384 54.432C107.275 54.5467 107.212 54.6933 107.196 54.872H108.356C108.34 54.68 108.283 54.5307 108.184 54.424C108.085 54.3147 107.956 54.26 107.796 54.26ZM110.155 54.284C110.061 54.284 109.972 54.3107 109.887 54.364C109.804 54.4147 109.707 54.5027 109.595 54.628V56H109.235V54.048L109.595 53.968V54.36C109.701 54.2187 109.808 54.1173 109.915 54.056C110.021 53.992 110.137 53.96 110.263 53.96C110.409 53.96 110.536 53.9987 110.643 54.076C110.752 54.1533 110.832 54.2627 110.883 54.404C111 54.2467 111.115 54.1333 111.227 54.064C111.339 53.9947 111.464 53.96 111.603 53.96C111.805 53.96 111.968 54.0307 112.091 54.172C112.216 54.3133 112.279 54.5027 112.279 54.74V56H111.915V54.776C111.915 54.6213 111.877 54.5013 111.803 54.416C111.728 54.328 111.625 54.284 111.495 54.284C111.401 54.284 111.311 54.3107 111.223 54.364C111.137 54.4173 111.04 54.5067 110.931 54.632C110.933 54.6427 110.935 54.656 110.935 54.672C110.935 54.6853 110.935 54.708 110.935 54.74V56H110.575V54.776C110.575 54.6213 110.537 54.5013 110.463 54.416C110.388 54.328 110.285 54.284 110.155 54.284Z" fill="black"/>
<path d="M95.768 67H95.4V64.2H95.756L97.524 66.212V64.2H97.888V67.02H97.756L95.768 64.756V67ZM100.261 65.784V66.952L99.901 67.032V66.676C99.7516 66.796 99.6103 66.8853 99.477 66.944C99.3463 67.0027 99.2183 67.032 99.093 67.032C98.917 67.032 98.7743 66.984 98.665 66.888C98.5556 66.7893 98.501 66.6587 98.501 66.496C98.501 66.2667 98.6156 66.0973 98.845 65.988C99.0743 65.876 99.4263 65.8173 99.901 65.812V65.804C99.901 65.6387 99.861 65.5133 99.781 65.428C99.7036 65.34 99.5903 65.296 99.441 65.296C99.329 65.296 99.213 65.32 99.093 65.368C98.9756 65.416 98.8543 65.488 98.729 65.584L98.721 65.58L98.797 65.176C98.9036 65.104 99.0143 65.0507 99.129 65.016C99.2463 64.9813 99.369 64.964 99.497 64.964C99.7423 64.964 99.9303 65.0347 100.061 65.176C100.194 65.3173 100.261 65.52 100.261 65.784ZM98.865 66.48C98.865 66.5547 98.8916 66.6147 98.945 66.66C98.9983 66.7027 99.0716 66.724 99.165 66.724C99.2583 66.724 99.365 66.7013 99.485 66.656C99.605 66.6107 99.7436 66.54 99.901 66.444V66.044C99.5543 66.0653 99.2943 66.112 99.121 66.184C98.9503 66.2533 98.865 66.352 98.865 66.48ZM102.312 65H102.704L101.648 67.056H101.572L100.588 65H100.984L101.624 66.412L102.312 65ZM104.453 67H104.065V64.2H104.453V67ZM106.495 66.52L106.415 66.904C106.356 66.9467 106.287 66.98 106.207 67.004C106.127 67.0307 106.044 67.044 105.959 67.044C105.77 67.044 105.62 66.9853 105.511 66.868C105.402 66.7507 105.347 66.5867 105.347 66.376V65.308H105.007V65H105.347V64.552L105.703 64.42V65H106.487V65.308H105.703V66.36C105.703 66.48 105.731 66.5707 105.787 66.632C105.843 66.6907 105.926 66.72 106.035 66.72C106.11 66.72 106.184 66.704 106.259 66.672C106.334 66.6373 106.41 66.5853 106.487 66.516L106.495 66.52ZM108.66 66.472L108.528 66.868C108.411 66.932 108.301 66.9773 108.2 67.004C108.099 67.0307 107.988 67.044 107.868 67.044C107.551 67.044 107.299 66.9493 107.112 66.76C106.925 66.5707 106.832 66.3173 106.832 66C106.832 65.7067 106.925 65.4573 107.112 65.252C107.299 65.0467 107.531 64.944 107.808 64.944C108.085 64.944 108.307 65.0413 108.472 65.236C108.637 65.428 108.72 65.676 108.72 65.98C108.72 66.0067 108.719 66.036 108.716 66.068C108.713 66.1 108.711 66.124 108.708 66.14H107.204C107.231 66.3213 107.305 66.4627 107.428 66.564C107.553 66.6653 107.713 66.716 107.908 66.716C108.025 66.716 108.148 66.6947 108.276 66.652C108.407 66.6067 108.532 66.5453 108.652 66.468L108.66 66.472ZM107.796 65.26C107.633 65.26 107.496 65.3173 107.384 65.432C107.275 65.5467 107.212 65.6933 107.196 65.872H108.356C108.34 65.68 108.283 65.5307 108.184 65.424C108.085 65.3147 107.956 65.26 107.796 65.26ZM110.155 65.284C110.061 65.284 109.972 65.3107 109.887 65.364C109.804 65.4147 109.707 65.5027 109.595 65.628V67H109.235V65.048L109.595 64.968V65.36C109.701 65.2187 109.808 65.1173 109.915 65.056C110.021 64.992 110.137 64.96 110.263 64.96C110.409 64.96 110.536 64.9987 110.643 65.076C110.752 65.1533 110.832 65.2627 110.883 65.404C111 65.2467 111.115 65.1333 111.227 65.064C111.339 64.9947 111.464 64.96 111.603 64.96C111.805 64.96 111.968 65.0307 112.091 65.172C112.216 65.3133 112.279 65.5027 112.279 65.74V67H111.915V65.776C111.915 65.6213 111.877 65.5013 111.803 65.416C111.728 65.328 111.625 65.284 111.495 65.284C111.401 65.284 111.311 65.3107 111.223 65.364C111.137 65.4173 111.04 65.5067 110.931 65.632C110.933 65.6427 110.935 65.656 110.935 65.672C110.935 65.6853 110.935 65.708 110.935 65.74V67H110.575V65.776C110.575 65.6213 110.537 65.5013 110.463 65.416C110.388 65.328 110.285 65.284 110.155 65.284Z" fill="black"/>
<path d="M95.768 78H95.4V75.2H95.756L97.524 77.212V75.2H97.888V78.02H97.756L95.768 75.756V78ZM100.261 76.784V77.952L99.901 78.032V77.676C99.7516 77.796 99.6103 77.8853 99.477 77.944C99.3463 78.0027 99.2183 78.032 99.093 78.032C98.917 78.032 98.7743 77.984 98.665 77.888C98.5556 77.7893 98.501 77.6587 98.501 77.496C98.501 77.2667 98.6156 77.0973 98.845 76.988C99.0743 76.876 99.4263 76.8173 99.901 76.812V76.804C99.901 76.6387 99.861 76.5133 99.781 76.428C99.7036 76.34 99.5903 76.296 99.441 76.296C99.329 76.296 99.213 76.32 99.093 76.368C98.9756 76.416 98.8543 76.488 98.729 76.584L98.721 76.58L98.797 76.176C98.9036 76.104 99.0143 76.0507 99.129 76.016C99.2463 75.9813 99.369 75.964 99.497 75.964C99.7423 75.964 99.9303 76.0347 100.061 76.176C100.194 76.3173 100.261 76.52 100.261 76.784ZM98.865 77.48C98.865 77.5547 98.8916 77.6147 98.945 77.66C98.9983 77.7027 99.0716 77.724 99.165 77.724C99.2583 77.724 99.365 77.7013 99.485 77.656C99.605 77.6107 99.7436 77.54 99.901 77.444V77.044C99.5543 77.0653 99.2943 77.112 99.121 77.184C98.9503 77.2533 98.865 77.352 98.865 77.48ZM102.312 76H102.704L101.648 78.056H101.572L100.588 76H100.984L101.624 77.412L102.312 76ZM104.453 78H104.065V75.2H104.453V78ZM106.495 77.52L106.415 77.904C106.356 77.9467 106.287 77.98 106.207 78.004C106.127 78.0307 106.044 78.044 105.959 78.044C105.77 78.044 105.62 77.9853 105.511 77.868C105.402 77.7507 105.347 77.5867 105.347 77.376V76.308H105.007V76H105.347V75.552L105.703 75.42V76H106.487V76.308H105.703V77.36C105.703 77.48 105.731 77.5707 105.787 77.632C105.843 77.6907 105.926 77.72 106.035 77.72C106.11 77.72 106.184 77.704 106.259 77.672C106.334 77.6373 106.41 77.5853 106.487 77.516L106.495 77.52ZM108.66 77.472L108.528 77.868C108.411 77.932 108.301 77.9773 108.2 78.004C108.099 78.0307 107.988 78.044 107.868 78.044C107.551 78.044 107.299 77.9493 107.112 77.76C106.925 77.5707 106.832 77.3173 106.832 77C106.832 76.7067 106.925 76.4573 107.112 76.252C107.299 76.0467 107.531 75.944 107.808 75.944C108.085 75.944 108.307 76.0413 108.472 76.236C108.637 76.428 108.72 76.676 108.72 76.98C108.72 77.0067 108.719 77.036 108.716 77.068C108.713 77.1 108.711 77.124 108.708 77.14H107.204C107.231 77.3213 107.305 77.4627 107.428 77.564C107.553 77.6653 107.713 77.716 107.908 77.716C108.025 77.716 108.148 77.6947 108.276 77.652C108.407 77.6067 108.532 77.5453 108.652 77.468L108.66 77.472ZM107.796 76.26C107.633 76.26 107.496 76.3173 107.384 76.432C107.275 76.5467 107.212 76.6933 107.196 76.872H108.356C108.34 76.68 108.283 76.5307 108.184 76.424C108.085 76.3147 107.956 76.26 107.796 76.26ZM110.155 76.284C110.061 76.284 109.972 76.3107 109.887 76.364C109.804 76.4147 109.707 76.5027 109.595 76.628V78H109.235V76.048L109.595 75.968V76.36C109.701 76.2187 109.808 76.1173 109.915 76.056C110.021 75.992 110.137 75.96 110.263 75.96C110.409 75.96 110.536 75.9987 110.643 76.076C110.752 76.1533 110.832 76.2627 110.883 76.404C111 76.2467 111.115 76.1333 111.227 76.064C111.339 75.9947 111.464 75.96 111.603 75.96C111.805 75.96 111.968 76.0307 112.091 76.172C112.216 76.3133 112.279 76.5027 112.279 76.74V78H111.915V76.776C111.915 76.6213 111.877 76.5013 111.803 76.416C111.728 76.328 111.625 76.284 111.495 76.284C111.401 76.284 111.311 76.3107 111.223 76.364C111.137 76.4173 111.04 76.5067 110.931 76.632C110.933 76.6427 110.935 76.656 110.935 76.672C110.935 76.6853 110.935 76.708 110.935 76.74V78H110.575V76.776C110.575 76.6213 110.537 76.5013 110.463 76.416C110.388 76.328 110.285 76.284 110.155 76.284Z" fill="black"/>
<path d="M95.768 89H95.4V86.2H95.756L97.524 88.212V86.2H97.888V89.02H97.756L95.768 86.756V89ZM100.261 87.784V88.952L99.901 89.032V88.676C99.7516 88.796 99.6103 88.8853 99.477 88.944C99.3463 89.0027 99.2183 89.032 99.093 89.032C98.917 89.032 98.7743 88.984 98.665 88.888C98.5556 88.7893 98.501 88.6587 98.501 88.496C98.501 88.2667 98.6156 88.0973 98.845 87.988C99.0743 87.876 99.4263 87.8173 99.901 87.812V87.804C99.901 87.6387 99.861 87.5133 99.781 87.428C99.7036 87.34 99.5903 87.296 99.441 87.296C99.329 87.296 99.213 87.32 99.093 87.368C98.9756 87.416 98.8543 87.488 98.729 87.584L98.721 87.58L98.797 87.176C98.9036 87.104 99.0143 87.0507 99.129 87.016C99.2463 86.9813 99.369 86.964 99.497 86.964C99.7423 86.964 99.9303 87.0347 100.061 87.176C100.194 87.3173 100.261 87.52 100.261 87.784ZM98.865 88.48C98.865 88.5547 98.8916 88.6147 98.945 88.66C98.9983 88.7027 99.0716 88.724 99.165 88.724C99.2583 88.724 99.365 88.7013 99.485 88.656C99.605 88.6107 99.7436 88.54 99.901 88.444V88.044C99.5543 88.0653 99.2943 88.112 99.121 88.184C98.9503 88.2533 98.865 88.352 98.865 88.48ZM102.312 87H102.704L101.648 89.056H101.572L100.588 87H100.984L101.624 88.412L102.312 87ZM104.453 89H104.065V86.2H104.453V89ZM106.495 88.52L106.415 88.904C106.356 88.9467 106.287 88.98 106.207 89.004C106.127 89.0307 106.044 89.044 105.959 89.044C105.77 89.044 105.62 88.9853 105.511 88.868C105.402 88.7507 105.347 88.5867 105.347 88.376V87.308H105.007V87H105.347V86.552L105.703 86.42V87H106.487V87.308H105.703V88.36C105.703 88.48 105.731 88.5707 105.787 88.632C105.843 88.6907 105.926 88.72 106.035 88.72C106.11 88.72 106.184 88.704 106.259 88.672C106.334 88.6373 106.41 88.5853 106.487 88.516L106.495 88.52ZM108.66 88.472L108.528 88.868C108.411 88.932 108.301 88.9773 108.2 89.004C108.099 89.0307 107.988 89.044 107.868 89.044C107.551 89.044 107.299 88.9493 107.112 88.76C106.925 88.5707 106.832 88.3173 106.832 88C106.832 87.7067 106.925 87.4573 107.112 87.252C107.299 87.0467 107.531 86.944 107.808 86.944C108.085 86.944 108.307 87.0413 108.472 87.236C108.637 87.428 108.72 87.676 108.72 87.98C108.72 88.0067 108.719 88.036 108.716 88.068C108.713 88.1 108.711 88.124 108.708 88.14H107.204C107.231 88.3213 107.305 88.4627 107.428 88.564C107.553 88.6653 107.713 88.716 107.908 88.716C108.025 88.716 108.148 88.6947 108.276 88.652C108.407 88.6067 108.532 88.5453 108.652 88.468L108.66 88.472ZM107.796 87.26C107.633 87.26 107.496 87.3173 107.384 87.432C107.275 87.5467 107.212 87.6933 107.196 87.872H108.356C108.34 87.68 108.283 87.5307 108.184 87.424C108.085 87.3147 107.956 87.26 107.796 87.26ZM110.155 87.284C110.061 87.284 109.972 87.3107 109.887 87.364C109.804 87.4147 109.707 87.5027 109.595 87.628V89H109.235V87.048L109.595 86.968V87.36C109.701 87.2187 109.808 87.1173 109.915 87.056C110.021 86.992 110.137 86.96 110.263 86.96C110.409 86.96 110.536 86.9987 110.643 87.076C110.752 87.1533 110.832 87.2627 110.883 87.404C111 87.2467 111.115 87.1333 111.227 87.064C111.339 86.9947 111.464 86.96 111.603 86.96C111.805 86.96 111.968 87.0307 112.091 87.172C112.216 87.3133 112.279 87.5027 112.279 87.74V89H111.915V87.776C111.915 87.6213 111.877 87.5013 111.803 87.416C111.728 87.328 111.625 87.284 111.495 87.284C111.401 87.284 111.311 87.3107 111.223 87.364C111.137 87.4173 111.04 87.5067 110.931 87.632C110.933 87.6427 110.935 87.656 110.935 87.672C110.935 87.6853 110.935 87.708 110.935 87.74V89H110.575V87.776C110.575 87.6213 110.537 87.5013 110.463 87.416C110.388 87.328 110.285 87.284 110.155 87.284Z" fill="black"/>
<path d="M158.344 46H157.7V41.1H158.323L161.417 44.621V41.1H162.054V46.035H161.823L158.344 42.073V46ZM166.207 43.872V45.916L165.577 46.056V45.433C165.315 45.643 165.068 45.7993 164.835 45.902C164.606 46.0047 164.382 46.056 164.163 46.056C163.855 46.056 163.605 45.972 163.414 45.804C163.222 45.6313 163.127 45.4027 163.127 45.118C163.127 44.7167 163.327 44.4203 163.729 44.229C164.13 44.033 164.746 43.9303 165.577 43.921V43.907C165.577 43.6177 165.507 43.3983 165.367 43.249C165.231 43.095 165.033 43.018 164.772 43.018C164.576 43.018 164.373 43.06 164.163 43.144C163.957 43.228 163.745 43.354 163.526 43.522L163.512 43.515L163.645 42.808C163.831 42.682 164.025 42.5887 164.226 42.528C164.431 42.4673 164.646 42.437 164.87 42.437C165.299 42.437 165.628 42.5607 165.857 42.808C166.09 43.0553 166.207 43.41 166.207 43.872ZM163.764 45.09C163.764 45.2207 163.81 45.3257 163.904 45.405C163.997 45.4797 164.125 45.517 164.289 45.517C164.452 45.517 164.639 45.4773 164.849 45.398C165.059 45.3187 165.301 45.195 165.577 45.027V44.327C164.97 44.3643 164.515 44.446 164.212 44.572C163.913 44.6933 163.764 44.866 163.764 45.09ZM169.796 42.5H170.482L168.634 46.098H168.501L166.779 42.5H167.472L168.592 44.971L169.796 42.5ZM174.508 43.431C174.849 43.529 175.112 43.69 175.299 43.914C175.486 44.138 175.579 44.397 175.579 44.691C175.579 45.0877 175.42 45.419 175.103 45.685C174.79 45.9463 174.408 46.077 173.955 46.077C173.708 46.077 173.486 46.0513 173.29 46C173.099 45.944 172.87 45.8343 172.604 45.671L172.485 44.908L172.499 44.901C172.793 45.1157 173.047 45.2673 173.262 45.356C173.477 45.44 173.701 45.482 173.934 45.482C174.214 45.482 174.445 45.4073 174.627 45.258C174.814 45.1087 174.907 44.9173 174.907 44.684C174.907 44.404 174.776 44.1823 174.515 44.019C174.258 43.851 173.852 43.7273 173.297 43.648V43.396C173.838 43.2233 174.223 43.053 174.452 42.885C174.681 42.717 174.795 42.5163 174.795 42.283C174.795 42.0823 174.723 41.9213 174.578 41.8C174.438 41.6787 174.251 41.618 174.018 41.618C173.817 41.618 173.61 41.6647 173.395 41.758C173.18 41.8467 172.935 41.9937 172.66 42.199H172.646V41.478C172.926 41.3007 173.171 41.1817 173.381 41.121C173.591 41.0557 173.817 41.023 174.06 41.023C174.489 41.023 174.83 41.1303 175.082 41.345C175.334 41.5597 175.46 41.849 175.46 42.213C175.46 42.465 175.378 42.6937 175.215 42.899C175.056 43.1043 174.821 43.2817 174.508 43.431Z" fill="black"/>
<path d="M126.344 46H125.7V41.1H126.323L129.417 44.621V41.1H130.054V46.035H129.823L126.344 42.073V46ZM134.207 43.872V45.916L133.577 46.056V45.433C133.315 45.643 133.068 45.7993 132.835 45.902C132.606 46.0047 132.382 46.056 132.163 46.056C131.855 46.056 131.605 45.972 131.414 45.804C131.222 45.6313 131.127 45.4027 131.127 45.118C131.127 44.7167 131.327 44.4203 131.729 44.229C132.13 44.033 132.746 43.9303 133.577 43.921V43.907C133.577 43.6177 133.507 43.3983 133.367 43.249C133.231 43.095 133.033 43.018 132.772 43.018C132.576 43.018 132.373 43.06 132.163 43.144C131.957 43.228 131.745 43.354 131.526 43.522L131.512 43.515L131.645 42.808C131.831 42.682 132.025 42.5887 132.226 42.528C132.431 42.4673 132.646 42.437 132.87 42.437C133.299 42.437 133.628 42.5607 133.857 42.808C134.09 43.0553 134.207 43.41 134.207 43.872ZM131.764 45.09C131.764 45.2207 131.81 45.3257 131.904 45.405C131.997 45.4797 132.125 45.517 132.289 45.517C132.452 45.517 132.639 45.4773 132.849 45.398C133.059 45.3187 133.301 45.195 133.577 45.027V44.327C132.97 44.3643 132.515 44.446 132.212 44.572C131.913 44.6933 131.764 44.866 131.764 45.09ZM137.796 42.5H138.482L136.634 46.098H136.501L134.779 42.5H135.472L136.592 44.971L137.796 42.5ZM141.549 45.419H143.859L143.53 46H140.527L140.471 45.874L142.193 43.781C142.473 43.445 142.657 43.1837 142.746 42.997C142.839 42.8103 142.886 42.619 142.886 42.423C142.886 42.1943 142.811 42.0053 142.662 41.856C142.513 41.702 142.321 41.625 142.088 41.625C141.845 41.625 141.61 41.7043 141.381 41.863C141.152 42.0217 140.919 42.269 140.681 42.605L140.667 42.598L140.562 41.87C140.781 41.59 141.019 41.38 141.276 41.24C141.537 41.1 141.822 41.03 142.13 41.03C142.55 41.03 142.888 41.1537 143.145 41.401C143.402 41.6437 143.53 41.9657 143.53 42.367C143.53 42.6283 143.474 42.878 143.362 43.116C143.25 43.3493 143.04 43.6503 142.732 44.019L141.549 45.419Z" fill="black"/>
<path d="M96.344 46H95.7V41.1H96.323L99.417 44.621V41.1H100.054V46.035H99.823L96.344 42.073V46ZM104.207 43.872V45.916L103.577 46.056V45.433C103.315 45.643 103.068 45.7993 102.835 45.902C102.606 46.0047 102.382 46.056 102.163 46.056C101.855 46.056 101.605 45.972 101.414 45.804C101.222 45.6313 101.127 45.4027 101.127 45.118C101.127 44.7167 101.327 44.4203 101.729 44.229C102.13 44.033 102.746 43.9303 103.577 43.921V43.907C103.577 43.6177 103.507 43.3983 103.367 43.249C103.231 43.095 103.033 43.018 102.772 43.018C102.576 43.018 102.373 43.06 102.163 43.144C101.957 43.228 101.745 43.354 101.526 43.522L101.512 43.515L101.645 42.808C101.831 42.682 102.025 42.5887 102.226 42.528C102.431 42.4673 102.646 42.437 102.87 42.437C103.299 42.437 103.628 42.5607 103.857 42.808C104.09 43.0553 104.207 43.41 104.207 43.872ZM101.764 45.09C101.764 45.2207 101.81 45.3257 101.904 45.405C101.997 45.4797 102.125 45.517 102.289 45.517C102.452 45.517 102.639 45.4773 102.849 45.398C103.059 45.3187 103.301 45.195 103.577 45.027V44.327C102.97 44.3643 102.515 44.446 102.212 44.572C101.913 44.6933 101.764 44.866 101.764 45.09ZM107.796 42.5H108.482L106.634 46.098H106.501L104.779 42.5H105.472L106.592 44.971L107.796 42.5ZM110.45 42.85L110.436 42.843V42.157L112.242 41.009L112.361 41.044V46H111.71V42.045L110.45 42.85Z" fill="black"/>
<path d="M18.23 43.39C18.23 45.16 16.685 46.225 14.675 46.225C13.52 46.225 12.635 45.895 12.065 45.64L11.795 43.255H12.125C12.26 43.915 12.68 44.695 13.265 45.085C13.655 45.34 14.27 45.655 14.945 45.655C16.28 45.655 16.94 44.875 16.94 43.96C16.94 42.91 16.295 42.4 14.96 41.89C12.98 41.125 12.155 40.465 12.155 39.04C12.155 37.39 13.7 36.265 15.815 36.265C16.805 36.265 17.51 36.49 18.02 36.715V39.055H17.69C17.63 38.38 17.405 37.63 16.82 37.3C16.58 37.165 16.115 36.865 15.425 36.865C14.015 36.865 13.445 37.615 13.445 38.425C13.445 39.37 13.76 39.835 15.56 40.6C17.39 41.38 18.23 41.98 18.23 43.39ZM21.7738 36.7C21.7738 37.06 21.4438 37.45 20.9788 37.45C20.4988 37.45 20.1688 37.06 20.1688 36.7C20.1688 36.325 20.4988 35.92 20.9788 35.92C21.4438 35.92 21.7738 36.325 21.7738 36.7ZM22.6138 45.64V46H19.4338V45.64C20.1688 45.58 20.2888 45.445 20.4388 45.19L20.4538 41.11C20.4538 40.765 20.2588 40.495 19.4938 40.3V40.03L21.4288 39.325H21.6088V45.19C21.7738 45.49 21.8638 45.565 22.6138 45.64ZM27.6942 45.085V45.385C27.3042 45.7 26.3892 46.12 25.8492 46.12C24.4842 46.12 24.0792 45.385 24.0792 44.185C24.0792 42.76 24.1692 41.695 24.1992 40.27L23.3742 40.285V39.97L25.1592 38.2H25.3542L25.3392 39.595H27.5742V40.3L25.3542 40.285C25.3242 41.8 25.2942 42.655 25.2942 43.99C25.2942 44.83 25.8192 45.355 26.7042 45.355C27.0492 45.355 27.5442 45.145 27.6942 45.085ZM33.4603 44.44L33.6853 44.785C32.7703 45.625 32.0803 46.12 30.8503 46.12C29.3053 46.12 28.1203 44.875 28.1203 43.06C28.1203 40.855 29.4403 39.37 31.2553 39.37C32.7703 39.37 33.4753 40.165 33.4753 41.59V41.845L29.3803 41.815C29.3653 41.95 29.3503 42.28 29.3503 42.625C29.3503 44.2 30.4003 45.25 31.6453 45.25C32.5003 45.25 32.8153 44.995 33.4603 44.44ZM29.4403 41.41L32.2603 41.38C32.2603 40.57 31.6603 39.82 30.9853 39.82C30.1903 39.82 29.6053 40.42 29.4403 41.41ZM46.7718 36.385V38.92H46.4718C46.4418 37.645 45.7668 37.195 44.6568 37.18L42.9768 37.165V44.83C43.3068 45.535 44.1018 45.625 44.7918 45.655V46H39.7668V45.655C40.4568 45.625 41.4018 45.49 41.6118 45.04V37.165L39.9318 37.18C38.8218 37.195 38.1618 37.645 38.1318 38.92H37.8168V36.385H38.1018C38.2968 36.445 38.5068 36.49 39.0018 36.49H45.5868C45.9618 36.49 46.2918 36.445 46.4868 36.385H46.7718ZM49.43 36.7C49.43 37.06 49.1 37.45 48.635 37.45C48.155 37.45 47.825 37.06 47.825 36.7C47.825 36.325 48.155 35.92 48.635 35.92C49.1 35.92 49.43 36.325 49.43 36.7ZM50.27 45.64V46H47.09V45.64C47.825 45.58 47.945 45.445 48.095 45.19L48.11 41.11C48.11 40.765 47.915 40.495 47.15 40.3V40.03L49.085 39.325H49.265V45.19C49.43 45.49 49.52 45.565 50.27 45.64ZM55.3504 45.085V45.385C54.9604 45.7 54.0454 46.12 53.5054 46.12C52.1404 46.12 51.7354 45.385 51.7354 44.185C51.7354 42.76 51.8254 41.695 51.8554 40.27L51.0304 40.285V39.97L52.8154 38.2H53.0104L52.9954 39.595H55.2304V40.3L53.0104 40.285C52.9804 41.8 52.9504 42.655 52.9504 43.99C52.9504 44.83 53.4754 45.355 54.3604 45.355C54.7054 45.355 55.2004 45.145 55.3504 45.085ZM58.9415 45.655V46H55.6415V45.655C56.3615 45.61 56.5415 45.46 56.6615 45.205V37.165C56.6615 36.655 56.6915 36.445 55.6565 36.34V36.055L57.9065 35.38H58.1465V35.59L57.8615 36.1V45.205C58.0115 45.505 58.1915 45.58 58.9415 45.655ZM64.9837 44.44L65.2087 44.785C64.2937 45.625 63.6037 46.12 62.3737 46.12C60.8287 46.12 59.6437 44.875 59.6437 43.06C59.6437 40.855 60.9637 39.37 62.7787 39.37C64.2937 39.37 64.9987 40.165 64.9987 41.59V41.845L60.9037 41.815C60.8887 41.95 60.8737 42.28 60.8737 42.625C60.8737 44.2 61.9237 45.25 63.1687 45.25C64.0237 45.25 64.3387 44.995 64.9837 44.44ZM60.9637 41.41L63.7837 41.38C63.7837 40.57 63.1837 39.82 62.5087 39.82C61.7137 39.82 61.1287 40.42 60.9637 41.41Z" fill="black"/>
</svg>
