<svg width="190" height="137" viewBox="0 0 190 137" fill="none" xmlns="http://www.w3.org/2000/svg">
<rect x="0.5" y="0.5" width="188.253" height="135.205" rx="8.5" fill="white" stroke="#FBFBF6"/>
<rect width="167" height="99" transform="matrix(-1 0 0 1 178 20)" fill="#D9D9D9"/>
<path d="M11 34H178" stroke="#727272"/>
<path d="M158.344 31H157.7V26.1H158.323L161.417 29.621V26.1H162.054V31.035H161.823L158.344 27.073V31ZM166.207 28.872V30.916L165.577 31.056V30.433C165.315 30.643 165.068 30.7993 164.835 30.902C164.606 31.0047 164.382 31.056 164.163 31.056C163.855 31.056 163.605 30.972 163.414 30.804C163.222 30.6313 163.127 30.4027 163.127 30.118C163.127 29.7167 163.327 29.4203 163.729 29.229C164.13 29.033 164.746 28.9303 165.577 28.921V28.907C165.577 28.6177 165.507 28.3983 165.367 28.249C165.231 28.095 165.033 28.018 164.772 28.018C164.576 28.018 164.373 28.06 164.163 28.144C163.957 28.228 163.745 28.354 163.526 28.522L163.512 28.515L163.645 27.808C163.831 27.682 164.025 27.5887 164.226 27.528C164.431 27.4673 164.646 27.437 164.87 27.437C165.299 27.437 165.628 27.5607 165.857 27.808C166.09 28.0553 166.207 28.41 166.207 28.872ZM163.764 30.09C163.764 30.2207 163.81 30.3257 163.904 30.405C163.997 30.4797 164.125 30.517 164.289 30.517C164.452 30.517 164.639 30.4773 164.849 30.398C165.059 30.3187 165.301 30.195 165.577 30.027V29.327C164.97 29.3643 164.515 29.446 164.212 29.572C163.913 29.6933 163.764 29.866 163.764 30.09ZM169.796 27.5H170.482L168.634 31.098H168.501L166.779 27.5H167.472L168.592 29.971L169.796 27.5ZM174.508 28.431C174.849 28.529 175.112 28.69 175.299 28.914C175.486 29.138 175.579 29.397 175.579 29.691C175.579 30.0877 175.42 30.419 175.103 30.685C174.79 30.9463 174.408 31.077 173.955 31.077C173.708 31.077 173.486 31.0513 173.29 31C173.099 30.944 172.87 30.8343 172.604 30.671L172.485 29.908L172.499 29.901C172.793 30.1157 173.047 30.2673 173.262 30.356C173.477 30.44 173.701 30.482 173.934 30.482C174.214 30.482 174.445 30.4073 174.627 30.258C174.814 30.1087 174.907 29.9173 174.907 29.684C174.907 29.404 174.776 29.1823 174.515 29.019C174.258 28.851 173.852 28.7273 173.297 28.648V28.396C173.838 28.2233 174.223 28.053 174.452 27.885C174.681 27.717 174.795 27.5163 174.795 27.283C174.795 27.0823 174.723 26.9213 174.578 26.8C174.438 26.6787 174.251 26.618 174.018 26.618C173.817 26.618 173.61 26.6647 173.395 26.758C173.18 26.8467 172.935 26.9937 172.66 27.199H172.646V26.478C172.926 26.3007 173.171 26.1817 173.381 26.121C173.591 26.0557 173.817 26.023 174.06 26.023C174.489 26.023 174.83 26.1303 175.082 26.345C175.334 26.5597 175.46 26.849 175.46 27.213C175.46 27.465 175.378 27.6937 175.215 27.899C175.056 28.1043 174.821 28.2817 174.508 28.431Z" fill="#3E4747"/>
<path d="M126.344 31H125.7V26.1H126.323L129.417 29.621V26.1H130.054V31.035H129.823L126.344 27.073V31ZM134.207 28.872V30.916L133.577 31.056V30.433C133.315 30.643 133.068 30.7993 132.835 30.902C132.606 31.0047 132.382 31.056 132.163 31.056C131.855 31.056 131.605 30.972 131.414 30.804C131.222 30.6313 131.127 30.4027 131.127 30.118C131.127 29.7167 131.327 29.4203 131.729 29.229C132.13 29.033 132.746 28.9303 133.577 28.921V28.907C133.577 28.6177 133.507 28.3983 133.367 28.249C133.231 28.095 133.033 28.018 132.772 28.018C132.576 28.018 132.373 28.06 132.163 28.144C131.957 28.228 131.745 28.354 131.526 28.522L131.512 28.515L131.645 27.808C131.831 27.682 132.025 27.5887 132.226 27.528C132.431 27.4673 132.646 27.437 132.87 27.437C133.299 27.437 133.628 27.5607 133.857 27.808C134.09 28.0553 134.207 28.41 134.207 28.872ZM131.764 30.09C131.764 30.2207 131.81 30.3257 131.904 30.405C131.997 30.4797 132.125 30.517 132.289 30.517C132.452 30.517 132.639 30.4773 132.849 30.398C133.059 30.3187 133.301 30.195 133.577 30.027V29.327C132.97 29.3643 132.515 29.446 132.212 29.572C131.913 29.6933 131.764 29.866 131.764 30.09ZM137.796 27.5H138.482L136.634 31.098H136.501L134.779 27.5H135.472L136.592 29.971L137.796 27.5ZM141.549 30.419H143.859L143.53 31H140.527L140.471 30.874L142.193 28.781C142.473 28.445 142.657 28.1837 142.746 27.997C142.839 27.8103 142.886 27.619 142.886 27.423C142.886 27.1943 142.811 27.0053 142.662 26.856C142.513 26.702 142.321 26.625 142.088 26.625C141.845 26.625 141.61 26.7043 141.381 26.863C141.152 27.0217 140.919 27.269 140.681 27.605L140.667 27.598L140.562 26.87C140.781 26.59 141.019 26.38 141.276 26.24C141.537 26.1 141.822 26.03 142.13 26.03C142.55 26.03 142.888 26.1537 143.145 26.401C143.402 26.6437 143.53 26.9657 143.53 27.367C143.53 27.6283 143.474 27.878 143.362 28.116C143.25 28.3493 143.04 28.6503 142.732 29.019L141.549 30.419Z" fill="#3E4747"/>
<path d="M96.344 31H95.7V26.1H96.323L99.417 29.621V26.1H100.054V31.035H99.823L96.344 27.073V31ZM104.207 28.872V30.916L103.577 31.056V30.433C103.315 30.643 103.068 30.7993 102.835 30.902C102.606 31.0047 102.382 31.056 102.163 31.056C101.855 31.056 101.605 30.972 101.414 30.804C101.222 30.6313 101.127 30.4027 101.127 30.118C101.127 29.7167 101.327 29.4203 101.729 29.229C102.13 29.033 102.746 28.9303 103.577 28.921V28.907C103.577 28.6177 103.507 28.3983 103.367 28.249C103.231 28.095 103.033 28.018 102.772 28.018C102.576 28.018 102.373 28.06 102.163 28.144C101.957 28.228 101.745 28.354 101.526 28.522L101.512 28.515L101.645 27.808C101.831 27.682 102.025 27.5887 102.226 27.528C102.431 27.4673 102.646 27.437 102.87 27.437C103.299 27.437 103.628 27.5607 103.857 27.808C104.09 28.0553 104.207 28.41 104.207 28.872ZM101.764 30.09C101.764 30.2207 101.81 30.3257 101.904 30.405C101.997 30.4797 102.125 30.517 102.289 30.517C102.452 30.517 102.639 30.4773 102.849 30.398C103.059 30.3187 103.301 30.195 103.577 30.027V29.327C102.97 29.3643 102.515 29.446 102.212 29.572C101.913 29.6933 101.764 29.866 101.764 30.09ZM107.796 27.5H108.482L106.634 31.098H106.501L104.779 27.5H105.472L106.592 29.971L107.796 27.5ZM110.45 27.85L110.436 27.843V27.157L112.242 26.009L112.361 26.044V31H111.71V27.045L110.45 27.85Z" fill="#3E4747"/>
<path d="M22.784 28.912C22.784 30.328 21.548 31.18 19.94 31.18C19.016 31.18 18.308 30.916 17.852 30.712L17.636 28.804H17.9C18.008 29.332 18.344 29.956 18.812 30.268C19.124 30.472 19.616 30.724 20.156 30.724C21.224 30.724 21.752 30.1 21.752 29.368C21.752 28.528 21.236 28.12 20.168 27.712C18.584 27.1 17.924 26.572 17.924 25.432C17.924 24.112 19.16 23.212 20.852 23.212C21.644 23.212 22.208 23.392 22.616 23.572V25.444H22.352C22.304 24.904 22.124 24.304 21.656 24.04C21.464 23.932 21.092 23.692 20.54 23.692C19.412 23.692 18.956 24.292 18.956 24.94C18.956 25.696 19.208 26.068 20.648 26.68C22.112 27.304 22.784 27.784 22.784 28.912ZM25.619 23.56C25.619 23.848 25.355 24.16 24.983 24.16C24.599 24.16 24.335 23.848 24.335 23.56C24.335 23.26 24.599 22.936 24.983 22.936C25.355 22.936 25.619 23.26 25.619 23.56ZM26.291 30.712V31H23.747V30.712C24.335 30.664 24.431 30.556 24.551 30.352L24.563 27.088C24.563 26.812 24.407 26.596 23.795 26.44V26.224L25.343 25.66H25.487V30.352C25.619 30.592 25.691 30.652 26.291 30.712ZM30.3553 30.268V30.508C30.0433 30.76 29.3113 31.096 28.8793 31.096C27.7873 31.096 27.4633 30.508 27.4633 29.548C27.4633 28.408 27.5353 27.556 27.5593 26.416L26.8993 26.428V26.176L28.3273 24.76H28.4833L28.4713 25.876H30.2593V26.44L28.4833 26.428C28.4593 27.64 28.4353 28.324 28.4353 29.392C28.4353 30.064 28.8553 30.484 29.5633 30.484C29.8393 30.484 30.2353 30.316 30.3553 30.268ZM34.9682 29.752L35.1482 30.028C34.4162 30.7 33.8642 31.096 32.8802 31.096C31.6442 31.096 30.6962 30.1 30.6962 28.648C30.6962 26.884 31.7522 25.696 33.2042 25.696C34.4162 25.696 34.9802 26.332 34.9802 27.472V27.676L31.7042 27.652C31.6922 27.76 31.6802 28.024 31.6802 28.3C31.6802 29.56 32.5202 30.4 33.5162 30.4C34.2002 30.4 34.4522 30.196 34.9682 29.752ZM31.7522 27.328L34.0082 27.304C34.0082 26.656 33.5282 26.056 32.9882 26.056C32.3522 26.056 31.8842 26.536 31.7522 27.328ZM45.6175 23.308V25.336H45.3775C45.3535 24.316 44.8135 23.956 43.9255 23.944L42.5815 23.932V30.064C42.8455 30.628 43.4815 30.7 44.0335 30.724V31H40.0135V30.724C40.5655 30.7 41.3215 30.592 41.4895 30.232V23.932L40.1455 23.944C39.2575 23.956 38.7295 24.316 38.7055 25.336H38.4535V23.308H38.6815C38.8375 23.356 39.0055 23.392 39.4015 23.392H44.6695C44.9695 23.392 45.2335 23.356 45.3895 23.308H45.6175ZM47.744 23.56C47.744 23.848 47.48 24.16 47.108 24.16C46.724 24.16 46.46 23.848 46.46 23.56C46.46 23.26 46.724 22.936 47.108 22.936C47.48 22.936 47.744 23.26 47.744 23.56ZM48.416 30.712V31H45.872V30.712C46.46 30.664 46.556 30.556 46.676 30.352L46.688 27.088C46.688 26.812 46.532 26.596 45.92 26.44V26.224L47.468 25.66H47.612V30.352C47.744 30.592 47.816 30.652 48.416 30.712ZM52.4803 30.268V30.508C52.1683 30.76 51.4363 31.096 51.0043 31.096C49.9123 31.096 49.5883 30.508 49.5883 29.548C49.5883 28.408 49.6603 27.556 49.6843 26.416L49.0243 26.428V26.176L50.4523 24.76H50.6083L50.5963 25.876H52.3843V26.44L50.6083 26.428C50.5843 27.64 50.5603 28.324 50.5603 29.392C50.5603 30.064 50.9803 30.484 51.6883 30.484C51.9643 30.484 52.3603 30.316 52.4803 30.268ZM55.3532 30.724V31H52.7132V30.724C53.2892 30.688 53.4332 30.568 53.5292 30.364V23.932C53.5292 23.524 53.5532 23.356 52.7252 23.272V23.044L54.5252 22.504H54.7172V22.672L54.4892 23.08V30.364C54.6092 30.604 54.7532 30.664 55.3532 30.724ZM60.187 29.752L60.367 30.028C59.635 30.7 59.083 31.096 58.099 31.096C56.863 31.096 55.915 30.1 55.915 28.648C55.915 26.884 56.971 25.696 58.423 25.696C59.635 25.696 60.199 26.332 60.199 27.472V27.676L56.923 27.652C56.911 27.76 56.899 28.024 56.899 28.3C56.899 29.56 57.739 30.4 58.735 30.4C59.419 30.4 59.671 30.196 60.187 29.752ZM56.971 27.328L59.227 27.304C59.227 26.656 58.747 26.056 58.207 26.056C57.571 26.056 57.103 26.536 56.971 27.328Z" fill="#3E4747"/>
</svg>
