<svg width="501" height="261" viewBox="0 0 501 261" fill="none" xmlns="http://www.w3.org/2000/svg">
<g clip-path="url(#clip0_117_118)">
<path d="M501 0H0V261H501V0Z" fill="white"/>
<path d="M493.268 39H7.73148C3.4615 39 0 41.2386 0 44V218C0 220.761 3.4615 223 7.73148 223H493.268C497.538 223 501 220.761 501 218V44C501 41.2386 497.538 39 493.268 39Z" fill="#EEEEEE"/>
<path d="M118.304 137.271L0 203.965V217.991C0 220.757 3.46154 223 7.73148 223H493.269C497.538 223 501 220.757 501 217.991V159.383L360.446 108.129C359.885 107.924 359.188 107.966 358.694 108.235L239.66 172.996C239.198 173.248 238.553 173.303 238.007 173.136L119.977 137.121C119.424 136.951 118.766 137.01 118.304 137.271Z" fill="#376C74"/>
<path d="M182 93C185.866 93 189 89.866 189 86C189 82.134 185.866 79 182 79C178.134 79 175 82.134 175 86C175 89.866 178.134 93 182 93Z" fill="#376C74"/>
</g>
<defs>
<clipPath id="clip0_117_118">
<rect width="501" height="261" fill="white"/>
</clipPath>
</defs>
</svg>
