<svg width="501" height="261" viewBox="0 0 501 261" fill="none" xmlns="http://www.w3.org/2000/svg">
<rect width="501" height="261" fill="white"/>
<rect x="140" y="35" width="221.87" height="126" rx="5" fill="#EEEEEE"/>
<path d="M192.236 102.537L140 147.989V156C140 158.761 142.239 161 145 161H356.87C359.631 161 361.87 158.761 361.87 156V117.516L299.815 82.5896C299.452 82.3853 299.001 82.4274 298.682 82.6952L246.289 126.692C245.99 126.943 245.573 126.997 245.22 126.831L193.319 102.387C192.96 102.218 192.535 102.277 192.236 102.537Z" fill="#376C74"/>
<circle cx="203.685" cy="67.1848" r="4.79348" fill="#376C74"/>
<path d="M380 105L387 98L380 91" stroke="black"/>
<path d="M122 91L115 98L122 105" stroke="black"/>
<path d="M144.1 205.678C143.456 205.65 142.924 205.482 142.77 205.062C142.322 203.858 141.986 202.892 141.65 201.898C141.258 200.722 140.866 199.546 140.404 198.062C140.264 197.614 140.264 197.418 140.222 196.984H138.78C138.752 197.25 138.766 197.418 138.598 197.908C138.276 198.874 137.716 200.4 137.142 201.954C136.722 203.088 136.246 204.25 135.868 205.174C135.588 205.538 135.168 205.65 134.524 205.678V206H138.122V205.678C137.478 205.65 136.918 205.37 136.764 205.034L137.744 202.304H140.502L141.496 205.202C141.356 205.496 140.81 205.65 140.152 205.678V206H144.1V205.678ZM137.954 201.688L138.948 198.804L139.158 198.034H139.214L139.396 198.804L140.292 201.688H137.954ZM151.281 205.146L150.147 205.328C150.105 205.258 149.937 205.076 149.937 204.768L149.909 196.76L150.175 196.284V196.088H149.951L147.655 196.718V196.984C148.621 197.068 148.817 197.194 148.831 197.768L148.873 199.994C148.607 199.924 148.201 199.798 147.809 199.798C145.527 199.798 144.225 201.31 144.225 203.228C144.225 205.202 145.457 206.126 146.717 206.126C147.375 206.126 148.215 205.65 148.845 205.188L148.971 206.21H149.153L151.281 205.496V205.146ZM148.845 204.922C148.453 205.132 147.921 205.342 147.571 205.342C146.213 205.342 145.429 204.18 145.429 202.808C145.429 201.506 146.087 200.288 147.151 200.288C147.711 200.288 148.579 200.694 148.831 201.478L148.845 204.922ZM158.733 205.146L157.599 205.328C157.557 205.258 157.389 205.076 157.389 204.768L157.361 196.76L157.627 196.284V196.088H157.403L155.107 196.718V196.984C156.073 197.068 156.269 197.194 156.283 197.768L156.325 199.994C156.059 199.924 155.653 199.798 155.261 199.798C152.979 199.798 151.677 201.31 151.677 203.228C151.677 205.202 152.909 206.126 154.169 206.126C154.827 206.126 155.667 205.65 156.297 205.188L156.423 206.21H156.605L158.733 205.496V205.146ZM156.297 204.922C155.905 205.132 155.373 205.342 155.023 205.342C153.665 205.342 152.881 204.18 152.881 202.808C152.881 201.506 153.539 200.288 154.603 200.288C155.163 200.288 156.031 200.694 156.283 201.478L156.297 204.922ZM169.27 205.678C168.822 205.636 168.374 205.566 168.108 205.468C168.108 205.468 168.304 204.04 168.304 202.836C168.304 201.324 168.164 199.798 166.358 199.798C165.84 199.798 164.888 200.246 164.272 200.708V196.76L164.538 196.284V196.088H164.314L162.228 196.718V196.984C163.194 197.082 163.166 197.264 163.166 197.768V205.258C163.054 205.496 162.942 205.636 162.27 205.678V206H165.168V205.678C164.496 205.608 164.426 205.538 164.286 205.258V200.974C164.664 200.806 165.266 200.568 165.616 200.568C166.974 200.568 167.142 201.506 167.142 202.906C167.142 203.886 167.058 204.796 166.988 205.202C166.848 205.468 166.75 205.636 166.064 205.678V206H169.27V205.678ZM174.844 204.544C174.242 205.062 173.948 205.3 173.15 205.3C171.988 205.3 171.008 204.32 171.008 202.85C171.008 202.528 171.022 202.22 171.036 202.094L174.858 202.122V201.884C174.858 200.554 174.2 199.812 172.786 199.812C171.092 199.812 169.86 201.198 169.86 203.256C169.86 204.95 170.966 206.112 172.408 206.112C173.556 206.112 174.2 205.65 175.054 204.866L174.844 204.544ZM171.092 201.716C171.246 200.792 171.792 200.232 172.534 200.232C173.164 200.232 173.724 200.932 173.724 201.688L171.092 201.716ZM181.424 204.978C181.102 205.202 180.92 205.328 180.612 205.328C180.318 205.328 180.01 205.146 180.024 204.572L180.08 201.548C180.094 200.47 179.674 199.798 178.4 199.798C177.784 199.798 176.286 200.386 175.894 201.562V201.716L177.028 201.506C177.056 200.82 177.392 200.33 177.784 200.33C178.428 200.33 178.96 201.03 178.946 201.674L178.932 202.654L176.034 203.676C175.81 203.998 175.754 204.474 175.754 204.852C175.754 205.664 176.468 206.126 177.154 206.126C177.672 206.126 178.442 205.734 178.932 205.23C178.946 205.552 179.24 206.126 179.954 206.126C180.402 206.126 181.088 205.692 181.424 205.342V204.978ZM178.918 204.964C178.484 205.272 178.218 205.412 177.658 205.412C177.238 205.412 177 205.02 177 204.6C177 204.32 177.042 204.012 177.098 203.788C177.504 203.564 178.568 203.158 178.932 202.99L178.918 204.964ZM188.77 205.146L187.636 205.328C187.594 205.258 187.426 205.076 187.426 204.768L187.398 196.76L187.664 196.284V196.088H187.44L185.144 196.718V196.984C186.11 197.068 186.306 197.194 186.32 197.768L186.362 199.994C186.096 199.924 185.69 199.798 185.298 199.798C183.016 199.798 181.714 201.31 181.714 203.228C181.714 205.202 182.946 206.126 184.206 206.126C184.864 206.126 185.704 205.65 186.334 205.188L186.46 206.21H186.642L188.77 205.496V205.146ZM186.334 204.922C185.942 205.132 185.41 205.342 185.06 205.342C183.702 205.342 182.918 204.18 182.918 202.808C182.918 201.506 183.576 200.288 184.64 200.288C185.2 200.288 186.068 200.694 186.32 201.478L186.334 204.922ZM191.335 197.32C191.335 196.97 191.027 196.592 190.593 196.592C190.145 196.592 189.837 196.97 189.837 197.32C189.837 197.656 190.145 198.02 190.593 198.02C191.027 198.02 191.335 197.656 191.335 197.32ZM192.119 205.664C191.419 205.594 191.335 205.524 191.181 205.244V199.77H191.013L189.207 200.428V200.68C189.921 200.862 190.103 201.114 190.103 201.436L190.089 205.244C189.949 205.482 189.837 205.608 189.151 205.664V206H192.119V205.664ZM199.899 205.622C199.269 205.566 198.989 205.552 198.709 205.342V201.702C198.709 200.568 198.331 199.798 197.057 199.798C196.553 199.798 195.489 200.316 194.859 200.778V199.784H194.705L192.885 200.442V200.708C193.543 200.876 193.767 201.198 193.767 201.478V205.258C193.641 205.496 193.543 205.636 192.857 205.678V206H195.783V205.678C195.083 205.608 195.013 205.538 194.859 205.258V201.044C195.265 200.82 195.895 200.582 196.273 200.582C197.043 200.582 197.575 201.226 197.575 201.982V205.244C197.477 205.482 197.393 205.608 196.721 205.664V206H199.899V205.622ZM206.955 200.274H204.939C204.421 199.98 203.903 199.798 203.189 199.798C201.817 199.798 200.641 200.652 200.641 201.982C200.641 202.99 201.243 203.536 201.999 203.858C201.481 204.18 201.089 204.446 200.739 204.712V204.866C200.739 205.79 201.733 206.154 202.181 206.266V206.28C201.495 206.602 200.501 207.148 200.501 207.932C200.501 208.996 201.565 209.612 203.077 209.612C203.917 209.612 204.841 209.318 205.653 208.646C206.311 208.114 206.619 207.596 206.619 206.938C206.619 206.056 206.003 205.482 204.981 205.384C204.197 205.314 203.427 205.314 203.021 205.3C202.363 205.286 201.789 205.034 201.761 204.614C201.859 204.362 202.027 204.152 202.265 203.942C202.447 203.998 202.615 204.04 202.951 204.04C204.267 204.04 205.499 203.228 205.499 201.828C205.499 201.506 205.331 201.114 205.191 200.904L206.955 200.946V200.274ZM204.337 202.038C204.337 202.976 203.833 203.634 203.133 203.634C202.447 203.634 201.789 202.878 201.789 201.8C201.789 200.792 202.335 200.204 203.007 200.204C203.889 200.204 204.337 201.03 204.337 202.038ZM205.765 207.484C205.765 207.75 205.625 208.058 205.457 208.254C205.135 208.632 204.533 208.884 203.735 208.884C202.545 208.884 201.719 208.464 201.607 207.708C201.677 206.868 202.293 206.49 202.657 206.308C203.749 206.322 204.225 206.336 204.897 206.434C205.401 206.518 205.765 206.868 205.765 207.484ZM211.715 204.25C211.715 203.326 211.099 202.934 210.007 202.486C208.943 202.052 208.705 201.758 208.705 201.17C208.705 200.806 208.873 200.204 210.007 200.204C210.329 200.204 210.889 200.862 211.309 201.674H211.617L211.547 200.19C211.183 200.022 210.595 199.812 209.853 199.812C208.621 199.812 207.669 200.61 207.669 201.576C207.669 202.542 208.229 202.962 209.391 203.438C210.175 203.76 210.665 204.068 210.665 204.656C210.665 205.174 210.399 205.72 209.223 205.72C208.929 205.72 208.271 205.006 207.837 204.194H207.487L207.655 205.748C208.005 205.916 208.607 206.14 209.643 206.14C210.847 206.14 211.715 205.258 211.715 204.25ZM219.966 205.146C219.826 205.202 219.364 205.398 219.042 205.398C218.216 205.398 217.726 204.908 217.726 204.124C217.726 202.878 217.754 202.08 217.782 200.666L219.854 200.68V200.022H217.768L217.782 198.72H217.6L215.934 200.372V200.666L216.704 200.652C216.676 201.982 216.592 202.976 216.592 204.306C216.592 205.426 216.97 206.112 218.244 206.112C218.748 206.112 219.602 205.72 219.966 205.426V205.146ZM226.454 202.962C226.454 201.072 225.348 199.798 223.514 199.798C221.694 199.798 220.378 201.086 220.378 202.906C220.378 204.894 221.484 206.126 223.332 206.126C225.124 206.126 226.454 204.81 226.454 202.962ZM225.194 203.326C225.194 204.572 224.578 205.678 223.64 205.678C222.366 205.678 221.652 204.292 221.652 202.556C221.652 201.394 222.296 200.246 223.136 200.246C224.452 200.246 225.194 201.506 225.194 203.326ZM236.821 199.994H234.301V200.316C234.861 200.344 235.197 200.596 235.281 200.806L233.839 204.768L232.271 200.568C232.467 200.456 232.705 200.344 233.195 200.316V199.994H230.171V200.316C230.773 200.344 231.053 200.596 231.179 200.946L233.181 206.252L232.271 208.45C232.159 208.408 231.935 208.338 231.809 208.338C231.361 208.338 231.123 208.632 231.123 208.968C231.123 209.29 231.375 209.612 231.809 209.612C232.201 209.612 232.467 209.36 232.579 209.094C232.901 208.352 233.489 206.686 233.993 205.426L235.743 201.1C235.897 200.736 236.219 200.344 236.821 200.316V199.994ZM243.174 202.962C243.174 201.072 242.068 199.798 240.234 199.798C238.414 199.798 237.098 201.086 237.098 202.906C237.098 204.894 238.204 206.126 240.052 206.126C241.844 206.126 243.174 204.81 243.174 202.962ZM241.914 203.326C241.914 204.572 241.298 205.678 240.36 205.678C239.086 205.678 238.372 204.292 238.372 202.556C238.372 201.394 239.016 200.246 239.856 200.246C241.172 200.246 241.914 201.506 241.914 203.326ZM250.987 205.16L250.035 205.328C249.909 205.272 249.755 205.062 249.755 204.768V199.826H249.629L247.501 200.176V200.456C248.467 200.568 248.663 200.75 248.663 201.31V204.95C248.257 205.16 247.851 205.384 247.291 205.384C246.465 205.384 245.989 204.712 245.989 203.97L246.003 199.826H245.849L243.945 200.176V200.456C244.631 200.638 244.869 200.82 244.869 201.31V204.208C244.869 205.356 245.205 206.154 246.451 206.154C246.955 206.154 248.033 205.678 248.663 205.23L248.747 206.182H248.915L250.987 205.51V205.16ZM256.198 200.12C255.876 199.966 255.554 199.854 255.204 199.854C254.7 199.854 254.14 200.442 253.51 201.114L253.482 199.784H253.342L251.564 200.442V200.708C252.264 200.876 252.446 201.114 252.446 201.394V205.244C252.32 205.482 252.25 205.608 251.564 205.664V206H254.826V205.65C254.224 205.566 253.692 205.496 253.538 205.216V201.38C253.86 201.086 254.014 200.876 254.378 200.876C254.742 200.876 255.05 201.016 255.484 201.268H255.624L256.198 200.12ZM266.36 200.274H264.344C263.826 199.98 263.308 199.798 262.594 199.798C261.222 199.798 260.046 200.652 260.046 201.982C260.046 202.99 260.648 203.536 261.404 203.858C260.886 204.18 260.494 204.446 260.144 204.712V204.866C260.144 205.79 261.138 206.154 261.586 206.266V206.28C260.9 206.602 259.906 207.148 259.906 207.932C259.906 208.996 260.97 209.612 262.482 209.612C263.322 209.612 264.246 209.318 265.058 208.646C265.716 208.114 266.024 207.596 266.024 206.938C266.024 206.056 265.408 205.482 264.386 205.384C263.602 205.314 262.832 205.314 262.426 205.3C261.768 205.286 261.194 205.034 261.166 204.614C261.264 204.362 261.432 204.152 261.67 203.942C261.852 203.998 262.02 204.04 262.356 204.04C263.672 204.04 264.904 203.228 264.904 201.828C264.904 201.506 264.736 201.114 264.596 200.904L266.36 200.946V200.274ZM263.742 202.038C263.742 202.976 263.238 203.634 262.538 203.634C261.852 203.634 261.194 202.878 261.194 201.8C261.194 200.792 261.74 200.204 262.412 200.204C263.294 200.204 263.742 201.03 263.742 202.038ZM265.17 207.484C265.17 207.75 265.03 208.058 264.862 208.254C264.54 208.632 263.938 208.884 263.14 208.884C261.95 208.884 261.124 208.464 261.012 207.708C261.082 206.868 261.698 206.49 262.062 206.308C263.154 206.322 263.63 206.336 264.302 206.434C264.806 206.518 265.17 206.868 265.17 207.484ZM272.547 204.978C272.225 205.202 272.043 205.328 271.735 205.328C271.441 205.328 271.133 205.146 271.147 204.572L271.203 201.548C271.217 200.47 270.797 199.798 269.523 199.798C268.907 199.798 267.409 200.386 267.017 201.562V201.716L268.151 201.506C268.179 200.82 268.515 200.33 268.907 200.33C269.551 200.33 270.083 201.03 270.069 201.674L270.055 202.654L267.157 203.676C266.933 203.998 266.877 204.474 266.877 204.852C266.877 205.664 267.591 206.126 268.277 206.126C268.795 206.126 269.565 205.734 270.055 205.23C270.069 205.552 270.363 206.126 271.077 206.126C271.525 206.126 272.211 205.692 272.547 205.342V204.978ZM270.041 204.964C269.607 205.272 269.341 205.412 268.781 205.412C268.361 205.412 268.123 205.02 268.123 204.6C268.123 204.32 268.165 204.012 268.221 203.788C268.627 203.564 269.691 203.158 270.055 202.99L270.041 204.964ZM275.777 205.678C275.077 205.608 274.909 205.538 274.769 205.258V196.76L275.035 196.284V196.088H274.811L272.711 196.718V196.984C273.677 197.082 273.649 197.278 273.649 197.754V205.258C273.537 205.496 273.369 205.636 272.697 205.678V206H275.777V205.678ZM279.386 205.678C278.686 205.608 278.518 205.538 278.378 205.258V196.76L278.644 196.284V196.088H278.42L276.32 196.718V196.984C277.286 197.082 277.258 197.278 277.258 197.754V205.258C277.146 205.496 276.978 205.636 276.306 205.678V206H279.386V205.678ZM285.025 204.544C284.423 205.062 284.129 205.3 283.331 205.3C282.169 205.3 281.189 204.32 281.189 202.85C281.189 202.528 281.203 202.22 281.217 202.094L285.039 202.122V201.884C285.039 200.554 284.381 199.812 282.967 199.812C281.273 199.812 280.041 201.198 280.041 203.256C280.041 204.95 281.147 206.112 282.589 206.112C283.737 206.112 284.381 205.65 285.235 204.866L285.025 204.544ZM281.273 201.716C281.427 200.792 281.973 200.232 282.715 200.232C283.345 200.232 283.905 200.932 283.905 201.688L281.273 201.716ZM290.61 200.12C290.288 199.966 289.966 199.854 289.616 199.854C289.112 199.854 288.552 200.442 287.922 201.114L287.894 199.784H287.754L285.976 200.442V200.708C286.676 200.876 286.858 201.114 286.858 201.394V205.244C286.732 205.482 286.662 205.608 285.976 205.664V206H289.238V205.65C288.636 205.566 288.104 205.496 287.95 205.216V201.38C288.272 201.086 288.426 200.876 288.79 200.876C289.154 200.876 289.462 201.016 289.896 201.268H290.036L290.61 200.12ZM297.36 199.994H294.84V200.316C295.4 200.344 295.736 200.596 295.82 200.806L294.378 204.768L292.81 200.568C293.006 200.456 293.244 200.344 293.734 200.316V199.994H290.71V200.316C291.312 200.344 291.592 200.596 291.718 200.946L293.72 206.252L292.81 208.45C292.698 208.408 292.474 208.338 292.348 208.338C291.9 208.338 291.662 208.632 291.662 208.968C291.662 209.29 291.914 209.612 292.348 209.612C292.74 209.612 293.006 209.36 293.118 209.094C293.44 208.352 294.028 206.686 294.532 205.426L296.282 201.1C296.436 200.736 296.758 200.344 297.36 200.316V199.994ZM303.034 197.32C303.034 196.97 302.726 196.592 302.292 196.592C301.844 196.592 301.536 196.97 301.536 197.32C301.536 197.656 301.844 198.02 302.292 198.02C302.726 198.02 303.034 197.656 303.034 197.32ZM303.818 205.664C303.118 205.594 303.034 205.524 302.88 205.244V199.77H302.712L300.906 200.428V200.68C301.62 200.862 301.802 201.114 301.802 201.436L301.788 205.244C301.648 205.482 301.536 205.608 300.85 205.664V206H303.818V205.664ZM308.56 205.146C308.42 205.202 307.958 205.398 307.636 205.398C306.81 205.398 306.32 204.908 306.32 204.124C306.32 202.878 306.348 202.08 306.376 200.666L308.448 200.68V200.022H306.362L306.376 198.72H306.194L304.528 200.372V200.666L305.298 200.652C305.27 201.982 305.186 202.976 305.186 204.306C305.186 205.426 305.564 206.112 306.838 206.112C307.342 206.112 308.196 205.72 308.56 205.426V205.146ZM313.941 204.544C313.339 205.062 313.045 205.3 312.247 205.3C311.085 205.3 310.105 204.32 310.105 202.85C310.105 202.528 310.119 202.22 310.133 202.094L313.955 202.122V201.884C313.955 200.554 313.297 199.812 311.883 199.812C310.189 199.812 308.957 201.198 308.957 203.256C308.957 204.95 310.063 206.112 311.505 206.112C312.653 206.112 313.297 205.65 314.151 204.866L313.941 204.544ZM310.189 201.716C310.343 200.792 310.889 200.232 311.631 200.232C312.261 200.232 312.821 200.932 312.821 201.688L310.189 201.716ZM325.714 205.622C325.182 205.58 324.846 205.552 324.566 205.356L324.524 201.73C324.51 200.568 324.16 199.812 322.9 199.812C322.382 199.812 321.234 200.4 320.632 200.862C320.422 200.218 319.946 199.798 319.064 199.798C318.56 199.798 317.496 200.316 316.866 200.778V199.77H316.712L314.962 200.47V200.694C315.606 200.904 315.774 201.198 315.774 201.492V205.258C315.648 205.496 315.578 205.636 314.892 205.678V206H317.762V205.678C317.062 205.608 317.02 205.538 316.866 205.258V201.072C317.3 200.806 317.972 200.582 318.336 200.582C319.176 200.582 319.568 201.338 319.568 201.982V205.258C319.47 205.496 319.4 205.636 318.728 205.678V206H321.584V205.678C320.898 205.608 320.856 205.538 320.688 205.258V201.1C321.122 200.82 321.752 200.61 322.144 200.61C322.97 200.61 323.39 201.282 323.404 201.996L323.446 205.244C323.32 205.482 323.236 205.636 322.578 205.678V206.014C322.928 206 323.418 205.972 323.95 205.972C324.65 205.972 325.294 205.986 325.714 206V205.622ZM330.51 204.25C330.51 203.326 329.894 202.934 328.802 202.486C327.738 202.052 327.5 201.758 327.5 201.17C327.5 200.806 327.668 200.204 328.802 200.204C329.124 200.204 329.684 200.862 330.104 201.674H330.412L330.342 200.19C329.978 200.022 329.39 199.812 328.648 199.812C327.416 199.812 326.464 200.61 326.464 201.576C326.464 202.542 327.024 202.962 328.186 203.438C328.97 203.76 329.46 204.068 329.46 204.656C329.46 205.174 329.194 205.72 328.018 205.72C327.724 205.72 327.066 205.006 326.632 204.194H326.282L326.45 205.748C326.8 205.916 327.402 206.14 328.438 206.14C329.642 206.14 330.51 205.258 330.51 204.25Z" fill="black"/>
<path d="M140.44 216.4V217.096H138.24V222H137.472V217.096H135.28V216.4H140.44ZM143.343 218.568C143.135 218.568 142.937 218.624 142.751 218.736C142.569 218.843 142.359 219.027 142.119 219.288V222H141.399V216.192L142.119 215.928V218.752C142.348 218.459 142.575 218.248 142.799 218.12C143.023 217.987 143.271 217.92 143.543 217.92C143.964 217.92 144.303 218.061 144.559 218.344C144.82 218.627 144.951 219.005 144.951 219.48V222H144.231V219.552C144.231 219.243 144.151 219.003 143.991 218.832C143.836 218.656 143.62 218.568 143.343 218.568ZM149.547 220.944L149.283 221.736C149.048 221.864 148.83 221.955 148.627 222.008C148.424 222.061 148.203 222.088 147.963 222.088C147.328 222.088 146.824 221.899 146.451 221.52C146.078 221.141 145.891 220.635 145.891 220C145.891 219.413 146.078 218.915 146.451 218.504C146.824 218.093 147.288 217.888 147.843 217.888C148.398 217.888 148.84 218.083 149.171 218.472C149.502 218.856 149.667 219.352 149.667 219.96C149.667 220.013 149.664 220.072 149.659 220.136C149.654 220.2 149.648 220.248 149.643 220.28H146.635C146.688 220.643 146.838 220.925 147.083 221.128C147.334 221.331 147.654 221.432 148.043 221.432C148.278 221.432 148.523 221.389 148.779 221.304C149.04 221.213 149.291 221.091 149.531 220.936L149.547 220.944ZM147.819 218.52C147.494 218.52 147.219 218.635 146.995 218.864C146.776 219.093 146.651 219.387 146.619 219.744H148.939C148.907 219.36 148.792 219.061 148.595 218.848C148.398 218.629 148.139 218.52 147.819 218.52ZM157.358 219.088V221.384C156.99 221.629 156.622 221.808 156.254 221.92C155.886 222.027 155.489 222.08 155.062 222.08C154.209 222.08 153.516 221.819 152.982 221.296C152.449 220.768 152.182 220.075 152.182 219.216C152.182 218.373 152.47 217.68 153.046 217.136C153.628 216.592 154.364 216.32 155.254 216.32C155.617 216.32 155.956 216.36 156.27 216.44C156.585 216.515 156.9 216.635 157.214 216.8V217.656H157.198C156.846 217.448 156.51 217.296 156.19 217.2C155.876 217.099 155.556 217.048 155.23 217.048C154.59 217.048 154.054 217.256 153.622 217.672C153.19 218.083 152.974 218.592 152.974 219.2C152.974 219.845 153.172 220.368 153.566 220.768C153.961 221.163 154.473 221.36 155.102 221.36C155.39 221.36 155.654 221.331 155.894 221.272C156.14 221.213 156.374 221.12 156.598 220.992V219.792H154.99V219.088H157.358ZM162.038 219.568V221.904L161.318 222.064V221.352C161.019 221.592 160.736 221.771 160.47 221.888C160.208 222.005 159.952 222.064 159.702 222.064C159.35 222.064 159.064 221.968 158.846 221.776C158.627 221.579 158.518 221.317 158.518 220.992C158.518 220.533 158.747 220.195 159.206 219.976C159.664 219.752 160.368 219.635 161.318 219.624V219.608C161.318 219.277 161.238 219.027 161.078 218.856C160.923 218.68 160.696 218.592 160.398 218.592C160.174 218.592 159.942 218.64 159.702 218.736C159.467 218.832 159.224 218.976 158.974 219.168L158.958 219.16L159.11 218.352C159.323 218.208 159.544 218.101 159.774 218.032C160.008 217.963 160.254 217.928 160.51 217.928C161 217.928 161.376 218.069 161.638 218.352C161.904 218.635 162.038 219.04 162.038 219.568ZM159.246 220.96C159.246 221.109 159.299 221.229 159.406 221.32C159.512 221.405 159.659 221.448 159.846 221.448C160.032 221.448 160.246 221.403 160.486 221.312C160.726 221.221 161.003 221.08 161.318 220.888V220.088C160.624 220.131 160.104 220.224 159.758 220.368C159.416 220.507 159.246 220.704 159.246 220.96ZM164.081 222H163.361V216.192L164.081 215.928V222ZM166.237 222H165.517V216.192L166.237 215.928V222ZM170.953 220.944L170.689 221.736C170.454 221.864 170.236 221.955 170.033 222.008C169.83 222.061 169.609 222.088 169.369 222.088C168.734 222.088 168.23 221.899 167.857 221.52C167.484 221.141 167.297 220.635 167.297 220C167.297 219.413 167.484 218.915 167.857 218.504C168.23 218.093 168.694 217.888 169.249 217.888C169.804 217.888 170.246 218.083 170.577 218.472C170.908 218.856 171.073 219.352 171.073 219.96C171.073 220.013 171.07 220.072 171.065 220.136C171.06 220.2 171.054 220.248 171.049 220.28H168.041C168.094 220.643 168.244 220.925 168.489 221.128C168.74 221.331 169.06 221.432 169.449 221.432C169.684 221.432 169.929 221.389 170.185 221.304C170.446 221.213 170.697 221.091 170.937 220.936L170.953 220.944ZM169.225 218.52C168.9 218.52 168.625 218.635 168.401 218.864C168.182 219.093 168.057 219.387 168.025 219.744H170.345C170.313 219.36 170.198 219.061 170.001 218.848C169.804 218.629 169.545 218.52 169.225 218.52ZM174.31 218.704C174.075 218.704 173.843 218.76 173.614 218.872C173.39 218.984 173.126 219.173 172.822 219.44V222H172.102V218.096L172.822 217.936V218.952C173.153 218.541 173.411 218.269 173.598 218.136C173.79 218.003 173.995 217.936 174.214 217.936C174.262 217.936 174.302 217.939 174.334 217.944C174.371 217.949 174.417 217.957 174.47 217.968L174.526 218.728C174.489 218.717 174.451 218.712 174.414 218.712C174.382 218.707 174.347 218.704 174.31 218.704ZM178.958 218L177.102 222.448C176.948 222.821 176.753 223.101 176.518 223.288C176.284 223.475 176.012 223.568 175.702 223.568C175.585 223.568 175.47 223.555 175.358 223.528C175.246 223.507 175.137 223.469 175.03 223.416L174.886 222.68L174.902 222.672C175.03 222.747 175.148 222.8 175.254 222.832C175.361 222.869 175.473 222.888 175.59 222.888C175.782 222.888 175.945 222.832 176.078 222.72C176.217 222.613 176.337 222.443 176.438 222.208L176.622 221.776L174.926 218H175.726L176.99 220.952L178.174 218H178.958ZM184.764 220.808L184.636 221.64C184.417 221.789 184.19 221.904 183.956 221.984C183.721 222.059 183.484 222.096 183.244 222.096C182.641 222.096 182.15 221.901 181.772 221.512C181.393 221.123 181.204 220.621 181.204 220.008C181.204 219.411 181.404 218.912 181.804 218.512C182.209 218.107 182.718 217.904 183.332 217.904C183.598 217.904 183.841 217.944 184.06 218.024C184.278 218.099 184.484 218.219 184.676 218.384V219.272H184.66C184.42 219.027 184.19 218.848 183.972 218.736C183.758 218.624 183.54 218.568 183.316 218.568C182.926 218.568 182.601 218.707 182.34 218.984C182.078 219.261 181.948 219.6 181.948 220C181.948 220.416 182.07 220.76 182.316 221.032C182.566 221.299 182.886 221.432 183.276 221.432C183.51 221.432 183.758 221.376 184.02 221.264C184.281 221.147 184.524 220.992 184.748 220.8L184.764 220.808ZM187.612 222.112C186.999 222.112 186.495 221.909 186.1 221.504C185.705 221.093 185.508 220.595 185.508 220.008C185.508 219.427 185.711 218.928 186.116 218.512C186.521 218.096 187.025 217.888 187.628 217.888C188.247 217.888 188.751 218.091 189.14 218.496C189.535 218.896 189.732 219.392 189.732 219.984C189.732 220.571 189.529 221.072 189.124 221.488C188.724 221.904 188.22 222.112 187.612 222.112ZM188.996 219.984C188.996 219.568 188.865 219.224 188.604 218.952C188.348 218.675 188.023 218.536 187.628 218.536C187.228 218.536 186.897 218.677 186.636 218.96C186.38 219.237 186.252 219.587 186.252 220.008C186.252 220.424 186.38 220.771 186.636 221.048C186.897 221.325 187.223 221.464 187.612 221.464C188.012 221.464 188.343 221.323 188.604 221.04C188.865 220.757 188.996 220.405 188.996 219.984ZM192.598 218.568C192.411 218.568 192.233 218.621 192.062 218.728C191.897 218.829 191.702 219.005 191.478 219.256V222H190.758V218.096L191.478 217.936V218.72C191.691 218.437 191.905 218.235 192.118 218.112C192.331 217.984 192.563 217.92 192.814 217.92C193.107 217.92 193.361 217.997 193.574 218.152C193.793 218.307 193.953 218.525 194.054 218.808C194.289 218.493 194.518 218.267 194.742 218.128C194.966 217.989 195.217 217.92 195.494 217.92C195.899 217.92 196.225 218.061 196.47 218.344C196.721 218.627 196.846 219.005 196.846 219.48V222H196.118V219.552C196.118 219.243 196.043 219.003 195.894 218.832C195.745 218.656 195.539 218.568 195.278 218.568C195.091 218.568 194.91 218.621 194.734 218.728C194.563 218.835 194.369 219.013 194.15 219.264C194.155 219.285 194.158 219.312 194.158 219.344C194.158 219.371 194.158 219.416 194.158 219.48V222H193.438V219.552C193.438 219.243 193.363 219.003 193.214 218.832C193.065 218.656 192.859 218.568 192.598 218.568ZM202.053 219.92C202.053 220.533 201.856 221.045 201.461 221.456C201.072 221.861 200.6 222.064 200.045 222.064C199.832 222.064 199.627 222.029 199.429 221.96C199.237 221.891 199.043 221.784 198.845 221.64V223.528H198.125V218.096L198.845 217.936V218.584C199.069 218.349 199.291 218.181 199.509 218.08C199.728 217.973 199.968 217.92 200.229 217.92C200.741 217.92 201.173 218.112 201.525 218.496C201.877 218.875 202.053 219.349 202.053 219.92ZM201.309 219.976C201.309 219.56 201.187 219.221 200.941 218.96C200.701 218.699 200.4 218.568 200.037 218.568C199.829 218.568 199.632 218.608 199.445 218.688C199.259 218.768 199.059 218.896 198.845 219.072V221.08C199.027 221.197 199.203 221.285 199.373 221.344C199.549 221.397 199.733 221.424 199.925 221.424C200.325 221.424 200.656 221.288 200.917 221.016C201.179 220.739 201.309 220.392 201.309 219.976ZM204.854 222.112C204.241 222.112 203.737 221.909 203.342 221.504C202.948 221.093 202.75 220.595 202.75 220.008C202.75 219.427 202.953 218.928 203.358 218.512C203.764 218.096 204.268 217.888 204.87 217.888C205.489 217.888 205.993 218.091 206.382 218.496C206.777 218.896 206.974 219.392 206.974 219.984C206.974 220.571 206.772 221.072 206.366 221.488C205.966 221.904 205.462 222.112 204.854 222.112ZM206.238 219.984C206.238 219.568 206.108 219.224 205.846 218.952C205.59 218.675 205.265 218.536 204.87 218.536C204.47 218.536 204.14 218.677 203.878 218.96C203.622 219.237 203.494 219.587 203.494 220.008C203.494 220.424 203.622 220.771 203.878 221.048C204.14 221.325 204.465 221.464 204.854 221.464C205.254 221.464 205.585 221.323 205.846 221.04C206.108 220.757 206.238 220.405 206.238 219.984ZM209.944 218.568C209.736 218.568 209.539 218.624 209.352 218.736C209.171 218.843 208.96 219.027 208.72 219.288V222H208V218.096L208.72 217.936V218.752C208.95 218.459 209.176 218.248 209.4 218.12C209.624 217.987 209.872 217.92 210.144 217.92C210.566 217.92 210.904 218.061 211.16 218.344C211.422 218.627 211.552 219.005 211.552 219.48V222H210.832V219.552C210.832 219.243 210.752 219.003 210.592 218.832C210.438 218.656 210.222 218.568 209.944 218.568ZM216.148 220.944L215.884 221.736C215.65 221.864 215.431 221.955 215.228 222.008C215.026 222.061 214.804 222.088 214.564 222.088C213.93 222.088 213.426 221.899 213.052 221.52C212.679 221.141 212.492 220.635 212.492 220C212.492 219.413 212.679 218.915 213.052 218.504C213.426 218.093 213.89 217.888 214.444 217.888C214.999 217.888 215.442 218.083 215.772 218.472C216.103 218.856 216.268 219.352 216.268 219.96C216.268 220.013 216.266 220.072 216.26 220.136C216.255 220.2 216.25 220.248 216.244 220.28H213.236C213.29 220.643 213.439 220.925 213.684 221.128C213.935 221.331 214.255 221.432 214.644 221.432C214.879 221.432 215.124 221.389 215.38 221.304C215.642 221.213 215.892 221.091 216.132 220.936L216.148 220.944ZM214.42 218.52C214.095 218.52 213.82 218.635 213.596 218.864C213.378 219.093 213.252 219.387 213.22 219.744H215.54C215.508 219.36 215.394 219.061 215.196 218.848C214.999 218.629 214.74 218.52 214.42 218.52ZM219.241 218.568C219.033 218.568 218.836 218.624 218.649 218.736C218.468 218.843 218.257 219.027 218.017 219.288V222H217.297V218.096L218.017 217.936V218.752C218.247 218.459 218.473 218.248 218.697 218.12C218.921 217.987 219.169 217.92 219.441 217.92C219.863 217.92 220.201 218.061 220.457 218.344C220.719 218.627 220.849 219.005 220.849 219.48V222H220.129V219.552C220.129 219.243 220.049 219.003 219.889 218.832C219.735 218.656 219.519 218.568 219.241 218.568ZM224.693 221.04L224.533 221.808C224.416 221.893 224.277 221.96 224.117 222.008C223.957 222.061 223.792 222.088 223.621 222.088C223.243 222.088 222.944 221.971 222.725 221.736C222.507 221.501 222.397 221.173 222.397 220.752V218.616H221.717V218H222.397V217.104L223.109 216.84V218H224.677V218.616H223.109V220.72C223.109 220.96 223.165 221.141 223.277 221.264C223.389 221.381 223.555 221.44 223.773 221.44C223.923 221.44 224.072 221.408 224.221 221.344C224.371 221.275 224.523 221.171 224.677 221.032L224.693 221.04ZM228.998 219.664C229.526 219.787 229.891 219.941 230.094 220.128C230.302 220.315 230.406 220.571 230.406 220.896C230.406 221.243 230.254 221.528 229.95 221.752C229.651 221.976 229.267 222.088 228.798 222.088C228.515 222.088 228.246 222.048 227.99 221.968C227.734 221.888 227.481 221.765 227.23 221.6L227.078 220.728L227.094 220.72C227.393 220.955 227.694 221.133 227.998 221.256C228.302 221.379 228.595 221.44 228.878 221.44C229.118 221.44 229.315 221.395 229.47 221.304C229.63 221.208 229.71 221.085 229.71 220.936C229.71 220.776 229.635 220.651 229.486 220.56C229.342 220.469 229.054 220.373 228.622 220.272C228.105 220.149 227.745 219.997 227.542 219.816C227.339 219.635 227.238 219.397 227.238 219.104C227.238 218.752 227.382 218.467 227.67 218.248C227.963 218.024 228.339 217.912 228.798 217.912C229.022 217.912 229.246 217.944 229.47 218.008C229.694 218.072 229.907 218.163 230.11 218.28V219.048H230.094C229.843 218.888 229.601 218.768 229.366 218.688C229.137 218.603 228.921 218.56 228.718 218.56C228.478 218.56 228.286 218.603 228.142 218.688C228.003 218.773 227.934 218.885 227.934 219.024C227.934 219.173 228.006 219.293 228.15 219.384C228.294 219.469 228.577 219.563 228.998 219.664ZM234.941 222H234.213V221.248C233.984 221.541 233.757 221.755 233.533 221.888C233.309 222.016 233.061 222.08 232.789 222.08C232.368 222.08 232.027 221.939 231.765 221.656C231.509 221.373 231.381 220.995 231.381 220.52V218H232.109V220.448C232.109 220.757 232.187 221 232.341 221.176C232.501 221.347 232.72 221.432 232.997 221.432C233.2 221.432 233.392 221.379 233.573 221.272C233.76 221.16 233.973 220.973 234.213 220.712V218H234.941V222ZM240.217 219.92C240.217 220.533 240.02 221.045 239.625 221.456C239.236 221.861 238.764 222.064 238.209 222.064C237.996 222.064 237.791 222.029 237.593 221.96C237.401 221.891 237.207 221.784 237.009 221.64V223.528H236.289V218.096L237.009 217.936V218.584C237.233 218.349 237.455 218.181 237.673 218.08C237.892 217.973 238.132 217.92 238.393 217.92C238.905 217.92 239.337 218.112 239.689 218.496C240.041 218.875 240.217 219.349 240.217 219.92ZM239.473 219.976C239.473 219.56 239.351 219.221 239.105 218.96C238.865 218.699 238.564 218.568 238.201 218.568C237.993 218.568 237.796 218.608 237.609 218.688C237.423 218.768 237.223 218.896 237.009 219.072V221.08C237.191 221.197 237.367 221.285 237.537 221.344C237.713 221.397 237.897 221.424 238.089 221.424C238.489 221.424 238.82 221.288 239.081 221.016C239.343 220.739 239.473 220.392 239.473 219.976ZM245.178 219.92C245.178 220.533 244.981 221.045 244.586 221.456C244.197 221.861 243.725 222.064 243.17 222.064C242.957 222.064 242.752 222.029 242.554 221.96C242.362 221.891 242.168 221.784 241.97 221.64V223.528H241.25V218.096L241.97 217.936V218.584C242.194 218.349 242.416 218.181 242.634 218.08C242.853 217.973 243.093 217.92 243.354 217.92C243.866 217.92 244.298 218.112 244.65 218.496C245.002 218.875 245.178 219.349 245.178 219.92ZM244.434 219.976C244.434 219.56 244.312 219.221 244.066 218.96C243.826 218.699 243.525 218.568 243.162 218.568C242.954 218.568 242.757 218.608 242.57 218.688C242.384 218.768 242.184 218.896 241.97 219.072V221.08C242.152 221.197 242.328 221.285 242.498 221.344C242.674 221.397 242.858 221.424 243.05 221.424C243.45 221.424 243.781 221.288 244.042 221.016C244.304 220.739 244.434 220.392 244.434 219.976ZM247.979 222.112C247.366 222.112 246.862 221.909 246.467 221.504C246.073 221.093 245.875 220.595 245.875 220.008C245.875 219.427 246.078 218.928 246.483 218.512C246.889 218.096 247.393 217.888 247.995 217.888C248.614 217.888 249.118 218.091 249.507 218.496C249.902 218.896 250.099 219.392 250.099 219.984C250.099 220.571 249.897 221.072 249.491 221.488C249.091 221.904 248.587 222.112 247.979 222.112ZM249.363 219.984C249.363 219.568 249.233 219.224 248.971 218.952C248.715 218.675 248.39 218.536 247.995 218.536C247.595 218.536 247.265 218.677 247.003 218.96C246.747 219.237 246.619 219.587 246.619 220.008C246.619 220.424 246.747 220.771 247.003 221.048C247.265 221.325 247.59 221.464 247.979 221.464C248.379 221.464 248.71 221.323 248.971 221.04C249.233 220.757 249.363 220.405 249.363 219.984ZM253.333 218.704C253.099 218.704 252.867 218.76 252.637 218.872C252.413 218.984 252.149 219.173 251.845 219.44V222H251.125V218.096L251.845 217.936V218.952C252.176 218.541 252.435 218.269 252.621 218.136C252.813 218.003 253.019 217.936 253.237 217.936C253.285 217.936 253.325 217.939 253.357 217.944C253.395 217.949 253.44 217.957 253.493 217.968L253.549 218.728C253.512 218.717 253.475 218.712 253.437 218.712C253.405 218.707 253.371 218.704 253.333 218.704ZM257.014 221.04L256.854 221.808C256.736 221.893 256.598 221.96 256.438 222.008C256.278 222.061 256.112 222.088 255.942 222.088C255.563 222.088 255.264 221.971 255.046 221.736C254.827 221.501 254.718 221.173 254.718 220.752V218.616H254.038V218H254.718V217.104L255.43 216.84V218H256.998V218.616H255.43V220.72C255.43 220.96 255.486 221.141 255.598 221.264C255.71 221.381 255.875 221.44 256.094 221.44C256.243 221.44 256.392 221.408 256.542 221.344C256.691 221.275 256.843 221.171 256.998 221.032L257.014 221.04ZM259.592 219.664C260.12 219.787 260.485 219.941 260.688 220.128C260.896 220.315 261 220.571 261 220.896C261 221.243 260.848 221.528 260.544 221.752C260.245 221.976 259.861 222.088 259.392 222.088C259.109 222.088 258.84 222.048 258.584 221.968C258.328 221.888 258.074 221.765 257.824 221.6L257.672 220.728L257.688 220.72C257.986 220.955 258.288 221.133 258.592 221.256C258.896 221.379 259.189 221.44 259.472 221.44C259.712 221.44 259.909 221.395 260.064 221.304C260.224 221.208 260.304 221.085 260.304 220.936C260.304 220.776 260.229 220.651 260.08 220.56C259.936 220.469 259.648 220.373 259.216 220.272C258.698 220.149 258.338 219.997 258.136 219.816C257.933 219.635 257.832 219.397 257.832 219.104C257.832 218.752 257.976 218.467 258.264 218.248C258.557 218.024 258.933 217.912 259.392 217.912C259.616 217.912 259.84 217.944 260.064 218.008C260.288 218.072 260.501 218.163 260.704 218.28V219.048H260.688C260.437 218.888 260.194 218.768 259.96 218.688C259.73 218.603 259.514 218.56 259.312 218.56C259.072 218.56 258.88 218.603 258.736 218.688C258.597 218.773 258.528 218.885 258.528 219.024C258.528 219.173 258.6 219.293 258.744 219.384C258.888 219.469 259.17 219.563 259.592 219.664ZM264.182 216.072C264.32 216.072 264.438 216.12 264.534 216.216C264.63 216.312 264.678 216.429 264.678 216.568C264.678 216.707 264.63 216.824 264.534 216.92C264.438 217.016 264.32 217.064 264.182 217.064C264.043 217.064 263.926 217.016 263.83 216.92C263.734 216.824 263.686 216.707 263.686 216.568C263.686 216.429 263.734 216.312 263.83 216.216C263.926 216.12 264.043 216.072 264.182 216.072ZM264.542 222H263.822V218H264.542V222ZM267.882 218.568C267.674 218.568 267.476 218.624 267.29 218.736C267.108 218.843 266.898 219.027 266.658 219.288V222H265.938V218.096L266.658 217.936V218.752C266.887 218.459 267.114 218.248 267.338 218.12C267.562 217.987 267.81 217.92 268.082 217.92C268.503 217.92 268.842 218.061 269.098 218.344C269.359 218.627 269.49 219.005 269.49 219.48V222H268.77V219.552C268.77 219.243 268.69 219.003 268.53 218.832C268.375 218.656 268.159 218.568 267.882 218.568ZM273.998 220.808L273.87 221.64C273.651 221.789 273.425 221.904 273.19 221.984C272.955 222.059 272.718 222.096 272.478 222.096C271.875 222.096 271.385 221.901 271.006 221.512C270.627 221.123 270.438 220.621 270.438 220.008C270.438 219.411 270.638 218.912 271.038 218.512C271.443 218.107 271.953 217.904 272.566 217.904C272.833 217.904 273.075 217.944 273.294 218.024C273.513 218.099 273.718 218.219 273.91 218.384V219.272H273.894C273.654 219.027 273.425 218.848 273.206 218.736C272.993 218.624 272.774 218.568 272.55 218.568C272.161 218.568 271.835 218.707 271.574 218.984C271.313 219.261 271.182 219.6 271.182 220C271.182 220.416 271.305 220.76 271.55 221.032C271.801 221.299 272.121 221.432 272.51 221.432C272.745 221.432 272.993 221.376 273.254 221.264C273.515 221.147 273.758 220.992 273.982 220.8L273.998 220.808ZM275.838 222H275.118V216.192L275.838 215.928V222ZM280.715 222H279.987V221.248C279.757 221.541 279.531 221.755 279.307 221.888C279.083 222.016 278.835 222.08 278.563 222.08C278.141 222.08 277.8 221.939 277.539 221.656C277.283 221.373 277.155 220.995 277.155 220.52V218H277.883V220.448C277.883 220.757 277.96 221 278.115 221.176C278.275 221.347 278.493 221.432 278.771 221.432C278.973 221.432 279.165 221.379 279.347 221.272C279.533 221.16 279.747 220.973 279.987 220.712V218H280.715V222ZM285.671 222H284.943V221.424C284.713 221.653 284.489 221.821 284.271 221.928C284.057 222.029 283.82 222.08 283.559 222.08C283.047 222.08 282.615 221.891 282.263 221.512C281.911 221.128 281.735 220.651 281.735 220.08C281.735 219.467 281.932 218.957 282.327 218.552C282.721 218.141 283.196 217.936 283.751 217.936C283.959 217.936 284.159 217.971 284.351 218.04C284.548 218.104 284.745 218.208 284.943 218.352V216.192L285.671 215.928V222ZM283.871 218.576C283.471 218.576 283.137 218.712 282.871 218.984C282.609 219.256 282.479 219.603 282.479 220.024C282.479 220.435 282.599 220.773 282.839 221.04C283.084 221.301 283.388 221.432 283.751 221.432C283.959 221.432 284.156 221.392 284.343 221.312C284.529 221.232 284.729 221.104 284.943 220.928V218.912C284.756 218.795 284.577 218.709 284.407 218.656C284.236 218.603 284.057 218.576 283.871 218.576ZM287.424 216.072C287.562 216.072 287.68 216.12 287.776 216.216C287.872 216.312 287.92 216.429 287.92 216.568C287.92 216.707 287.872 216.824 287.776 216.92C287.68 217.016 287.562 217.064 287.424 217.064C287.285 217.064 287.168 217.016 287.072 216.92C286.976 216.824 286.928 216.707 286.928 216.568C286.928 216.429 286.976 216.312 287.072 216.216C287.168 216.12 287.285 216.072 287.424 216.072ZM287.784 222H287.064V218H287.784V222ZM291.124 218.568C290.916 218.568 290.719 218.624 290.532 218.736C290.351 218.843 290.14 219.027 289.9 219.288V222H289.18V218.096L289.9 217.936V218.752C290.129 218.459 290.356 218.248 290.58 218.12C290.804 217.987 291.052 217.92 291.324 217.92C291.745 217.92 292.084 218.061 292.34 218.344C292.601 218.627 292.732 219.005 292.732 219.48V222H292.012V219.552C292.012 219.243 291.932 219.003 291.772 218.832C291.617 218.656 291.401 218.568 291.124 218.568ZM297.616 218V221.616C297.616 222.224 297.429 222.701 297.056 223.048C296.688 223.395 296.184 223.568 295.544 223.568C295.272 223.568 295.008 223.539 294.752 223.48C294.496 223.421 294.237 223.328 293.976 223.2L293.824 222.392L293.84 222.384C294.16 222.565 294.456 222.696 294.728 222.776C295.005 222.861 295.288 222.904 295.576 222.904C295.971 222.904 296.288 222.787 296.528 222.552C296.768 222.323 296.888 222.011 296.888 221.616V221.256C296.648 221.491 296.413 221.661 296.184 221.768C295.955 221.869 295.709 221.92 295.448 221.92C294.936 221.92 294.512 221.741 294.176 221.384C293.845 221.027 293.68 220.573 293.68 220.024C293.68 219.416 293.891 218.917 294.312 218.528C294.739 218.133 295.261 217.936 295.88 217.936C296.061 217.936 296.24 217.955 296.416 217.992C296.592 218.029 296.781 218.091 296.984 218.176L297.52 218H297.616ZM295.896 218.552C295.475 218.552 295.123 218.688 294.84 218.96C294.563 219.232 294.424 219.573 294.424 219.984C294.424 220.373 294.539 220.688 294.768 220.928C294.997 221.168 295.296 221.288 295.664 221.288C295.867 221.288 296.064 221.248 296.256 221.168C296.453 221.083 296.664 220.947 296.888 220.76V218.776C296.712 218.701 296.544 218.645 296.384 218.608C296.224 218.571 296.061 218.552 295.896 218.552ZM303.928 220.808L303.8 221.64C303.581 221.789 303.354 221.904 303.12 221.984C302.885 222.059 302.648 222.096 302.408 222.096C301.805 222.096 301.314 221.901 300.936 221.512C300.557 221.123 300.368 220.621 300.368 220.008C300.368 219.411 300.568 218.912 300.968 218.512C301.373 218.107 301.882 217.904 302.496 217.904C302.762 217.904 303.005 217.944 303.224 218.024C303.442 218.099 303.648 218.219 303.84 218.384V219.272H303.824C303.584 219.027 303.354 218.848 303.136 218.736C302.922 218.624 302.704 218.568 302.48 218.568C302.09 218.568 301.765 218.707 301.504 218.984C301.242 219.261 301.112 219.6 301.112 220C301.112 220.416 301.234 220.76 301.48 221.032C301.73 221.299 302.05 221.432 302.44 221.432C302.674 221.432 302.922 221.376 303.184 221.264C303.445 221.147 303.688 220.992 303.912 220.8L303.928 220.808ZM308.264 219.568V221.904L307.544 222.064V221.352C307.245 221.592 306.963 221.771 306.696 221.888C306.435 222.005 306.179 222.064 305.928 222.064C305.576 222.064 305.291 221.968 305.072 221.776C304.853 221.579 304.744 221.317 304.744 220.992C304.744 220.533 304.973 220.195 305.432 219.976C305.891 219.752 306.595 219.635 307.544 219.624V219.608C307.544 219.277 307.464 219.027 307.304 218.856C307.149 218.68 306.923 218.592 306.624 218.592C306.4 218.592 306.168 218.64 305.928 218.736C305.693 218.832 305.451 218.976 305.2 219.168L305.184 219.16L305.336 218.352C305.549 218.208 305.771 218.101 306 218.032C306.235 217.963 306.48 217.928 306.736 217.928C307.227 217.928 307.603 218.069 307.864 218.352C308.131 218.635 308.264 219.04 308.264 219.568ZM305.472 220.96C305.472 221.109 305.525 221.229 305.632 221.32C305.739 221.405 305.885 221.448 306.072 221.448C306.259 221.448 306.472 221.403 306.712 221.312C306.952 221.221 307.229 221.08 307.544 220.888V220.088C306.851 220.131 306.331 220.224 305.984 220.368C305.643 220.507 305.472 220.704 305.472 220.96ZM313.475 219.92C313.475 220.533 313.278 221.045 312.883 221.456C312.494 221.861 312.022 222.064 311.467 222.064C311.254 222.064 311.049 222.029 310.851 221.96C310.659 221.891 310.465 221.784 310.267 221.64V223.528H309.547V218.096L310.267 217.936V218.584C310.491 218.349 310.713 218.181 310.931 218.08C311.15 217.973 311.39 217.92 311.651 217.92C312.163 217.92 312.595 218.112 312.947 218.496C313.299 218.875 313.475 219.349 313.475 219.92ZM312.731 219.976C312.731 219.56 312.609 219.221 312.363 218.96C312.123 218.699 311.822 218.568 311.459 218.568C311.251 218.568 311.054 218.608 310.867 218.688C310.681 218.768 310.481 218.896 310.267 219.072V221.08C310.449 221.197 310.625 221.285 310.795 221.344C310.971 221.397 311.155 221.424 311.347 221.424C311.747 221.424 312.078 221.288 312.339 221.016C312.601 220.739 312.731 220.392 312.731 219.976ZM317.076 221.04L316.916 221.808C316.799 221.893 316.66 221.96 316.5 222.008C316.34 222.061 316.175 222.088 316.004 222.088C315.625 222.088 315.327 221.971 315.108 221.736C314.889 221.501 314.78 221.173 314.78 220.752V218.616H314.1V218H314.78V217.104L315.492 216.84V218H317.06V218.616H315.492V220.72C315.492 220.96 315.548 221.141 315.66 221.264C315.772 221.381 315.937 221.44 316.156 221.44C316.305 221.44 316.455 221.408 316.604 221.344C316.753 221.275 316.905 221.171 317.06 221.032L317.076 221.04ZM318.486 216.072C318.625 216.072 318.742 216.12 318.838 216.216C318.934 216.312 318.982 216.429 318.982 216.568C318.982 216.707 318.934 216.824 318.838 216.92C318.742 217.016 318.625 217.064 318.486 217.064C318.348 217.064 318.23 217.016 318.134 216.92C318.038 216.824 317.99 216.707 317.99 216.568C317.99 216.429 318.038 216.312 318.134 216.216C318.23 216.12 318.348 216.072 318.486 216.072ZM318.846 222H318.126V218H318.846V222ZM322.011 222.112C321.397 222.112 320.893 221.909 320.499 221.504C320.104 221.093 319.907 220.595 319.907 220.008C319.907 219.427 320.109 218.928 320.515 218.512C320.92 218.096 321.424 217.888 322.027 217.888C322.645 217.888 323.149 218.091 323.539 218.496C323.933 218.896 324.131 219.392 324.131 219.984C324.131 220.571 323.928 221.072 323.523 221.488C323.123 221.904 322.619 222.112 322.011 222.112ZM323.395 219.984C323.395 219.568 323.264 219.224 323.003 218.952C322.747 218.675 322.421 218.536 322.027 218.536C321.627 218.536 321.296 218.677 321.035 218.96C320.779 219.237 320.651 219.587 320.651 220.008C320.651 220.424 320.779 220.771 321.035 221.048C321.296 221.325 321.621 221.464 322.011 221.464C322.411 221.464 322.741 221.323 323.003 221.04C323.264 220.757 323.395 220.405 323.395 219.984ZM327.101 218.568C326.893 218.568 326.695 218.624 326.509 218.736C326.327 218.843 326.117 219.027 325.877 219.288V222H325.157V218.096L325.877 217.936V218.752C326.106 218.459 326.333 218.248 326.557 218.12C326.781 217.987 327.029 217.92 327.301 217.92C327.722 217.92 328.061 218.061 328.317 218.344C328.578 218.627 328.709 219.005 328.709 219.48V222H327.989V219.552C327.989 219.243 327.909 219.003 327.749 218.832C327.594 218.656 327.378 218.568 327.101 218.568ZM331.553 219.664C332.081 219.787 332.446 219.941 332.649 220.128C332.857 220.315 332.961 220.571 332.961 220.896C332.961 221.243 332.809 221.528 332.505 221.752C332.206 221.976 331.822 222.088 331.353 222.088C331.07 222.088 330.801 222.048 330.545 221.968C330.289 221.888 330.035 221.765 329.785 221.6L329.633 220.728L329.649 220.72C329.947 220.955 330.249 221.133 330.553 221.256C330.857 221.379 331.15 221.44 331.433 221.44C331.673 221.44 331.87 221.395 332.025 221.304C332.185 221.208 332.265 221.085 332.265 220.936C332.265 220.776 332.19 220.651 332.041 220.56C331.897 220.469 331.609 220.373 331.177 220.272C330.659 220.149 330.299 219.997 330.097 219.816C329.894 219.635 329.793 219.397 329.793 219.104C329.793 218.752 329.937 218.467 330.225 218.248C330.518 218.024 330.894 217.912 331.353 217.912C331.577 217.912 331.801 217.944 332.025 218.008C332.249 218.072 332.462 218.163 332.665 218.28V219.048H332.649C332.398 218.888 332.155 218.768 331.921 218.688C331.691 218.603 331.475 218.56 331.273 218.56C331.033 218.56 330.841 218.603 330.697 218.688C330.558 218.773 330.489 218.885 330.489 219.024C330.489 219.173 330.561 219.293 330.705 219.384C330.849 219.469 331.131 219.563 331.553 219.664ZM333.456 223.336L333.24 223.152C333.496 222.811 333.664 222.523 333.744 222.288C333.824 222.053 333.864 221.749 333.864 221.376V221.112H334.608C334.608 221.571 334.536 221.952 334.392 222.256C334.248 222.565 333.936 222.925 333.456 223.336ZM340.639 219.568V221.904L339.919 222.064V221.352C339.62 221.592 339.338 221.771 339.071 221.888C338.81 222.005 338.554 222.064 338.303 222.064C337.951 222.064 337.666 221.968 337.447 221.776C337.228 221.579 337.119 221.317 337.119 220.992C337.119 220.533 337.348 220.195 337.807 219.976C338.266 219.752 338.97 219.635 339.919 219.624V219.608C339.919 219.277 339.839 219.027 339.679 218.856C339.524 218.68 339.298 218.592 338.999 218.592C338.775 218.592 338.543 218.64 338.303 218.736C338.068 218.832 337.826 218.976 337.575 219.168L337.559 219.16L337.711 218.352C337.924 218.208 338.146 218.101 338.375 218.032C338.61 217.963 338.855 217.928 339.111 217.928C339.602 217.928 339.978 218.069 340.239 218.352C340.506 218.635 340.639 219.04 340.639 219.568ZM337.847 220.96C337.847 221.109 337.9 221.229 338.007 221.32C338.114 221.405 338.26 221.448 338.447 221.448C338.634 221.448 338.847 221.403 339.087 221.312C339.327 221.221 339.604 221.08 339.919 220.888V220.088C339.226 220.131 338.706 220.224 338.359 220.368C338.018 220.507 337.847 220.704 337.847 220.96ZM343.49 219.664C344.018 219.787 344.384 219.941 344.586 220.128C344.794 220.315 344.898 220.571 344.898 220.896C344.898 221.243 344.746 221.528 344.442 221.752C344.144 221.976 343.76 222.088 343.29 222.088C343.008 222.088 342.738 222.048 342.482 221.968C342.226 221.888 341.973 221.765 341.722 221.6L341.57 220.728L341.586 220.72C341.885 220.955 342.186 221.133 342.49 221.256C342.794 221.379 343.088 221.44 343.37 221.44C343.61 221.44 343.808 221.395 343.962 221.304C344.122 221.208 344.202 221.085 344.202 220.936C344.202 220.776 344.128 220.651 343.978 220.56C343.834 220.469 343.546 220.373 343.114 220.272C342.597 220.149 342.237 219.997 342.034 219.816C341.832 219.635 341.73 219.397 341.73 219.104C341.73 218.752 341.874 218.467 342.162 218.248C342.456 218.024 342.832 217.912 343.29 217.912C343.514 217.912 343.738 217.944 343.962 218.008C344.186 218.072 344.4 218.163 344.602 218.28V219.048H344.586C344.336 218.888 344.093 218.768 343.858 218.688C343.629 218.603 343.413 218.56 343.21 218.56C342.97 218.56 342.778 218.603 342.634 218.688C342.496 218.773 342.426 218.885 342.426 219.024C342.426 219.173 342.498 219.293 342.642 219.384C342.786 219.469 343.069 219.563 343.49 219.664ZM353.096 218H353.832L352.264 222.056H351.664L350.504 219.4L349.272 222.056H348.664L347.208 218H347.984L349.016 221.096L350.472 217.952H350.608L351.96 221.096L353.096 218ZM357.953 220.944L357.689 221.736C357.454 221.864 357.236 221.955 357.033 222.008C356.83 222.061 356.609 222.088 356.369 222.088C355.734 222.088 355.23 221.899 354.857 221.52C354.484 221.141 354.297 220.635 354.297 220C354.297 219.413 354.484 218.915 354.857 218.504C355.23 218.093 355.694 217.888 356.249 217.888C356.804 217.888 357.246 218.083 357.577 218.472C357.908 218.856 358.073 219.352 358.073 219.96C358.073 220.013 358.07 220.072 358.065 220.136C358.06 220.2 358.054 220.248 358.049 220.28H355.041C355.094 220.643 355.244 220.925 355.489 221.128C355.74 221.331 356.06 221.432 356.449 221.432C356.684 221.432 356.929 221.389 357.185 221.304C357.446 221.213 357.697 221.091 357.937 220.936L357.953 220.944ZM356.225 218.52C355.9 218.52 355.625 218.635 355.401 218.864C355.182 219.093 355.057 219.387 355.025 219.744H357.345C357.313 219.36 357.198 219.061 357.001 218.848C356.804 218.629 356.545 218.52 356.225 218.52ZM359.862 222H359.142V216.192L359.862 215.928V222ZM362.018 222H361.298V216.192L362.018 215.928V222ZM363.558 222.072C363.409 222.072 363.281 222.019 363.174 221.912C363.068 221.805 363.014 221.677 363.014 221.528C363.014 221.379 363.068 221.251 363.174 221.144C363.281 221.037 363.409 220.984 363.558 220.984C363.708 220.984 363.833 221.037 363.934 221.144C364.041 221.251 364.094 221.379 364.094 221.528C364.094 221.677 364.041 221.805 363.934 221.912C363.833 222.019 363.708 222.072 363.558 222.072Z" fill="black"/>
<path d="M207.506 173.05L207.484 173.039V171.961L210.322 170.157L210.509 170.212V178H209.486V171.785L207.506 173.05Z" fill="black"/>
<path d="M233.72 174.064C234.109 174.176 234.411 174.36 234.624 174.616C234.837 174.872 234.944 175.168 234.944 175.504C234.944 175.957 234.763 176.336 234.4 176.64C234.043 176.939 233.605 177.088 233.088 177.088C232.805 177.088 232.552 177.059 232.328 177C232.109 176.936 231.848 176.811 231.544 176.624L231.408 175.752L231.424 175.744C231.76 175.989 232.051 176.163 232.296 176.264C232.541 176.36 232.797 176.408 233.064 176.408C233.384 176.408 233.648 176.323 233.856 176.152C234.069 175.981 234.176 175.763 234.176 175.496C234.176 175.176 234.027 174.923 233.728 174.736C233.435 174.544 232.971 174.403 232.336 174.312V174.024C232.955 173.827 233.395 173.632 233.656 173.44C233.917 173.248 234.048 173.019 234.048 172.752C234.048 172.523 233.965 172.339 233.8 172.2C233.64 172.061 233.427 171.992 233.16 171.992C232.931 171.992 232.693 172.045 232.448 172.152C232.203 172.253 231.923 172.421 231.608 172.656H231.592V171.832C231.912 171.629 232.192 171.493 232.432 171.424C232.672 171.349 232.931 171.312 233.208 171.312C233.699 171.312 234.088 171.435 234.376 171.68C234.664 171.925 234.808 172.256 234.808 172.672C234.808 172.96 234.715 173.221 234.528 173.456C234.347 173.691 234.077 173.893 233.72 174.064Z" fill="#6B6969"/>
<path d="M257.304 173.48C257.864 173.48 258.315 173.64 258.656 173.96C259.003 174.275 259.176 174.696 259.176 175.224C259.176 175.768 258.987 176.216 258.608 176.568C258.235 176.92 257.747 177.096 257.144 177.096C256.867 177.096 256.6 177.067 256.344 177.008C256.093 176.949 255.856 176.861 255.632 176.744L255.512 175.952L255.528 175.944C255.816 176.109 256.091 176.232 256.352 176.312C256.613 176.392 256.867 176.432 257.112 176.432C257.491 176.432 257.8 176.323 258.04 176.104C258.285 175.88 258.408 175.597 258.408 175.256C258.408 174.915 258.296 174.648 258.072 174.456C257.848 174.259 257.539 174.16 257.144 174.16C256.936 174.16 256.715 174.187 256.48 174.24C256.245 174.288 256.027 174.357 255.824 174.448L255.704 174.392L255.912 171.4H258.912V172.08H256.56L256.448 173.616C256.603 173.568 256.747 173.533 256.88 173.512C257.019 173.491 257.16 173.48 257.304 173.48Z" fill="#6B6969"/>
<path d="M283.32 171.4L283.392 171.512L280.736 177H279.928L282.384 172.064H279.544L279.4 171.4H283.32Z" fill="#6B6969"/>
<path d="M220.624 176.336H223.264L222.888 177H219.456L219.392 176.856L221.36 174.464C221.68 174.08 221.891 173.781 221.992 173.568C222.099 173.355 222.152 173.136 222.152 172.912C222.152 172.651 222.067 172.435 221.896 172.264C221.725 172.088 221.507 172 221.24 172C220.963 172 220.693 172.091 220.432 172.272C220.171 172.453 219.904 172.736 219.632 173.12L219.616 173.112L219.496 172.28C219.747 171.96 220.019 171.72 220.312 171.56C220.611 171.4 220.936 171.32 221.288 171.32C221.768 171.32 222.155 171.461 222.448 171.744C222.741 172.021 222.888 172.389 222.888 172.848C222.888 173.147 222.824 173.432 222.696 173.704C222.568 173.971 222.328 174.315 221.976 174.736L220.624 176.336Z" fill="#6B6969"/>
<path d="M247.696 175.088V175.696H246.784V177H246.08V175.696H243.224L243.192 175.52L246.032 171.36H246.088H246.784V175.088H247.696ZM246.096 172.296L244.208 175.088H246.096V172.296Z" fill="#6B6969"/>
<path d="M269.712 173.424C270.187 173.424 270.587 173.589 270.912 173.92C271.237 174.245 271.4 174.664 271.4 175.176C271.4 175.72 271.205 176.179 270.816 176.552C270.432 176.925 269.955 177.112 269.384 177.112C268.797 177.112 268.331 176.933 267.984 176.576C267.637 176.213 267.464 175.728 267.464 175.12C267.464 174.747 267.544 174.376 267.704 174.008C267.869 173.64 268.165 173.163 268.592 172.576L269.448 171.4H270.32L269.264 172.824C269.147 172.984 269.045 173.128 268.96 173.256C268.875 173.379 268.8 173.493 268.736 173.6C268.907 173.536 269.067 173.491 269.216 173.464C269.371 173.437 269.536 173.424 269.712 173.424ZM268.432 174.16C268.352 174.325 268.293 174.485 268.256 174.64C268.224 174.789 268.208 174.944 268.208 175.104C268.208 175.515 268.317 175.843 268.536 176.088C268.755 176.333 269.043 176.456 269.4 176.456C269.768 176.456 270.069 176.339 270.304 176.104C270.539 175.869 270.656 175.573 270.656 175.216C270.656 174.837 270.541 174.549 270.312 174.352C270.083 174.149 269.757 174.048 269.336 174.048C269.192 174.048 269.048 174.059 268.904 174.08C268.76 174.096 268.603 174.123 268.432 174.16Z" fill="#6B6969"/>
<path d="M294.456 174.144C294.76 174.283 294.997 174.472 295.168 174.712C295.339 174.952 295.424 175.221 295.424 175.52C295.424 175.973 295.235 176.349 294.856 176.648C294.483 176.947 294.011 177.096 293.44 177.096C292.869 177.096 292.397 176.947 292.024 176.648C291.656 176.349 291.472 175.973 291.472 175.52C291.472 175.221 291.557 174.955 291.728 174.72C291.899 174.48 292.136 174.291 292.44 174.152C292.184 174.013 291.984 173.832 291.84 173.608C291.701 173.379 291.632 173.128 291.632 172.856C291.632 172.413 291.805 172.045 292.152 171.752C292.499 171.453 292.933 171.304 293.456 171.304C293.979 171.304 294.411 171.453 294.752 171.752C295.093 172.045 295.264 172.413 295.264 172.856C295.264 173.128 295.192 173.379 295.048 173.608C294.909 173.832 294.712 174.011 294.456 174.144ZM293.44 171.952C293.12 171.952 292.861 172.04 292.664 172.216C292.467 172.387 292.368 172.608 292.368 172.88C292.368 173.152 292.472 173.381 292.68 173.568C292.888 173.755 293.147 173.848 293.456 173.848C293.76 173.848 294.013 173.755 294.216 173.568C294.424 173.381 294.528 173.152 294.528 172.88C294.528 172.613 294.427 172.392 294.224 172.216C294.021 172.04 293.76 171.952 293.44 171.952ZM293.44 174.472C293.099 174.472 292.805 174.568 292.56 174.76C292.32 174.947 292.2 175.179 292.2 175.456C292.2 175.749 292.317 175.989 292.552 176.176C292.792 176.357 293.093 176.448 293.456 176.448C293.819 176.448 294.115 176.357 294.344 176.176C294.579 175.989 294.696 175.749 294.696 175.456C294.696 175.179 294.571 174.947 294.32 174.76C294.075 174.568 293.781 174.472 293.44 174.472Z" fill="#6B6969"/>
</svg>
