<svg width="501" height="261" viewBox="0 0 501 261" fill="none" xmlns="http://www.w3.org/2000/svg">
<rect width="501" height="261" fill="white"/>
<rect x="76" y="210" width="353" height="15" rx="5" fill="#E3E3E3"/>
<rect x="76" y="185" width="353" height="15" rx="5" fill="#E3E3E3"/>
<rect x="76" y="36" width="353" height="15" rx="5" fill="#E3E3E3"/>
<rect x="76" y="61" width="353" height="15" rx="5" fill="#E3E3E3"/>
<rect x="41" y="90" width="420" height="78" fill="#376C74"/>
<path d="M86 102C80.4766 102 76 106.7 76 112.5C76 118.3 80.4766 123 86 123C91.5234 123 96 118.3 96 112.5C96 106.7 91.5234 102 86 102ZM86 121.031C81.5195 121.031 77.875 117.204 77.875 112.5C77.875 107.796 81.5195 103.969 86 103.969C90.4805 103.969 94.125 107.796 94.125 112.5C94.125 117.204 90.4805 121.031 86 121.031ZM87.5625 115.781H86.9375V112.172C86.9375 111.63 86.5195 111.188 86 111.188H84.75C84.2344 111.188 83.8125 111.63 83.8125 112.172C83.8125 112.713 84.2344 113.156 84.75 113.156H85.0625V115.781H84.4375C83.9219 115.781 83.5 116.224 83.5 116.766C83.5 117.307 83.9219 117.75 84.4375 117.75H87.5625C88.0801 117.75 88.5 117.309 88.5 116.766C88.5 116.222 88.082 115.781 87.5625 115.781ZM86 109.875C86.6902 109.875 87.25 109.287 87.25 108.562C87.25 107.838 86.6902 107.25 86 107.25C85.3098 107.25 84.75 107.837 84.75 108.562C84.75 109.288 85.3086 109.875 86 109.875Z" fill="white"/>
<path d="M107.6 119.504V120H102.352V119.504C103.072 119.472 103.744 119.264 103.888 118.944V110.896C103.744 110.576 103.072 110.352 102.352 110.32V109.84H107.6V110.32C106.88 110.352 106.208 110.576 106.064 110.896V118.944C106.208 119.264 106.88 119.472 107.6 119.504ZM116.581 119.472V120H112.581V119.504C113.077 119.424 113.221 119.296 113.333 119.024V115.696C113.333 114.832 112.901 114.096 112.293 114.096C111.989 114.096 111.477 114.16 111.141 114.416V119.04C111.285 119.36 111.557 119.472 111.941 119.52V120H108.229V119.52C108.837 119.472 109.045 119.312 109.173 119.04V114.88C109.173 114.56 108.917 114.208 108.197 114.016V113.584L110.869 112.832H111.141V113.968C111.813 113.44 112.981 112.848 113.541 112.848C114.901 112.848 115.349 113.728 115.349 115.024V119.136C115.621 119.376 116.149 119.424 116.581 119.472ZM121.634 115.36V117.024H117.122V115.36H121.634ZM130.748 116.8V120H122.252V119.504C122.892 119.472 123.788 119.296 123.996 118.768V110.88C123.868 110.56 123.26 110.352 122.556 110.32V109.84H127.788V110.32C127.084 110.352 126.316 110.576 126.172 110.896V119.184L128.46 119.104C129.532 119.072 130.252 118.144 130.284 116.8H130.748ZM134.426 110.144C134.426 110.688 133.914 111.296 133.21 111.296C132.474 111.296 131.994 110.688 131.994 110.144C131.994 109.584 132.506 108.96 133.226 108.96C133.93 108.96 134.426 109.584 134.426 110.144ZM135.226 119.504V120H131.354V119.504C132.074 119.408 132.154 119.296 132.314 119.024L132.33 114.832C132.33 114.464 132.122 114.192 131.338 113.984V113.568L133.994 112.816H134.282V119.024C134.442 119.344 134.554 119.424 135.226 119.504ZM144.3 119.472V120H140.3V119.504C140.796 119.424 140.94 119.296 141.052 119.024V115.696C141.052 114.832 140.62 114.096 140.012 114.096C139.708 114.096 139.196 114.16 138.86 114.416V119.04C139.004 119.36 139.276 119.472 139.66 119.52V120H135.948V119.52C136.556 119.472 136.764 119.312 136.892 119.04V114.88C136.892 114.56 136.636 114.208 135.916 114.016V113.584L138.588 112.832H138.86V113.968C139.532 113.44 140.7 112.848 141.26 112.848C142.62 112.848 143.068 113.728 143.068 115.024V119.136C143.34 119.376 143.868 119.424 144.3 119.472ZM150.729 118.208L151.049 118.704C150.025 119.6 149.193 120.128 147.801 120.128C146.041 120.128 144.697 118.768 144.697 116.832C144.697 114.48 146.153 112.864 148.265 112.864C149.993 112.864 150.809 113.776 150.809 115.376V115.76L146.745 115.744C146.729 115.856 146.713 116.192 146.713 116.368C146.713 117.872 147.769 118.848 148.985 118.848C149.721 118.848 150.185 118.672 150.729 118.208ZM146.777 115.184L148.809 115.152C148.809 114.176 148.505 113.472 147.897 113.472C147.241 113.472 146.873 114.08 146.777 115.184ZM169.083 119.504V120H163.899V119.504C164.603 119.472 165.339 119.264 165.467 118.944L165.179 113.152L165.259 111.824L164.955 112.768L161.819 120.016H161.179L158.267 112.784L157.931 111.68L157.947 112.656L157.515 118.752C157.627 119.072 158.363 119.472 159.067 119.504V120H154.987V119.504C155.691 119.472 156.299 119.072 156.491 118.752L156.923 113.12C156.955 112.608 157.051 111.504 157.051 111.424C157.051 111.216 157.051 111.04 157.035 110.88C156.875 110.624 156.395 110.352 155.691 110.32V109.84H159.339L159.851 111.36L162.171 117.12L164.539 111.504L165.179 109.84H168.507V110.32C167.803 110.352 167.323 110.592 167.163 110.848C167.163 110.976 167.163 111.104 167.163 111.264C167.163 111.424 167.243 112.656 167.275 113.12L167.595 118.944C167.787 119.264 168.379 119.472 169.083 119.504ZM175.541 118.208L175.861 118.704C174.837 119.6 174.005 120.128 172.613 120.128C170.853 120.128 169.509 118.768 169.509 116.832C169.509 114.48 170.965 112.864 173.077 112.864C174.805 112.864 175.621 113.776 175.621 115.376V115.76L171.557 115.744C171.541 115.856 171.525 116.192 171.525 116.368C171.525 117.872 172.581 118.848 173.797 118.848C174.533 118.848 174.997 118.672 175.541 118.208ZM171.589 115.184L173.621 115.152C173.621 114.176 173.317 113.472 172.709 113.472C172.053 113.472 171.685 114.08 171.589 115.184ZM181.936 117.936C181.936 119.168 180.768 120.144 179.232 120.144C177.904 120.144 177.072 119.856 176.624 119.664L176.432 117.76H176.944C177.424 118.688 178.224 119.488 178.464 119.488C179.632 119.488 180.032 119.008 180.032 118.464C180.032 117.824 179.392 117.536 178.56 117.216C177.28 116.736 176.64 116.144 176.64 114.976C176.64 113.792 177.92 112.864 179.488 112.864C180.448 112.864 181.232 113.104 181.696 113.296L181.776 115.152H181.312C180.848 114.224 180.208 113.488 179.92 113.488C178.832 113.488 178.528 114.016 178.528 114.416C178.528 115.04 178.912 115.328 180.016 115.76C181.232 116.24 181.936 116.832 181.936 117.936ZM188.171 117.936C188.171 119.168 187.003 120.144 185.467 120.144C184.139 120.144 183.307 119.856 182.859 119.664L182.667 117.76H183.179C183.659 118.688 184.459 119.488 184.699 119.488C185.867 119.488 186.267 119.008 186.267 118.464C186.267 117.824 185.627 117.536 184.795 117.216C183.515 116.736 182.875 116.144 182.875 114.976C182.875 113.792 184.155 112.864 185.723 112.864C186.683 112.864 187.467 113.104 187.931 113.296L188.011 115.152H187.547C187.083 114.224 186.443 113.488 186.155 113.488C185.067 113.488 184.763 114.016 184.763 114.416C184.763 115.04 185.147 115.328 186.251 115.76C187.467 116.24 188.171 116.832 188.171 117.936ZM196.16 118.704V119.28C195.776 119.68 194.752 120.144 193.872 120.144C193.008 120.144 192.688 119.488 192.672 119.12C192.128 119.696 191.264 120.144 190.688 120.144C189.936 120.144 189.136 119.536 189.136 118.608C189.136 118.176 189.216 117.552 189.456 117.184L192.672 116.016L192.688 114.992C192.704 114.256 192.32 113.584 191.84 113.584C191.552 113.584 191.328 114.064 191.296 114.928L189.296 115.168V114.864C189.808 113.52 191.728 112.848 192.528 112.848C194.144 112.848 194.72 113.616 194.704 114.848L194.64 118.24C194.624 118.896 194.944 119.056 195.264 119.056C195.616 119.056 195.792 118.96 196.16 118.704ZM192.656 118.704L192.672 116.528C192.368 116.704 191.648 117.056 191.344 117.28C191.312 117.488 191.232 117.808 191.232 118.128C191.232 118.592 191.44 118.976 191.744 118.976C192.128 118.976 192.384 118.912 192.656 118.704ZM204.304 113.392V114.272L202.4 114.224C202.56 114.464 202.752 114.912 202.752 115.28C202.752 116.88 201.376 117.728 199.568 117.728C199.408 117.728 199.104 117.696 198.96 117.648C198.784 117.808 198.592 118.032 198.608 118.32C198.624 118.768 199.248 118.928 199.984 118.944C200.432 118.96 201.008 118.96 201.984 119.04C203.216 119.152 203.984 119.904 203.984 120.944C203.984 121.728 203.6 122.352 202.8 122.976C201.808 123.776 200.672 124.128 199.648 124.128C197.808 124.128 196.528 123.456 196.528 122.304C196.528 121.376 197.792 120.928 198.64 120.608V120.56C198.144 120.416 196.784 119.968 196.784 118.8V118.544C197.168 118.24 197.824 117.872 198.48 117.552C197.424 117.152 196.672 116.512 196.672 115.36C196.672 113.84 198.144 112.848 199.856 112.848C200.752 112.848 201.488 113.088 202.128 113.392H204.304ZM200.704 115.424C200.704 114.336 200.352 113.44 199.648 113.44C199.12 113.44 198.704 114.08 198.704 115.168C198.704 116.32 199.216 117.136 199.76 117.136C200.32 117.136 200.704 116.432 200.704 115.424ZM202.272 121.808C202.272 121.184 201.92 120.864 201.456 120.784C200.864 120.688 200.464 120.672 199.456 120.656C199.104 120.848 198.592 121.312 198.528 122.032C198.624 122.8 199.36 123.232 200.448 123.232C201.168 123.232 201.728 123.024 202.016 122.64C202.176 122.432 202.272 122.08 202.272 121.808ZM210.588 118.208L210.908 118.704C209.884 119.6 209.052 120.128 207.66 120.128C205.9 120.128 204.556 118.768 204.556 116.832C204.556 114.48 206.012 112.864 208.124 112.864C209.852 112.864 210.668 113.776 210.668 115.376V115.76L206.604 115.744C206.588 115.856 206.572 116.192 206.572 116.368C206.572 117.872 207.628 118.848 208.844 118.848C209.58 118.848 210.044 118.672 210.588 118.208ZM206.636 115.184L208.668 115.152C208.668 114.176 208.364 113.472 207.756 113.472C207.1 113.472 206.732 114.08 206.636 115.184Z" fill="white"/>
<path d="M103.032 138H102.232L104.84 132.368H105.552L108.064 138H107.232L106.608 136.56H103.68L103.032 138ZM105.168 133.248L103.984 135.88H106.312L105.168 133.248ZM112.601 138H111.873V137.424C111.643 137.653 111.419 137.821 111.201 137.928C110.987 138.029 110.75 138.08 110.489 138.08C109.977 138.08 109.545 137.891 109.193 137.512C108.841 137.128 108.665 136.651 108.665 136.08C108.665 135.467 108.862 134.957 109.257 134.552C109.651 134.141 110.126 133.936 110.681 133.936C110.889 133.936 111.089 133.971 111.281 134.04C111.478 134.104 111.675 134.208 111.873 134.352V132.192L112.601 131.928V138ZM110.801 134.576C110.401 134.576 110.067 134.712 109.801 134.984C109.539 135.256 109.409 135.603 109.409 136.024C109.409 136.435 109.529 136.773 109.769 137.04C110.014 137.301 110.318 137.432 110.681 137.432C110.889 137.432 111.086 137.392 111.273 137.312C111.459 137.232 111.659 137.104 111.873 136.928V134.912C111.686 134.795 111.507 134.709 111.337 134.656C111.166 134.603 110.987 134.576 110.801 134.576ZM117.561 138H116.833V137.424C116.604 137.653 116.38 137.821 116.161 137.928C115.948 138.029 115.711 138.08 115.449 138.08C114.937 138.08 114.505 137.891 114.153 137.512C113.801 137.128 113.625 136.651 113.625 136.08C113.625 135.467 113.823 134.957 114.217 134.552C114.612 134.141 115.087 133.936 115.641 133.936C115.849 133.936 116.049 133.971 116.241 134.04C116.439 134.104 116.636 134.208 116.833 134.352V132.192L117.561 131.928V138ZM115.761 134.576C115.361 134.576 115.028 134.712 114.761 134.984C114.5 135.256 114.369 135.603 114.369 136.024C114.369 136.435 114.489 136.773 114.729 137.04C114.975 137.301 115.279 137.432 115.641 137.432C115.849 137.432 116.047 137.392 116.233 137.312C116.42 137.232 116.62 137.104 116.833 136.928V134.912C116.647 134.795 116.468 134.709 116.297 134.656C116.127 134.603 115.948 134.576 115.761 134.576ZM123.897 135.568V137.904L123.177 138.064V137.352C122.878 137.592 122.596 137.771 122.329 137.888C122.068 138.005 121.812 138.064 121.561 138.064C121.209 138.064 120.924 137.968 120.705 137.776C120.486 137.579 120.377 137.317 120.377 136.992C120.377 136.533 120.606 136.195 121.065 135.976C121.524 135.752 122.228 135.635 123.177 135.624V135.608C123.177 135.277 123.097 135.027 122.937 134.856C122.782 134.68 122.556 134.592 122.257 134.592C122.033 134.592 121.801 134.64 121.561 134.736C121.326 134.832 121.084 134.976 120.833 135.168L120.817 135.16L120.969 134.352C121.182 134.208 121.404 134.101 121.633 134.032C121.868 133.963 122.113 133.928 122.369 133.928C122.86 133.928 123.236 134.069 123.497 134.352C123.764 134.635 123.897 135.04 123.897 135.568ZM121.105 136.96C121.105 137.109 121.158 137.229 121.265 137.32C121.372 137.405 121.518 137.448 121.705 137.448C121.892 137.448 122.105 137.403 122.345 137.312C122.585 137.221 122.862 137.08 123.177 136.888V136.088C122.484 136.131 121.964 136.224 121.617 136.368C121.276 136.507 121.105 136.704 121.105 136.96ZM128.851 134.568C128.643 134.568 128.445 134.624 128.259 134.736C128.077 134.843 127.867 135.027 127.627 135.288V138H126.907V134.096L127.627 133.936V134.752C127.856 134.459 128.083 134.248 128.307 134.12C128.531 133.987 128.779 133.92 129.051 133.92C129.472 133.92 129.811 134.061 130.067 134.344C130.328 134.627 130.459 135.005 130.459 135.48V138H129.739V135.552C129.739 135.243 129.659 135.003 129.499 134.832C129.344 134.656 129.128 134.568 128.851 134.568ZM133.503 138.112C132.889 138.112 132.385 137.909 131.991 137.504C131.596 137.093 131.399 136.595 131.399 136.008C131.399 135.427 131.601 134.928 132.007 134.512C132.412 134.096 132.916 133.888 133.519 133.888C134.137 133.888 134.641 134.091 135.031 134.496C135.425 134.896 135.623 135.392 135.623 135.984C135.623 136.571 135.42 137.072 135.015 137.488C134.615 137.904 134.111 138.112 133.503 138.112ZM134.887 135.984C134.887 135.568 134.756 135.224 134.495 134.952C134.239 134.675 133.913 134.536 133.519 134.536C133.119 134.536 132.788 134.677 132.527 134.96C132.271 135.237 132.143 135.587 132.143 136.008C132.143 136.424 132.271 136.771 132.527 137.048C132.788 137.325 133.113 137.464 133.503 137.464C133.903 137.464 134.233 137.323 134.495 137.04C134.756 136.757 134.887 136.405 134.887 135.984ZM138.593 134.568C138.385 134.568 138.187 134.624 138.001 134.736C137.819 134.843 137.609 135.027 137.369 135.288V138H136.649V134.096L137.369 133.936V134.752C137.598 134.459 137.825 134.248 138.049 134.12C138.273 133.987 138.521 133.92 138.793 133.92C139.214 133.92 139.553 134.061 139.809 134.344C140.07 134.627 140.201 135.005 140.201 135.48V138H139.481V135.552C139.481 135.243 139.401 135.003 139.241 134.832C139.086 134.656 138.87 134.568 138.593 134.568ZM141.309 136.144V135.464H143.397V136.144H141.309ZM148.194 138H147.466V137.424C147.237 137.653 147.013 137.821 146.794 137.928C146.581 138.029 146.344 138.08 146.082 138.08C145.57 138.08 145.138 137.891 144.786 137.512C144.434 137.128 144.258 136.651 144.258 136.08C144.258 135.467 144.456 134.957 144.85 134.552C145.245 134.141 145.72 133.936 146.274 133.936C146.482 133.936 146.682 133.971 146.874 134.04C147.072 134.104 147.269 134.208 147.466 134.352V132.192L148.194 131.928V138ZM146.394 134.576C145.994 134.576 145.661 134.712 145.394 134.984C145.133 135.256 145.002 135.603 145.002 136.024C145.002 136.435 145.122 136.773 145.362 137.04C145.608 137.301 145.912 137.432 146.274 137.432C146.482 137.432 146.68 137.392 146.866 137.312C147.053 137.232 147.253 137.104 147.466 136.928V134.912C147.28 134.795 147.101 134.709 146.93 134.656C146.76 134.603 146.581 134.576 146.394 134.576ZM149.947 132.072C150.086 132.072 150.203 132.12 150.299 132.216C150.395 132.312 150.443 132.429 150.443 132.568C150.443 132.707 150.395 132.824 150.299 132.92C150.203 133.016 150.086 133.064 149.947 133.064C149.809 133.064 149.691 133.016 149.595 132.92C149.499 132.824 149.451 132.707 149.451 132.568C149.451 132.429 149.499 132.312 149.595 132.216C149.691 132.12 149.809 132.072 149.947 132.072ZM150.307 138H149.587V134H150.307V138ZM153.271 135.664C153.799 135.787 154.165 135.941 154.367 136.128C154.575 136.315 154.679 136.571 154.679 136.896C154.679 137.243 154.527 137.528 154.223 137.752C153.925 137.976 153.541 138.088 153.071 138.088C152.789 138.088 152.519 138.048 152.263 137.968C152.007 137.888 151.754 137.765 151.503 137.6L151.351 136.728L151.367 136.72C151.666 136.955 151.967 137.133 152.271 137.256C152.575 137.379 152.869 137.44 153.151 137.44C153.391 137.44 153.589 137.395 153.743 137.304C153.903 137.208 153.983 137.085 153.983 136.936C153.983 136.776 153.909 136.651 153.759 136.56C153.615 136.469 153.327 136.373 152.895 136.272C152.378 136.149 152.018 135.997 151.815 135.816C151.613 135.635 151.511 135.397 151.511 135.104C151.511 134.752 151.655 134.467 151.943 134.248C152.237 134.024 152.613 133.912 153.071 133.912C153.295 133.912 153.519 133.944 153.743 134.008C153.967 134.072 154.181 134.163 154.383 134.28V135.048H154.367C154.117 134.888 153.874 134.768 153.639 134.688C153.41 134.603 153.194 134.56 152.991 134.56C152.751 134.56 152.559 134.603 152.415 134.688C152.277 134.773 152.207 134.885 152.207 135.024C152.207 135.173 152.279 135.293 152.423 135.384C152.567 135.469 152.85 135.563 153.271 135.664ZM157.575 134.568C157.388 134.568 157.209 134.621 157.039 134.728C156.873 134.829 156.679 135.005 156.455 135.256V138H155.735V134.096L156.455 133.936V134.72C156.668 134.437 156.881 134.235 157.095 134.112C157.308 133.984 157.54 133.92 157.791 133.92C158.084 133.92 158.337 133.997 158.551 134.152C158.769 134.307 158.929 134.525 159.031 134.808C159.265 134.493 159.495 134.267 159.719 134.128C159.943 133.989 160.193 133.92 160.471 133.92C160.876 133.92 161.201 134.061 161.447 134.344C161.697 134.627 161.823 135.005 161.823 135.48V138H161.095V135.552C161.095 135.243 161.02 135.003 160.871 134.832C160.721 134.656 160.516 134.568 160.255 134.568C160.068 134.568 159.887 134.621 159.711 134.728C159.54 134.835 159.345 135.013 159.127 135.264C159.132 135.285 159.135 135.312 159.135 135.344C159.135 135.371 159.135 135.416 159.135 135.48V138H158.415V135.552C158.415 135.243 158.34 135.003 158.191 134.832C158.041 134.656 157.836 134.568 157.575 134.568ZM163.502 132.072C163.641 132.072 163.758 132.12 163.854 132.216C163.95 132.312 163.998 132.429 163.998 132.568C163.998 132.707 163.95 132.824 163.854 132.92C163.758 133.016 163.641 133.064 163.502 133.064C163.363 133.064 163.246 133.016 163.15 132.92C163.054 132.824 163.006 132.707 163.006 132.568C163.006 132.429 163.054 132.312 163.15 132.216C163.246 132.12 163.363 132.072 163.502 132.072ZM163.862 138H163.142V134H163.862V138ZM166.826 135.664C167.354 135.787 167.719 135.941 167.922 136.128C168.13 136.315 168.234 136.571 168.234 136.896C168.234 137.243 168.082 137.528 167.778 137.752C167.479 137.976 167.095 138.088 166.626 138.088C166.343 138.088 166.074 138.048 165.818 137.968C165.562 137.888 165.309 137.765 165.058 137.6L164.906 136.728L164.922 136.72C165.221 136.955 165.522 137.133 165.826 137.256C166.13 137.379 166.423 137.44 166.706 137.44C166.946 137.44 167.143 137.395 167.298 137.304C167.458 137.208 167.538 137.085 167.538 136.936C167.538 136.776 167.463 136.651 167.314 136.56C167.17 136.469 166.882 136.373 166.45 136.272C165.933 136.149 165.573 135.997 165.37 135.816C165.167 135.635 165.066 135.397 165.066 135.104C165.066 134.752 165.21 134.467 165.498 134.248C165.791 134.024 166.167 133.912 166.626 133.912C166.85 133.912 167.074 133.944 167.298 134.008C167.522 134.072 167.735 134.163 167.938 134.28V135.048H167.922C167.671 134.888 167.429 134.768 167.194 134.688C166.965 134.603 166.749 134.56 166.546 134.56C166.306 134.56 166.114 134.603 165.97 134.688C165.831 134.773 165.762 134.885 165.762 135.024C165.762 135.173 165.834 135.293 165.978 135.384C166.122 135.469 166.405 135.563 166.826 135.664ZM170.857 135.664C171.385 135.787 171.751 135.941 171.953 136.128C172.161 136.315 172.265 136.571 172.265 136.896C172.265 137.243 172.113 137.528 171.809 137.752C171.511 137.976 171.127 138.088 170.657 138.088C170.375 138.088 170.105 138.048 169.849 137.968C169.593 137.888 169.34 137.765 169.089 137.6L168.937 136.728L168.953 136.72C169.252 136.955 169.553 137.133 169.857 137.256C170.161 137.379 170.455 137.44 170.737 137.44C170.977 137.44 171.175 137.395 171.329 137.304C171.489 137.208 171.569 137.085 171.569 136.936C171.569 136.776 171.495 136.651 171.345 136.56C171.201 136.469 170.913 136.373 170.481 136.272C169.964 136.149 169.604 135.997 169.401 135.816C169.199 135.635 169.097 135.397 169.097 135.104C169.097 134.752 169.241 134.467 169.529 134.248C169.823 134.024 170.199 133.912 170.657 133.912C170.881 133.912 171.105 133.944 171.329 134.008C171.553 134.072 171.767 134.163 171.969 134.28V135.048H171.953C171.703 134.888 171.46 134.768 171.225 134.688C170.996 134.603 170.78 134.56 170.577 134.56C170.337 134.56 170.145 134.603 170.001 134.688C169.863 134.773 169.793 134.885 169.793 135.024C169.793 135.173 169.865 135.293 170.009 135.384C170.153 135.469 170.436 135.563 170.857 135.664ZM173.721 132.072C173.859 132.072 173.977 132.12 174.073 132.216C174.169 132.312 174.217 132.429 174.217 132.568C174.217 132.707 174.169 132.824 174.073 132.92C173.977 133.016 173.859 133.064 173.721 133.064C173.582 133.064 173.465 133.016 173.369 132.92C173.273 132.824 173.225 132.707 173.225 132.568C173.225 132.429 173.273 132.312 173.369 132.216C173.465 132.12 173.582 132.072 173.721 132.072ZM174.081 138H173.361V134H174.081V138ZM177.605 133.92C178.101 133.92 178.517 134.109 178.853 134.488C179.194 134.861 179.365 135.328 179.365 135.888C179.365 136.523 179.154 137.045 178.733 137.456C178.312 137.861 177.789 138.064 177.165 138.064C176.984 138.064 176.805 138.045 176.629 138.008C176.453 137.971 176.272 137.912 176.085 137.832L175.565 138H175.477V132.192L176.197 131.928V134.584C176.432 134.349 176.661 134.181 176.885 134.08C177.109 133.973 177.349 133.92 177.605 133.92ZM178.629 135.936C178.629 135.531 178.512 135.203 178.277 134.952C178.048 134.696 177.752 134.568 177.389 134.568C177.181 134.568 176.984 134.608 176.797 134.688C176.61 134.768 176.41 134.896 176.197 135.072V137.232C176.357 137.296 176.514 137.344 176.669 137.376C176.824 137.408 176.984 137.424 177.149 137.424C177.576 137.424 177.928 137.283 178.205 137C178.488 136.717 178.629 136.363 178.629 135.936ZM181.167 138H180.447V132.192L181.167 131.928V138ZM185.883 136.944L185.619 137.736C185.384 137.864 185.165 137.955 184.963 138.008C184.76 138.061 184.539 138.088 184.299 138.088C183.664 138.088 183.16 137.899 182.787 137.52C182.413 137.141 182.227 136.635 182.227 136C182.227 135.413 182.413 134.915 182.787 134.504C183.16 134.093 183.624 133.888 184.179 133.888C184.733 133.888 185.176 134.083 185.507 134.472C185.837 134.856 186.003 135.352 186.003 135.96C186.003 136.013 186 136.072 185.995 136.136C185.989 136.2 185.984 136.248 185.979 136.28H182.971C183.024 136.643 183.173 136.925 183.419 137.128C183.669 137.331 183.989 137.432 184.379 137.432C184.613 137.432 184.859 137.389 185.115 137.304C185.376 137.213 185.627 137.091 185.867 136.936L185.883 136.944ZM184.155 134.52C183.829 134.52 183.555 134.635 183.331 134.864C183.112 135.093 182.987 135.387 182.955 135.744H185.275C185.243 135.36 185.128 135.061 184.931 134.848C184.733 134.629 184.475 134.52 184.155 134.52ZM192.014 135.568V137.904L191.294 138.064V137.352C190.995 137.592 190.713 137.771 190.446 137.888C190.185 138.005 189.929 138.064 189.678 138.064C189.326 138.064 189.041 137.968 188.822 137.776C188.603 137.579 188.494 137.317 188.494 136.992C188.494 136.533 188.723 136.195 189.182 135.976C189.641 135.752 190.345 135.635 191.294 135.624V135.608C191.294 135.277 191.214 135.027 191.054 134.856C190.899 134.68 190.673 134.592 190.374 134.592C190.15 134.592 189.918 134.64 189.678 134.736C189.443 134.832 189.201 134.976 188.95 135.168L188.934 135.16L189.086 134.352C189.299 134.208 189.521 134.101 189.75 134.032C189.985 133.963 190.23 133.928 190.486 133.928C190.977 133.928 191.353 134.069 191.614 134.352C191.881 134.635 192.014 135.04 192.014 135.568ZM189.222 136.96C189.222 137.109 189.275 137.229 189.382 137.32C189.489 137.405 189.635 137.448 189.822 137.448C190.009 137.448 190.222 137.403 190.462 137.312C190.702 137.221 190.979 137.08 191.294 136.888V136.088C190.601 136.131 190.081 136.224 189.734 136.368C189.393 136.507 189.222 136.704 189.222 136.96ZM194.057 138H193.337V132.192L194.057 131.928V138ZM198.773 136.944L198.509 137.736C198.275 137.864 198.056 137.955 197.853 138.008C197.651 138.061 197.429 138.088 197.189 138.088C196.555 138.088 196.051 137.899 195.677 137.52C195.304 137.141 195.117 136.635 195.117 136C195.117 135.413 195.304 134.915 195.677 134.504C196.051 134.093 196.515 133.888 197.069 133.888C197.624 133.888 198.067 134.083 198.397 134.472C198.728 134.856 198.893 135.352 198.893 135.96C198.893 136.013 198.891 136.072 198.885 136.136C198.88 136.2 198.875 136.248 198.869 136.28H195.861C195.915 136.643 196.064 136.925 196.309 137.128C196.56 137.331 196.88 137.432 197.269 137.432C197.504 137.432 197.749 137.389 198.005 137.304C198.267 137.213 198.517 137.091 198.757 136.936L198.773 136.944ZM197.045 134.52C196.72 134.52 196.445 134.635 196.221 134.864C196.003 135.093 195.877 135.387 195.845 135.744H198.165C198.133 135.36 198.019 135.061 197.821 134.848C197.624 134.629 197.365 134.52 197.045 134.52ZM202.13 134.704C201.896 134.704 201.664 134.76 201.434 134.872C201.21 134.984 200.946 135.173 200.642 135.44V138H199.922V134.096L200.642 133.936V134.952C200.973 134.541 201.232 134.269 201.418 134.136C201.61 134.003 201.816 133.936 202.034 133.936C202.082 133.936 202.122 133.939 202.154 133.944C202.192 133.949 202.237 133.957 202.29 133.968L202.346 134.728C202.309 134.717 202.272 134.712 202.234 134.712C202.202 134.707 202.168 134.704 202.13 134.704ZM205.811 137.04L205.651 137.808C205.533 137.893 205.395 137.96 205.235 138.008C205.075 138.061 204.909 138.088 204.739 138.088C204.36 138.088 204.061 137.971 203.843 137.736C203.624 137.501 203.515 137.173 203.515 136.752V134.616H202.835V134H203.515V133.104L204.227 132.84V134H205.795V134.616H204.227V136.72C204.227 136.96 204.283 137.141 204.395 137.264C204.507 137.381 204.672 137.44 204.891 137.44C205.04 137.44 205.189 137.408 205.339 137.344C205.488 137.275 205.64 137.171 205.795 137.032L205.811 137.04ZM210.675 133.92C211.171 133.92 211.587 134.109 211.923 134.488C212.265 134.861 212.435 135.328 212.435 135.888C212.435 136.523 212.225 137.045 211.803 137.456C211.382 137.861 210.859 138.064 210.235 138.064C210.054 138.064 209.875 138.045 209.699 138.008C209.523 137.971 209.342 137.912 209.155 137.832L208.635 138H208.547V132.192L209.267 131.928V134.584C209.502 134.349 209.731 134.181 209.955 134.08C210.179 133.973 210.419 133.92 210.675 133.92ZM211.699 135.936C211.699 135.531 211.582 135.203 211.347 134.952C211.118 134.696 210.822 134.568 210.459 134.568C210.251 134.568 210.054 134.608 209.867 134.688C209.681 134.768 209.481 134.896 209.267 135.072V137.232C209.427 137.296 209.585 137.344 209.739 137.376C209.894 137.408 210.054 137.424 210.219 137.424C210.646 137.424 210.998 137.283 211.275 137C211.558 136.717 211.699 136.363 211.699 135.936ZM215.245 138.112C214.632 138.112 214.128 137.909 213.733 137.504C213.338 137.093 213.141 136.595 213.141 136.008C213.141 135.427 213.344 134.928 213.749 134.512C214.154 134.096 214.658 133.888 215.261 133.888C215.88 133.888 216.384 134.091 216.773 134.496C217.168 134.896 217.365 135.392 217.365 135.984C217.365 136.571 217.162 137.072 216.757 137.488C216.357 137.904 215.853 138.112 215.245 138.112ZM216.629 135.984C216.629 135.568 216.498 135.224 216.237 134.952C215.981 134.675 215.656 134.536 215.261 134.536C214.861 134.536 214.53 134.677 214.269 134.96C214.013 135.237 213.885 135.587 213.885 136.008C213.885 136.424 214.013 136.771 214.269 137.048C214.53 137.325 214.856 137.464 215.245 137.464C215.645 137.464 215.976 137.323 216.237 137.04C216.498 136.757 216.629 136.405 216.629 135.984ZM221.787 138H220.939L219.779 136.448L218.603 138H217.779L219.371 135.952L217.867 134H218.723L219.795 135.432L220.875 134H221.699L220.203 135.936L221.787 138ZM224.822 132.072C224.961 132.072 225.078 132.12 225.174 132.216C225.27 132.312 225.318 132.429 225.318 132.568C225.318 132.707 225.27 132.824 225.174 132.92C225.078 133.016 224.961 133.064 224.822 133.064C224.684 133.064 224.566 133.016 224.47 132.92C224.374 132.824 224.326 132.707 224.326 132.568C224.326 132.429 224.374 132.312 224.47 132.216C224.566 132.12 224.684 132.072 224.822 132.072ZM225.182 138H224.462V134H225.182V138ZM228.522 134.568C228.314 134.568 228.117 134.624 227.93 134.736C227.749 134.843 227.538 135.027 227.298 135.288V138H226.578V134.096L227.298 133.936V134.752C227.528 134.459 227.754 134.248 227.978 134.12C228.202 133.987 228.45 133.92 228.722 133.92C229.144 133.92 229.482 134.061 229.738 134.344C230 134.627 230.13 135.005 230.13 135.48V138H229.41V135.552C229.41 135.243 229.33 135.003 229.17 134.832C229.016 134.656 228.8 134.568 228.522 134.568ZM236.669 134L234.813 138.448C234.658 138.821 234.464 139.101 234.229 139.288C233.994 139.475 233.722 139.568 233.413 139.568C233.296 139.568 233.181 139.555 233.069 139.528C232.957 139.507 232.848 139.469 232.741 139.416L232.597 138.68L232.613 138.672C232.741 138.747 232.858 138.8 232.965 138.832C233.072 138.869 233.184 138.888 233.301 138.888C233.493 138.888 233.656 138.832 233.789 138.72C233.928 138.613 234.048 138.443 234.149 138.208L234.333 137.776L232.637 134H233.437L234.701 136.952L235.885 134H236.669ZM239.206 138.112C238.592 138.112 238.088 137.909 237.694 137.504C237.299 137.093 237.102 136.595 237.102 136.008C237.102 135.427 237.304 134.928 237.71 134.512C238.115 134.096 238.619 133.888 239.222 133.888C239.84 133.888 240.344 134.091 240.734 134.496C241.128 134.896 241.326 135.392 241.326 135.984C241.326 136.571 241.123 137.072 240.718 137.488C240.318 137.904 239.814 138.112 239.206 138.112ZM240.59 135.984C240.59 135.568 240.459 135.224 240.198 134.952C239.942 134.675 239.616 134.536 239.222 134.536C238.822 134.536 238.491 134.677 238.23 134.96C237.974 135.237 237.846 135.587 237.846 136.008C237.846 136.424 237.974 136.771 238.23 137.048C238.491 137.325 238.816 137.464 239.206 137.464C239.606 137.464 239.936 137.323 240.198 137.04C240.459 136.757 240.59 136.405 240.59 135.984ZM245.832 138H245.104V137.248C244.875 137.541 244.648 137.755 244.424 137.888C244.2 138.016 243.952 138.08 243.68 138.08C243.259 138.08 242.917 137.939 242.656 137.656C242.4 137.373 242.272 136.995 242.272 136.52V134H243V136.448C243 136.757 243.077 137 243.232 137.176C243.392 137.347 243.611 137.432 243.888 137.432C244.091 137.432 244.283 137.379 244.464 137.272C244.651 137.16 244.864 136.973 245.104 136.712V134H245.832V138ZM249.388 134.704C249.153 134.704 248.921 134.76 248.692 134.872C248.468 134.984 248.204 135.173 247.9 135.44V138H247.18V134.096L247.9 133.936V134.952C248.231 134.541 248.489 134.269 248.676 134.136C248.868 134.003 249.073 133.936 249.292 133.936C249.34 133.936 249.38 133.939 249.412 133.944C249.449 133.949 249.495 133.957 249.548 133.968L249.604 134.728C249.567 134.717 249.529 134.712 249.492 134.712C249.46 134.707 249.425 134.704 249.388 134.704ZM255.459 136.808L255.331 137.64C255.112 137.789 254.886 137.904 254.651 137.984C254.416 138.059 254.179 138.096 253.939 138.096C253.336 138.096 252.846 137.901 252.467 137.512C252.088 137.123 251.899 136.621 251.899 136.008C251.899 135.411 252.099 134.912 252.499 134.512C252.904 134.107 253.414 133.904 254.027 133.904C254.294 133.904 254.536 133.944 254.755 134.024C254.974 134.099 255.179 134.219 255.371 134.384V135.272H255.355C255.115 135.027 254.886 134.848 254.667 134.736C254.454 134.624 254.235 134.568 254.011 134.568C253.622 134.568 253.296 134.707 253.035 134.984C252.774 135.261 252.643 135.6 252.643 136C252.643 136.416 252.766 136.76 253.011 137.032C253.262 137.299 253.582 137.432 253.971 137.432C254.206 137.432 254.454 137.376 254.715 137.264C254.976 137.147 255.219 136.992 255.443 136.8L255.459 136.808ZM258.307 138.112C257.694 138.112 257.19 137.909 256.795 137.504C256.401 137.093 256.203 136.595 256.203 136.008C256.203 135.427 256.406 134.928 256.811 134.512C257.217 134.096 257.721 133.888 258.323 133.888C258.942 133.888 259.446 134.091 259.835 134.496C260.23 134.896 260.427 135.392 260.427 135.984C260.427 136.571 260.225 137.072 259.819 137.488C259.419 137.904 258.915 138.112 258.307 138.112ZM259.691 135.984C259.691 135.568 259.561 135.224 259.299 134.952C259.043 134.675 258.718 134.536 258.323 134.536C257.923 134.536 257.593 134.677 257.331 134.96C257.075 135.237 256.947 135.587 256.947 136.008C256.947 136.424 257.075 136.771 257.331 137.048C257.593 137.325 257.918 137.464 258.307 137.464C258.707 137.464 259.038 137.323 259.299 137.04C259.561 136.757 259.691 136.405 259.691 135.984ZM263.397 134.568C263.189 134.568 262.992 134.624 262.805 134.736C262.624 134.843 262.413 135.027 262.173 135.288V138H261.453V134.096L262.173 133.936V134.752C262.403 134.459 262.629 134.248 262.853 134.12C263.077 133.987 263.325 133.92 263.597 133.92C264.019 133.92 264.357 134.061 264.613 134.344C264.875 134.627 265.005 135.005 265.005 135.48V138H264.285V135.552C264.285 135.243 264.205 135.003 264.045 134.832C263.891 134.656 263.675 134.568 263.397 134.568ZM268.85 137.04L268.69 137.808C268.572 137.893 268.434 137.96 268.274 138.008C268.114 138.061 267.948 138.088 267.778 138.088C267.399 138.088 267.1 137.971 266.882 137.736C266.663 137.501 266.554 137.173 266.554 136.752V134.616H265.874V134H266.554V133.104L267.266 132.84V134H268.834V134.616H267.266V136.72C267.266 136.96 267.322 137.141 267.434 137.264C267.546 137.381 267.711 137.44 267.93 137.44C268.079 137.44 268.228 137.408 268.378 137.344C268.527 137.275 268.679 137.171 268.834 137.032L268.85 137.04ZM273.18 136.944L272.916 137.736C272.681 137.864 272.462 137.955 272.26 138.008C272.057 138.061 271.836 138.088 271.596 138.088C270.961 138.088 270.457 137.899 270.084 137.52C269.71 137.141 269.524 136.635 269.524 136C269.524 135.413 269.71 134.915 270.084 134.504C270.457 134.093 270.921 133.888 271.476 133.888C272.03 133.888 272.473 134.083 272.804 134.472C273.134 134.856 273.3 135.352 273.3 135.96C273.3 136.013 273.297 136.072 273.292 136.136C273.286 136.2 273.281 136.248 273.276 136.28H270.268C270.321 136.643 270.47 136.925 270.716 137.128C270.966 137.331 271.286 137.432 271.676 137.432C271.91 137.432 272.156 137.389 272.412 137.304C272.673 137.213 272.924 137.091 273.164 136.936L273.18 136.944ZM271.452 134.52C271.126 134.52 270.852 134.635 270.628 134.864C270.409 135.093 270.284 135.387 270.252 135.744H272.572C272.54 135.36 272.425 135.061 272.228 134.848C272.03 134.629 271.772 134.52 271.452 134.52ZM276.272 134.568C276.064 134.568 275.867 134.624 275.68 134.736C275.499 134.843 275.288 135.027 275.048 135.288V138H274.328V134.096L275.048 133.936V134.752C275.278 134.459 275.504 134.248 275.728 134.12C275.952 133.987 276.2 133.92 276.472 133.92C276.894 133.92 277.232 134.061 277.488 134.344C277.75 134.627 277.88 135.005 277.88 135.48V138H277.16V135.552C277.16 135.243 277.08 135.003 276.92 134.832C276.766 134.656 276.55 134.568 276.272 134.568ZM281.725 137.04L281.565 137.808C281.447 137.893 281.309 137.96 281.149 138.008C280.989 138.061 280.823 138.088 280.653 138.088C280.274 138.088 279.975 137.971 279.757 137.736C279.538 137.501 279.429 137.173 279.429 136.752V134.616H278.749V134H279.429V133.104L280.141 132.84V134H281.709V134.616H280.141V136.72C280.141 136.96 280.197 137.141 280.309 137.264C280.421 137.381 280.586 137.44 280.805 137.44C280.954 137.44 281.103 137.408 281.253 137.344C281.402 137.275 281.554 137.171 281.709 137.032L281.725 137.04ZM287.029 137.04L286.869 137.808C286.752 137.893 286.613 137.96 286.453 138.008C286.293 138.061 286.128 138.088 285.957 138.088C285.579 138.088 285.28 137.971 285.061 137.736C284.843 137.501 284.733 137.173 284.733 136.752V134.616H284.053V134H284.733V133.104L285.445 132.84V134H287.013V134.616H285.445V136.72C285.445 136.96 285.501 137.141 285.613 137.264C285.725 137.381 285.891 137.44 286.109 137.44C286.259 137.44 286.408 137.408 286.557 137.344C286.707 137.275 286.859 137.171 287.013 137.032L287.029 137.04ZM289.807 138.112C289.194 138.112 288.69 137.909 288.295 137.504C287.901 137.093 287.703 136.595 287.703 136.008C287.703 135.427 287.906 134.928 288.311 134.512C288.717 134.096 289.221 133.888 289.823 133.888C290.442 133.888 290.946 134.091 291.335 134.496C291.73 134.896 291.927 135.392 291.927 135.984C291.927 136.571 291.725 137.072 291.319 137.488C290.919 137.904 290.415 138.112 289.807 138.112ZM291.191 135.984C291.191 135.568 291.061 135.224 290.799 134.952C290.543 134.675 290.218 134.536 289.823 134.536C289.423 134.536 289.093 134.677 288.831 134.96C288.575 135.237 288.447 135.587 288.447 136.008C288.447 136.424 288.575 136.771 288.831 137.048C289.093 137.325 289.418 137.464 289.807 137.464C290.207 137.464 290.538 137.323 290.799 137.04C291.061 136.757 291.191 136.405 291.191 135.984ZM298.288 138H297.56V137.424C297.331 137.653 297.107 137.821 296.888 137.928C296.675 138.029 296.437 138.08 296.176 138.08C295.664 138.08 295.232 137.891 294.88 137.512C294.528 137.128 294.352 136.651 294.352 136.08C294.352 135.467 294.549 134.957 294.944 134.552C295.339 134.141 295.813 133.936 296.368 133.936C296.576 133.936 296.776 133.971 296.968 134.04C297.165 134.104 297.363 134.208 297.56 134.352V132.192L298.288 131.928V138ZM296.488 134.576C296.088 134.576 295.755 134.712 295.488 134.984C295.227 135.256 295.096 135.603 295.096 136.024C295.096 136.435 295.216 136.773 295.456 137.04C295.701 137.301 296.005 137.432 296.368 137.432C296.576 137.432 296.773 137.392 296.96 137.312C297.147 137.232 297.347 137.104 297.56 136.928V134.912C297.373 134.795 297.195 134.709 297.024 134.656C296.853 134.603 296.675 134.576 296.488 134.576ZM301.849 134.704C301.614 134.704 301.382 134.76 301.153 134.872C300.929 134.984 300.665 135.173 300.361 135.44V138H299.641V134.096L300.361 133.936V134.952C300.692 134.541 300.95 134.269 301.137 134.136C301.329 134.003 301.534 133.936 301.753 133.936C301.801 133.936 301.841 133.939 301.873 133.944C301.91 133.949 301.956 133.957 302.009 133.968L302.065 134.728C302.028 134.717 301.99 134.712 301.953 134.712C301.921 134.707 301.886 134.704 301.849 134.704ZM305.936 135.568V137.904L305.216 138.064V137.352C304.917 137.592 304.635 137.771 304.368 137.888C304.107 138.005 303.851 138.064 303.6 138.064C303.248 138.064 302.963 137.968 302.744 137.776C302.525 137.579 302.416 137.317 302.416 136.992C302.416 136.533 302.645 136.195 303.104 135.976C303.563 135.752 304.267 135.635 305.216 135.624V135.608C305.216 135.277 305.136 135.027 304.976 134.856C304.821 134.68 304.595 134.592 304.296 134.592C304.072 134.592 303.84 134.64 303.6 134.736C303.365 134.832 303.123 134.976 302.872 135.168L302.856 135.16L303.008 134.352C303.221 134.208 303.443 134.101 303.672 134.032C303.907 133.963 304.152 133.928 304.408 133.928C304.899 133.928 305.275 134.069 305.536 134.352C305.803 134.635 305.936 135.04 305.936 135.568ZM303.144 136.96C303.144 137.109 303.197 137.229 303.304 137.32C303.411 137.405 303.557 137.448 303.744 137.448C303.931 137.448 304.144 137.403 304.384 137.312C304.624 137.221 304.901 137.08 305.216 136.888V136.088C304.523 136.131 304.003 136.224 303.656 136.368C303.315 136.507 303.144 136.704 303.144 136.96ZM312.635 134H313.371L311.803 138.056H311.203L310.043 135.4L308.811 138.056H308.203L306.747 134H307.523L308.555 137.096L310.011 133.952H310.147L311.499 137.096L312.635 134ZM319.233 135.568V137.904L318.513 138.064V137.352C318.214 137.592 317.932 137.771 317.665 137.888C317.404 138.005 317.148 138.064 316.897 138.064C316.545 138.064 316.26 137.968 316.041 137.776C315.822 137.579 315.713 137.317 315.713 136.992C315.713 136.533 315.942 136.195 316.401 135.976C316.86 135.752 317.564 135.635 318.513 135.624V135.608C318.513 135.277 318.433 135.027 318.273 134.856C318.118 134.68 317.892 134.592 317.593 134.592C317.369 134.592 317.137 134.64 316.897 134.736C316.662 134.832 316.42 134.976 316.169 135.168L316.153 135.16L316.305 134.352C316.518 134.208 316.74 134.101 316.969 134.032C317.204 133.963 317.449 133.928 317.705 133.928C318.196 133.928 318.572 134.069 318.833 134.352C319.1 134.635 319.233 135.04 319.233 135.568ZM316.441 136.96C316.441 137.109 316.494 137.229 316.601 137.32C316.708 137.405 316.854 137.448 317.041 137.448C317.228 137.448 317.441 137.403 317.681 137.312C317.921 137.221 318.198 137.08 318.513 136.888V136.088C317.82 136.131 317.3 136.224 316.953 136.368C316.612 136.507 316.441 136.704 316.441 136.96ZM323.084 137.04L322.924 137.808C322.807 137.893 322.668 137.96 322.508 138.008C322.348 138.061 322.183 138.088 322.012 138.088C321.633 138.088 321.335 137.971 321.116 137.736C320.897 137.501 320.788 137.173 320.788 136.752V134.616H320.108V134H320.788V133.104L321.5 132.84V134H323.068V134.616H321.5V136.72C321.5 136.96 321.556 137.141 321.668 137.264C321.78 137.381 321.945 137.44 322.164 137.44C322.313 137.44 322.463 137.408 322.612 137.344C322.761 137.275 322.913 137.171 323.068 137.032L323.084 137.04ZM326.584 137.04L326.424 137.808C326.307 137.893 326.168 137.96 326.008 138.008C325.848 138.061 325.683 138.088 325.512 138.088C325.133 138.088 324.835 137.971 324.616 137.736C324.397 137.501 324.288 137.173 324.288 136.752V134.616H323.608V134H324.288V133.104L325 132.84V134H326.568V134.616H325V136.72C325 136.96 325.056 137.141 325.168 137.264C325.28 137.381 325.445 137.44 325.664 137.44C325.813 137.44 325.963 137.408 326.112 137.344C326.261 137.275 326.413 137.171 326.568 137.032L326.584 137.04ZM330.914 136.944L330.65 137.736C330.415 137.864 330.197 137.955 329.994 138.008C329.791 138.061 329.57 138.088 329.33 138.088C328.695 138.088 328.191 137.899 327.818 137.52C327.445 137.141 327.258 136.635 327.258 136C327.258 135.413 327.445 134.915 327.818 134.504C328.191 134.093 328.655 133.888 329.21 133.888C329.765 133.888 330.207 134.083 330.538 134.472C330.869 134.856 331.034 135.352 331.034 135.96C331.034 136.013 331.031 136.072 331.026 136.136C331.021 136.2 331.015 136.248 331.01 136.28H328.002C328.055 136.643 328.205 136.925 328.45 137.128C328.701 137.331 329.021 137.432 329.41 137.432C329.645 137.432 329.89 137.389 330.146 137.304C330.407 137.213 330.658 137.091 330.898 136.936L330.914 136.944ZM329.186 134.52C328.861 134.52 328.586 134.635 328.362 134.864C328.143 135.093 328.018 135.387 327.986 135.744H330.306C330.274 135.36 330.159 135.061 329.962 134.848C329.765 134.629 329.506 134.52 329.186 134.52ZM334.007 134.568C333.799 134.568 333.601 134.624 333.415 134.736C333.233 134.843 333.023 135.027 332.783 135.288V138H332.063V134.096L332.783 133.936V134.752C333.012 134.459 333.239 134.248 333.463 134.12C333.687 133.987 333.935 133.92 334.207 133.92C334.628 133.92 334.967 134.061 335.223 134.344C335.484 134.627 335.615 135.005 335.615 135.48V138H334.895V135.552C334.895 135.243 334.815 135.003 334.655 134.832C334.5 134.656 334.284 134.568 334.007 134.568ZM339.459 137.04L339.299 137.808C339.182 137.893 339.043 137.96 338.883 138.008C338.723 138.061 338.558 138.088 338.387 138.088C338.008 138.088 337.71 137.971 337.491 137.736C337.272 137.501 337.163 137.173 337.163 136.752V134.616H336.483V134H337.163V133.104L337.875 132.84V134H339.443V134.616H337.875V136.72C337.875 136.96 337.931 137.141 338.043 137.264C338.155 137.381 338.32 137.44 338.539 137.44C338.688 137.44 338.838 137.408 338.987 137.344C339.136 137.275 339.288 137.171 339.443 137.032L339.459 137.04ZM340.869 132.072C341.008 132.072 341.125 132.12 341.221 132.216C341.317 132.312 341.365 132.429 341.365 132.568C341.365 132.707 341.317 132.824 341.221 132.92C341.125 133.016 341.008 133.064 340.869 133.064C340.73 133.064 340.613 133.016 340.517 132.92C340.421 132.824 340.373 132.707 340.373 132.568C340.373 132.429 340.421 132.312 340.517 132.216C340.613 132.12 340.73 132.072 340.869 132.072ZM341.229 138H340.509V134H341.229V138ZM344.393 138.112C343.78 138.112 343.276 137.909 342.881 137.504C342.487 137.093 342.289 136.595 342.289 136.008C342.289 135.427 342.492 134.928 342.897 134.512C343.303 134.096 343.807 133.888 344.409 133.888C345.028 133.888 345.532 134.091 345.921 134.496C346.316 134.896 346.513 135.392 346.513 135.984C346.513 136.571 346.311 137.072 345.905 137.488C345.505 137.904 345.001 138.112 344.393 138.112ZM345.777 135.984C345.777 135.568 345.647 135.224 345.385 134.952C345.129 134.675 344.804 134.536 344.409 134.536C344.009 134.536 343.679 134.677 343.417 134.96C343.161 135.237 343.033 135.587 343.033 136.008C343.033 136.424 343.161 136.771 343.417 137.048C343.679 137.325 344.004 137.464 344.393 137.464C344.793 137.464 345.124 137.323 345.385 137.04C345.647 136.757 345.777 136.405 345.777 135.984ZM349.483 134.568C349.275 134.568 349.078 134.624 348.891 134.736C348.71 134.843 348.499 135.027 348.259 135.288V138H347.539V134.096L348.259 133.936V134.752C348.489 134.459 348.715 134.248 348.939 134.12C349.163 133.987 349.411 133.92 349.683 133.92C350.105 133.92 350.443 134.061 350.699 134.344C350.961 134.627 351.091 135.005 351.091 135.48V138H350.371V135.552C350.371 135.243 350.291 135.003 350.131 134.832C349.977 134.656 349.761 134.568 349.483 134.568ZM356.662 137.04L356.502 137.808C356.385 137.893 356.246 137.96 356.086 138.008C355.926 138.061 355.761 138.088 355.59 138.088C355.211 138.088 354.913 137.971 354.694 137.736C354.475 137.501 354.366 137.173 354.366 136.752V134.616H353.686V134H354.366V133.104L355.078 132.84V134H356.646V134.616H355.078V136.72C355.078 136.96 355.134 137.141 355.246 137.264C355.358 137.381 355.523 137.44 355.742 137.44C355.891 137.44 356.041 137.408 356.19 137.344C356.339 137.275 356.491 137.171 356.646 137.032L356.662 137.04ZM359.44 138.112C358.827 138.112 358.323 137.909 357.928 137.504C357.534 137.093 357.336 136.595 357.336 136.008C357.336 135.427 357.539 134.928 357.944 134.512C358.35 134.096 358.854 133.888 359.456 133.888C360.075 133.888 360.579 134.091 360.968 134.496C361.363 134.896 361.56 135.392 361.56 135.984C361.56 136.571 361.358 137.072 360.952 137.488C360.552 137.904 360.048 138.112 359.44 138.112ZM360.824 135.984C360.824 135.568 360.694 135.224 360.432 134.952C360.176 134.675 359.851 134.536 359.456 134.536C359.056 134.536 358.726 134.677 358.464 134.96C358.208 135.237 358.08 135.587 358.08 136.008C358.08 136.424 358.208 136.771 358.464 137.048C358.726 137.325 359.051 137.464 359.44 137.464C359.84 137.464 360.171 137.323 360.432 137.04C360.694 136.757 360.824 136.405 360.824 135.984ZM103.08 144.072C103.219 144.072 103.336 144.12 103.432 144.216C103.528 144.312 103.576 144.429 103.576 144.568C103.576 144.707 103.528 144.824 103.432 144.92C103.336 145.016 103.219 145.064 103.08 145.064C102.941 145.064 102.824 145.016 102.728 144.92C102.632 144.824 102.584 144.707 102.584 144.568C102.584 144.429 102.632 144.312 102.728 144.216C102.824 144.12 102.941 144.072 103.08 144.072ZM103.44 150H102.72V146H103.44V150ZM106.676 146.568C106.49 146.568 106.311 146.621 106.14 146.728C105.975 146.829 105.78 147.005 105.556 147.256V150H104.836V146.096L105.556 145.936V146.72C105.77 146.437 105.983 146.235 106.196 146.112C106.41 145.984 106.642 145.92 106.892 145.92C107.186 145.92 107.439 145.997 107.652 146.152C107.871 146.307 108.031 146.525 108.132 146.808C108.367 146.493 108.596 146.267 108.82 146.128C109.044 145.989 109.295 145.92 109.572 145.92C109.978 145.92 110.303 146.061 110.548 146.344C110.799 146.627 110.924 147.005 110.924 147.48V150H110.196V147.552C110.196 147.243 110.122 147.003 109.972 146.832C109.823 146.656 109.618 146.568 109.356 146.568C109.17 146.568 108.988 146.621 108.812 146.728C108.642 146.835 108.447 147.013 108.228 147.264C108.234 147.285 108.236 147.312 108.236 147.344C108.236 147.371 108.236 147.416 108.236 147.48V150H107.516V147.552C107.516 147.243 107.442 147.003 107.292 146.832C107.143 146.656 106.938 146.568 106.676 146.568ZM116.131 147.92C116.131 148.533 115.934 149.045 115.539 149.456C115.15 149.861 114.678 150.064 114.123 150.064C113.91 150.064 113.705 150.029 113.507 149.96C113.315 149.891 113.121 149.784 112.923 149.64V151.528H112.203V146.096L112.923 145.936V146.584C113.147 146.349 113.369 146.181 113.587 146.08C113.806 145.973 114.046 145.92 114.307 145.92C114.819 145.92 115.251 146.112 115.603 146.496C115.955 146.875 116.131 147.349 116.131 147.92ZM115.387 147.976C115.387 147.56 115.265 147.221 115.019 146.96C114.779 146.699 114.478 146.568 114.115 146.568C113.907 146.568 113.71 146.608 113.523 146.688C113.337 146.768 113.137 146.896 112.923 147.072V149.08C113.105 149.197 113.281 149.285 113.451 149.344C113.627 149.397 113.811 149.424 114.003 149.424C114.403 149.424 114.734 149.288 114.995 149.016C115.257 148.739 115.387 148.392 115.387 147.976ZM118.932 150.112C118.319 150.112 117.815 149.909 117.42 149.504C117.026 149.093 116.828 148.595 116.828 148.008C116.828 147.427 117.031 146.928 117.436 146.512C117.842 146.096 118.346 145.888 118.948 145.888C119.567 145.888 120.071 146.091 120.46 146.496C120.855 146.896 121.052 147.392 121.052 147.984C121.052 148.571 120.85 149.072 120.444 149.488C120.044 149.904 119.54 150.112 118.932 150.112ZM120.316 147.984C120.316 147.568 120.186 147.224 119.924 146.952C119.668 146.675 119.343 146.536 118.948 146.536C118.548 146.536 118.218 146.677 117.956 146.96C117.7 147.237 117.572 147.587 117.572 148.008C117.572 148.424 117.7 148.771 117.956 149.048C118.218 149.325 118.543 149.464 118.932 149.464C119.332 149.464 119.663 149.323 119.924 149.04C120.186 148.757 120.316 148.405 120.316 147.984ZM124.286 146.704C124.052 146.704 123.82 146.76 123.59 146.872C123.366 146.984 123.102 147.173 122.798 147.44V150H122.078V146.096L122.798 145.936V146.952C123.129 146.541 123.388 146.269 123.574 146.136C123.766 146.003 123.972 145.936 124.19 145.936C124.238 145.936 124.278 145.939 124.31 145.944C124.348 145.949 124.393 145.957 124.446 145.968L124.502 146.728C124.465 146.717 124.428 146.712 124.39 146.712C124.358 146.707 124.324 146.704 124.286 146.704ZM127.967 149.04L127.807 149.808C127.689 149.893 127.551 149.96 127.391 150.008C127.231 150.061 127.065 150.088 126.895 150.088C126.516 150.088 126.217 149.971 125.999 149.736C125.78 149.501 125.671 149.173 125.671 148.752V146.616H124.991V146H125.671V145.104L126.383 144.84V146H127.951V146.616H126.383V148.72C126.383 148.96 126.439 149.141 126.551 149.264C126.663 149.381 126.828 149.44 127.047 149.44C127.196 149.44 127.345 149.408 127.495 149.344C127.644 149.275 127.796 149.171 127.951 149.032L127.967 149.04ZM132.233 147.568V149.904L131.513 150.064V149.352C131.214 149.592 130.932 149.771 130.665 149.888C130.404 150.005 130.148 150.064 129.897 150.064C129.545 150.064 129.26 149.968 129.041 149.776C128.822 149.579 128.713 149.317 128.713 148.992C128.713 148.533 128.942 148.195 129.401 147.976C129.86 147.752 130.564 147.635 131.513 147.624V147.608C131.513 147.277 131.433 147.027 131.273 146.856C131.118 146.68 130.892 146.592 130.593 146.592C130.369 146.592 130.137 146.64 129.897 146.736C129.662 146.832 129.42 146.976 129.169 147.168L129.153 147.16L129.305 146.352C129.518 146.208 129.74 146.101 129.969 146.032C130.204 145.963 130.449 145.928 130.705 145.928C131.196 145.928 131.572 146.069 131.833 146.352C132.1 146.635 132.233 147.04 132.233 147.568ZM129.441 148.96C129.441 149.109 129.494 149.229 129.601 149.32C129.708 149.405 129.854 149.448 130.041 149.448C130.228 149.448 130.441 149.403 130.681 149.312C130.921 149.221 131.198 149.08 131.513 148.888V148.088C130.82 148.131 130.3 148.224 129.953 148.368C129.612 148.507 129.441 148.704 129.441 148.96ZM135.46 146.568C135.252 146.568 135.055 146.624 134.868 146.736C134.687 146.843 134.476 147.027 134.236 147.288V150H133.516V146.096L134.236 145.936V146.752C134.465 146.459 134.692 146.248 134.916 146.12C135.14 145.987 135.388 145.92 135.66 145.92C136.081 145.92 136.42 146.061 136.676 146.344C136.937 146.627 137.068 147.005 137.068 147.48V150H136.348V147.552C136.348 147.243 136.268 147.003 136.108 146.832C135.953 146.656 135.737 146.568 135.46 146.568ZM140.912 149.04L140.752 149.808C140.635 149.893 140.496 149.96 140.336 150.008C140.176 150.061 140.011 150.088 139.84 150.088C139.461 150.088 139.163 149.971 138.944 149.736C138.725 149.501 138.616 149.173 138.616 148.752V146.616H137.936V146H138.616V145.104L139.328 144.84V146H140.896V146.616H139.328V148.72C139.328 148.96 139.384 149.141 139.496 149.264C139.608 149.381 139.773 149.44 139.992 149.44C140.141 149.44 140.291 149.408 140.44 149.344C140.589 149.275 140.741 149.171 140.896 149.032L140.912 149.04ZM144.049 144.072C144.187 144.072 144.305 144.12 144.401 144.216C144.497 144.312 144.545 144.429 144.545 144.568C144.545 144.707 144.497 144.824 144.401 144.92C144.305 145.016 144.187 145.064 144.049 145.064C143.91 145.064 143.793 145.016 143.697 144.92C143.601 144.824 143.553 144.707 143.553 144.568C143.553 144.429 143.601 144.312 143.697 144.216C143.793 144.12 143.91 144.072 144.049 144.072ZM144.409 150H143.689V146H144.409V150ZM147.749 146.568C147.541 146.568 147.344 146.624 147.157 146.736C146.976 146.843 146.765 147.027 146.525 147.288V150H145.805V146.096L146.525 145.936V146.752C146.754 146.459 146.981 146.248 147.205 146.12C147.429 145.987 147.677 145.92 147.949 145.92C148.37 145.92 148.709 146.061 148.965 146.344C149.226 146.627 149.357 147.005 149.357 147.48V150H148.637V147.552C148.637 147.243 148.557 147.003 148.397 146.832C148.242 146.656 148.026 146.568 147.749 146.568ZM153.025 146V146.616H151.705V150H150.985V146.616H150.273V146H150.985V145.368C150.985 144.925 151.105 144.579 151.345 144.328C151.585 144.072 151.913 143.944 152.329 143.944C152.457 143.944 152.574 143.955 152.681 143.976C152.788 143.997 152.897 144.035 153.009 144.088L153.129 144.832L153.113 144.84C152.964 144.755 152.833 144.696 152.721 144.664C152.609 144.627 152.494 144.608 152.377 144.608C152.169 144.608 152.004 144.675 151.881 144.808C151.764 144.936 151.705 145.115 151.705 145.344V146H153.025ZM155.526 150.112C154.913 150.112 154.409 149.909 154.014 149.504C153.619 149.093 153.422 148.595 153.422 148.008C153.422 147.427 153.625 146.928 154.03 146.512C154.435 146.096 154.939 145.888 155.542 145.888C156.161 145.888 156.665 146.091 157.054 146.496C157.449 146.896 157.646 147.392 157.646 147.984C157.646 148.571 157.443 149.072 157.038 149.488C156.638 149.904 156.134 150.112 155.526 150.112ZM156.91 147.984C156.91 147.568 156.779 147.224 156.518 146.952C156.262 146.675 155.937 146.536 155.542 146.536C155.142 146.536 154.811 146.677 154.55 146.96C154.294 147.237 154.166 147.587 154.166 148.008C154.166 148.424 154.294 148.771 154.55 149.048C154.811 149.325 155.137 149.464 155.526 149.464C155.926 149.464 156.257 149.323 156.518 149.04C156.779 148.757 156.91 148.405 156.91 147.984ZM160.88 146.704C160.646 146.704 160.414 146.76 160.184 146.872C159.96 146.984 159.696 147.173 159.392 147.44V150H158.672V146.096L159.392 145.936V146.952C159.723 146.541 159.982 146.269 160.168 146.136C160.36 146.003 160.566 145.936 160.784 145.936C160.832 145.936 160.872 145.939 160.904 145.944C160.942 145.949 160.987 145.957 161.04 145.968L161.096 146.728C161.059 146.717 161.022 146.712 160.984 146.712C160.952 146.707 160.918 146.704 160.88 146.704ZM163.833 146.568C163.646 146.568 163.467 146.621 163.297 146.728C163.131 146.829 162.937 147.005 162.713 147.256V150H161.993V146.096L162.713 145.936V146.72C162.926 146.437 163.139 146.235 163.353 146.112C163.566 145.984 163.798 145.92 164.049 145.92C164.342 145.92 164.595 145.997 164.809 146.152C165.027 146.307 165.187 146.525 165.289 146.808C165.523 146.493 165.753 146.267 165.977 146.128C166.201 145.989 166.451 145.92 166.729 145.92C167.134 145.92 167.459 146.061 167.705 146.344C167.955 146.627 168.081 147.005 168.081 147.48V150H167.353V147.552C167.353 147.243 167.278 147.003 167.129 146.832C166.979 146.656 166.774 146.568 166.513 146.568C166.326 146.568 166.145 146.621 165.969 146.728C165.798 146.835 165.603 147.013 165.385 147.264C165.39 147.285 165.393 147.312 165.393 147.344C165.393 147.371 165.393 147.416 165.393 147.48V150H164.673V147.552C164.673 147.243 164.598 147.003 164.449 146.832C164.299 146.656 164.094 146.568 163.833 146.568ZM172.616 147.568V149.904L171.896 150.064V149.352C171.597 149.592 171.314 149.771 171.048 149.888C170.786 150.005 170.53 150.064 170.28 150.064C169.928 150.064 169.642 149.968 169.424 149.776C169.205 149.579 169.096 149.317 169.096 148.992C169.096 148.533 169.325 148.195 169.784 147.976C170.242 147.752 170.946 147.635 171.896 147.624V147.608C171.896 147.277 171.816 147.027 171.656 146.856C171.501 146.68 171.274 146.592 170.976 146.592C170.752 146.592 170.52 146.64 170.28 146.736C170.045 146.832 169.802 146.976 169.552 147.168L169.536 147.16L169.688 146.352C169.901 146.208 170.122 146.101 170.352 146.032C170.586 145.963 170.832 145.928 171.088 145.928C171.578 145.928 171.954 146.069 172.216 146.352C172.482 146.635 172.616 147.04 172.616 147.568ZM169.824 148.96C169.824 149.109 169.877 149.229 169.984 149.32C170.09 149.405 170.237 149.448 170.424 149.448C170.61 149.448 170.824 149.403 171.064 149.312C171.304 149.221 171.581 149.08 171.896 148.888V148.088C171.202 148.131 170.682 148.224 170.336 148.368C169.994 148.507 169.824 148.704 169.824 148.96ZM176.467 149.04L176.307 149.808C176.189 149.893 176.051 149.96 175.891 150.008C175.731 150.061 175.565 150.088 175.395 150.088C175.016 150.088 174.717 149.971 174.499 149.736C174.28 149.501 174.171 149.173 174.171 148.752V146.616H173.491V146H174.171V145.104L174.883 144.84V146H176.451V146.616H174.883V148.72C174.883 148.96 174.939 149.141 175.051 149.264C175.163 149.381 175.328 149.44 175.547 149.44C175.696 149.44 175.845 149.408 175.995 149.344C176.144 149.275 176.296 149.171 176.451 149.032L176.467 149.04ZM177.877 144.072C178.016 144.072 178.133 144.12 178.229 144.216C178.325 144.312 178.373 144.429 178.373 144.568C178.373 144.707 178.325 144.824 178.229 144.92C178.133 145.016 178.016 145.064 177.877 145.064C177.738 145.064 177.621 145.016 177.525 144.92C177.429 144.824 177.381 144.707 177.381 144.568C177.381 144.429 177.429 144.312 177.525 144.216C177.621 144.12 177.738 144.072 177.877 144.072ZM178.237 150H177.517V146H178.237V150ZM181.401 150.112C180.788 150.112 180.284 149.909 179.889 149.504C179.494 149.093 179.297 148.595 179.297 148.008C179.297 147.427 179.5 146.928 179.905 146.512C180.31 146.096 180.814 145.888 181.417 145.888C182.036 145.888 182.54 146.091 182.929 146.496C183.324 146.896 183.521 147.392 183.521 147.984C183.521 148.571 183.318 149.072 182.913 149.488C182.513 149.904 182.009 150.112 181.401 150.112ZM182.785 147.984C182.785 147.568 182.654 147.224 182.393 146.952C182.137 146.675 181.812 146.536 181.417 146.536C181.017 146.536 180.686 146.677 180.425 146.96C180.169 147.237 180.041 147.587 180.041 148.008C180.041 148.424 180.169 148.771 180.425 149.048C180.686 149.325 181.012 149.464 181.401 149.464C181.801 149.464 182.132 149.323 182.393 149.04C182.654 148.757 182.785 148.405 182.785 147.984ZM186.491 146.568C186.283 146.568 186.086 146.624 185.899 146.736C185.718 146.843 185.507 147.027 185.267 147.288V150H184.547V146.096L185.267 145.936V146.752C185.497 146.459 185.723 146.248 185.947 146.12C186.171 145.987 186.419 145.92 186.691 145.92C187.113 145.92 187.451 146.061 187.707 146.344C187.969 146.627 188.099 147.005 188.099 147.48V150H187.379V147.552C187.379 147.243 187.299 147.003 187.139 146.832C186.985 146.656 186.769 146.568 186.491 146.568ZM192.87 150.112C192.257 150.112 191.753 149.909 191.358 149.504C190.963 149.093 190.766 148.595 190.766 148.008C190.766 147.427 190.969 146.928 191.374 146.512C191.779 146.096 192.283 145.888 192.886 145.888C193.505 145.888 194.009 146.091 194.398 146.496C194.793 146.896 194.99 147.392 194.99 147.984C194.99 148.571 194.787 149.072 194.382 149.488C193.982 149.904 193.478 150.112 192.87 150.112ZM194.254 147.984C194.254 147.568 194.123 147.224 193.862 146.952C193.606 146.675 193.281 146.536 192.886 146.536C192.486 146.536 192.155 146.677 191.894 146.96C191.638 147.237 191.51 147.587 191.51 148.008C191.51 148.424 191.638 148.771 191.894 149.048C192.155 149.325 192.481 149.464 192.87 149.464C193.27 149.464 193.601 149.323 193.862 149.04C194.123 148.757 194.254 148.405 194.254 147.984ZM198.224 146.704C197.989 146.704 197.757 146.76 197.528 146.872C197.304 146.984 197.04 147.173 196.736 147.44V150H196.016V146.096L196.736 145.936V146.952C197.067 146.541 197.325 146.269 197.512 146.136C197.704 146.003 197.909 145.936 198.128 145.936C198.176 145.936 198.216 145.939 198.248 145.944C198.285 145.949 198.331 145.957 198.384 145.968L198.44 146.728C198.403 146.717 198.365 146.712 198.328 146.712C198.296 146.707 198.261 146.704 198.224 146.704ZM206.479 146H207.215L205.647 150.056H205.047L203.887 147.4L202.655 150.056H202.047L200.591 146H201.367L202.399 149.096L203.855 145.952H203.991L205.343 149.096L206.479 146ZM211.108 147.568V149.904L210.388 150.064V149.352C210.089 149.592 209.807 149.771 209.54 149.888C209.279 150.005 209.023 150.064 208.772 150.064C208.42 150.064 208.135 149.968 207.916 149.776C207.697 149.579 207.588 149.317 207.588 148.992C207.588 148.533 207.817 148.195 208.276 147.976C208.735 147.752 209.439 147.635 210.388 147.624V147.608C210.388 147.277 210.308 147.027 210.148 146.856C209.993 146.68 209.767 146.592 209.468 146.592C209.244 146.592 209.012 146.64 208.772 146.736C208.537 146.832 208.295 146.976 208.044 147.168L208.028 147.16L208.18 146.352C208.393 146.208 208.615 146.101 208.844 146.032C209.079 145.963 209.324 145.928 209.58 145.928C210.071 145.928 210.447 146.069 210.708 146.352C210.975 146.635 211.108 147.04 211.108 147.568ZM208.316 148.96C208.316 149.109 208.369 149.229 208.476 149.32C208.583 149.405 208.729 149.448 208.916 149.448C209.103 149.448 209.316 149.403 209.556 149.312C209.796 149.221 210.073 149.08 210.388 148.888V148.088C209.695 148.131 209.175 148.224 208.828 148.368C208.487 148.507 208.316 148.704 208.316 148.96ZM214.599 146.704C214.364 146.704 214.132 146.76 213.903 146.872C213.679 146.984 213.415 147.173 213.111 147.44V150H212.391V146.096L213.111 145.936V146.952C213.442 146.541 213.7 146.269 213.887 146.136C214.079 146.003 214.284 145.936 214.503 145.936C214.551 145.936 214.591 145.939 214.623 145.944C214.66 145.949 214.706 145.957 214.759 145.968L214.815 146.728C214.778 146.717 214.74 146.712 214.703 146.712C214.671 146.707 214.636 146.704 214.599 146.704ZM217.655 146.568C217.447 146.568 217.25 146.624 217.063 146.736C216.882 146.843 216.671 147.027 216.431 147.288V150H215.711V146.096L216.431 145.936V146.752C216.661 146.459 216.887 146.248 217.111 146.12C217.335 145.987 217.583 145.92 217.855 145.92C218.277 145.92 218.615 146.061 218.871 146.344C219.133 146.627 219.263 147.005 219.263 147.48V150H218.543V147.552C218.543 147.243 218.463 147.003 218.303 146.832C218.149 146.656 217.933 146.568 217.655 146.568ZM220.939 144.072C221.078 144.072 221.195 144.12 221.291 144.216C221.387 144.312 221.435 144.429 221.435 144.568C221.435 144.707 221.387 144.824 221.291 144.92C221.195 145.016 221.078 145.064 220.939 145.064C220.801 145.064 220.683 145.016 220.587 144.92C220.491 144.824 220.443 144.707 220.443 144.568C220.443 144.429 220.491 144.312 220.587 144.216C220.683 144.12 220.801 144.072 220.939 144.072ZM221.299 150H220.579V146H221.299V150ZM224.64 146.568C224.432 146.568 224.234 146.624 224.048 146.736C223.866 146.843 223.656 147.027 223.416 147.288V150H222.696V146.096L223.416 145.936V146.752C223.645 146.459 223.872 146.248 224.096 146.12C224.32 145.987 224.568 145.92 224.84 145.92C225.261 145.92 225.6 146.061 225.856 146.344C226.117 146.627 226.248 147.005 226.248 147.48V150H225.528V147.552C225.528 147.243 225.448 147.003 225.288 146.832C225.133 146.656 224.917 146.568 224.64 146.568ZM231.132 146V149.616C231.132 150.224 230.945 150.701 230.572 151.048C230.204 151.395 229.7 151.568 229.06 151.568C228.788 151.568 228.524 151.539 228.268 151.48C228.012 151.421 227.753 151.328 227.492 151.2L227.34 150.392L227.356 150.384C227.676 150.565 227.972 150.696 228.244 150.776C228.521 150.861 228.804 150.904 229.092 150.904C229.486 150.904 229.804 150.787 230.044 150.552C230.284 150.323 230.404 150.011 230.404 149.616V149.256C230.164 149.491 229.929 149.661 229.7 149.768C229.47 149.869 229.225 149.92 228.964 149.92C228.452 149.92 228.028 149.741 227.692 149.384C227.361 149.027 227.196 148.573 227.196 148.024C227.196 147.416 227.406 146.917 227.828 146.528C228.254 146.133 228.777 145.936 229.396 145.936C229.577 145.936 229.756 145.955 229.932 145.992C230.108 146.029 230.297 146.091 230.5 146.176L231.036 146H231.132ZM229.412 146.552C228.99 146.552 228.638 146.688 228.356 146.96C228.078 147.232 227.94 147.573 227.94 147.984C227.94 148.373 228.054 148.688 228.284 148.928C228.513 149.168 228.812 149.288 229.18 149.288C229.382 149.288 229.58 149.248 229.772 149.168C229.969 149.083 230.18 148.947 230.404 148.76V146.776C230.228 146.701 230.06 146.645 229.9 146.608C229.74 146.571 229.577 146.552 229.412 146.552ZM234.053 147.664C234.581 147.787 234.946 147.941 235.149 148.128C235.357 148.315 235.461 148.571 235.461 148.896C235.461 149.243 235.309 149.528 235.005 149.752C234.706 149.976 234.322 150.088 233.853 150.088C233.57 150.088 233.301 150.048 233.045 149.968C232.789 149.888 232.535 149.765 232.285 149.6L232.133 148.728L232.149 148.72C232.447 148.955 232.749 149.133 233.053 149.256C233.357 149.379 233.65 149.44 233.933 149.44C234.173 149.44 234.37 149.395 234.525 149.304C234.685 149.208 234.765 149.085 234.765 148.936C234.765 148.776 234.69 148.651 234.541 148.56C234.397 148.469 234.109 148.373 233.677 148.272C233.159 148.149 232.799 147.997 232.597 147.816C232.394 147.635 232.293 147.397 232.293 147.104C232.293 146.752 232.437 146.467 232.725 146.248C233.018 146.024 233.394 145.912 233.853 145.912C234.077 145.912 234.301 145.944 234.525 146.008C234.749 146.072 234.962 146.163 235.165 146.28V147.048H235.149C234.898 146.888 234.655 146.768 234.421 146.688C234.191 146.603 233.975 146.56 233.773 146.56C233.533 146.56 233.341 146.603 233.197 146.688C233.058 146.773 232.989 146.885 232.989 147.024C232.989 147.173 233.061 147.293 233.205 147.384C233.349 147.469 233.631 147.563 234.053 147.664ZM236.66 150.072C236.511 150.072 236.383 150.019 236.276 149.912C236.169 149.805 236.116 149.677 236.116 149.528C236.116 149.379 236.169 149.251 236.276 149.144C236.383 149.037 236.511 148.984 236.66 148.984C236.809 148.984 236.935 149.037 237.036 149.144C237.143 149.251 237.196 149.379 237.196 149.528C237.196 149.677 237.143 149.805 237.036 149.912C236.935 150.019 236.809 150.072 236.66 150.072Z" fill="white"/>
</svg>
