<svg width="190" height="137" viewBox="0 0 190 137" fill="none" xmlns="http://www.w3.org/2000/svg">
<rect x="0.5" y="0.5" width="188.253" height="135.205" rx="8.5" fill="white" stroke="#8C8C8C"/>
<rect width="167" height="52" transform="matrix(-1 0 0 1 178 51)" fill="#C9C8CE"/>
<path d="M74.344 46H73.7V41.1H74.323L77.417 44.621V41.1H78.054V46.035H77.823L74.344 42.073V46ZM82.2067 43.872V45.916L81.5767 46.056V45.433C81.3154 45.643 81.068 45.7993 80.8347 45.902C80.606 46.0047 80.382 46.056 80.1627 46.056C79.8547 46.056 79.605 45.972 79.4137 45.804C79.2224 45.6313 79.1267 45.4027 79.1267 45.118C79.1267 44.7167 79.3274 44.4203 79.7287 44.229C80.13 44.033 80.746 43.9303 81.5767 43.921V43.907C81.5767 43.6177 81.5067 43.3983 81.3667 43.249C81.2314 43.095 81.033 43.018 80.7717 43.018C80.5757 43.018 80.3727 43.06 80.1627 43.144C79.9574 43.228 79.745 43.354 79.5257 43.522L79.5117 43.515L79.6447 42.808C79.8314 42.682 80.025 42.5887 80.2257 42.528C80.431 42.4673 80.6457 42.437 80.8697 42.437C81.299 42.437 81.628 42.5607 81.8567 42.808C82.09 43.0553 82.2067 43.41 82.2067 43.872ZM79.7637 45.09C79.7637 45.2207 79.8104 45.3257 79.9037 45.405C79.997 45.4797 80.1254 45.517 80.2887 45.517C80.452 45.517 80.6387 45.4773 80.8487 45.398C81.0587 45.3187 81.3014 45.195 81.5767 45.027V44.327C80.97 44.3643 80.515 44.446 80.2117 44.572C79.913 44.6933 79.7637 44.866 79.7637 45.09ZM85.7958 42.5H86.4818L84.6338 46.098H84.5008L82.7788 42.5H83.4718L84.5918 44.971L85.7958 42.5ZM90.5079 43.431C90.8486 43.529 91.1123 43.69 91.2989 43.914C91.4856 44.138 91.5789 44.397 91.5789 44.691C91.5789 45.0877 91.4203 45.419 91.1029 45.685C90.7903 45.9463 90.4076 46.077 89.9549 46.077C89.7076 46.077 89.4859 46.0513 89.2899 46C89.0986 45.944 88.8699 45.8343 88.6039 45.671L88.4849 44.908L88.4989 44.901C88.7929 45.1157 89.0473 45.2673 89.2619 45.356C89.4766 45.44 89.7006 45.482 89.9339 45.482C90.2139 45.482 90.4449 45.4073 90.6269 45.258C90.8136 45.1087 90.9069 44.9173 90.9069 44.684C90.9069 44.404 90.7763 44.1823 90.5149 44.019C90.2583 43.851 89.8523 43.7273 89.2969 43.648V43.396C89.8383 43.2233 90.2233 43.053 90.4519 42.885C90.6806 42.717 90.7949 42.5163 90.7949 42.283C90.7949 42.0823 90.7226 41.9213 90.5779 41.8C90.4379 41.6787 90.2513 41.618 90.0179 41.618C89.8173 41.618 89.6096 41.6647 89.3949 41.758C89.1803 41.8467 88.9353 41.9937 88.6599 42.199H88.6459V41.478C88.9259 41.3007 89.1709 41.1817 89.3809 41.121C89.5909 41.0557 89.8173 41.023 90.0599 41.023C90.4893 41.023 90.8299 41.1303 91.0819 41.345C91.3339 41.5597 91.4599 41.849 91.4599 42.213C91.4599 42.465 91.3783 42.6937 91.2149 42.899C91.0563 43.1043 90.8206 43.2817 90.5079 43.431Z" fill="black"/>
<path d="M42.344 46H41.7V41.1H42.323L45.417 44.621V41.1H46.054V46.035H45.823L42.344 42.073V46ZM50.2067 43.872V45.916L49.5767 46.056V45.433C49.3154 45.643 49.068 45.7993 48.8347 45.902C48.606 46.0047 48.382 46.056 48.1627 46.056C47.8547 46.056 47.605 45.972 47.4137 45.804C47.2224 45.6313 47.1267 45.4027 47.1267 45.118C47.1267 44.7167 47.3274 44.4203 47.7287 44.229C48.13 44.033 48.746 43.9303 49.5767 43.921V43.907C49.5767 43.6177 49.5067 43.3983 49.3667 43.249C49.2314 43.095 49.033 43.018 48.7717 43.018C48.5757 43.018 48.3727 43.06 48.1627 43.144C47.9574 43.228 47.745 43.354 47.5257 43.522L47.5117 43.515L47.6447 42.808C47.8314 42.682 48.025 42.5887 48.2257 42.528C48.431 42.4673 48.6457 42.437 48.8697 42.437C49.299 42.437 49.628 42.5607 49.8567 42.808C50.09 43.0553 50.2067 43.41 50.2067 43.872ZM47.7637 45.09C47.7637 45.2207 47.8104 45.3257 47.9037 45.405C47.997 45.4797 48.1254 45.517 48.2887 45.517C48.452 45.517 48.6387 45.4773 48.8487 45.398C49.0587 45.3187 49.3014 45.195 49.5767 45.027V44.327C48.97 44.3643 48.515 44.446 48.2117 44.572C47.913 44.6933 47.7637 44.866 47.7637 45.09ZM53.7958 42.5H54.4818L52.6338 46.098H52.5008L50.7788 42.5H51.4718L52.5918 44.971L53.7958 42.5ZM57.5489 45.419H59.8589L59.5299 46H56.5269L56.4709 45.874L58.1929 43.781C58.4729 43.445 58.6573 43.1837 58.7459 42.997C58.8393 42.8103 58.8859 42.619 58.8859 42.423C58.8859 42.1943 58.8113 42.0053 58.6619 41.856C58.5126 41.702 58.3213 41.625 58.0879 41.625C57.8453 41.625 57.6096 41.7043 57.3809 41.863C57.1523 42.0217 56.9189 42.269 56.6809 42.605L56.6669 42.598L56.5619 41.87C56.7813 41.59 57.0193 41.38 57.2759 41.24C57.5373 41.1 57.8219 41.03 58.1299 41.03C58.5499 41.03 58.8883 41.1537 59.1449 41.401C59.4016 41.6437 59.5299 41.9657 59.5299 42.367C59.5299 42.6283 59.4739 42.878 59.3619 43.116C59.2499 43.3493 59.0399 43.6503 58.7319 44.019L57.5489 45.419Z" fill="black"/>
<path d="M12.344 46H11.7V41.1H12.323L15.417 44.621V41.1H16.054V46.035H15.823L12.344 42.073V46ZM20.2067 43.872V45.916L19.5767 46.056V45.433C19.3154 45.643 19.068 45.7993 18.8347 45.902C18.606 46.0047 18.382 46.056 18.1627 46.056C17.8547 46.056 17.605 45.972 17.4137 45.804C17.2224 45.6313 17.1267 45.4027 17.1267 45.118C17.1267 44.7167 17.3274 44.4203 17.7287 44.229C18.13 44.033 18.746 43.9303 19.5767 43.921V43.907C19.5767 43.6177 19.5067 43.3983 19.3667 43.249C19.2314 43.095 19.033 43.018 18.7717 43.018C18.5757 43.018 18.3727 43.06 18.1627 43.144C17.9574 43.228 17.745 43.354 17.5257 43.522L17.5117 43.515L17.6447 42.808C17.8314 42.682 18.025 42.5887 18.2257 42.528C18.431 42.4673 18.6457 42.437 18.8697 42.437C19.299 42.437 19.628 42.5607 19.8567 42.808C20.09 43.0553 20.2067 43.41 20.2067 43.872ZM17.7637 45.09C17.7637 45.2207 17.8104 45.3257 17.9037 45.405C17.997 45.4797 18.1254 45.517 18.2887 45.517C18.452 45.517 18.6387 45.4773 18.8487 45.398C19.0587 45.3187 19.3014 45.195 19.5767 45.027V44.327C18.97 44.3643 18.515 44.446 18.2117 44.572C17.913 44.6933 17.7637 44.866 17.7637 45.09ZM23.7958 42.5H24.4818L22.6338 46.098H22.5008L20.7788 42.5H21.4718L22.5918 44.971L23.7958 42.5ZM26.4499 42.85L26.4359 42.843V42.157L28.2419 41.009L28.3609 41.044V46H27.7099V42.045L26.4499 42.85Z" fill="black"/>
<path d="M11 51H178" stroke="black"/>
<path d="M18.23 29.39C18.23 31.16 16.685 32.225 14.675 32.225C13.52 32.225 12.635 31.895 12.065 31.64L11.795 29.255H12.125C12.26 29.915 12.68 30.695 13.265 31.085C13.655 31.34 14.27 31.655 14.945 31.655C16.28 31.655 16.94 30.875 16.94 29.96C16.94 28.91 16.295 28.4 14.96 27.89C12.98 27.125 12.155 26.465 12.155 25.04C12.155 23.39 13.7 22.265 15.815 22.265C16.805 22.265 17.51 22.49 18.02 22.715V25.055H17.69C17.63 24.38 17.405 23.63 16.82 23.3C16.58 23.165 16.115 22.865 15.425 22.865C14.015 22.865 13.445 23.615 13.445 24.425C13.445 25.37 13.76 25.835 15.56 26.6C17.39 27.38 18.23 27.98 18.23 29.39ZM21.7738 22.7C21.7738 23.06 21.4438 23.45 20.9788 23.45C20.4988 23.45 20.1688 23.06 20.1688 22.7C20.1688 22.325 20.4988 21.92 20.9788 21.92C21.4438 21.92 21.7738 22.325 21.7738 22.7ZM22.6138 31.64V32H19.4338V31.64C20.1688 31.58 20.2888 31.445 20.4388 31.19L20.4538 27.11C20.4538 26.765 20.2588 26.495 19.4938 26.3V26.03L21.4288 25.325H21.6088V31.19C21.7738 31.49 21.8638 31.565 22.6138 31.64ZM27.6942 31.085V31.385C27.3042 31.7 26.3892 32.12 25.8492 32.12C24.4842 32.12 24.0792 31.385 24.0792 30.185C24.0792 28.76 24.1692 27.695 24.1992 26.27L23.3742 26.285V25.97L25.1592 24.2H25.3542L25.3392 25.595H27.5742V26.3L25.3542 26.285C25.3242 27.8 25.2942 28.655 25.2942 29.99C25.2942 30.83 25.8192 31.355 26.7042 31.355C27.0492 31.355 27.5442 31.145 27.6942 31.085ZM33.4603 30.44L33.6853 30.785C32.7703 31.625 32.0803 32.12 30.8503 32.12C29.3053 32.12 28.1203 30.875 28.1203 29.06C28.1203 26.855 29.4403 25.37 31.2553 25.37C32.7703 25.37 33.4753 26.165 33.4753 27.59V27.845L29.3803 27.815C29.3653 27.95 29.3503 28.28 29.3503 28.625C29.3503 30.2 30.4003 31.25 31.6453 31.25C32.5003 31.25 32.8153 30.995 33.4603 30.44ZM29.4403 27.41L32.2603 27.38C32.2603 26.57 31.6603 25.82 30.9853 25.82C30.1903 25.82 29.6053 26.42 29.4403 27.41ZM46.7718 22.385V24.92H46.4718C46.4418 23.645 45.7668 23.195 44.6568 23.18L42.9768 23.165V30.83C43.3068 31.535 44.1018 31.625 44.7918 31.655V32H39.7668V31.655C40.4568 31.625 41.4018 31.49 41.6118 31.04V23.165L39.9318 23.18C38.8218 23.195 38.1618 23.645 38.1318 24.92H37.8168V22.385H38.1018C38.2968 22.445 38.5068 22.49 39.0018 22.49H45.5868C45.9618 22.49 46.2918 22.445 46.4868 22.385H46.7718ZM49.43 22.7C49.43 23.06 49.1 23.45 48.635 23.45C48.155 23.45 47.825 23.06 47.825 22.7C47.825 22.325 48.155 21.92 48.635 21.92C49.1 21.92 49.43 22.325 49.43 22.7ZM50.27 31.64V32H47.09V31.64C47.825 31.58 47.945 31.445 48.095 31.19L48.11 27.11C48.11 26.765 47.915 26.495 47.15 26.3V26.03L49.085 25.325H49.265V31.19C49.43 31.49 49.52 31.565 50.27 31.64ZM55.3504 31.085V31.385C54.9604 31.7 54.0454 32.12 53.5054 32.12C52.1404 32.12 51.7354 31.385 51.7354 30.185C51.7354 28.76 51.8254 27.695 51.8554 26.27L51.0304 26.285V25.97L52.8154 24.2H53.0104L52.9954 25.595H55.2304V26.3L53.0104 26.285C52.9804 27.8 52.9504 28.655 52.9504 29.99C52.9504 30.83 53.4754 31.355 54.3604 31.355C54.7054 31.355 55.2004 31.145 55.3504 31.085ZM58.9415 31.655V32H55.6415V31.655C56.3615 31.61 56.5415 31.46 56.6615 31.205V23.165C56.6615 22.655 56.6915 22.445 55.6565 22.34V22.055L57.9065 21.38H58.1465V21.59L57.8615 22.1V31.205C58.0115 31.505 58.1915 31.58 58.9415 31.655ZM64.9837 30.44L65.2087 30.785C64.2937 31.625 63.6037 32.12 62.3737 32.12C60.8287 32.12 59.6437 30.875 59.6437 29.06C59.6437 26.855 60.9637 25.37 62.7787 25.37C64.2937 25.37 64.9987 26.165 64.9987 27.59V27.845L60.9037 27.815C60.8887 27.95 60.8737 28.28 60.8737 28.625C60.8737 30.2 61.9237 31.25 63.1687 31.25C64.0237 31.25 64.3387 30.995 64.9837 30.44ZM60.9637 27.41L63.7837 27.38C63.7837 26.57 63.1837 25.82 62.5087 25.82C61.7137 25.82 61.1287 26.42 60.9637 27.41Z" fill="black"/>
</svg>
