<svg width="190" height="137" viewBox="0 0 190 137" fill="none" xmlns="http://www.w3.org/2000/svg">
<rect x="0.5" y="0.5" width="188.253" height="135.205" rx="8.5" fill="white" stroke="#8C8C8C"/>
<rect width="167" height="52" transform="matrix(-1 0 0 1 178 51)" fill="#C9C8CE"/>
<path d="M158.344 46H157.7V41.1H158.323L161.417 44.621V41.1H162.054V46.035H161.823L158.344 42.073V46ZM166.207 43.872V45.916L165.577 46.056V45.433C165.315 45.643 165.068 45.7993 164.835 45.902C164.606 46.0047 164.382 46.056 164.163 46.056C163.855 46.056 163.605 45.972 163.414 45.804C163.222 45.6313 163.127 45.4027 163.127 45.118C163.127 44.7167 163.327 44.4203 163.729 44.229C164.13 44.033 164.746 43.9303 165.577 43.921V43.907C165.577 43.6177 165.507 43.3983 165.367 43.249C165.231 43.095 165.033 43.018 164.772 43.018C164.576 43.018 164.373 43.06 164.163 43.144C163.957 43.228 163.745 43.354 163.526 43.522L163.512 43.515L163.645 42.808C163.831 42.682 164.025 42.5887 164.226 42.528C164.431 42.4673 164.646 42.437 164.87 42.437C165.299 42.437 165.628 42.5607 165.857 42.808C166.09 43.0553 166.207 43.41 166.207 43.872ZM163.764 45.09C163.764 45.2207 163.81 45.3257 163.904 45.405C163.997 45.4797 164.125 45.517 164.289 45.517C164.452 45.517 164.639 45.4773 164.849 45.398C165.059 45.3187 165.301 45.195 165.577 45.027V44.327C164.97 44.3643 164.515 44.446 164.212 44.572C163.913 44.6933 163.764 44.866 163.764 45.09ZM169.796 42.5H170.482L168.634 46.098H168.501L166.779 42.5H167.472L168.592 44.971L169.796 42.5ZM174.508 43.431C174.849 43.529 175.112 43.69 175.299 43.914C175.486 44.138 175.579 44.397 175.579 44.691C175.579 45.0877 175.42 45.419 175.103 45.685C174.79 45.9463 174.408 46.077 173.955 46.077C173.708 46.077 173.486 46.0513 173.29 46C173.099 45.944 172.87 45.8343 172.604 45.671L172.485 44.908L172.499 44.901C172.793 45.1157 173.047 45.2673 173.262 45.356C173.477 45.44 173.701 45.482 173.934 45.482C174.214 45.482 174.445 45.4073 174.627 45.258C174.814 45.1087 174.907 44.9173 174.907 44.684C174.907 44.404 174.776 44.1823 174.515 44.019C174.258 43.851 173.852 43.7273 173.297 43.648V43.396C173.838 43.2233 174.223 43.053 174.452 42.885C174.681 42.717 174.795 42.5163 174.795 42.283C174.795 42.0823 174.723 41.9213 174.578 41.8C174.438 41.6787 174.251 41.618 174.018 41.618C173.817 41.618 173.61 41.6647 173.395 41.758C173.18 41.8467 172.935 41.9937 172.66 42.199H172.646V41.478C172.926 41.3007 173.171 41.1817 173.381 41.121C173.591 41.0557 173.817 41.023 174.06 41.023C174.489 41.023 174.83 41.1303 175.082 41.345C175.334 41.5597 175.46 41.849 175.46 42.213C175.46 42.465 175.378 42.6937 175.215 42.899C175.056 43.1043 174.821 43.2817 174.508 43.431Z" fill="black"/>
<path d="M126.344 46H125.7V41.1H126.323L129.417 44.621V41.1H130.054V46.035H129.823L126.344 42.073V46ZM134.207 43.872V45.916L133.577 46.056V45.433C133.315 45.643 133.068 45.7993 132.835 45.902C132.606 46.0047 132.382 46.056 132.163 46.056C131.855 46.056 131.605 45.972 131.414 45.804C131.222 45.6313 131.127 45.4027 131.127 45.118C131.127 44.7167 131.327 44.4203 131.729 44.229C132.13 44.033 132.746 43.9303 133.577 43.921V43.907C133.577 43.6177 133.507 43.3983 133.367 43.249C133.231 43.095 133.033 43.018 132.772 43.018C132.576 43.018 132.373 43.06 132.163 43.144C131.957 43.228 131.745 43.354 131.526 43.522L131.512 43.515L131.645 42.808C131.831 42.682 132.025 42.5887 132.226 42.528C132.431 42.4673 132.646 42.437 132.87 42.437C133.299 42.437 133.628 42.5607 133.857 42.808C134.09 43.0553 134.207 43.41 134.207 43.872ZM131.764 45.09C131.764 45.2207 131.81 45.3257 131.904 45.405C131.997 45.4797 132.125 45.517 132.289 45.517C132.452 45.517 132.639 45.4773 132.849 45.398C133.059 45.3187 133.301 45.195 133.577 45.027V44.327C132.97 44.3643 132.515 44.446 132.212 44.572C131.913 44.6933 131.764 44.866 131.764 45.09ZM137.796 42.5H138.482L136.634 46.098H136.501L134.779 42.5H135.472L136.592 44.971L137.796 42.5ZM141.549 45.419H143.859L143.53 46H140.527L140.471 45.874L142.193 43.781C142.473 43.445 142.657 43.1837 142.746 42.997C142.839 42.8103 142.886 42.619 142.886 42.423C142.886 42.1943 142.811 42.0053 142.662 41.856C142.513 41.702 142.321 41.625 142.088 41.625C141.845 41.625 141.61 41.7043 141.381 41.863C141.152 42.0217 140.919 42.269 140.681 42.605L140.667 42.598L140.562 41.87C140.781 41.59 141.019 41.38 141.276 41.24C141.537 41.1 141.822 41.03 142.13 41.03C142.55 41.03 142.888 41.1537 143.145 41.401C143.402 41.6437 143.53 41.9657 143.53 42.367C143.53 42.6283 143.474 42.878 143.362 43.116C143.25 43.3493 143.04 43.6503 142.732 44.019L141.549 45.419Z" fill="black"/>
<path d="M96.344 46H95.7V41.1H96.323L99.417 44.621V41.1H100.054V46.035H99.823L96.344 42.073V46ZM104.207 43.872V45.916L103.577 46.056V45.433C103.315 45.643 103.068 45.7993 102.835 45.902C102.606 46.0047 102.382 46.056 102.163 46.056C101.855 46.056 101.605 45.972 101.414 45.804C101.222 45.6313 101.127 45.4027 101.127 45.118C101.127 44.7167 101.327 44.4203 101.729 44.229C102.13 44.033 102.746 43.9303 103.577 43.921V43.907C103.577 43.6177 103.507 43.3983 103.367 43.249C103.231 43.095 103.033 43.018 102.772 43.018C102.576 43.018 102.373 43.06 102.163 43.144C101.957 43.228 101.745 43.354 101.526 43.522L101.512 43.515L101.645 42.808C101.831 42.682 102.025 42.5887 102.226 42.528C102.431 42.4673 102.646 42.437 102.87 42.437C103.299 42.437 103.628 42.5607 103.857 42.808C104.09 43.0553 104.207 43.41 104.207 43.872ZM101.764 45.09C101.764 45.2207 101.81 45.3257 101.904 45.405C101.997 45.4797 102.125 45.517 102.289 45.517C102.452 45.517 102.639 45.4773 102.849 45.398C103.059 45.3187 103.301 45.195 103.577 45.027V44.327C102.97 44.3643 102.515 44.446 102.212 44.572C101.913 44.6933 101.764 44.866 101.764 45.09ZM107.796 42.5H108.482L106.634 46.098H106.501L104.779 42.5H105.472L106.592 44.971L107.796 42.5ZM110.45 42.85L110.436 42.843V42.157L112.242 41.009L112.361 41.044V46H111.71V42.045L110.45 42.85Z" fill="black"/>
<path d="M11 51H178" stroke="black"/>
<path d="M18.23 43.39C18.23 45.16 16.685 46.225 14.675 46.225C13.52 46.225 12.635 45.895 12.065 45.64L11.795 43.255H12.125C12.26 43.915 12.68 44.695 13.265 45.085C13.655 45.34 14.27 45.655 14.945 45.655C16.28 45.655 16.94 44.875 16.94 43.96C16.94 42.91 16.295 42.4 14.96 41.89C12.98 41.125 12.155 40.465 12.155 39.04C12.155 37.39 13.7 36.265 15.815 36.265C16.805 36.265 17.51 36.49 18.02 36.715V39.055H17.69C17.63 38.38 17.405 37.63 16.82 37.3C16.58 37.165 16.115 36.865 15.425 36.865C14.015 36.865 13.445 37.615 13.445 38.425C13.445 39.37 13.76 39.835 15.56 40.6C17.39 41.38 18.23 41.98 18.23 43.39ZM21.7738 36.7C21.7738 37.06 21.4438 37.45 20.9788 37.45C20.4988 37.45 20.1688 37.06 20.1688 36.7C20.1688 36.325 20.4988 35.92 20.9788 35.92C21.4438 35.92 21.7738 36.325 21.7738 36.7ZM22.6138 45.64V46H19.4338V45.64C20.1688 45.58 20.2888 45.445 20.4388 45.19L20.4538 41.11C20.4538 40.765 20.2588 40.495 19.4938 40.3V40.03L21.4288 39.325H21.6088V45.19C21.7738 45.49 21.8638 45.565 22.6138 45.64ZM27.6942 45.085V45.385C27.3042 45.7 26.3892 46.12 25.8492 46.12C24.4842 46.12 24.0792 45.385 24.0792 44.185C24.0792 42.76 24.1692 41.695 24.1992 40.27L23.3742 40.285V39.97L25.1592 38.2H25.3542L25.3392 39.595H27.5742V40.3L25.3542 40.285C25.3242 41.8 25.2942 42.655 25.2942 43.99C25.2942 44.83 25.8192 45.355 26.7042 45.355C27.0492 45.355 27.5442 45.145 27.6942 45.085ZM33.4603 44.44L33.6853 44.785C32.7703 45.625 32.0803 46.12 30.8503 46.12C29.3053 46.12 28.1203 44.875 28.1203 43.06C28.1203 40.855 29.4403 39.37 31.2553 39.37C32.7703 39.37 33.4753 40.165 33.4753 41.59V41.845L29.3803 41.815C29.3653 41.95 29.3503 42.28 29.3503 42.625C29.3503 44.2 30.4003 45.25 31.6453 45.25C32.5003 45.25 32.8153 44.995 33.4603 44.44ZM29.4403 41.41L32.2603 41.38C32.2603 40.57 31.6603 39.82 30.9853 39.82C30.1903 39.82 29.6053 40.42 29.4403 41.41ZM46.7718 36.385V38.92H46.4718C46.4418 37.645 45.7668 37.195 44.6568 37.18L42.9768 37.165V44.83C43.3068 45.535 44.1018 45.625 44.7918 45.655V46H39.7668V45.655C40.4568 45.625 41.4018 45.49 41.6118 45.04V37.165L39.9318 37.18C38.8218 37.195 38.1618 37.645 38.1318 38.92H37.8168V36.385H38.1018C38.2968 36.445 38.5068 36.49 39.0018 36.49H45.5868C45.9618 36.49 46.2918 36.445 46.4868 36.385H46.7718ZM49.43 36.7C49.43 37.06 49.1 37.45 48.635 37.45C48.155 37.45 47.825 37.06 47.825 36.7C47.825 36.325 48.155 35.92 48.635 35.92C49.1 35.92 49.43 36.325 49.43 36.7ZM50.27 45.64V46H47.09V45.64C47.825 45.58 47.945 45.445 48.095 45.19L48.11 41.11C48.11 40.765 47.915 40.495 47.15 40.3V40.03L49.085 39.325H49.265V45.19C49.43 45.49 49.52 45.565 50.27 45.64ZM55.3504 45.085V45.385C54.9604 45.7 54.0454 46.12 53.5054 46.12C52.1404 46.12 51.7354 45.385 51.7354 44.185C51.7354 42.76 51.8254 41.695 51.8554 40.27L51.0304 40.285V39.97L52.8154 38.2H53.0104L52.9954 39.595H55.2304V40.3L53.0104 40.285C52.9804 41.8 52.9504 42.655 52.9504 43.99C52.9504 44.83 53.4754 45.355 54.3604 45.355C54.7054 45.355 55.2004 45.145 55.3504 45.085ZM58.9415 45.655V46H55.6415V45.655C56.3615 45.61 56.5415 45.46 56.6615 45.205V37.165C56.6615 36.655 56.6915 36.445 55.6565 36.34V36.055L57.9065 35.38H58.1465V35.59L57.8615 36.1V45.205C58.0115 45.505 58.1915 45.58 58.9415 45.655ZM64.9837 44.44L65.2087 44.785C64.2937 45.625 63.6037 46.12 62.3737 46.12C60.8287 46.12 59.6437 44.875 59.6437 43.06C59.6437 40.855 60.9637 39.37 62.7787 39.37C64.2937 39.37 64.9987 40.165 64.9987 41.59V41.845L60.9037 41.815C60.8887 41.95 60.8737 42.28 60.8737 42.625C60.8737 44.2 61.9237 45.25 63.1687 45.25C64.0237 45.25 64.3387 44.995 64.9837 44.44ZM60.9637 41.41L63.7837 41.38C63.7837 40.57 63.1837 39.82 62.5087 39.82C61.7137 39.82 61.1287 40.42 60.9637 41.41Z" fill="black"/>
</svg>
