<svg width="190" height="137" viewBox="0 0 190 137" fill="none" xmlns="http://www.w3.org/2000/svg">
<rect x="0.5" y="0.5" width="188.253" height="135.205" rx="8.5" fill="white" stroke="#8C8C8C"/>
<rect width="167" height="52" transform="matrix(-1 0 0 1 178 51)" fill="#C9C8CE"/>
<path d="M120.344 46H119.7V41.1H120.323L123.417 44.621V41.1H124.054V46.035H123.823L120.344 42.073V46ZM128.207 43.872V45.916L127.577 46.056V45.433C127.315 45.643 127.068 45.7993 126.835 45.902C126.606 46.0047 126.382 46.056 126.163 46.056C125.855 46.056 125.605 45.972 125.414 45.804C125.222 45.6313 125.127 45.4027 125.127 45.118C125.127 44.7167 125.327 44.4203 125.729 44.229C126.13 44.033 126.746 43.9303 127.577 43.921V43.907C127.577 43.6177 127.507 43.3983 127.367 43.249C127.231 43.095 127.033 43.018 126.772 43.018C126.576 43.018 126.373 43.06 126.163 43.144C125.957 43.228 125.745 43.354 125.526 43.522L125.512 43.515L125.645 42.808C125.831 42.682 126.025 42.5887 126.226 42.528C126.431 42.4673 126.646 42.437 126.87 42.437C127.299 42.437 127.628 42.5607 127.857 42.808C128.09 43.0553 128.207 43.41 128.207 43.872ZM125.764 45.09C125.764 45.2207 125.81 45.3257 125.904 45.405C125.997 45.4797 126.125 45.517 126.289 45.517C126.452 45.517 126.639 45.4773 126.849 45.398C127.059 45.3187 127.301 45.195 127.577 45.027V44.327C126.97 44.3643 126.515 44.446 126.212 44.572C125.913 44.6933 125.764 44.866 125.764 45.09ZM131.796 42.5H132.482L130.634 46.098H130.501L128.779 42.5H129.472L130.592 44.971L131.796 42.5ZM136.508 43.431C136.849 43.529 137.112 43.69 137.299 43.914C137.486 44.138 137.579 44.397 137.579 44.691C137.579 45.0877 137.42 45.419 137.103 45.685C136.79 45.9463 136.408 46.077 135.955 46.077C135.708 46.077 135.486 46.0513 135.29 46C135.099 45.944 134.87 45.8343 134.604 45.671L134.485 44.908L134.499 44.901C134.793 45.1157 135.047 45.2673 135.262 45.356C135.477 45.44 135.701 45.482 135.934 45.482C136.214 45.482 136.445 45.4073 136.627 45.258C136.814 45.1087 136.907 44.9173 136.907 44.684C136.907 44.404 136.776 44.1823 136.515 44.019C136.258 43.851 135.852 43.7273 135.297 43.648V43.396C135.838 43.2233 136.223 43.053 136.452 42.885C136.681 42.717 136.795 42.5163 136.795 42.283C136.795 42.0823 136.723 41.9213 136.578 41.8C136.438 41.6787 136.251 41.618 136.018 41.618C135.817 41.618 135.61 41.6647 135.395 41.758C135.18 41.8467 134.935 41.9937 134.66 42.199H134.646V41.478C134.926 41.3007 135.171 41.1817 135.381 41.121C135.591 41.0557 135.817 41.023 136.06 41.023C136.489 41.023 136.83 41.1303 137.082 41.345C137.334 41.5597 137.46 41.849 137.46 42.213C137.46 42.465 137.378 42.6937 137.215 42.899C137.056 43.1043 136.821 43.2817 136.508 43.431Z" fill="black"/>
<path d="M88.344 46H87.7V41.1H88.323L91.417 44.621V41.1H92.054V46.035H91.823L88.344 42.073V46ZM96.2067 43.872V45.916L95.5767 46.056V45.433C95.3154 45.643 95.068 45.7993 94.8347 45.902C94.606 46.0047 94.382 46.056 94.1627 46.056C93.8547 46.056 93.605 45.972 93.4137 45.804C93.2224 45.6313 93.1267 45.4027 93.1267 45.118C93.1267 44.7167 93.3274 44.4203 93.7287 44.229C94.13 44.033 94.746 43.9303 95.5767 43.921V43.907C95.5767 43.6177 95.5067 43.3983 95.3667 43.249C95.2314 43.095 95.033 43.018 94.7717 43.018C94.5757 43.018 94.3727 43.06 94.1627 43.144C93.9574 43.228 93.745 43.354 93.5257 43.522L93.5117 43.515L93.6447 42.808C93.8314 42.682 94.025 42.5887 94.2257 42.528C94.431 42.4673 94.6457 42.437 94.8697 42.437C95.299 42.437 95.628 42.5607 95.8567 42.808C96.09 43.0553 96.2067 43.41 96.2067 43.872ZM93.7637 45.09C93.7637 45.2207 93.8104 45.3257 93.9037 45.405C93.997 45.4797 94.1254 45.517 94.2887 45.517C94.452 45.517 94.6387 45.4773 94.8487 45.398C95.0587 45.3187 95.3014 45.195 95.5767 45.027V44.327C94.97 44.3643 94.515 44.446 94.2117 44.572C93.913 44.6933 93.7637 44.866 93.7637 45.09ZM99.7958 42.5H100.482L98.6338 46.098H98.5008L96.7788 42.5H97.4718L98.5918 44.971L99.7958 42.5ZM103.549 45.419H105.859L105.53 46H102.527L102.471 45.874L104.193 43.781C104.473 43.445 104.657 43.1837 104.746 42.997C104.839 42.8103 104.886 42.619 104.886 42.423C104.886 42.1943 104.811 42.0053 104.662 41.856C104.513 41.702 104.321 41.625 104.088 41.625C103.845 41.625 103.61 41.7043 103.381 41.863C103.152 42.0217 102.919 42.269 102.681 42.605L102.667 42.598L102.562 41.87C102.781 41.59 103.019 41.38 103.276 41.24C103.537 41.1 103.822 41.03 104.13 41.03C104.55 41.03 104.888 41.1537 105.145 41.401C105.402 41.6437 105.53 41.9657 105.53 42.367C105.53 42.6283 105.474 42.878 105.362 43.116C105.25 43.3493 105.04 43.6503 104.732 44.019L103.549 45.419Z" fill="black"/>
<path d="M57.344 46H56.7V41.1H57.323L60.417 44.621V41.1H61.054V46.035H60.823L57.344 42.073V46ZM65.2067 43.872V45.916L64.5767 46.056V45.433C64.3154 45.643 64.068 45.7993 63.8347 45.902C63.606 46.0047 63.382 46.056 63.1627 46.056C62.8547 46.056 62.605 45.972 62.4137 45.804C62.2224 45.6313 62.1267 45.4027 62.1267 45.118C62.1267 44.7167 62.3274 44.4203 62.7287 44.229C63.13 44.033 63.746 43.9303 64.5767 43.921V43.907C64.5767 43.6177 64.5067 43.3983 64.3667 43.249C64.2314 43.095 64.033 43.018 63.7717 43.018C63.5757 43.018 63.3727 43.06 63.1627 43.144C62.9574 43.228 62.745 43.354 62.5257 43.522L62.5117 43.515L62.6447 42.808C62.8314 42.682 63.025 42.5887 63.2257 42.528C63.431 42.4673 63.6457 42.437 63.8697 42.437C64.299 42.437 64.628 42.5607 64.8567 42.808C65.09 43.0553 65.2067 43.41 65.2067 43.872ZM62.7637 45.09C62.7637 45.2207 62.8104 45.3257 62.9037 45.405C62.997 45.4797 63.1254 45.517 63.2887 45.517C63.452 45.517 63.6387 45.4773 63.8487 45.398C64.0587 45.3187 64.3014 45.195 64.5767 45.027V44.327C63.97 44.3643 63.515 44.446 63.2117 44.572C62.913 44.6933 62.7637 44.866 62.7637 45.09ZM68.7958 42.5H69.4818L67.6338 46.098H67.5008L65.7788 42.5H66.4718L67.5918 44.971L68.7958 42.5ZM71.4499 42.85L71.4359 42.843V42.157L73.2419 41.009L73.3609 41.044V46H72.7099V42.045L71.4499 42.85Z" fill="black"/>
<path d="M11 51H178" stroke="black"/>
<path d="M76.23 29.39C76.23 31.16 74.685 32.225 72.675 32.225C71.52 32.225 70.635 31.895 70.065 31.64L69.795 29.255H70.125C70.26 29.915 70.68 30.695 71.265 31.085C71.655 31.34 72.27 31.655 72.945 31.655C74.28 31.655 74.94 30.875 74.94 29.96C74.94 28.91 74.295 28.4 72.96 27.89C70.98 27.125 70.155 26.465 70.155 25.04C70.155 23.39 71.7 22.265 73.815 22.265C74.805 22.265 75.51 22.49 76.02 22.715V25.055H75.69C75.63 24.38 75.405 23.63 74.82 23.3C74.58 23.165 74.115 22.865 73.425 22.865C72.015 22.865 71.445 23.615 71.445 24.425C71.445 25.37 71.76 25.835 73.56 26.6C75.39 27.38 76.23 27.98 76.23 29.39ZM79.7738 22.7C79.7738 23.06 79.4438 23.45 78.9788 23.45C78.4988 23.45 78.1688 23.06 78.1688 22.7C78.1688 22.325 78.4988 21.92 78.9788 21.92C79.4438 21.92 79.7738 22.325 79.7738 22.7ZM80.6138 31.64V32H77.4338V31.64C78.1688 31.58 78.2888 31.445 78.4388 31.19L78.4538 27.11C78.4538 26.765 78.2588 26.495 77.4938 26.3V26.03L79.4288 25.325H79.6088V31.19C79.7738 31.49 79.8638 31.565 80.6138 31.64ZM85.6942 31.085V31.385C85.3042 31.7 84.3892 32.12 83.8492 32.12C82.4842 32.12 82.0792 31.385 82.0792 30.185C82.0792 28.76 82.1692 27.695 82.1992 26.27L81.3742 26.285V25.97L83.1592 24.2H83.3542L83.3392 25.595H85.5742V26.3L83.3542 26.285C83.3242 27.8 83.2942 28.655 83.2942 29.99C83.2942 30.83 83.8192 31.355 84.7042 31.355C85.0492 31.355 85.5442 31.145 85.6942 31.085ZM91.4603 30.44L91.6853 30.785C90.7703 31.625 90.0803 32.12 88.8503 32.12C87.3053 32.12 86.1203 30.875 86.1203 29.06C86.1203 26.855 87.4403 25.37 89.2553 25.37C90.7703 25.37 91.4753 26.165 91.4753 27.59V27.845L87.3803 27.815C87.3653 27.95 87.3503 28.28 87.3503 28.625C87.3503 30.2 88.4003 31.25 89.6453 31.25C90.5003 31.25 90.8153 30.995 91.4603 30.44ZM87.4403 27.41L90.2603 27.38C90.2603 26.57 89.6603 25.82 88.9853 25.82C88.1903 25.82 87.6053 26.42 87.4403 27.41ZM104.772 22.385V24.92H104.472C104.442 23.645 103.767 23.195 102.657 23.18L100.977 23.165V30.83C101.307 31.535 102.102 31.625 102.792 31.655V32H97.7668V31.655C98.4568 31.625 99.4018 31.49 99.6118 31.04V23.165L97.9318 23.18C96.8218 23.195 96.1618 23.645 96.1318 24.92H95.8168V22.385H96.1018C96.2968 22.445 96.5068 22.49 97.0018 22.49H103.587C103.962 22.49 104.292 22.445 104.487 22.385H104.772ZM107.43 22.7C107.43 23.06 107.1 23.45 106.635 23.45C106.155 23.45 105.825 23.06 105.825 22.7C105.825 22.325 106.155 21.92 106.635 21.92C107.1 21.92 107.43 22.325 107.43 22.7ZM108.27 31.64V32H105.09V31.64C105.825 31.58 105.945 31.445 106.095 31.19L106.11 27.11C106.11 26.765 105.915 26.495 105.15 26.3V26.03L107.085 25.325H107.265V31.19C107.43 31.49 107.52 31.565 108.27 31.64ZM113.35 31.085V31.385C112.96 31.7 112.045 32.12 111.505 32.12C110.14 32.12 109.735 31.385 109.735 30.185C109.735 28.76 109.825 27.695 109.855 26.27L109.03 26.285V25.97L110.815 24.2H111.01L110.995 25.595H113.23V26.3L111.01 26.285C110.98 27.8 110.95 28.655 110.95 29.99C110.95 30.83 111.475 31.355 112.36 31.355C112.705 31.355 113.2 31.145 113.35 31.085ZM116.942 31.655V32H113.642V31.655C114.362 31.61 114.542 31.46 114.662 31.205V23.165C114.662 22.655 114.692 22.445 113.657 22.34V22.055L115.907 21.38H116.147V21.59L115.862 22.1V31.205C116.012 31.505 116.192 31.58 116.942 31.655ZM122.984 30.44L123.209 30.785C122.294 31.625 121.604 32.12 120.374 32.12C118.829 32.12 117.644 30.875 117.644 29.06C117.644 26.855 118.964 25.37 120.779 25.37C122.294 25.37 122.999 26.165 122.999 27.59V27.845L118.904 27.815C118.889 27.95 118.874 28.28 118.874 28.625C118.874 30.2 119.924 31.25 121.169 31.25C122.024 31.25 122.339 30.995 122.984 30.44ZM118.964 27.41L121.784 27.38C121.784 26.57 121.184 25.82 120.509 25.82C119.714 25.82 119.129 26.42 118.964 27.41Z" fill="black"/>
</svg>
