<svg width="501" height="261" viewBox="0 0 501 261" fill="none" xmlns="http://www.w3.org/2000/svg">
<rect width="501" height="261" fill="white"/>
<rect x="98" y="43" width="149.674" height="85" rx="5" fill="#EEEEEE"/>
<path d="M133.078 88.7L98 119.223V123C98 125.761 100.239 128 103 128H242.674C245.435 128 247.674 125.761 247.674 123V98.6658L206.008 75.2146C205.645 75.0103 205.194 75.0524 204.875 75.3202L169.862 104.722C169.564 104.972 169.146 105.027 168.793 104.86L134.161 88.5497C133.802 88.3808 133.378 88.4398 133.078 88.7Z" fill="#376C74"/>
<circle cx="140.962" cy="64.712" r="3.2337" fill="#376C74"/>
<rect x="98" y="134" width="149.674" height="85" rx="5" fill="#EEEEEE"/>
<path d="M133.078 179.7L98 210.223V214C98 216.761 100.239 219 103 219H242.674C245.435 219 247.674 216.761 247.674 214V189.666L206.008 166.215C205.645 166.01 205.194 166.052 204.875 166.32L169.862 195.722C169.564 195.972 169.146 196.027 168.793 195.86L134.161 179.55C133.802 179.381 133.378 179.44 133.078 179.7Z" fill="#376C74"/>
<circle cx="140.962" cy="155.712" r="3.2337" fill="#376C74"/>
<rect x="253.674" y="43" width="149.674" height="85" rx="5" fill="#EEEEEE"/>
<path d="M288.752 88.7L253.674 119.223V123C253.674 125.761 255.912 128 258.674 128H398.348C401.109 128 403.348 125.761 403.348 123V98.6658L361.682 75.2146C361.319 75.0103 360.867 75.0524 360.549 75.3202L325.536 104.722C325.237 104.972 324.82 105.027 324.467 104.86L289.835 88.5497C289.476 88.3808 289.051 88.4398 288.752 88.7Z" fill="#376C74"/>
<circle cx="296.636" cy="64.712" r="3.2337" fill="#376C74"/>
<rect x="253.674" y="134" width="149.674" height="85" rx="5" fill="#EEEEEE"/>
<path d="M288.752 179.7L253.674 210.223V214C253.674 216.761 255.912 219 258.674 219H398.348C401.109 219 403.348 216.761 403.348 214V189.666L361.682 166.215C361.319 166.01 360.867 166.052 360.549 166.32L325.536 195.722C325.237 195.972 324.82 196.027 324.467 195.86L289.835 179.55C289.476 179.381 289.051 179.44 288.752 179.7Z" fill="#376C74"/>
<circle cx="296.636" cy="155.712" r="3.2337" fill="#376C74"/>
</svg>
