<svg width="501" height="261" viewBox="0 0 501 261" fill="none" xmlns="http://www.w3.org/2000/svg">
<rect width="501" height="261" fill="white"/>
<rect x="143" y="11" width="216" height="239" fill="white" stroke="#376C74" stroke-width="2"/>
<path d="M177.414 27.792C177.414 29.844 175.938 31.41 173.13 31.41C172.698 31.41 172.41 31.32 171.852 31.176V34.686C172.104 35.28 173.184 35.55 174.012 35.586V36H168.252V35.586C169.08 35.55 169.962 35.37 170.214 34.776V25.65C170.034 25.236 169.188 25.002 168.36 24.966V24.57C170.358 24.57 172.086 24.516 172.914 24.516C175.974 24.516 177.414 25.776 177.414 27.792ZM175.65 27.72C175.65 26.316 174.714 25.164 172.986 25.164C172.698 25.164 172.266 25.164 171.852 25.2V30.726C172.248 30.798 172.518 30.798 172.86 30.798C174.678 30.798 175.65 29.556 175.65 27.72ZM184.238 28.44L183.5 29.916H183.32C182.762 29.592 182.366 29.412 181.898 29.412C181.43 29.412 181.232 29.682 180.818 30.06V34.992C181.016 35.352 181.7 35.442 182.474 35.55V36H178.28V35.568C179.162 35.496 179.252 35.334 179.414 35.028V30.078C179.414 29.718 179.18 29.412 178.28 29.196V28.854L180.566 28.008H180.746L180.782 29.718C181.592 28.854 182.312 28.098 182.96 28.098C183.41 28.098 183.824 28.242 184.238 28.44ZM191.015 34.128L191.285 34.542C190.187 35.55 189.359 36.144 187.883 36.144C186.029 36.144 184.607 34.65 184.607 32.472C184.607 29.826 186.191 28.044 188.369 28.044C190.187 28.044 191.033 28.998 191.033 30.708V31.014L186.119 30.978C186.101 31.14 186.083 31.536 186.083 31.95C186.083 33.84 187.343 35.1 188.837 35.1C189.863 35.1 190.241 34.794 191.015 34.128ZM186.191 30.492L189.575 30.456C189.575 29.484 188.855 28.584 188.045 28.584C187.091 28.584 186.389 29.304 186.191 30.492ZM197.861 31.176V32.346H192.785V31.176H197.861ZM208.449 32.31C208.449 34.794 206.829 36 203.805 36H198.693V35.586C199.521 35.55 200.601 35.352 200.853 34.758V25.596C200.691 25.236 199.935 25.002 199.089 24.966V24.57C201.447 24.552 202.455 24.48 203.913 24.48C206.631 24.48 207.801 25.56 207.801 26.856C207.801 27.972 207.369 28.674 205.731 29.376C207.459 29.826 208.449 30.978 208.449 32.31ZM206.109 27.144C206.109 25.956 205.101 25.11 203.355 25.11H202.491V29.232C202.977 29.196 203.463 29.196 203.913 29.196C204.381 29.196 204.795 29.232 205.137 29.232C205.857 28.674 206.109 28.026 206.109 27.144ZM206.667 32.436C206.667 30.762 204.975 29.826 203.301 29.826C202.977 29.826 202.689 29.844 202.491 29.862V34.596C202.797 35.208 203.139 35.424 204.003 35.424C205.821 35.424 206.667 34.146 206.667 32.436ZM218.689 34.92V35.37L216.025 36.234H215.809L215.701 35.01C214.891 35.586 213.505 36.198 212.857 36.198C211.255 36.198 210.823 35.172 210.823 33.696V29.97C210.823 29.34 210.517 29.106 209.635 28.872V28.512L212.083 28.062H212.281L212.263 33.39C212.263 34.344 212.875 35.208 213.937 35.208C214.657 35.208 215.179 34.92 215.701 34.65V29.97C215.701 29.25 215.449 29.016 214.207 28.872V28.512L216.943 28.062H217.105V34.416C217.105 34.794 217.303 35.064 217.465 35.136L218.689 34.92ZM222.167 24.84C222.167 25.272 221.771 25.74 221.213 25.74C220.637 25.74 220.241 25.272 220.241 24.84C220.241 24.39 220.637 23.904 221.213 23.904C221.771 23.904 222.167 24.39 222.167 24.84ZM223.175 35.568V36H219.359V35.568C220.241 35.496 220.385 35.334 220.565 35.028L220.583 30.132C220.583 29.718 220.349 29.394 219.431 29.16V28.836L221.753 27.99H221.969V35.028C222.167 35.388 222.275 35.478 223.175 35.568ZM227.885 35.586V36H223.925V35.586C224.789 35.532 225.005 35.352 225.149 35.046V25.398C225.149 24.786 225.185 24.534 223.943 24.408V24.066L226.643 23.256H226.931V23.508L226.589 24.12V35.046C226.769 35.406 226.985 35.496 227.885 35.586ZM233.912 34.902V35.262C233.444 35.64 232.346 36.144 231.698 36.144C230.06 36.144 229.574 35.262 229.574 33.822C229.574 32.112 229.682 30.834 229.718 29.124L228.728 29.142V28.764L230.87 26.64H231.104L231.086 28.314H233.768V29.16L231.104 29.142C231.068 30.96 231.032 31.986 231.032 33.588C231.032 34.596 231.662 35.226 232.724 35.226C233.138 35.226 233.732 34.974 233.912 34.902ZM246.888 24.462V27.36H246.51C246.438 25.776 245.754 25.398 244.404 25.398H241.866V29.88L244.296 29.79C245.502 29.754 246.024 29.736 246.204 28.422H246.546V32.202H246.168C246.024 30.744 245.556 30.744 244.296 30.726L241.866 30.69V34.686C242.118 35.28 243.126 35.55 243.954 35.586V36H238.338V35.586C239.166 35.55 239.976 35.37 240.228 34.776V25.668C240.048 25.254 239.274 25.02 238.446 24.984V24.588H245.466C245.88 24.588 246.294 24.552 246.546 24.462H246.888ZM255.876 32.094C255.876 34.47 254.166 36.162 251.862 36.162C249.486 36.162 248.064 34.578 248.064 32.022C248.064 29.682 249.756 28.026 252.096 28.026C254.454 28.026 255.876 29.664 255.876 32.094ZM254.256 32.562C254.256 30.222 253.302 28.602 251.61 28.602C250.53 28.602 249.702 30.078 249.702 31.572C249.702 33.804 250.62 35.586 252.258 35.586C253.464 35.586 254.256 34.164 254.256 32.562ZM263.041 28.44L262.303 29.916H262.123C261.565 29.592 261.169 29.412 260.701 29.412C260.233 29.412 260.035 29.682 259.621 30.06V34.992C259.819 35.352 260.503 35.442 261.277 35.55V36H257.083V35.568C257.965 35.496 258.055 35.334 258.217 35.028V30.078C258.217 29.718 257.983 29.412 257.083 29.196V28.854L259.369 28.008H259.549L259.585 29.718C260.395 28.854 261.115 28.098 261.763 28.098C262.213 28.098 262.627 28.242 263.041 28.44ZM277.483 35.514V36C276.943 35.982 276.115 35.964 275.215 35.964C274.531 35.964 273.901 36 273.451 36.018V35.586C274.297 35.532 274.405 35.334 274.567 35.028L274.513 30.852C274.495 29.934 273.955 29.07 272.893 29.07C272.389 29.07 271.579 29.34 271.021 29.7V35.046C271.237 35.406 271.291 35.496 272.173 35.586V36H268.501V35.586C269.365 35.532 269.455 35.352 269.581 35.046V30.834C269.581 30.006 269.077 29.034 267.997 29.034C267.529 29.034 266.665 29.322 266.107 29.664V35.046C266.305 35.406 266.359 35.496 267.259 35.586V36H263.569V35.586C264.451 35.532 264.541 35.352 264.703 35.046V30.204C264.703 29.826 264.487 29.448 263.659 29.178V28.89L265.909 27.99H266.107V29.286C266.917 28.692 268.285 28.026 268.933 28.026C270.067 28.026 270.679 28.566 270.949 29.394C271.723 28.8 273.199 28.044 273.865 28.044C275.485 28.044 275.935 29.016 275.953 30.51L276.007 35.172C276.367 35.424 276.799 35.46 277.483 35.514Z" fill="black"/>
<path d="M172.16 50.4H173.6L171.464 53.696V56H170.176V53.704L168.04 50.4H169.536L170.848 52.544L172.16 50.4ZM175.464 56.112C174.819 56.112 174.288 55.9067 173.872 55.496C173.462 55.08 173.256 54.568 173.256 53.96C173.256 53.3573 173.467 52.848 173.888 52.432C174.31 52.0107 174.838 51.8 175.472 51.8C176.118 51.8 176.646 52.0053 177.056 52.416C177.472 52.8267 177.68 53.336 177.68 53.944C177.68 54.5467 177.47 55.0587 177.048 55.48C176.627 55.9013 176.099 56.112 175.464 56.112ZM176.504 53.944C176.504 53.624 176.406 53.36 176.208 53.152C176.016 52.9387 175.771 52.832 175.472 52.832C175.168 52.832 174.918 52.9387 174.72 53.152C174.528 53.3653 174.432 53.6347 174.432 53.96C174.432 54.28 174.531 54.5467 174.728 54.76C174.926 54.9733 175.171 55.08 175.464 55.08C175.763 55.08 176.011 54.9733 176.208 54.76C176.406 54.5413 176.504 54.2693 176.504 53.944ZM182.401 56H181.225V55.264C181.007 55.552 180.785 55.7627 180.561 55.896C180.337 56.024 180.081 56.088 179.793 56.088C179.372 56.088 179.036 55.9467 178.785 55.664C178.54 55.3813 178.417 54.9973 178.417 54.512V51.912H179.633V54.264C179.633 54.5093 179.692 54.6987 179.809 54.832C179.927 54.9653 180.095 55.032 180.313 55.032C180.463 55.032 180.604 55.0027 180.737 54.944C180.871 54.88 181.023 54.776 181.193 54.632V51.912H182.401V56ZM186.05 53.112C185.831 53.112 185.615 53.152 185.402 53.232C185.188 53.3067 184.951 53.432 184.69 53.608V56H183.474V52.008L184.658 51.856V52.92C184.94 52.52 185.18 52.2427 185.378 52.088C185.575 51.928 185.783 51.848 186.002 51.848C186.044 51.848 186.084 51.8507 186.122 51.856C186.159 51.8613 186.207 51.8693 186.266 51.88L186.338 53.136C186.29 53.1253 186.242 53.12 186.194 53.12C186.151 53.1147 186.103 53.112 186.05 53.112ZM190.162 56H188.89V50.4H190.138L192.938 53.592L192.93 50.4H194.202V56.024H193.378L190.146 52.344L190.162 56ZM198.996 55.904L197.828 56.056V55.44C197.561 55.6533 197.305 55.8133 197.06 55.92C196.82 56.0213 196.58 56.072 196.34 56.072C195.983 56.072 195.695 55.9733 195.476 55.776C195.257 55.5733 195.148 55.304 195.148 54.968C195.148 54.52 195.367 54.1867 195.804 53.968C196.241 53.744 196.905 53.624 197.796 53.608C197.78 53.3467 197.703 53.1493 197.564 53.016C197.425 52.8827 197.225 52.816 196.964 52.816C196.751 52.816 196.527 52.8613 196.292 52.952C196.057 53.0373 195.817 53.1653 195.572 53.336L195.548 53.32L195.732 52.224C195.956 52.0907 196.191 51.992 196.436 51.928C196.681 51.864 196.943 51.832 197.22 51.832C197.801 51.832 198.241 51.9867 198.54 52.296C198.844 52.6053 198.996 53.056 198.996 53.648V55.904ZM196.252 54.848C196.252 54.9707 196.295 55.0667 196.38 55.136C196.465 55.2053 196.585 55.24 196.74 55.24C196.879 55.24 197.033 55.2133 197.204 55.16C197.38 55.1013 197.577 55.016 197.796 54.904V54.176C197.273 54.2133 196.884 54.2853 196.628 54.392C196.377 54.4987 196.252 54.6507 196.252 54.848ZM201.989 52.88C201.851 52.88 201.72 52.9067 201.597 52.96C201.48 53.0133 201.347 53.104 201.197 53.232V56H199.981V52.008L201.165 51.856V52.592C201.373 52.32 201.584 52.1227 201.797 52C202.011 51.8773 202.248 51.816 202.509 51.816C202.797 51.816 203.045 51.888 203.253 52.032C203.467 52.1707 203.624 52.3733 203.725 52.64C203.944 52.3467 204.165 52.136 204.389 52.008C204.613 51.88 204.867 51.816 205.149 51.816C205.565 51.816 205.896 51.9573 206.141 52.24C206.387 52.5227 206.509 52.9067 206.509 53.392V56H205.293V53.64C205.293 53.4 205.237 53.2133 205.125 53.08C205.013 52.9467 204.853 52.88 204.645 52.88C204.507 52.88 204.376 52.9067 204.253 52.96C204.136 53.0133 204 53.104 203.845 53.232C203.851 53.2533 203.853 53.2747 203.853 53.296C203.853 53.3173 203.853 53.3493 203.853 53.392V56H202.637V53.64C202.637 53.4 202.581 53.2133 202.469 53.08C202.357 52.9467 202.197 52.88 201.989 52.88ZM211.176 54.744L210.84 55.768C210.595 55.8853 210.363 55.968 210.144 56.016C209.931 56.064 209.694 56.088 209.432 56.088C208.771 56.088 208.24 55.8933 207.84 55.504C207.446 55.1147 207.248 54.5947 207.248 53.944C207.248 53.3413 207.443 52.8347 207.832 52.424C208.227 52.008 208.723 51.8 209.32 51.8C209.918 51.8 210.39 51.9973 210.736 52.392C211.088 52.7813 211.264 53.296 211.264 53.936C211.264 53.968 211.262 54.016 211.256 54.08C211.251 54.144 211.246 54.2107 211.24 54.28H208.416C208.48 54.552 208.619 54.7627 208.832 54.912C209.046 55.0613 209.318 55.136 209.648 55.136C209.888 55.136 210.131 55.104 210.376 55.04C210.627 54.9707 210.886 54.8667 211.152 54.728L211.176 54.744ZM209.296 52.672C209.056 52.672 208.856 52.7573 208.696 52.928C208.536 53.0933 208.44 53.3147 208.408 53.592H210.136C210.11 53.3093 210.022 53.0853 209.872 52.92C209.723 52.7547 209.531 52.672 209.296 52.672ZM214.793 50.368H216.065L215.521 51.728H215.337L214.793 50.368ZM215.041 52.08L213.577 52.176L213.977 50.968L215.097 51.904L215.041 52.08ZM216.881 50.968L217.281 52.176L215.817 52.08L215.761 51.904L216.881 50.968ZM215.289 52.448L214.937 53.864L213.897 53.128L215.145 52.336L215.289 52.448ZM216.961 53.128L215.921 53.864L215.577 52.448L215.713 52.336L216.961 53.128Z" fill="black"/>
<path d="M172.16 88.4H173.6L171.464 91.696V94H170.176V91.704L168.04 88.4H169.536L170.848 90.544L172.16 88.4ZM175.464 94.112C174.819 94.112 174.288 93.9067 173.872 93.496C173.462 93.08 173.256 92.568 173.256 91.96C173.256 91.3573 173.467 90.848 173.888 90.432C174.31 90.0107 174.838 89.8 175.472 89.8C176.118 89.8 176.646 90.0053 177.056 90.416C177.472 90.8267 177.68 91.336 177.68 91.944C177.68 92.5467 177.47 93.0587 177.048 93.48C176.627 93.9013 176.099 94.112 175.464 94.112ZM176.504 91.944C176.504 91.624 176.406 91.36 176.208 91.152C176.016 90.9387 175.771 90.832 175.472 90.832C175.168 90.832 174.918 90.9387 174.72 91.152C174.528 91.3653 174.432 91.6347 174.432 91.96C174.432 92.28 174.531 92.5467 174.728 92.76C174.926 92.9733 175.171 93.08 175.464 93.08C175.763 93.08 176.011 92.9733 176.208 92.76C176.406 92.5413 176.504 92.2693 176.504 91.944ZM182.401 94H181.225V93.264C181.007 93.552 180.785 93.7627 180.561 93.896C180.337 94.024 180.081 94.088 179.793 94.088C179.372 94.088 179.036 93.9467 178.785 93.664C178.54 93.3813 178.417 92.9973 178.417 92.512V89.912H179.633V92.264C179.633 92.5093 179.692 92.6987 179.809 92.832C179.927 92.9653 180.095 93.032 180.313 93.032C180.463 93.032 180.604 93.0027 180.737 92.944C180.871 92.88 181.023 92.776 181.193 92.632V89.912H182.401V94ZM186.05 91.112C185.831 91.112 185.615 91.152 185.402 91.232C185.188 91.3067 184.951 91.432 184.69 91.608V94H183.474V90.008L184.658 89.856V90.92C184.94 90.52 185.18 90.2427 185.378 90.088C185.575 89.928 185.783 89.848 186.002 89.848C186.044 89.848 186.084 89.8507 186.122 89.856C186.159 89.8613 186.207 89.8693 186.266 89.88L186.338 91.136C186.29 91.1253 186.242 91.12 186.194 91.12C186.151 91.1147 186.103 91.112 186.05 91.112ZM192.466 94H188.89V88.4H192.442L192.666 89.496H190.17V90.672H192.242V91.664H190.17V92.904H192.69L192.466 94ZM195.599 90.88C195.46 90.88 195.329 90.9067 195.207 90.96C195.089 91.0133 194.956 91.104 194.807 91.232V94H193.591V90.008L194.775 89.856V90.592C194.983 90.32 195.193 90.1227 195.407 90C195.62 89.8773 195.857 89.816 196.119 89.816C196.407 89.816 196.655 89.888 196.863 90.032C197.076 90.1707 197.233 90.3733 197.335 90.64C197.553 90.3467 197.775 90.136 197.999 90.008C198.223 89.88 198.476 89.816 198.759 89.816C199.175 89.816 199.505 89.9573 199.751 90.24C199.996 90.5227 200.119 90.9067 200.119 91.392V94H198.903V91.64C198.903 91.4 198.847 91.2133 198.735 91.08C198.623 90.9467 198.463 90.88 198.255 90.88C198.116 90.88 197.985 90.9067 197.863 90.96C197.745 91.0133 197.609 91.104 197.455 91.232C197.46 91.2533 197.463 91.2747 197.463 91.296C197.463 91.3173 197.463 91.3493 197.463 91.392V94H196.247V91.64C196.247 91.4 196.191 91.2133 196.079 91.08C195.967 90.9467 195.807 90.88 195.599 90.88ZM204.754 93.904L203.586 94.056V93.44C203.319 93.6533 203.063 93.8133 202.818 93.92C202.578 94.0213 202.338 94.072 202.098 94.072C201.74 94.072 201.452 93.9733 201.234 93.776C201.015 93.5733 200.906 93.304 200.906 92.968C200.906 92.52 201.124 92.1867 201.562 91.968C201.999 91.744 202.663 91.624 203.554 91.608C203.538 91.3467 203.46 91.1493 203.322 91.016C203.183 90.8827 202.983 90.816 202.722 90.816C202.508 90.816 202.284 90.8613 202.05 90.952C201.815 91.0373 201.575 91.1653 201.33 91.336L201.306 91.32L201.49 90.224C201.714 90.0907 201.948 89.992 202.194 89.928C202.439 89.864 202.7 89.832 202.978 89.832C203.559 89.832 203.999 89.9867 204.298 90.296C204.602 90.6053 204.754 91.056 204.754 91.648V93.904ZM202.01 92.848C202.01 92.9707 202.052 93.0667 202.138 93.136C202.223 93.2053 202.343 93.24 202.498 93.24C202.636 93.24 202.791 93.2133 202.962 93.16C203.138 93.1013 203.335 93.016 203.554 92.904V92.176C203.031 92.2133 202.642 92.2853 202.386 92.392C202.135 92.4987 202.01 92.6507 202.01 92.848ZM206.379 87.864C206.587 87.864 206.76 87.9307 206.899 88.064C207.043 88.1973 207.115 88.3627 207.115 88.56C207.115 88.7573 207.043 88.9227 206.899 89.056C206.76 89.1893 206.587 89.256 206.379 89.256C206.171 89.256 205.995 89.1893 205.851 89.056C205.712 88.9227 205.643 88.7573 205.643 88.56C205.643 88.3627 205.712 88.1973 205.851 88.064C205.995 87.9307 206.171 87.864 206.379 87.864ZM206.979 94H205.771V89.912H206.979V94ZM209.331 94H208.123V88.256L209.331 87.936V94ZM213.16 88.368H214.432L213.888 89.728H213.704L213.16 88.368ZM213.408 90.08L211.944 90.176L212.344 88.968L213.464 89.904L213.408 90.08ZM215.248 88.968L215.648 90.176L214.184 90.08L214.128 89.904L215.248 88.968ZM213.656 90.448L213.304 91.864L212.264 91.128L213.512 90.336L213.656 90.448ZM215.328 91.128L214.288 91.864L213.944 90.448L214.08 90.336L215.328 91.128Z" fill="black"/>
<path d="M169.968 129.68C169.381 129.456 168.973 129.213 168.744 128.952C168.515 128.691 168.4 128.363 168.4 127.968C168.4 127.467 168.576 127.064 168.928 126.76C169.28 126.456 169.752 126.304 170.344 126.304C170.648 126.304 170.933 126.339 171.2 126.408C171.467 126.472 171.717 126.573 171.952 126.712V127.944H171.936C171.68 127.773 171.408 127.637 171.12 127.536C170.832 127.435 170.565 127.384 170.32 127.384C170.112 127.384 169.949 127.427 169.832 127.512C169.715 127.597 169.656 127.715 169.656 127.864C169.656 128.013 169.717 128.141 169.84 128.248C169.968 128.349 170.235 128.483 170.64 128.648C171.221 128.872 171.629 129.117 171.864 129.384C172.104 129.645 172.224 129.979 172.224 130.384C172.224 130.907 172.04 131.323 171.672 131.632C171.304 131.941 170.813 132.096 170.2 132.096C169.88 132.096 169.571 132.051 169.272 131.96C168.973 131.869 168.699 131.739 168.448 131.568L168.256 130.184L168.272 130.176C168.587 130.427 168.92 130.629 169.272 130.784C169.624 130.939 169.939 131.016 170.216 131.016C170.451 131.016 170.635 130.968 170.768 130.872C170.901 130.776 170.968 130.643 170.968 130.472C170.968 130.317 170.901 130.187 170.768 130.08C170.635 129.973 170.368 129.84 169.968 129.68ZM177.026 132H175.85V131.264C175.632 131.552 175.41 131.763 175.186 131.896C174.962 132.024 174.706 132.088 174.418 132.088C173.997 132.088 173.661 131.947 173.41 131.664C173.165 131.381 173.042 130.997 173.042 130.512V127.912H174.258V130.264C174.258 130.509 174.317 130.699 174.434 130.832C174.552 130.965 174.72 131.032 174.938 131.032C175.088 131.032 175.229 131.003 175.362 130.944C175.496 130.88 175.648 130.776 175.818 130.632V127.912H177.026V132ZM180.587 127.832C181.088 127.832 181.504 128.024 181.835 128.408C182.165 128.787 182.331 129.267 182.331 129.848C182.331 130.493 182.115 131.024 181.683 131.44C181.251 131.851 180.709 132.056 180.059 132.056C179.883 132.056 179.707 132.037 179.531 132C179.355 131.968 179.165 131.917 178.963 131.848L178.203 132.016H178.099V126.256L179.315 125.936V128.408C179.507 128.211 179.704 128.067 179.907 127.976C180.109 127.88 180.336 127.832 180.587 127.832ZM181.155 129.904C181.155 129.584 181.061 129.328 180.875 129.136C180.693 128.939 180.453 128.84 180.155 128.84C180.011 128.84 179.872 128.861 179.739 128.904C179.605 128.941 179.464 129.005 179.315 129.096V130.944C179.416 130.981 179.52 131.011 179.627 131.032C179.739 131.048 179.856 131.056 179.979 131.056C180.325 131.056 180.608 130.949 180.827 130.736C181.045 130.523 181.155 130.245 181.155 129.904ZM183.794 125.864C184.002 125.864 184.175 125.931 184.314 126.064C184.458 126.197 184.53 126.363 184.53 126.56C184.53 126.757 184.458 126.923 184.314 127.056C184.175 127.189 184.002 127.256 183.794 127.256C183.586 127.256 183.41 127.189 183.266 127.056C183.127 126.923 183.058 126.757 183.058 126.56C183.058 126.363 183.127 126.197 183.266 126.064C183.41 125.931 183.586 125.864 183.794 125.864ZM183.186 127.912H184.394V131.952C184.394 132.469 184.26 132.867 183.994 133.144C183.732 133.421 183.362 133.56 182.882 133.56C182.786 133.56 182.695 133.555 182.61 133.544C182.53 133.533 182.458 133.52 182.394 133.504L182.21 132.648L182.226 132.632C182.274 132.648 182.324 132.659 182.378 132.664C182.431 132.675 182.487 132.68 182.546 132.68C182.754 132.68 182.911 132.624 183.018 132.512C183.13 132.4 183.186 132.235 183.186 132.016V127.912ZM189.161 130.744L188.825 131.768C188.579 131.885 188.347 131.968 188.129 132.016C187.915 132.064 187.678 132.088 187.417 132.088C186.755 132.088 186.225 131.893 185.825 131.504C185.43 131.115 185.233 130.595 185.233 129.944C185.233 129.341 185.427 128.835 185.817 128.424C186.211 128.008 186.707 127.8 187.305 127.8C187.902 127.8 188.374 127.997 188.721 128.392C189.073 128.781 189.249 129.296 189.249 129.936C189.249 129.968 189.246 130.016 189.241 130.08C189.235 130.144 189.23 130.211 189.225 130.28H186.401C186.465 130.552 186.603 130.763 186.817 130.912C187.03 131.061 187.302 131.136 187.633 131.136C187.873 131.136 188.115 131.104 188.361 131.04C188.611 130.971 188.87 130.867 189.137 130.728L189.161 130.744ZM187.281 128.672C187.041 128.672 186.841 128.757 186.681 128.928C186.521 129.093 186.425 129.315 186.393 129.592H188.121C188.094 129.309 188.006 129.085 187.857 128.92C187.707 128.755 187.515 128.672 187.281 128.672ZM193.395 130.52L193.251 131.704C193.043 131.832 192.822 131.931 192.587 132C192.358 132.064 192.123 132.096 191.883 132.096C191.265 132.096 190.761 131.899 190.371 131.504C189.987 131.109 189.795 130.592 189.795 129.952C189.795 129.333 189.998 128.824 190.403 128.424C190.814 128.019 191.339 127.816 191.979 127.816C192.235 127.816 192.473 127.851 192.691 127.92C192.915 127.989 193.126 128.093 193.323 128.232V129.448H193.307C193.089 129.261 192.875 129.123 192.667 129.032C192.459 128.941 192.257 128.896 192.059 128.896C191.745 128.896 191.489 128.997 191.291 129.2C191.094 129.397 190.995 129.651 190.995 129.96C190.995 130.269 191.091 130.523 191.283 130.72C191.475 130.917 191.723 131.016 192.027 131.016C192.241 131.016 192.47 130.971 192.715 130.88C192.961 130.784 193.182 130.661 193.379 130.512L193.395 130.52ZM197.199 130.744L197.015 131.8C196.865 131.896 196.7 131.968 196.519 132.016C196.343 132.064 196.156 132.088 195.959 132.088C195.505 132.088 195.159 131.957 194.919 131.696C194.684 131.429 194.567 131.04 194.567 130.528V128.856H193.943V127.912H194.567V127.032L195.759 126.736V127.912H197.175V128.856H195.759V130.432C195.759 130.64 195.809 130.797 195.911 130.904C196.017 131.005 196.172 131.056 196.375 131.056C196.503 131.056 196.631 131.032 196.759 130.984C196.887 130.931 197.028 130.848 197.183 130.736L197.199 130.744ZM200.738 126.368H202.01L201.466 127.728H201.282L200.738 126.368ZM200.986 128.08L199.522 128.176L199.922 126.968L201.042 127.904L200.986 128.08ZM202.826 126.968L203.226 128.176L201.762 128.08L201.706 127.904L202.826 126.968ZM201.234 128.448L200.882 129.864L199.842 129.128L201.09 128.336L201.234 128.448ZM202.906 129.128L201.866 129.864L201.522 128.448L201.658 128.336L202.906 129.128Z" fill="black"/>
<path d="M168.632 165.4H170.424L172.112 168.784L173.792 165.4H175.592V171H174.336V166.872L172.16 171.08H172.048L169.864 166.896V171H168.632V165.4ZM180.419 169.744L180.083 170.768C179.837 170.885 179.605 170.968 179.387 171.016C179.173 171.064 178.936 171.088 178.675 171.088C178.013 171.088 177.483 170.893 177.083 170.504C176.688 170.115 176.491 169.595 176.491 168.944C176.491 168.341 176.685 167.835 177.075 167.424C177.469 167.008 177.965 166.8 178.563 166.8C179.16 166.8 179.632 166.997 179.979 167.392C180.331 167.781 180.507 168.296 180.507 168.936C180.507 168.968 180.504 169.016 180.499 169.08C180.493 169.144 180.488 169.211 180.483 169.28H177.659C177.723 169.552 177.861 169.763 178.075 169.912C178.288 170.061 178.56 170.136 178.891 170.136C179.131 170.136 179.373 170.104 179.619 170.04C179.869 169.971 180.128 169.867 180.395 169.728L180.419 169.744ZM178.539 167.672C178.299 167.672 178.099 167.757 177.939 167.928C177.779 168.093 177.683 168.315 177.651 168.592H179.379C179.352 168.309 179.264 168.085 179.115 167.92C178.965 167.755 178.773 167.672 178.539 167.672ZM183.133 168.488C183.683 168.627 184.061 168.795 184.269 168.992C184.477 169.189 184.581 169.459 184.581 169.8C184.581 170.184 184.419 170.496 184.093 170.736C183.773 170.971 183.349 171.088 182.821 171.088C182.528 171.088 182.251 171.053 181.989 170.984C181.728 170.909 181.467 170.795 181.205 170.64L181.045 169.536L181.061 169.528C181.381 169.747 181.696 169.912 182.005 170.024C182.32 170.136 182.616 170.192 182.893 170.192C183.064 170.192 183.2 170.163 183.301 170.104C183.408 170.04 183.461 169.96 183.461 169.864C183.461 169.752 183.403 169.664 183.285 169.6C183.168 169.536 182.928 169.456 182.565 169.36C182.032 169.221 181.661 169.056 181.453 168.864C181.245 168.667 181.141 168.411 181.141 168.096C181.141 167.712 181.296 167.405 181.605 167.176C181.92 166.941 182.339 166.824 182.861 166.824C183.117 166.824 183.365 166.853 183.605 166.912C183.845 166.971 184.075 167.059 184.293 167.176V168.208H184.277C184.032 168.053 183.779 167.933 183.517 167.848C183.261 167.757 183.027 167.712 182.813 167.712C182.643 167.712 182.507 167.741 182.405 167.8C182.309 167.853 182.261 167.925 182.261 168.016C182.261 168.117 182.317 168.2 182.429 168.264C182.541 168.323 182.776 168.397 183.133 168.488ZM187.211 168.488C187.761 168.627 188.139 168.795 188.347 168.992C188.555 169.189 188.659 169.459 188.659 169.8C188.659 170.184 188.497 170.496 188.171 170.736C187.851 170.971 187.427 171.088 186.899 171.088C186.606 171.088 186.329 171.053 186.067 170.984C185.806 170.909 185.545 170.795 185.283 170.64L185.123 169.536L185.139 169.528C185.459 169.747 185.774 169.912 186.083 170.024C186.398 170.136 186.694 170.192 186.971 170.192C187.142 170.192 187.278 170.163 187.379 170.104C187.486 170.04 187.539 169.96 187.539 169.864C187.539 169.752 187.481 169.664 187.363 169.6C187.246 169.536 187.006 169.456 186.643 169.36C186.11 169.221 185.739 169.056 185.531 168.864C185.323 168.667 185.219 168.411 185.219 168.096C185.219 167.712 185.374 167.405 185.683 167.176C185.998 166.941 186.417 166.824 186.939 166.824C187.195 166.824 187.443 166.853 187.683 166.912C187.923 166.971 188.153 167.059 188.371 167.176V168.208H188.355C188.11 168.053 187.857 167.933 187.595 167.848C187.339 167.757 187.105 167.712 186.891 167.712C186.721 167.712 186.585 167.741 186.483 167.8C186.387 167.853 186.339 167.925 186.339 168.016C186.339 168.117 186.395 168.2 186.507 168.264C186.619 168.323 186.854 168.397 187.211 168.488ZM193.098 170.904L191.93 171.056V170.44C191.663 170.653 191.407 170.813 191.162 170.92C190.922 171.021 190.682 171.072 190.442 171.072C190.084 171.072 189.796 170.973 189.578 170.776C189.359 170.573 189.25 170.304 189.25 169.968C189.25 169.52 189.468 169.187 189.906 168.968C190.343 168.744 191.007 168.624 191.898 168.608C191.882 168.347 191.804 168.149 191.666 168.016C191.527 167.883 191.327 167.816 191.066 167.816C190.852 167.816 190.628 167.861 190.394 167.952C190.159 168.037 189.919 168.165 189.674 168.336L189.65 168.32L189.834 167.224C190.058 167.091 190.292 166.992 190.538 166.928C190.783 166.864 191.044 166.832 191.322 166.832C191.903 166.832 192.343 166.987 192.642 167.296C192.946 167.605 193.098 168.056 193.098 168.648V170.904ZM190.354 169.848C190.354 169.971 190.396 170.067 190.482 170.136C190.567 170.205 190.687 170.24 190.842 170.24C190.98 170.24 191.135 170.213 191.306 170.16C191.482 170.101 191.679 170.016 191.898 169.904V169.176C191.375 169.213 190.986 169.285 190.73 169.392C190.479 169.499 190.354 169.651 190.354 169.848ZM198.091 166.896V170.408C198.091 171.08 197.888 171.605 197.483 171.984C197.078 172.368 196.52 172.56 195.811 172.56C195.523 172.56 195.248 172.531 194.987 172.472C194.726 172.413 194.459 172.32 194.187 172.192L193.995 171.08L194.011 171.072C194.347 171.248 194.646 171.373 194.907 171.448C195.168 171.523 195.438 171.56 195.715 171.56C196.083 171.56 196.371 171.467 196.579 171.28C196.787 171.093 196.891 170.829 196.891 170.488V170.232C196.688 170.424 196.48 170.565 196.267 170.656C196.054 170.741 195.822 170.784 195.571 170.784C195.064 170.784 194.646 170.611 194.315 170.264C193.984 169.912 193.819 169.464 193.819 168.92C193.819 168.307 194.03 167.808 194.451 167.424C194.878 167.04 195.414 166.848 196.059 166.848C196.251 166.848 196.44 166.867 196.627 166.904C196.819 166.936 197.019 166.989 197.227 167.064L197.995 166.896H198.091ZM196.123 167.832C195.798 167.832 195.528 167.931 195.315 168.128C195.102 168.325 194.995 168.579 194.995 168.888C194.995 169.181 195.086 169.419 195.267 169.6C195.448 169.776 195.683 169.864 195.971 169.864C196.126 169.864 196.275 169.84 196.419 169.792C196.568 169.744 196.726 169.667 196.891 169.56V167.968C196.752 167.92 196.622 167.885 196.499 167.864C196.376 167.843 196.251 167.832 196.123 167.832ZM202.817 169.744L202.481 170.768C202.236 170.885 202.004 170.968 201.785 171.016C201.572 171.064 201.334 171.088 201.073 171.088C200.412 171.088 199.881 170.893 199.481 170.504C199.086 170.115 198.889 169.595 198.889 168.944C198.889 168.341 199.084 167.835 199.473 167.424C199.868 167.008 200.364 166.8 200.961 166.8C201.558 166.8 202.03 166.997 202.377 167.392C202.729 167.781 202.905 168.296 202.905 168.936C202.905 168.968 202.902 169.016 202.897 169.08C202.892 169.144 202.886 169.211 202.881 169.28H200.057C200.121 169.552 200.26 169.763 200.473 169.912C200.686 170.061 200.958 170.136 201.289 170.136C201.529 170.136 201.772 170.104 202.017 170.04C202.268 169.971 202.526 169.867 202.793 169.728L202.817 169.744ZM200.937 167.672C200.697 167.672 200.497 167.757 200.337 167.928C200.177 168.093 200.081 168.315 200.049 168.592H201.777C201.75 168.309 201.662 168.085 201.513 167.92C201.364 167.755 201.172 167.672 200.937 167.672ZM206.434 165.368H207.706L207.162 166.728H206.978L206.434 165.368ZM206.682 167.08L205.218 167.176L205.618 165.968L206.738 166.904L206.682 167.08ZM208.522 165.968L208.922 167.176L207.458 167.08L207.402 166.904L208.522 165.968ZM206.93 167.448L206.578 168.864L205.538 168.128L206.786 167.336L206.93 167.448ZM208.602 168.128L207.562 168.864L207.218 167.448L207.354 167.336L208.602 168.128Z" fill="black"/>
<rect x="168.5" y="60.5" width="165" height="18" stroke="#D3D3D3"/>
<rect x="168.5" y="98.5" width="165" height="18" stroke="#D3D3D3"/>
<rect x="168.5" y="136.5" width="165" height="18" stroke="#D3D3D3"/>
<rect x="168.5" y="175.5" width="165" height="41" stroke="#D3D3D3"/>
<rect x="167" y="224" width="49" height="17" rx="8.5" fill="#376C74"/>
<path d="M178.968 233.68C178.381 233.456 177.973 233.213 177.744 232.952C177.515 232.691 177.4 232.363 177.4 231.968C177.4 231.467 177.576 231.064 177.928 230.76C178.28 230.456 178.752 230.304 179.344 230.304C179.648 230.304 179.933 230.339 180.2 230.408C180.467 230.472 180.717 230.573 180.952 230.712V231.944H180.936C180.68 231.773 180.408 231.637 180.12 231.536C179.832 231.435 179.565 231.384 179.32 231.384C179.112 231.384 178.949 231.427 178.832 231.512C178.715 231.597 178.656 231.715 178.656 231.864C178.656 232.013 178.717 232.141 178.84 232.248C178.968 232.349 179.235 232.483 179.64 232.648C180.221 232.872 180.629 233.117 180.864 233.384C181.104 233.645 181.224 233.979 181.224 234.384C181.224 234.907 181.04 235.323 180.672 235.632C180.304 235.941 179.813 236.096 179.2 236.096C178.88 236.096 178.571 236.051 178.272 235.96C177.973 235.869 177.699 235.739 177.448 235.568L177.256 234.184L177.272 234.176C177.587 234.427 177.92 234.629 178.272 234.784C178.624 234.939 178.939 235.016 179.216 235.016C179.451 235.016 179.635 234.968 179.768 234.872C179.901 234.776 179.968 234.643 179.968 234.472C179.968 234.317 179.901 234.187 179.768 234.08C179.635 233.973 179.368 233.84 178.968 233.68ZM186.026 236H184.85V235.264C184.632 235.552 184.41 235.763 184.186 235.896C183.962 236.024 183.706 236.088 183.418 236.088C182.997 236.088 182.661 235.947 182.41 235.664C182.165 235.381 182.042 234.997 182.042 234.512V231.912H183.258V234.264C183.258 234.509 183.317 234.699 183.434 234.832C183.552 234.965 183.72 235.032 183.938 235.032C184.088 235.032 184.229 235.003 184.362 234.944C184.496 234.88 184.648 234.776 184.818 234.632V231.912H186.026V236ZM189.587 231.832C190.088 231.832 190.504 232.024 190.835 232.408C191.165 232.787 191.331 233.267 191.331 233.848C191.331 234.493 191.115 235.024 190.683 235.44C190.251 235.851 189.709 236.056 189.059 236.056C188.883 236.056 188.707 236.037 188.531 236C188.355 235.968 188.165 235.917 187.963 235.848L187.203 236.016H187.099V230.256L188.315 229.936V232.408C188.507 232.211 188.704 232.067 188.907 231.976C189.109 231.88 189.336 231.832 189.587 231.832ZM190.155 233.904C190.155 233.584 190.061 233.328 189.875 233.136C189.693 232.939 189.453 232.84 189.155 232.84C189.011 232.84 188.872 232.861 188.739 232.904C188.605 232.941 188.464 233.005 188.315 233.096V234.944C188.416 234.981 188.52 235.011 188.627 235.032C188.739 235.048 188.856 235.056 188.979 235.056C189.325 235.056 189.608 234.949 189.827 234.736C190.045 234.523 190.155 234.245 190.155 233.904ZM194.146 232.88C194.007 232.88 193.876 232.907 193.754 232.96C193.636 233.013 193.503 233.104 193.354 233.232V236H192.138V232.008L193.322 231.856V232.592C193.53 232.32 193.74 232.123 193.954 232C194.167 231.877 194.404 231.816 194.666 231.816C194.954 231.816 195.202 231.888 195.41 232.032C195.623 232.171 195.78 232.373 195.882 232.64C196.1 232.347 196.322 232.136 196.546 232.008C196.77 231.88 197.023 231.816 197.306 231.816C197.722 231.816 198.052 231.957 198.298 232.24C198.543 232.523 198.666 232.907 198.666 233.392V236H197.45V233.64C197.45 233.4 197.394 233.213 197.282 233.08C197.17 232.947 197.01 232.88 196.802 232.88C196.663 232.88 196.532 232.907 196.41 232.96C196.292 233.013 196.156 233.104 196.002 233.232C196.007 233.253 196.01 233.275 196.01 233.296C196.01 233.317 196.01 233.349 196.01 233.392V236H194.794V233.64C194.794 233.4 194.738 233.213 194.626 233.08C194.514 232.947 194.354 232.88 194.146 232.88ZM200.317 229.864C200.525 229.864 200.698 229.931 200.837 230.064C200.981 230.197 201.053 230.363 201.053 230.56C201.053 230.757 200.981 230.923 200.837 231.056C200.698 231.189 200.525 231.256 200.317 231.256C200.109 231.256 199.933 231.189 199.789 231.056C199.65 230.923 199.581 230.757 199.581 230.56C199.581 230.363 199.65 230.197 199.789 230.064C199.933 229.931 200.109 229.864 200.317 229.864ZM200.917 236H199.709V231.912H200.917V236ZM204.964 234.744L204.78 235.8C204.631 235.896 204.466 235.968 204.284 236.016C204.108 236.064 203.922 236.088 203.724 236.088C203.271 236.088 202.924 235.957 202.684 235.696C202.45 235.429 202.332 235.04 202.332 234.528V232.856H201.708V231.912H202.332V231.032L203.524 230.736V231.912H204.94V232.856H203.524V234.432C203.524 234.64 203.575 234.797 203.676 234.904C203.783 235.005 203.938 235.056 204.14 235.056C204.268 235.056 204.396 235.032 204.524 234.984C204.652 234.931 204.794 234.848 204.948 234.736L204.964 234.744Z" fill="white"/>
</svg>
