<svg width="501" height="261" viewBox="0 0 501 261" fill="none" xmlns="http://www.w3.org/2000/svg">
<rect width="501" height="261" fill="white"/>
<path d="M79.704 75.8H81.48L77.112 81.992V87H75.576V81.992L71.208 75.8H73.048L76.376 80.632L79.704 75.8ZM88.2783 82.136V86.808L86.8383 87.128V85.704C86.2409 86.184 85.6756 86.5413 85.1423 86.776C84.6196 87.0107 84.1076 87.128 83.6063 87.128C82.9023 87.128 82.3316 86.936 81.8943 86.552C81.4569 86.1573 81.2383 85.6347 81.2383 84.984C81.2383 84.0667 81.6969 83.3893 82.6143 82.952C83.5316 82.504 84.9396 82.2693 86.8383 82.248V82.216C86.8383 81.5547 86.6783 81.0533 86.3583 80.712C86.0489 80.36 85.5956 80.184 84.9983 80.184C84.5503 80.184 84.0863 80.28 83.6063 80.472C83.1369 80.664 82.6516 80.952 82.1503 81.336L82.1183 81.32L82.4223 79.704C82.8489 79.416 83.2916 79.2027 83.7503 79.064C84.2196 78.9253 84.7103 78.856 85.2223 78.856C86.2036 78.856 86.9556 79.1387 87.4783 79.704C88.0116 80.2693 88.2783 81.08 88.2783 82.136ZM82.6943 84.92C82.6943 85.2187 82.8009 85.4587 83.0143 85.64C83.2276 85.8107 83.5209 85.896 83.8943 85.896C84.2676 85.896 84.6943 85.8053 85.1743 85.624C85.6543 85.4427 86.2089 85.16 86.8383 84.776V83.176C85.4516 83.2613 84.4116 83.448 83.7183 83.736C83.0356 84.0133 82.6943 84.408 82.6943 84.92ZM92.3644 87H90.9244V75.384L92.3644 74.856V87ZM101.797 84.888L101.269 86.472C100.8 86.728 100.362 86.9093 99.9569 87.016C99.5515 87.1227 99.1089 87.176 98.6289 87.176C97.3595 87.176 96.3515 86.7973 95.6049 86.04C94.8582 85.2827 94.4849 84.2693 94.4849 83C94.4849 81.8267 94.8582 80.8293 95.6049 80.008C96.3515 79.1867 97.2795 78.776 98.3889 78.776C99.4982 78.776 100.384 79.1653 101.045 79.944C101.706 80.712 102.037 81.704 102.037 82.92C102.037 83.0267 102.032 83.144 102.021 83.272C102.01 83.4 102 83.496 101.989 83.56H95.9729C96.0795 84.2853 96.3782 84.8507 96.8689 85.256C97.3702 85.6613 98.0102 85.864 98.7889 85.864C99.2582 85.864 99.7489 85.7787 100.261 85.608C100.784 85.4267 101.285 85.1813 101.765 84.872L101.797 84.888ZM98.3409 80.04C97.6902 80.04 97.1409 80.2693 96.6929 80.728C96.2555 81.1867 96.0049 81.7733 95.9409 82.488H100.581C100.517 81.72 100.288 81.1227 99.8929 80.696C99.4982 80.2587 98.9809 80.04 98.3409 80.04ZM107.125 81.944C106.026 81.4533 105.269 80.9627 104.853 80.472C104.437 79.9707 104.229 79.3627 104.229 78.648C104.229 77.7307 104.538 76.9947 105.157 76.44C105.786 75.8853 106.613 75.608 107.637 75.608C108.191 75.608 108.703 75.6773 109.173 75.816C109.642 75.944 110.111 76.1573 110.581 76.456V78.184H110.549C110.037 77.8 109.53 77.5173 109.029 77.336C108.538 77.144 108.053 77.048 107.573 77.048C107.007 77.048 106.554 77.1813 106.213 77.448C105.882 77.704 105.717 78.056 105.717 78.504C105.717 78.9307 105.871 79.288 106.181 79.576C106.49 79.864 107.141 80.232 108.133 80.68C109.189 81.16 109.935 81.656 110.373 82.168C110.821 82.68 111.045 83.2933 111.045 84.008C111.045 84.9573 110.709 85.7253 110.037 86.312C109.365 86.8987 108.49 87.192 107.413 87.192C106.815 87.192 106.239 87.1013 105.685 86.92C105.13 86.728 104.613 86.4507 104.133 86.088L103.765 84.008L103.797 83.992C104.383 84.536 105.002 84.968 105.653 85.288C106.303 85.5973 106.917 85.752 107.493 85.752C108.111 85.752 108.607 85.608 108.981 85.32C109.354 85.0213 109.541 84.6267 109.541 84.136C109.541 83.72 109.375 83.3573 109.045 83.048C108.725 82.7387 108.085 82.3707 107.125 81.944ZM114.16 75.144C114.437 75.144 114.672 75.24 114.864 75.432C115.056 75.624 115.152 75.8587 115.152 76.136C115.152 76.4133 115.056 76.648 114.864 76.84C114.672 77.032 114.437 77.128 114.16 77.128C113.883 77.128 113.648 77.032 113.456 76.84C113.264 76.648 113.168 76.4133 113.168 76.136C113.168 75.8587 113.264 75.624 113.456 75.432C113.648 75.24 113.883 75.144 114.16 75.144ZM114.88 87H113.44V79H114.88V87ZM122.809 85.08L122.489 86.616C122.254 86.7867 121.977 86.92 121.657 87.016C121.337 87.1227 121.006 87.176 120.665 87.176C119.907 87.176 119.31 86.9413 118.873 86.472C118.435 86.0027 118.217 85.3467 118.217 84.504V80.232H116.857V79H118.217V77.208L119.641 76.68V79H122.777V80.232H119.641V84.44C119.641 84.92 119.753 85.2827 119.977 85.528C120.201 85.7627 120.531 85.88 120.969 85.88C121.267 85.88 121.566 85.816 121.865 85.688C122.163 85.5493 122.467 85.3413 122.777 85.064L122.809 85.08ZM131.469 84.888L130.941 86.472C130.471 86.728 130.034 86.9093 129.629 87.016C129.223 87.1227 128.781 87.176 128.301 87.176C127.031 87.176 126.023 86.7973 125.277 86.04C124.53 85.2827 124.157 84.2693 124.157 83C124.157 81.8267 124.53 80.8293 125.277 80.008C126.023 79.1867 126.951 78.776 128.061 78.776C129.17 78.776 130.055 79.1653 130.717 79.944C131.378 80.712 131.709 81.704 131.709 82.92C131.709 83.0267 131.703 83.144 131.693 83.272C131.682 83.4 131.671 83.496 131.661 83.56H125.645C125.751 84.2853 126.05 84.8507 126.541 85.256C127.042 85.6613 127.682 85.864 128.461 85.864C128.93 85.864 129.421 85.7787 129.933 85.608C130.455 85.4267 130.957 85.1813 131.437 84.872L131.469 84.888ZM128.013 80.04C127.362 80.04 126.813 80.2693 126.365 80.728C125.927 81.1867 125.677 81.7733 125.613 82.488H130.253C130.189 81.72 129.959 81.1227 129.565 80.696C129.17 80.2587 128.653 80.04 128.013 80.04ZM136.902 82.328C137.958 82.5733 138.689 82.8827 139.094 83.256C139.51 83.6293 139.718 84.1413 139.718 84.792C139.718 85.4853 139.414 86.056 138.806 86.504C138.209 86.952 137.441 87.176 136.502 87.176C135.937 87.176 135.398 87.096 134.886 86.936C134.374 86.776 133.868 86.5307 133.366 86.2L133.062 84.456L133.094 84.44C133.692 84.9093 134.294 85.2667 134.902 85.512C135.51 85.7573 136.097 85.88 136.662 85.88C137.142 85.88 137.537 85.7893 137.846 85.608C138.166 85.416 138.326 85.1707 138.326 84.872C138.326 84.552 138.177 84.3013 137.878 84.12C137.59 83.9387 137.014 83.7467 136.15 83.544C135.116 83.2987 134.396 82.9947 133.99 82.632C133.585 82.2693 133.382 81.7947 133.382 81.208C133.382 80.504 133.67 79.9333 134.246 79.496C134.833 79.048 135.585 78.824 136.502 78.824C136.95 78.824 137.398 78.888 137.846 79.016C138.294 79.144 138.721 79.3253 139.126 79.56V81.096H139.094C138.593 80.776 138.108 80.536 137.638 80.376C137.18 80.2053 136.748 80.12 136.342 80.12C135.862 80.12 135.478 80.2053 135.19 80.376C134.913 80.5467 134.774 80.7707 134.774 81.048C134.774 81.3467 134.918 81.5867 135.206 81.768C135.494 81.9387 136.06 82.1253 136.902 82.328ZM151.794 82.136V86.808L150.354 87.128V85.704C149.757 86.184 149.191 86.5413 148.658 86.776C148.135 87.0107 147.623 87.128 147.122 87.128C146.418 87.128 145.847 86.936 145.41 86.552C144.973 86.1573 144.754 85.6347 144.754 84.984C144.754 84.0667 145.213 83.3893 146.13 82.952C147.047 82.504 148.455 82.2693 150.354 82.248V82.216C150.354 81.5547 150.194 81.0533 149.874 80.712C149.565 80.36 149.111 80.184 148.514 80.184C148.066 80.184 147.602 80.28 147.122 80.472C146.653 80.664 146.167 80.952 145.666 81.336L145.634 81.32L145.938 79.704C146.365 79.416 146.807 79.2027 147.266 79.064C147.735 78.9253 148.226 78.856 148.738 78.856C149.719 78.856 150.471 79.1387 150.994 79.704C151.527 80.2693 151.794 81.08 151.794 82.136ZM146.21 84.92C146.21 85.2187 146.317 85.4587 146.53 85.64C146.743 85.8107 147.037 85.896 147.41 85.896C147.783 85.896 148.21 85.8053 148.69 85.624C149.17 85.4427 149.725 85.16 150.354 84.776V83.176C148.967 83.2613 147.927 83.448 147.234 83.736C146.551 84.0133 146.21 84.408 146.21 84.92ZM158.776 80.408C158.307 80.408 157.843 80.52 157.384 80.744C156.936 80.968 156.408 81.3467 155.8 81.88V87H154.36V79.192L155.8 78.872V80.904C156.461 80.0827 156.979 79.5387 157.352 79.272C157.736 79.0053 158.147 78.872 158.584 78.872C158.68 78.872 158.76 78.8773 158.824 78.888C158.899 78.8987 158.989 78.9147 159.096 78.936L159.208 80.456C159.133 80.4347 159.059 80.424 158.984 80.424C158.92 80.4133 158.851 80.408 158.776 80.408ZM167.641 84.888L167.113 86.472C166.643 86.728 166.206 86.9093 165.801 87.016C165.395 87.1227 164.953 87.176 164.473 87.176C163.203 87.176 162.195 86.7973 161.449 86.04C160.702 85.2827 160.329 84.2693 160.329 83C160.329 81.8267 160.702 80.8293 161.449 80.008C162.195 79.1867 163.123 78.776 164.233 78.776C165.342 78.776 166.227 79.1653 166.889 79.944C167.55 80.712 167.881 81.704 167.881 82.92C167.881 83.0267 167.875 83.144 167.865 83.272C167.854 83.4 167.843 83.496 167.833 83.56H161.817C161.923 84.2853 162.222 84.8507 162.713 85.256C163.214 85.6613 163.854 85.864 164.633 85.864C165.102 85.864 165.593 85.7787 166.105 85.608C166.627 85.4267 167.129 85.1813 167.609 84.872L167.641 84.888ZM164.185 80.04C163.534 80.04 162.985 80.2693 162.537 80.728C162.099 81.1867 161.849 81.7733 161.785 82.488H166.425C166.361 81.72 166.131 81.1227 165.737 80.696C165.342 80.2587 164.825 80.04 164.185 80.04ZM177.279 80.136C176.863 80.136 176.469 80.248 176.095 80.472C175.733 80.6853 175.311 81.0533 174.831 81.576V87H173.391V75.384L174.831 74.856V80.504C175.29 79.9173 175.743 79.496 176.191 79.24C176.639 78.9733 177.135 78.84 177.679 78.84C178.522 78.84 179.199 79.1227 179.711 79.688C180.234 80.2533 180.495 81.0107 180.495 81.96V87H179.055V82.104C179.055 81.4853 178.895 81.0053 178.575 80.664C178.266 80.312 177.834 80.136 177.279 80.136ZM183.848 75.144C184.125 75.144 184.36 75.24 184.552 75.432C184.744 75.624 184.84 75.8587 184.84 76.136C184.84 76.4133 184.744 76.648 184.552 76.84C184.36 77.032 184.125 77.128 183.848 77.128C183.57 77.128 183.336 77.032 183.144 76.84C182.952 76.648 182.856 76.4133 182.856 76.136C182.856 75.8587 182.952 75.624 183.144 75.432C183.336 75.24 183.57 75.144 183.848 75.144ZM184.568 87H183.128V79H184.568V87ZM194.576 79V86.232C194.576 87.448 194.203 88.4027 193.456 89.096C192.72 89.7893 191.712 90.136 190.432 90.136C189.888 90.136 189.36 90.0773 188.848 89.96C188.336 89.8427 187.819 89.656 187.296 89.4L186.992 87.784L187.024 87.768C187.664 88.1307 188.256 88.392 188.8 88.552C189.355 88.7227 189.92 88.808 190.496 88.808C191.285 88.808 191.92 88.5733 192.4 88.104C192.88 87.6453 193.12 87.0213 193.12 86.232V85.512C192.64 85.9813 192.171 86.3227 191.712 86.536C191.253 86.7387 190.763 86.84 190.24 86.84C189.216 86.84 188.368 86.4827 187.696 85.768C187.035 85.0533 186.704 84.1467 186.704 83.048C186.704 81.832 187.125 80.8347 187.968 80.056C188.821 79.2667 189.867 78.872 191.104 78.872C191.467 78.872 191.824 78.9093 192.176 78.984C192.528 79.0587 192.907 79.1813 193.312 79.352L194.384 79H194.576ZM191.136 80.104C190.293 80.104 189.589 80.376 189.024 80.92C188.469 81.464 188.192 82.1467 188.192 82.968C188.192 83.7467 188.421 84.376 188.88 84.856C189.339 85.336 189.936 85.576 190.672 85.576C191.077 85.576 191.472 85.496 191.856 85.336C192.251 85.1653 192.672 84.8933 193.12 84.52V80.552C192.768 80.4027 192.432 80.2907 192.112 80.216C191.792 80.1413 191.467 80.104 191.136 80.104ZM201.17 80.136C200.754 80.136 200.359 80.248 199.986 80.472C199.623 80.6853 199.202 81.0533 198.722 81.576V87H197.282V75.384L198.722 74.856V80.504C199.181 79.9173 199.634 79.496 200.082 79.24C200.53 78.9733 201.026 78.84 201.57 78.84C202.413 78.84 203.09 79.1227 203.602 79.688C204.125 80.2533 204.386 81.0107 204.386 81.96V87H202.946V82.104C202.946 81.4853 202.786 81.0053 202.466 80.664C202.157 80.312 201.725 80.136 201.17 80.136ZM208.458 87H207.018V75.384L208.458 74.856V87ZM218.323 79L214.611 87.896C214.301 88.6427 213.912 89.2027 213.443 89.576C212.973 89.9493 212.429 90.136 211.811 90.136C211.576 90.136 211.347 90.1093 211.123 90.056C210.899 90.0133 210.68 89.9387 210.467 89.832L210.179 88.36L210.211 88.344C210.467 88.4933 210.701 88.6 210.915 88.664C211.128 88.7387 211.352 88.776 211.587 88.776C211.971 88.776 212.296 88.664 212.563 88.44C212.84 88.2267 213.08 87.8853 213.283 87.416L213.651 86.552L210.259 79H211.859L214.387 84.904L216.755 79H218.323ZM229.933 84.616L229.677 86.28C229.24 86.5787 228.787 86.808 228.317 86.968C227.848 87.1173 227.373 87.192 226.893 87.192C225.688 87.192 224.707 86.8027 223.949 86.024C223.192 85.2453 222.813 84.2427 222.813 83.016C222.813 81.8213 223.213 80.824 224.013 80.024C224.824 79.2133 225.843 78.808 227.069 78.808C227.603 78.808 228.088 78.888 228.525 79.048C228.963 79.1973 229.373 79.4373 229.757 79.768V81.544H229.725C229.245 81.0533 228.787 80.696 228.349 80.472C227.923 80.248 227.485 80.136 227.037 80.136C226.259 80.136 225.608 80.4133 225.085 80.968C224.563 81.5227 224.301 82.2 224.301 83C224.301 83.832 224.547 84.52 225.037 85.064C225.539 85.5973 226.179 85.864 226.957 85.864C227.427 85.864 227.923 85.752 228.445 85.528C228.968 85.2933 229.453 84.984 229.901 84.6L229.933 84.616ZM239.054 87H237.598V85.496C237.14 86.0827 236.686 86.5093 236.238 86.776C235.79 87.032 235.294 87.16 234.75 87.16C233.908 87.16 233.225 86.8773 232.702 86.312C232.19 85.7467 231.934 84.9893 231.934 84.04V79H233.39V83.896C233.39 84.5147 233.545 85 233.854 85.352C234.174 85.6933 234.612 85.864 235.166 85.864C235.572 85.864 235.956 85.7573 236.318 85.544C236.692 85.32 237.118 84.9467 237.598 84.424V79H239.054V87ZM244.887 82.328C245.943 82.5733 246.673 82.8827 247.079 83.256C247.495 83.6293 247.703 84.1413 247.703 84.792C247.703 85.4853 247.399 86.056 246.791 86.504C246.193 86.952 245.425 87.176 244.487 87.176C243.921 87.176 243.383 87.096 242.871 86.936C242.359 86.776 241.852 86.5307 241.351 86.2L241.047 84.456L241.079 84.44C241.676 84.9093 242.279 85.2667 242.887 85.512C243.495 85.7573 244.081 85.88 244.647 85.88C245.127 85.88 245.521 85.7893 245.831 85.608C246.151 85.416 246.311 85.1707 246.311 84.872C246.311 84.552 246.161 84.3013 245.863 84.12C245.575 83.9387 244.999 83.7467 244.135 83.544C243.1 83.2987 242.38 82.9947 241.975 82.632C241.569 82.2693 241.367 81.7947 241.367 81.208C241.367 80.504 241.655 79.9333 242.231 79.496C242.817 79.048 243.569 78.824 244.487 78.824C244.935 78.824 245.383 78.888 245.831 79.016C246.279 79.144 246.705 79.3253 247.111 79.56V81.096H247.079C246.577 80.776 246.092 80.536 245.623 80.376C245.164 80.2053 244.732 80.12 244.327 80.12C243.847 80.12 243.463 80.2053 243.175 80.376C242.897 80.5467 242.759 80.7707 242.759 81.048C242.759 81.3467 242.903 81.5867 243.191 81.768C243.479 81.9387 244.044 82.1253 244.887 82.328ZM254.949 85.08L254.629 86.616C254.394 86.7867 254.117 86.92 253.797 87.016C253.477 87.1227 253.146 87.176 252.805 87.176C252.048 87.176 251.45 86.9413 251.013 86.472C250.576 86.0027 250.357 85.3467 250.357 84.504V80.232H248.997V79H250.357V77.208L251.781 76.68V79H254.917V80.232H251.781V84.44C251.781 84.92 251.893 85.2827 252.117 85.528C252.341 85.7627 252.672 85.88 253.109 85.88C253.408 85.88 253.706 85.816 254.005 85.688C254.304 85.5493 254.608 85.3413 254.917 85.064L254.949 85.08ZM260.505 87.224C259.279 87.224 258.271 86.8187 257.481 86.008C256.692 85.1867 256.297 84.1893 256.297 83.016C256.297 81.8533 256.703 80.856 257.513 80.024C258.324 79.192 259.332 78.776 260.537 78.776C261.775 78.776 262.783 79.1813 263.561 79.992C264.351 80.792 264.745 81.784 264.745 82.968C264.745 84.1413 264.34 85.144 263.529 85.976C262.729 86.808 261.721 87.224 260.505 87.224ZM263.273 82.968C263.273 82.136 263.012 81.448 262.489 80.904C261.977 80.3493 261.327 80.072 260.537 80.072C259.737 80.072 259.076 80.3547 258.553 80.92C258.041 81.4747 257.785 82.1733 257.785 83.016C257.785 83.848 258.041 84.5413 258.553 85.096C259.076 85.6507 259.727 85.928 260.505 85.928C261.305 85.928 261.967 85.6453 262.489 85.08C263.012 84.5147 263.273 83.8107 263.273 82.968ZM270.478 80.136C270.104 80.136 269.747 80.2427 269.406 80.456C269.075 80.6587 268.686 81.0107 268.238 81.512V87H266.798V79.192L268.238 78.872V80.44C268.664 79.8747 269.091 79.4693 269.518 79.224C269.944 78.968 270.408 78.84 270.91 78.84C271.496 78.84 272.003 78.9947 272.43 79.304C272.867 79.6133 273.187 80.0507 273.39 80.616C273.859 79.9867 274.318 79.5333 274.766 79.256C275.214 78.9787 275.715 78.84 276.27 78.84C277.08 78.84 277.731 79.1227 278.222 79.688C278.723 80.2533 278.974 81.0107 278.974 81.96V87H277.518V82.104C277.518 81.4853 277.368 81.0053 277.07 80.664C276.771 80.312 276.36 80.136 275.838 80.136C275.464 80.136 275.102 80.2427 274.75 80.456C274.408 80.6693 274.019 81.0267 273.582 81.528C273.592 81.5707 273.598 81.624 273.598 81.688C273.598 81.7413 273.598 81.832 273.598 81.96V87H272.158V82.104C272.158 81.4853 272.008 81.0053 271.71 80.664C271.411 80.312 271 80.136 270.478 80.136ZM282.332 75.144C282.609 75.144 282.844 75.24 283.036 75.432C283.228 75.624 283.324 75.8587 283.324 76.136C283.324 76.4133 283.228 76.648 283.036 76.84C282.844 77.032 282.609 77.128 282.332 77.128C282.055 77.128 281.82 77.032 281.628 76.84C281.436 76.648 281.34 76.4133 281.34 76.136C281.34 75.8587 281.436 75.624 281.628 75.432C281.82 75.24 282.055 75.144 282.332 75.144ZM283.052 87H281.612V79H283.052V87ZM287.364 85.752H292.452L292.004 87H284.996L284.916 86.76L289.94 80.248H285.476V79H292.324L292.388 79.224L287.364 85.752ZM300.919 82.136V86.808L299.479 87.128V85.704C298.882 86.184 298.316 86.5413 297.783 86.776C297.26 87.0107 296.748 87.128 296.247 87.128C295.543 87.128 294.972 86.936 294.535 86.552C294.098 86.1573 293.879 85.6347 293.879 84.984C293.879 84.0667 294.338 83.3893 295.255 82.952C296.172 82.504 297.58 82.2693 299.479 82.248V82.216C299.479 81.5547 299.319 81.0533 298.999 80.712C298.69 80.36 298.236 80.184 297.639 80.184C297.191 80.184 296.727 80.28 296.247 80.472C295.778 80.664 295.292 80.952 294.791 81.336L294.759 81.32L295.063 79.704C295.49 79.416 295.932 79.2027 296.391 79.064C296.86 78.9253 297.351 78.856 297.863 78.856C298.844 78.856 299.596 79.1387 300.119 79.704C300.652 80.2693 300.919 81.08 300.919 82.136ZM295.335 84.92C295.335 85.2187 295.442 85.4587 295.655 85.64C295.868 85.8107 296.162 85.896 296.535 85.896C296.908 85.896 297.335 85.8053 297.815 85.624C298.295 85.4427 298.85 85.16 299.479 84.776V83.176C298.092 83.2613 297.052 83.448 296.359 83.736C295.676 84.0133 295.335 84.408 295.335 84.92ZM307.741 78.84C308.733 78.84 309.565 79.2187 310.237 79.976C310.92 80.7227 311.261 81.656 311.261 82.776C311.261 84.0453 310.84 85.0907 309.997 85.912C309.154 86.7227 308.109 87.128 306.861 87.128C306.498 87.128 306.141 87.0907 305.789 87.016C305.437 86.9413 305.074 86.824 304.701 86.664L303.661 87H303.485V75.384L304.925 74.856V80.168C305.394 79.6987 305.853 79.3627 306.301 79.16C306.749 78.9467 307.229 78.84 307.741 78.84ZM309.789 82.872C309.789 82.0613 309.554 81.4053 309.085 80.904C308.626 80.392 308.034 80.136 307.309 80.136C306.893 80.136 306.498 80.216 306.125 80.376C305.752 80.536 305.352 80.792 304.925 81.144V85.464C305.245 85.592 305.56 85.688 305.869 85.752C306.178 85.816 306.498 85.848 306.829 85.848C307.682 85.848 308.386 85.5653 308.941 85C309.506 84.4347 309.789 83.7253 309.789 82.872ZM314.864 87H313.424V75.384L314.864 74.856V87ZM324.297 84.888L323.769 86.472C323.3 86.728 322.862 86.9093 322.457 87.016C322.052 87.1227 321.609 87.176 321.129 87.176C319.86 87.176 318.852 86.7973 318.105 86.04C317.358 85.2827 316.985 84.2693 316.985 83C316.985 81.8267 317.358 80.8293 318.105 80.008C318.852 79.1867 319.78 78.776 320.889 78.776C321.998 78.776 322.884 79.1653 323.545 79.944C324.206 80.712 324.537 81.704 324.537 82.92C324.537 83.0267 324.532 83.144 324.521 83.272C324.51 83.4 324.5 83.496 324.489 83.56H318.473C318.58 84.2853 318.878 84.8507 319.369 85.256C319.87 85.6613 320.51 85.864 321.289 85.864C321.758 85.864 322.249 85.7787 322.761 85.608C323.284 85.4267 323.785 85.1813 324.265 84.872L324.297 84.888ZM320.841 80.04C320.19 80.04 319.641 80.2693 319.193 80.728C318.756 81.1867 318.505 81.7733 318.441 82.488H323.081C323.017 81.72 322.788 81.1227 322.393 80.696C321.998 80.2587 321.481 80.04 320.841 80.04ZM325.474 89.672L325.042 89.304C325.554 88.6213 325.89 88.0453 326.05 87.576C326.21 87.1067 326.29 86.4987 326.29 85.752V85.224H327.778C327.778 86.1413 327.634 86.904 327.346 87.512C327.058 88.1307 326.434 88.8507 325.474 89.672ZM339.969 84.888L339.441 86.472C338.971 86.728 338.534 86.9093 338.129 87.016C337.723 87.1227 337.281 87.176 336.801 87.176C335.531 87.176 334.523 86.7973 333.777 86.04C333.03 85.2827 332.657 84.2693 332.657 83C332.657 81.8267 333.03 80.8293 333.777 80.008C334.523 79.1867 335.451 78.776 336.561 78.776C337.67 78.776 338.555 79.1653 339.217 79.944C339.878 80.712 340.209 81.704 340.209 82.92C340.209 83.0267 340.203 83.144 340.193 83.272C340.182 83.4 340.171 83.496 340.161 83.56H334.145C334.251 84.2853 334.55 84.8507 335.041 85.256C335.542 85.6613 336.182 85.864 336.961 85.864C337.43 85.864 337.921 85.7787 338.433 85.608C338.955 85.4267 339.457 85.1813 339.937 84.872L339.969 84.888ZM336.513 80.04C335.862 80.04 335.313 80.2693 334.865 80.728C334.427 81.1867 334.177 81.7733 334.113 82.488H338.753C338.689 81.72 338.459 81.1227 338.065 80.696C337.67 80.2587 337.153 80.04 336.513 80.04ZM345.946 80.136C345.573 80.136 345.216 80.2427 344.874 80.456C344.544 80.6587 344.154 81.0107 343.706 81.512V87H342.266V79.192L343.706 78.872V80.44C344.133 79.8747 344.56 79.4693 344.986 79.224C345.413 78.968 345.877 78.84 346.378 78.84C346.965 78.84 347.472 78.9947 347.898 79.304C348.336 79.6133 348.656 80.0507 348.858 80.616C349.328 79.9867 349.786 79.5333 350.234 79.256C350.682 78.9787 351.184 78.84 351.738 78.84C352.549 78.84 353.2 79.1227 353.69 79.688C354.192 80.2533 354.442 81.0107 354.442 81.96V87H352.986V82.104C352.986 81.4853 352.837 81.0053 352.538 80.664C352.24 80.312 351.829 80.136 351.306 80.136C350.933 80.136 350.57 80.2427 350.218 80.456C349.877 80.6693 349.488 81.0267 349.05 81.528C349.061 81.5707 349.066 81.624 349.066 81.688C349.066 81.7413 349.066 81.832 349.066 81.96V87H347.626V82.104C347.626 81.4853 347.477 81.0053 347.178 80.664C346.88 80.312 346.469 80.136 345.946 80.136ZM364.857 82.84C364.857 84.0667 364.462 85.0907 363.673 85.912C362.894 86.7227 361.95 87.128 360.841 87.128C360.414 87.128 360.003 87.0587 359.609 86.92C359.225 86.7813 358.835 86.568 358.441 86.28V90.056H357.001V79.192L358.441 78.872V80.168C358.889 79.6987 359.331 79.3627 359.769 79.16C360.206 78.9467 360.686 78.84 361.209 78.84C362.233 78.84 363.097 79.224 363.801 79.992C364.505 80.7493 364.857 81.6987 364.857 82.84ZM363.369 82.952C363.369 82.12 363.123 81.4427 362.633 80.92C362.153 80.3973 361.55 80.136 360.825 80.136C360.409 80.136 360.014 80.216 359.641 80.376C359.267 80.536 358.867 80.792 358.441 81.144V85.16C358.803 85.3947 359.155 85.5707 359.497 85.688C359.849 85.7947 360.217 85.848 360.601 85.848C361.401 85.848 362.062 85.576 362.585 85.032C363.107 84.4773 363.369 83.784 363.369 82.952ZM370.459 87.224C369.232 87.224 368.224 86.8187 367.435 86.008C366.645 85.1867 366.251 84.1893 366.251 83.016C366.251 81.8533 366.656 80.856 367.467 80.024C368.277 79.192 369.285 78.776 370.491 78.776C371.728 78.776 372.736 79.1813 373.515 79.992C374.304 80.792 374.699 81.784 374.699 82.968C374.699 84.1413 374.293 85.144 373.483 85.976C372.683 86.808 371.675 87.224 370.459 87.224ZM373.227 82.968C373.227 82.136 372.965 81.448 372.443 80.904C371.931 80.3493 371.28 80.072 370.491 80.072C369.691 80.072 369.029 80.3547 368.507 80.92C367.995 81.4747 367.739 82.1733 367.739 83.016C367.739 83.848 367.995 84.5413 368.507 85.096C369.029 85.6507 369.68 85.928 370.459 85.928C371.259 85.928 371.92 85.6453 372.443 85.08C372.965 84.5147 373.227 83.8107 373.227 82.968ZM387.583 79H389.055L385.919 87.112H384.719L382.399 81.8L379.935 87.112H378.719L375.807 79H377.359L379.423 85.192L382.335 78.904H382.607L385.311 85.192L387.583 79ZM397.297 84.888L396.769 86.472C396.3 86.728 395.862 86.9093 395.457 87.016C395.052 87.1227 394.609 87.176 394.129 87.176C392.86 87.176 391.852 86.7973 391.105 86.04C390.358 85.2827 389.985 84.2693 389.985 83C389.985 81.8267 390.358 80.8293 391.105 80.008C391.852 79.1867 392.78 78.776 393.889 78.776C394.998 78.776 395.884 79.1653 396.545 79.944C397.206 80.712 397.537 81.704 397.537 82.92C397.537 83.0267 397.532 83.144 397.521 83.272C397.51 83.4 397.5 83.496 397.489 83.56H391.473C391.58 84.2853 391.878 84.8507 392.369 85.256C392.87 85.6613 393.51 85.864 394.289 85.864C394.758 85.864 395.249 85.7787 395.761 85.608C396.284 85.4267 396.785 85.1813 397.265 84.872L397.297 84.888ZM393.841 80.04C393.19 80.04 392.641 80.2693 392.193 80.728C391.756 81.1867 391.505 81.7733 391.441 82.488H396.081C396.017 81.72 395.788 81.1227 395.393 80.696C394.998 80.2587 394.481 80.04 393.841 80.04ZM404.01 80.408C403.541 80.408 403.077 80.52 402.618 80.744C402.17 80.968 401.642 81.3467 401.034 81.88V87H399.594V79.192L401.034 78.872V80.904C401.696 80.0827 402.213 79.5387 402.586 79.272C402.97 79.0053 403.381 78.872 403.818 78.872C403.914 78.872 403.994 78.8773 404.058 78.888C404.133 78.8987 404.224 78.9147 404.33 78.936L404.442 80.456C404.368 80.4347 404.293 80.424 404.218 80.424C404.154 80.4133 404.085 80.408 404.01 80.408ZM407.035 75.144C407.312 75.144 407.547 75.24 407.739 75.432C407.931 75.624 408.027 75.8587 408.027 76.136C408.027 76.4133 407.931 76.648 407.739 76.84C407.547 77.032 407.312 77.128 407.035 77.128C406.758 77.128 406.523 77.032 406.331 76.84C406.139 76.648 406.043 76.4133 406.043 76.136C406.043 75.8587 406.139 75.624 406.331 75.432C406.523 75.24 406.758 75.144 407.035 75.144ZM407.755 87H406.315V79H407.755V87ZM414.436 80.136C414.02 80.136 413.625 80.248 413.252 80.472C412.889 80.6853 412.468 81.0533 411.988 81.576V87H410.548V79.192L411.988 78.872V80.504C412.446 79.9173 412.9 79.496 413.348 79.24C413.796 78.9733 414.292 78.84 414.836 78.84C415.678 78.84 416.356 79.1227 416.868 79.688C417.39 80.2533 417.652 81.0107 417.652 81.96V87H416.212V82.104C416.212 81.4853 416.052 81.0053 415.732 80.664C415.422 80.312 414.99 80.136 414.436 80.136ZM427.42 79V86.232C427.42 87.448 427.046 88.4027 426.3 89.096C425.564 89.7893 424.556 90.136 423.276 90.136C422.732 90.136 422.204 90.0773 421.692 89.96C421.18 89.8427 420.662 89.656 420.14 89.4L419.836 87.784L419.868 87.768C420.508 88.1307 421.1 88.392 421.644 88.552C422.198 88.7227 422.764 88.808 423.34 88.808C424.129 88.808 424.764 88.5733 425.244 88.104C425.724 87.6453 425.964 87.0213 425.964 86.232V85.512C425.484 85.9813 425.014 86.3227 424.556 86.536C424.097 86.7387 423.606 86.84 423.084 86.84C422.06 86.84 421.212 86.4827 420.54 85.768C419.878 85.0533 419.548 84.1467 419.548 83.048C419.548 81.832 419.969 80.8347 420.812 80.056C421.665 79.2667 422.71 78.872 423.948 78.872C424.31 78.872 424.668 78.9093 425.02 78.984C425.372 79.0587 425.75 79.1813 426.156 79.352L427.228 79H427.42ZM423.98 80.104C423.137 80.104 422.433 80.376 421.868 80.92C421.313 81.464 421.036 82.1467 421.036 82.968C421.036 83.7467 421.265 84.376 421.724 84.856C422.182 85.336 422.78 85.576 423.516 85.576C423.921 85.576 424.316 85.496 424.7 85.336C425.094 85.1653 425.516 84.8933 425.964 84.52V80.552C425.612 80.4027 425.276 80.2907 424.956 80.216C424.636 80.1413 424.31 80.104 423.98 80.104ZM440.651 79L436.939 87.896C436.629 88.6427 436.24 89.2027 435.771 89.576C435.301 89.9493 434.757 90.136 434.139 90.136C433.904 90.136 433.675 90.1093 433.451 90.056C433.227 90.0133 433.008 89.9387 432.795 89.832L432.507 88.36L432.539 88.344C432.795 88.4933 433.029 88.6 433.243 88.664C433.456 88.7387 433.68 88.776 433.915 88.776C434.299 88.776 434.624 88.664 434.891 88.44C435.168 88.2267 435.408 87.8853 435.611 87.416L435.979 86.552L432.587 79H434.187L436.715 84.904L439.083 79H440.651ZM445.724 87.224C444.497 87.224 443.489 86.8187 442.7 86.008C441.911 85.1867 441.516 84.1893 441.516 83.016C441.516 81.8533 441.921 80.856 442.732 80.024C443.543 79.192 444.551 78.776 445.756 78.776C446.993 78.776 448.001 79.1813 448.78 79.992C449.569 80.792 449.964 81.784 449.964 82.968C449.964 84.1413 449.559 85.144 448.748 85.976C447.948 86.808 446.94 87.224 445.724 87.224ZM448.492 82.968C448.492 82.136 448.231 81.448 447.708 80.904C447.196 80.3493 446.545 80.072 445.756 80.072C444.956 80.072 444.295 80.3547 443.772 80.92C443.26 81.4747 443.004 82.1733 443.004 83.016C443.004 83.848 443.26 84.5413 443.772 85.096C444.295 85.6507 444.945 85.928 445.724 85.928C446.524 85.928 447.185 85.6453 447.708 85.08C448.231 84.5147 448.492 83.8107 448.492 82.968ZM458.976 87H457.52V85.496C457.062 86.0827 456.608 86.5093 456.16 86.776C455.712 87.032 455.216 87.16 454.672 87.16C453.83 87.16 453.147 86.8773 452.624 86.312C452.112 85.7467 451.856 84.9893 451.856 84.04V79H453.312V83.896C453.312 84.5147 453.467 85 453.776 85.352C454.096 85.6933 454.534 85.864 455.088 85.864C455.494 85.864 455.878 85.7573 456.24 85.544C456.614 85.32 457.04 84.9467 457.52 84.424V79H458.976V87ZM77.496 109.08L77.176 110.616C76.9413 110.787 76.664 110.92 76.344 111.016C76.024 111.123 75.6933 111.176 75.352 111.176C74.5947 111.176 73.9973 110.941 73.56 110.472C73.1227 110.003 72.904 109.347 72.904 108.504V104.232H71.544V103H72.904V101.208L74.328 100.68V103H77.464V104.232H74.328V108.44C74.328 108.92 74.44 109.283 74.664 109.528C74.888 109.763 75.2187 109.88 75.656 109.88C75.9547 109.88 76.2533 109.816 76.552 109.688C76.8507 109.549 77.1547 109.341 77.464 109.064L77.496 109.08ZM83.0523 111.224C81.8256 111.224 80.8176 110.819 80.0283 110.008C79.2389 109.187 78.8443 108.189 78.8443 107.016C78.8443 105.853 79.2496 104.856 80.0603 104.024C80.8709 103.192 81.8789 102.776 83.0843 102.776C84.3216 102.776 85.3296 103.181 86.1083 103.992C86.8976 104.792 87.2923 105.784 87.2923 106.968C87.2923 108.141 86.8869 109.144 86.0763 109.976C85.2763 110.808 84.2683 111.224 83.0523 111.224ZM85.8203 106.968C85.8203 106.136 85.5589 105.448 85.0363 104.904C84.5243 104.349 83.8736 104.072 83.0843 104.072C82.2843 104.072 81.6229 104.355 81.1003 104.92C80.5883 105.475 80.3323 106.173 80.3323 107.016C80.3323 107.848 80.5883 108.541 81.1003 109.096C81.6229 109.651 82.2736 109.928 83.0523 109.928C83.8523 109.928 84.5136 109.645 85.0363 109.08C85.5589 108.515 85.8203 107.811 85.8203 106.968ZM99.4375 108.888L98.9095 110.472C98.4402 110.728 98.0028 110.909 97.5975 111.016C97.1922 111.123 96.7495 111.176 96.2695 111.176C95.0002 111.176 93.9922 110.797 93.2455 110.04C92.4988 109.283 92.1255 108.269 92.1255 107C92.1255 105.827 92.4988 104.829 93.2455 104.008C93.9922 103.187 94.9202 102.776 96.0295 102.776C97.1388 102.776 98.0242 103.165 98.6855 103.944C99.3468 104.712 99.6775 105.704 99.6775 106.92C99.6775 107.027 99.6722 107.144 99.6615 107.272C99.6508 107.4 99.6402 107.496 99.6295 107.56H93.6135C93.7202 108.285 94.0188 108.851 94.5095 109.256C95.0108 109.661 95.6508 109.864 96.4295 109.864C96.8988 109.864 97.3895 109.779 97.9015 109.608C98.4242 109.427 98.9255 109.181 99.4055 108.872L99.4375 108.888ZM95.9815 104.04C95.3308 104.04 94.7815 104.269 94.3335 104.728C93.8962 105.187 93.6455 105.773 93.5815 106.488H98.2215C98.1575 105.72 97.9282 105.123 97.5335 104.696C97.1388 104.259 96.6215 104.04 95.9815 104.04ZM108.247 106.136V110.808L106.807 111.128V109.704C106.21 110.184 105.644 110.541 105.111 110.776C104.588 111.011 104.076 111.128 103.575 111.128C102.871 111.128 102.3 110.936 101.863 110.552C101.426 110.157 101.207 109.635 101.207 108.984C101.207 108.067 101.666 107.389 102.583 106.952C103.5 106.504 104.908 106.269 106.807 106.248V106.216C106.807 105.555 106.647 105.053 106.327 104.712C106.018 104.36 105.564 104.184 104.967 104.184C104.519 104.184 104.055 104.28 103.575 104.472C103.106 104.664 102.62 104.952 102.119 105.336L102.087 105.32L102.391 103.704C102.818 103.416 103.26 103.203 103.719 103.064C104.188 102.925 104.679 102.856 105.191 102.856C106.172 102.856 106.924 103.139 107.447 103.704C107.98 104.269 108.247 105.08 108.247 106.136ZM102.663 108.92C102.663 109.219 102.77 109.459 102.983 109.64C103.196 109.811 103.49 109.896 103.863 109.896C104.236 109.896 104.663 109.805 105.143 109.624C105.623 109.443 106.178 109.16 106.807 108.776V107.176C105.42 107.261 104.38 107.448 103.687 107.736C103.004 108.013 102.663 108.408 102.663 108.92ZM113.949 106.328C115.005 106.573 115.736 106.883 116.141 107.256C116.557 107.629 116.765 108.141 116.765 108.792C116.765 109.485 116.461 110.056 115.853 110.504C115.256 110.952 114.488 111.176 113.549 111.176C112.984 111.176 112.445 111.096 111.933 110.936C111.421 110.776 110.914 110.531 110.413 110.2L110.109 108.456L110.141 108.44C110.738 108.909 111.341 109.267 111.949 109.512C112.557 109.757 113.144 109.88 113.709 109.88C114.189 109.88 114.584 109.789 114.893 109.608C115.213 109.416 115.373 109.171 115.373 108.872C115.373 108.552 115.224 108.301 114.925 108.12C114.637 107.939 114.061 107.747 113.197 107.544C112.162 107.299 111.442 106.995 111.037 106.632C110.632 106.269 110.429 105.795 110.429 105.208C110.429 104.504 110.717 103.933 111.293 103.496C111.88 103.048 112.632 102.824 113.549 102.824C113.997 102.824 114.445 102.888 114.893 103.016C115.341 103.144 115.768 103.325 116.173 103.56V105.096H116.141C115.64 104.776 115.154 104.536 114.685 104.376C114.226 104.205 113.794 104.12 113.389 104.12C112.909 104.12 112.525 104.205 112.237 104.376C111.96 104.547 111.821 104.771 111.821 105.048C111.821 105.347 111.965 105.587 112.253 105.768C112.541 105.939 113.106 106.125 113.949 106.328ZM119.676 99.144C119.953 99.144 120.188 99.24 120.38 99.432C120.572 99.624 120.668 99.8587 120.668 100.136C120.668 100.413 120.572 100.648 120.38 100.84C120.188 101.032 119.953 101.128 119.676 101.128C119.398 101.128 119.164 101.032 118.972 100.84C118.78 100.648 118.684 100.413 118.684 100.136C118.684 99.8587 118.78 99.624 118.972 99.432C119.164 99.24 119.398 99.144 119.676 99.144ZM120.396 111H118.956V103H120.396V111ZM124.708 111H123.268V99.384L124.708 98.856V111ZM134.573 103L130.861 111.896C130.551 112.643 130.162 113.203 129.693 113.576C129.223 113.949 128.679 114.136 128.061 114.136C127.826 114.136 127.597 114.109 127.373 114.056C127.149 114.013 126.93 113.939 126.717 113.832L126.429 112.36L126.461 112.344C126.717 112.493 126.951 112.6 127.165 112.664C127.378 112.739 127.602 112.776 127.837 112.776C128.221 112.776 128.546 112.664 128.813 112.44C129.09 112.227 129.33 111.885 129.533 111.416L129.901 110.552L126.509 103H128.109L130.637 108.904L133.005 103H134.573ZM146.183 108.616L145.927 110.28C145.49 110.579 145.037 110.808 144.567 110.968C144.098 111.117 143.623 111.192 143.143 111.192C141.938 111.192 140.957 110.803 140.199 110.024C139.442 109.245 139.063 108.243 139.063 107.016C139.063 105.821 139.463 104.824 140.263 104.024C141.074 103.213 142.093 102.808 143.319 102.808C143.853 102.808 144.338 102.888 144.775 103.048C145.213 103.197 145.623 103.437 146.007 103.768V105.544H145.975C145.495 105.053 145.037 104.696 144.599 104.472C144.173 104.248 143.735 104.136 143.287 104.136C142.509 104.136 141.858 104.413 141.335 104.968C140.813 105.523 140.551 106.2 140.551 107C140.551 107.832 140.797 108.52 141.287 109.064C141.789 109.597 142.429 109.864 143.207 109.864C143.677 109.864 144.173 109.752 144.695 109.528C145.218 109.293 145.703 108.984 146.151 108.6L146.183 108.616ZM152.76 104.408C152.291 104.408 151.827 104.52 151.368 104.744C150.92 104.968 150.392 105.347 149.784 105.88V111H148.344V103.192L149.784 102.872V104.904C150.446 104.083 150.963 103.539 151.336 103.272C151.72 103.005 152.131 102.872 152.568 102.872C152.664 102.872 152.744 102.877 152.808 102.888C152.883 102.899 152.974 102.915 153.08 102.936L153.192 104.456C153.118 104.435 153.043 104.424 152.968 104.424C152.904 104.413 152.835 104.408 152.76 104.408ZM160.935 106.136V110.808L159.495 111.128V109.704C158.897 110.184 158.332 110.541 157.799 110.776C157.276 111.011 156.764 111.128 156.263 111.128C155.559 111.128 154.988 110.936 154.551 110.552C154.113 110.157 153.895 109.635 153.895 108.984C153.895 108.067 154.353 107.389 155.271 106.952C156.188 106.504 157.596 106.269 159.495 106.248V106.216C159.495 105.555 159.335 105.053 159.015 104.712C158.705 104.36 158.252 104.184 157.655 104.184C157.207 104.184 156.743 104.28 156.263 104.472C155.793 104.664 155.308 104.952 154.807 105.336L154.775 105.32L155.079 103.704C155.505 103.416 155.948 103.203 156.407 103.064C156.876 102.925 157.367 102.856 157.879 102.856C158.86 102.856 159.612 103.139 160.135 103.704C160.668 104.269 160.935 105.08 160.935 106.136ZM155.351 108.92C155.351 109.219 155.457 109.459 155.671 109.64C155.884 109.811 156.177 109.896 156.551 109.896C156.924 109.896 157.351 109.805 157.831 109.624C158.311 109.443 158.865 109.16 159.495 108.776V107.176C158.108 107.261 157.068 107.448 156.375 107.736C155.692 108.013 155.351 108.408 155.351 108.92ZM168.285 103V104.232H165.645V111H164.205V104.232H162.781V103H164.205V101.736C164.205 100.851 164.445 100.157 164.925 99.656C165.405 99.144 166.061 98.888 166.893 98.888C167.149 98.888 167.383 98.9093 167.597 98.952C167.81 98.9947 168.029 99.0693 168.253 99.176L168.493 100.664L168.461 100.68C168.162 100.509 167.901 100.392 167.677 100.328C167.453 100.253 167.223 100.216 166.989 100.216C166.573 100.216 166.242 100.349 165.997 100.616C165.762 100.872 165.645 101.229 165.645 101.688V103H168.285ZM175.043 109.08L174.723 110.616C174.488 110.787 174.211 110.92 173.891 111.016C173.571 111.123 173.24 111.176 172.899 111.176C172.142 111.176 171.544 110.941 171.107 110.472C170.67 110.003 170.451 109.347 170.451 108.504V104.232H169.091V103H170.451V101.208L171.875 100.68V103H175.011V104.232H171.875V108.44C171.875 108.92 171.987 109.283 172.211 109.528C172.435 109.763 172.766 109.88 173.203 109.88C173.502 109.88 173.8 109.816 174.099 109.688C174.398 109.549 174.702 109.341 175.011 109.064L175.043 109.08ZM187.028 106.136V110.808L185.588 111.128V109.704C184.991 110.184 184.426 110.541 183.892 110.776C183.37 111.011 182.858 111.128 182.356 111.128C181.652 111.128 181.082 110.936 180.644 110.552C180.207 110.157 179.988 109.635 179.988 108.984C179.988 108.067 180.447 107.389 181.364 106.952C182.282 106.504 183.69 106.269 185.588 106.248V106.216C185.588 105.555 185.428 105.053 185.108 104.712C184.799 104.36 184.346 104.184 183.748 104.184C183.3 104.184 182.836 104.28 182.356 104.472C181.887 104.664 181.402 104.952 180.9 105.336L180.868 105.32L181.172 103.704C181.599 103.416 182.042 103.203 182.5 103.064C182.97 102.925 183.46 102.856 183.972 102.856C184.954 102.856 185.706 103.139 186.228 103.704C186.762 104.269 187.028 105.08 187.028 106.136ZM181.444 108.92C181.444 109.219 181.551 109.459 181.764 109.64C181.978 109.811 182.271 109.896 182.644 109.896C183.018 109.896 183.444 109.805 183.924 109.624C184.404 109.443 184.959 109.16 185.588 108.776V107.176C184.202 107.261 183.162 107.448 182.468 107.736C181.786 108.013 181.444 108.408 181.444 108.92ZM203.88 103H205.352L202.216 111.112H201.016L198.696 105.8L196.232 111.112H195.016L192.104 103H193.656L195.72 109.192L198.632 102.904H198.904L201.608 109.192L203.88 103ZM207.91 99.144C208.187 99.144 208.422 99.24 208.614 99.432C208.806 99.624 208.902 99.8587 208.902 100.136C208.902 100.413 208.806 100.648 208.614 100.84C208.422 101.032 208.187 101.128 207.91 101.128C207.633 101.128 207.398 101.032 207.206 100.84C207.014 100.648 206.918 100.413 206.918 100.136C206.918 99.8587 207.014 99.624 207.206 99.432C207.398 99.24 207.633 99.144 207.91 99.144ZM208.63 111H207.19V103H208.63V111ZM218.639 111H217.183V109.848C216.724 110.307 216.276 110.643 215.839 110.856C215.412 111.059 214.937 111.16 214.415 111.16C213.391 111.16 212.527 110.781 211.823 110.024C211.119 109.256 210.767 108.301 210.767 107.16C210.767 105.933 211.161 104.915 211.951 104.104C212.74 103.283 213.689 102.872 214.799 102.872C215.215 102.872 215.615 102.941 215.999 103.08C216.393 103.208 216.788 103.416 217.183 103.704V99.384L218.639 98.856V111ZM215.039 104.152C214.239 104.152 213.572 104.424 213.039 104.968C212.516 105.512 212.255 106.205 212.255 107.048C212.255 107.869 212.495 108.547 212.975 109.08C213.465 109.603 214.073 109.864 214.799 109.864C215.215 109.864 215.609 109.784 215.983 109.624C216.356 109.464 216.756 109.208 217.183 108.856V104.824C216.809 104.589 216.452 104.419 216.111 104.312C215.769 104.205 215.412 104.152 215.039 104.152ZM227.984 108.888L227.456 110.472C226.987 110.728 226.55 110.909 226.144 111.016C225.739 111.123 225.296 111.176 224.816 111.176C223.547 111.176 222.539 110.797 221.792 110.04C221.046 109.283 220.672 108.269 220.672 107C220.672 105.827 221.046 104.829 221.792 104.008C222.539 103.187 223.467 102.776 224.576 102.776C225.686 102.776 226.571 103.165 227.232 103.944C227.894 104.712 228.224 105.704 228.224 106.92C228.224 107.027 228.219 107.144 228.208 107.272C228.198 107.4 228.187 107.496 228.176 107.56H222.16C222.267 108.285 222.566 108.851 223.056 109.256C223.558 109.661 224.198 109.864 224.976 109.864C225.446 109.864 225.936 109.779 226.448 109.608C226.971 109.427 227.472 109.181 227.952 108.872L227.984 108.888ZM224.528 104.04C223.878 104.04 223.328 104.269 222.88 104.728C222.443 105.187 222.192 105.773 222.128 106.488H226.768C226.704 105.72 226.475 105.123 226.08 104.696C225.686 104.259 225.168 104.04 224.528 104.04ZM238.151 104.408C237.682 104.408 237.218 104.52 236.759 104.744C236.311 104.968 235.783 105.347 235.175 105.88V111H233.735V103.192L235.175 102.872V104.904C235.836 104.083 236.354 103.539 236.727 103.272C237.111 103.005 237.522 102.872 237.959 102.872C238.055 102.872 238.135 102.877 238.199 102.888C238.274 102.899 238.364 102.915 238.471 102.936L238.583 104.456C238.508 104.435 238.434 104.424 238.359 104.424C238.295 104.413 238.226 104.408 238.151 104.408ZM246.325 106.136V110.808L244.885 111.128V109.704C244.288 110.184 243.722 110.541 243.189 110.776C242.666 111.011 242.154 111.128 241.653 111.128C240.949 111.128 240.378 110.936 239.941 110.552C239.504 110.157 239.285 109.635 239.285 108.984C239.285 108.067 239.744 107.389 240.661 106.952C241.578 106.504 242.986 106.269 244.885 106.248V106.216C244.885 105.555 244.725 105.053 244.405 104.712C244.096 104.36 243.642 104.184 243.045 104.184C242.597 104.184 242.133 104.28 241.653 104.472C241.184 104.664 240.698 104.952 240.197 105.336L240.165 105.32L240.469 103.704C240.896 103.416 241.338 103.203 241.797 103.064C242.266 102.925 242.757 102.856 243.269 102.856C244.25 102.856 245.002 103.139 245.525 103.704C246.058 104.269 246.325 105.08 246.325 106.136ZM240.741 108.92C240.741 109.219 240.848 109.459 241.061 109.64C241.274 109.811 241.568 109.896 241.941 109.896C242.314 109.896 242.741 109.805 243.221 109.624C243.701 109.443 244.256 109.16 244.885 108.776V107.176C243.498 107.261 242.458 107.448 241.765 107.736C241.082 108.013 240.741 108.408 240.741 108.92ZM252.779 104.136C252.363 104.136 251.969 104.248 251.595 104.472C251.233 104.685 250.811 105.053 250.331 105.576V111H248.891V103.192L250.331 102.872V104.504C250.79 103.917 251.243 103.496 251.691 103.24C252.139 102.973 252.635 102.84 253.179 102.84C254.022 102.84 254.699 103.123 255.211 103.688C255.734 104.253 255.995 105.011 255.995 105.96V111H254.555V106.104C254.555 105.485 254.395 105.005 254.075 104.664C253.766 104.312 253.334 104.136 252.779 104.136ZM265.764 103V110.232C265.764 111.448 265.39 112.403 264.644 113.096C263.908 113.789 262.9 114.136 261.62 114.136C261.076 114.136 260.548 114.077 260.036 113.96C259.524 113.843 259.006 113.656 258.484 113.4L258.18 111.784L258.212 111.768C258.852 112.131 259.444 112.392 259.988 112.552C260.542 112.723 261.108 112.808 261.684 112.808C262.473 112.808 263.108 112.573 263.588 112.104C264.068 111.645 264.308 111.021 264.308 110.232V109.512C263.828 109.981 263.358 110.323 262.9 110.536C262.441 110.739 261.95 110.84 261.428 110.84C260.404 110.84 259.556 110.483 258.884 109.768C258.222 109.053 257.892 108.147 257.892 107.048C257.892 105.832 258.313 104.835 259.156 104.056C260.009 103.267 261.054 102.872 262.292 102.872C262.654 102.872 263.012 102.909 263.364 102.984C263.716 103.059 264.094 103.181 264.5 103.352L265.572 103H265.764ZM262.324 104.104C261.481 104.104 260.777 104.376 260.212 104.92C259.657 105.464 259.38 106.147 259.38 106.968C259.38 107.747 259.609 108.376 260.068 108.856C260.526 109.336 261.124 109.576 261.86 109.576C262.265 109.576 262.66 109.496 263.044 109.336C263.438 109.165 263.86 108.893 264.308 108.52V104.552C263.956 104.403 263.62 104.291 263.3 104.216C262.98 104.141 262.654 104.104 262.324 104.104ZM275.109 108.888L274.581 110.472C274.112 110.728 273.675 110.909 273.269 111.016C272.864 111.123 272.421 111.176 271.941 111.176C270.672 111.176 269.664 110.797 268.917 110.04C268.171 109.283 267.797 108.269 267.797 107C267.797 105.827 268.171 104.829 268.917 104.008C269.664 103.187 270.592 102.776 271.701 102.776C272.811 102.776 273.696 103.165 274.357 103.944C275.019 104.712 275.349 105.704 275.349 106.92C275.349 107.027 275.344 107.144 275.333 107.272C275.323 107.4 275.312 107.496 275.301 107.56H269.285C269.392 108.285 269.691 108.851 270.181 109.256C270.683 109.661 271.323 109.864 272.101 109.864C272.571 109.864 273.061 109.779 273.573 109.608C274.096 109.427 274.597 109.181 275.077 108.872L275.109 108.888ZM271.653 104.04C271.003 104.04 270.453 104.269 270.005 104.728C269.568 105.187 269.317 105.773 269.253 106.488H273.893C273.829 105.72 273.6 105.123 273.205 104.696C272.811 104.259 272.293 104.04 271.653 104.04ZM284.396 111.224C283.169 111.224 282.161 110.819 281.372 110.008C280.583 109.187 280.188 108.189 280.188 107.016C280.188 105.853 280.593 104.856 281.404 104.024C282.215 103.192 283.223 102.776 284.428 102.776C285.665 102.776 286.673 103.181 287.452 103.992C288.241 104.792 288.636 105.784 288.636 106.968C288.636 108.141 288.231 109.144 287.42 109.976C286.62 110.808 285.612 111.224 284.396 111.224ZM287.164 106.968C287.164 106.136 286.903 105.448 286.38 104.904C285.868 104.349 285.217 104.072 284.428 104.072C283.628 104.072 282.967 104.355 282.444 104.92C281.932 105.475 281.676 106.173 281.676 107.016C281.676 107.848 281.932 108.541 282.444 109.096C282.967 109.651 283.617 109.928 284.396 109.928C285.196 109.928 285.857 109.645 286.38 109.08C286.903 108.515 287.164 107.811 287.164 106.968ZM295.472 103V104.232H292.832V111H291.392V104.232H289.968V103H291.392V101.736C291.392 100.851 291.632 100.157 292.112 99.656C292.592 99.144 293.248 98.888 294.08 98.888C294.336 98.888 294.571 98.9093 294.784 98.952C294.997 98.9947 295.216 99.0693 295.44 99.176L295.68 100.664L295.648 100.68C295.349 100.509 295.088 100.392 294.864 100.328C294.64 100.253 294.411 100.216 294.176 100.216C293.76 100.216 293.429 100.349 293.184 100.616C292.949 100.872 292.832 101.229 292.832 101.688V103H295.472ZM302.068 111H300.628V99.384L302.068 98.856V111ZM311.372 106.136V110.808L309.932 111.128V109.704C309.335 110.184 308.769 110.541 308.236 110.776C307.713 111.011 307.201 111.128 306.7 111.128C305.996 111.128 305.425 110.936 304.988 110.552C304.551 110.157 304.332 109.635 304.332 108.984C304.332 108.067 304.791 107.389 305.708 106.952C306.625 106.504 308.033 106.269 309.932 106.248V106.216C309.932 105.555 309.772 105.053 309.452 104.712C309.143 104.36 308.689 104.184 308.092 104.184C307.644 104.184 307.18 104.28 306.7 104.472C306.231 104.664 305.745 104.952 305.244 105.336L305.212 105.32L305.516 103.704C305.943 103.416 306.385 103.203 306.844 103.064C307.313 102.925 307.804 102.856 308.316 102.856C309.297 102.856 310.049 103.139 310.572 103.704C311.105 104.269 311.372 105.08 311.372 106.136ZM305.788 108.92C305.788 109.219 305.895 109.459 306.108 109.64C306.321 109.811 306.615 109.896 306.988 109.896C307.361 109.896 307.788 109.805 308.268 109.624C308.748 109.443 309.303 109.16 309.932 108.776V107.176C308.545 107.261 307.505 107.448 306.812 107.736C306.129 108.013 305.788 108.408 305.788 108.92ZM320.854 103L317.142 111.896C316.833 112.643 316.443 113.203 315.974 113.576C315.505 113.949 314.961 114.136 314.342 114.136C314.107 114.136 313.878 114.109 313.654 114.056C313.43 114.013 313.211 113.939 312.998 113.832L312.71 112.36L312.742 112.344C312.998 112.493 313.233 112.6 313.446 112.664C313.659 112.739 313.883 112.776 314.118 112.776C314.502 112.776 314.827 112.664 315.094 112.44C315.371 112.227 315.611 111.885 315.814 111.416L316.182 110.552L312.79 103H314.39L316.918 108.904L319.286 103H320.854ZM325.927 111.224C324.701 111.224 323.693 110.819 322.903 110.008C322.114 109.187 321.719 108.189 321.719 107.016C321.719 105.853 322.125 104.856 322.935 104.024C323.746 103.192 324.754 102.776 325.959 102.776C327.197 102.776 328.205 103.181 328.983 103.992C329.773 104.792 330.167 105.784 330.167 106.968C330.167 108.141 329.762 109.144 328.951 109.976C328.151 110.808 327.143 111.224 325.927 111.224ZM328.695 106.968C328.695 106.136 328.434 105.448 327.911 104.904C327.399 104.349 326.749 104.072 325.959 104.072C325.159 104.072 324.498 104.355 323.975 104.92C323.463 105.475 323.207 106.173 323.207 107.016C323.207 107.848 323.463 108.541 323.975 109.096C324.498 109.651 325.149 109.928 325.927 109.928C326.727 109.928 327.389 109.645 327.911 109.08C328.434 108.515 328.695 107.811 328.695 106.968ZM339.179 111H337.723V109.496C337.265 110.083 336.811 110.509 336.363 110.776C335.915 111.032 335.419 111.16 334.875 111.16C334.033 111.16 333.35 110.877 332.827 110.312C332.315 109.747 332.059 108.989 332.059 108.04V103H333.515V107.896C333.515 108.515 333.67 109 333.979 109.352C334.299 109.693 334.737 109.864 335.291 109.864C335.697 109.864 336.081 109.757 336.443 109.544C336.817 109.32 337.243 108.947 337.723 108.424V103H339.179V111ZM347.012 109.08L346.692 110.616C346.457 110.787 346.18 110.92 345.86 111.016C345.54 111.123 345.209 111.176 344.868 111.176C344.11 111.176 343.513 110.941 343.076 110.472C342.638 110.003 342.42 109.347 342.42 108.504V104.232H341.06V103H342.42V101.208L343.844 100.68V103H346.98V104.232H343.844V108.44C343.844 108.92 343.956 109.283 344.18 109.528C344.404 109.763 344.734 109.88 345.172 109.88C345.47 109.88 345.769 109.816 346.068 109.688C346.366 109.549 346.67 109.341 346.98 109.064L347.012 109.08ZM352.168 106.328C353.224 106.573 353.955 106.883 354.36 107.256C354.776 107.629 354.984 108.141 354.984 108.792C354.984 109.485 354.68 110.056 354.072 110.504C353.475 110.952 352.707 111.176 351.768 111.176C351.203 111.176 350.664 111.096 350.152 110.936C349.64 110.776 349.133 110.531 348.632 110.2L348.328 108.456L348.36 108.44C348.957 108.909 349.56 109.267 350.168 109.512C350.776 109.757 351.363 109.88 351.928 109.88C352.408 109.88 352.803 109.789 353.112 109.608C353.432 109.416 353.592 109.171 353.592 108.872C353.592 108.552 353.443 108.301 353.144 108.12C352.856 107.939 352.28 107.747 351.416 107.544C350.381 107.299 349.661 106.995 349.256 106.632C348.851 106.269 348.648 105.795 348.648 105.208C348.648 104.504 348.936 103.933 349.512 103.496C350.099 103.048 350.851 102.824 351.768 102.824C352.216 102.824 352.664 102.888 353.112 103.016C353.56 103.144 353.987 103.325 354.392 103.56V105.096H354.36C353.859 104.776 353.373 104.536 352.904 104.376C352.445 104.205 352.013 104.12 351.608 104.12C351.128 104.12 350.744 104.205 350.456 104.376C350.179 104.547 350.04 104.771 350.04 105.048C350.04 105.347 350.184 105.587 350.472 105.768C350.76 105.939 351.325 106.125 352.168 106.328ZM371.38 103H372.852L369.716 111.112H368.516L366.196 105.8L363.732 111.112H362.516L359.604 103H361.156L363.22 109.192L366.132 102.904H366.404L369.108 109.192L371.38 103ZM378.498 104.136C378.082 104.136 377.687 104.248 377.314 104.472C376.951 104.685 376.53 105.053 376.05 105.576V111H374.61V99.384L376.05 98.856V104.504C376.509 103.917 376.962 103.496 377.41 103.24C377.858 102.973 378.354 102.84 378.898 102.84C379.741 102.84 380.418 103.123 380.93 103.688C381.453 104.253 381.714 105.011 381.714 105.96V111H380.274V106.104C380.274 105.485 380.114 105.005 379.794 104.664C379.485 104.312 379.053 104.136 378.498 104.136ZM385.066 99.144C385.344 99.144 385.578 99.24 385.77 99.432C385.962 99.624 386.058 99.8587 386.058 100.136C386.058 100.413 385.962 100.648 385.77 100.84C385.578 101.032 385.344 101.128 385.066 101.128C384.789 101.128 384.554 101.032 384.362 100.84C384.17 100.648 384.074 100.413 384.074 100.136C384.074 99.8587 384.17 99.624 384.362 99.432C384.554 99.24 384.789 99.144 385.066 99.144ZM385.786 111H384.346V103H385.786V111ZM390.099 111H388.659V99.384L390.099 98.856V111ZM399.531 108.888L399.003 110.472C398.534 110.728 398.097 110.909 397.691 111.016C397.286 111.123 396.843 111.176 396.363 111.176C395.094 111.176 394.086 110.797 393.339 110.04C392.593 109.283 392.219 108.269 392.219 107C392.219 105.827 392.593 104.829 393.339 104.008C394.086 103.187 395.014 102.776 396.123 102.776C397.233 102.776 398.118 103.165 398.779 103.944C399.441 104.712 399.771 105.704 399.771 106.92C399.771 107.027 399.766 107.144 399.755 107.272C399.745 107.4 399.734 107.496 399.723 107.56H393.707C393.814 108.285 394.113 108.851 394.603 109.256C395.105 109.661 395.745 109.864 396.523 109.864C396.993 109.864 397.483 109.779 397.995 109.608C398.518 109.427 399.019 109.181 399.499 108.872L399.531 108.888ZM396.075 104.04C395.425 104.04 394.875 104.269 394.427 104.728C393.99 105.187 393.739 105.773 393.675 106.488H398.315C398.251 105.72 398.022 105.123 397.627 104.696C397.233 104.259 396.715 104.04 396.075 104.04ZM408.418 106.328C409.474 106.573 410.205 106.883 410.61 107.256C411.026 107.629 411.234 108.141 411.234 108.792C411.234 109.485 410.93 110.056 410.322 110.504C409.725 110.952 408.957 111.176 408.018 111.176C407.453 111.176 406.914 111.096 406.402 110.936C405.89 110.776 405.383 110.531 404.882 110.2L404.578 108.456L404.61 108.44C405.207 108.909 405.81 109.267 406.418 109.512C407.026 109.757 407.613 109.88 408.178 109.88C408.658 109.88 409.053 109.789 409.362 109.608C409.682 109.416 409.842 109.171 409.842 108.872C409.842 108.552 409.693 108.301 409.394 108.12C409.106 107.939 408.53 107.747 407.666 107.544C406.631 107.299 405.911 106.995 405.506 106.632C405.101 106.269 404.898 105.795 404.898 105.208C404.898 104.504 405.186 103.933 405.762 103.496C406.349 103.048 407.101 102.824 408.018 102.824C408.466 102.824 408.914 102.888 409.362 103.016C409.81 103.144 410.237 103.325 410.642 103.56V105.096H410.61C410.109 104.776 409.623 104.536 409.154 104.376C408.695 104.205 408.263 104.12 407.858 104.12C407.378 104.12 406.994 104.205 406.706 104.376C406.429 104.547 406.29 104.771 406.29 105.048C406.29 105.347 406.434 105.587 406.722 105.768C407.01 105.939 407.575 106.125 408.418 106.328ZM418.48 109.08L418.16 110.616C417.926 110.787 417.648 110.92 417.328 111.016C417.008 111.123 416.678 111.176 416.336 111.176C415.579 111.176 414.982 110.941 414.544 110.472C414.107 110.003 413.888 109.347 413.888 108.504V104.232H412.528V103H413.888V101.208L415.312 100.68V103H418.448V104.232H415.312V108.44C415.312 108.92 415.424 109.283 415.648 109.528C415.872 109.763 416.203 109.88 416.64 109.88C416.939 109.88 417.238 109.816 417.536 109.688C417.835 109.549 418.139 109.341 418.448 109.064L418.48 109.08ZM421.301 99.144C421.578 99.144 421.813 99.24 422.005 99.432C422.197 99.624 422.293 99.8587 422.293 100.136C422.293 100.413 422.197 100.648 422.005 100.84C421.813 101.032 421.578 101.128 421.301 101.128C421.023 101.128 420.789 101.032 420.597 100.84C420.405 100.648 420.309 100.413 420.309 100.136C420.309 99.8587 420.405 99.624 420.597 99.432C420.789 99.24 421.023 99.144 421.301 99.144ZM422.021 111H420.581V103H422.021V111ZM426.333 111H424.893V99.384L426.333 98.856V111ZM430.646 111H429.206V99.384L430.646 98.856V111ZM76.04 128.136C75.6667 128.136 75.3093 128.243 74.968 128.456C74.6373 128.659 74.248 129.011 73.8 129.512V135H72.36V127.192L73.8 126.872V128.44C74.2267 127.875 74.6533 127.469 75.08 127.224C75.5067 126.968 75.9707 126.84 76.472 126.84C77.0587 126.84 77.5653 126.995 77.992 127.304C78.4293 127.613 78.7493 128.051 78.952 128.616C79.4213 127.987 79.88 127.533 80.328 127.256C80.776 126.979 81.2773 126.84 81.832 126.84C82.6427 126.84 83.2933 127.123 83.784 127.688C84.2853 128.253 84.536 129.011 84.536 129.96V135H83.08V130.104C83.08 129.485 82.9307 129.005 82.632 128.664C82.3333 128.312 81.9227 128.136 81.4 128.136C81.0267 128.136 80.664 128.243 80.312 128.456C79.9707 128.669 79.5813 129.027 79.144 129.528C79.1547 129.571 79.16 129.624 79.16 129.688C79.16 129.741 79.16 129.832 79.16 129.96V135H77.72V130.104C77.72 129.485 77.5707 129.005 77.272 128.664C76.9733 128.312 76.5627 128.136 76.04 128.136ZM93.6064 130.136V134.808L92.1664 135.128V133.704C91.569 134.184 91.0037 134.541 90.4704 134.776C89.9477 135.011 89.4357 135.128 88.9344 135.128C88.2304 135.128 87.6597 134.936 87.2224 134.552C86.785 134.157 86.5664 133.635 86.5664 132.984C86.5664 132.067 87.025 131.389 87.9424 130.952C88.8597 130.504 90.2677 130.269 92.1664 130.248V130.216C92.1664 129.555 92.0064 129.053 91.6864 128.712C91.377 128.36 90.9237 128.184 90.3264 128.184C89.8784 128.184 89.4144 128.28 88.9344 128.472C88.465 128.664 87.9797 128.952 87.4784 129.336L87.4464 129.32L87.7504 127.704C88.177 127.416 88.6197 127.203 89.0784 127.064C89.5477 126.925 90.0384 126.856 90.5504 126.856C91.5317 126.856 92.2837 127.139 92.8064 127.704C93.3397 128.269 93.6064 129.08 93.6064 130.136ZM88.0224 132.92C88.0224 133.219 88.129 133.459 88.3424 133.64C88.5557 133.811 88.849 133.896 89.2224 133.896C89.5957 133.896 90.0224 133.805 90.5024 133.624C90.9824 133.443 91.537 133.16 92.1664 132.776V131.176C90.7797 131.261 89.7397 131.448 89.0464 131.736C88.3637 132.013 88.0224 132.408 88.0224 132.92ZM96.9725 123.144C97.2498 123.144 97.4845 123.24 97.6765 123.432C97.8685 123.624 97.9645 123.859 97.9645 124.136C97.9645 124.413 97.8685 124.648 97.6765 124.84C97.4845 125.032 97.2498 125.128 96.9725 125.128C96.6952 125.128 96.4605 125.032 96.2685 124.84C96.0765 124.648 95.9805 124.413 95.9805 124.136C95.9805 123.859 96.0765 123.624 96.2685 123.432C96.4605 123.24 96.6952 123.144 96.9725 123.144ZM97.6925 135H96.2525V127H97.6925V135ZM104.373 128.136C103.957 128.136 103.562 128.248 103.189 128.472C102.826 128.685 102.405 129.053 101.925 129.576V135H100.485V127.192L101.925 126.872V128.504C102.384 127.917 102.837 127.496 103.285 127.24C103.733 126.973 104.229 126.84 104.773 126.84C105.616 126.84 106.293 127.123 106.805 127.688C107.328 128.253 107.589 129.011 107.589 129.96V135H106.149V130.104C106.149 129.485 105.989 129.005 105.669 128.664C105.36 128.312 104.928 128.136 104.373 128.136ZM115.277 133.08L114.957 134.616C114.723 134.787 114.445 134.92 114.125 135.016C113.805 135.123 113.475 135.176 113.133 135.176C112.376 135.176 111.779 134.941 111.341 134.472C110.904 134.003 110.685 133.347 110.685 132.504V128.232H109.325V127H110.685V125.208L112.109 124.68V127H115.245V128.232H112.109V132.44C112.109 132.92 112.221 133.283 112.445 133.528C112.669 133.763 113 133.88 113.437 133.88C113.736 133.88 114.035 133.816 114.333 133.688C114.632 133.549 114.936 133.341 115.245 133.064L115.277 133.08ZM123.81 130.136V134.808L122.37 135.128V133.704C121.772 134.184 121.207 134.541 120.674 134.776C120.151 135.011 119.639 135.128 119.138 135.128C118.434 135.128 117.863 134.936 117.426 134.552C116.988 134.157 116.77 133.635 116.77 132.984C116.77 132.067 117.228 131.389 118.146 130.952C119.063 130.504 120.471 130.269 122.37 130.248V130.216C122.37 129.555 122.21 129.053 121.89 128.712C121.58 128.36 121.127 128.184 120.53 128.184C120.082 128.184 119.618 128.28 119.138 128.472C118.668 128.664 118.183 128.952 117.682 129.336L117.65 129.32L117.954 127.704C118.38 127.416 118.823 127.203 119.282 127.064C119.751 126.925 120.242 126.856 120.754 126.856C121.735 126.856 122.487 127.139 123.01 127.704C123.543 128.269 123.81 129.08 123.81 130.136ZM118.226 132.92C118.226 133.219 118.332 133.459 118.546 133.64C118.759 133.811 119.052 133.896 119.426 133.896C119.799 133.896 120.226 133.805 120.706 133.624C121.186 133.443 121.74 133.16 122.37 132.776V131.176C120.983 131.261 119.943 131.448 119.25 131.736C118.567 132.013 118.226 132.408 118.226 132.92ZM127.176 123.144C127.453 123.144 127.688 123.24 127.88 123.432C128.072 123.624 128.168 123.859 128.168 124.136C128.168 124.413 128.072 124.648 127.88 124.84C127.688 125.032 127.453 125.128 127.176 125.128C126.898 125.128 126.664 125.032 126.472 124.84C126.28 124.648 126.184 124.413 126.184 124.136C126.184 123.859 126.28 123.624 126.472 123.432C126.664 123.24 126.898 123.144 127.176 123.144ZM127.896 135H126.456V127H127.896V135ZM134.576 128.136C134.16 128.136 133.765 128.248 133.392 128.472C133.029 128.685 132.608 129.053 132.128 129.576V135H130.688V127.192L132.128 126.872V128.504C132.587 127.917 133.04 127.496 133.488 127.24C133.936 126.973 134.432 126.84 134.976 126.84C135.819 126.84 136.496 127.123 137.008 127.688C137.531 128.253 137.792 129.011 137.792 129.96V135H136.352V130.104C136.352 129.485 136.192 129.005 135.872 128.664C135.563 128.312 135.131 128.136 134.576 128.136ZM141.144 123.144C141.422 123.144 141.656 123.24 141.848 123.432C142.04 123.624 142.136 123.859 142.136 124.136C142.136 124.413 142.04 124.648 141.848 124.84C141.656 125.032 141.422 125.128 141.144 125.128C140.867 125.128 140.632 125.032 140.44 124.84C140.248 124.648 140.152 124.413 140.152 124.136C140.152 123.859 140.248 123.624 140.44 123.432C140.632 123.24 140.867 123.144 141.144 123.144ZM141.864 135H140.424V127H141.864V135ZM148.545 128.136C148.129 128.136 147.734 128.248 147.361 128.472C146.998 128.685 146.577 129.053 146.097 129.576V135H144.657V127.192L146.097 126.872V128.504C146.556 127.917 147.009 127.496 147.457 127.24C147.905 126.973 148.401 126.84 148.945 126.84C149.788 126.84 150.465 127.123 150.977 127.688C151.5 128.253 151.761 129.011 151.761 129.96V135H150.321V130.104C150.321 129.485 150.161 129.005 149.841 128.664C149.532 128.312 149.1 128.136 148.545 128.136ZM161.529 127V134.232C161.529 135.448 161.156 136.403 160.409 137.096C159.673 137.789 158.665 138.136 157.385 138.136C156.841 138.136 156.313 138.077 155.801 137.96C155.289 137.843 154.772 137.656 154.249 137.4L153.945 135.784L153.977 135.768C154.617 136.131 155.209 136.392 155.753 136.552C156.308 136.723 156.873 136.808 157.449 136.808C158.238 136.808 158.873 136.573 159.353 136.104C159.833 135.645 160.073 135.021 160.073 134.232V133.512C159.593 133.981 159.124 134.323 158.665 134.536C158.206 134.739 157.716 134.84 157.193 134.84C156.169 134.84 155.321 134.483 154.649 133.768C153.988 133.053 153.657 132.147 153.657 131.048C153.657 129.832 154.078 128.835 154.921 128.056C155.774 127.267 156.82 126.872 158.057 126.872C158.42 126.872 158.777 126.909 159.129 126.984C159.481 127.059 159.86 127.181 160.265 127.352L161.337 127H161.529ZM158.089 128.104C157.246 128.104 156.542 128.376 155.977 128.92C155.422 129.464 155.145 130.147 155.145 130.968C155.145 131.747 155.374 132.376 155.833 132.856C156.292 133.336 156.889 133.576 157.625 133.576C158.03 133.576 158.425 133.496 158.809 133.336C159.204 133.165 159.625 132.893 160.073 132.52V128.552C159.721 128.403 159.385 128.291 159.065 128.216C158.745 128.141 158.42 128.104 158.089 128.104ZM174.152 132.616L173.896 134.28C173.459 134.579 173.005 134.808 172.536 134.968C172.067 135.117 171.592 135.192 171.112 135.192C169.907 135.192 168.925 134.803 168.168 134.024C167.411 133.245 167.032 132.243 167.032 131.016C167.032 129.821 167.432 128.824 168.232 128.024C169.043 127.213 170.061 126.808 171.288 126.808C171.821 126.808 172.307 126.888 172.744 127.048C173.181 127.197 173.592 127.437 173.976 127.768V129.544H173.944C173.464 129.053 173.005 128.696 172.568 128.472C172.141 128.248 171.704 128.136 171.256 128.136C170.477 128.136 169.827 128.413 169.304 128.968C168.781 129.523 168.52 130.2 168.52 131C168.52 131.832 168.765 132.52 169.256 133.064C169.757 133.597 170.397 133.864 171.176 133.864C171.645 133.864 172.141 133.752 172.664 133.528C173.187 133.293 173.672 132.984 174.12 132.6L174.152 132.616ZM179.849 135.224C178.622 135.224 177.614 134.819 176.825 134.008C176.036 133.187 175.641 132.189 175.641 131.016C175.641 129.853 176.046 128.856 176.857 128.024C177.668 127.192 178.676 126.776 179.881 126.776C181.118 126.776 182.126 127.181 182.905 127.992C183.694 128.792 184.089 129.784 184.089 130.968C184.089 132.141 183.684 133.144 182.873 133.976C182.073 134.808 181.065 135.224 179.849 135.224ZM182.617 130.968C182.617 130.136 182.356 129.448 181.833 128.904C181.321 128.349 180.67 128.072 179.881 128.072C179.081 128.072 178.42 128.355 177.897 128.92C177.385 129.475 177.129 130.173 177.129 131.016C177.129 131.848 177.385 132.541 177.897 133.096C178.42 133.651 179.07 133.928 179.849 133.928C180.649 133.928 181.31 133.645 181.833 133.08C182.356 132.515 182.617 131.811 182.617 130.968ZM190.029 128.136C189.613 128.136 189.219 128.248 188.845 128.472C188.483 128.685 188.061 129.053 187.581 129.576V135H186.141V127.192L187.581 126.872V128.504C188.04 127.917 188.493 127.496 188.941 127.24C189.389 126.973 189.885 126.84 190.429 126.84C191.272 126.84 191.949 127.123 192.461 127.688C192.984 128.253 193.245 129.011 193.245 129.96V135H191.805V130.104C191.805 129.485 191.645 129.005 191.325 128.664C191.016 128.312 190.584 128.136 190.029 128.136ZM198.934 130.328C199.99 130.573 200.72 130.883 201.126 131.256C201.542 131.629 201.75 132.141 201.75 132.792C201.75 133.485 201.446 134.056 200.838 134.504C200.24 134.952 199.472 135.176 198.534 135.176C197.968 135.176 197.43 135.096 196.918 134.936C196.406 134.776 195.899 134.531 195.398 134.2L195.094 132.456L195.126 132.44C195.723 132.909 196.326 133.267 196.934 133.512C197.542 133.757 198.128 133.88 198.694 133.88C199.174 133.88 199.568 133.789 199.878 133.608C200.198 133.416 200.358 133.171 200.358 132.872C200.358 132.552 200.208 132.301 199.91 132.12C199.622 131.939 199.046 131.747 198.182 131.544C197.147 131.299 196.427 130.995 196.022 130.632C195.616 130.269 195.414 129.795 195.414 129.208C195.414 128.504 195.702 127.933 196.278 127.496C196.864 127.048 197.616 126.824 198.534 126.824C198.982 126.824 199.43 126.888 199.878 127.016C200.326 127.144 200.752 127.325 201.158 127.56V129.096H201.126C200.624 128.776 200.139 128.536 199.67 128.376C199.211 128.205 198.779 128.12 198.374 128.12C197.894 128.12 197.51 128.205 197.222 128.376C196.944 128.547 196.806 128.771 196.806 129.048C196.806 129.347 196.95 129.587 197.238 129.768C197.526 129.939 198.091 130.125 198.934 130.328ZM204.66 123.144C204.937 123.144 205.172 123.24 205.364 123.432C205.556 123.624 205.652 123.859 205.652 124.136C205.652 124.413 205.556 124.648 205.364 124.84C205.172 125.032 204.937 125.128 204.66 125.128C204.383 125.128 204.148 125.032 203.956 124.84C203.764 124.648 203.668 124.413 203.668 124.136C203.668 123.859 203.764 123.624 203.956 123.432C204.148 123.24 204.383 123.144 204.66 123.144ZM205.38 135H203.94V127H205.38V135ZM211.309 130.328C212.365 130.573 213.095 130.883 213.501 131.256C213.917 131.629 214.125 132.141 214.125 132.792C214.125 133.485 213.821 134.056 213.213 134.504C212.615 134.952 211.847 135.176 210.909 135.176C210.343 135.176 209.805 135.096 209.293 134.936C208.781 134.776 208.274 134.531 207.773 134.2L207.469 132.456L207.501 132.44C208.098 132.909 208.701 133.267 209.309 133.512C209.917 133.757 210.503 133.88 211.069 133.88C211.549 133.88 211.943 133.789 212.253 133.608C212.573 133.416 212.733 133.171 212.733 132.872C212.733 132.552 212.583 132.301 212.285 132.12C211.997 131.939 211.421 131.747 210.557 131.544C209.522 131.299 208.802 130.995 208.397 130.632C207.991 130.269 207.789 129.795 207.789 129.208C207.789 128.504 208.077 127.933 208.653 127.496C209.239 127.048 209.991 126.824 210.909 126.824C211.357 126.824 211.805 126.888 212.253 127.016C212.701 127.144 213.127 127.325 213.533 127.56V129.096H213.501C212.999 128.776 212.514 128.536 212.045 128.376C211.586 128.205 211.154 128.12 210.749 128.12C210.269 128.12 209.885 128.205 209.597 128.376C209.319 128.547 209.181 128.771 209.181 129.048C209.181 129.347 209.325 129.587 209.613 129.768C209.901 129.939 210.466 130.125 211.309 130.328ZM221.371 133.08L221.051 134.616C220.816 134.787 220.539 134.92 220.219 135.016C219.899 135.123 219.568 135.176 219.227 135.176C218.47 135.176 217.872 134.941 217.435 134.472C216.998 134.003 216.779 133.347 216.779 132.504V128.232H215.419V127H216.779V125.208L218.203 124.68V127H221.339V128.232H218.203V132.44C218.203 132.92 218.315 133.283 218.539 133.528C218.763 133.763 219.094 133.88 219.531 133.88C219.83 133.88 220.128 133.816 220.427 133.688C220.726 133.549 221.03 133.341 221.339 133.064L221.371 133.08ZM230.031 132.888L229.503 134.472C229.034 134.728 228.597 134.909 228.191 135.016C227.786 135.123 227.343 135.176 226.863 135.176C225.594 135.176 224.586 134.797 223.839 134.04C223.093 133.283 222.719 132.269 222.719 131C222.719 129.827 223.093 128.829 223.839 128.008C224.586 127.187 225.514 126.776 226.623 126.776C227.733 126.776 228.618 127.165 229.279 127.944C229.941 128.712 230.271 129.704 230.271 130.92C230.271 131.027 230.266 131.144 230.255 131.272C230.245 131.4 230.234 131.496 230.223 131.56H224.207C224.314 132.285 224.613 132.851 225.103 133.256C225.605 133.661 226.245 133.864 227.023 133.864C227.493 133.864 227.983 133.779 228.495 133.608C229.018 133.427 229.519 133.181 229.999 132.872L230.031 132.888ZM226.575 128.04C225.925 128.04 225.375 128.269 224.927 128.728C224.49 129.187 224.239 129.773 224.175 130.488H228.815C228.751 129.72 228.522 129.123 228.127 128.696C227.733 128.259 227.215 128.04 226.575 128.04ZM236.217 128.136C235.801 128.136 235.406 128.248 235.033 128.472C234.67 128.685 234.249 129.053 233.769 129.576V135H232.329V127.192L233.769 126.872V128.504C234.227 127.917 234.681 127.496 235.129 127.24C235.577 126.973 236.073 126.84 236.617 126.84C237.459 126.84 238.137 127.123 238.649 127.688C239.171 128.253 239.433 129.011 239.433 129.96V135H237.993V130.104C237.993 129.485 237.833 129.005 237.513 128.664C237.203 128.312 236.771 128.136 236.217 128.136ZM248.449 132.616L248.193 134.28C247.756 134.579 247.302 134.808 246.833 134.968C246.364 135.117 245.889 135.192 245.409 135.192C244.204 135.192 243.222 134.803 242.465 134.024C241.708 133.245 241.329 132.243 241.329 131.016C241.329 129.821 241.729 128.824 242.529 128.024C243.34 127.213 244.358 126.808 245.585 126.808C246.118 126.808 246.604 126.888 247.041 127.048C247.478 127.197 247.889 127.437 248.273 127.768V129.544H248.241C247.761 129.053 247.302 128.696 246.865 128.472C246.438 128.248 246.001 128.136 245.553 128.136C244.774 128.136 244.124 128.413 243.601 128.968C243.078 129.523 242.817 130.2 242.817 131C242.817 131.832 243.062 132.52 243.553 133.064C244.054 133.597 244.694 133.864 245.473 133.864C245.942 133.864 246.438 133.752 246.961 133.528C247.484 133.293 247.969 132.984 248.417 132.6L248.449 132.616ZM257.682 127L253.97 135.896C253.661 136.643 253.271 137.203 252.802 137.576C252.333 137.949 251.789 138.136 251.17 138.136C250.935 138.136 250.706 138.109 250.482 138.056C250.258 138.013 250.039 137.939 249.826 137.832L249.538 136.36L249.57 136.344C249.826 136.493 250.061 136.6 250.274 136.664C250.487 136.739 250.711 136.776 250.946 136.776C251.33 136.776 251.655 136.664 251.922 136.44C252.199 136.227 252.439 135.885 252.642 135.416L253.01 134.552L249.618 127H251.218L253.746 132.904L256.114 127H257.682ZM269.341 130.136V134.808L267.901 135.128V133.704C267.303 134.184 266.738 134.541 266.205 134.776C265.682 135.011 265.17 135.128 264.669 135.128C263.965 135.128 263.394 134.936 262.957 134.552C262.519 134.157 262.301 133.635 262.301 132.984C262.301 132.067 262.759 131.389 263.677 130.952C264.594 130.504 266.002 130.269 267.901 130.248V130.216C267.901 129.555 267.741 129.053 267.421 128.712C267.111 128.36 266.658 128.184 266.061 128.184C265.613 128.184 265.149 128.28 264.669 128.472C264.199 128.664 263.714 128.952 263.213 129.336L263.181 129.32L263.485 127.704C263.911 127.416 264.354 127.203 264.813 127.064C265.282 126.925 265.773 126.856 266.285 126.856C267.266 126.856 268.018 127.139 268.541 127.704C269.074 128.269 269.341 129.08 269.341 130.136ZM263.757 132.92C263.757 133.219 263.863 133.459 264.077 133.64C264.29 133.811 264.583 133.896 264.957 133.896C265.33 133.896 265.757 133.805 266.237 133.624C266.717 133.443 267.271 133.16 267.901 132.776V131.176C266.514 131.261 265.474 131.448 264.781 131.736C264.098 132.013 263.757 132.408 263.757 132.92ZM275.795 128.136C275.379 128.136 274.984 128.248 274.611 128.472C274.248 128.685 273.827 129.053 273.347 129.576V135H271.907V127.192L273.347 126.872V128.504C273.806 127.917 274.259 127.496 274.707 127.24C275.155 126.973 275.651 126.84 276.195 126.84C277.038 126.84 277.715 127.123 278.227 127.688C278.75 128.253 279.011 129.011 279.011 129.96V135H277.571V130.104C277.571 129.485 277.411 129.005 277.091 128.664C276.782 128.312 276.35 128.136 275.795 128.136ZM288.779 135H287.323V133.848C286.864 134.307 286.416 134.643 285.979 134.856C285.552 135.059 285.078 135.16 284.555 135.16C283.531 135.16 282.667 134.781 281.963 134.024C281.259 133.256 280.907 132.301 280.907 131.16C280.907 129.933 281.302 128.915 282.091 128.104C282.88 127.283 283.83 126.872 284.939 126.872C285.355 126.872 285.755 126.941 286.139 127.08C286.534 127.208 286.928 127.416 287.323 127.704V123.384L288.779 122.856V135ZM285.179 128.152C284.379 128.152 283.712 128.424 283.179 128.968C282.656 129.512 282.395 130.205 282.395 131.048C282.395 131.869 282.635 132.547 283.115 133.08C283.606 133.603 284.214 133.864 284.939 133.864C285.355 133.864 285.75 133.784 286.123 133.624C286.496 133.464 286.896 133.208 287.323 132.856V128.824C286.95 128.589 286.592 128.419 286.251 128.312C285.91 128.205 285.552 128.152 285.179 128.152ZM301.45 130.136V134.808L300.01 135.128V133.704C299.413 134.184 298.847 134.541 298.314 134.776C297.791 135.011 297.279 135.128 296.778 135.128C296.074 135.128 295.503 134.936 295.066 134.552C294.629 134.157 294.41 133.635 294.41 132.984C294.41 132.067 294.869 131.389 295.786 130.952C296.703 130.504 298.111 130.269 300.01 130.248V130.216C300.01 129.555 299.85 129.053 299.53 128.712C299.221 128.36 298.767 128.184 298.17 128.184C297.722 128.184 297.258 128.28 296.778 128.472C296.309 128.664 295.823 128.952 295.322 129.336L295.29 129.32L295.594 127.704C296.021 127.416 296.463 127.203 296.922 127.064C297.391 126.925 297.882 126.856 298.394 126.856C299.375 126.856 300.127 127.139 300.65 127.704C301.183 128.269 301.45 129.08 301.45 130.136ZM295.866 132.92C295.866 133.219 295.973 133.459 296.186 133.64C296.399 133.811 296.693 133.896 297.066 133.896C297.439 133.896 297.866 133.805 298.346 133.624C298.826 133.443 299.381 133.16 300.01 132.776V131.176C298.623 131.261 297.583 131.448 296.89 131.736C296.207 132.013 295.866 132.408 295.866 132.92ZM307.696 128.136C307.323 128.136 306.966 128.243 306.624 128.456C306.294 128.659 305.904 129.011 305.456 129.512V135H304.016V127.192L305.456 126.872V128.44C305.883 127.875 306.31 127.469 306.736 127.224C307.163 126.968 307.627 126.84 308.128 126.84C308.715 126.84 309.222 126.995 309.648 127.304C310.086 127.613 310.406 128.051 310.608 128.616C311.078 127.987 311.536 127.533 311.984 127.256C312.432 126.979 312.934 126.84 313.488 126.84C314.299 126.84 314.95 127.123 315.44 127.688C315.942 128.253 316.192 129.011 316.192 129.96V135H314.736V130.104C314.736 129.485 314.587 129.005 314.288 128.664C313.99 128.312 313.579 128.136 313.056 128.136C312.683 128.136 312.32 128.243 311.968 128.456C311.627 128.669 311.238 129.027 310.8 129.528C310.811 129.571 310.816 129.624 310.816 129.688C310.816 129.741 310.816 129.832 310.816 129.96V135H309.376V130.104C309.376 129.485 309.227 129.005 308.928 128.664C308.63 128.312 308.219 128.136 307.696 128.136ZM326.607 130.84C326.607 132.067 326.212 133.091 325.423 133.912C324.644 134.723 323.7 135.128 322.591 135.128C322.164 135.128 321.753 135.059 321.359 134.92C320.975 134.781 320.585 134.568 320.191 134.28V138.056H318.751V127.192L320.191 126.872V128.168C320.639 127.699 321.081 127.363 321.519 127.16C321.956 126.947 322.436 126.84 322.959 126.84C323.983 126.84 324.847 127.224 325.551 127.992C326.255 128.749 326.607 129.699 326.607 130.84ZM325.119 130.952C325.119 130.12 324.873 129.443 324.383 128.92C323.903 128.397 323.3 128.136 322.575 128.136C322.159 128.136 321.764 128.216 321.391 128.376C321.017 128.536 320.617 128.792 320.191 129.144V133.16C320.553 133.395 320.905 133.571 321.247 133.688C321.599 133.795 321.967 133.848 322.351 133.848C323.151 133.848 323.812 133.576 324.335 133.032C324.857 132.477 325.119 131.784 325.119 130.952ZM330.193 135H328.753V123.384L330.193 122.856V135ZM333.785 123.144C334.062 123.144 334.297 123.24 334.489 123.432C334.681 123.624 334.777 123.859 334.777 124.136C334.777 124.413 334.681 124.648 334.489 124.84C334.297 125.032 334.062 125.128 333.785 125.128C333.508 125.128 333.273 125.032 333.081 124.84C332.889 124.648 332.793 124.413 332.793 124.136C332.793 123.859 332.889 123.624 333.081 123.432C333.273 123.24 333.508 123.144 333.785 123.144ZM334.505 135H333.065V127H334.505V135ZM342.082 127V128.232H339.442V135H338.002V128.232H336.578V127H338.002V125.736C338.002 124.851 338.242 124.157 338.722 123.656C339.202 123.144 339.858 122.888 340.69 122.888C340.946 122.888 341.18 122.909 341.394 122.952C341.607 122.995 341.826 123.069 342.05 123.176L342.29 124.664L342.258 124.68C341.959 124.509 341.698 124.392 341.474 124.328C341.25 124.253 341.02 124.216 340.786 124.216C340.37 124.216 340.039 124.349 339.794 124.616C339.559 124.872 339.442 125.229 339.442 125.688V127H342.082ZM350.776 127L347.064 135.896C346.754 136.643 346.365 137.203 345.896 137.576C345.426 137.949 344.882 138.136 344.264 138.136C344.029 138.136 343.8 138.109 343.576 138.056C343.352 138.013 343.133 137.939 342.92 137.832L342.632 136.36L342.664 136.344C342.92 136.493 343.154 136.6 343.368 136.664C343.581 136.739 343.805 136.776 344.04 136.776C344.424 136.776 344.749 136.664 345.016 136.44C345.293 136.227 345.533 135.885 345.736 135.416L346.104 134.552L342.712 127H344.312L346.84 132.904L349.208 127H350.776ZM353.269 123.144C353.547 123.144 353.781 123.24 353.973 123.432C354.165 123.624 354.261 123.859 354.261 124.136C354.261 124.413 354.165 124.648 353.973 124.84C353.781 125.032 353.547 125.128 353.269 125.128C352.992 125.128 352.757 125.032 352.565 124.84C352.373 124.648 352.277 124.413 352.277 124.136C352.277 123.859 352.373 123.624 352.565 123.432C352.757 123.24 352.992 123.144 353.269 123.144ZM353.989 135H352.549V127H353.989V135ZM360.67 128.136C360.254 128.136 359.859 128.248 359.486 128.472C359.123 128.685 358.702 129.053 358.222 129.576V135H356.782V127.192L358.222 126.872V128.504C358.681 127.917 359.134 127.496 359.582 127.24C360.03 126.973 360.526 126.84 361.07 126.84C361.913 126.84 362.59 127.123 363.102 127.688C363.625 128.253 363.886 129.011 363.886 129.96V135H362.446V130.104C362.446 129.485 362.286 129.005 361.966 128.664C361.657 128.312 361.225 128.136 360.67 128.136ZM373.654 127V134.232C373.654 135.448 373.281 136.403 372.534 137.096C371.798 137.789 370.79 138.136 369.51 138.136C368.966 138.136 368.438 138.077 367.926 137.96C367.414 137.843 366.897 137.656 366.374 137.4L366.07 135.784L366.102 135.768C366.742 136.131 367.334 136.392 367.878 136.552C368.433 136.723 368.998 136.808 369.574 136.808C370.363 136.808 370.998 136.573 371.478 136.104C371.958 135.645 372.198 135.021 372.198 134.232V133.512C371.718 133.981 371.249 134.323 370.79 134.536C370.331 134.739 369.841 134.84 369.318 134.84C368.294 134.84 367.446 134.483 366.774 133.768C366.113 133.053 365.782 132.147 365.782 131.048C365.782 129.832 366.203 128.835 367.046 128.056C367.899 127.267 368.945 126.872 370.182 126.872C370.545 126.872 370.902 126.909 371.254 126.984C371.606 127.059 371.985 127.181 372.39 127.352L373.462 127H373.654ZM370.214 128.104C369.371 128.104 368.667 128.376 368.102 128.92C367.547 129.464 367.27 130.147 367.27 130.968C367.27 131.747 367.499 132.376 367.958 132.856C368.417 133.336 369.014 133.576 369.75 133.576C370.155 133.576 370.55 133.496 370.934 133.336C371.329 133.165 371.75 132.893 372.198 132.52V128.552C371.846 128.403 371.51 128.291 371.19 128.216C370.87 128.141 370.545 128.104 370.214 128.104ZM384.949 133.08L384.629 134.616C384.394 134.787 384.117 134.92 383.797 135.016C383.477 135.123 383.146 135.176 382.805 135.176C382.048 135.176 381.45 134.941 381.013 134.472C380.576 134.003 380.357 133.347 380.357 132.504V128.232H378.997V127H380.357V125.208L381.781 124.68V127H384.917V128.232H381.781V132.44C381.781 132.92 381.893 133.283 382.117 133.528C382.341 133.763 382.672 133.88 383.109 133.88C383.408 133.88 383.706 133.816 384.005 133.688C384.304 133.549 384.608 133.341 384.917 133.064L384.949 133.08ZM390.857 128.136C390.441 128.136 390.047 128.248 389.673 128.472C389.311 128.685 388.889 129.053 388.409 129.576V135H386.969V123.384L388.409 122.856V128.504C388.868 127.917 389.321 127.496 389.769 127.24C390.217 126.973 390.713 126.84 391.257 126.84C392.1 126.84 392.777 127.123 393.289 127.688C393.812 128.253 394.073 129.011 394.073 129.96V135H392.633V130.104C392.633 129.485 392.473 129.005 392.153 128.664C391.844 128.312 391.412 128.136 390.857 128.136ZM403.266 132.888L402.738 134.472C402.268 134.728 401.831 134.909 401.426 135.016C401.02 135.123 400.578 135.176 400.098 135.176C398.828 135.176 397.82 134.797 397.074 134.04C396.327 133.283 395.954 132.269 395.954 131C395.954 129.827 396.327 128.829 397.074 128.008C397.82 127.187 398.748 126.776 399.858 126.776C400.967 126.776 401.852 127.165 402.514 127.944C403.175 128.712 403.506 129.704 403.506 130.92C403.506 131.027 403.5 131.144 403.49 131.272C403.479 131.4 403.468 131.496 403.458 131.56H397.442C397.548 132.285 397.847 132.851 398.338 133.256C398.839 133.661 399.479 133.864 400.258 133.864C400.727 133.864 401.218 133.779 401.73 133.608C402.252 133.427 402.754 133.181 403.234 132.872L403.266 132.888ZM399.81 128.04C399.159 128.04 398.61 128.269 398.162 128.728C397.724 129.187 397.474 129.773 397.41 130.488H402.05C401.986 129.72 401.756 129.123 401.362 128.696C400.967 128.259 400.45 128.04 399.81 128.04ZM416.204 123.8H417.98L413.612 129.992V135H412.076V129.992L407.708 123.8H409.548L412.876 128.632L416.204 123.8ZM424.778 130.136V134.808L423.338 135.128V133.704C422.741 134.184 422.176 134.541 421.642 134.776C421.12 135.011 420.608 135.128 420.106 135.128C419.402 135.128 418.832 134.936 418.394 134.552C417.957 134.157 417.738 133.635 417.738 132.984C417.738 132.067 418.197 131.389 419.114 130.952C420.032 130.504 421.44 130.269 423.338 130.248V130.216C423.338 129.555 423.178 129.053 422.858 128.712C422.549 128.36 422.096 128.184 421.498 128.184C421.05 128.184 420.586 128.28 420.106 128.472C419.637 128.664 419.152 128.952 418.65 129.336L418.618 129.32L418.922 127.704C419.349 127.416 419.792 127.203 420.25 127.064C420.72 126.925 421.21 126.856 421.722 126.856C422.704 126.856 423.456 127.139 423.978 127.704C424.512 128.269 424.778 129.08 424.778 130.136ZM419.194 132.92C419.194 133.219 419.301 133.459 419.514 133.64C419.728 133.811 420.021 133.896 420.394 133.896C420.768 133.896 421.194 133.805 421.674 133.624C422.154 133.443 422.709 133.16 423.338 132.776V131.176C421.952 131.261 420.912 131.448 420.218 131.736C419.536 132.013 419.194 132.408 419.194 132.92ZM428.864 135H427.424V123.384L428.864 122.856V135ZM438.297 132.888L437.769 134.472C437.3 134.728 436.862 134.909 436.457 135.016C436.052 135.123 435.609 135.176 435.129 135.176C433.86 135.176 432.852 134.797 432.105 134.04C431.358 133.283 430.985 132.269 430.985 131C430.985 129.827 431.358 128.829 432.105 128.008C432.852 127.187 433.78 126.776 434.889 126.776C435.998 126.776 436.884 127.165 437.545 127.944C438.206 128.712 438.537 129.704 438.537 130.92C438.537 131.027 438.532 131.144 438.521 131.272C438.51 131.4 438.5 131.496 438.489 131.56H432.473C432.58 132.285 432.878 132.851 433.369 133.256C433.87 133.661 434.51 133.864 435.289 133.864C435.758 133.864 436.249 133.779 436.761 133.608C437.284 133.427 437.785 133.181 438.265 132.872L438.297 132.888ZM434.841 128.04C434.19 128.04 433.641 128.269 433.193 128.728C432.756 129.187 432.505 129.773 432.441 130.488H437.081C437.017 129.72 436.788 129.123 436.393 128.696C435.998 128.259 435.481 128.04 434.841 128.04ZM76.616 150.84C77.608 150.84 78.44 151.219 79.112 151.976C79.7947 152.723 80.136 153.656 80.136 154.776C80.136 156.045 79.7147 157.091 78.872 157.912C78.0293 158.723 76.984 159.128 75.736 159.128C75.3733 159.128 75.016 159.091 74.664 159.016C74.312 158.941 73.9493 158.824 73.576 158.664L72.536 159H72.36V147.384L73.8 146.856V152.168C74.2693 151.699 74.728 151.363 75.176 151.16C75.624 150.947 76.104 150.84 76.616 150.84ZM78.664 154.872C78.664 154.061 78.4293 153.405 77.96 152.904C77.5013 152.392 76.9093 152.136 76.184 152.136C75.768 152.136 75.3733 152.216 75 152.376C74.6267 152.536 74.2267 152.792 73.8 153.144V157.464C74.12 157.592 74.4347 157.688 74.744 157.752C75.0533 157.816 75.3733 157.848 75.704 157.848C76.5573 157.848 77.2613 157.565 77.816 157C78.3813 156.435 78.664 155.725 78.664 154.872ZM86.6354 152.408C86.166 152.408 85.702 152.52 85.2434 152.744C84.7954 152.968 84.2674 153.347 83.6594 153.88V159H82.2194V151.192L83.6594 150.872V152.904C84.3207 152.083 84.838 151.539 85.2114 151.272C85.5954 151.005 86.006 150.872 86.4434 150.872C86.5394 150.872 86.6194 150.877 86.6834 150.888C86.758 150.899 86.8487 150.915 86.9554 150.936L87.0674 152.456C86.9927 152.435 86.918 152.424 86.8434 152.424C86.7794 152.413 86.71 152.408 86.6354 152.408ZM94.8095 154.136V158.808L93.3695 159.128V157.704C92.7722 158.184 92.2068 158.541 91.6735 158.776C91.1508 159.011 90.6388 159.128 90.1375 159.128C89.4335 159.128 88.8628 158.936 88.4255 158.552C87.9882 158.157 87.7695 157.635 87.7695 156.984C87.7695 156.067 88.2282 155.389 89.1455 154.952C90.0628 154.504 91.4708 154.269 93.3695 154.248V154.216C93.3695 153.555 93.2095 153.053 92.8895 152.712C92.5802 152.36 92.1268 152.184 91.5295 152.184C91.0815 152.184 90.6175 152.28 90.1375 152.472C89.6682 152.664 89.1828 152.952 88.6815 153.336L88.6495 153.32L88.9535 151.704C89.3802 151.416 89.8228 151.203 90.2815 151.064C90.7508 150.925 91.2415 150.856 91.7535 150.856C92.7348 150.856 93.4868 151.139 94.0095 151.704C94.5428 152.269 94.8095 153.08 94.8095 154.136ZM89.2255 156.92C89.2255 157.219 89.3322 157.459 89.5455 157.64C89.7588 157.811 90.0522 157.896 90.4255 157.896C90.7988 157.896 91.2255 157.805 91.7055 157.624C92.1855 157.443 92.7402 157.16 93.3695 156.776V155.176C91.9828 155.261 90.9428 155.448 90.2495 155.736C89.5668 156.013 89.2255 156.408 89.2255 156.92ZM101.264 152.136C100.848 152.136 100.453 152.248 100.08 152.472C99.717 152.685 99.2956 153.053 98.8156 153.576V159H97.3756V151.192L98.8156 150.872V152.504C99.2743 151.917 99.7276 151.496 100.176 151.24C100.624 150.973 101.12 150.84 101.664 150.84C102.506 150.84 103.184 151.123 103.696 151.688C104.218 152.253 104.48 153.011 104.48 153.96V159H103.04V154.104C103.04 153.485 102.88 153.005 102.56 152.664C102.25 152.312 101.818 152.136 101.264 152.136ZM114.248 159H112.792V157.848C112.333 158.307 111.885 158.643 111.448 158.856C111.021 159.059 110.547 159.16 110.024 159.16C109 159.16 108.136 158.781 107.432 158.024C106.728 157.256 106.376 156.301 106.376 155.16C106.376 153.933 106.771 152.915 107.56 152.104C108.349 151.283 109.299 150.872 110.408 150.872C110.824 150.872 111.224 150.941 111.608 151.08C112.003 151.208 112.397 151.416 112.792 151.704V147.384L114.248 146.856V159ZM110.648 152.152C109.848 152.152 109.181 152.424 108.648 152.968C108.125 153.512 107.864 154.205 107.864 155.048C107.864 155.869 108.104 156.547 108.584 157.08C109.075 157.603 109.683 157.864 110.408 157.864C110.824 157.864 111.219 157.784 111.592 157.624C111.965 157.464 112.365 157.208 112.792 156.856V152.824C112.419 152.589 112.061 152.419 111.72 152.312C111.379 152.205 111.021 152.152 110.648 152.152ZM117.242 159.144C116.943 159.144 116.687 159.037 116.474 158.824C116.26 158.611 116.154 158.355 116.154 158.056C116.154 157.757 116.26 157.501 116.474 157.288C116.687 157.075 116.943 156.968 117.242 156.968C117.54 156.968 117.791 157.075 117.994 157.288C118.207 157.501 118.314 157.757 118.314 158.056C118.314 158.355 118.207 158.611 117.994 158.824C117.791 159.037 117.54 159.144 117.242 159.144Z" fill="black"/>
<path d="M28 54H65V91H28V54Z" fill="white" fill-opacity="0.01"/>
<path fill-rule="evenodd" clip-rule="evenodd" d="M42.5328 61.0269C36.7279 64.7549 33.5031 69.0938 32.8583 74.0439C31.8544 81.75 38.7458 85.5219 42.2376 82.1329C45.7294 78.7439 43.6362 74.4422 41.1078 73.2664C38.5794 72.0905 37.0332 72.5 37.3029 70.9287C37.5726 69.3574 41.1698 65.0008 44.3301 62.9719C44.5397 62.7936 44.6195 62.4476 44.4176 62.1852C44.2848 62.0126 44.0243 61.6741 43.6362 61.1696C43.2968 60.7285 42.9717 60.745 42.5328 61.0269Z" fill="#376C74"/>
<path fill-rule="evenodd" clip-rule="evenodd" d="M57.8147 61.0269C52.01 64.7549 48.7851 69.0938 48.1402 74.0439C47.1364 81.75 54.0278 85.5219 57.5196 82.1329C61.0114 78.7439 58.9183 74.4422 56.3898 73.2664C53.8614 72.0905 52.3151 72.5 52.5849 70.9287C52.8546 69.3574 56.4518 65.0008 59.6121 62.9719C59.8217 62.7936 59.9015 62.4476 59.6996 62.1852C59.5668 62.0126 59.3064 61.6741 58.9183 61.1696C58.5789 60.7285 58.2537 60.745 57.8147 61.0269Z" fill="#376C74"/>
<path d="M72.024 189.272V187.96H84.888V189.272H72.024ZM95.8331 181.8V183.192H91.4331V193H89.8971V183.192H85.5131V181.8H95.8331ZM101.639 186.136C101.223 186.136 100.828 186.248 100.455 186.472C100.092 186.685 99.6706 187.053 99.1906 187.576V193H97.7506V181.384L99.1906 180.856V186.504C99.6493 185.917 100.103 185.496 100.551 185.24C100.999 184.973 101.495 184.84 102.039 184.84C102.881 184.84 103.559 185.123 104.071 185.688C104.593 186.253 104.855 187.011 104.855 187.96V193H103.415V188.104C103.415 187.485 103.255 187.005 102.935 186.664C102.625 186.312 102.193 186.136 101.639 186.136ZM114.047 190.888L113.519 192.472C113.05 192.728 112.612 192.909 112.207 193.016C111.802 193.123 111.359 193.176 110.879 193.176C109.61 193.176 108.602 192.797 107.855 192.04C107.108 191.283 106.735 190.269 106.735 189C106.735 187.827 107.108 186.829 107.855 186.008C108.602 185.187 109.53 184.776 110.639 184.776C111.748 184.776 112.634 185.165 113.295 185.944C113.956 186.712 114.287 187.704 114.287 188.92C114.287 189.027 114.282 189.144 114.271 189.272C114.26 189.4 114.25 189.496 114.239 189.56H108.223C108.33 190.285 108.628 190.851 109.119 191.256C109.62 191.661 110.26 191.864 111.039 191.864C111.508 191.864 111.999 191.779 112.511 191.608C113.034 191.427 113.535 191.181 114.015 190.872L114.047 190.888ZM110.591 186.04C109.94 186.04 109.391 186.269 108.943 186.728C108.506 187.187 108.255 187.773 108.191 188.488H112.831C112.767 187.72 112.538 187.123 112.143 186.696C111.748 186.259 111.231 186.04 110.591 186.04ZM123.734 193H120.038V181.8H123.734C125.675 181.8 127.216 182.301 128.358 183.304C129.499 184.307 130.07 185.661 130.07 187.368C130.07 189.043 129.478 190.403 128.294 191.448C127.12 192.483 125.6 193 123.734 193ZM128.486 187.4C128.486 186.109 128.054 185.091 127.19 184.344C126.326 183.587 125.163 183.208 123.702 183.208H121.59V191.592H123.766C125.152 191.592 126.283 191.208 127.158 190.44C128.043 189.661 128.486 188.648 128.486 187.4ZM138.969 190.888L138.441 192.472C137.971 192.728 137.534 192.909 137.129 193.016C136.723 193.123 136.281 193.176 135.801 193.176C134.531 193.176 133.523 192.797 132.777 192.04C132.03 191.283 131.657 190.269 131.657 189C131.657 187.827 132.03 186.829 132.777 186.008C133.523 185.187 134.451 184.776 135.561 184.776C136.67 184.776 137.555 185.165 138.217 185.944C138.878 186.712 139.209 187.704 139.209 188.92C139.209 189.027 139.203 189.144 139.193 189.272C139.182 189.4 139.171 189.496 139.161 189.56H133.145C133.251 190.285 133.55 190.851 134.041 191.256C134.542 191.661 135.182 191.864 135.961 191.864C136.43 191.864 136.921 191.779 137.433 191.608C137.955 191.427 138.457 191.181 138.937 190.872L138.969 190.888ZM135.513 186.04C134.862 186.04 134.313 186.269 133.865 186.728C133.427 187.187 133.177 187.773 133.113 188.488H137.753C137.689 187.72 137.459 187.123 137.065 186.696C136.67 186.259 136.153 186.04 135.513 186.04ZM147.778 188.136V192.808L146.338 193.128V191.704C145.741 192.184 145.176 192.541 144.642 192.776C144.12 193.011 143.608 193.128 143.106 193.128C142.402 193.128 141.832 192.936 141.394 192.552C140.957 192.157 140.738 191.635 140.738 190.984C140.738 190.067 141.197 189.389 142.114 188.952C143.032 188.504 144.44 188.269 146.338 188.248V188.216C146.338 187.555 146.178 187.053 145.858 186.712C145.549 186.36 145.096 186.184 144.498 186.184C144.05 186.184 143.586 186.28 143.106 186.472C142.637 186.664 142.152 186.952 141.65 187.336L141.618 187.32L141.922 185.704C142.349 185.416 142.792 185.203 143.25 185.064C143.72 184.925 144.21 184.856 144.722 184.856C145.704 184.856 146.456 185.139 146.978 185.704C147.512 186.269 147.778 187.08 147.778 188.136ZM142.194 190.92C142.194 191.219 142.301 191.459 142.514 191.64C142.728 191.811 143.021 191.896 143.394 191.896C143.768 191.896 144.194 191.805 144.674 191.624C145.154 191.443 145.709 191.16 146.338 190.776V189.176C144.952 189.261 143.912 189.448 143.218 189.736C142.536 190.013 142.194 190.408 142.194 190.92ZM154.232 186.136C153.816 186.136 153.422 186.248 153.048 186.472C152.686 186.685 152.264 187.053 151.784 187.576V193H150.344V185.192L151.784 184.872V186.504C152.243 185.917 152.696 185.496 153.144 185.24C153.592 184.973 154.088 184.84 154.632 184.84C155.475 184.84 156.152 185.123 156.664 185.688C157.187 186.253 157.448 187.011 157.448 187.96V193H156.008V188.104C156.008 187.485 155.848 187.005 155.528 186.664C155.219 186.312 154.787 186.136 154.232 186.136ZM168.814 193.224C167.16 193.224 165.774 192.664 164.654 191.544C163.534 190.424 162.974 189.048 162.974 187.416C162.974 185.773 163.539 184.392 164.67 183.272C165.8 182.141 167.192 181.576 168.846 181.576C170.488 181.576 171.87 182.136 172.99 183.256C174.11 184.376 174.67 185.752 174.67 187.384C174.67 189.027 174.104 190.413 172.974 191.544C171.843 192.664 170.456 193.224 168.814 193.224ZM168.782 183.016C167.608 183.016 166.611 183.443 165.79 184.296C164.968 185.139 164.558 186.168 164.558 187.384C164.558 188.621 164.968 189.667 165.79 190.52C166.611 191.363 167.619 191.784 168.814 191.784C169.987 191.784 170.99 191.363 171.822 190.52C172.664 189.667 173.086 188.632 173.086 187.416C173.086 186.189 172.664 185.149 171.822 184.296C170.99 183.443 169.976 183.016 168.782 183.016ZM181.691 185V186.232H179.051V193H177.611V186.232H176.187V185H177.611V183.736C177.611 182.851 177.851 182.157 178.331 181.656C178.811 181.144 179.467 180.888 180.299 180.888C180.555 180.888 180.79 180.909 181.003 180.952C181.216 180.995 181.435 181.069 181.659 181.176L181.899 182.664L181.867 182.68C181.568 182.509 181.307 182.392 181.083 182.328C180.859 182.253 180.63 182.216 180.395 182.216C179.979 182.216 179.648 182.349 179.403 182.616C179.168 182.872 179.051 183.229 179.051 183.688V185H181.691ZM196.052 181.8V183.192H191.652V193H190.116V183.192H185.732V181.8H196.052ZM201.857 186.136C201.441 186.136 201.047 186.248 200.673 186.472C200.311 186.685 199.889 187.053 199.409 187.576V193H197.969V181.384L199.409 180.856V186.504C199.868 185.917 200.321 185.496 200.769 185.24C201.217 184.973 201.713 184.84 202.257 184.84C203.1 184.84 203.777 185.123 204.289 185.688C204.812 186.253 205.073 187.011 205.073 187.96V193H203.633V188.104C203.633 187.485 203.473 187.005 203.153 186.664C202.844 186.312 202.412 186.136 201.857 186.136ZM214.266 190.888L213.738 192.472C213.268 192.728 212.831 192.909 212.426 193.016C212.02 193.123 211.578 193.176 211.098 193.176C209.828 193.176 208.82 192.797 208.074 192.04C207.327 191.283 206.954 190.269 206.954 189C206.954 187.827 207.327 186.829 208.074 186.008C208.82 185.187 209.748 184.776 210.858 184.776C211.967 184.776 212.852 185.165 213.514 185.944C214.175 186.712 214.506 187.704 214.506 188.92C214.506 189.027 214.5 189.144 214.49 189.272C214.479 189.4 214.468 189.496 214.458 189.56H208.442C208.548 190.285 208.847 190.851 209.338 191.256C209.839 191.661 210.479 191.864 211.258 191.864C211.727 191.864 212.218 191.779 212.73 191.608C213.252 191.427 213.754 191.181 214.234 190.872L214.266 190.888ZM210.81 186.04C210.159 186.04 209.61 186.269 209.162 186.728C208.724 187.187 208.474 187.773 208.41 188.488H213.05C212.986 187.72 212.756 187.123 212.362 186.696C211.967 186.259 211.45 186.04 210.81 186.04ZM220.243 186.136C219.87 186.136 219.512 186.243 219.171 186.456C218.84 186.659 218.451 187.011 218.003 187.512V193H216.563V185.192L218.003 184.872V186.44C218.43 185.875 218.856 185.469 219.283 185.224C219.71 184.968 220.174 184.84 220.675 184.84C221.262 184.84 221.768 184.995 222.195 185.304C222.632 185.613 222.952 186.051 223.155 186.616C223.624 185.987 224.083 185.533 224.531 185.256C224.979 184.979 225.48 184.84 226.035 184.84C226.846 184.84 227.496 185.123 227.987 185.688C228.488 186.253 228.739 187.011 228.739 187.96V193H227.283V188.104C227.283 187.485 227.134 187.005 226.835 186.664C226.536 186.312 226.126 186.136 225.603 186.136C225.23 186.136 224.867 186.243 224.515 186.456C224.174 186.669 223.784 187.027 223.347 187.528C223.358 187.571 223.363 187.624 223.363 187.688C223.363 187.741 223.363 187.832 223.363 187.96V193H221.923V188.104C221.923 187.485 221.774 187.005 221.475 186.664C221.176 186.312 220.766 186.136 220.243 186.136ZM237.938 190.888L237.41 192.472C236.94 192.728 236.503 192.909 236.098 193.016C235.692 193.123 235.25 193.176 234.77 193.176C233.5 193.176 232.492 192.797 231.746 192.04C230.999 191.283 230.626 190.269 230.626 189C230.626 187.827 230.999 186.829 231.746 186.008C232.492 185.187 233.42 184.776 234.53 184.776C235.639 184.776 236.524 185.165 237.186 185.944C237.847 186.712 238.178 187.704 238.178 188.92C238.178 189.027 238.172 189.144 238.161 189.272C238.151 189.4 238.14 189.496 238.13 189.56H232.114C232.22 190.285 232.519 190.851 233.01 191.256C233.511 191.661 234.151 191.864 234.93 191.864C235.399 191.864 235.89 191.779 236.402 191.608C236.924 191.427 237.426 191.181 237.906 190.872L237.938 190.888ZM234.482 186.04C233.831 186.04 233.282 186.269 232.834 186.728C232.396 187.187 232.146 187.773 232.082 188.488H236.722C236.658 187.72 236.428 187.123 236.034 186.696C235.639 186.259 235.122 186.04 234.482 186.04ZM243.371 188.328C244.427 188.573 245.158 188.883 245.563 189.256C245.979 189.629 246.187 190.141 246.187 190.792C246.187 191.485 245.883 192.056 245.275 192.504C244.678 192.952 243.91 193.176 242.971 193.176C242.406 193.176 241.867 193.096 241.355 192.936C240.843 192.776 240.336 192.531 239.835 192.2L239.531 190.456L239.563 190.44C240.16 190.909 240.763 191.267 241.371 191.512C241.979 191.757 242.566 191.88 243.131 191.88C243.611 191.88 244.006 191.789 244.315 191.608C244.635 191.416 244.795 191.171 244.795 190.872C244.795 190.552 244.646 190.301 244.347 190.12C244.059 189.939 243.483 189.747 242.619 189.544C241.584 189.299 240.864 188.995 240.459 188.632C240.054 188.269 239.851 187.795 239.851 187.208C239.851 186.504 240.139 185.933 240.715 185.496C241.302 185.048 242.054 184.824 242.971 184.824C243.419 184.824 243.867 184.888 244.315 185.016C244.763 185.144 245.19 185.325 245.595 185.56V187.096H245.563C245.062 186.776 244.576 186.536 244.107 186.376C243.648 186.205 243.216 186.12 242.811 186.12C242.331 186.12 241.947 186.205 241.659 186.376C241.382 186.547 241.243 186.771 241.243 187.048C241.243 187.347 241.387 187.587 241.675 187.768C241.963 187.939 242.528 188.125 243.371 188.328Z" fill="#7C7C7C"/>
</svg>
