  <svg width="501" height="261" viewBox="0 0 501 261" fill="none" xmlns="http://www.w3.org/2000/svg">
<rect width="501" height="261" fill="white"/>
<rect y="62" width="501" height="118" fill="#376C74"/>
<path d="M234.544 95.656L234.432 96.152L232.48 96.344C232.256 96.36 231.92 96.392 231.728 96.392C230.4 96.392 230.288 96.232 229.2 95.144C228.64 94.584 227.952 93.832 227.408 93.224C224.432 93.096 222.48 91.032 222.48 87.928C222.48 84.808 224.832 82.616 227.872 82.616C230.96 82.616 232.8 84.824 232.8 87.864C232.8 89.896 231.584 91.816 229.68 92.648L231.088 94.072C232.048 95.048 232.576 95.272 233.088 95.416C233.36 95.496 233.984 95.624 234.544 95.656ZM230.464 88.456C230.464 85.432 229.12 83.4 227.152 83.4C225.936 83.4 224.816 85.064 224.816 87.352C224.816 90.232 226.064 92.488 228.064 92.488C229.52 92.488 230.464 90.776 230.464 88.456ZM242.329 91.896V92.44L239.401 93.208H239.113L239.017 92.12C238.345 92.632 237.129 93.176 236.585 93.176C235.257 93.176 234.873 92.264 234.873 90.952V87.688C234.873 87.128 234.601 86.936 233.849 86.728V86.28L236.601 85.88H236.889L236.873 90.328C236.873 91.176 237.241 91.944 237.881 91.944C238.329 91.944 238.729 91.864 239.017 91.656V87.688C239.017 87.048 238.857 86.856 237.801 86.728V86.28L240.745 85.88H240.985V91.432C240.985 91.768 241.161 92.008 241.289 92.072L242.329 91.896ZM249.833 89.496C249.833 91.608 248.265 93.144 246.137 93.144C243.961 93.144 242.681 91.704 242.681 89.432C242.681 87.352 244.217 85.848 246.377 85.848C248.553 85.848 249.833 87.336 249.833 89.496ZM247.689 89.896C247.689 87.816 247.177 86.504 246.041 86.504C245.321 86.504 244.825 87.672 244.825 89.048C244.825 91.048 245.337 92.488 246.409 92.488C247.241 92.488 247.689 91.352 247.689 89.896ZM255.786 91.848V92.344C255.322 92.68 254.138 93.128 253.498 93.128C251.834 93.128 251.322 92.344 251.322 91.064C251.322 89.544 251.418 88.472 251.45 86.952H250.602V86.504L253.098 84.584H253.402L253.386 86.104H255.658V86.968L253.402 86.952C253.37 88.568 253.338 89.272 253.338 90.696C253.338 91.592 253.866 92.136 254.778 92.136C255.13 92.136 255.626 91.912 255.786 91.848ZM261.963 91.208L262.283 91.704C261.259 92.6 260.427 93.128 259.035 93.128C257.275 93.128 255.931 91.768 255.931 89.832C255.931 87.48 257.387 85.864 259.499 85.864C261.227 85.864 262.043 86.776 262.043 88.376V88.76L257.979 88.744C257.963 88.856 257.947 89.192 257.947 89.368C257.947 90.872 259.003 91.848 260.219 91.848C260.955 91.848 261.419 91.672 261.963 91.208ZM258.011 88.184L260.043 88.152C260.043 87.176 259.739 86.472 259.131 86.472C258.475 86.472 258.107 87.08 258.011 88.184ZM275.15 89.992L275.662 90.088L275.102 92.632C273.998 93.016 273.342 93.208 271.838 93.208C268.782 93.208 266.574 90.856 266.574 87.832C266.574 84.76 268.926 82.632 271.87 82.632C273.342 82.632 274.174 82.92 275.31 83.208V85.944H274.846C274.798 85.384 274.462 84.6 273.998 84.168C273.774 83.96 273.006 83.336 271.966 83.336C270.014 83.336 268.942 85.256 268.942 87.464C268.942 90.376 270.334 92.504 272.59 92.504C273.31 92.504 273.742 92.168 274.014 91.896C274.526 91.384 274.99 90.552 275.15 89.992ZM283.442 91.704V92.28C283.058 92.68 282.034 93.144 281.154 93.144C280.29 93.144 279.97 92.488 279.954 92.12C279.41 92.696 278.546 93.144 277.97 93.144C277.218 93.144 276.418 92.536 276.418 91.608C276.418 91.176 276.498 90.552 276.738 90.184L279.954 89.016L279.97 87.992C279.986 87.256 279.602 86.584 279.122 86.584C278.834 86.584 278.61 87.064 278.578 87.928L276.578 88.168V87.864C277.09 86.52 279.01 85.848 279.81 85.848C281.426 85.848 282.002 86.616 281.986 87.848L281.922 91.24C281.906 91.896 282.226 92.056 282.546 92.056C282.898 92.056 283.074 91.96 283.442 91.704ZM279.938 91.704L279.954 89.528C279.65 89.704 278.93 90.056 278.626 90.28C278.594 90.488 278.514 90.808 278.514 91.128C278.514 91.592 278.722 91.976 279.026 91.976C279.41 91.976 279.666 91.912 279.938 91.704ZM287.492 92.52V93H283.492V92.52C284.18 92.44 284.34 92.312 284.452 92.04V83.704C284.452 83.16 284.484 82.936 283.428 82.824V82.392L286.404 81.672H286.756V82.008L286.452 82.552V92.04C286.612 92.36 286.804 92.424 287.492 92.52ZM291.992 92.52V93H287.992V92.52C288.68 92.44 288.84 92.312 288.952 92.04V83.704C288.952 83.16 288.984 82.936 287.928 82.824V82.392L290.904 81.672H291.256V82.008L290.952 82.552V92.04C291.112 92.36 291.304 92.424 291.992 92.52ZM299.74 89.496C299.74 91.608 298.172 93.144 296.044 93.144C293.868 93.144 292.588 91.704 292.588 89.432C292.588 87.352 294.124 85.848 296.284 85.848C298.46 85.848 299.74 87.336 299.74 89.496ZM297.596 89.896C297.596 87.816 297.084 86.504 295.948 86.504C295.228 86.504 294.732 87.672 294.732 89.048C294.732 91.048 295.244 92.488 296.316 92.488C297.148 92.488 297.596 91.352 297.596 89.896ZM308.845 91.896V92.44L305.917 93.208H305.629L305.533 92.12C304.861 92.632 303.645 93.176 303.101 93.176C301.773 93.176 301.389 92.264 301.389 90.952V87.688C301.389 87.128 301.117 86.936 300.365 86.728V86.28L303.117 85.88H303.405L303.389 90.328C303.389 91.176 303.757 91.944 304.397 91.944C304.845 91.944 305.245 91.864 305.533 91.656V87.688C305.533 87.048 305.373 86.856 304.317 86.728V86.28L307.261 85.88H307.501V91.432C307.501 91.768 307.677 92.008 307.805 92.072L308.845 91.896ZM314.349 91.848V92.344C313.885 92.68 312.701 93.128 312.061 93.128C310.397 93.128 309.885 92.344 309.885 91.064C309.885 89.544 309.981 88.472 310.013 86.952H309.165V86.504L311.661 84.584H311.965L311.949 86.104H314.221V86.968L311.965 86.952C311.933 88.568 311.901 89.272 311.901 90.696C311.901 91.592 312.429 92.136 313.341 92.136C313.693 92.136 314.189 91.912 314.349 91.848Z" fill="white"/>
<path d="M224.648 111H222.8V105.4H224.648C225.619 105.4 226.389 105.651 226.96 106.152C227.531 106.653 227.816 107.331 227.816 108.184C227.816 109.021 227.52 109.701 226.928 110.224C226.341 110.741 225.581 111 224.648 111ZM227.024 108.2C227.024 107.555 226.808 107.045 226.376 106.672C225.944 106.293 225.363 106.104 224.632 106.104H223.576V110.296H224.664C225.357 110.296 225.923 110.104 226.36 109.72C226.803 109.331 227.024 108.824 227.024 108.2ZM229.346 105.072C229.484 105.072 229.602 105.12 229.698 105.216C229.794 105.312 229.842 105.429 229.842 105.568C229.842 105.707 229.794 105.824 229.698 105.92C229.602 106.016 229.484 106.064 229.346 106.064C229.207 106.064 229.09 106.016 228.994 105.92C228.898 105.824 228.85 105.707 228.85 105.568C228.85 105.429 228.898 105.312 228.994 105.216C229.09 105.12 229.207 105.072 229.346 105.072ZM229.706 111H228.986V107H229.706V111ZM232.67 108.664C233.198 108.787 233.563 108.941 233.766 109.128C233.974 109.315 234.078 109.571 234.078 109.896C234.078 110.243 233.926 110.528 233.622 110.752C233.323 110.976 232.939 111.088 232.47 111.088C232.187 111.088 231.918 111.048 231.662 110.968C231.406 110.888 231.153 110.765 230.902 110.6L230.75 109.728L230.766 109.72C231.065 109.955 231.366 110.133 231.67 110.256C231.974 110.379 232.267 110.44 232.55 110.44C232.79 110.44 232.987 110.395 233.142 110.304C233.302 110.208 233.382 110.085 233.382 109.936C233.382 109.776 233.307 109.651 233.158 109.56C233.014 109.469 232.726 109.373 232.294 109.272C231.777 109.149 231.417 108.997 231.214 108.816C231.011 108.635 230.91 108.397 230.91 108.104C230.91 107.752 231.054 107.467 231.342 107.248C231.635 107.024 232.011 106.912 232.47 106.912C232.694 106.912 232.918 106.944 233.142 107.008C233.366 107.072 233.579 107.163 233.782 107.28V108.048H233.766C233.515 107.888 233.273 107.768 233.038 107.688C232.809 107.603 232.593 107.56 232.39 107.56C232.15 107.56 231.958 107.603 231.814 107.688C231.675 107.773 231.606 107.885 231.606 108.024C231.606 108.173 231.678 108.293 231.822 108.384C231.966 108.469 232.249 108.563 232.67 108.664ZM239.061 108.92C239.061 109.533 238.864 110.045 238.469 110.456C238.08 110.861 237.608 111.064 237.053 111.064C236.84 111.064 236.634 111.029 236.437 110.96C236.245 110.891 236.05 110.784 235.853 110.64V112.528H235.133V107.096L235.853 106.936V107.584C236.077 107.349 236.298 107.181 236.517 107.08C236.736 106.973 236.976 106.92 237.237 106.92C237.749 106.92 238.181 107.112 238.533 107.496C238.885 107.875 239.061 108.349 239.061 108.92ZM238.317 108.976C238.317 108.56 238.194 108.221 237.949 107.96C237.709 107.699 237.408 107.568 237.045 107.568C236.837 107.568 236.64 107.608 236.453 107.688C236.266 107.768 236.066 107.896 235.853 108.072V110.08C236.034 110.197 236.21 110.285 236.381 110.344C236.557 110.397 236.741 110.424 236.933 110.424C237.333 110.424 237.664 110.288 237.925 110.016C238.186 109.739 238.317 109.392 238.317 108.976ZM240.854 111H240.134V105.192L240.854 104.928V111ZM245.506 108.568V110.904L244.786 111.064V110.352C244.488 110.592 244.205 110.771 243.938 110.888C243.677 111.005 243.421 111.064 243.17 111.064C242.818 111.064 242.533 110.968 242.314 110.776C242.096 110.579 241.986 110.317 241.986 109.992C241.986 109.533 242.216 109.195 242.674 108.976C243.133 108.752 243.837 108.635 244.786 108.624V108.608C244.786 108.277 244.706 108.027 244.546 107.856C244.392 107.68 244.165 107.592 243.866 107.592C243.642 107.592 243.41 107.64 243.17 107.736C242.936 107.832 242.693 107.976 242.442 108.168L242.426 108.16L242.578 107.352C242.792 107.208 243.013 107.101 243.242 107.032C243.477 106.963 243.722 106.928 243.978 106.928C244.469 106.928 244.845 107.069 245.106 107.352C245.373 107.635 245.506 108.04 245.506 108.568ZM242.714 109.96C242.714 110.109 242.768 110.229 242.874 110.32C242.981 110.405 243.128 110.448 243.314 110.448C243.501 110.448 243.714 110.403 243.954 110.312C244.194 110.221 244.472 110.08 244.786 109.888V109.088C244.093 109.131 243.573 109.224 243.226 109.368C242.885 109.507 242.714 109.704 242.714 109.96ZM250.247 107L248.391 111.448C248.237 111.821 248.042 112.101 247.807 112.288C247.573 112.475 247.301 112.568 246.991 112.568C246.874 112.568 246.759 112.555 246.647 112.528C246.535 112.507 246.426 112.469 246.319 112.416L246.175 111.68L246.191 111.672C246.319 111.747 246.437 111.8 246.543 111.832C246.65 111.869 246.762 111.888 246.879 111.888C247.071 111.888 247.234 111.832 247.367 111.72C247.506 111.613 247.626 111.443 247.727 111.208L247.911 110.776L246.215 107H247.015L248.279 109.952L249.463 107H250.247ZM256.077 108.568V110.904L255.357 111.064V110.352C255.058 110.592 254.775 110.771 254.509 110.888C254.247 111.005 253.991 111.064 253.741 111.064C253.389 111.064 253.103 110.968 252.885 110.776C252.666 110.579 252.557 110.317 252.557 109.992C252.557 109.533 252.786 109.195 253.245 108.976C253.703 108.752 254.407 108.635 255.357 108.624V108.608C255.357 108.277 255.277 108.027 255.117 107.856C254.962 107.68 254.735 107.592 254.437 107.592C254.213 107.592 253.981 107.64 253.741 107.736C253.506 107.832 253.263 107.976 253.013 108.168L252.997 108.16L253.149 107.352C253.362 107.208 253.583 107.101 253.813 107.032C254.047 106.963 254.293 106.928 254.549 106.928C255.039 106.928 255.415 107.069 255.677 107.352C255.943 107.635 256.077 108.04 256.077 108.568ZM253.285 109.96C253.285 110.109 253.338 110.229 253.445 110.32C253.551 110.405 253.698 110.448 253.885 110.448C254.071 110.448 254.285 110.403 254.525 110.312C254.765 110.221 255.042 110.08 255.357 109.888V109.088C254.663 109.131 254.143 109.224 253.797 109.368C253.455 109.507 253.285 109.704 253.285 109.96ZM261.478 107V107.616H260.158V111H259.438V107.616H258.726V107H259.438V106.368C259.438 105.925 259.558 105.579 259.798 105.328C260.038 105.072 260.366 104.944 260.782 104.944C260.91 104.944 261.028 104.955 261.134 104.976C261.241 104.997 261.35 105.035 261.462 105.088L261.582 105.832L261.566 105.84C261.417 105.755 261.286 105.696 261.174 105.664C261.062 105.627 260.948 105.608 260.83 105.608C260.622 105.608 260.457 105.675 260.334 105.808C260.217 105.936 260.158 106.115 260.158 106.344V107H261.478ZM265.531 109.944L265.267 110.736C265.033 110.864 264.814 110.955 264.611 111.008C264.409 111.061 264.187 111.088 263.947 111.088C263.313 111.088 262.809 110.899 262.435 110.52C262.062 110.141 261.875 109.635 261.875 109C261.875 108.413 262.062 107.915 262.435 107.504C262.809 107.093 263.273 106.888 263.827 106.888C264.382 106.888 264.825 107.083 265.155 107.472C265.486 107.856 265.651 108.352 265.651 108.96C265.651 109.013 265.649 109.072 265.643 109.136C265.638 109.2 265.633 109.248 265.627 109.28H262.619C262.673 109.643 262.822 109.925 263.067 110.128C263.318 110.331 263.638 110.432 264.027 110.432C264.262 110.432 264.507 110.389 264.763 110.304C265.025 110.213 265.275 110.091 265.515 109.936L265.531 109.944ZM263.803 107.52C263.478 107.52 263.203 107.635 262.979 107.864C262.761 108.093 262.635 108.387 262.603 108.744H264.923C264.891 108.36 264.777 108.061 264.579 107.848C264.382 107.629 264.123 107.52 263.803 107.52ZM269.936 108.568V110.904L269.216 111.064V110.352C268.917 110.592 268.635 110.771 268.368 110.888C268.107 111.005 267.851 111.064 267.6 111.064C267.248 111.064 266.963 110.968 266.744 110.776C266.525 110.579 266.416 110.317 266.416 109.992C266.416 109.533 266.645 109.195 267.104 108.976C267.563 108.752 268.267 108.635 269.216 108.624V108.608C269.216 108.277 269.136 108.027 268.976 107.856C268.821 107.68 268.595 107.592 268.296 107.592C268.072 107.592 267.84 107.64 267.6 107.736C267.365 107.832 267.123 107.976 266.872 108.168L266.856 108.16L267.008 107.352C267.221 107.208 267.443 107.101 267.672 107.032C267.907 106.963 268.152 106.928 268.408 106.928C268.899 106.928 269.275 107.069 269.536 107.352C269.803 107.635 269.936 108.04 269.936 108.568ZM267.144 109.96C267.144 110.109 267.197 110.229 267.304 110.32C267.411 110.405 267.557 110.448 267.744 110.448C267.931 110.448 268.144 110.403 268.384 110.312C268.624 110.221 268.901 110.08 269.216 109.888V109.088C268.523 109.131 268.003 109.224 267.656 109.368C267.315 109.507 267.144 109.704 267.144 109.96ZM273.787 110.04L273.627 110.808C273.51 110.893 273.371 110.96 273.211 111.008C273.051 111.061 272.886 111.088 272.715 111.088C272.336 111.088 272.038 110.971 271.819 110.736C271.6 110.501 271.491 110.173 271.491 109.752V107.616H270.811V107H271.491V106.104L272.203 105.84V107H273.771V107.616H272.203V109.72C272.203 109.96 272.259 110.141 272.371 110.264C272.483 110.381 272.648 110.44 272.867 110.44C273.016 110.44 273.166 110.408 273.315 110.344C273.464 110.275 273.616 110.171 273.771 110.032L273.787 110.04ZM278.277 111H277.549V110.248C277.32 110.541 277.093 110.755 276.869 110.888C276.645 111.016 276.397 111.08 276.125 111.08C275.704 111.08 275.363 110.939 275.101 110.656C274.845 110.373 274.717 109.995 274.717 109.52V107H275.445V109.448C275.445 109.757 275.523 110 275.677 110.176C275.837 110.347 276.056 110.432 276.333 110.432C276.536 110.432 276.728 110.379 276.909 110.272C277.096 110.16 277.309 109.973 277.549 109.712V107H278.277V111ZM281.833 107.704C281.599 107.704 281.367 107.76 281.137 107.872C280.913 107.984 280.649 108.173 280.345 108.44V111H279.625V107.096L280.345 106.936V107.952C280.676 107.541 280.935 107.269 281.121 107.136C281.313 107.003 281.519 106.936 281.737 106.936C281.785 106.936 281.825 106.939 281.857 106.944C281.895 106.949 281.94 106.957 281.993 106.968L282.049 107.728C282.012 107.717 281.975 107.712 281.937 107.712C281.905 107.707 281.871 107.704 281.833 107.704ZM286.266 109.944L286.002 110.736C285.767 110.864 285.548 110.955 285.346 111.008C285.143 111.061 284.922 111.088 284.682 111.088C284.047 111.088 283.543 110.899 283.17 110.52C282.796 110.141 282.61 109.635 282.61 109C282.61 108.413 282.796 107.915 283.17 107.504C283.543 107.093 284.007 106.888 284.562 106.888C285.116 106.888 285.559 107.083 285.89 107.472C286.22 107.856 286.386 108.352 286.386 108.96C286.386 109.013 286.383 109.072 286.378 109.136C286.372 109.2 286.367 109.248 286.362 109.28H283.354C283.407 109.643 283.556 109.925 283.802 110.128C284.052 110.331 284.372 110.432 284.762 110.432C284.996 110.432 285.242 110.389 285.498 110.304C285.759 110.213 286.01 110.091 286.25 109.936L286.266 109.944ZM284.538 107.52C284.212 107.52 283.938 107.635 283.714 107.864C283.495 108.093 283.37 108.387 283.338 108.744H285.658C285.626 108.36 285.511 108.061 285.314 107.848C285.116 107.629 284.858 107.52 284.538 107.52ZM291.022 111H290.294V110.424C290.065 110.653 289.841 110.821 289.622 110.928C289.409 111.029 289.172 111.08 288.91 111.08C288.398 111.08 287.966 110.891 287.614 110.512C287.262 110.128 287.086 109.651 287.086 109.08C287.086 108.467 287.284 107.957 287.678 107.552C288.073 107.141 288.548 106.936 289.102 106.936C289.31 106.936 289.51 106.971 289.702 107.04C289.9 107.104 290.097 107.208 290.294 107.352V105.192L291.022 104.928V111ZM289.222 107.576C288.822 107.576 288.489 107.712 288.222 107.984C287.961 108.256 287.83 108.603 287.83 109.024C287.83 109.435 287.95 109.773 288.19 110.04C288.436 110.301 288.74 110.432 289.102 110.432C289.31 110.432 289.508 110.392 289.694 110.312C289.881 110.232 290.081 110.104 290.294 109.928V107.912C290.108 107.795 289.929 107.709 289.758 107.656C289.588 107.603 289.409 107.576 289.222 107.576ZM297.582 107H297.67V112.528H296.95V110.416C296.715 110.651 296.486 110.821 296.262 110.928C296.043 111.029 295.803 111.08 295.542 111.08C295.041 111.08 294.619 110.893 294.278 110.52C293.942 110.141 293.774 109.672 293.774 109.112C293.774 108.477 293.985 107.957 294.406 107.552C294.833 107.141 295.358 106.936 295.982 106.936C296.163 106.936 296.342 106.955 296.518 106.992C296.694 107.029 296.875 107.088 297.062 107.168L297.582 107ZM295.99 107.576C295.569 107.576 295.217 107.717 294.934 108C294.657 108.283 294.518 108.637 294.518 109.064C294.518 109.469 294.633 109.8 294.862 110.056C295.097 110.307 295.395 110.432 295.758 110.432C295.966 110.432 296.163 110.392 296.35 110.312C296.537 110.232 296.737 110.104 296.95 109.928V107.768C296.785 107.704 296.625 107.656 296.47 107.624C296.315 107.592 296.155 107.576 295.99 107.576ZM302.512 111H301.784V110.248C301.554 110.541 301.328 110.755 301.104 110.888C300.88 111.016 300.632 111.08 300.36 111.08C299.938 111.08 299.597 110.939 299.336 110.656C299.08 110.373 298.952 109.995 298.952 109.52V107H299.68V109.448C299.68 109.757 299.757 110 299.912 110.176C300.072 110.347 300.29 110.432 300.568 110.432C300.77 110.432 300.962 110.379 301.144 110.272C301.33 110.16 301.544 109.973 301.784 109.712V107H302.512V111ZM305.628 111.112C305.014 111.112 304.51 110.909 304.116 110.504C303.721 110.093 303.524 109.595 303.524 109.008C303.524 108.427 303.726 107.928 304.132 107.512C304.537 107.096 305.041 106.888 305.644 106.888C306.262 106.888 306.766 107.091 307.156 107.496C307.55 107.896 307.748 108.392 307.748 108.984C307.748 109.571 307.545 110.072 307.14 110.488C306.74 110.904 306.236 111.112 305.628 111.112ZM307.012 108.984C307.012 108.568 306.881 108.224 306.62 107.952C306.364 107.675 306.038 107.536 305.644 107.536C305.244 107.536 304.913 107.677 304.652 107.96C304.396 108.237 304.268 108.587 304.268 109.008C304.268 109.424 304.396 109.771 304.652 110.048C304.913 110.325 305.238 110.464 305.628 110.464C306.028 110.464 306.358 110.323 306.62 110.04C306.881 109.757 307.012 109.405 307.012 108.984ZM311.342 110.04L311.182 110.808C311.064 110.893 310.926 110.96 310.766 111.008C310.606 111.061 310.44 111.088 310.27 111.088C309.891 111.088 309.592 110.971 309.374 110.736C309.155 110.501 309.046 110.173 309.046 109.752V107.616H308.366V107H309.046V106.104L309.758 105.84V107H311.326V107.616H309.758V109.72C309.758 109.96 309.814 110.141 309.926 110.264C310.038 110.381 310.203 110.44 310.422 110.44C310.571 110.44 310.72 110.408 310.87 110.344C311.019 110.275 311.171 110.171 311.326 110.032L311.342 110.04ZM315.672 109.944L315.408 110.736C315.173 110.864 314.955 110.955 314.752 111.008C314.549 111.061 314.328 111.088 314.088 111.088C313.453 111.088 312.949 110.899 312.576 110.52C312.203 110.141 312.016 109.635 312.016 109C312.016 108.413 312.203 107.915 312.576 107.504C312.949 107.093 313.413 106.888 313.968 106.888C314.523 106.888 314.965 107.083 315.296 107.472C315.627 107.856 315.792 108.352 315.792 108.96C315.792 109.013 315.789 109.072 315.784 109.136C315.779 109.2 315.773 109.248 315.768 109.28H312.76C312.813 109.643 312.963 109.925 313.208 110.128C313.459 110.331 313.779 110.432 314.168 110.432C314.403 110.432 314.648 110.389 314.904 110.304C315.165 110.213 315.416 110.091 315.656 109.936L315.672 109.944ZM313.944 107.52C313.619 107.52 313.344 107.635 313.12 107.864C312.901 108.093 312.776 108.387 312.744 108.744H315.064C315.032 108.36 314.917 108.061 314.72 107.848C314.523 107.629 314.264 107.52 313.944 107.52ZM320.939 107V107.616H319.619V111H318.899V107.616H318.187V107H318.899V106.368C318.899 105.925 319.019 105.579 319.259 105.328C319.499 105.072 319.827 104.944 320.243 104.944C320.371 104.944 320.489 104.955 320.595 104.976C320.702 104.997 320.811 105.035 320.923 105.088L321.043 105.832L321.027 105.84C320.878 105.755 320.747 105.696 320.635 105.664C320.523 105.627 320.409 105.608 320.291 105.608C320.083 105.608 319.918 105.675 319.795 105.808C319.678 105.936 319.619 106.115 319.619 106.344V107H320.939ZM323.958 107.704C323.724 107.704 323.492 107.76 323.262 107.872C323.038 107.984 322.774 108.173 322.47 108.44V111H321.75V107.096L322.47 106.936V107.952C322.801 107.541 323.06 107.269 323.246 107.136C323.438 107.003 323.644 106.936 323.862 106.936C323.91 106.936 323.95 106.939 323.982 106.944C324.02 106.949 324.065 106.957 324.118 106.968L324.174 107.728C324.137 107.717 324.1 107.712 324.062 107.712C324.03 107.707 323.996 107.704 323.958 107.704ZM326.839 111.112C326.225 111.112 325.721 110.909 325.327 110.504C324.932 110.093 324.735 109.595 324.735 109.008C324.735 108.427 324.937 107.928 325.343 107.512C325.748 107.096 326.252 106.888 326.855 106.888C327.473 106.888 327.977 107.091 328.367 107.496C328.761 107.896 328.959 108.392 328.959 108.984C328.959 109.571 328.756 110.072 328.351 110.488C327.951 110.904 327.447 111.112 326.839 111.112ZM328.223 108.984C328.223 108.568 328.092 108.224 327.831 107.952C327.575 107.675 327.249 107.536 326.855 107.536C326.455 107.536 326.124 107.677 325.863 107.96C325.607 108.237 325.479 108.587 325.479 109.008C325.479 109.424 325.607 109.771 325.863 110.048C326.124 110.325 326.449 110.464 326.839 110.464C327.239 110.464 327.569 110.323 327.831 110.04C328.092 109.757 328.223 109.405 328.223 108.984ZM331.825 107.568C331.638 107.568 331.459 107.621 331.289 107.728C331.123 107.829 330.929 108.005 330.705 108.256V111H329.985V107.096L330.705 106.936V107.72C330.918 107.437 331.131 107.235 331.345 107.112C331.558 106.984 331.79 106.92 332.041 106.92C332.334 106.92 332.587 106.997 332.801 107.152C333.019 107.307 333.179 107.525 333.281 107.808C333.515 107.493 333.745 107.267 333.969 107.128C334.193 106.989 334.443 106.92 334.721 106.92C335.126 106.92 335.451 107.061 335.697 107.344C335.947 107.627 336.073 108.005 336.073 108.48V111H335.345V108.552C335.345 108.243 335.27 108.003 335.121 107.832C334.971 107.656 334.766 107.568 334.505 107.568C334.318 107.568 334.137 107.621 333.961 107.728C333.79 107.835 333.595 108.013 333.377 108.264C333.382 108.285 333.385 108.312 333.385 108.344C333.385 108.371 333.385 108.416 333.385 108.48V111H332.665V108.552C332.665 108.243 332.59 108.003 332.441 107.832C332.291 107.656 332.086 107.568 331.825 107.568ZM342.334 108.568V110.904L341.614 111.064V110.352C341.316 110.592 341.033 110.771 340.766 110.888C340.505 111.005 340.249 111.064 339.998 111.064C339.646 111.064 339.361 110.968 339.142 110.776C338.924 110.579 338.814 110.317 338.814 109.992C338.814 109.533 339.044 109.195 339.502 108.976C339.961 108.752 340.665 108.635 341.614 108.624V108.608C341.614 108.277 341.534 108.027 341.374 107.856C341.22 107.68 340.993 107.592 340.694 107.592C340.47 107.592 340.238 107.64 339.998 107.736C339.764 107.832 339.521 107.976 339.27 108.168L339.254 108.16L339.406 107.352C339.62 107.208 339.841 107.101 340.07 107.032C340.305 106.963 340.55 106.928 340.806 106.928C341.297 106.928 341.673 107.069 341.934 107.352C342.201 107.635 342.334 108.04 342.334 108.568ZM339.542 109.96C339.542 110.109 339.596 110.229 339.702 110.32C339.809 110.405 339.956 110.448 340.142 110.448C340.329 110.448 340.542 110.403 340.782 110.312C341.022 110.221 341.3 110.08 341.614 109.888V109.088C340.921 109.131 340.401 109.224 340.054 109.368C339.713 109.507 339.542 109.704 339.542 109.96ZM349.272 108.92C349.272 109.533 349.075 110.045 348.68 110.456C348.291 110.861 347.819 111.064 347.264 111.064C347.051 111.064 346.845 111.029 346.648 110.96C346.456 110.891 346.261 110.784 346.064 110.64V112.528H345.344V107.096L346.064 106.936V107.584C346.288 107.349 346.509 107.181 346.728 107.08C346.947 106.973 347.187 106.92 347.448 106.92C347.96 106.92 348.392 107.112 348.744 107.496C349.096 107.875 349.272 108.349 349.272 108.92ZM348.528 108.976C348.528 108.56 348.405 108.221 348.16 107.96C347.92 107.699 347.619 107.568 347.256 107.568C347.048 107.568 346.851 107.608 346.664 107.688C346.477 107.768 346.277 107.896 346.064 108.072V110.08C346.245 110.197 346.421 110.285 346.592 110.344C346.768 110.397 346.952 110.424 347.144 110.424C347.544 110.424 347.875 110.288 348.136 110.016C348.397 109.739 348.528 109.392 348.528 108.976ZM353.625 109.944L353.361 110.736C353.126 110.864 352.908 110.955 352.705 111.008C352.502 111.061 352.281 111.088 352.041 111.088C351.406 111.088 350.902 110.899 350.529 110.52C350.156 110.141 349.969 109.635 349.969 109C349.969 108.413 350.156 107.915 350.529 107.504C350.902 107.093 351.366 106.888 351.921 106.888C352.476 106.888 352.918 107.083 353.249 107.472C353.58 107.856 353.745 108.352 353.745 108.96C353.745 109.013 353.742 109.072 353.737 109.136C353.732 109.2 353.726 109.248 353.721 109.28H350.713C350.766 109.643 350.916 109.925 351.161 110.128C351.412 110.331 351.732 110.432 352.121 110.432C352.356 110.432 352.601 110.389 352.857 110.304C353.118 110.213 353.369 110.091 353.609 109.936L353.625 109.944ZM351.897 107.52C351.572 107.52 351.297 107.635 351.073 107.864C350.854 108.093 350.729 108.387 350.697 108.744H353.017C352.985 108.36 352.87 108.061 352.673 107.848C352.476 107.629 352.217 107.52 351.897 107.52ZM356.982 107.704C356.747 107.704 356.515 107.76 356.286 107.872C356.062 107.984 355.798 108.173 355.494 108.44V111H354.774V107.096L355.494 106.936V107.952C355.824 107.541 356.083 107.269 356.27 107.136C356.462 107.003 356.667 106.936 356.886 106.936C356.934 106.936 356.974 106.939 357.006 106.944C357.043 106.949 357.088 106.957 357.142 106.968L357.198 107.728C357.16 107.717 357.123 107.712 357.086 107.712C357.054 107.707 357.019 107.704 356.982 107.704ZM359.662 108.664C360.19 108.787 360.555 108.941 360.758 109.128C360.966 109.315 361.07 109.571 361.07 109.896C361.07 110.243 360.918 110.528 360.614 110.752C360.315 110.976 359.931 111.088 359.462 111.088C359.179 111.088 358.91 111.048 358.654 110.968C358.398 110.888 358.145 110.765 357.894 110.6L357.742 109.728L357.758 109.72C358.057 109.955 358.358 110.133 358.662 110.256C358.966 110.379 359.259 110.44 359.542 110.44C359.782 110.44 359.979 110.395 360.134 110.304C360.294 110.208 360.374 110.085 360.374 109.936C360.374 109.776 360.299 109.651 360.15 109.56C360.006 109.469 359.718 109.373 359.286 109.272C358.769 109.149 358.409 108.997 358.206 108.816C358.003 108.635 357.902 108.397 357.902 108.104C357.902 107.752 358.046 107.467 358.334 107.248C358.627 107.024 359.003 106.912 359.462 106.912C359.686 106.912 359.91 106.944 360.134 107.008C360.358 107.072 360.571 107.163 360.774 107.28V108.048H360.758C360.507 107.888 360.265 107.768 360.03 107.688C359.801 107.603 359.585 107.56 359.382 107.56C359.142 107.56 358.95 107.603 358.806 107.688C358.667 107.773 358.598 107.885 358.598 108.024C358.598 108.173 358.67 108.293 358.814 108.384C358.958 108.469 359.241 108.563 359.662 108.664ZM363.893 111.112C363.28 111.112 362.776 110.909 362.381 110.504C361.987 110.093 361.789 109.595 361.789 109.008C361.789 108.427 361.992 107.928 362.397 107.512C362.803 107.096 363.307 106.888 363.909 106.888C364.528 106.888 365.032 107.091 365.421 107.496C365.816 107.896 366.013 108.392 366.013 108.984C366.013 109.571 365.811 110.072 365.405 110.488C365.005 110.904 364.501 111.112 363.893 111.112ZM365.277 108.984C365.277 108.568 365.147 108.224 364.885 107.952C364.629 107.675 364.304 107.536 363.909 107.536C363.509 107.536 363.179 107.677 362.917 107.96C362.661 108.237 362.533 108.587 362.533 109.008C362.533 109.424 362.661 109.771 362.917 110.048C363.179 110.325 363.504 110.464 363.893 110.464C364.293 110.464 364.624 110.323 364.885 110.04C365.147 109.757 365.277 109.405 365.277 108.984ZM368.983 107.568C368.775 107.568 368.578 107.624 368.391 107.736C368.21 107.843 367.999 108.027 367.759 108.288V111H367.039V107.096L367.759 106.936V107.752C367.989 107.459 368.215 107.248 368.439 107.12C368.663 106.987 368.911 106.92 369.183 106.92C369.605 106.92 369.943 107.061 370.199 107.344C370.461 107.627 370.591 108.005 370.591 108.48V111H369.871V108.552C369.871 108.243 369.791 108.003 369.631 107.832C369.477 107.656 369.261 107.568 368.983 107.568ZM375.362 111.112C374.749 111.112 374.245 110.909 373.85 110.504C373.455 110.093 373.258 109.595 373.258 109.008C373.258 108.427 373.461 107.928 373.866 107.512C374.271 107.096 374.775 106.888 375.378 106.888C375.997 106.888 376.501 107.091 376.89 107.496C377.285 107.896 377.482 108.392 377.482 108.984C377.482 109.571 377.279 110.072 376.874 110.488C376.474 110.904 375.97 111.112 375.362 111.112ZM376.746 108.984C376.746 108.568 376.615 108.224 376.354 107.952C376.098 107.675 375.773 107.536 375.378 107.536C374.978 107.536 374.647 107.677 374.386 107.96C374.13 108.237 374.002 108.587 374.002 109.008C374.002 109.424 374.13 109.771 374.386 110.048C374.647 110.325 374.973 110.464 375.362 110.464C375.762 110.464 376.093 110.323 376.354 110.04C376.615 109.757 376.746 109.405 376.746 108.984ZM380.716 107.704C380.481 107.704 380.249 107.76 380.02 107.872C379.796 107.984 379.532 108.173 379.228 108.44V111H378.508V107.096L379.228 106.936V107.952C379.559 107.541 379.817 107.269 380.004 107.136C380.196 107.003 380.401 106.936 380.62 106.936C380.668 106.936 380.708 106.939 380.74 106.944C380.777 106.949 380.823 106.957 380.876 106.968L380.932 107.728C380.895 107.717 380.857 107.712 380.82 107.712C380.788 107.707 380.753 107.704 380.716 107.704ZM224.448 123.112C223.835 123.112 223.331 122.909 222.936 122.504C222.541 122.093 222.344 121.595 222.344 121.008C222.344 120.427 222.547 119.928 222.952 119.512C223.357 119.096 223.861 118.888 224.464 118.888C225.083 118.888 225.587 119.091 225.976 119.496C226.371 119.896 226.568 120.392 226.568 120.984C226.568 121.571 226.365 122.072 225.96 122.488C225.56 122.904 225.056 123.112 224.448 123.112ZM225.832 120.984C225.832 120.568 225.701 120.224 225.44 119.952C225.184 119.675 224.859 119.536 224.464 119.536C224.064 119.536 223.733 119.677 223.472 119.96C223.216 120.237 223.088 120.587 223.088 121.008C223.088 121.424 223.216 121.771 223.472 122.048C223.733 122.325 224.059 122.464 224.448 122.464C224.848 122.464 225.179 122.323 225.44 122.04C225.701 121.757 225.832 121.405 225.832 120.984ZM229.802 119.704C229.567 119.704 229.335 119.76 229.106 119.872C228.882 119.984 228.618 120.173 228.314 120.44V123H227.594V119.096L228.314 118.936V119.952C228.645 119.541 228.903 119.269 229.09 119.136C229.282 119.003 229.487 118.936 229.706 118.936C229.754 118.936 229.794 118.939 229.826 118.944C229.863 118.949 229.909 118.957 229.962 118.968L230.018 119.728C229.981 119.717 229.943 119.712 229.906 119.712C229.874 119.707 229.839 119.704 229.802 119.704ZM234.444 119V122.616C234.444 123.224 234.258 123.701 233.884 124.048C233.516 124.395 233.012 124.568 232.372 124.568C232.1 124.568 231.836 124.539 231.58 124.48C231.324 124.421 231.066 124.328 230.804 124.2L230.652 123.392L230.668 123.384C230.988 123.565 231.284 123.696 231.556 123.776C231.834 123.861 232.116 123.904 232.404 123.904C232.799 123.904 233.116 123.787 233.356 123.552C233.596 123.323 233.716 123.011 233.716 122.616V122.256C233.476 122.491 233.242 122.661 233.012 122.768C232.783 122.869 232.538 122.92 232.276 122.92C231.764 122.92 231.34 122.741 231.004 122.384C230.674 122.027 230.508 121.573 230.508 121.024C230.508 120.416 230.719 119.917 231.14 119.528C231.567 119.133 232.09 118.936 232.708 118.936C232.89 118.936 233.068 118.955 233.244 118.992C233.42 119.029 233.61 119.091 233.812 119.176L234.348 119H234.444ZM232.724 119.552C232.303 119.552 231.951 119.688 231.668 119.96C231.391 120.232 231.252 120.573 231.252 120.984C231.252 121.373 231.367 121.688 231.596 121.928C231.826 122.168 232.124 122.288 232.492 122.288C232.695 122.288 232.892 122.248 233.084 122.168C233.282 122.083 233.492 121.947 233.716 121.76V119.776C233.54 119.701 233.372 119.645 233.212 119.608C233.052 119.571 232.89 119.552 232.724 119.552ZM239.053 120.568V122.904L238.333 123.064V122.352C238.035 122.592 237.752 122.771 237.485 122.888C237.224 123.005 236.968 123.064 236.717 123.064C236.365 123.064 236.08 122.968 235.861 122.776C235.643 122.579 235.533 122.317 235.533 121.992C235.533 121.533 235.763 121.195 236.221 120.976C236.68 120.752 237.384 120.635 238.333 120.624V120.608C238.333 120.277 238.253 120.027 238.093 119.856C237.939 119.68 237.712 119.592 237.413 119.592C237.189 119.592 236.957 119.64 236.717 119.736C236.483 119.832 236.24 119.976 235.989 120.168L235.973 120.16L236.125 119.352C236.339 119.208 236.56 119.101 236.789 119.032C237.024 118.963 237.269 118.928 237.525 118.928C238.016 118.928 238.392 119.069 238.653 119.352C238.92 119.635 239.053 120.04 239.053 120.568ZM236.261 121.96C236.261 122.109 236.315 122.229 236.421 122.32C236.528 122.405 236.675 122.448 236.861 122.448C237.048 122.448 237.261 122.403 237.501 122.312C237.741 122.221 238.019 122.08 238.333 121.888V121.088C237.64 121.131 237.12 121.224 236.773 121.368C236.432 121.507 236.261 121.704 236.261 121.96ZM242.28 119.568C242.072 119.568 241.875 119.624 241.688 119.736C241.507 119.843 241.296 120.027 241.056 120.288V123H240.336V119.096L241.056 118.936V119.752C241.286 119.459 241.512 119.248 241.736 119.12C241.96 118.987 242.208 118.92 242.48 118.92C242.902 118.92 243.24 119.061 243.496 119.344C243.758 119.627 243.888 120.005 243.888 120.48V123H243.168V120.552C243.168 120.243 243.088 120.003 242.928 119.832C242.774 119.656 242.558 119.568 242.28 119.568ZM245.564 117.072C245.703 117.072 245.82 117.12 245.916 117.216C246.012 117.312 246.06 117.429 246.06 117.568C246.06 117.707 246.012 117.824 245.916 117.92C245.82 118.016 245.703 118.064 245.564 118.064C245.426 118.064 245.308 118.016 245.212 117.92C245.116 117.824 245.068 117.707 245.068 117.568C245.068 117.429 245.116 117.312 245.212 117.216C245.308 117.12 245.426 117.072 245.564 117.072ZM245.924 123H245.204V119H245.924V123ZM248.081 122.376H250.625L250.401 123H246.897L246.857 122.88L249.369 119.624H247.137V119H250.561L250.593 119.112L248.081 122.376ZM254.858 120.568V122.904L254.138 123.064V122.352C253.839 122.592 253.557 122.771 253.29 122.888C253.029 123.005 252.773 123.064 252.522 123.064C252.17 123.064 251.885 122.968 251.666 122.776C251.447 122.579 251.338 122.317 251.338 121.992C251.338 121.533 251.567 121.195 252.026 120.976C252.485 120.752 253.189 120.635 254.138 120.624V120.608C254.138 120.277 254.058 120.027 253.898 119.856C253.743 119.68 253.517 119.592 253.218 119.592C252.994 119.592 252.762 119.64 252.522 119.736C252.287 119.832 252.045 119.976 251.794 120.168L251.778 120.16L251.93 119.352C252.143 119.208 252.365 119.101 252.594 119.032C252.829 118.963 253.074 118.928 253.33 118.928C253.821 118.928 254.197 119.069 254.458 119.352C254.725 119.635 254.858 120.04 254.858 120.568ZM252.066 121.96C252.066 122.109 252.119 122.229 252.226 122.32C252.333 122.405 252.479 122.448 252.666 122.448C252.853 122.448 253.066 122.403 253.306 122.312C253.546 122.221 253.823 122.08 254.138 121.888V121.088C253.445 121.131 252.925 121.224 252.578 121.368C252.237 121.507 252.066 121.704 252.066 121.96ZM258.709 122.04L258.549 122.808C258.432 122.893 258.293 122.96 258.133 123.008C257.973 123.061 257.808 123.088 257.637 123.088C257.258 123.088 256.96 122.971 256.741 122.736C256.522 122.501 256.413 122.173 256.413 121.752V119.616H255.733V119H256.413V118.104L257.125 117.84V119H258.693V119.616H257.125V121.72C257.125 121.96 257.181 122.141 257.293 122.264C257.405 122.381 257.57 122.44 257.789 122.44C257.938 122.44 258.088 122.408 258.237 122.344C258.386 122.275 258.538 122.171 258.693 122.032L258.709 122.04ZM260.119 117.072C260.258 117.072 260.375 117.12 260.471 117.216C260.567 117.312 260.615 117.429 260.615 117.568C260.615 117.707 260.567 117.824 260.471 117.92C260.375 118.016 260.258 118.064 260.119 118.064C259.98 118.064 259.863 118.016 259.767 117.92C259.671 117.824 259.623 117.707 259.623 117.568C259.623 117.429 259.671 117.312 259.767 117.216C259.863 117.12 259.98 117.072 260.119 117.072ZM260.479 123H259.759V119H260.479V123ZM263.643 123.112C263.03 123.112 262.526 122.909 262.131 122.504C261.737 122.093 261.539 121.595 261.539 121.008C261.539 120.427 261.742 119.928 262.147 119.512C262.553 119.096 263.057 118.888 263.659 118.888C264.278 118.888 264.782 119.091 265.171 119.496C265.566 119.896 265.763 120.392 265.763 120.984C265.763 121.571 265.561 122.072 265.155 122.488C264.755 122.904 264.251 123.112 263.643 123.112ZM265.027 120.984C265.027 120.568 264.897 120.224 264.635 119.952C264.379 119.675 264.054 119.536 263.659 119.536C263.259 119.536 262.929 119.677 262.667 119.96C262.411 120.237 262.283 120.587 262.283 121.008C262.283 121.424 262.411 121.771 262.667 122.048C262.929 122.325 263.254 122.464 263.643 122.464C264.043 122.464 264.374 122.323 264.635 122.04C264.897 121.757 265.027 121.405 265.027 120.984ZM268.733 119.568C268.525 119.568 268.328 119.624 268.141 119.736C267.96 119.843 267.749 120.027 267.509 120.288V123H266.789V119.096L267.509 118.936V119.752C267.739 119.459 267.965 119.248 268.189 119.12C268.413 118.987 268.661 118.92 268.933 118.92C269.355 118.92 269.693 119.061 269.949 119.344C270.211 119.627 270.341 120.005 270.341 120.48V123H269.621V120.552C269.621 120.243 269.541 120.003 269.381 119.832C269.227 119.656 269.011 119.568 268.733 119.568ZM271.058 124.336L270.841 124.152C271.098 123.811 271.266 123.523 271.346 123.288C271.426 123.053 271.465 122.749 271.465 122.376V122.112H272.21C272.21 122.571 272.138 122.952 271.993 123.256C271.85 123.565 271.538 123.925 271.058 124.336ZM278.241 120.568V122.904L277.521 123.064V122.352C277.222 122.592 276.939 122.771 276.673 122.888C276.411 123.005 276.155 123.064 275.905 123.064C275.553 123.064 275.267 122.968 275.049 122.776C274.83 122.579 274.721 122.317 274.721 121.992C274.721 121.533 274.95 121.195 275.409 120.976C275.867 120.752 276.571 120.635 277.521 120.624V120.608C277.521 120.277 277.441 120.027 277.281 119.856C277.126 119.68 276.899 119.592 276.601 119.592C276.377 119.592 276.145 119.64 275.905 119.736C275.67 119.832 275.427 119.976 275.177 120.168L275.161 120.16L275.313 119.352C275.526 119.208 275.747 119.101 275.977 119.032C276.211 118.963 276.457 118.928 276.713 118.928C277.203 118.928 277.579 119.069 277.841 119.352C278.107 119.635 278.241 120.04 278.241 120.568ZM275.449 121.96C275.449 122.109 275.502 122.229 275.609 122.32C275.715 122.405 275.862 122.448 276.049 122.448C276.235 122.448 276.449 122.403 276.689 122.312C276.929 122.221 277.206 122.08 277.521 121.888V121.088C276.827 121.131 276.307 121.224 275.961 121.368C275.619 121.507 275.449 121.704 275.449 121.96ZM282.756 121.808L282.628 122.64C282.409 122.789 282.182 122.904 281.948 122.984C281.713 123.059 281.476 123.096 281.236 123.096C280.633 123.096 280.142 122.901 279.764 122.512C279.385 122.123 279.196 121.621 279.196 121.008C279.196 120.411 279.396 119.912 279.796 119.512C280.201 119.107 280.71 118.904 281.324 118.904C281.59 118.904 281.833 118.944 282.052 119.024C282.27 119.099 282.476 119.219 282.668 119.384V120.272H282.652C282.412 120.027 282.182 119.848 281.964 119.736C281.75 119.624 281.532 119.568 281.308 119.568C280.918 119.568 280.593 119.707 280.332 119.984C280.07 120.261 279.94 120.6 279.94 121C279.94 121.416 280.062 121.76 280.308 122.032C280.558 122.299 280.878 122.432 281.268 122.432C281.502 122.432 281.75 122.376 282.012 122.264C282.273 122.147 282.516 121.992 282.74 121.8L282.756 121.808ZM287.068 121.808L286.94 122.64C286.722 122.789 286.495 122.904 286.26 122.984C286.026 123.059 285.788 123.096 285.548 123.096C284.946 123.096 284.455 122.901 284.076 122.512C283.698 122.123 283.508 121.621 283.508 121.008C283.508 120.411 283.708 119.912 284.108 119.512C284.514 119.107 285.023 118.904 285.636 118.904C285.903 118.904 286.146 118.944 286.364 119.024C286.583 119.099 286.788 119.219 286.98 119.384V120.272H286.964C286.724 120.027 286.495 119.848 286.276 119.736C286.063 119.624 285.844 119.568 285.62 119.568C285.231 119.568 284.906 119.707 284.644 119.984C284.383 120.261 284.252 120.6 284.252 121C284.252 121.416 284.375 121.76 284.62 122.032C284.871 122.299 285.191 122.432 285.58 122.432C285.815 122.432 286.063 122.376 286.324 122.264C286.586 122.147 286.828 121.992 287.052 121.8L287.068 121.808ZM289.917 123.112C289.303 123.112 288.799 122.909 288.405 122.504C288.01 122.093 287.813 121.595 287.813 121.008C287.813 120.427 288.015 119.928 288.421 119.512C288.826 119.096 289.33 118.888 289.933 118.888C290.551 118.888 291.055 119.091 291.445 119.496C291.839 119.896 292.037 120.392 292.037 120.984C292.037 121.571 291.834 122.072 291.429 122.488C291.029 122.904 290.525 123.112 289.917 123.112ZM291.301 120.984C291.301 120.568 291.17 120.224 290.909 119.952C290.653 119.675 290.327 119.536 289.933 119.536C289.533 119.536 289.202 119.677 288.941 119.96C288.685 120.237 288.557 120.587 288.557 121.008C288.557 121.424 288.685 121.771 288.941 122.048C289.202 122.325 289.527 122.464 289.917 122.464C290.317 122.464 290.647 122.323 290.909 122.04C291.17 121.757 291.301 121.405 291.301 120.984ZM294.903 119.568C294.716 119.568 294.537 119.621 294.367 119.728C294.201 119.829 294.007 120.005 293.783 120.256V123H293.063V119.096L293.783 118.936V119.72C293.996 119.437 294.209 119.235 294.423 119.112C294.636 118.984 294.868 118.92 295.119 118.92C295.412 118.92 295.665 118.997 295.879 119.152C296.097 119.307 296.257 119.525 296.359 119.808C296.593 119.493 296.823 119.267 297.047 119.128C297.271 118.989 297.521 118.92 297.799 118.92C298.204 118.92 298.529 119.061 298.775 119.344C299.025 119.627 299.151 120.005 299.151 120.48V123H298.423V120.552C298.423 120.243 298.348 120.003 298.199 119.832C298.049 119.656 297.844 119.568 297.583 119.568C297.396 119.568 297.215 119.621 297.039 119.728C296.868 119.835 296.673 120.013 296.455 120.264C296.46 120.285 296.463 120.312 296.463 120.344C296.463 120.371 296.463 120.416 296.463 120.48V123H295.743V120.552C295.743 120.243 295.668 120.003 295.519 119.832C295.369 119.656 295.164 119.568 294.903 119.568ZM304.358 120.92C304.358 121.533 304.161 122.045 303.766 122.456C303.377 122.861 302.905 123.064 302.35 123.064C302.137 123.064 301.931 123.029 301.734 122.96C301.542 122.891 301.347 122.784 301.15 122.64V124.528H300.43V119.096L301.15 118.936V119.584C301.374 119.349 301.595 119.181 301.814 119.08C302.033 118.973 302.273 118.92 302.534 118.92C303.046 118.92 303.478 119.112 303.83 119.496C304.182 119.875 304.358 120.349 304.358 120.92ZM303.614 120.976C303.614 120.56 303.491 120.221 303.246 119.96C303.006 119.699 302.705 119.568 302.342 119.568C302.134 119.568 301.937 119.608 301.75 119.688C301.563 119.768 301.363 119.896 301.15 120.072V122.08C301.331 122.197 301.507 122.285 301.678 122.344C301.854 122.397 302.038 122.424 302.23 122.424C302.63 122.424 302.961 122.288 303.222 122.016C303.483 121.739 303.614 121.392 303.614 120.976ZM308.647 120.568V122.904L307.927 123.064V122.352C307.628 122.592 307.346 122.771 307.079 122.888C306.818 123.005 306.562 123.064 306.311 123.064C305.959 123.064 305.674 122.968 305.455 122.776C305.236 122.579 305.127 122.317 305.127 121.992C305.127 121.533 305.356 121.195 305.815 120.976C306.274 120.752 306.978 120.635 307.927 120.624V120.608C307.927 120.277 307.847 120.027 307.687 119.856C307.532 119.68 307.306 119.592 307.007 119.592C306.783 119.592 306.551 119.64 306.311 119.736C306.076 119.832 305.834 119.976 305.583 120.168L305.567 120.16L305.719 119.352C305.932 119.208 306.154 119.101 306.383 119.032C306.618 118.963 306.863 118.928 307.119 118.928C307.61 118.928 307.986 119.069 308.247 119.352C308.514 119.635 308.647 120.04 308.647 120.568ZM305.855 121.96C305.855 122.109 305.908 122.229 306.015 122.32C306.122 122.405 306.268 122.448 306.455 122.448C306.642 122.448 306.855 122.403 307.095 122.312C307.335 122.221 307.612 122.08 307.927 121.888V121.088C307.234 121.131 306.714 121.224 306.367 121.368C306.026 121.507 305.855 121.704 305.855 121.96ZM311.874 119.568C311.666 119.568 311.469 119.624 311.282 119.736C311.101 119.843 310.89 120.027 310.65 120.288V123H309.93V119.096L310.65 118.936V119.752C310.879 119.459 311.106 119.248 311.33 119.12C311.554 118.987 311.802 118.92 312.074 118.92C312.495 118.92 312.834 119.061 313.09 119.344C313.351 119.627 313.482 120.005 313.482 120.48V123H312.762V120.552C312.762 120.243 312.682 120.003 312.522 119.832C312.367 119.656 312.151 119.568 311.874 119.568ZM315.158 117.072C315.297 117.072 315.414 117.12 315.51 117.216C315.606 117.312 315.654 117.429 315.654 117.568C315.654 117.707 315.606 117.824 315.51 117.92C315.414 118.016 315.297 118.064 315.158 118.064C315.019 118.064 314.902 118.016 314.806 117.92C314.71 117.824 314.662 117.707 314.662 117.568C314.662 117.429 314.71 117.312 314.806 117.216C314.902 117.12 315.019 117.072 315.158 117.072ZM315.518 123H314.798V119H315.518V123ZM320.234 121.944L319.97 122.736C319.736 122.864 319.517 122.955 319.314 123.008C319.112 123.061 318.89 123.088 318.65 123.088C318.016 123.088 317.512 122.899 317.138 122.52C316.765 122.141 316.578 121.635 316.578 121C316.578 120.413 316.765 119.915 317.138 119.504C317.512 119.093 317.976 118.888 318.53 118.888C319.085 118.888 319.528 119.083 319.858 119.472C320.189 119.856 320.354 120.352 320.354 120.96C320.354 121.013 320.352 121.072 320.346 121.136C320.341 121.2 320.336 121.248 320.33 121.28H317.322C317.376 121.643 317.525 121.925 317.77 122.128C318.021 122.331 318.341 122.432 318.73 122.432C318.965 122.432 319.21 122.389 319.466 122.304C319.728 122.213 319.978 122.091 320.218 121.936L320.234 121.944ZM318.506 119.52C318.181 119.52 317.906 119.635 317.682 119.864C317.464 120.093 317.338 120.387 317.306 120.744H319.626C319.594 120.36 319.48 120.061 319.282 119.848C319.085 119.629 318.826 119.52 318.506 119.52ZM324.991 123H324.263V122.424C324.034 122.653 323.81 122.821 323.591 122.928C323.378 123.029 323.14 123.08 322.879 123.08C322.367 123.08 321.935 122.891 321.583 122.512C321.231 122.128 321.055 121.651 321.055 121.08C321.055 120.467 321.252 119.957 321.647 119.552C322.042 119.141 322.516 118.936 323.071 118.936C323.279 118.936 323.479 118.971 323.671 119.04C323.868 119.104 324.066 119.208 324.263 119.352V117.192L324.991 116.928V123ZM323.191 119.576C322.791 119.576 322.458 119.712 322.191 119.984C321.93 120.256 321.799 120.603 321.799 121.024C321.799 121.435 321.919 121.773 322.159 122.04C322.404 122.301 322.708 122.432 323.071 122.432C323.279 122.432 323.476 122.392 323.663 122.312C323.85 122.232 324.05 122.104 324.263 121.928V119.912C324.076 119.795 323.898 119.709 323.727 119.656C323.556 119.603 323.378 119.576 323.191 119.576ZM330.199 118.92C330.695 118.92 331.111 119.109 331.447 119.488C331.788 119.861 331.959 120.328 331.959 120.888C331.959 121.523 331.748 122.045 331.327 122.456C330.905 122.861 330.383 123.064 329.759 123.064C329.577 123.064 329.399 123.045 329.223 123.008C329.047 122.971 328.865 122.912 328.679 122.832L328.159 123H328.071V117.192L328.791 116.928V119.584C329.025 119.349 329.255 119.181 329.479 119.08C329.703 118.973 329.943 118.92 330.199 118.92ZM331.223 120.936C331.223 120.531 331.105 120.203 330.871 119.952C330.641 119.696 330.345 119.568 329.983 119.568C329.775 119.568 329.577 119.608 329.391 119.688C329.204 119.768 329.004 119.896 328.791 120.072V122.232C328.951 122.296 329.108 122.344 329.263 122.376C329.417 122.408 329.577 122.424 329.743 122.424C330.169 122.424 330.521 122.283 330.799 122C331.081 121.717 331.223 121.363 331.223 120.936ZM336.536 119L334.68 123.448C334.526 123.821 334.331 124.101 334.096 124.288C333.862 124.475 333.59 124.568 333.28 124.568C333.163 124.568 333.048 124.555 332.936 124.528C332.824 124.507 332.715 124.469 332.608 124.416L332.464 123.68L332.48 123.672C332.608 123.747 332.726 123.8 332.832 123.832C332.939 123.869 333.051 123.888 333.168 123.888C333.36 123.888 333.523 123.832 333.656 123.72C333.795 123.613 333.915 123.443 334.016 123.208L334.2 122.776L332.504 119H333.304L334.568 121.952L335.752 119H336.536ZM342.366 120.568V122.904L341.646 123.064V122.352C341.347 122.592 341.064 122.771 340.798 122.888C340.536 123.005 340.28 123.064 340.03 123.064C339.678 123.064 339.392 122.968 339.174 122.776C338.955 122.579 338.846 122.317 338.846 121.992C338.846 121.533 339.075 121.195 339.534 120.976C339.992 120.752 340.696 120.635 341.646 120.624V120.608C341.646 120.277 341.566 120.027 341.406 119.856C341.251 119.68 341.024 119.592 340.726 119.592C340.502 119.592 340.27 119.64 340.03 119.736C339.795 119.832 339.552 119.976 339.302 120.168L339.286 120.16L339.438 119.352C339.651 119.208 339.872 119.101 340.102 119.032C340.336 118.963 340.582 118.928 340.838 118.928C341.328 118.928 341.704 119.069 341.966 119.352C342.232 119.635 342.366 120.04 342.366 120.568ZM339.574 121.96C339.574 122.109 339.627 122.229 339.734 122.32C339.84 122.405 339.987 122.448 340.174 122.448C340.36 122.448 340.574 122.403 340.814 122.312C341.054 122.221 341.331 122.08 341.646 121.888V121.088C340.952 121.131 340.432 121.224 340.086 121.368C339.744 121.507 339.574 121.704 339.574 121.96ZM345.593 119.568C345.385 119.568 345.187 119.624 345.001 119.736C344.819 119.843 344.609 120.027 344.369 120.288V123H343.649V119.096L344.369 118.936V119.752C344.598 119.459 344.825 119.248 345.049 119.12C345.273 118.987 345.521 118.92 345.793 118.92C346.214 118.92 346.553 119.061 346.809 119.344C347.07 119.627 347.201 120.005 347.201 120.48V123H346.481V120.552C346.481 120.243 346.401 120.003 346.241 119.832C346.086 119.656 345.87 119.568 345.593 119.568ZM350.603 117.072C350.742 117.072 350.859 117.12 350.955 117.216C351.051 117.312 351.099 117.429 351.099 117.568C351.099 117.707 351.051 117.824 350.955 117.92C350.859 118.016 350.742 118.064 350.603 118.064C350.465 118.064 350.347 118.016 350.251 117.92C350.155 117.824 350.107 117.707 350.107 117.568C350.107 117.429 350.155 117.312 350.251 117.216C350.347 117.12 350.465 117.072 350.603 117.072ZM350.963 123H350.243V119H350.963V123ZM354.2 119.568C354.013 119.568 353.834 119.621 353.664 119.728C353.498 119.829 353.304 120.005 353.08 120.256V123H352.36V119.096L353.08 118.936V119.72C353.293 119.437 353.506 119.235 353.72 119.112C353.933 118.984 354.165 118.92 354.416 118.92C354.709 118.92 354.962 118.997 355.176 119.152C355.394 119.307 355.554 119.525 355.656 119.808C355.89 119.493 356.12 119.267 356.344 119.128C356.568 118.989 356.818 118.92 357.096 118.92C357.501 118.92 357.826 119.061 358.072 119.344C358.322 119.627 358.448 120.005 358.448 120.48V123H357.72V120.552C357.72 120.243 357.645 120.003 357.496 119.832C357.346 119.656 357.141 119.568 356.88 119.568C356.693 119.568 356.512 119.621 356.336 119.728C356.165 119.835 355.97 120.013 355.752 120.264C355.757 120.285 355.76 120.312 355.76 120.344C355.76 120.371 355.76 120.416 355.76 120.48V123H355.04V120.552C355.04 120.243 354.965 120.003 354.816 119.832C354.666 119.656 354.461 119.568 354.2 119.568ZM362.983 120.568V122.904L362.263 123.064V122.352C361.964 122.592 361.682 122.771 361.415 122.888C361.154 123.005 360.898 123.064 360.647 123.064C360.295 123.064 360.01 122.968 359.791 122.776C359.572 122.579 359.463 122.317 359.463 121.992C359.463 121.533 359.692 121.195 360.151 120.976C360.61 120.752 361.314 120.635 362.263 120.624V120.608C362.263 120.277 362.183 120.027 362.023 119.856C361.868 119.68 361.642 119.592 361.343 119.592C361.119 119.592 360.887 119.64 360.647 119.736C360.412 119.832 360.17 119.976 359.919 120.168L359.903 120.16L360.055 119.352C360.268 119.208 360.49 119.101 360.719 119.032C360.954 118.963 361.199 118.928 361.455 118.928C361.946 118.928 362.322 119.069 362.583 119.352C362.85 119.635 362.983 120.04 362.983 120.568ZM360.191 121.96C360.191 122.109 360.244 122.229 360.351 122.32C360.458 122.405 360.604 122.448 360.791 122.448C360.978 122.448 361.191 122.403 361.431 122.312C361.671 122.221 361.948 122.08 362.263 121.888V121.088C361.57 121.131 361.05 121.224 360.703 121.368C360.362 121.507 360.191 121.704 360.191 121.96ZM367.874 119V122.616C367.874 123.224 367.687 123.701 367.314 124.048C366.946 124.395 366.442 124.568 365.802 124.568C365.53 124.568 365.266 124.539 365.01 124.48C364.754 124.421 364.495 124.328 364.234 124.2L364.082 123.392L364.098 123.384C364.418 123.565 364.714 123.696 364.986 123.776C365.263 123.861 365.546 123.904 365.834 123.904C366.229 123.904 366.546 123.787 366.786 123.552C367.026 123.323 367.146 123.011 367.146 122.616V122.256C366.906 122.491 366.671 122.661 366.442 122.768C366.213 122.869 365.967 122.92 365.706 122.92C365.194 122.92 364.77 122.741 364.434 122.384C364.103 122.027 363.938 121.573 363.938 121.024C363.938 120.416 364.149 119.917 364.57 119.528C364.997 119.133 365.519 118.936 366.138 118.936C366.319 118.936 366.498 118.955 366.674 118.992C366.85 119.029 367.039 119.091 367.242 119.176L367.778 119H367.874ZM366.154 119.552C365.733 119.552 365.381 119.688 365.098 119.96C364.821 120.232 364.682 120.573 364.682 120.984C364.682 121.373 364.797 121.688 365.026 121.928C365.255 122.168 365.554 122.288 365.922 122.288C366.125 122.288 366.322 122.248 366.514 122.168C366.711 122.083 366.922 121.947 367.146 121.76V119.776C366.97 119.701 366.802 119.645 366.642 119.608C366.482 119.571 366.319 119.552 366.154 119.552ZM372.547 121.944L372.283 122.736C372.048 122.864 371.83 122.955 371.627 123.008C371.424 123.061 371.203 123.088 370.963 123.088C370.328 123.088 369.824 122.899 369.451 122.52C369.078 122.141 368.891 121.635 368.891 121C368.891 120.413 369.078 119.915 369.451 119.504C369.824 119.093 370.288 118.888 370.843 118.888C371.398 118.888 371.84 119.083 372.171 119.472C372.502 119.856 372.667 120.352 372.667 120.96C372.667 121.013 372.664 121.072 372.659 121.136C372.654 121.2 372.648 121.248 372.643 121.28H369.635C369.688 121.643 369.838 121.925 370.083 122.128C370.334 122.331 370.654 122.432 371.043 122.432C371.278 122.432 371.523 122.389 371.779 122.304C372.04 122.213 372.291 122.091 372.531 121.936L372.547 121.944ZM370.819 119.52C370.494 119.52 370.219 119.635 369.995 119.864C369.776 120.093 369.651 120.387 369.619 120.744H371.939C371.907 120.36 371.792 120.061 371.595 119.848C371.398 119.629 371.139 119.52 370.819 119.52ZM378.678 120.568V122.904L377.958 123.064V122.352C377.66 122.592 377.377 122.771 377.11 122.888C376.849 123.005 376.593 123.064 376.342 123.064C375.99 123.064 375.705 122.968 375.486 122.776C375.268 122.579 375.158 122.317 375.158 121.992C375.158 121.533 375.388 121.195 375.846 120.976C376.305 120.752 377.009 120.635 377.958 120.624V120.608C377.958 120.277 377.878 120.027 377.718 119.856C377.564 119.68 377.337 119.592 377.038 119.592C376.814 119.592 376.582 119.64 376.342 119.736C376.108 119.832 375.865 119.976 375.614 120.168L375.598 120.16L375.75 119.352C375.964 119.208 376.185 119.101 376.414 119.032C376.649 118.963 376.894 118.928 377.15 118.928C377.641 118.928 378.017 119.069 378.278 119.352C378.545 119.635 378.678 120.04 378.678 120.568ZM375.886 121.96C375.886 122.109 375.94 122.229 376.046 122.32C376.153 122.405 376.3 122.448 376.486 122.448C376.673 122.448 376.886 122.403 377.126 122.312C377.366 122.221 377.644 122.08 377.958 121.888V121.088C377.265 121.131 376.745 121.224 376.398 121.368C376.057 121.507 375.886 121.704 375.886 121.96ZM381.905 119.568C381.697 119.568 381.5 119.624 381.313 119.736C381.132 119.843 380.921 120.027 380.681 120.288V123H379.961V119.096L380.681 118.936V119.752C380.911 119.459 381.137 119.248 381.361 119.12C381.585 118.987 381.833 118.92 382.105 118.92C382.527 118.92 382.865 119.061 383.121 119.344C383.383 119.627 383.513 120.005 383.513 120.48V123H382.793V120.552C382.793 120.243 382.713 120.003 382.553 119.832C382.399 119.656 382.183 119.568 381.905 119.568ZM388.397 123H387.669V122.424C387.44 122.653 387.216 122.821 386.997 122.928C386.784 123.029 386.547 123.08 386.285 123.08C385.773 123.08 385.341 122.891 384.989 122.512C384.637 122.128 384.461 121.651 384.461 121.08C384.461 120.467 384.659 119.957 385.053 119.552C385.448 119.141 385.923 118.936 386.477 118.936C386.685 118.936 386.885 118.971 387.077 119.04C387.275 119.104 387.472 119.208 387.669 119.352V117.192L388.397 116.928V123ZM386.597 119.576C386.197 119.576 385.864 119.712 385.597 119.984C385.336 120.256 385.205 120.603 385.205 121.024C385.205 121.435 385.325 121.773 385.565 122.04C385.811 122.301 386.115 122.432 386.477 122.432C386.685 122.432 386.883 122.392 387.069 122.312C387.256 122.232 387.456 122.104 387.669 121.928V119.912C387.483 119.795 387.304 119.709 387.133 119.656C386.963 119.603 386.784 119.576 386.597 119.576ZM224.808 130.92C225.304 130.92 225.72 131.109 226.056 131.488C226.397 131.861 226.568 132.328 226.568 132.888C226.568 133.523 226.357 134.045 225.936 134.456C225.515 134.861 224.992 135.064 224.368 135.064C224.187 135.064 224.008 135.045 223.832 135.008C223.656 134.971 223.475 134.912 223.288 134.832L222.768 135H222.68V129.192L223.4 128.928V131.584C223.635 131.349 223.864 131.181 224.088 131.08C224.312 130.973 224.552 130.92 224.808 130.92ZM225.832 132.936C225.832 132.531 225.715 132.203 225.48 131.952C225.251 131.696 224.955 131.568 224.592 131.568C224.384 131.568 224.187 131.608 224 131.688C223.813 131.768 223.613 131.896 223.4 132.072V134.232C223.56 134.296 223.717 134.344 223.872 134.376C224.027 134.408 224.187 134.424 224.352 134.424C224.779 134.424 225.131 134.283 225.408 134C225.691 133.717 225.832 133.363 225.832 132.936ZM230.866 132.568V134.904L230.146 135.064V134.352C229.847 134.592 229.564 134.771 229.298 134.888C229.036 135.005 228.78 135.064 228.53 135.064C228.178 135.064 227.892 134.968 227.674 134.776C227.455 134.579 227.346 134.317 227.346 133.992C227.346 133.533 227.575 133.195 228.034 132.976C228.492 132.752 229.196 132.635 230.146 132.624V132.608C230.146 132.277 230.066 132.027 229.906 131.856C229.751 131.68 229.524 131.592 229.226 131.592C229.002 131.592 228.77 131.64 228.53 131.736C228.295 131.832 228.052 131.976 227.802 132.168L227.786 132.16L227.938 131.352C228.151 131.208 228.372 131.101 228.602 131.032C228.836 130.963 229.082 130.928 229.338 130.928C229.828 130.928 230.204 131.069 230.466 131.352C230.732 131.635 230.866 132.04 230.866 132.568ZM228.074 133.96C228.074 134.109 228.127 134.229 228.234 134.32C228.34 134.405 228.487 134.448 228.674 134.448C228.86 134.448 229.074 134.403 229.314 134.312C229.554 134.221 229.831 134.08 230.146 133.888V133.088C229.452 133.131 228.932 133.224 228.586 133.368C228.244 133.507 228.074 133.704 228.074 133.96ZM234.093 131.568C233.885 131.568 233.687 131.624 233.501 131.736C233.319 131.843 233.109 132.027 232.869 132.288V135H232.149V131.096L232.869 130.936V131.752C233.098 131.459 233.325 131.248 233.549 131.12C233.773 130.987 234.021 130.92 234.293 130.92C234.714 130.92 235.053 131.061 235.309 131.344C235.57 131.627 235.701 132.005 235.701 132.48V135H234.981V132.552C234.981 132.243 234.901 132.003 234.741 131.832C234.586 131.656 234.37 131.568 234.093 131.568ZM238.921 131.568C238.713 131.568 238.516 131.624 238.329 131.736C238.148 131.843 237.937 132.027 237.697 132.288V135H236.977V131.096L237.697 130.936V131.752C237.926 131.459 238.153 131.248 238.377 131.12C238.601 130.987 238.849 130.92 239.121 130.92C239.542 130.92 239.881 131.061 240.137 131.344C240.398 131.627 240.529 132.005 240.529 132.48V135H239.809V132.552C239.809 132.243 239.729 132.003 239.569 131.832C239.414 131.656 239.198 131.568 238.921 131.568ZM245.125 133.944L244.861 134.736C244.626 134.864 244.408 134.955 244.205 135.008C244.002 135.061 243.781 135.088 243.541 135.088C242.906 135.088 242.402 134.899 242.029 134.52C241.656 134.141 241.469 133.635 241.469 133C241.469 132.413 241.656 131.915 242.029 131.504C242.402 131.093 242.866 130.888 243.421 130.888C243.976 130.888 244.418 131.083 244.749 131.472C245.08 131.856 245.245 132.352 245.245 132.96C245.245 133.013 245.242 133.072 245.237 133.136C245.232 133.2 245.226 133.248 245.221 133.28H242.213C242.266 133.643 242.416 133.925 242.661 134.128C242.912 134.331 243.232 134.432 243.621 134.432C243.856 134.432 244.101 134.389 244.357 134.304C244.618 134.213 244.869 134.091 245.109 133.936L245.125 133.944ZM243.397 131.52C243.072 131.52 242.797 131.635 242.573 131.864C242.354 132.093 242.229 132.387 242.197 132.744H244.517C244.485 132.36 244.37 132.061 244.173 131.848C243.976 131.629 243.717 131.52 243.397 131.52ZM248.482 131.704C248.247 131.704 248.015 131.76 247.786 131.872C247.562 131.984 247.298 132.173 246.994 132.44V135H246.274V131.096L246.994 130.936V131.952C247.324 131.541 247.583 131.269 247.77 131.136C247.962 131.003 248.167 130.936 248.386 130.936C248.434 130.936 248.474 130.939 248.506 130.944C248.543 130.949 248.588 130.957 248.642 130.968L248.698 131.728C248.66 131.717 248.623 131.712 248.586 131.712C248.554 131.707 248.519 131.704 248.482 131.704ZM249.348 133.144V132.464H251.436V133.144H249.348ZM253.385 135H252.665V129.192L253.385 128.928V135ZM255.182 129.072C255.32 129.072 255.438 129.12 255.534 129.216C255.63 129.312 255.678 129.429 255.678 129.568C255.678 129.707 255.63 129.824 255.534 129.92C255.438 130.016 255.32 130.064 255.182 130.064C255.043 130.064 254.926 130.016 254.83 129.92C254.734 129.824 254.686 129.707 254.686 129.568C254.686 129.429 254.734 129.312 254.83 129.216C254.926 129.12 255.043 129.072 255.182 129.072ZM255.542 135H254.822V131H255.542V135ZM260.602 135H259.65L257.89 133.24H257.658V135H256.938V129.192L257.658 128.928V132.696H257.882L259.554 131H260.466V131.016L258.506 132.944L260.602 134.984V135ZM264.547 133.944L264.283 134.736C264.048 134.864 263.83 134.955 263.627 135.008C263.424 135.061 263.203 135.088 262.963 135.088C262.328 135.088 261.824 134.899 261.451 134.52C261.078 134.141 260.891 133.635 260.891 133C260.891 132.413 261.078 131.915 261.451 131.504C261.824 131.093 262.288 130.888 262.843 130.888C263.398 130.888 263.84 131.083 264.171 131.472C264.502 131.856 264.667 132.352 264.667 132.96C264.667 133.013 264.664 133.072 264.659 133.136C264.654 133.2 264.648 133.248 264.643 133.28H261.635C261.688 133.643 261.838 133.925 262.083 134.128C262.334 134.331 262.654 134.432 263.043 134.432C263.278 134.432 263.523 134.389 263.779 134.304C264.04 134.213 264.291 134.091 264.531 133.936L264.547 133.944ZM262.819 131.52C262.494 131.52 262.219 131.635 261.995 131.864C261.776 132.093 261.651 132.387 261.619 132.744H263.939C263.907 132.36 263.792 132.061 263.595 131.848C263.398 131.629 263.139 131.52 262.819 131.52ZM269.55 130.92C270.046 130.92 270.462 131.109 270.798 131.488C271.14 131.861 271.31 132.328 271.31 132.888C271.31 133.523 271.1 134.045 270.678 134.456C270.257 134.861 269.734 135.064 269.11 135.064C268.929 135.064 268.75 135.045 268.574 135.008C268.398 134.971 268.217 134.912 268.03 134.832L267.51 135H267.422V129.192L268.142 128.928V131.584C268.377 131.349 268.606 131.181 268.83 131.08C269.054 130.973 269.294 130.92 269.55 130.92ZM270.574 132.936C270.574 132.531 270.457 132.203 270.222 131.952C269.993 131.696 269.697 131.568 269.334 131.568C269.126 131.568 268.929 131.608 268.742 131.688C268.556 131.768 268.356 131.896 268.142 132.072V134.232C268.302 134.296 268.46 134.344 268.614 134.376C268.769 134.408 268.929 134.424 269.094 134.424C269.521 134.424 269.873 134.283 270.15 134C270.433 133.717 270.574 133.363 270.574 132.936ZM275.608 132.568V134.904L274.888 135.064V134.352C274.589 134.592 274.307 134.771 274.04 134.888C273.779 135.005 273.523 135.064 273.272 135.064C272.92 135.064 272.635 134.968 272.416 134.776C272.197 134.579 272.088 134.317 272.088 133.992C272.088 133.533 272.317 133.195 272.776 132.976C273.235 132.752 273.939 132.635 274.888 132.624V132.608C274.888 132.277 274.808 132.027 274.648 131.856C274.493 131.68 274.267 131.592 273.968 131.592C273.744 131.592 273.512 131.64 273.272 131.736C273.037 131.832 272.795 131.976 272.544 132.168L272.528 132.16L272.68 131.352C272.893 131.208 273.115 131.101 273.344 131.032C273.579 130.963 273.824 130.928 274.08 130.928C274.571 130.928 274.947 131.069 275.208 131.352C275.475 131.635 275.608 132.04 275.608 132.568ZM272.816 133.96C272.816 134.109 272.869 134.229 272.976 134.32C273.083 134.405 273.229 134.448 273.416 134.448C273.603 134.448 273.816 134.403 274.056 134.312C274.296 134.221 274.573 134.08 274.888 133.888V133.088C274.195 133.131 273.675 133.224 273.328 133.368C272.987 133.507 272.816 133.704 272.816 133.96ZM280.123 133.808L279.995 134.64C279.776 134.789 279.55 134.904 279.315 134.984C279.08 135.059 278.843 135.096 278.603 135.096C278 135.096 277.51 134.901 277.131 134.512C276.752 134.123 276.563 133.621 276.563 133.008C276.563 132.411 276.763 131.912 277.163 131.512C277.568 131.107 278.078 130.904 278.691 130.904C278.958 130.904 279.2 130.944 279.419 131.024C279.638 131.099 279.843 131.219 280.035 131.384V132.272H280.019C279.779 132.027 279.55 131.848 279.331 131.736C279.118 131.624 278.899 131.568 278.675 131.568C278.286 131.568 277.96 131.707 277.699 131.984C277.438 132.261 277.307 132.6 277.307 133C277.307 133.416 277.43 133.76 277.675 134.032C277.926 134.299 278.246 134.432 278.635 134.432C278.87 134.432 279.118 134.376 279.379 134.264C279.64 134.147 279.883 133.992 280.107 133.8L280.123 133.808ZM284.867 135H283.915L282.155 133.24H281.923V135H281.203V129.192L281.923 128.928V132.696H282.147L283.819 131H284.731V131.016L282.771 132.944L284.867 134.984V135ZM289.218 131V134.616C289.218 135.224 289.031 135.701 288.658 136.048C288.29 136.395 287.786 136.568 287.146 136.568C286.874 136.568 286.61 136.539 286.354 136.48C286.098 136.421 285.839 136.328 285.578 136.2L285.426 135.392L285.442 135.384C285.762 135.565 286.058 135.696 286.33 135.776C286.607 135.861 286.89 135.904 287.178 135.904C287.572 135.904 287.89 135.787 288.13 135.552C288.37 135.323 288.49 135.011 288.49 134.616V134.256C288.25 134.491 288.015 134.661 287.786 134.768C287.556 134.869 287.311 134.92 287.05 134.92C286.538 134.92 286.114 134.741 285.778 134.384C285.447 134.027 285.282 133.573 285.282 133.024C285.282 132.416 285.492 131.917 285.914 131.528C286.34 131.133 286.863 130.936 287.482 130.936C287.663 130.936 287.842 130.955 288.018 130.992C288.194 131.029 288.383 131.091 288.586 131.176L289.122 131H289.218ZM287.498 131.552C287.076 131.552 286.724 131.688 286.442 131.96C286.164 132.232 286.026 132.573 286.026 132.984C286.026 133.373 286.14 133.688 286.37 133.928C286.599 134.168 286.898 134.288 287.266 134.288C287.468 134.288 287.666 134.248 287.858 134.168C288.055 134.083 288.266 133.947 288.49 133.76V131.776C288.314 131.701 288.146 131.645 287.986 131.608C287.826 131.571 287.663 131.552 287.498 131.552ZM292.779 131.704C292.544 131.704 292.312 131.76 292.083 131.872C291.859 131.984 291.595 132.173 291.291 132.44V135H290.571V131.096L291.291 130.936V131.952C291.621 131.541 291.88 131.269 292.067 131.136C292.259 131.003 292.464 130.936 292.683 130.936C292.731 130.936 292.771 130.939 292.803 130.944C292.84 130.949 292.885 130.957 292.939 130.968L292.995 131.728C292.957 131.717 292.92 131.712 292.883 131.712C292.851 131.707 292.816 131.704 292.779 131.704ZM295.659 135.112C295.046 135.112 294.542 134.909 294.147 134.504C293.752 134.093 293.555 133.595 293.555 133.008C293.555 132.427 293.758 131.928 294.163 131.512C294.568 131.096 295.072 130.888 295.675 130.888C296.294 130.888 296.798 131.091 297.187 131.496C297.582 131.896 297.779 132.392 297.779 132.984C297.779 133.571 297.576 134.072 297.171 134.488C296.771 134.904 296.267 135.112 295.659 135.112ZM297.043 132.984C297.043 132.568 296.912 132.224 296.651 131.952C296.395 131.675 296.07 131.536 295.675 131.536C295.275 131.536 294.944 131.677 294.683 131.96C294.427 132.237 294.299 132.587 294.299 133.008C294.299 133.424 294.427 133.771 294.683 134.048C294.944 134.325 295.27 134.464 295.659 134.464C296.059 134.464 296.39 134.323 296.651 134.04C296.912 133.757 297.043 133.405 297.043 132.984ZM302.285 135H301.557V134.248C301.328 134.541 301.101 134.755 300.877 134.888C300.653 135.016 300.405 135.08 300.133 135.08C299.712 135.08 299.37 134.939 299.109 134.656C298.853 134.373 298.725 133.995 298.725 133.52V131H299.453V133.448C299.453 133.757 299.53 134 299.685 134.176C299.845 134.347 300.064 134.432 300.341 134.432C300.544 134.432 300.736 134.379 300.917 134.272C301.104 134.16 301.317 133.973 301.557 133.712V131H302.285V135ZM305.577 131.568C305.369 131.568 305.172 131.624 304.985 131.736C304.804 131.843 304.593 132.027 304.353 132.288V135H303.633V131.096L304.353 130.936V131.752C304.582 131.459 304.809 131.248 305.033 131.12C305.257 130.987 305.505 130.92 305.777 130.92C306.198 130.92 306.537 131.061 306.793 131.344C307.054 131.627 307.185 132.005 307.185 132.48V135H306.465V132.552C306.465 132.243 306.385 132.003 306.225 131.832C306.07 131.656 305.854 131.568 305.577 131.568ZM312.069 135H311.341V134.424C311.112 134.653 310.888 134.821 310.669 134.928C310.456 135.029 310.219 135.08 309.957 135.08C309.445 135.08 309.013 134.891 308.661 134.512C308.309 134.128 308.133 133.651 308.133 133.08C308.133 132.467 308.331 131.957 308.725 131.552C309.12 131.141 309.595 130.936 310.149 130.936C310.357 130.936 310.557 130.971 310.749 131.04C310.947 131.104 311.144 131.208 311.341 131.352V129.192L312.069 128.928V135ZM310.269 131.576C309.869 131.576 309.536 131.712 309.269 131.984C309.008 132.256 308.877 132.603 308.877 133.024C308.877 133.435 308.997 133.773 309.237 134.04C309.483 134.301 309.787 134.432 310.149 134.432C310.357 134.432 310.555 134.392 310.741 134.312C310.928 134.232 311.128 134.104 311.341 133.928V131.912C311.155 131.795 310.976 131.709 310.805 131.656C310.635 131.603 310.456 131.576 310.269 131.576ZM313.566 135.072C313.417 135.072 313.289 135.019 313.182 134.912C313.076 134.805 313.022 134.677 313.022 134.528C313.022 134.379 313.076 134.251 313.182 134.144C313.289 134.037 313.417 133.984 313.566 133.984C313.716 133.984 313.841 134.037 313.942 134.144C314.049 134.251 314.102 134.379 314.102 134.528C314.102 134.677 314.049 134.805 313.942 134.912C313.841 135.019 313.716 135.072 313.566 135.072Z" fill="white"/>
<rect x="122" y="79" width="70" height="77.1963" fill="#EEEEEE"/>
<path d="M138.636 120.115L122 148.225V156.196H192V129.555L172.231 107.948L155.38 135.429L138.636 120.115Z" fill="#8E9597"/>
<circle cx="143.589" cy="98.6263" r="3.27103" fill="#8E9597"/>
<rect x="123" y="80" width="68" height="75.1963" stroke="white" stroke-width="2"/>
<path d="M222.512 150.136V149.48H228.944V150.136H222.512ZM234.417 146.4V147.096H232.217V152H231.449V147.096H229.257V146.4H234.417ZM237.319 148.568C237.111 148.568 236.914 148.624 236.727 148.736C236.546 148.843 236.335 149.027 236.095 149.288V152H235.375V146.192L236.095 145.928V148.752C236.325 148.459 236.551 148.248 236.775 148.12C236.999 147.987 237.247 147.92 237.519 147.92C237.941 147.92 238.279 148.061 238.535 148.344C238.797 148.627 238.927 149.005 238.927 149.48V152H238.207V149.552C238.207 149.243 238.127 149.003 237.967 148.832C237.813 148.656 237.597 148.568 237.319 148.568ZM243.523 150.944L243.259 151.736C243.025 151.864 242.806 151.955 242.603 152.008C242.401 152.061 242.179 152.088 241.939 152.088C241.305 152.088 240.801 151.899 240.427 151.52C240.054 151.141 239.867 150.635 239.867 150C239.867 149.413 240.054 148.915 240.427 148.504C240.801 148.093 241.265 147.888 241.819 147.888C242.374 147.888 242.817 148.083 243.147 148.472C243.478 148.856 243.643 149.352 243.643 149.96C243.643 150.013 243.641 150.072 243.635 150.136C243.63 150.2 243.625 150.248 243.619 150.28H240.611C240.665 150.643 240.814 150.925 241.059 151.128C241.31 151.331 241.63 151.432 242.019 151.432C242.254 151.432 242.499 151.389 242.755 151.304C243.017 151.213 243.267 151.091 243.507 150.936L243.523 150.944ZM241.795 148.52C241.47 148.52 241.195 148.635 240.971 148.864C240.753 149.093 240.627 149.387 240.595 149.744H242.915C242.883 149.36 242.769 149.061 242.571 148.848C242.374 148.629 242.115 148.52 241.795 148.52ZM248.367 152H246.519V146.4H248.367C249.337 146.4 250.108 146.651 250.679 147.152C251.249 147.653 251.535 148.331 251.535 149.184C251.535 150.021 251.239 150.701 250.647 151.224C250.06 151.741 249.3 152 248.367 152ZM250.743 149.2C250.743 148.555 250.527 148.045 250.095 147.672C249.663 147.293 249.081 147.104 248.351 147.104H247.295V151.296H248.383C249.076 151.296 249.641 151.104 250.079 150.72C250.521 150.331 250.743 149.824 250.743 149.2ZM255.984 150.944L255.72 151.736C255.486 151.864 255.267 151.955 255.064 152.008C254.862 152.061 254.64 152.088 254.4 152.088C253.766 152.088 253.262 151.899 252.888 151.52C252.515 151.141 252.328 150.635 252.328 150C252.328 149.413 252.515 148.915 252.888 148.504C253.262 148.093 253.726 147.888 254.28 147.888C254.835 147.888 255.278 148.083 255.608 148.472C255.939 148.856 256.104 149.352 256.104 149.96C256.104 150.013 256.102 150.072 256.096 150.136C256.091 150.2 256.086 150.248 256.08 150.28H253.072C253.126 150.643 253.275 150.925 253.52 151.128C253.771 151.331 254.091 151.432 254.48 151.432C254.715 151.432 254.96 151.389 255.216 151.304C255.478 151.213 255.728 151.091 255.968 150.936L255.984 150.944ZM254.256 148.52C253.931 148.52 253.656 148.635 253.432 148.864C253.214 149.093 253.088 149.387 253.056 149.744H255.376C255.344 149.36 255.23 149.061 255.032 148.848C254.835 148.629 254.576 148.52 254.256 148.52ZM260.389 149.568V151.904L259.669 152.064V151.352C259.37 151.592 259.088 151.771 258.821 151.888C258.56 152.005 258.304 152.064 258.053 152.064C257.701 152.064 257.416 151.968 257.197 151.776C256.978 151.579 256.869 151.317 256.869 150.992C256.869 150.533 257.098 150.195 257.557 149.976C258.016 149.752 258.72 149.635 259.669 149.624V149.608C259.669 149.277 259.589 149.027 259.429 148.856C259.274 148.68 259.048 148.592 258.749 148.592C258.525 148.592 258.293 148.64 258.053 148.736C257.818 148.832 257.576 148.976 257.325 149.168L257.309 149.16L257.461 148.352C257.674 148.208 257.896 148.101 258.125 148.032C258.36 147.963 258.605 147.928 258.861 147.928C259.352 147.928 259.728 148.069 259.989 148.352C260.256 148.635 260.389 149.04 260.389 149.568ZM257.597 150.96C257.597 151.109 257.65 151.229 257.757 151.32C257.864 151.405 258.01 151.448 258.197 151.448C258.384 151.448 258.597 151.403 258.837 151.312C259.077 151.221 259.354 151.08 259.669 150.888V150.088C258.976 150.131 258.456 150.224 258.109 150.368C257.768 150.507 257.597 150.704 257.597 150.96ZM263.616 148.568C263.408 148.568 263.211 148.624 263.024 148.736C262.843 148.843 262.632 149.027 262.392 149.288V152H261.672V148.096L262.392 147.936V148.752C262.622 148.459 262.848 148.248 263.072 148.12C263.296 147.987 263.544 147.92 263.816 147.92C264.238 147.92 264.576 148.061 264.832 148.344C265.094 148.627 265.224 149.005 265.224 149.48V152H264.504V149.552C264.504 149.243 264.424 149.003 264.264 148.832C264.11 148.656 263.894 148.568 263.616 148.568ZM270.907 152.112C270.08 152.112 269.387 151.832 268.827 151.272C268.267 150.712 267.987 150.024 267.987 149.208C267.987 148.387 268.27 147.696 268.835 147.136C269.4 146.571 270.096 146.288 270.923 146.288C271.744 146.288 272.435 146.568 272.995 147.128C273.555 147.688 273.835 148.376 273.835 149.192C273.835 150.013 273.552 150.707 272.987 151.272C272.422 151.832 271.728 152.112 270.907 152.112ZM270.891 147.008C270.304 147.008 269.806 147.221 269.395 147.648C268.984 148.069 268.779 148.584 268.779 149.192C268.779 149.811 268.984 150.333 269.395 150.76C269.806 151.181 270.31 151.392 270.907 151.392C271.494 151.392 271.995 151.181 272.411 150.76C272.832 150.333 273.043 149.816 273.043 149.208C273.043 148.595 272.832 148.075 272.411 147.648C271.995 147.221 271.488 147.008 270.891 147.008ZM277.345 148V148.616H276.025V152H275.305V148.616H274.593V148H275.305V147.368C275.305 146.925 275.425 146.579 275.665 146.328C275.905 146.072 276.233 145.944 276.649 145.944C276.777 145.944 276.895 145.955 277.001 145.976C277.108 145.997 277.217 146.035 277.329 146.088L277.449 146.832L277.433 146.84C277.284 146.755 277.153 146.696 277.041 146.664C276.929 146.627 276.815 146.608 276.697 146.608C276.489 146.608 276.324 146.675 276.201 146.808C276.084 146.936 276.025 147.115 276.025 147.344V148H277.345ZM284.526 146.4V147.096H282.326V152H281.558V147.096H279.366V146.4H284.526ZM287.429 148.568C287.221 148.568 287.023 148.624 286.837 148.736C286.655 148.843 286.445 149.027 286.205 149.288V152H285.485V146.192L286.205 145.928V148.752C286.434 148.459 286.661 148.248 286.885 148.12C287.109 147.987 287.357 147.92 287.629 147.92C288.05 147.92 288.389 148.061 288.645 148.344C288.906 148.627 289.037 149.005 289.037 149.48V152H288.317V149.552C288.317 149.243 288.237 149.003 288.077 148.832C287.922 148.656 287.706 148.568 287.429 148.568ZM293.633 150.944L293.369 151.736C293.134 151.864 292.915 151.955 292.713 152.008C292.51 152.061 292.289 152.088 292.049 152.088C291.414 152.088 290.91 151.899 290.537 151.52C290.163 151.141 289.977 150.635 289.977 150C289.977 149.413 290.163 148.915 290.537 148.504C290.91 148.093 291.374 147.888 291.929 147.888C292.483 147.888 292.926 148.083 293.257 148.472C293.587 148.856 293.753 149.352 293.753 149.96C293.753 150.013 293.75 150.072 293.745 150.136C293.739 150.2 293.734 150.248 293.729 150.28H290.721C290.774 150.643 290.923 150.925 291.169 151.128C291.419 151.331 291.739 151.432 292.129 151.432C292.363 151.432 292.609 151.389 292.865 151.304C293.126 151.213 293.377 151.091 293.617 150.936L293.633 150.944ZM291.905 148.52C291.579 148.52 291.305 148.635 291.081 148.864C290.862 149.093 290.737 149.387 290.705 149.744H293.025C292.993 149.36 292.878 149.061 292.681 148.848C292.483 148.629 292.225 148.52 291.905 148.52ZM296.622 148.568C296.435 148.568 296.256 148.621 296.086 148.728C295.92 148.829 295.726 149.005 295.502 149.256V152H294.782V148.096L295.502 147.936V148.72C295.715 148.437 295.928 148.235 296.142 148.112C296.355 147.984 296.587 147.92 296.838 147.92C297.131 147.92 297.384 147.997 297.598 148.152C297.816 148.307 297.976 148.525 298.078 148.808C298.312 148.493 298.542 148.267 298.766 148.128C298.99 147.989 299.24 147.92 299.518 147.92C299.923 147.92 300.248 148.061 300.494 148.344C300.744 148.627 300.87 149.005 300.87 149.48V152H300.142V149.552C300.142 149.243 300.067 149.003 299.918 148.832C299.768 148.656 299.563 148.568 299.302 148.568C299.115 148.568 298.934 148.621 298.758 148.728C298.587 148.835 298.392 149.013 298.174 149.264C298.179 149.285 298.182 149.312 298.182 149.344C298.182 149.371 298.182 149.416 298.182 149.48V152H297.462V149.552C297.462 149.243 297.387 149.003 297.238 148.832C297.088 148.656 296.883 148.568 296.622 148.568ZM305.469 150.944L305.205 151.736C304.97 151.864 304.751 151.955 304.549 152.008C304.346 152.061 304.125 152.088 303.885 152.088C303.25 152.088 302.746 151.899 302.373 151.52C301.999 151.141 301.813 150.635 301.813 150C301.813 149.413 301.999 148.915 302.373 148.504C302.746 148.093 303.21 147.888 303.765 147.888C304.319 147.888 304.762 148.083 305.093 148.472C305.423 148.856 305.589 149.352 305.589 149.96C305.589 150.013 305.586 150.072 305.581 150.136C305.575 150.2 305.57 150.248 305.565 150.28H302.557C302.61 150.643 302.759 150.925 303.005 151.128C303.255 151.331 303.575 151.432 303.965 151.432C304.199 151.432 304.445 151.389 304.701 151.304C304.962 151.213 305.213 151.091 305.453 150.936L305.469 150.944ZM303.741 148.52C303.415 148.52 303.141 148.635 302.917 148.864C302.698 149.093 302.573 149.387 302.541 149.744H304.861C304.829 149.36 304.714 149.061 304.517 148.848C304.319 148.629 304.061 148.52 303.741 148.52ZM308.186 149.664C308.714 149.787 309.079 149.941 309.282 150.128C309.49 150.315 309.594 150.571 309.594 150.896C309.594 151.243 309.442 151.528 309.138 151.752C308.839 151.976 308.455 152.088 307.986 152.088C307.703 152.088 307.434 152.048 307.178 151.968C306.922 151.888 306.668 151.765 306.418 151.6L306.266 150.728L306.282 150.72C306.58 150.955 306.882 151.133 307.186 151.256C307.49 151.379 307.783 151.44 308.066 151.44C308.306 151.44 308.503 151.395 308.658 151.304C308.818 151.208 308.898 151.085 308.898 150.936C308.898 150.776 308.823 150.651 308.674 150.56C308.53 150.469 308.242 150.373 307.81 150.272C307.292 150.149 306.932 149.997 306.73 149.816C306.527 149.635 306.426 149.397 306.426 149.104C306.426 148.752 306.57 148.467 306.858 148.248C307.151 148.024 307.527 147.912 307.986 147.912C308.21 147.912 308.434 147.944 308.658 148.008C308.882 148.072 309.095 148.163 309.298 148.28V149.048H309.282C309.031 148.888 308.788 148.768 308.554 148.688C308.324 148.603 308.108 148.56 307.906 148.56C307.666 148.56 307.474 148.603 307.33 148.688C307.191 148.773 307.122 148.885 307.122 149.024C307.122 149.173 307.194 149.293 307.338 149.384C307.482 149.469 307.764 149.563 308.186 149.664Z" fill="white"/>
</svg>
