<svg width="501" height="261" viewBox="0 0 501 261" fill="none" xmlns="http://www.w3.org/2000/svg">
    <rect width="501" height="261" fill="white"/>
    <rect x="69" y="61" width="203.987" height="139" fill="#EEEEEE"/>
    <path d="M117.478 135.033L69 185.647V200H272.987V152.03L215.38 113.125L166.272 162.606L117.478 135.033Z" fill="#8E9597"/>
    <ellipse cx="128.592" cy="96.6117" rx="5.72997" ry="5.7438" fill="#8E9597"/>
    <rect x="70" y="62" width="201.987" height="137" stroke="white" stroke-width="2"/>
    <g filter="url(#filter0_d_1226_130)">
        <rect x="217.267" y="76" width="214.292" height="110.042" fill="#376C74"/>
    </g>
    <path d="M244.417 131.333H241.233V125.733H242.009V130.637H244.417V131.333ZM245.81 125.405C245.949 125.405 246.066 125.453 246.162 125.549C246.258 125.645 246.306 125.763 246.306 125.901C246.306 126.04 246.258 126.157 246.162 126.253C246.066 126.349 245.949 126.397 245.81 126.397C245.672 126.397 245.554 126.349 245.458 126.253C245.362 126.157 245.314 126.04 245.314 125.901C245.314 125.763 245.362 125.645 245.458 125.549C245.554 125.453 245.672 125.405 245.81 125.405ZM246.17 131.333H245.45V127.333H246.17V131.333ZM249.51 127.901C249.302 127.901 249.105 127.957 248.918 128.069C248.737 128.176 248.526 128.36 248.286 128.621V131.333H247.566V127.429L248.286 127.269V128.085C248.516 127.792 248.742 127.581 248.966 127.453C249.19 127.32 249.438 127.253 249.71 127.253C250.132 127.253 250.47 127.395 250.726 127.677C250.988 127.96 251.118 128.339 251.118 128.813V131.333H250.398V128.885C250.398 128.576 250.318 128.336 250.158 128.165C250.004 127.989 249.788 127.901 249.51 127.901ZM256.059 131.333H255.107L253.347 129.573H253.115V131.333H252.395V125.525L253.115 125.261V129.029H253.339L255.011 127.333H255.923V127.349L253.963 129.277L256.059 131.317V131.333ZM261.095 130.373L260.935 131.141C260.818 131.227 260.679 131.293 260.519 131.341C260.359 131.395 260.194 131.421 260.023 131.421C259.645 131.421 259.346 131.304 259.127 131.069C258.909 130.835 258.799 130.507 258.799 130.085V127.949H258.119V127.333H258.799V126.437L259.511 126.173V127.333H261.079V127.949H259.511V130.053C259.511 130.293 259.567 130.475 259.679 130.597C259.791 130.715 259.957 130.773 260.175 130.773C260.325 130.773 260.474 130.741 260.623 130.677C260.773 130.608 260.925 130.504 261.079 130.365L261.095 130.373ZM264.05 127.901C263.842 127.901 263.644 127.957 263.458 128.069C263.276 128.176 263.066 128.36 262.826 128.621V131.333H262.106V125.525L262.826 125.261V128.085C263.055 127.792 263.282 127.581 263.506 127.453C263.73 127.32 263.978 127.253 264.25 127.253C264.671 127.253 265.01 127.395 265.266 127.677C265.527 127.96 265.658 128.339 265.658 128.813V131.333H264.938V128.885C264.938 128.576 264.858 128.336 264.698 128.165C264.543 127.989 264.327 127.901 264.05 127.901ZM267.334 125.405C267.472 125.405 267.59 125.453 267.686 125.549C267.782 125.645 267.83 125.763 267.83 125.901C267.83 126.04 267.782 126.157 267.686 126.253C267.59 126.349 267.472 126.397 267.334 126.397C267.195 126.397 267.078 126.349 266.982 126.253C266.886 126.157 266.838 126.04 266.838 125.901C266.838 125.763 266.886 125.645 266.982 125.549C267.078 125.453 267.195 125.405 267.334 125.405ZM267.694 131.333H266.974V127.333H267.694V131.333ZM270.658 128.997C271.186 129.12 271.551 129.275 271.754 129.461C271.962 129.648 272.066 129.904 272.066 130.229C272.066 130.576 271.914 130.861 271.61 131.085C271.311 131.309 270.927 131.421 270.458 131.421C270.175 131.421 269.906 131.381 269.65 131.301C269.394 131.221 269.141 131.099 268.89 130.933L268.738 130.061L268.754 130.053C269.053 130.288 269.354 130.467 269.658 130.589C269.962 130.712 270.255 130.773 270.538 130.773C270.778 130.773 270.975 130.728 271.13 130.637C271.29 130.541 271.37 130.419 271.37 130.269C271.37 130.109 271.295 129.984 271.146 129.893C271.002 129.803 270.714 129.707 270.282 129.605C269.765 129.483 269.405 129.331 269.202 129.149C268.999 128.968 268.898 128.731 268.898 128.437C268.898 128.085 269.042 127.8 269.33 127.581C269.623 127.357 269.999 127.245 270.458 127.245C270.682 127.245 270.906 127.277 271.13 127.341C271.354 127.405 271.567 127.496 271.77 127.613V128.381H271.754C271.503 128.221 271.261 128.101 271.026 128.021C270.797 127.936 270.581 127.893 270.378 127.893C270.138 127.893 269.946 127.936 269.802 128.021C269.663 128.107 269.594 128.219 269.594 128.357C269.594 128.507 269.666 128.627 269.81 128.717C269.954 128.803 270.237 128.896 270.658 128.997ZM277.416 130.373L277.256 131.141C277.138 131.227 277 131.293 276.84 131.341C276.68 131.395 276.514 131.421 276.344 131.421C275.965 131.421 275.666 131.304 275.448 131.069C275.229 130.835 275.12 130.507 275.12 130.085V127.949H274.44V127.333H275.12V126.437L275.832 126.173V127.333H277.4V127.949H275.832V130.053C275.832 130.293 275.888 130.475 276 130.597C276.112 130.715 276.277 130.773 276.496 130.773C276.645 130.773 276.794 130.741 276.944 130.677C277.093 130.608 277.245 130.504 277.4 130.365L277.416 130.373ZM280.194 131.445C279.58 131.445 279.076 131.243 278.682 130.837C278.287 130.427 278.09 129.928 278.09 129.341C278.09 128.76 278.292 128.261 278.698 127.845C279.103 127.429 279.607 127.221 280.21 127.221C280.828 127.221 281.332 127.424 281.722 127.829C282.116 128.229 282.314 128.725 282.314 129.317C282.314 129.904 282.111 130.405 281.706 130.821C281.306 131.237 280.802 131.445 280.194 131.445ZM281.578 129.317C281.578 128.901 281.447 128.557 281.186 128.285C280.93 128.008 280.604 127.869 280.21 127.869C279.81 127.869 279.479 128.011 279.218 128.293C278.962 128.571 278.834 128.92 278.834 129.341C278.834 129.757 278.962 130.104 279.218 130.381C279.479 130.659 279.804 130.797 280.194 130.797C280.594 130.797 280.924 130.656 281.186 130.373C281.447 130.091 281.578 129.739 281.578 129.317ZM288.322 128.901V131.237L287.602 131.397V130.685C287.304 130.925 287.021 131.104 286.754 131.221C286.493 131.339 286.237 131.397 285.986 131.397C285.634 131.397 285.349 131.301 285.13 131.109C284.912 130.912 284.802 130.651 284.802 130.325C284.802 129.867 285.032 129.528 285.49 129.309C285.949 129.085 286.653 128.968 287.602 128.957V128.941C287.602 128.611 287.522 128.36 287.362 128.189C287.208 128.013 286.981 127.925 286.682 127.925C286.458 127.925 286.226 127.973 285.986 128.069C285.752 128.165 285.509 128.309 285.258 128.501L285.242 128.493L285.394 127.685C285.608 127.541 285.829 127.435 286.058 127.365C286.293 127.296 286.538 127.261 286.794 127.261C287.285 127.261 287.661 127.403 287.922 127.685C288.189 127.968 288.322 128.373 288.322 128.901ZM285.53 130.293C285.53 130.443 285.584 130.563 285.69 130.653C285.797 130.739 285.944 130.781 286.13 130.781C286.317 130.781 286.53 130.736 286.77 130.645C287.01 130.555 287.288 130.413 287.602 130.221V129.421C286.909 129.464 286.389 129.557 286.042 129.701C285.701 129.84 285.53 130.037 285.53 130.293ZM295.052 127.477C295.052 128.037 294.863 128.485 294.484 128.821C294.105 129.152 293.607 129.317 292.988 129.317H292.228V131.333H291.452V125.733H293.052C293.665 125.733 294.151 125.888 294.508 126.197C294.871 126.507 295.052 126.933 295.052 127.477ZM294.268 127.485C294.268 127.165 294.156 126.909 293.932 126.717C293.708 126.525 293.407 126.429 293.028 126.429H292.22V128.621H292.988C293.377 128.621 293.687 128.52 293.916 128.317C294.151 128.109 294.268 127.832 294.268 127.485ZM299.119 128.901V131.237L298.399 131.397V130.685C298.101 130.925 297.818 131.104 297.551 131.221C297.29 131.339 297.034 131.397 296.783 131.397C296.431 131.397 296.146 131.301 295.927 131.109C295.709 130.912 295.599 130.651 295.599 130.325C295.599 129.867 295.829 129.528 296.287 129.309C296.746 129.085 297.45 128.968 298.399 128.957V128.941C298.399 128.611 298.319 128.36 298.159 128.189C298.005 128.013 297.778 127.925 297.479 127.925C297.255 127.925 297.023 127.973 296.783 128.069C296.549 128.165 296.306 128.309 296.055 128.501L296.039 128.493L296.191 127.685C296.405 127.541 296.626 127.435 296.855 127.365C297.09 127.296 297.335 127.261 297.591 127.261C298.082 127.261 298.458 127.403 298.719 127.685C298.986 127.968 299.119 128.373 299.119 128.901ZM296.327 130.293C296.327 130.443 296.381 130.563 296.487 130.653C296.594 130.739 296.741 130.781 296.927 130.781C297.114 130.781 297.327 130.736 297.567 130.645C297.807 130.555 298.085 130.413 298.399 130.221V129.421C297.706 129.464 297.186 129.557 296.839 129.701C296.498 129.84 296.327 130.037 296.327 130.293ZM304.01 127.333V130.949C304.01 131.557 303.824 132.035 303.45 132.381C303.082 132.728 302.578 132.901 301.938 132.901C301.666 132.901 301.402 132.872 301.146 132.813C300.89 132.755 300.632 132.661 300.37 132.533L300.218 131.725L300.234 131.717C300.554 131.899 300.85 132.029 301.122 132.109C301.4 132.195 301.682 132.237 301.97 132.237C302.365 132.237 302.682 132.12 302.922 131.885C303.162 131.656 303.282 131.344 303.282 130.949V130.589C303.042 130.824 302.808 130.995 302.578 131.101C302.349 131.203 302.104 131.253 301.842 131.253C301.33 131.253 300.906 131.075 300.57 130.717C300.24 130.36 300.074 129.907 300.074 129.357C300.074 128.749 300.285 128.251 300.706 127.861C301.133 127.467 301.656 127.269 302.274 127.269C302.456 127.269 302.634 127.288 302.81 127.325C302.986 127.363 303.176 127.424 303.378 127.509L303.914 127.333H304.01ZM302.29 127.885C301.869 127.885 301.517 128.021 301.234 128.293C300.957 128.565 300.818 128.907 300.818 129.317C300.818 129.707 300.933 130.021 301.162 130.261C301.392 130.501 301.69 130.621 302.058 130.621C302.261 130.621 302.458 130.581 302.65 130.501C302.848 130.416 303.058 130.28 303.282 130.093V128.109C303.106 128.035 302.938 127.979 302.778 127.941C302.618 127.904 302.456 127.885 302.29 127.885ZM308.683 130.277L308.419 131.069C308.185 131.197 307.966 131.288 307.763 131.341C307.561 131.395 307.339 131.421 307.099 131.421C306.465 131.421 305.961 131.232 305.587 130.853C305.214 130.475 305.027 129.968 305.027 129.333C305.027 128.747 305.214 128.248 305.587 127.837C305.961 127.427 306.425 127.221 306.979 127.221C307.534 127.221 307.977 127.416 308.307 127.805C308.638 128.189 308.803 128.685 308.803 129.293C308.803 129.347 308.801 129.405 308.795 129.469C308.79 129.533 308.785 129.581 308.779 129.613H305.771C305.825 129.976 305.974 130.259 306.219 130.461C306.47 130.664 306.79 130.765 307.179 130.765C307.414 130.765 307.659 130.723 307.915 130.637C308.177 130.547 308.427 130.424 308.667 130.269L308.683 130.277ZM306.955 127.853C306.63 127.853 306.355 127.968 306.131 128.197C305.913 128.427 305.787 128.72 305.755 129.077H308.075C308.043 128.693 307.929 128.395 307.731 128.181C307.534 127.963 307.275 127.853 306.955 127.853ZM309.272 132.669L309.056 132.485C309.312 132.144 309.48 131.856 309.56 131.621C309.64 131.387 309.68 131.083 309.68 130.709V130.445H310.424C310.424 130.904 310.352 131.285 310.208 131.589C310.064 131.899 309.752 132.259 309.272 132.669ZM316.495 131.333H313.319V125.733H316.471L316.703 126.429H314.095V128.141H316.279V128.829H314.095V130.637H316.727L316.495 131.333ZM320.651 127.333H321.435L319.323 131.445H319.171L317.203 127.333H317.995L319.275 130.157L320.651 127.333ZM325.511 130.277L325.247 131.069C325.013 131.197 324.794 131.288 324.591 131.341C324.389 131.395 324.167 131.421 323.927 131.421C323.293 131.421 322.789 131.232 322.415 130.853C322.042 130.475 321.855 129.968 321.855 129.333C321.855 128.747 322.042 128.248 322.415 127.837C322.789 127.427 323.253 127.221 323.807 127.221C324.362 127.221 324.805 127.416 325.135 127.805C325.466 128.189 325.631 128.685 325.631 129.293C325.631 129.347 325.629 129.405 325.623 129.469C325.618 129.533 325.613 129.581 325.607 129.613H322.599C322.653 129.976 322.802 130.259 323.047 130.461C323.298 130.664 323.618 130.765 324.007 130.765C324.242 130.765 324.487 130.723 324.743 130.637C325.005 130.547 325.255 130.424 325.495 130.269L325.511 130.277ZM323.783 127.853C323.458 127.853 323.183 127.968 322.959 128.197C322.741 128.427 322.615 128.72 322.583 129.077H324.903C324.871 128.693 324.757 128.395 324.559 128.181C324.362 127.963 324.103 127.853 323.783 127.853ZM328.604 127.901C328.396 127.901 328.199 127.957 328.012 128.069C327.831 128.176 327.62 128.36 327.38 128.621V131.333H326.66V127.429L327.38 127.269V128.085C327.61 127.792 327.836 127.581 328.06 127.453C328.284 127.32 328.532 127.253 328.804 127.253C329.226 127.253 329.564 127.395 329.82 127.677C330.082 127.96 330.212 128.339 330.212 128.813V131.333H329.492V128.885C329.492 128.576 329.412 128.336 329.252 128.165C329.098 127.989 328.882 127.901 328.604 127.901ZM334.056 130.373L333.896 131.141C333.779 131.227 333.64 131.293 333.48 131.341C333.32 131.395 333.155 131.421 332.984 131.421C332.606 131.421 332.307 131.304 332.088 131.069C331.87 130.835 331.76 130.507 331.76 130.085V127.949H331.08V127.333H331.76V126.437L332.472 126.173V127.333H334.04V127.949H332.472V130.053C332.472 130.293 332.528 130.475 332.64 130.597C332.752 130.715 332.918 130.773 333.136 130.773C333.286 130.773 333.435 130.741 333.584 130.677C333.734 130.608 333.886 130.504 334.04 130.365L334.056 130.373ZM334.506 132.669L334.29 132.485C334.546 132.144 334.714 131.856 334.794 131.621C334.874 131.387 334.914 131.083 334.914 130.709V130.445H335.658C335.658 130.904 335.586 131.285 335.442 131.589C335.298 131.899 334.986 132.259 334.506 132.669ZM342.154 127.477C342.154 128.037 341.964 128.485 341.586 128.821C341.207 129.152 340.708 129.317 340.09 129.317H339.33V131.333H338.554V125.733H340.154C340.767 125.733 341.252 125.888 341.61 126.197C341.972 126.507 342.154 126.933 342.154 127.477ZM341.37 127.485C341.37 127.165 341.258 126.909 341.034 126.717C340.81 126.525 340.508 126.429 340.13 126.429H339.322V128.621H340.09C340.479 128.621 340.788 128.52 341.018 128.317C341.252 128.109 341.37 127.832 341.37 127.485ZM344.819 131.445C344.205 131.445 343.701 131.243 343.307 130.837C342.912 130.427 342.715 129.928 342.715 129.341C342.715 128.76 342.917 128.261 343.323 127.845C343.728 127.429 344.232 127.221 344.835 127.221C345.453 127.221 345.957 127.424 346.347 127.829C346.741 128.229 346.939 128.725 346.939 129.317C346.939 129.904 346.736 130.405 346.331 130.821C345.931 131.237 345.427 131.445 344.819 131.445ZM346.203 129.317C346.203 128.901 346.072 128.557 345.811 128.285C345.555 128.008 345.229 127.869 344.835 127.869C344.435 127.869 344.104 128.011 343.843 128.293C343.587 128.571 343.459 128.92 343.459 129.341C343.459 129.757 343.587 130.104 343.843 130.381C344.104 130.659 344.429 130.797 344.819 130.797C345.219 130.797 345.549 130.656 345.811 130.373C346.072 130.091 346.203 129.739 346.203 129.317ZM349.533 128.997C350.061 129.12 350.426 129.275 350.629 129.461C350.837 129.648 350.941 129.904 350.941 130.229C350.941 130.576 350.789 130.861 350.485 131.085C350.186 131.309 349.802 131.421 349.333 131.421C349.05 131.421 348.781 131.381 348.525 131.301C348.269 131.221 348.016 131.099 347.765 130.933L347.613 130.061L347.629 130.053C347.928 130.288 348.229 130.467 348.533 130.589C348.837 130.712 349.13 130.773 349.413 130.773C349.653 130.773 349.85 130.728 350.005 130.637C350.165 130.541 350.245 130.419 350.245 130.269C350.245 130.109 350.17 129.984 350.021 129.893C349.877 129.803 349.589 129.707 349.157 129.605C348.64 129.483 348.28 129.331 348.077 129.149C347.874 128.968 347.773 128.731 347.773 128.437C347.773 128.085 347.917 127.8 348.205 127.581C348.498 127.357 348.874 127.245 349.333 127.245C349.557 127.245 349.781 127.277 350.005 127.341C350.229 127.405 350.442 127.496 350.645 127.613V128.381H350.629C350.378 128.221 350.136 128.101 349.901 128.021C349.672 127.936 349.456 127.893 349.253 127.893C349.013 127.893 348.821 127.936 348.677 128.021C348.538 128.107 348.469 128.219 348.469 128.357C348.469 128.507 348.541 128.627 348.685 128.717C348.829 128.803 349.112 128.896 349.533 128.997ZM354.564 130.373L354.404 131.141C354.287 131.227 354.148 131.293 353.988 131.341C353.828 131.395 353.663 131.421 353.492 131.421C353.113 131.421 352.815 131.304 352.596 131.069C352.377 130.835 352.268 130.507 352.268 130.085V127.949H351.588V127.333H352.268V126.437L352.98 126.173V127.333H354.548V127.949H352.98V130.053C352.98 130.293 353.036 130.475 353.148 130.597C353.26 130.715 353.425 130.773 353.644 130.773C353.793 130.773 353.943 130.741 354.092 130.677C354.241 130.608 354.393 130.504 354.548 130.365L354.564 130.373ZM355.014 132.669L354.798 132.485C355.054 132.144 355.222 131.856 355.302 131.621C355.382 131.387 355.422 131.083 355.422 130.709V130.445H356.166C356.166 130.904 356.094 131.285 355.95 131.589C355.806 131.899 355.494 132.259 355.014 132.669ZM360.709 131.445C360.096 131.445 359.592 131.243 359.197 130.837C358.803 130.427 358.605 129.928 358.605 129.341C358.605 128.76 358.808 128.261 359.213 127.845C359.619 127.429 360.123 127.221 360.725 127.221C361.344 127.221 361.848 127.424 362.237 127.829C362.632 128.229 362.829 128.725 362.829 129.317C362.829 129.904 362.627 130.405 362.221 130.821C361.821 131.237 361.317 131.445 360.709 131.445ZM362.093 129.317C362.093 128.901 361.963 128.557 361.701 128.285C361.445 128.008 361.12 127.869 360.725 127.869C360.325 127.869 359.995 128.011 359.733 128.293C359.477 128.571 359.349 128.92 359.349 129.341C359.349 129.757 359.477 130.104 359.733 130.381C359.995 130.659 360.32 130.797 360.709 130.797C361.109 130.797 361.44 130.656 361.701 130.373C361.963 130.091 362.093 129.739 362.093 129.317ZM366.064 128.037C365.829 128.037 365.597 128.093 365.368 128.205C365.144 128.317 364.88 128.507 364.576 128.773V131.333H363.856V127.429L364.576 127.269V128.285C364.906 127.875 365.165 127.603 365.352 127.469C365.544 127.336 365.749 127.269 365.968 127.269C366.016 127.269 366.056 127.272 366.088 127.277C366.125 127.283 366.17 127.291 366.224 127.301L366.28 128.061C366.242 128.051 366.205 128.045 366.168 128.045C366.136 128.04 366.101 128.037 366.064 128.037ZM372.622 127.477C372.622 128.037 372.433 128.485 372.054 128.821C371.676 129.152 371.177 129.317 370.558 129.317H369.798V131.333H369.022V125.733H370.622C371.236 125.733 371.721 125.888 372.078 126.197C372.441 126.507 372.622 126.933 372.622 127.477ZM371.838 127.485C371.838 127.165 371.726 126.909 371.502 126.717C371.278 126.525 370.977 126.429 370.598 126.429H369.79V128.621H370.558C370.948 128.621 371.257 128.52 371.486 128.317C371.721 128.109 371.838 127.832 371.838 127.485ZM376.84 130.277L376.576 131.069C376.341 131.197 376.122 131.288 375.92 131.341C375.717 131.395 375.496 131.421 375.256 131.421C374.621 131.421 374.117 131.232 373.744 130.853C373.37 130.475 373.184 129.968 373.184 129.333C373.184 128.747 373.37 128.248 373.744 127.837C374.117 127.427 374.581 127.221 375.136 127.221C375.69 127.221 376.133 127.416 376.464 127.805C376.794 128.189 376.96 128.685 376.96 129.293C376.96 129.347 376.957 129.405 376.952 129.469C376.946 129.533 376.941 129.581 376.936 129.613H373.928C373.981 129.976 374.13 130.259 374.376 130.461C374.626 130.664 374.946 130.765 375.336 130.765C375.57 130.765 375.816 130.723 376.072 130.637C376.333 130.547 376.584 130.424 376.824 130.269L376.84 130.277ZM375.112 127.853C374.786 127.853 374.512 127.968 374.288 128.197C374.069 128.427 373.944 128.72 373.912 129.077H376.232C376.2 128.693 376.085 128.395 375.888 128.181C375.69 127.963 375.432 127.853 375.112 127.853ZM380.196 128.037C379.962 128.037 379.73 128.093 379.5 128.205C379.276 128.317 379.012 128.507 378.708 128.773V131.333H377.988V127.429L378.708 127.269V128.285C379.039 127.875 379.298 127.603 379.484 127.469C379.676 127.336 379.882 127.269 380.1 127.269C380.148 127.269 380.188 127.272 380.22 127.277C380.258 127.283 380.303 127.291 380.356 127.301L380.412 128.061C380.375 128.051 380.338 128.045 380.3 128.045C380.268 128.04 380.234 128.037 380.196 128.037ZM382.877 128.997C383.405 129.12 383.77 129.275 383.973 129.461C384.181 129.648 384.285 129.904 384.285 130.229C384.285 130.576 384.133 130.861 383.829 131.085C383.53 131.309 383.146 131.421 382.677 131.421C382.394 131.421 382.125 131.381 381.869 131.301C381.613 131.221 381.359 131.099 381.109 130.933L380.957 130.061L380.973 130.053C381.271 130.288 381.573 130.467 381.877 130.589C382.181 130.712 382.474 130.773 382.757 130.773C382.997 130.773 383.194 130.728 383.349 130.637C383.509 130.541 383.589 130.419 383.589 130.269C383.589 130.109 383.514 129.984 383.365 129.893C383.221 129.803 382.933 129.707 382.501 129.605C381.983 129.483 381.623 129.331 381.421 129.149C381.218 128.968 381.117 128.731 381.117 128.437C381.117 128.085 381.261 127.8 381.549 127.581C381.842 127.357 382.218 127.245 382.677 127.245C382.901 127.245 383.125 127.277 383.349 127.341C383.573 127.405 383.786 127.496 383.989 127.613V128.381H383.973C383.722 128.221 383.479 128.101 383.245 128.021C383.015 127.936 382.799 127.893 382.597 127.893C382.357 127.893 382.165 127.936 382.021 128.021C381.882 128.107 381.813 128.219 381.813 128.357C381.813 128.507 381.885 128.627 382.029 128.717C382.173 128.803 382.455 128.896 382.877 128.997ZM387.108 131.445C386.495 131.445 385.991 131.243 385.596 130.837C385.201 130.427 385.004 129.928 385.004 129.341C385.004 128.76 385.207 128.261 385.612 127.845C386.017 127.429 386.521 127.221 387.124 127.221C387.743 127.221 388.247 127.424 388.636 127.829C389.031 128.229 389.228 128.725 389.228 129.317C389.228 129.904 389.025 130.405 388.62 130.821C388.22 131.237 387.716 131.445 387.108 131.445ZM388.492 129.317C388.492 128.901 388.361 128.557 388.1 128.285C387.844 128.008 387.519 127.869 387.124 127.869C386.724 127.869 386.393 128.011 386.132 128.293C385.876 128.571 385.748 128.92 385.748 129.341C385.748 129.757 385.876 130.104 386.132 130.381C386.393 130.659 386.719 130.797 387.108 130.797C387.508 130.797 387.839 130.656 388.1 130.373C388.361 130.091 388.492 129.739 388.492 129.317ZM392.198 127.901C391.99 127.901 391.793 127.957 391.606 128.069C391.425 128.176 391.214 128.36 390.974 128.621V131.333H390.254V127.429L390.974 127.269V128.085C391.203 127.792 391.43 127.581 391.654 127.453C391.878 127.32 392.126 127.253 392.398 127.253C392.819 127.253 393.158 127.395 393.414 127.677C393.675 127.96 393.806 128.339 393.806 128.813V131.333H393.086V128.885C393.086 128.576 393.006 128.336 392.846 128.165C392.691 127.989 392.475 127.901 392.198 127.901ZM395.226 131.405C395.077 131.405 394.949 131.352 394.842 131.245C394.735 131.139 394.682 131.011 394.682 130.861C394.682 130.712 394.735 130.584 394.842 130.477C394.949 130.371 395.077 130.317 395.226 130.317C395.375 130.317 395.501 130.371 395.602 130.477C395.709 130.584 395.762 130.712 395.762 130.861C395.762 131.011 395.709 131.139 395.602 131.245C395.501 131.352 395.375 131.405 395.226 131.405Z" fill="white"/>
    <path d="M255.213 108.243L255.153 108.683L253.393 108.663C251.393 108.643 251.393 108.723 250.093 107.243C248.553 105.483 247.713 104.303 246.993 103.423H244.713V107.103C244.993 107.763 245.973 108.083 246.893 108.123V108.583H240.813V108.123C241.733 108.083 242.613 107.863 242.893 107.203V97.0833C242.693 96.6233 241.753 96.3633 240.833 96.3233V95.8833C243.053 95.8833 243.733 95.8233 246.073 95.8233C249.413 95.8233 250.873 96.8433 250.873 99.0833C250.873 100.343 249.993 101.823 248.473 102.503L251.513 106.103C252.233 106.943 253.073 107.623 253.293 107.763C253.593 107.963 254.693 108.163 255.213 108.243ZM248.913 99.1633C248.913 97.7433 247.953 96.5233 245.953 96.5233C245.633 96.5233 245.173 96.5233 244.713 96.5633V102.663H246.073C248.293 102.663 248.913 101.283 248.913 99.1633ZM261.826 106.503L262.126 106.963C260.906 108.083 259.986 108.743 258.346 108.743C256.286 108.743 254.706 107.083 254.706 104.663C254.706 101.723 256.466 99.7433 258.886 99.7433C260.906 99.7433 261.846 100.803 261.846 102.703V103.043L256.386 103.003C256.366 103.183 256.346 103.623 256.346 104.083C256.346 106.183 257.746 107.583 259.406 107.583C260.546 107.583 260.966 107.243 261.826 106.503ZM256.466 102.463L260.226 102.423C260.226 101.343 259.426 100.343 258.526 100.343C257.466 100.343 256.686 101.143 256.466 102.463ZM271.165 95.4833C271.085 95.8633 270.665 96.4033 270.325 96.5033C269.685 96.0233 268.865 95.4633 267.925 95.4033C266.585 95.4633 266.045 96.4433 265.985 100.123H268.625V101.003H265.965L266.025 107.323C266.465 108.123 267.365 108.063 268.065 108.083V108.583H262.925V108.123C263.885 108.063 264.225 107.863 264.405 107.523L264.425 100.983H262.865V100.483L264.365 100.063C264.405 99.0833 264.565 98.1633 264.865 97.5433C265.685 95.8233 267.065 94.3633 269.305 94.3633C270.465 94.3633 271.165 95.0433 271.165 95.4833ZM276.396 106.503L276.696 106.963C275.476 108.083 274.556 108.743 272.916 108.743C270.856 108.743 269.276 107.083 269.276 104.663C269.276 101.723 271.036 99.7433 273.456 99.7433C275.476 99.7433 276.416 100.803 276.416 102.703V103.043L270.956 103.003C270.936 103.183 270.916 103.623 270.916 104.083C270.916 106.183 272.316 107.583 273.976 107.583C275.116 107.583 275.536 107.243 276.396 106.503ZM271.036 102.463L274.796 102.423C274.796 101.343 273.996 100.343 273.096 100.343C272.036 100.343 271.256 101.143 271.036 102.463ZM284.374 100.183L283.554 101.823H283.354C282.734 101.463 282.294 101.263 281.774 101.263C281.254 101.263 281.034 101.563 280.574 101.983V107.463C280.794 107.863 281.554 107.963 282.414 108.083V108.583H277.754V108.103C278.734 108.023 278.834 107.843 279.014 107.503V102.003C279.014 101.603 278.754 101.263 277.754 101.023V100.643L280.294 99.7033H280.494L280.534 101.603C281.434 100.643 282.234 99.8033 282.954 99.8033C283.454 99.8033 283.914 99.9633 284.374 100.183ZM291.904 106.503L292.204 106.963C290.984 108.083 290.064 108.743 288.424 108.743C286.364 108.743 284.784 107.083 284.784 104.663C284.784 101.723 286.544 99.7433 288.964 99.7433C290.984 99.7433 291.924 100.803 291.924 102.703V103.043L286.464 103.003C286.444 103.183 286.424 103.623 286.424 104.083C286.424 106.183 287.824 107.583 289.484 107.583C290.624 107.583 291.044 107.243 291.904 106.503ZM286.544 102.463L290.304 102.423C290.304 101.343 289.504 100.343 288.604 100.343C287.544 100.343 286.764 101.143 286.544 102.463ZM303.282 108.043V108.583H298.742V108.103C299.702 108.023 299.822 107.843 299.962 107.503V102.843C299.962 101.763 299.202 100.843 298.102 100.843C297.562 100.843 296.662 101.183 296.082 101.503V107.523C296.302 107.923 296.402 108.023 297.402 108.123V108.583H293.222V108.123C294.202 108.063 294.342 107.863 294.522 107.523V102.123C294.522 101.723 294.202 101.263 293.262 101.023V100.643L295.862 99.7033H296.082V101.123C296.982 100.463 298.502 99.7233 299.222 99.7233C301.042 99.7233 301.582 100.823 301.582 102.443V107.643C301.982 107.943 302.382 107.963 303.282 108.043ZM310.763 106.383L311.123 106.843C310.023 108.123 308.863 108.743 307.603 108.743C305.523 108.743 303.963 107.183 303.963 104.763C303.963 101.683 306.163 99.7433 308.703 99.7433C310.163 99.7433 310.923 100.383 311.023 100.763C310.983 101.043 310.683 101.763 310.403 101.923C309.503 101.583 308.883 100.843 307.383 100.603C306.363 100.823 305.643 101.963 305.643 104.023C305.643 106.243 306.883 107.583 308.663 107.583C309.583 107.583 310.263 107.063 310.763 106.383ZM318.974 106.503L319.274 106.963C318.054 108.083 317.134 108.743 315.494 108.743C313.434 108.743 311.854 107.083 311.854 104.663C311.854 101.723 313.614 99.7433 316.034 99.7433C318.054 99.7433 318.994 100.803 318.994 102.703V103.043L313.534 103.003C313.514 103.183 313.494 103.623 313.494 104.083C313.494 106.183 314.894 107.583 316.554 107.583C317.694 107.583 318.114 107.243 318.974 106.503ZM313.614 102.463L317.374 102.423C317.374 101.343 316.574 100.343 315.674 100.343C314.614 100.343 313.834 101.143 313.614 102.463ZM336.443 104.923L336.923 105.043L336.223 108.143C334.763 108.603 334.243 108.843 331.943 108.843C327.923 108.843 324.983 105.903 324.983 102.123C324.983 98.2833 328.103 95.6233 331.983 95.6233C333.903 95.6233 335.023 95.9833 336.503 96.3433V99.6433H336.063C335.983 98.7433 335.663 97.7233 334.883 97.2433C334.523 97.0233 333.603 96.3833 331.683 96.3833C328.783 96.3833 327.063 98.8033 327.063 101.643C327.063 105.403 329.263 108.083 332.643 108.083C333.743 108.083 334.523 107.723 334.863 107.443C335.663 106.803 336.243 105.863 336.443 104.923ZM346.285 107.123V107.643C345.805 108.143 344.825 108.763 344.185 108.763C343.165 108.763 342.745 107.943 342.725 107.483C342.025 108.203 340.925 108.763 340.185 108.763C339.205 108.763 338.185 108.103 338.185 106.943C338.185 106.403 338.265 105.723 338.585 105.263L342.725 103.803L342.745 102.403C342.765 101.483 342.005 100.483 341.085 100.483C340.525 100.483 340.045 101.183 340.005 102.163L338.385 102.463V102.243C338.945 100.563 341.085 99.7233 341.965 99.7233C343.785 99.7233 344.385 100.683 344.365 102.223L344.285 106.543C344.265 107.363 344.705 107.623 345.125 107.623C345.565 107.623 345.825 107.443 346.285 107.123ZM342.705 107.103L342.725 104.283C342.205 104.523 340.685 105.103 340.105 105.423C340.025 105.743 339.965 106.183 339.965 106.583C339.965 107.183 340.305 107.743 340.905 107.743C341.705 107.743 342.085 107.543 342.705 107.103ZM353.378 100.183L352.558 101.823H352.358C351.738 101.463 351.298 101.263 350.778 101.263C350.258 101.263 350.038 101.563 349.578 101.983V107.463C349.798 107.863 350.558 107.963 351.418 108.083V108.583H346.758V108.103C347.738 108.023 347.838 107.843 348.018 107.503V102.003C348.018 101.603 347.758 101.263 346.758 101.023V100.643L349.298 99.7033H349.498L349.538 101.603C350.438 100.643 351.238 99.8033 351.958 99.8033C352.458 99.8033 352.918 99.9633 353.378 100.183ZM363.888 107.363V107.863L360.848 108.883H360.588L360.408 107.423C359.508 108.083 358.308 108.763 357.368 108.763C355.568 108.763 353.808 107.443 353.808 104.623C353.808 101.883 355.668 99.7233 358.928 99.7233C359.488 99.7233 360.068 99.9033 360.448 100.003L360.388 96.8233C360.368 96.0033 360.088 95.8233 358.708 95.7033V95.3233L361.988 94.4233H362.308V94.7033L361.928 95.3833L361.968 106.823C361.968 107.263 362.208 107.523 362.268 107.623L363.888 107.363ZM360.408 107.043L360.388 102.123C360.028 101.003 358.788 100.423 357.988 100.423C356.468 100.423 355.528 102.163 355.528 104.023C355.528 105.983 356.648 107.643 358.588 107.643C359.088 107.643 359.848 107.343 360.408 107.043Z" fill="white"/>
    <path d="M351.309 160.313C351.309 154.166 346.3 149.158 340.154 149.158C334.008 149.158 329 154.166 329 160.313C329 163.547 330.394 166.459 332.603 168.5C332.603 168.511 332.603 168.511 332.592 168.522C332.703 168.634 332.837 168.723 332.949 168.823C333.016 168.879 333.071 168.935 333.138 168.979C333.339 169.147 333.562 169.303 333.774 169.459C333.852 169.515 333.919 169.559 333.997 169.615C334.209 169.76 334.432 169.894 334.666 170.017C334.744 170.061 334.834 170.117 334.912 170.162C335.135 170.284 335.369 170.396 335.615 170.496C335.704 170.541 335.793 170.586 335.882 170.619C336.128 170.72 336.373 170.809 336.618 170.887C336.708 170.92 336.797 170.954 336.886 170.976C337.154 171.054 337.422 171.121 337.689 171.188C337.767 171.21 337.845 171.233 337.935 171.244C338.247 171.311 338.559 171.355 338.883 171.389C338.927 171.389 338.972 171.4 339.017 171.411C339.396 171.445 339.775 171.467 340.154 171.467C340.534 171.467 340.913 171.445 341.281 171.411C341.326 171.411 341.37 171.4 341.415 171.389C341.738 171.355 342.051 171.311 342.363 171.244C342.441 171.233 342.519 171.199 342.608 171.188C342.876 171.121 343.155 171.065 343.411 170.976C343.501 170.943 343.59 170.909 343.679 170.887C343.924 170.798 344.181 170.72 344.415 170.619C344.505 170.586 344.594 170.541 344.683 170.496C344.917 170.396 345.151 170.284 345.386 170.162C345.475 170.117 345.553 170.061 345.631 170.017C345.854 169.883 346.077 169.76 346.3 169.615C346.378 169.571 346.445 169.515 346.523 169.459C346.747 169.303 346.958 169.147 347.159 168.979C347.226 168.924 347.282 168.868 347.349 168.823C347.472 168.723 347.594 168.622 347.706 168.522C347.706 168.511 347.706 168.511 347.695 168.5C349.914 166.459 351.309 163.547 351.309 160.313ZM345.665 165.856C342.642 163.826 337.689 163.826 334.644 165.856C334.153 166.18 333.752 166.559 333.417 166.972C331.722 165.254 330.673 162.9 330.673 160.313C330.673 155.081 334.923 150.831 340.154 150.831C345.386 150.831 349.635 155.081 349.635 160.313C349.635 162.9 348.587 165.254 346.892 166.972C346.568 166.559 346.155 166.18 345.665 165.856Z" fill="white"/>
    <path d="M340.154 154.657C337.845 154.657 335.972 156.531 335.972 158.84C335.972 161.104 337.745 162.945 340.099 163.012H340.199H340.277H340.299C342.553 162.933 344.326 161.104 344.337 158.84C344.337 156.531 342.463 154.657 340.154 154.657Z" fill="white"/>
    <g clip-path="url(#clip0_1226_130)">
        <path d="M289.686 173.483L284.697 168.293H283.257C281.457 168.293 280 166.793 280 164.939V152.512C280 150.659 281.457 149.158 283.257 149.158H303.384C305.184 149.158 306.642 150.659 306.642 152.512V164.957C306.642 166.811 305.184 168.311 303.384 168.311H294.727L294.178 168.911L289.686 173.483ZM283.257 150.217C282.023 150.217 281.029 151.241 281.029 152.512V164.957C281.029 166.228 282.023 167.252 283.257 167.252H285.126L285.966 168.135L289.703 172.018L293.458 168.187L294.281 167.27H303.384C304.619 167.27 305.613 166.246 305.613 164.975V152.512C305.613 151.241 304.619 150.217 303.384 150.217H283.257Z" fill="white"/>
        <path d="M303.693 152.494H283.206V154.613H303.693V152.494Z" fill="white"/>
        <path d="M288.401 156.802H283.086V164.957H288.401V156.802Z" fill="white"/>
        <path d="M303.676 157.155H291.315V159.273H303.676V157.155Z" fill="white"/>
        <path d="M303.676 161.938H291.315V164.057H303.676V161.938Z" fill="white"/>
    </g>
    <g clip-path="url(#clip1_1226_130)">
        <path d="M380.619 148C381.534 148 382.274 148.647 382.274 149.448V150.896H388.893V149.448C388.893 148.647 389.632 148 390.548 148C391.463 148 392.202 148.647 392.202 149.448V150.896H394.685C396.055 150.896 397.167 151.869 397.167 153.068V155.24H374V153.068C374 151.869 375.112 150.896 376.482 150.896H378.964V149.448C378.964 148.647 379.704 148 380.619 148ZM374 156.687H397.167V168.995C397.167 170.194 396.055 171.167 394.685 171.167H376.482C375.112 171.167 374 170.194 374 168.995V156.687ZM377.31 160.307V161.755C377.31 162.153 377.682 162.479 378.137 162.479H379.792C380.247 162.479 380.619 162.153 380.619 161.755V160.307C380.619 159.909 380.247 159.583 379.792 159.583H378.137C377.682 159.583 377.31 159.909 377.31 160.307ZM383.929 160.307V161.755C383.929 162.153 384.301 162.479 384.756 162.479H386.411C386.866 162.479 387.238 162.153 387.238 161.755V160.307C387.238 159.909 386.866 159.583 386.411 159.583H384.756C384.301 159.583 383.929 159.909 383.929 160.307ZM391.375 159.583C390.92 159.583 390.548 159.909 390.548 160.307V161.755C390.548 162.153 390.92 162.479 391.375 162.479H393.03C393.485 162.479 393.857 162.153 393.857 161.755V160.307C393.857 159.909 393.485 159.583 393.03 159.583H391.375ZM377.31 166.099V167.547C377.31 167.945 377.682 168.271 378.137 168.271H379.792C380.247 168.271 380.619 167.945 380.619 167.547V166.099C380.619 165.701 380.247 165.375 379.792 165.375H378.137C377.682 165.375 377.31 165.701 377.31 166.099ZM384.756 165.375C384.301 165.375 383.929 165.701 383.929 166.099V167.547C383.929 167.945 384.301 168.271 384.756 168.271H386.411C386.866 168.271 387.238 167.945 387.238 167.547V166.099C387.238 165.701 386.866 165.375 386.411 165.375H384.756ZM390.548 166.099V167.547C390.548 167.945 390.92 168.271 391.375 168.271H393.03C393.485 168.271 393.857 167.945 393.857 167.547V166.099C393.857 165.701 393.485 165.375 393.03 165.375H391.375C390.92 165.375 390.548 165.701 390.548 166.099Z" fill="white"/>
    </g>
    <path d="M256.475 152.365L252.738 148.628C252.338 148.227 251.794 148 251.228 148H242.138C240.958 148.004 240 148.962 240 150.142V168.671C240 169.851 240.958 170.809 242.138 170.809H254.965C256.146 170.809 257.103 169.851 257.103 168.671V153.879C257.103 153.314 256.876 152.766 256.475 152.365ZM254.792 153.706H251.402V150.316L254.792 153.706ZM242.138 168.671V150.142H249.264V154.775C249.264 155.367 249.741 155.843 250.333 155.843H254.965V168.671H242.138Z" fill="white"/>
    <defs>
        <filter id="filter0_d_1226_130" x="215.267" y="76" width="218.292" height="114.042" filterUnits="userSpaceOnUse" color-interpolation-filters="sRGB">
            <feFlood flood-opacity="0" result="BackgroundImageFix"/>
            <feColorMatrix in="SourceAlpha" type="matrix" values="0 0 0 0 0 0 0 0 0 0 0 0 0 0 0 0 0 0 127 0" result="hardAlpha"/>
            <feOffset dy="2"/>
            <feGaussianBlur stdDeviation="1"/>
            <feComposite in2="hardAlpha" operator="out"/>
            <feColorMatrix type="matrix" values="0 0 0 0 0 0 0 0 0 0 0 0 0 0 0 0 0 0 0.11 0"/>
            <feBlend mode="normal" in2="BackgroundImageFix" result="effect1_dropShadow_1226_130"/>
            <feBlend mode="normal" in="SourceGraphic" in2="effect1_dropShadow_1226_130" result="shape"/>
        </filter>
        <clipPath id="clip0_1226_130">
            <rect width="26.6417" height="24.325" fill="white" transform="translate(280 149.158)"/>
        </clipPath>
        <clipPath id="clip1_1226_130">
            <rect width="23.1667" height="23.1667" fill="white" transform="translate(374 148)"/>
        </clipPath>
    </defs>
</svg>
