<svg width="501" height="261" viewBox="0 0 501 261" fill="none" xmlns="http://www.w3.org/2000/svg">
<rect width="501" height="261" fill="white"/>
<rect x="76" y="198" width="353" height="15" rx="5" fill="#E3E3E3"/>
<rect x="76" y="173" width="353" height="15" rx="5" fill="#E3E3E3"/>
<rect x="76" y="49" width="353" height="15" rx="5" fill="#E3E3E3"/>
<rect x="76" y="74" width="353" height="15" rx="5" fill="#E3E3E3"/>
<rect y="103" width="501" height="51" fill="#376C74"/>
<path d="M85.792 122.744V125.56H85.344C85.312 124.2 84.576 123.72 83.44 123.704L82.144 123.688V131.624C82.48 132.376 83.296 132.472 84 132.504V133H78.08V132.504C78.784 132.472 79.744 132.328 79.968 131.848V123.688L78.656 123.704C77.52 123.72 76.816 124.2 76.784 125.56H76.32V122.744H76.72C76.928 122.808 77.136 122.856 77.648 122.856H84.464C84.848 122.856 85.184 122.808 85.392 122.744H85.792ZM91.7696 131.704V132.28C91.3856 132.68 90.3616 133.144 89.4816 133.144C88.6176 133.144 88.2976 132.488 88.2816 132.12C87.7376 132.696 86.8736 133.144 86.2976 133.144C85.5456 133.144 84.7456 132.536 84.7456 131.608C84.7456 131.176 84.8256 130.552 85.0656 130.184L88.2816 129.016L88.2976 127.992C88.3136 127.256 87.9296 126.584 87.4496 126.584C87.1616 126.584 86.9376 127.064 86.9056 127.928L84.9056 128.168V127.864C85.4176 126.52 87.3376 125.848 88.1376 125.848C89.7536 125.848 90.3296 126.616 90.3136 127.848L90.2496 131.24C90.2336 131.896 90.5536 132.056 90.8736 132.056C91.2256 132.056 91.4016 131.96 91.7696 131.704ZM88.2656 131.704L88.2816 129.528C87.9776 129.704 87.2576 130.056 86.9536 130.28C86.9216 130.488 86.8416 130.808 86.8416 131.128C86.8416 131.592 87.0496 131.976 87.3536 131.976C87.7376 131.976 87.9936 131.912 88.2656 131.704ZM99.2916 132.52V133L95.1796 132.984V132.504C95.6916 132.472 95.8676 132.392 96.0436 132.264L94.9076 130.312L93.5636 132.184C93.7076 132.328 93.8836 132.488 94.3476 132.52V133H91.5796V132.52C92.2356 132.456 92.7156 132.136 93.0036 131.768L94.5396 129.832L92.9716 127.256C92.7636 126.904 92.2996 126.616 91.6436 126.552V126.072H95.7716V126.552C95.2596 126.584 95.0836 126.696 94.9076 126.824L95.9636 128.696L97.2436 126.888C97.0836 126.776 96.9876 126.632 96.4276 126.552V126.072H99.2116V126.552C98.5716 126.632 98.1236 126.92 97.8036 127.32L96.3316 129.176L97.9636 131.8C98.2516 132.248 98.6676 132.456 99.2916 132.52ZM106.724 129.496C106.724 131.608 105.156 133.144 103.028 133.144C100.852 133.144 99.5719 131.704 99.5719 129.432C99.5719 127.352 101.108 125.848 103.268 125.848C105.444 125.848 106.724 127.336 106.724 129.496ZM104.58 129.896C104.58 127.816 104.068 126.504 102.932 126.504C102.212 126.504 101.716 127.672 101.716 129.048C101.716 131.048 102.228 132.488 103.3 132.488C104.132 132.488 104.58 131.352 104.58 129.896ZM115.925 132.472V133H111.925V132.504C112.421 132.424 112.565 132.296 112.677 132.024V128.696C112.677 127.832 112.245 127.096 111.637 127.096C111.333 127.096 110.821 127.16 110.485 127.416V132.04C110.629 132.36 110.901 132.472 111.285 132.52V133H107.573V132.52C108.181 132.472 108.389 132.312 108.517 132.04V127.88C108.517 127.56 108.261 127.208 107.541 127.016V126.584L110.213 125.832H110.485V126.968C111.157 126.44 112.325 125.848 112.885 125.848C114.245 125.848 114.693 126.728 114.693 128.024V132.136C114.965 132.376 115.493 132.424 115.925 132.472ZM123.49 129.496C123.49 131.608 121.922 133.144 119.794 133.144C117.618 133.144 116.338 131.704 116.338 129.432C116.338 127.352 117.874 125.848 120.034 125.848C122.21 125.848 123.49 127.336 123.49 129.496ZM121.346 129.896C121.346 127.816 120.834 126.504 119.698 126.504C118.978 126.504 118.482 127.672 118.482 129.048C118.482 131.048 118.994 132.488 120.066 132.488C120.898 132.488 121.346 131.352 121.346 129.896ZM136.787 132.456V133C136.339 132.984 135.347 132.952 134.579 132.952C134.003 132.952 133.203 133 132.819 133.016V132.52C133.379 132.44 133.491 132.296 133.619 132.024L133.571 128.712C133.555 127.896 133.219 127.128 132.579 127.128C132.259 127.128 131.731 127.208 131.411 127.48V132.04C131.555 132.344 131.699 132.456 132.211 132.52V133H128.659V132.52C129.139 132.472 129.315 132.312 129.411 132.04V128.696C129.411 127.96 129.091 127.096 128.435 127.096C128.147 127.096 127.587 127.192 127.251 127.448V132.04C127.411 132.36 127.603 132.456 128.051 132.52V133H124.387V132.52C125.059 132.456 125.155 132.312 125.283 132.04V127.896C125.283 127.56 125.107 127.24 124.403 127V126.616L126.979 125.816H127.251V126.968C127.955 126.44 128.963 125.848 129.603 125.848C130.579 125.848 131.107 126.312 131.347 127.048C132.003 126.52 133.155 125.864 133.763 125.864C135.155 125.864 135.555 126.728 135.571 128.056L135.619 132.152C135.939 132.376 136.307 132.408 136.787 132.456ZM144.337 126.072V126.552C143.681 126.584 143.313 127.032 143.153 127.448L141.249 132.344C140.721 133.704 140.273 134.984 139.761 136.264C139.553 136.776 139.185 137.128 138.593 137.128C137.905 137.128 137.505 136.584 137.505 136.04C137.505 135.48 137.873 134.968 138.593 134.968C138.865 134.968 139.201 135.112 139.377 135.304L140.161 133.448L137.697 127.272C137.537 126.888 137.249 126.584 136.593 126.552V126.072H140.673V126.552C140.145 126.584 139.873 126.712 139.665 126.84L141.217 130.776L142.497 127.112C142.401 126.872 142.033 126.584 141.425 126.552V126.072H144.337ZM148.334 127.368C148.334 128.072 147.758 128.68 147.022 128.68C146.318 128.68 145.726 128.072 145.726 127.368C145.726 126.664 146.318 126.072 147.022 126.072C147.774 126.072 148.334 126.664 148.334 127.368ZM148.334 131.864C148.334 132.568 147.758 133.176 147.022 133.176C146.318 133.176 145.726 132.568 145.726 131.864C145.726 131.16 146.318 130.568 147.022 130.568C147.774 130.568 148.334 131.16 148.334 131.864Z" fill="white"/>
<path d="M268.792 122.744V125.56H268.344C268.312 124.2 267.576 123.72 266.44 123.704L265.144 123.688V131.624C265.48 132.376 266.296 132.472 267 132.504V133H261.08V132.504C261.784 132.472 262.744 132.328 262.968 131.848V123.688L261.656 123.704C260.52 123.72 259.816 124.2 259.784 125.56H259.32V122.744H259.72C259.928 122.808 260.136 122.856 260.648 122.856H267.464C267.848 122.856 268.184 122.808 268.392 122.744H268.792ZM274.77 131.704V132.28C274.386 132.68 273.362 133.144 272.482 133.144C271.618 133.144 271.298 132.488 271.282 132.12C270.738 132.696 269.874 133.144 269.298 133.144C268.546 133.144 267.746 132.536 267.746 131.608C267.746 131.176 267.826 130.552 268.066 130.184L271.282 129.016L271.298 127.992C271.314 127.256 270.93 126.584 270.45 126.584C270.162 126.584 269.938 127.064 269.906 127.928L267.906 128.168V127.864C268.418 126.52 270.338 125.848 271.138 125.848C272.754 125.848 273.33 126.616 273.314 127.848L273.25 131.24C273.234 131.896 273.554 132.056 273.874 132.056C274.226 132.056 274.402 131.96 274.77 131.704ZM271.266 131.704L271.282 129.528C270.978 129.704 270.258 130.056 269.954 130.28C269.922 130.488 269.842 130.808 269.842 131.128C269.842 131.592 270.05 131.976 270.354 131.976C270.738 131.976 270.994 131.912 271.266 131.704ZM282.292 132.52V133L278.18 132.984V132.504C278.692 132.472 278.868 132.392 279.044 132.264L277.908 130.312L276.564 132.184C276.708 132.328 276.884 132.488 277.348 132.52V133H274.58V132.52C275.236 132.456 275.716 132.136 276.004 131.768L277.54 129.832L275.972 127.256C275.764 126.904 275.3 126.616 274.644 126.552V126.072H278.772V126.552C278.26 126.584 278.084 126.696 277.908 126.824L278.964 128.696L280.244 126.888C280.084 126.776 279.988 126.632 279.428 126.552V126.072H282.212V126.552C281.572 126.632 281.124 126.92 280.804 127.32L279.332 129.176L280.964 131.8C281.252 132.248 281.668 132.456 282.292 132.52ZM289.724 129.496C289.724 131.608 288.156 133.144 286.028 133.144C283.852 133.144 282.572 131.704 282.572 129.432C282.572 127.352 284.108 125.848 286.268 125.848C288.444 125.848 289.724 127.336 289.724 129.496ZM287.58 129.896C287.58 127.816 287.068 126.504 285.932 126.504C285.212 126.504 284.716 127.672 284.716 129.048C284.716 131.048 285.228 132.488 286.3 132.488C287.132 132.488 287.58 131.352 287.58 129.896ZM298.925 132.472V133H294.925V132.504C295.421 132.424 295.565 132.296 295.677 132.024V128.696C295.677 127.832 295.245 127.096 294.637 127.096C294.333 127.096 293.821 127.16 293.485 127.416V132.04C293.629 132.36 293.901 132.472 294.285 132.52V133H290.573V132.52C291.181 132.472 291.389 132.312 291.517 132.04V127.88C291.517 127.56 291.261 127.208 290.541 127.016V126.584L293.213 125.832H293.485V126.968C294.157 126.44 295.325 125.848 295.885 125.848C297.245 125.848 297.693 126.728 297.693 128.024V132.136C297.965 132.376 298.493 132.424 298.925 132.472ZM306.49 129.496C306.49 131.608 304.922 133.144 302.794 133.144C300.618 133.144 299.338 131.704 299.338 129.432C299.338 127.352 300.874 125.848 303.034 125.848C305.21 125.848 306.49 127.336 306.49 129.496ZM304.346 129.896C304.346 127.816 303.834 126.504 302.698 126.504C301.978 126.504 301.482 127.672 301.482 129.048C301.482 131.048 301.994 132.488 303.066 132.488C303.898 132.488 304.346 131.352 304.346 129.896ZM319.787 132.456V133C319.339 132.984 318.347 132.952 317.579 132.952C317.003 132.952 316.203 133 315.819 133.016V132.52C316.379 132.44 316.491 132.296 316.619 132.024L316.571 128.712C316.555 127.896 316.219 127.128 315.579 127.128C315.259 127.128 314.731 127.208 314.411 127.48V132.04C314.555 132.344 314.699 132.456 315.211 132.52V133H311.659V132.52C312.139 132.472 312.315 132.312 312.411 132.04V128.696C312.411 127.96 312.091 127.096 311.435 127.096C311.147 127.096 310.587 127.192 310.251 127.448V132.04C310.411 132.36 310.603 132.456 311.051 132.52V133H307.387V132.52C308.059 132.456 308.155 132.312 308.283 132.04V127.896C308.283 127.56 308.107 127.24 307.403 127V126.616L309.979 125.816H310.251V126.968C310.955 126.44 311.963 125.848 312.603 125.848C313.579 125.848 314.107 126.312 314.347 127.048C315.003 126.52 316.155 125.864 316.763 125.864C318.155 125.864 318.555 126.728 318.571 128.056L318.619 132.152C318.939 132.376 319.307 132.408 319.787 132.456ZM327.337 126.072V126.552C326.681 126.584 326.313 127.032 326.153 127.448L324.249 132.344C323.721 133.704 323.273 134.984 322.761 136.264C322.553 136.776 322.185 137.128 321.593 137.128C320.905 137.128 320.505 136.584 320.505 136.04C320.505 135.48 320.873 134.968 321.593 134.968C321.865 134.968 322.201 135.112 322.377 135.304L323.161 133.448L320.697 127.272C320.537 126.888 320.249 126.584 319.593 126.552V126.072H323.673V126.552C323.145 126.584 322.873 126.712 322.665 126.84L324.217 130.776L325.497 127.112C325.401 126.872 325.033 126.584 324.425 126.552V126.072H327.337ZM331.334 127.368C331.334 128.072 330.758 128.68 330.022 128.68C329.318 128.68 328.726 128.072 328.726 127.368C328.726 126.664 329.318 126.072 330.022 126.072C330.774 126.072 331.334 126.664 331.334 127.368ZM331.334 131.864C331.334 132.568 330.758 133.176 330.022 133.176C329.318 133.176 328.726 132.568 328.726 131.864C328.726 131.16 329.318 130.568 330.022 130.568C330.774 130.568 331.334 131.16 331.334 131.864Z" fill="white"/>
<path d="M158.904 133.04H156.856V126.08H158.904L159.008 126.528H157.528V132.592H159.008L158.904 133.04ZM164.721 126.4V127.096H162.521V132H161.753V127.096H159.561V126.4H164.721ZM168.242 130.944L167.978 131.736C167.744 131.864 167.525 131.955 167.322 132.008C167.12 132.061 166.898 132.088 166.658 132.088C166.024 132.088 165.52 131.899 165.146 131.52C164.773 131.141 164.586 130.635 164.586 130C164.586 129.413 164.773 128.915 165.146 128.504C165.52 128.093 165.984 127.888 166.538 127.888C167.093 127.888 167.536 128.083 167.866 128.472C168.197 128.856 168.362 129.352 168.362 129.96C168.362 130.013 168.36 130.072 168.354 130.136C168.349 130.2 168.344 130.248 168.338 130.28H165.33C165.384 130.643 165.533 130.925 165.778 131.128C166.029 131.331 166.349 131.432 166.738 131.432C166.973 131.432 167.218 131.389 167.474 131.304C167.736 131.213 167.986 131.091 168.226 130.936L168.242 130.944ZM166.514 128.52C166.189 128.52 165.914 128.635 165.69 128.864C165.472 129.093 165.346 129.387 165.314 129.744H167.634C167.602 129.36 167.488 129.061 167.29 128.848C167.093 128.629 166.834 128.52 166.514 128.52ZM171.599 128.704C171.364 128.704 171.132 128.76 170.903 128.872C170.679 128.984 170.415 129.173 170.111 129.44V132H169.391V128.096L170.111 127.936V128.952C170.442 128.541 170.7 128.269 170.887 128.136C171.079 128.003 171.284 127.936 171.503 127.936C171.551 127.936 171.591 127.939 171.623 127.944C171.66 127.949 171.706 127.957 171.759 127.968L171.815 128.728C171.778 128.717 171.74 128.712 171.703 128.712C171.671 128.707 171.636 128.704 171.599 128.704ZM174.551 128.568C174.365 128.568 174.186 128.621 174.015 128.728C173.85 128.829 173.655 129.005 173.431 129.256V132H172.711V128.096L173.431 127.936V128.72C173.645 128.437 173.858 128.235 174.071 128.112C174.285 127.984 174.517 127.92 174.767 127.92C175.061 127.92 175.314 127.997 175.527 128.152C175.746 128.307 175.906 128.525 176.007 128.808C176.242 128.493 176.471 128.267 176.695 128.128C176.919 127.989 177.17 127.92 177.447 127.92C177.853 127.92 178.178 128.061 178.423 128.344C178.674 128.627 178.799 129.005 178.799 129.48V132H178.071V129.552C178.071 129.243 177.997 129.003 177.847 128.832C177.698 128.656 177.493 128.568 177.231 128.568C177.045 128.568 176.863 128.621 176.687 128.728C176.517 128.835 176.322 129.013 176.103 129.264C176.109 129.285 176.111 129.312 176.111 129.344C176.111 129.371 176.111 129.416 176.111 129.48V132H175.391V129.552C175.391 129.243 175.317 129.003 175.167 128.832C175.018 128.656 174.813 128.568 174.551 128.568ZM179.774 126.08H181.822V133.04H179.774L179.67 132.592H181.15V126.528H179.67L179.774 126.08ZM182.8 133.336L182.584 133.152C182.84 132.811 183.008 132.523 183.088 132.288C183.168 132.053 183.208 131.749 183.208 131.376V131.112H183.952C183.952 131.571 183.88 131.952 183.736 132.256C183.592 132.565 183.28 132.925 182.8 133.336ZM188.951 133.04H186.903V126.08H188.951L189.055 126.528H187.575V132.592H189.055L188.951 133.04ZM194.768 126.4V127.096H192.568V132H191.8V127.096H189.608V126.4H194.768ZM198.289 130.944L198.025 131.736C197.79 131.864 197.572 131.955 197.369 132.008C197.166 132.061 196.945 132.088 196.705 132.088C196.07 132.088 195.566 131.899 195.193 131.52C194.82 131.141 194.633 130.635 194.633 130C194.633 129.413 194.82 128.915 195.193 128.504C195.566 128.093 196.03 127.888 196.585 127.888C197.14 127.888 197.582 128.083 197.913 128.472C198.244 128.856 198.409 129.352 198.409 129.96C198.409 130.013 198.406 130.072 198.401 130.136C198.396 130.2 198.39 130.248 198.385 130.28H195.377C195.43 130.643 195.58 130.925 195.825 131.128C196.076 131.331 196.396 131.432 196.785 131.432C197.02 131.432 197.265 131.389 197.521 131.304C197.782 131.213 198.033 131.091 198.273 130.936L198.289 130.944ZM196.561 128.52C196.236 128.52 195.961 128.635 195.737 128.864C195.518 129.093 195.393 129.387 195.361 129.744H197.681C197.649 129.36 197.534 129.061 197.337 128.848C197.14 128.629 196.881 128.52 196.561 128.52ZM201.646 128.704C201.411 128.704 201.179 128.76 200.95 128.872C200.726 128.984 200.462 129.173 200.158 129.44V132H199.438V128.096L200.158 127.936V128.952C200.488 128.541 200.747 128.269 200.934 128.136C201.126 128.003 201.331 127.936 201.55 127.936C201.598 127.936 201.638 127.939 201.67 127.944C201.707 127.949 201.752 127.957 201.806 127.968L201.862 128.728C201.824 128.717 201.787 128.712 201.75 128.712C201.718 128.707 201.683 128.704 201.646 128.704ZM204.598 128.568C204.411 128.568 204.233 128.621 204.062 128.728C203.897 128.829 203.702 129.005 203.478 129.256V132H202.758V128.096L203.478 127.936V128.72C203.691 128.437 203.905 128.235 204.118 128.112C204.331 127.984 204.563 127.92 204.814 127.92C205.107 127.92 205.361 127.997 205.574 128.152C205.793 128.307 205.953 128.525 206.054 128.808C206.289 128.493 206.518 128.267 206.742 128.128C206.966 127.989 207.217 127.92 207.494 127.92C207.899 127.92 208.225 128.061 208.47 128.344C208.721 128.627 208.846 129.005 208.846 129.48V132H208.118V129.552C208.118 129.243 208.043 129.003 207.894 128.832C207.745 128.656 207.539 128.568 207.278 128.568C207.091 128.568 206.91 128.621 206.734 128.728C206.563 128.835 206.369 129.013 206.15 129.264C206.155 129.285 206.158 129.312 206.158 129.344C206.158 129.371 206.158 129.416 206.158 129.48V132H205.438V129.552C205.438 129.243 205.363 129.003 205.214 128.832C205.065 128.656 204.859 128.568 204.598 128.568ZM209.821 126.08H211.869V133.04H209.821L209.717 132.592H211.197V126.528H209.717L209.821 126.08ZM212.847 133.336L212.631 133.152C212.887 132.811 213.055 132.523 213.135 132.288C213.215 132.053 213.255 131.749 213.255 131.376V131.112H213.999C213.999 131.571 213.927 131.952 213.783 132.256C213.639 132.565 213.327 132.925 212.847 133.336ZM218.998 133.04H216.95V126.08H218.998L219.102 126.528H217.622V132.592H219.102L218.998 133.04ZM224.815 126.4V127.096H222.615V132H221.847V127.096H219.655V126.4H224.815ZM228.336 130.944L228.072 131.736C227.837 131.864 227.619 131.955 227.416 132.008C227.213 132.061 226.992 132.088 226.752 132.088C226.117 132.088 225.613 131.899 225.24 131.52C224.867 131.141 224.68 130.635 224.68 130C224.68 129.413 224.867 128.915 225.24 128.504C225.613 128.093 226.077 127.888 226.632 127.888C227.187 127.888 227.629 128.083 227.96 128.472C228.291 128.856 228.456 129.352 228.456 129.96C228.456 130.013 228.453 130.072 228.448 130.136C228.443 130.2 228.437 130.248 228.432 130.28H225.424C225.477 130.643 225.627 130.925 225.872 131.128C226.123 131.331 226.443 131.432 226.832 131.432C227.067 131.432 227.312 131.389 227.568 131.304C227.829 131.213 228.08 131.091 228.32 130.936L228.336 130.944ZM226.608 128.52C226.283 128.52 226.008 128.635 225.784 128.864C225.565 129.093 225.44 129.387 225.408 129.744H227.728C227.696 129.36 227.581 129.061 227.384 128.848C227.187 128.629 226.928 128.52 226.608 128.52ZM231.693 128.704C231.458 128.704 231.226 128.76 230.997 128.872C230.773 128.984 230.509 129.173 230.205 129.44V132H229.485V128.096L230.205 127.936V128.952C230.535 128.541 230.794 128.269 230.981 128.136C231.173 128.003 231.378 127.936 231.597 127.936C231.645 127.936 231.685 127.939 231.717 127.944C231.754 127.949 231.799 127.957 231.853 127.968L231.909 128.728C231.871 128.717 231.834 128.712 231.797 128.712C231.765 128.707 231.73 128.704 231.693 128.704ZM234.645 128.568C234.458 128.568 234.28 128.621 234.109 128.728C233.944 128.829 233.749 129.005 233.525 129.256V132H232.805V128.096L233.525 127.936V128.72C233.738 128.437 233.952 128.235 234.165 128.112C234.378 127.984 234.61 127.92 234.861 127.92C235.154 127.92 235.408 127.997 235.621 128.152C235.84 128.307 236 128.525 236.101 128.808C236.336 128.493 236.565 128.267 236.789 128.128C237.013 127.989 237.264 127.92 237.541 127.92C237.946 127.92 238.272 128.061 238.517 128.344C238.768 128.627 238.893 129.005 238.893 129.48V132H238.165V129.552C238.165 129.243 238.09 129.003 237.941 128.832C237.792 128.656 237.586 128.568 237.325 128.568C237.138 128.568 236.957 128.621 236.781 128.728C236.61 128.835 236.416 129.013 236.197 129.264C236.202 129.285 236.205 129.312 236.205 129.344C236.205 129.371 236.205 129.416 236.205 129.48V132H235.485V129.552C235.485 129.243 235.41 129.003 235.261 128.832C235.112 128.656 234.906 128.568 234.645 128.568ZM239.868 126.08H241.916V133.04H239.868L239.764 132.592H241.244V126.528H239.764L239.868 126.08Z" fill="white"/>
<path d="M341.904 133.04H339.856V126.08H341.904L342.008 126.528H340.528V132.592H342.008L341.904 133.04ZM347.721 126.4V127.096H345.521V132H344.753V127.096H342.561V126.4H347.721ZM351.242 130.944L350.978 131.736C350.744 131.864 350.525 131.955 350.322 132.008C350.12 132.061 349.898 132.088 349.658 132.088C349.024 132.088 348.52 131.899 348.146 131.52C347.773 131.141 347.586 130.635 347.586 130C347.586 129.413 347.773 128.915 348.146 128.504C348.52 128.093 348.984 127.888 349.538 127.888C350.093 127.888 350.536 128.083 350.866 128.472C351.197 128.856 351.362 129.352 351.362 129.96C351.362 130.013 351.36 130.072 351.354 130.136C351.349 130.2 351.344 130.248 351.338 130.28H348.33C348.384 130.643 348.533 130.925 348.778 131.128C349.029 131.331 349.349 131.432 349.738 131.432C349.973 131.432 350.218 131.389 350.474 131.304C350.736 131.213 350.986 131.091 351.226 130.936L351.242 130.944ZM349.514 128.52C349.189 128.52 348.914 128.635 348.69 128.864C348.472 129.093 348.346 129.387 348.314 129.744H350.634C350.602 129.36 350.488 129.061 350.29 128.848C350.093 128.629 349.834 128.52 349.514 128.52ZM354.599 128.704C354.364 128.704 354.132 128.76 353.903 128.872C353.679 128.984 353.415 129.173 353.111 129.44V132H352.391V128.096L353.111 127.936V128.952C353.442 128.541 353.7 128.269 353.887 128.136C354.079 128.003 354.284 127.936 354.503 127.936C354.551 127.936 354.591 127.939 354.623 127.944C354.66 127.949 354.706 127.957 354.759 127.968L354.815 128.728C354.778 128.717 354.74 128.712 354.703 128.712C354.671 128.707 354.636 128.704 354.599 128.704ZM357.551 128.568C357.365 128.568 357.186 128.621 357.015 128.728C356.85 128.829 356.655 129.005 356.431 129.256V132H355.711V128.096L356.431 127.936V128.72C356.645 128.437 356.858 128.235 357.071 128.112C357.285 127.984 357.517 127.92 357.767 127.92C358.061 127.92 358.314 127.997 358.527 128.152C358.746 128.307 358.906 128.525 359.007 128.808C359.242 128.493 359.471 128.267 359.695 128.128C359.919 127.989 360.17 127.92 360.447 127.92C360.853 127.92 361.178 128.061 361.423 128.344C361.674 128.627 361.799 129.005 361.799 129.48V132H361.071V129.552C361.071 129.243 360.997 129.003 360.847 128.832C360.698 128.656 360.493 128.568 360.231 128.568C360.045 128.568 359.863 128.621 359.687 128.728C359.517 128.835 359.322 129.013 359.103 129.264C359.109 129.285 359.111 129.312 359.111 129.344C359.111 129.371 359.111 129.416 359.111 129.48V132H358.391V129.552C358.391 129.243 358.317 129.003 358.167 128.832C358.018 128.656 357.813 128.568 357.551 128.568ZM362.774 126.08H364.822V133.04H362.774L362.67 132.592H364.15V126.528H362.67L362.774 126.08ZM365.8 133.336L365.584 133.152C365.84 132.811 366.008 132.523 366.088 132.288C366.168 132.053 366.208 131.749 366.208 131.376V131.112H366.952C366.952 131.571 366.88 131.952 366.736 132.256C366.592 132.565 366.28 132.925 365.8 133.336ZM371.951 133.04H369.903V126.08H371.951L372.055 126.528H370.575V132.592H372.055L371.951 133.04ZM377.768 126.4V127.096H375.568V132H374.8V127.096H372.608V126.4H377.768ZM381.289 130.944L381.025 131.736C380.79 131.864 380.572 131.955 380.369 132.008C380.166 132.061 379.945 132.088 379.705 132.088C379.07 132.088 378.566 131.899 378.193 131.52C377.82 131.141 377.633 130.635 377.633 130C377.633 129.413 377.82 128.915 378.193 128.504C378.566 128.093 379.03 127.888 379.585 127.888C380.14 127.888 380.582 128.083 380.913 128.472C381.244 128.856 381.409 129.352 381.409 129.96C381.409 130.013 381.406 130.072 381.401 130.136C381.396 130.2 381.39 130.248 381.385 130.28H378.377C378.43 130.643 378.58 130.925 378.825 131.128C379.076 131.331 379.396 131.432 379.785 131.432C380.02 131.432 380.265 131.389 380.521 131.304C380.782 131.213 381.033 131.091 381.273 130.936L381.289 130.944ZM379.561 128.52C379.236 128.52 378.961 128.635 378.737 128.864C378.518 129.093 378.393 129.387 378.361 129.744H380.681C380.649 129.36 380.534 129.061 380.337 128.848C380.14 128.629 379.881 128.52 379.561 128.52ZM384.646 128.704C384.411 128.704 384.179 128.76 383.95 128.872C383.726 128.984 383.462 129.173 383.158 129.44V132H382.438V128.096L383.158 127.936V128.952C383.488 128.541 383.747 128.269 383.934 128.136C384.126 128.003 384.331 127.936 384.55 127.936C384.598 127.936 384.638 127.939 384.67 127.944C384.707 127.949 384.752 127.957 384.806 127.968L384.862 128.728C384.824 128.717 384.787 128.712 384.75 128.712C384.718 128.707 384.683 128.704 384.646 128.704ZM387.598 128.568C387.411 128.568 387.233 128.621 387.062 128.728C386.897 128.829 386.702 129.005 386.478 129.256V132H385.758V128.096L386.478 127.936V128.72C386.691 128.437 386.905 128.235 387.118 128.112C387.331 127.984 387.563 127.92 387.814 127.92C388.107 127.92 388.361 127.997 388.574 128.152C388.793 128.307 388.953 128.525 389.054 128.808C389.289 128.493 389.518 128.267 389.742 128.128C389.966 127.989 390.217 127.92 390.494 127.92C390.899 127.92 391.225 128.061 391.47 128.344C391.721 128.627 391.846 129.005 391.846 129.48V132H391.118V129.552C391.118 129.243 391.043 129.003 390.894 128.832C390.745 128.656 390.539 128.568 390.278 128.568C390.091 128.568 389.91 128.621 389.734 128.728C389.563 128.835 389.369 129.013 389.15 129.264C389.155 129.285 389.158 129.312 389.158 129.344C389.158 129.371 389.158 129.416 389.158 129.48V132H388.438V129.552C388.438 129.243 388.363 129.003 388.214 128.832C388.065 128.656 387.859 128.568 387.598 128.568ZM392.821 126.08H394.869V133.04H392.821L392.717 132.592H394.197V126.528H392.717L392.821 126.08ZM395.847 133.336L395.631 133.152C395.887 132.811 396.055 132.523 396.135 132.288C396.215 132.053 396.255 131.749 396.255 131.376V131.112H396.999C396.999 131.571 396.927 131.952 396.783 132.256C396.639 132.565 396.327 132.925 395.847 133.336ZM401.998 133.04H399.95V126.08H401.998L402.102 126.528H400.622V132.592H402.102L401.998 133.04ZM407.815 126.4V127.096H405.615V132H404.847V127.096H402.655V126.4H407.815ZM411.336 130.944L411.072 131.736C410.837 131.864 410.619 131.955 410.416 132.008C410.213 132.061 409.992 132.088 409.752 132.088C409.117 132.088 408.613 131.899 408.24 131.52C407.867 131.141 407.68 130.635 407.68 130C407.68 129.413 407.867 128.915 408.24 128.504C408.613 128.093 409.077 127.888 409.632 127.888C410.187 127.888 410.629 128.083 410.96 128.472C411.291 128.856 411.456 129.352 411.456 129.96C411.456 130.013 411.453 130.072 411.448 130.136C411.443 130.2 411.437 130.248 411.432 130.28H408.424C408.477 130.643 408.627 130.925 408.872 131.128C409.123 131.331 409.443 131.432 409.832 131.432C410.067 131.432 410.312 131.389 410.568 131.304C410.829 131.213 411.08 131.091 411.32 130.936L411.336 130.944ZM409.608 128.52C409.283 128.52 409.008 128.635 408.784 128.864C408.565 129.093 408.44 129.387 408.408 129.744H410.728C410.696 129.36 410.581 129.061 410.384 128.848C410.187 128.629 409.928 128.52 409.608 128.52ZM414.693 128.704C414.458 128.704 414.226 128.76 413.997 128.872C413.773 128.984 413.509 129.173 413.205 129.44V132H412.485V128.096L413.205 127.936V128.952C413.535 128.541 413.794 128.269 413.981 128.136C414.173 128.003 414.378 127.936 414.597 127.936C414.645 127.936 414.685 127.939 414.717 127.944C414.754 127.949 414.799 127.957 414.853 127.968L414.909 128.728C414.871 128.717 414.834 128.712 414.797 128.712C414.765 128.707 414.73 128.704 414.693 128.704ZM417.645 128.568C417.458 128.568 417.28 128.621 417.109 128.728C416.944 128.829 416.749 129.005 416.525 129.256V132H415.805V128.096L416.525 127.936V128.72C416.738 128.437 416.952 128.235 417.165 128.112C417.378 127.984 417.61 127.92 417.861 127.92C418.154 127.92 418.408 127.997 418.621 128.152C418.84 128.307 419 128.525 419.101 128.808C419.336 128.493 419.565 128.267 419.789 128.128C420.013 127.989 420.264 127.92 420.541 127.92C420.946 127.92 421.272 128.061 421.517 128.344C421.768 128.627 421.893 129.005 421.893 129.48V132H421.165V129.552C421.165 129.243 421.09 129.003 420.941 128.832C420.792 128.656 420.586 128.568 420.325 128.568C420.138 128.568 419.957 128.621 419.781 128.728C419.61 128.835 419.416 129.013 419.197 129.264C419.202 129.285 419.205 129.312 419.205 129.344C419.205 129.371 419.205 129.416 419.205 129.48V132H418.485V129.552C418.485 129.243 418.41 129.003 418.261 128.832C418.112 128.656 417.906 128.568 417.645 128.568ZM422.868 126.08H424.916V133.04H422.868L422.764 132.592H424.244V126.528H422.764L422.868 126.08Z" fill="white"/>
</svg>
