<svg width="501" height="261" viewBox="0 0 501 261" fill="none" xmlns="http://www.w3.org/2000/svg">
<rect width="501" height="261" fill="white"/>
<path d="M59.568 33.824C59.568 31.568 58.224 30.608 55.296 29.36C52.416 28.136 51.912 27.392 51.912 25.88C51.912 24.584 52.824 23.384 55.08 23.384C56.184 23.384 56.928 23.864 57.312 24.08C58.248 24.608 58.608 25.808 58.704 26.888H59.232V23.144C58.416 22.784 57.288 22.424 55.704 22.424C52.32 22.424 49.848 24.224 49.848 26.864C49.848 29.144 51.168 30.2 54.336 31.424C56.472 32.24 57.504 33.056 57.504 34.736C57.504 36.2 56.448 37.448 54.312 37.448C53.232 37.448 52.248 36.944 51.624 36.536C50.688 35.912 50.016 34.664 49.8 33.608H49.272L49.704 37.424C50.616 37.832 52.032 38.36 53.88 38.36C57.096 38.36 59.568 36.656 59.568 33.824ZM65.238 23.12C65.238 22.52 64.71 21.872 63.966 21.872C63.198 21.872 62.67 22.52 62.67 23.12C62.67 23.696 63.198 24.32 63.966 24.32C64.71 24.32 65.238 23.696 65.238 23.12ZM66.582 37.424C65.382 37.304 65.238 37.184 64.974 36.704V27.32H64.686L61.59 28.448V28.88C62.814 29.192 63.126 29.624 63.126 30.176L63.102 36.704C62.862 37.112 62.67 37.328 61.494 37.424V38H66.582V37.424ZM74.7107 36.536C74.4707 36.632 73.6787 36.968 73.1267 36.968C71.7107 36.968 70.8707 36.128 70.8707 34.784C70.8707 32.648 70.9187 31.28 70.9667 28.856L74.5187 28.88V27.752H70.9427L70.9667 25.52H70.6547L67.7987 28.352V28.856L69.1187 28.832C69.0707 31.112 68.9267 32.816 68.9267 35.096C68.9267 37.016 69.5747 38.192 71.7587 38.192C72.6227 38.192 74.0867 37.52 74.7107 37.016V36.536ZM83.9364 35.504C82.9044 36.392 82.4004 36.8 81.0324 36.8C79.0404 36.8 77.3604 35.12 77.3604 32.6C77.3604 32.048 77.3844 31.52 77.4084 31.304L83.9604 31.352V30.944C83.9604 28.664 82.8324 27.392 80.4084 27.392C77.5044 27.392 75.3924 29.768 75.3924 33.296C75.3924 36.2 77.2884 38.192 79.7604 38.192C81.7284 38.192 82.8324 37.4 84.2964 36.056L83.9364 35.504ZM77.5044 30.656C77.7684 29.072 78.7044 28.112 79.9764 28.112C81.0564 28.112 82.0164 29.312 82.0164 30.608L77.5044 30.656ZM105.235 22.616H104.779C104.467 22.712 103.939 22.784 103.339 22.784H92.8029C92.0109 22.784 91.6749 22.712 91.3629 22.616H90.9069V26.672H91.4109C91.4589 24.632 92.5149 23.912 94.2909 23.888L96.9789 23.864V36.464C96.6429 37.184 95.1309 37.4 94.0269 37.448V38H102.067V37.448C100.963 37.4 99.6909 37.256 99.1629 36.128V23.864L101.851 23.888C103.627 23.912 104.707 24.632 104.755 26.672H105.235V22.616ZM109.488 23.12C109.488 22.52 108.96 21.872 108.216 21.872C107.448 21.872 106.92 22.52 106.92 23.12C106.92 23.696 107.448 24.32 108.216 24.32C108.96 24.32 109.488 23.696 109.488 23.12ZM110.832 37.424C109.632 37.304 109.488 37.184 109.224 36.704V27.32H108.936L105.84 28.448V28.88C107.064 29.192 107.376 29.624 107.376 30.176L107.352 36.704C107.112 37.112 106.92 37.328 105.744 37.424V38H110.832V37.424ZM118.961 36.536C118.721 36.632 117.929 36.968 117.377 36.968C115.961 36.968 115.121 36.128 115.121 34.784C115.121 32.648 115.169 31.28 115.217 28.856L118.769 28.88V27.752H115.193L115.217 25.52H114.905L112.049 28.352V28.856L113.369 28.832C113.321 31.112 113.177 32.816 113.177 35.096C113.177 37.016 113.825 38.192 116.009 38.192C116.873 38.192 118.337 37.52 118.961 37.016V36.536ZM124.706 37.448C123.506 37.328 123.218 37.208 122.978 36.728V22.16L123.434 21.344V21.008H123.05L119.45 22.088V22.544C121.106 22.712 121.058 23.048 121.058 23.864V36.728C120.866 37.136 120.578 37.376 119.426 37.448V38H124.706V37.448ZM134.374 35.504C133.342 36.392 132.838 36.8 131.47 36.8C129.478 36.8 127.798 35.12 127.798 32.6C127.798 32.048 127.822 31.52 127.846 31.304L134.398 31.352V30.944C134.398 28.664 133.27 27.392 130.846 27.392C127.942 27.392 125.83 29.768 125.83 33.296C125.83 36.2 127.726 38.192 130.198 38.192C132.166 38.192 133.27 37.4 134.734 36.056L134.374 35.504ZM127.942 30.656C128.206 29.072 129.142 28.112 130.414 28.112C131.494 28.112 132.454 29.312 132.454 30.608L127.942 30.656Z" fill="black"/>
<path d="M436.92 35H436V28H436.89L441.31 33.03V28H442.22V35.05H441.89L436.92 29.39V35ZM448.152 31.96V34.88L447.252 35.08V34.19C446.879 34.49 446.526 34.7133 446.192 34.86C445.866 35.0067 445.546 35.08 445.232 35.08C444.792 35.08 444.436 34.96 444.162 34.72C443.889 34.4733 443.752 34.1467 443.752 33.74C443.752 33.1667 444.039 32.7433 444.612 32.47C445.186 32.19 446.066 32.0433 447.252 32.03V32.01C447.252 31.5967 447.152 31.2833 446.952 31.07C446.759 30.85 446.476 30.74 446.102 30.74C445.822 30.74 445.532 30.8 445.232 30.92C444.939 31.04 444.636 31.22 444.322 31.46L444.302 31.45L444.492 30.44C444.759 30.26 445.036 30.1267 445.322 30.04C445.616 29.9533 445.922 29.91 446.242 29.91C446.856 29.91 447.326 30.0867 447.652 30.44C447.986 30.7933 448.152 31.3 448.152 31.96ZM444.662 33.7C444.662 33.8867 444.729 34.0367 444.862 34.15C444.996 34.2567 445.179 34.31 445.412 34.31C445.646 34.31 445.912 34.2533 446.212 34.14C446.512 34.0267 446.859 33.85 447.252 33.61V32.61C446.386 32.6633 445.736 32.78 445.302 32.96C444.876 33.1333 444.662 33.38 444.662 33.7ZM453.28 30H454.26L451.62 35.14H451.43L448.97 30H449.96L451.56 33.53L453.28 30ZM460.011 31.33C460.498 31.47 460.875 31.7 461.141 32.02C461.408 32.34 461.541 32.71 461.541 33.13C461.541 33.6967 461.315 34.17 460.861 34.55C460.415 34.9233 459.868 35.11 459.221 35.11C458.868 35.11 458.551 35.0733 458.271 35C457.998 34.92 457.671 34.7633 457.291 34.53L457.121 33.44L457.141 33.43C457.561 33.7367 457.925 33.9533 458.231 34.08C458.538 34.2 458.858 34.26 459.191 34.26C459.591 34.26 459.921 34.1533 460.181 33.94C460.448 33.7267 460.581 33.4533 460.581 33.12C460.581 32.72 460.395 32.4033 460.021 32.17C459.655 31.93 459.075 31.7533 458.281 31.64V31.28C459.055 31.0333 459.605 30.79 459.931 30.55C460.258 30.31 460.421 30.0233 460.421 29.69C460.421 29.4033 460.318 29.1733 460.111 29C459.911 28.8267 459.645 28.74 459.311 28.74C459.025 28.74 458.728 28.8067 458.421 28.94C458.115 29.0667 457.765 29.2767 457.371 29.57H457.351V28.54C457.751 28.2867 458.101 28.1167 458.401 28.03C458.701 27.9367 459.025 27.89 459.371 27.89C459.985 27.89 460.471 28.0433 460.831 28.35C461.191 28.6567 461.371 29.07 461.371 29.59C461.371 29.95 461.255 30.2767 461.021 30.57C460.795 30.8633 460.458 31.1167 460.011 31.33Z" fill="black"/>
<path d="M394.92 35H394V28H394.89L399.31 33.03V28H400.22V35.05H399.89L394.92 29.39V35ZM406.152 31.96V34.88L405.252 35.08V34.19C404.879 34.49 404.526 34.7133 404.192 34.86C403.866 35.0067 403.546 35.08 403.232 35.08C402.792 35.08 402.436 34.96 402.162 34.72C401.889 34.4733 401.752 34.1467 401.752 33.74C401.752 33.1667 402.039 32.7433 402.612 32.47C403.186 32.19 404.066 32.0433 405.252 32.03V32.01C405.252 31.5967 405.152 31.2833 404.952 31.07C404.759 30.85 404.476 30.74 404.102 30.74C403.822 30.74 403.532 30.8 403.232 30.92C402.939 31.04 402.636 31.22 402.322 31.46L402.302 31.45L402.492 30.44C402.759 30.26 403.036 30.1267 403.322 30.04C403.616 29.9533 403.922 29.91 404.242 29.91C404.856 29.91 405.326 30.0867 405.652 30.44C405.986 30.7933 406.152 31.3 406.152 31.96ZM402.662 33.7C402.662 33.8867 402.729 34.0367 402.862 34.15C402.996 34.2567 403.179 34.31 403.412 34.31C403.646 34.31 403.912 34.2533 404.212 34.14C404.512 34.0267 404.859 33.85 405.252 33.61V32.61C404.386 32.6633 403.736 32.78 403.302 32.96C402.876 33.1333 402.662 33.38 402.662 33.7ZM411.28 30H412.26L409.62 35.14H409.43L406.97 30H407.96L409.56 33.53L411.28 30ZM416.641 34.17H419.941L419.471 35H415.181L415.101 34.82L417.561 31.83C417.961 31.35 418.225 30.9767 418.351 30.71C418.485 30.4433 418.551 30.17 418.551 29.89C418.551 29.5633 418.445 29.2933 418.231 29.08C418.018 28.86 417.745 28.75 417.411 28.75C417.065 28.75 416.728 28.8633 416.401 29.09C416.075 29.3167 415.741 29.67 415.401 30.15L415.381 30.14L415.231 29.1C415.545 28.7 415.885 28.4 416.251 28.2C416.625 28 417.031 27.9 417.471 27.9C418.071 27.9 418.555 28.0767 418.921 28.43C419.288 28.7767 419.471 29.2367 419.471 29.81C419.471 30.1833 419.391 30.54 419.231 30.88C419.071 31.2133 418.771 31.6433 418.331 32.17L416.641 34.17Z" fill="black"/>
<path d="M354.92 35H354V28H354.89L359.31 33.03V28H360.22V35.05H359.89L354.92 29.39V35ZM366.152 31.96V34.88L365.252 35.08V34.19C364.879 34.49 364.526 34.7133 364.192 34.86C363.866 35.0067 363.546 35.08 363.232 35.08C362.792 35.08 362.436 34.96 362.162 34.72C361.889 34.4733 361.752 34.1467 361.752 33.74C361.752 33.1667 362.039 32.7433 362.612 32.47C363.186 32.19 364.066 32.0433 365.252 32.03V32.01C365.252 31.5967 365.152 31.2833 364.952 31.07C364.759 30.85 364.476 30.74 364.102 30.74C363.822 30.74 363.532 30.8 363.232 30.92C362.939 31.04 362.636 31.22 362.322 31.46L362.302 31.45L362.492 30.44C362.759 30.26 363.036 30.1267 363.322 30.04C363.616 29.9533 363.922 29.91 364.242 29.91C364.856 29.91 365.326 30.0867 365.652 30.44C365.986 30.7933 366.152 31.3 366.152 31.96ZM362.662 33.7C362.662 33.8867 362.729 34.0367 362.862 34.15C362.996 34.2567 363.179 34.31 363.412 34.31C363.646 34.31 363.912 34.2533 364.212 34.14C364.512 34.0267 364.859 33.85 365.252 33.61V32.61C364.386 32.6633 363.736 32.78 363.302 32.96C362.876 33.1333 362.662 33.38 362.662 33.7ZM371.28 30H372.26L369.62 35.14H369.43L366.97 30H367.96L369.56 33.53L371.28 30ZM375.071 30.5L375.051 30.49V29.51L377.631 27.87L377.801 27.92V35H376.871V29.35L375.071 30.5Z" fill="black"/>
<line x1="48" y1="48.5" x2="463" y2="48.5" stroke="black"/>
<rect x="341.5" y="77.5" width="118" height="144" fill="#F3F3F3" stroke="#376C74" stroke-width="5" stroke-dasharray="10 10"/>
<rect x="54.5" y="77.5" width="257" height="144" fill="#F3F3F3" stroke="#376C74" stroke-width="5" stroke-dasharray="10 10"/>
</svg>
