<svg width="190" height="137" viewBox="0 0 190 137" fill="none" xmlns="http://www.w3.org/2000/svg">
<rect x="0.5" y="0.5" width="188.253" height="135.205" rx="8.5" fill="#2D2D30" stroke="#FBFBF6"/>
<rect width="168" height="28" transform="matrix(-1 0 0 1 179 65)" fill="#D9D9D9"/>
<path d="M11 65H178" stroke="white"/>
<path d="M12 45H179" stroke="white"/>
<path d="M158.344 60H157.7V55.1H158.323L161.417 58.621V55.1H162.054V60.035H161.823L158.344 56.073V60ZM166.207 57.872V59.916L165.577 60.056V59.433C165.315 59.643 165.068 59.7993 164.835 59.902C164.606 60.0047 164.382 60.056 164.163 60.056C163.855 60.056 163.605 59.972 163.414 59.804C163.222 59.6313 163.127 59.4027 163.127 59.118C163.127 58.7167 163.327 58.4203 163.729 58.229C164.13 58.033 164.746 57.9303 165.577 57.921V57.907C165.577 57.6177 165.507 57.3983 165.367 57.249C165.231 57.095 165.033 57.018 164.772 57.018C164.576 57.018 164.373 57.06 164.163 57.144C163.957 57.228 163.745 57.354 163.526 57.522L163.512 57.515L163.645 56.808C163.831 56.682 164.025 56.5887 164.226 56.528C164.431 56.4673 164.646 56.437 164.87 56.437C165.299 56.437 165.628 56.5607 165.857 56.808C166.09 57.0553 166.207 57.41 166.207 57.872ZM163.764 59.09C163.764 59.2207 163.81 59.3257 163.904 59.405C163.997 59.4797 164.125 59.517 164.289 59.517C164.452 59.517 164.639 59.4773 164.849 59.398C165.059 59.3187 165.301 59.195 165.577 59.027V58.327C164.97 58.3643 164.515 58.446 164.212 58.572C163.913 58.6933 163.764 58.866 163.764 59.09ZM169.796 56.5H170.482L168.634 60.098H168.501L166.779 56.5H167.472L168.592 58.971L169.796 56.5ZM174.508 57.431C174.849 57.529 175.112 57.69 175.299 57.914C175.486 58.138 175.579 58.397 175.579 58.691C175.579 59.0877 175.42 59.419 175.103 59.685C174.79 59.9463 174.408 60.077 173.955 60.077C173.708 60.077 173.486 60.0513 173.29 60C173.099 59.944 172.87 59.8343 172.604 59.671L172.485 58.908L172.499 58.901C172.793 59.1157 173.047 59.2673 173.262 59.356C173.477 59.44 173.701 59.482 173.934 59.482C174.214 59.482 174.445 59.4073 174.627 59.258C174.814 59.1087 174.907 58.9173 174.907 58.684C174.907 58.404 174.776 58.1823 174.515 58.019C174.258 57.851 173.852 57.7273 173.297 57.648V57.396C173.838 57.2233 174.223 57.053 174.452 56.885C174.681 56.717 174.795 56.5163 174.795 56.283C174.795 56.0823 174.723 55.9213 174.578 55.8C174.438 55.6787 174.251 55.618 174.018 55.618C173.817 55.618 173.61 55.6647 173.395 55.758C173.18 55.8467 172.935 55.9937 172.66 56.199H172.646V55.478C172.926 55.3007 173.171 55.1817 173.381 55.121C173.591 55.0557 173.817 55.023 174.06 55.023C174.489 55.023 174.83 55.1303 175.082 55.345C175.334 55.5597 175.46 55.849 175.46 56.213C175.46 56.465 175.378 56.6937 175.215 56.899C175.056 57.1043 174.821 57.2817 174.508 57.431Z" fill="white"/>
<path d="M126.344 60H125.7V55.1H126.323L129.417 58.621V55.1H130.054V60.035H129.823L126.344 56.073V60ZM134.207 57.872V59.916L133.577 60.056V59.433C133.315 59.643 133.068 59.7993 132.835 59.902C132.606 60.0047 132.382 60.056 132.163 60.056C131.855 60.056 131.605 59.972 131.414 59.804C131.222 59.6313 131.127 59.4027 131.127 59.118C131.127 58.7167 131.327 58.4203 131.729 58.229C132.13 58.033 132.746 57.9303 133.577 57.921V57.907C133.577 57.6177 133.507 57.3983 133.367 57.249C133.231 57.095 133.033 57.018 132.772 57.018C132.576 57.018 132.373 57.06 132.163 57.144C131.957 57.228 131.745 57.354 131.526 57.522L131.512 57.515L131.645 56.808C131.831 56.682 132.025 56.5887 132.226 56.528C132.431 56.4673 132.646 56.437 132.87 56.437C133.299 56.437 133.628 56.5607 133.857 56.808C134.09 57.0553 134.207 57.41 134.207 57.872ZM131.764 59.09C131.764 59.2207 131.81 59.3257 131.904 59.405C131.997 59.4797 132.125 59.517 132.289 59.517C132.452 59.517 132.639 59.4773 132.849 59.398C133.059 59.3187 133.301 59.195 133.577 59.027V58.327C132.97 58.3643 132.515 58.446 132.212 58.572C131.913 58.6933 131.764 58.866 131.764 59.09ZM137.796 56.5H138.482L136.634 60.098H136.501L134.779 56.5H135.472L136.592 58.971L137.796 56.5ZM141.549 59.419H143.859L143.53 60H140.527L140.471 59.874L142.193 57.781C142.473 57.445 142.657 57.1837 142.746 56.997C142.839 56.8103 142.886 56.619 142.886 56.423C142.886 56.1943 142.811 56.0053 142.662 55.856C142.513 55.702 142.321 55.625 142.088 55.625C141.845 55.625 141.61 55.7043 141.381 55.863C141.152 56.0217 140.919 56.269 140.681 56.605L140.667 56.598L140.562 55.87C140.781 55.59 141.019 55.38 141.276 55.24C141.537 55.1 141.822 55.03 142.13 55.03C142.55 55.03 142.888 55.1537 143.145 55.401C143.402 55.6437 143.53 55.9657 143.53 56.367C143.53 56.6283 143.474 56.878 143.362 57.116C143.25 57.3493 143.04 57.6503 142.732 58.019L141.549 59.419Z" fill="white"/>
<path d="M96.344 60H95.7V55.1H96.323L99.417 58.621V55.1H100.054V60.035H99.823L96.344 56.073V60ZM104.207 57.872V59.916L103.577 60.056V59.433C103.315 59.643 103.068 59.7993 102.835 59.902C102.606 60.0047 102.382 60.056 102.163 60.056C101.855 60.056 101.605 59.972 101.414 59.804C101.222 59.6313 101.127 59.4027 101.127 59.118C101.127 58.7167 101.327 58.4203 101.729 58.229C102.13 58.033 102.746 57.9303 103.577 57.921V57.907C103.577 57.6177 103.507 57.3983 103.367 57.249C103.231 57.095 103.033 57.018 102.772 57.018C102.576 57.018 102.373 57.06 102.163 57.144C101.957 57.228 101.745 57.354 101.526 57.522L101.512 57.515L101.645 56.808C101.831 56.682 102.025 56.5887 102.226 56.528C102.431 56.4673 102.646 56.437 102.87 56.437C103.299 56.437 103.628 56.5607 103.857 56.808C104.09 57.0553 104.207 57.41 104.207 57.872ZM101.764 59.09C101.764 59.2207 101.81 59.3257 101.904 59.405C101.997 59.4797 102.125 59.517 102.289 59.517C102.452 59.517 102.639 59.4773 102.849 59.398C103.059 59.3187 103.301 59.195 103.577 59.027V58.327C102.97 58.3643 102.515 58.446 102.212 58.572C101.913 58.6933 101.764 58.866 101.764 59.09ZM107.796 56.5H108.482L106.634 60.098H106.501L104.779 56.5H105.472L106.592 58.971L107.796 56.5ZM110.45 56.85L110.436 56.843V56.157L112.242 55.009L112.361 55.044V60H111.71V56.045L110.45 56.85Z" fill="white"/>
<path d="M76.96 39H76.5V35.5H76.945L79.155 38.015V35.5H79.61V39.025H79.445L76.96 36.195V39ZM82.5762 37.48V38.94L82.1262 39.04V38.595C81.9395 38.745 81.7629 38.8567 81.5962 38.93C81.4329 39.0033 81.2729 39.04 81.1162 39.04C80.8962 39.04 80.7179 38.98 80.5812 38.86C80.4445 38.7367 80.3762 38.5733 80.3762 38.37C80.3762 38.0833 80.5195 37.8717 80.8062 37.735C81.0929 37.595 81.5329 37.5217 82.1262 37.515V37.505C82.1262 37.2983 82.0762 37.1417 81.9762 37.035C81.8795 36.925 81.7379 36.87 81.5512 36.87C81.4112 36.87 81.2662 36.9 81.1162 36.96C80.9695 37.02 80.8179 37.11 80.6612 37.23L80.6512 37.225L80.7462 36.72C80.8795 36.63 81.0179 36.5633 81.1612 36.52C81.3079 36.4767 81.4612 36.455 81.6212 36.455C81.9279 36.455 82.1629 36.5433 82.3262 36.72C82.4929 36.8967 82.5762 37.15 82.5762 37.48ZM80.8312 38.35C80.8312 38.4433 80.8645 38.5183 80.9312 38.575C80.9979 38.6283 81.0895 38.655 81.2062 38.655C81.3229 38.655 81.4562 38.6267 81.6062 38.57C81.7562 38.5133 81.9295 38.425 82.1262 38.305V37.805C81.6929 37.8317 81.3679 37.89 81.1512 37.98C80.9379 38.0667 80.8312 38.19 80.8312 38.35ZM85.1399 36.5H85.6299L84.3099 39.07H84.2149L82.9849 36.5H83.4799L84.2799 38.265L85.1399 36.5ZM87.0357 36.75L87.0257 36.745V36.255L88.3157 35.435L88.4007 35.46V39H87.9357V36.175L87.0357 36.75Z" fill="white"/>
<path d="M95.96 39H95.5V35.5H95.945L98.155 38.015V35.5H98.61V39.025H98.445L95.96 36.195V39ZM101.576 37.48V38.94L101.126 39.04V38.595C100.94 38.745 100.763 38.8567 100.596 38.93C100.433 39.0033 100.273 39.04 100.116 39.04C99.8962 39.04 99.7179 38.98 99.5812 38.86C99.4445 38.7367 99.3762 38.5733 99.3762 38.37C99.3762 38.0833 99.5195 37.8717 99.8062 37.735C100.093 37.595 100.533 37.5217 101.126 37.515V37.505C101.126 37.2983 101.076 37.1417 100.976 37.035C100.88 36.925 100.738 36.87 100.551 36.87C100.411 36.87 100.266 36.9 100.116 36.96C99.9695 37.02 99.8179 37.11 99.6612 37.23L99.6512 37.225L99.7462 36.72C99.8795 36.63 100.018 36.5633 100.161 36.52C100.308 36.4767 100.461 36.455 100.621 36.455C100.928 36.455 101.163 36.5433 101.326 36.72C101.493 36.8967 101.576 37.15 101.576 37.48ZM99.8312 38.35C99.8312 38.4433 99.8645 38.5183 99.9312 38.575C99.9979 38.6283 100.09 38.655 100.206 38.655C100.323 38.655 100.456 38.6267 100.606 38.57C100.756 38.5133 100.93 38.425 101.126 38.305V37.805C100.693 37.8317 100.368 37.89 100.151 37.98C99.9379 38.0667 99.8312 38.19 99.8312 38.35ZM104.14 36.5H104.63L103.31 39.07H103.215L101.985 36.5H102.48L103.28 38.265L104.14 36.5ZM106.821 38.585H108.471L108.236 39H106.091L106.051 38.91L107.281 37.415C107.481 37.175 107.612 36.9883 107.676 36.855C107.742 36.7217 107.776 36.585 107.776 36.445C107.776 36.2817 107.722 36.1467 107.616 36.04C107.509 35.93 107.372 35.875 107.206 35.875C107.032 35.875 106.864 35.9317 106.701 36.045C106.537 36.1583 106.371 36.335 106.201 36.575L106.191 36.57L106.116 36.05C106.272 35.85 106.442 35.7 106.626 35.6C106.812 35.5 107.016 35.45 107.236 35.45C107.536 35.45 107.777 35.5383 107.961 35.715C108.144 35.8883 108.236 36.1183 108.236 36.405C108.236 36.5917 108.196 36.77 108.116 36.94C108.036 37.1067 107.886 37.3217 107.666 37.585L106.821 38.585Z" fill="white"/>
<path d="M17.266 57.738C17.266 59.272 15.927 60.195 14.185 60.195C13.184 60.195 12.417 59.909 11.923 59.688L11.689 57.621H11.975C12.092 58.193 12.456 58.869 12.963 59.207C13.301 59.428 13.834 59.701 14.419 59.701C15.576 59.701 16.148 59.025 16.148 58.232C16.148 57.322 15.589 56.88 14.432 56.438C12.716 55.775 12.001 55.203 12.001 53.968C12.001 52.538 13.34 51.563 15.173 51.563C16.031 51.563 16.642 51.758 17.084 51.953V53.981H16.798C16.746 53.396 16.551 52.746 16.044 52.46C15.836 52.343 15.433 52.083 14.835 52.083C13.613 52.083 13.119 52.733 13.119 53.435C13.119 54.254 13.392 54.657 14.952 55.32C16.538 55.996 17.266 56.516 17.266 57.738ZM20.3373 51.94C20.3373 52.252 20.0513 52.59 19.6483 52.59C19.2323 52.59 18.9463 52.252 18.9463 51.94C18.9463 51.615 19.2323 51.264 19.6483 51.264C20.0513 51.264 20.3373 51.615 20.3373 51.94ZM21.0653 59.688V60H18.3093V59.688C18.9463 59.636 19.0503 59.519 19.1803 59.298L19.1933 55.762C19.1933 55.463 19.0243 55.229 18.3613 55.06V54.826L20.0383 54.215H20.1943V59.298C20.3373 59.558 20.4153 59.623 21.0653 59.688ZM25.4683 59.207V59.467C25.1303 59.74 24.3373 60.104 23.8693 60.104C22.6863 60.104 22.3353 59.467 22.3353 58.427C22.3353 57.192 22.4133 56.269 22.4393 55.034L21.7243 55.047V54.774L23.2713 53.24H23.4403L23.4273 54.449H25.3643V55.06L23.4403 55.047C23.4143 56.36 23.3883 57.101 23.3883 58.258C23.3883 58.986 23.8433 59.441 24.6103 59.441C24.9093 59.441 25.3383 59.259 25.4683 59.207ZM30.4656 58.648L30.6606 58.947C29.8676 59.675 29.2696 60.104 28.2036 60.104C26.8646 60.104 25.8376 59.025 25.8376 57.452C25.8376 55.541 26.9816 54.254 28.5546 54.254C29.8676 54.254 30.4786 54.943 30.4786 56.178V56.399L26.9296 56.373C26.9166 56.49 26.9036 56.776 26.9036 57.075C26.9036 58.44 27.8136 59.35 28.8926 59.35C29.6336 59.35 29.9066 59.129 30.4656 58.648ZM26.9816 56.022L29.4256 55.996C29.4256 55.294 28.9056 54.644 28.3206 54.644C27.6316 54.644 27.1246 55.164 26.9816 56.022ZM42.0023 51.667V53.864H41.7423C41.7163 52.759 41.1313 52.369 40.1693 52.356L38.7133 52.343V58.986C38.9993 59.597 39.6883 59.675 40.2863 59.701V60H35.9313V59.701C36.5293 59.675 37.3483 59.558 37.5303 59.168V52.343L36.0743 52.356C35.1123 52.369 34.5403 52.759 34.5143 53.864H34.2413V51.667H34.4883C34.6573 51.719 34.8393 51.758 35.2683 51.758H40.9753C41.3003 51.758 41.5863 51.719 41.7553 51.667H42.0023ZM44.306 51.94C44.306 52.252 44.02 52.59 43.617 52.59C43.201 52.59 42.915 52.252 42.915 51.94C42.915 51.615 43.201 51.264 43.617 51.264C44.02 51.264 44.306 51.615 44.306 51.94ZM45.034 59.688V60H42.278V59.688C42.915 59.636 43.019 59.519 43.149 59.298L43.162 55.762C43.162 55.463 42.993 55.229 42.33 55.06V54.826L44.007 54.215H44.163V59.298C44.306 59.558 44.384 59.623 45.034 59.688ZM49.437 59.207V59.467C49.099 59.74 48.306 60.104 47.838 60.104C46.655 60.104 46.304 59.467 46.304 58.427C46.304 57.192 46.382 56.269 46.408 55.034L45.693 55.047V54.774L47.24 53.24H47.409L47.396 54.449H49.333V55.06L47.409 55.047C47.383 56.36 47.357 57.101 47.357 58.258C47.357 58.986 47.812 59.441 48.579 59.441C48.878 59.441 49.307 59.259 49.437 59.207ZM52.5493 59.701V60H49.6893V59.701C50.3133 59.662 50.4693 59.532 50.5733 59.311V52.343C50.5733 51.901 50.5993 51.719 49.7023 51.628V51.381L51.6523 50.796H51.8603V50.978L51.6133 51.42V59.311C51.7433 59.571 51.8993 59.636 52.5493 59.701ZM57.7859 58.648L57.9809 58.947C57.1879 59.675 56.5899 60.104 55.5239 60.104C54.1849 60.104 53.1579 59.025 53.1579 57.452C53.1579 55.541 54.3019 54.254 55.8749 54.254C57.1879 54.254 57.7989 54.943 57.7989 56.178V56.399L54.2499 56.373C54.2369 56.49 54.2239 56.776 54.2239 57.075C54.2239 58.44 55.1339 59.35 56.2129 59.35C56.9539 59.35 57.2269 59.129 57.7859 58.648ZM54.3019 56.022L56.7459 55.996C56.7459 55.294 56.2259 54.644 55.6409 54.644C54.9519 54.644 54.4449 55.164 54.3019 56.022Z" fill="white"/>
<rect x="114" y="32" width="38" height="54" fill="#727272"/>
<path d="M146 38.5L147.359 37.1414C147.437 37.0633 147.563 37.0633 147.641 37.1414L149 38.5" stroke="white" stroke-width="0.5" stroke-linecap="round"/>
<rect x="114" y="43" width="65" height="43" fill="#727272"/>
<path d="M117.863 52H117.495V49.2H117.851L119.619 51.212V49.2H119.983V52.02H119.851L117.863 49.756V52ZM122.356 50.784V51.952L121.996 52.032V51.676C121.847 51.796 121.706 51.8853 121.572 51.944C121.442 52.0027 121.314 52.032 121.188 52.032C121.012 52.032 120.87 51.984 120.76 51.888C120.651 51.7893 120.596 51.6587 120.596 51.496C120.596 51.2667 120.711 51.0973 120.94 50.988C121.17 50.876 121.522 50.8173 121.996 50.812V50.804C121.996 50.6387 121.956 50.5133 121.876 50.428C121.799 50.34 121.686 50.296 121.536 50.296C121.424 50.296 121.308 50.32 121.188 50.368C121.071 50.416 120.95 50.488 120.824 50.584L120.816 50.58L120.892 50.176C120.999 50.104 121.11 50.0507 121.224 50.016C121.342 49.9813 121.464 49.964 121.592 49.964C121.838 49.964 122.026 50.0347 122.156 50.176C122.29 50.3173 122.356 50.52 122.356 50.784ZM120.96 51.48C120.96 51.5547 120.987 51.6147 121.04 51.66C121.094 51.7027 121.167 51.724 121.26 51.724C121.354 51.724 121.46 51.7013 121.58 51.656C121.7 51.6107 121.839 51.54 121.996 51.444V51.044C121.65 51.0653 121.39 51.112 121.216 51.184C121.046 51.2533 120.96 51.352 120.96 51.48ZM124.407 50H124.799L123.743 52.056H123.667L122.683 50H123.079L123.719 51.412L124.407 50ZM126.548 52H126.16V49.2H126.548V52ZM128.59 51.52L128.51 51.904C128.452 51.9467 128.382 51.98 128.302 52.004C128.222 52.0307 128.14 52.044 128.054 52.044C127.865 52.044 127.716 51.9853 127.606 51.868C127.497 51.7507 127.442 51.5867 127.442 51.376V50.308H127.102V50H127.442V49.552L127.798 49.42V50H128.582V50.308H127.798V51.36C127.798 51.48 127.826 51.5707 127.882 51.632C127.938 51.6907 128.021 51.72 128.13 51.72C128.205 51.72 128.28 51.704 128.354 51.672C128.429 51.6373 128.505 51.5853 128.582 51.516L128.59 51.52ZM130.755 51.472L130.623 51.868C130.506 51.932 130.397 51.9773 130.295 52.004C130.194 52.0307 130.083 52.044 129.963 52.044C129.646 52.044 129.394 51.9493 129.207 51.76C129.021 51.5707 128.927 51.3173 128.927 51C128.927 50.7067 129.021 50.4573 129.207 50.252C129.394 50.0467 129.626 49.944 129.903 49.944C130.181 49.944 130.402 50.0413 130.567 50.236C130.733 50.428 130.815 50.676 130.815 50.98C130.815 51.0067 130.814 51.036 130.811 51.068C130.809 51.1 130.806 51.124 130.803 51.14H129.299C129.326 51.3213 129.401 51.4627 129.523 51.564C129.649 51.6653 129.809 51.716 130.003 51.716C130.121 51.716 130.243 51.6947 130.371 51.652C130.502 51.6067 130.627 51.5453 130.747 51.468L130.755 51.472ZM129.891 50.26C129.729 50.26 129.591 50.3173 129.479 50.432C129.37 50.5467 129.307 50.6933 129.291 50.872H130.451C130.435 50.68 130.378 50.5307 130.279 50.424C130.181 50.3147 130.051 50.26 129.891 50.26ZM132.25 50.284C132.156 50.284 132.067 50.3107 131.982 50.364C131.899 50.4147 131.802 50.5027 131.69 50.628V52H131.33V50.048L131.69 49.968V50.36C131.796 50.2187 131.903 50.1173 132.01 50.056C132.116 49.992 132.232 49.96 132.358 49.96C132.504 49.96 132.631 49.9987 132.738 50.076C132.847 50.1533 132.927 50.2627 132.978 50.404C133.095 50.2467 133.21 50.1333 133.322 50.064C133.434 49.9947 133.559 49.96 133.698 49.96C133.9 49.96 134.063 50.0307 134.186 50.172C134.311 50.3133 134.374 50.5027 134.374 50.74V52H134.01V50.776C134.01 50.6213 133.972 50.5013 133.898 50.416C133.823 50.328 133.72 50.284 133.59 50.284C133.496 50.284 133.406 50.3107 133.318 50.364C133.232 50.4173 133.135 50.5067 133.026 50.632C133.028 50.6427 133.03 50.656 133.03 50.672C133.03 50.6853 133.03 50.708 133.03 50.74V52H132.67V50.776C132.67 50.6213 132.632 50.5013 132.558 50.416C132.483 50.328 132.38 50.284 132.25 50.284Z" fill="white"/>
<path d="M149.847 52H149.479V49.2H149.835L151.603 51.212V49.2H151.967V52.02H151.835L149.847 49.756V52ZM154.34 50.784V51.952L153.98 52.032V51.676C153.831 51.796 153.69 51.8853 153.556 51.944C153.426 52.0027 153.298 52.032 153.172 52.032C152.996 52.032 152.854 51.984 152.744 51.888C152.635 51.7893 152.58 51.6587 152.58 51.496C152.58 51.2667 152.695 51.0973 152.924 50.988C153.154 50.876 153.506 50.8173 153.98 50.812V50.804C153.98 50.6387 153.94 50.5133 153.86 50.428C153.783 50.34 153.67 50.296 153.52 50.296C153.408 50.296 153.292 50.32 153.172 50.368C153.055 50.416 152.934 50.488 152.808 50.584L152.8 50.58L152.876 50.176C152.983 50.104 153.094 50.0507 153.208 50.016C153.326 49.9813 153.448 49.964 153.576 49.964C153.822 49.964 154.01 50.0347 154.14 50.176C154.274 50.3173 154.34 50.52 154.34 50.784ZM152.944 51.48C152.944 51.5547 152.971 51.6147 153.024 51.66C153.078 51.7027 153.151 51.724 153.244 51.724C153.338 51.724 153.444 51.7013 153.564 51.656C153.684 51.6107 153.823 51.54 153.98 51.444V51.044C153.634 51.0653 153.374 51.112 153.2 51.184C153.03 51.2533 152.944 51.352 152.944 51.48ZM156.391 50H156.783L155.727 52.056H155.651L154.667 50H155.063L155.703 51.412L156.391 50ZM158.532 52H158.144V49.2H158.532V52ZM160.574 51.52L160.494 51.904C160.436 51.9467 160.366 51.98 160.286 52.004C160.206 52.0307 160.124 52.044 160.038 52.044C159.849 52.044 159.7 51.9853 159.59 51.868C159.481 51.7507 159.426 51.5867 159.426 51.376V50.308H159.086V50H159.426V49.552L159.782 49.42V50H160.566V50.308H159.782V51.36C159.782 51.48 159.81 51.5707 159.866 51.632C159.922 51.6907 160.005 51.72 160.114 51.72C160.189 51.72 160.264 51.704 160.338 51.672C160.413 51.6373 160.489 51.5853 160.566 51.516L160.574 51.52ZM162.74 51.472L162.608 51.868C162.49 51.932 162.381 51.9773 162.28 52.004C162.178 52.0307 162.068 52.044 161.948 52.044C161.63 52.044 161.378 51.9493 161.192 51.76C161.005 51.5707 160.912 51.3173 160.912 51C160.912 50.7067 161.005 50.4573 161.192 50.252C161.378 50.0467 161.61 49.944 161.888 49.944C162.165 49.944 162.386 50.0413 162.552 50.236C162.717 50.428 162.8 50.676 162.8 50.98C162.8 51.0067 162.798 51.036 162.796 51.068C162.793 51.1 162.79 51.124 162.788 51.14H161.284C161.31 51.3213 161.385 51.4627 161.508 51.564C161.633 51.6653 161.793 51.716 161.988 51.716C162.105 51.716 162.228 51.6947 162.356 51.652C162.486 51.6067 162.612 51.5453 162.732 51.468L162.74 51.472ZM161.876 50.26C161.713 50.26 161.576 50.3173 161.464 50.432C161.354 50.5467 161.292 50.6933 161.276 50.872H162.436C162.42 50.68 162.362 50.5307 162.264 50.424C162.165 50.3147 162.036 50.26 161.876 50.26ZM164.234 50.284C164.141 50.284 164.051 50.3107 163.966 50.364C163.883 50.4147 163.786 50.5027 163.674 50.628V52H163.314V50.048L163.674 49.968V50.36C163.781 50.2187 163.887 50.1173 163.994 50.056C164.101 49.992 164.217 49.96 164.342 49.96C164.489 49.96 164.615 49.9987 164.722 50.076C164.831 50.1533 164.911 50.2627 164.962 50.404C165.079 50.2467 165.194 50.1333 165.306 50.064C165.418 49.9947 165.543 49.96 165.682 49.96C165.885 49.96 166.047 50.0307 166.17 50.172C166.295 50.3133 166.358 50.5027 166.358 50.74V52H165.994V50.776C165.994 50.6213 165.957 50.5013 165.882 50.416C165.807 50.328 165.705 50.284 165.574 50.284C165.481 50.284 165.39 50.3107 165.302 50.364C165.217 50.4173 165.119 50.5067 165.01 50.632C165.013 50.6427 165.014 50.656 165.014 50.672C165.014 50.6853 165.014 50.708 165.014 50.74V52H164.654V50.776C164.654 50.6213 164.617 50.5013 164.542 50.416C164.467 50.328 164.365 50.284 164.234 50.284Z" fill="white"/>
<path d="M117.863 62H117.495V59.2H117.851L119.619 61.212V59.2H119.983V62.02H119.851L117.863 59.756V62ZM122.356 60.784V61.952L121.996 62.032V61.676C121.847 61.796 121.706 61.8853 121.572 61.944C121.442 62.0027 121.314 62.032 121.188 62.032C121.012 62.032 120.87 61.984 120.76 61.888C120.651 61.7893 120.596 61.6587 120.596 61.496C120.596 61.2667 120.711 61.0973 120.94 60.988C121.17 60.876 121.522 60.8173 121.996 60.812V60.804C121.996 60.6387 121.956 60.5133 121.876 60.428C121.799 60.34 121.686 60.296 121.536 60.296C121.424 60.296 121.308 60.32 121.188 60.368C121.071 60.416 120.95 60.488 120.824 60.584L120.816 60.58L120.892 60.176C120.999 60.104 121.11 60.0507 121.224 60.016C121.342 59.9813 121.464 59.964 121.592 59.964C121.838 59.964 122.026 60.0347 122.156 60.176C122.29 60.3173 122.356 60.52 122.356 60.784ZM120.96 61.48C120.96 61.5547 120.987 61.6147 121.04 61.66C121.094 61.7027 121.167 61.724 121.26 61.724C121.354 61.724 121.46 61.7013 121.58 61.656C121.7 61.6107 121.839 61.54 121.996 61.444V61.044C121.65 61.0653 121.39 61.112 121.216 61.184C121.046 61.2533 120.96 61.352 120.96 61.48ZM124.407 60H124.799L123.743 62.056H123.667L122.683 60H123.079L123.719 61.412L124.407 60ZM126.548 62H126.16V59.2H126.548V62ZM128.59 61.52L128.51 61.904C128.452 61.9467 128.382 61.98 128.302 62.004C128.222 62.0307 128.14 62.044 128.054 62.044C127.865 62.044 127.716 61.9853 127.606 61.868C127.497 61.7507 127.442 61.5867 127.442 61.376V60.308H127.102V60H127.442V59.552L127.798 59.42V60H128.582V60.308H127.798V61.36C127.798 61.48 127.826 61.5707 127.882 61.632C127.938 61.6907 128.021 61.72 128.13 61.72C128.205 61.72 128.28 61.704 128.354 61.672C128.429 61.6373 128.505 61.5853 128.582 61.516L128.59 61.52ZM130.755 61.472L130.623 61.868C130.506 61.932 130.397 61.9773 130.295 62.004C130.194 62.0307 130.083 62.044 129.963 62.044C129.646 62.044 129.394 61.9493 129.207 61.76C129.021 61.5707 128.927 61.3173 128.927 61C128.927 60.7067 129.021 60.4573 129.207 60.252C129.394 60.0467 129.626 59.944 129.903 59.944C130.181 59.944 130.402 60.0413 130.567 60.236C130.733 60.428 130.815 60.676 130.815 60.98C130.815 61.0067 130.814 61.036 130.811 61.068C130.809 61.1 130.806 61.124 130.803 61.14H129.299C129.326 61.3213 129.401 61.4627 129.523 61.564C129.649 61.6653 129.809 61.716 130.003 61.716C130.121 61.716 130.243 61.6947 130.371 61.652C130.502 61.6067 130.627 61.5453 130.747 61.468L130.755 61.472ZM129.891 60.26C129.729 60.26 129.591 60.3173 129.479 60.432C129.37 60.5467 129.307 60.6933 129.291 60.872H130.451C130.435 60.68 130.378 60.5307 130.279 60.424C130.181 60.3147 130.051 60.26 129.891 60.26ZM132.25 60.284C132.156 60.284 132.067 60.3107 131.982 60.364C131.899 60.4147 131.802 60.5027 131.69 60.628V62H131.33V60.048L131.69 59.968V60.36C131.796 60.2187 131.903 60.1173 132.01 60.056C132.116 59.992 132.232 59.96 132.358 59.96C132.504 59.96 132.631 59.9987 132.738 60.076C132.847 60.1533 132.927 60.2627 132.978 60.404C133.095 60.2467 133.21 60.1333 133.322 60.064C133.434 59.9947 133.559 59.96 133.698 59.96C133.9 59.96 134.063 60.0307 134.186 60.172C134.311 60.3133 134.374 60.5027 134.374 60.74V62H134.01V60.776C134.01 60.6213 133.972 60.5013 133.898 60.416C133.823 60.328 133.72 60.284 133.59 60.284C133.496 60.284 133.406 60.3107 133.318 60.364C133.232 60.4173 133.135 60.5067 133.026 60.632C133.028 60.6427 133.03 60.656 133.03 60.672C133.03 60.6853 133.03 60.708 133.03 60.74V62H132.67V60.776C132.67 60.6213 132.632 60.5013 132.558 60.416C132.483 60.328 132.38 60.284 132.25 60.284Z" fill="white"/>
<path d="M149.847 62H149.479V59.2H149.835L151.603 61.212V59.2H151.967V62.02H151.835L149.847 59.756V62ZM154.34 60.784V61.952L153.98 62.032V61.676C153.831 61.796 153.69 61.8853 153.556 61.944C153.426 62.0027 153.298 62.032 153.172 62.032C152.996 62.032 152.854 61.984 152.744 61.888C152.635 61.7893 152.58 61.6587 152.58 61.496C152.58 61.2667 152.695 61.0973 152.924 60.988C153.154 60.876 153.506 60.8173 153.98 60.812V60.804C153.98 60.6387 153.94 60.5133 153.86 60.428C153.783 60.34 153.67 60.296 153.52 60.296C153.408 60.296 153.292 60.32 153.172 60.368C153.055 60.416 152.934 60.488 152.808 60.584L152.8 60.58L152.876 60.176C152.983 60.104 153.094 60.0507 153.208 60.016C153.326 59.9813 153.448 59.964 153.576 59.964C153.822 59.964 154.01 60.0347 154.14 60.176C154.274 60.3173 154.34 60.52 154.34 60.784ZM152.944 61.48C152.944 61.5547 152.971 61.6147 153.024 61.66C153.078 61.7027 153.151 61.724 153.244 61.724C153.338 61.724 153.444 61.7013 153.564 61.656C153.684 61.6107 153.823 61.54 153.98 61.444V61.044C153.634 61.0653 153.374 61.112 153.2 61.184C153.03 61.2533 152.944 61.352 152.944 61.48ZM156.391 60H156.783L155.727 62.056H155.651L154.667 60H155.063L155.703 61.412L156.391 60ZM158.532 62H158.144V59.2H158.532V62ZM160.574 61.52L160.494 61.904C160.436 61.9467 160.366 61.98 160.286 62.004C160.206 62.0307 160.124 62.044 160.038 62.044C159.849 62.044 159.7 61.9853 159.59 61.868C159.481 61.7507 159.426 61.5867 159.426 61.376V60.308H159.086V60H159.426V59.552L159.782 59.42V60H160.566V60.308H159.782V61.36C159.782 61.48 159.81 61.5707 159.866 61.632C159.922 61.6907 160.005 61.72 160.114 61.72C160.189 61.72 160.264 61.704 160.338 61.672C160.413 61.6373 160.489 61.5853 160.566 61.516L160.574 61.52ZM162.74 61.472L162.608 61.868C162.49 61.932 162.381 61.9773 162.28 62.004C162.178 62.0307 162.068 62.044 161.948 62.044C161.63 62.044 161.378 61.9493 161.192 61.76C161.005 61.5707 160.912 61.3173 160.912 61C160.912 60.7067 161.005 60.4573 161.192 60.252C161.378 60.0467 161.61 59.944 161.888 59.944C162.165 59.944 162.386 60.0413 162.552 60.236C162.717 60.428 162.8 60.676 162.8 60.98C162.8 61.0067 162.798 61.036 162.796 61.068C162.793 61.1 162.79 61.124 162.788 61.14H161.284C161.31 61.3213 161.385 61.4627 161.508 61.564C161.633 61.6653 161.793 61.716 161.988 61.716C162.105 61.716 162.228 61.6947 162.356 61.652C162.486 61.6067 162.612 61.5453 162.732 61.468L162.74 61.472ZM161.876 60.26C161.713 60.26 161.576 60.3173 161.464 60.432C161.354 60.5467 161.292 60.6933 161.276 60.872H162.436C162.42 60.68 162.362 60.5307 162.264 60.424C162.165 60.3147 162.036 60.26 161.876 60.26ZM164.234 60.284C164.141 60.284 164.051 60.3107 163.966 60.364C163.883 60.4147 163.786 60.5027 163.674 60.628V62H163.314V60.048L163.674 59.968V60.36C163.781 60.2187 163.887 60.1173 163.994 60.056C164.101 59.992 164.217 59.96 164.342 59.96C164.489 59.96 164.615 59.9987 164.722 60.076C164.831 60.1533 164.911 60.2627 164.962 60.404C165.079 60.2467 165.194 60.1333 165.306 60.064C165.418 59.9947 165.543 59.96 165.682 59.96C165.885 59.96 166.047 60.0307 166.17 60.172C166.295 60.3133 166.358 60.5027 166.358 60.74V62H165.994V60.776C165.994 60.6213 165.957 60.5013 165.882 60.416C165.807 60.328 165.705 60.284 165.574 60.284C165.481 60.284 165.39 60.3107 165.302 60.364C165.217 60.4173 165.119 60.5067 165.01 60.632C165.013 60.6427 165.014 60.656 165.014 60.672C165.014 60.6853 165.014 60.708 165.014 60.74V62H164.654V60.776C164.654 60.6213 164.617 60.5013 164.542 60.416C164.467 60.328 164.365 60.284 164.234 60.284Z" fill="white"/>
<path d="M117.863 72H117.495V69.2H117.851L119.619 71.212V69.2H119.983V72.02H119.851L117.863 69.756V72ZM122.356 70.784V71.952L121.996 72.032V71.676C121.847 71.796 121.706 71.8853 121.572 71.944C121.442 72.0027 121.314 72.032 121.188 72.032C121.012 72.032 120.87 71.984 120.76 71.888C120.651 71.7893 120.596 71.6587 120.596 71.496C120.596 71.2667 120.711 71.0973 120.94 70.988C121.17 70.876 121.522 70.8173 121.996 70.812V70.804C121.996 70.6387 121.956 70.5133 121.876 70.428C121.799 70.34 121.686 70.296 121.536 70.296C121.424 70.296 121.308 70.32 121.188 70.368C121.071 70.416 120.95 70.488 120.824 70.584L120.816 70.58L120.892 70.176C120.999 70.104 121.11 70.0507 121.224 70.016C121.342 69.9813 121.464 69.964 121.592 69.964C121.838 69.964 122.026 70.0347 122.156 70.176C122.29 70.3173 122.356 70.52 122.356 70.784ZM120.96 71.48C120.96 71.5547 120.987 71.6147 121.04 71.66C121.094 71.7027 121.167 71.724 121.26 71.724C121.354 71.724 121.46 71.7013 121.58 71.656C121.7 71.6107 121.839 71.54 121.996 71.444V71.044C121.65 71.0653 121.39 71.112 121.216 71.184C121.046 71.2533 120.96 71.352 120.96 71.48ZM124.407 70H124.799L123.743 72.056H123.667L122.683 70H123.079L123.719 71.412L124.407 70ZM126.548 72H126.16V69.2H126.548V72ZM128.59 71.52L128.51 71.904C128.452 71.9467 128.382 71.98 128.302 72.004C128.222 72.0307 128.14 72.044 128.054 72.044C127.865 72.044 127.716 71.9853 127.606 71.868C127.497 71.7507 127.442 71.5867 127.442 71.376V70.308H127.102V70H127.442V69.552L127.798 69.42V70H128.582V70.308H127.798V71.36C127.798 71.48 127.826 71.5707 127.882 71.632C127.938 71.6907 128.021 71.72 128.13 71.72C128.205 71.72 128.28 71.704 128.354 71.672C128.429 71.6373 128.505 71.5853 128.582 71.516L128.59 71.52ZM130.755 71.472L130.623 71.868C130.506 71.932 130.397 71.9773 130.295 72.004C130.194 72.0307 130.083 72.044 129.963 72.044C129.646 72.044 129.394 71.9493 129.207 71.76C129.021 71.5707 128.927 71.3173 128.927 71C128.927 70.7067 129.021 70.4573 129.207 70.252C129.394 70.0467 129.626 69.944 129.903 69.944C130.181 69.944 130.402 70.0413 130.567 70.236C130.733 70.428 130.815 70.676 130.815 70.98C130.815 71.0067 130.814 71.036 130.811 71.068C130.809 71.1 130.806 71.124 130.803 71.14H129.299C129.326 71.3213 129.401 71.4627 129.523 71.564C129.649 71.6653 129.809 71.716 130.003 71.716C130.121 71.716 130.243 71.6947 130.371 71.652C130.502 71.6067 130.627 71.5453 130.747 71.468L130.755 71.472ZM129.891 70.26C129.729 70.26 129.591 70.3173 129.479 70.432C129.37 70.5467 129.307 70.6933 129.291 70.872H130.451C130.435 70.68 130.378 70.5307 130.279 70.424C130.181 70.3147 130.051 70.26 129.891 70.26ZM132.25 70.284C132.156 70.284 132.067 70.3107 131.982 70.364C131.899 70.4147 131.802 70.5027 131.69 70.628V72H131.33V70.048L131.69 69.968V70.36C131.796 70.2187 131.903 70.1173 132.01 70.056C132.116 69.992 132.232 69.96 132.358 69.96C132.504 69.96 132.631 69.9987 132.738 70.076C132.847 70.1533 132.927 70.2627 132.978 70.404C133.095 70.2467 133.21 70.1333 133.322 70.064C133.434 69.9947 133.559 69.96 133.698 69.96C133.9 69.96 134.063 70.0307 134.186 70.172C134.311 70.3133 134.374 70.5027 134.374 70.74V72H134.01V70.776C134.01 70.6213 133.972 70.5013 133.898 70.416C133.823 70.328 133.72 70.284 133.59 70.284C133.496 70.284 133.406 70.3107 133.318 70.364C133.232 70.4173 133.135 70.5067 133.026 70.632C133.028 70.6427 133.03 70.656 133.03 70.672C133.03 70.6853 133.03 70.708 133.03 70.74V72H132.67V70.776C132.67 70.6213 132.632 70.5013 132.558 70.416C132.483 70.328 132.38 70.284 132.25 70.284Z" fill="white"/>
<path d="M149.847 72H149.479V69.2H149.835L151.603 71.212V69.2H151.967V72.02H151.835L149.847 69.756V72ZM154.34 70.784V71.952L153.98 72.032V71.676C153.831 71.796 153.69 71.8853 153.556 71.944C153.426 72.0027 153.298 72.032 153.172 72.032C152.996 72.032 152.854 71.984 152.744 71.888C152.635 71.7893 152.58 71.6587 152.58 71.496C152.58 71.2667 152.695 71.0973 152.924 70.988C153.154 70.876 153.506 70.8173 153.98 70.812V70.804C153.98 70.6387 153.94 70.5133 153.86 70.428C153.783 70.34 153.67 70.296 153.52 70.296C153.408 70.296 153.292 70.32 153.172 70.368C153.055 70.416 152.934 70.488 152.808 70.584L152.8 70.58L152.876 70.176C152.983 70.104 153.094 70.0507 153.208 70.016C153.326 69.9813 153.448 69.964 153.576 69.964C153.822 69.964 154.01 70.0347 154.14 70.176C154.274 70.3173 154.34 70.52 154.34 70.784ZM152.944 71.48C152.944 71.5547 152.971 71.6147 153.024 71.66C153.078 71.7027 153.151 71.724 153.244 71.724C153.338 71.724 153.444 71.7013 153.564 71.656C153.684 71.6107 153.823 71.54 153.98 71.444V71.044C153.634 71.0653 153.374 71.112 153.2 71.184C153.03 71.2533 152.944 71.352 152.944 71.48ZM156.391 70H156.783L155.727 72.056H155.651L154.667 70H155.063L155.703 71.412L156.391 70ZM158.532 72H158.144V69.2H158.532V72ZM160.574 71.52L160.494 71.904C160.436 71.9467 160.366 71.98 160.286 72.004C160.206 72.0307 160.124 72.044 160.038 72.044C159.849 72.044 159.7 71.9853 159.59 71.868C159.481 71.7507 159.426 71.5867 159.426 71.376V70.308H159.086V70H159.426V69.552L159.782 69.42V70H160.566V70.308H159.782V71.36C159.782 71.48 159.81 71.5707 159.866 71.632C159.922 71.6907 160.005 71.72 160.114 71.72C160.189 71.72 160.264 71.704 160.338 71.672C160.413 71.6373 160.489 71.5853 160.566 71.516L160.574 71.52ZM162.74 71.472L162.608 71.868C162.49 71.932 162.381 71.9773 162.28 72.004C162.178 72.0307 162.068 72.044 161.948 72.044C161.63 72.044 161.378 71.9493 161.192 71.76C161.005 71.5707 160.912 71.3173 160.912 71C160.912 70.7067 161.005 70.4573 161.192 70.252C161.378 70.0467 161.61 69.944 161.888 69.944C162.165 69.944 162.386 70.0413 162.552 70.236C162.717 70.428 162.8 70.676 162.8 70.98C162.8 71.0067 162.798 71.036 162.796 71.068C162.793 71.1 162.79 71.124 162.788 71.14H161.284C161.31 71.3213 161.385 71.4627 161.508 71.564C161.633 71.6653 161.793 71.716 161.988 71.716C162.105 71.716 162.228 71.6947 162.356 71.652C162.486 71.6067 162.612 71.5453 162.732 71.468L162.74 71.472ZM161.876 70.26C161.713 70.26 161.576 70.3173 161.464 70.432C161.354 70.5467 161.292 70.6933 161.276 70.872H162.436C162.42 70.68 162.362 70.5307 162.264 70.424C162.165 70.3147 162.036 70.26 161.876 70.26ZM164.234 70.284C164.141 70.284 164.051 70.3107 163.966 70.364C163.883 70.4147 163.786 70.5027 163.674 70.628V72H163.314V70.048L163.674 69.968V70.36C163.781 70.2187 163.887 70.1173 163.994 70.056C164.101 69.992 164.217 69.96 164.342 69.96C164.489 69.96 164.615 69.9987 164.722 70.076C164.831 70.1533 164.911 70.2627 164.962 70.404C165.079 70.2467 165.194 70.1333 165.306 70.064C165.418 69.9947 165.543 69.96 165.682 69.96C165.885 69.96 166.047 70.0307 166.17 70.172C166.295 70.3133 166.358 70.5027 166.358 70.74V72H165.994V70.776C165.994 70.6213 165.957 70.5013 165.882 70.416C165.807 70.328 165.705 70.284 165.574 70.284C165.481 70.284 165.39 70.3107 165.302 70.364C165.217 70.4173 165.119 70.5067 165.01 70.632C165.013 70.6427 165.014 70.656 165.014 70.672C165.014 70.6853 165.014 70.708 165.014 70.74V72H164.654V70.776C164.654 70.6213 164.617 70.5013 164.542 70.416C164.467 70.328 164.365 70.284 164.234 70.284Z" fill="white"/>
<path d="M117.863 82H117.495V79.2H117.851L119.619 81.212V79.2H119.983V82.02H119.851L117.863 79.756V82ZM122.356 80.784V81.952L121.996 82.032V81.676C121.847 81.796 121.706 81.8853 121.572 81.944C121.442 82.0027 121.314 82.032 121.188 82.032C121.012 82.032 120.87 81.984 120.76 81.888C120.651 81.7893 120.596 81.6587 120.596 81.496C120.596 81.2667 120.711 81.0973 120.94 80.988C121.17 80.876 121.522 80.8173 121.996 80.812V80.804C121.996 80.6387 121.956 80.5133 121.876 80.428C121.799 80.34 121.686 80.296 121.536 80.296C121.424 80.296 121.308 80.32 121.188 80.368C121.071 80.416 120.95 80.488 120.824 80.584L120.816 80.58L120.892 80.176C120.999 80.104 121.11 80.0507 121.224 80.016C121.342 79.9813 121.464 79.964 121.592 79.964C121.838 79.964 122.026 80.0347 122.156 80.176C122.29 80.3173 122.356 80.52 122.356 80.784ZM120.96 81.48C120.96 81.5547 120.987 81.6147 121.04 81.66C121.094 81.7027 121.167 81.724 121.26 81.724C121.354 81.724 121.46 81.7013 121.58 81.656C121.7 81.6107 121.839 81.54 121.996 81.444V81.044C121.65 81.0653 121.39 81.112 121.216 81.184C121.046 81.2533 120.96 81.352 120.96 81.48ZM124.407 80H124.799L123.743 82.056H123.667L122.683 80H123.079L123.719 81.412L124.407 80ZM126.548 82H126.16V79.2H126.548V82ZM128.59 81.52L128.51 81.904C128.452 81.9467 128.382 81.98 128.302 82.004C128.222 82.0307 128.14 82.044 128.054 82.044C127.865 82.044 127.716 81.9853 127.606 81.868C127.497 81.7507 127.442 81.5867 127.442 81.376V80.308H127.102V80H127.442V79.552L127.798 79.42V80H128.582V80.308H127.798V81.36C127.798 81.48 127.826 81.5707 127.882 81.632C127.938 81.6907 128.021 81.72 128.13 81.72C128.205 81.72 128.28 81.704 128.354 81.672C128.429 81.6373 128.505 81.5853 128.582 81.516L128.59 81.52ZM130.755 81.472L130.623 81.868C130.506 81.932 130.397 81.9773 130.295 82.004C130.194 82.0307 130.083 82.044 129.963 82.044C129.646 82.044 129.394 81.9493 129.207 81.76C129.021 81.5707 128.927 81.3173 128.927 81C128.927 80.7067 129.021 80.4573 129.207 80.252C129.394 80.0467 129.626 79.944 129.903 79.944C130.181 79.944 130.402 80.0413 130.567 80.236C130.733 80.428 130.815 80.676 130.815 80.98C130.815 81.0067 130.814 81.036 130.811 81.068C130.809 81.1 130.806 81.124 130.803 81.14H129.299C129.326 81.3213 129.401 81.4627 129.523 81.564C129.649 81.6653 129.809 81.716 130.003 81.716C130.121 81.716 130.243 81.6947 130.371 81.652C130.502 81.6067 130.627 81.5453 130.747 81.468L130.755 81.472ZM129.891 80.26C129.729 80.26 129.591 80.3173 129.479 80.432C129.37 80.5467 129.307 80.6933 129.291 80.872H130.451C130.435 80.68 130.378 80.5307 130.279 80.424C130.181 80.3147 130.051 80.26 129.891 80.26ZM132.25 80.284C132.156 80.284 132.067 80.3107 131.982 80.364C131.899 80.4147 131.802 80.5027 131.69 80.628V82H131.33V80.048L131.69 79.968V80.36C131.796 80.2187 131.903 80.1173 132.01 80.056C132.116 79.992 132.232 79.96 132.358 79.96C132.504 79.96 132.631 79.9987 132.738 80.076C132.847 80.1533 132.927 80.2627 132.978 80.404C133.095 80.2467 133.21 80.1333 133.322 80.064C133.434 79.9947 133.559 79.96 133.698 79.96C133.9 79.96 134.063 80.0307 134.186 80.172C134.311 80.3133 134.374 80.5027 134.374 80.74V82H134.01V80.776C134.01 80.6213 133.972 80.5013 133.898 80.416C133.823 80.328 133.72 80.284 133.59 80.284C133.496 80.284 133.406 80.3107 133.318 80.364C133.232 80.4173 133.135 80.5067 133.026 80.632C133.028 80.6427 133.03 80.656 133.03 80.672C133.03 80.6853 133.03 80.708 133.03 80.74V82H132.67V80.776C132.67 80.6213 132.632 80.5013 132.558 80.416C132.483 80.328 132.38 80.284 132.25 80.284Z" fill="white"/>
<path d="M149.847 82H149.479V79.2H149.835L151.603 81.212V79.2H151.967V82.02H151.835L149.847 79.756V82ZM154.34 80.784V81.952L153.98 82.032V81.676C153.831 81.796 153.69 81.8853 153.556 81.944C153.426 82.0027 153.298 82.032 153.172 82.032C152.996 82.032 152.854 81.984 152.744 81.888C152.635 81.7893 152.58 81.6587 152.58 81.496C152.58 81.2667 152.695 81.0973 152.924 80.988C153.154 80.876 153.506 80.8173 153.98 80.812V80.804C153.98 80.6387 153.94 80.5133 153.86 80.428C153.783 80.34 153.67 80.296 153.52 80.296C153.408 80.296 153.292 80.32 153.172 80.368C153.055 80.416 152.934 80.488 152.808 80.584L152.8 80.58L152.876 80.176C152.983 80.104 153.094 80.0507 153.208 80.016C153.326 79.9813 153.448 79.964 153.576 79.964C153.822 79.964 154.01 80.0347 154.14 80.176C154.274 80.3173 154.34 80.52 154.34 80.784ZM152.944 81.48C152.944 81.5547 152.971 81.6147 153.024 81.66C153.078 81.7027 153.151 81.724 153.244 81.724C153.338 81.724 153.444 81.7013 153.564 81.656C153.684 81.6107 153.823 81.54 153.98 81.444V81.044C153.634 81.0653 153.374 81.112 153.2 81.184C153.03 81.2533 152.944 81.352 152.944 81.48ZM156.391 80H156.783L155.727 82.056H155.651L154.667 80H155.063L155.703 81.412L156.391 80ZM158.532 82H158.144V79.2H158.532V82ZM160.574 81.52L160.494 81.904C160.436 81.9467 160.366 81.98 160.286 82.004C160.206 82.0307 160.124 82.044 160.038 82.044C159.849 82.044 159.7 81.9853 159.59 81.868C159.481 81.7507 159.426 81.5867 159.426 81.376V80.308H159.086V80H159.426V79.552L159.782 79.42V80H160.566V80.308H159.782V81.36C159.782 81.48 159.81 81.5707 159.866 81.632C159.922 81.6907 160.005 81.72 160.114 81.72C160.189 81.72 160.264 81.704 160.338 81.672C160.413 81.6373 160.489 81.5853 160.566 81.516L160.574 81.52ZM162.74 81.472L162.608 81.868C162.49 81.932 162.381 81.9773 162.28 82.004C162.178 82.0307 162.068 82.044 161.948 82.044C161.63 82.044 161.378 81.9493 161.192 81.76C161.005 81.5707 160.912 81.3173 160.912 81C160.912 80.7067 161.005 80.4573 161.192 80.252C161.378 80.0467 161.61 79.944 161.888 79.944C162.165 79.944 162.386 80.0413 162.552 80.236C162.717 80.428 162.8 80.676 162.8 80.98C162.8 81.0067 162.798 81.036 162.796 81.068C162.793 81.1 162.79 81.124 162.788 81.14H161.284C161.31 81.3213 161.385 81.4627 161.508 81.564C161.633 81.6653 161.793 81.716 161.988 81.716C162.105 81.716 162.228 81.6947 162.356 81.652C162.486 81.6067 162.612 81.5453 162.732 81.468L162.74 81.472ZM161.876 80.26C161.713 80.26 161.576 80.3173 161.464 80.432C161.354 80.5467 161.292 80.6933 161.276 80.872H162.436C162.42 80.68 162.362 80.5307 162.264 80.424C162.165 80.3147 162.036 80.26 161.876 80.26ZM164.234 80.284C164.141 80.284 164.051 80.3107 163.966 80.364C163.883 80.4147 163.786 80.5027 163.674 80.628V82H163.314V80.048L163.674 79.968V80.36C163.781 80.2187 163.887 80.1173 163.994 80.056C164.101 79.992 164.217 79.96 164.342 79.96C164.489 79.96 164.615 79.9987 164.722 80.076C164.831 80.1533 164.911 80.2627 164.962 80.404C165.079 80.2467 165.194 80.1333 165.306 80.064C165.418 79.9947 165.543 79.96 165.682 79.96C165.885 79.96 166.047 80.0307 166.17 80.172C166.295 80.3133 166.358 80.5027 166.358 80.74V82H165.994V80.776C165.994 80.6213 165.957 80.5013 165.882 80.416C165.807 80.328 165.705 80.284 165.574 80.284C165.481 80.284 165.39 80.3107 165.302 80.364C165.217 80.4173 165.119 80.5067 165.01 80.632C165.013 80.6427 165.014 80.656 165.014 80.672C165.014 80.6853 165.014 80.708 165.014 80.74V82H164.654V80.776C164.654 80.6213 164.617 80.5013 164.542 80.416C164.467 80.328 164.365 80.284 164.234 80.284Z" fill="white"/>
<path d="M118.97 39.06C118.48 39.06 118.098 38.9183 117.825 38.635C117.552 38.3483 117.415 37.95 117.415 37.44V35.5H118.045V37.45C118.045 37.78 118.127 38.035 118.29 38.215C118.453 38.395 118.683 38.485 118.98 38.485C119.277 38.485 119.507 38.395 119.67 38.215C119.833 38.0317 119.915 37.7733 119.915 37.44V35.5H120.53V37.44C120.53 37.95 120.393 38.3483 120.12 38.635C119.847 38.9183 119.463 39.06 118.97 39.06ZM123.04 38.315L122.93 38.88C122.847 38.9367 122.754 38.98 122.65 39.01C122.547 39.04 122.44 39.055 122.33 39.055C122.07 39.055 121.869 38.9767 121.725 38.82C121.582 38.6633 121.51 38.44 121.51 38.15V36.955H121.1V36.47H121.51V35.925L122.09 35.745V36.47H123.025V36.955H122.09V38.115C122.09 38.255 122.124 38.36 122.19 38.43C122.257 38.5 122.357 38.535 122.49 38.535C122.577 38.535 122.664 38.5167 122.75 38.48C122.84 38.4433 122.934 38.385 123.03 38.305L123.04 38.315ZM123.94 35.225C124.047 35.225 124.137 35.2617 124.21 35.335C124.284 35.405 124.32 35.4917 124.32 35.595C124.32 35.6983 124.284 35.7867 124.21 35.86C124.137 35.93 124.047 35.965 123.94 35.965C123.834 35.965 123.744 35.93 123.67 35.86C123.597 35.7867 123.56 35.6983 123.56 35.595C123.56 35.4917 123.597 35.405 123.67 35.335C123.744 35.2617 123.834 35.225 123.94 35.225ZM124.235 39H123.645V36.47H124.235V39ZM125.646 39H125.056V35.39L125.646 35.205V39ZM126.763 35.225C126.869 35.225 126.959 35.2617 127.033 35.335C127.106 35.405 127.143 35.4917 127.143 35.595C127.143 35.6983 127.106 35.7867 127.033 35.86C126.959 35.93 126.869 35.965 126.763 35.965C126.656 35.965 126.566 35.93 126.493 35.86C126.419 35.7867 126.383 35.6983 126.383 35.595C126.383 35.4917 126.419 35.405 126.493 35.335C126.566 35.2617 126.656 35.225 126.763 35.225ZM127.058 39H126.468V36.47H127.058V39ZM129.564 38.315L129.454 38.88C129.37 38.9367 129.277 38.98 129.174 39.01C129.07 39.04 128.964 39.055 128.854 39.055C128.594 39.055 128.392 38.9767 128.249 38.82C128.105 38.6633 128.034 38.44 128.034 38.15V36.955H127.624V36.47H128.034V35.925L128.614 35.745V36.47H129.549V36.955H128.614V38.115C128.614 38.255 128.647 38.36 128.714 38.43C128.78 38.5 128.88 38.535 129.014 38.535C129.1 38.535 129.187 38.5167 129.274 38.48C129.364 38.4433 129.457 38.385 129.554 38.305L129.564 38.315ZM132.509 36.47L131.399 39.19C131.292 39.4533 131.157 39.65 130.994 39.78C130.83 39.9133 130.637 39.98 130.414 39.98C130.337 39.98 130.262 39.9717 130.189 39.955C130.119 39.9417 130.049 39.92 129.979 39.89L129.864 39.32L129.874 39.31C129.954 39.3567 130.027 39.39 130.094 39.41C130.164 39.43 130.235 39.44 130.309 39.44C130.435 39.44 130.54 39.4067 130.624 39.34C130.71 39.2767 130.782 39.175 130.839 39.035L130.914 38.865L129.854 36.47H130.499L131.214 38.205L131.874 36.47H132.509ZM134.75 39H134.14V35.5H134.735L136.735 37.77L136.73 35.5H137.34V39.02H137.03L134.745 36.425L134.75 39ZM140.321 37.5V38.94L139.741 39.04V38.625C139.564 38.765 139.396 38.87 139.236 38.94C139.079 39.0067 138.924 39.04 138.771 39.04C138.548 39.04 138.368 38.9783 138.231 38.855C138.098 38.7317 138.031 38.5667 138.031 38.36C138.031 38.0767 138.171 37.865 138.451 37.725C138.734 37.585 139.163 37.5117 139.736 37.505C139.733 37.3183 139.684 37.1783 139.591 37.085C139.501 36.9883 139.369 36.94 139.196 36.94C139.056 36.94 138.911 36.97 138.761 37.03C138.614 37.0867 138.464 37.1717 138.311 37.285L138.301 37.28L138.406 36.68C138.546 36.5933 138.688 36.53 138.831 36.49C138.978 36.4467 139.134 36.425 139.301 36.425C139.631 36.425 139.883 36.5167 140.056 36.7C140.233 36.8833 140.321 37.15 140.321 37.5ZM138.596 38.315C138.596 38.3983 138.624 38.465 138.681 38.515C138.741 38.5617 138.824 38.585 138.931 38.585C139.031 38.585 139.146 38.5617 139.276 38.515C139.409 38.4683 139.563 38.3983 139.736 38.305V37.835C139.353 37.8617 139.066 37.9133 138.876 37.99C138.689 38.0667 138.596 38.175 138.596 38.315ZM142.78 36.47H143.415L142.115 39.065H141.86L140.645 36.47H141.29L142.01 38.14L142.78 36.47Z" fill="white"/>
<path d="M18.26 33.65V33.87C17.7 33.9 17.44 34.08 17.15 34.56L15.49 37.29V39.23C15.7 39.7 16.16 39.75 16.62 39.77V40H13.43V39.77C13.89 39.75 14.44 39.67 14.59 39.37V37.38L12.87 34.55C12.58 34.08 12.31 33.9 11.76 33.87V33.65H14.52V33.87C13.99 33.9 13.83 34.01 13.68 34.13L15.26 36.81L16.82 34.15C16.66 34.03 16.51 33.9 15.98 33.87V33.65H18.26ZM21.7716 39.27V39.53C21.5316 39.78 21.0416 40.09 20.7216 40.09C20.2116 40.09 20.0016 39.68 19.9916 39.45C19.6416 39.81 19.0916 40.09 18.7216 40.09C18.2316 40.09 17.7216 39.76 17.7216 39.18C17.7216 38.91 17.7616 38.57 17.9216 38.34L19.9916 37.61L20.0016 36.91C20.0116 36.45 19.6316 35.95 19.1716 35.95C18.8916 35.95 18.6516 36.3 18.6316 36.79L17.8216 36.94V36.83C18.1016 35.99 19.1716 35.57 19.6116 35.57C20.5216 35.57 20.8216 36.05 20.8116 36.82L20.7716 38.98C20.7616 39.39 20.9816 39.52 21.1916 39.52C21.4116 39.52 21.5416 39.43 21.7716 39.27ZM19.9816 39.26L19.9916 37.85C19.7316 37.97 18.9716 38.26 18.6816 38.42C18.6416 38.58 18.6116 38.8 18.6116 39C18.6116 39.3 18.7816 39.58 19.0816 39.58C19.4816 39.58 19.6716 39.48 19.9816 39.26ZM24.0782 39.77V40H21.8782V39.77C22.3582 39.74 22.4782 39.64 22.5582 39.47V34.11C22.5582 33.77 22.5782 33.63 21.8882 33.56V33.37L23.3882 32.92H23.5482V33.06L23.3582 33.4V39.47C23.4582 39.67 23.5782 39.72 24.0782 39.77ZM28.1063 38.96L28.2563 39.19C27.6463 39.75 27.1863 40.08 26.3663 40.08C25.3363 40.08 24.5463 39.25 24.5463 38.04C24.5463 36.57 25.4263 35.58 26.6363 35.58C27.6463 35.58 28.1163 36.11 28.1163 37.06V37.23L25.3863 37.21C25.3763 37.3 25.3663 37.52 25.3663 37.75C25.3663 38.8 26.0663 39.5 26.8963 39.5C27.4663 39.5 27.6763 39.33 28.1063 38.96ZM25.4263 36.94L27.3063 36.92C27.3063 36.38 26.9063 35.88 26.4563 35.88C25.9263 35.88 25.5363 36.28 25.4263 36.94Z" fill="white"/>
</svg>
