<svg width="501" height="261" viewBox="0 0 501 261" fill="none" xmlns="http://www.w3.org/2000/svg">
<rect width="501" height="261" fill="white"/>
<path d="M172 110.36V112.28C168.544 112.472 166.88 113.816 165.088 116.888L155.616 132.952V145.56C156.896 148.568 159.712 148.888 162.528 149.016V151H139.872V149.016C142.688 148.888 146.08 148.376 146.976 146.456V133.528L137.12 116.632C135.328 113.624 133.664 112.472 130.272 112.28V110.36H150.432V112.28C147.168 112.472 146.208 113.176 145.312 113.944L153.952 129.24L162.464 114.264C161.504 113.496 160.608 112.472 157.344 112.28V110.36H172ZM194.954 145.816V148.12C193.418 149.72 189.322 151.576 185.802 151.576C182.346 151.576 181.066 148.952 181.002 147.48C178.826 149.784 175.37 151.576 173.066 151.576C170.058 151.576 166.858 149.144 166.858 145.432C166.858 143.704 167.178 141.208 168.138 139.736L181.002 135.064L181.066 130.968C181.13 128.024 179.594 125.336 177.674 125.336C176.522 125.336 175.626 127.256 175.498 130.712L167.498 131.672V130.456C169.546 125.08 177.226 122.392 180.426 122.392C186.89 122.392 189.194 125.464 189.13 130.392L188.874 143.96C188.81 146.584 190.09 147.224 191.37 147.224C192.778 147.224 193.482 146.84 194.954 145.816ZM180.938 145.816L181.002 137.112C179.786 137.816 176.906 139.224 175.69 140.12C175.562 140.952 175.242 142.232 175.242 143.512C175.242 145.368 176.074 146.904 177.29 146.904C178.826 146.904 179.85 146.648 180.938 145.816ZM211.154 149.08V151H195.154V149.08C197.906 148.76 198.546 148.248 198.994 147.16V113.816C198.994 111.64 199.122 110.744 194.898 110.296V108.568L206.802 105.688H208.21V107.032L206.994 109.208V147.16C207.634 148.44 208.402 148.696 211.154 149.08ZM237.602 143.832L238.882 145.816C234.786 149.4 231.458 151.512 225.89 151.512C218.85 151.512 213.474 146.072 213.474 138.328C213.474 128.92 219.298 122.456 227.746 122.456C234.658 122.456 237.922 126.104 237.922 132.504V134.04L221.666 133.976C221.602 134.424 221.538 135.768 221.538 136.472C221.538 142.488 225.762 146.392 230.626 146.392C233.57 146.392 235.426 145.688 237.602 143.832ZM221.794 131.736L229.922 131.608C229.922 127.704 228.706 124.888 226.274 124.888C223.65 124.888 222.178 127.32 221.794 131.736ZM272.527 139.288C272.527 147.224 265.231 151.96 255.759 151.96C250.255 151.96 245.967 150.552 243.279 149.464L242.127 138.584H243.983C244.943 141.4 246.735 144.28 248.975 146.2C250.767 147.736 253.391 149.144 256.015 149.144C261.071 149.144 264.079 145.88 264.079 142.488C264.079 138.52 261.711 136.6 255.631 134.488C247.311 131.544 243.535 128.216 243.535 121.816C243.535 114.456 250.831 109.464 260.943 109.464C265.167 109.464 269.071 110.488 271.503 111.384V122.072H269.647C269.199 119.32 267.919 116.824 265.935 114.968C264.975 114.072 262.223 112.408 259.855 112.408C255.375 112.408 251.983 114.904 251.983 118.552C251.983 122.008 253.007 123.928 261.007 127C268.687 129.944 272.527 133.016 272.527 139.288ZM288.829 111.576C288.829 113.752 286.781 116.184 283.965 116.184C281.021 116.184 279.101 113.752 279.101 111.576C279.101 109.336 281.149 106.84 284.029 106.84C286.845 106.84 288.829 109.336 288.829 111.576ZM292.029 149.016V151H276.541V149.016C279.421 148.632 279.741 148.184 280.381 147.096L280.445 130.328C280.445 128.856 279.613 127.768 276.477 126.936V125.272L287.101 122.264H288.253V147.096C288.893 148.376 289.341 148.696 292.029 149.016ZM315.333 146.392V148.376C313.477 149.72 308.741 151.512 306.181 151.512C299.525 151.512 297.477 148.376 297.477 143.256C297.477 137.176 297.861 132.888 297.989 126.808H294.597V125.016L304.581 117.336H305.797L305.733 123.416H314.821V126.872L305.797 126.808C305.669 133.272 305.541 136.088 305.541 141.784C305.541 145.368 307.653 147.544 311.301 147.544C312.709 147.544 314.693 146.648 315.333 146.392ZM340.039 143.832L341.319 145.816C337.223 149.4 333.895 151.512 328.327 151.512C321.287 151.512 315.911 146.072 315.911 138.328C315.911 128.92 321.735 122.456 330.183 122.456C337.095 122.456 340.359 126.104 340.359 132.504V134.04L324.103 133.976C324.039 134.424 323.975 135.768 323.975 136.472C323.975 142.488 328.199 146.392 333.063 146.392C336.007 146.392 337.863 145.688 340.039 143.832ZM324.231 131.736L332.359 131.608C332.359 127.704 331.143 124.888 328.711 124.888C326.087 124.888 324.615 127.32 324.231 131.736ZM365.621 142.744C365.621 147.672 360.949 151.576 354.805 151.576C349.493 151.576 346.165 150.424 344.373 149.656L343.605 142.04H345.653C347.573 145.752 350.773 148.952 351.733 148.952C356.405 148.952 358.005 147.032 358.005 144.856C358.005 142.296 355.445 141.144 352.117 139.864C346.997 137.944 344.437 135.576 344.437 130.904C344.437 126.168 349.557 122.456 355.829 122.456C359.669 122.456 362.805 123.416 364.661 124.184L364.981 131.608H363.125C361.269 127.896 358.708 124.952 357.557 124.952C353.205 124.952 351.989 127.064 351.989 128.664C351.989 131.16 353.525 132.312 357.941 134.04C362.805 135.96 365.621 138.328 365.621 142.744Z" fill="#376C74"/>
</svg>
