<svg width="501" height="261" viewBox="0 0 501 261" fill="none" xmlns="http://www.w3.org/2000/svg">
<rect width="501" height="261" fill="white"/>
<mask id="mask0_334_122" style="mask-type:alpha" maskUnits="userSpaceOnUse" x="67" y="21" width="401" height="220">
<path d="M464.432 21L468 240.832L67.0316 240.833L464.432 21Z" fill="white"/>
</mask>
<g mask="url(#mask0_334_122)">
<rect x="179.006" y="123.644" width="62.0252" height="42.265" rx="5" fill="#EEEEEE"/>
<path d="M206.502 146.929H204.411C204.066 146.929 203.784 146.647 203.784 146.302V144.212C203.784 143.867 204.066 143.584 204.411 143.584H206.502C206.846 143.584 207.129 143.867 207.129 144.212V146.302C207.129 146.647 206.846 146.929 206.502 146.929ZM212.146 146.302V144.212C212.146 143.867 211.864 143.584 211.519 143.584H209.428C209.083 143.584 208.801 143.867 208.801 144.212V146.302C208.801 146.647 209.083 146.929 209.428 146.929H211.519C211.864 146.929 212.146 146.647 212.146 146.302ZM217.163 146.302V144.212C217.163 143.867 216.881 143.584 216.536 143.584H214.446C214.101 143.584 213.818 143.867 213.818 144.212V146.302C213.818 146.647 214.101 146.929 214.446 146.929H216.536C216.881 146.929 217.163 146.647 217.163 146.302ZM212.146 151.319V149.229C212.146 148.884 211.864 148.602 211.519 148.602H209.428C209.083 148.602 208.801 148.884 208.801 149.229V151.319C208.801 151.664 209.083 151.947 209.428 151.947H211.519C211.864 151.947 212.146 151.664 212.146 151.319ZM207.129 151.319V149.229C207.129 148.884 206.846 148.602 206.502 148.602H204.411C204.066 148.602 203.784 148.884 203.784 149.229V151.319C203.784 151.664 204.066 151.947 204.411 151.947H206.502C206.846 151.947 207.129 151.664 207.129 151.319ZM217.163 151.319V149.229C217.163 148.884 216.881 148.602 216.536 148.602H214.446C214.101 148.602 213.818 148.884 213.818 149.229V151.319C213.818 151.664 214.101 151.947 214.446 151.947H216.536C216.881 151.947 217.163 151.664 217.163 151.319ZM222.181 137.731V156.128C222.181 157.513 221.057 158.636 219.672 158.636H201.275C199.89 158.636 198.766 157.513 198.766 156.128V137.731C198.766 136.346 199.89 135.222 201.275 135.222H203.784V132.504C203.784 132.16 204.066 131.877 204.411 131.877H206.502C206.846 131.877 207.129 132.16 207.129 132.504V135.222H213.818V132.504C213.818 132.16 214.101 131.877 214.446 131.877H216.536C216.881 131.877 217.163 132.16 217.163 132.504V135.222H219.672C221.057 135.222 222.181 136.346 222.181 137.731ZM219.672 155.814V140.24H201.275V155.814C201.275 155.987 201.416 156.128 201.589 156.128H219.358C219.531 156.128 219.672 155.987 219.672 155.814Z" fill="#376C74"/>
<rect x="245.423" y="123.644" width="68.612" height="9.33123" rx="4.66562" fill="#E3E3E3"/>
<rect x="245.423" y="139.562" width="149.849" height="3.29338" rx="1.64669" fill="#E3E3E3"/>
<rect x="245.423" y="150.54" width="149.849" height="3.29338" rx="1.64669" fill="#E3E3E3"/>
<rect x="245.423" y="145.051" width="149.849" height="3.29338" rx="1.64669" fill="#E3E3E3"/>
<rect x="245.423" y="159.322" width="20.3091" height="6.58675" fill="#E3E3E3"/>
<rect x="179.006" y="173.045" width="62.0252" height="42.265" rx="5" fill="#EEEEEE"/>
<path d="M206.502 196.33H204.411C204.066 196.33 203.784 196.048 203.784 195.703V193.612C203.784 193.267 204.066 192.985 204.411 192.985H206.502C206.846 192.985 207.129 193.267 207.129 193.612V195.703C207.129 196.048 206.846 196.33 206.502 196.33ZM212.146 195.703V193.612C212.146 193.267 211.864 192.985 211.519 192.985H209.428C209.083 192.985 208.801 193.267 208.801 193.612V195.703C208.801 196.048 209.083 196.33 209.428 196.33H211.519C211.864 196.33 212.146 196.048 212.146 195.703ZM217.163 195.703V193.612C217.163 193.267 216.881 192.985 216.536 192.985H214.446C214.101 192.985 213.818 193.267 213.818 193.612V195.703C213.818 196.048 214.101 196.33 214.446 196.33H216.536C216.881 196.33 217.163 196.048 217.163 195.703ZM212.146 200.72V198.63C212.146 198.285 211.864 198.002 211.519 198.002H209.428C209.083 198.002 208.801 198.285 208.801 198.63V200.72C208.801 201.065 209.083 201.347 209.428 201.347H211.519C211.864 201.347 212.146 201.065 212.146 200.72ZM207.129 200.72V198.63C207.129 198.285 206.846 198.002 206.502 198.002H204.411C204.066 198.002 203.784 198.285 203.784 198.63V200.72C203.784 201.065 204.066 201.347 204.411 201.347H206.502C206.846 201.347 207.129 201.065 207.129 200.72ZM217.163 200.72V198.63C217.163 198.285 216.881 198.002 216.536 198.002H214.446C214.101 198.002 213.818 198.285 213.818 198.63V200.72C213.818 201.065 214.101 201.347 214.446 201.347H216.536C216.881 201.347 217.163 201.065 217.163 200.72ZM222.181 187.131V205.528C222.181 206.913 221.057 208.037 219.672 208.037H201.275C199.89 208.037 198.766 206.913 198.766 205.528V187.131C198.766 185.747 199.89 184.623 201.275 184.623H203.784V181.905C203.784 181.56 204.066 181.278 204.411 181.278H206.502C206.846 181.278 207.129 181.56 207.129 181.905V184.623H213.818V181.905C213.818 181.56 214.101 181.278 214.446 181.278H216.536C216.881 181.278 217.163 181.56 217.163 181.905V184.623H219.672C221.057 184.623 222.181 185.747 222.181 187.131ZM219.672 205.215V189.64H201.275V205.215C201.275 205.387 201.416 205.528 201.589 205.528H219.358C219.531 205.528 219.672 205.387 219.672 205.215Z" fill="#376C74"/>
<rect x="245.423" y="173.045" width="68.612" height="9.33123" rx="4.66562" fill="#E3E3E3"/>
<rect x="245.423" y="188.963" width="149.849" height="3.29338" rx="1.64669" fill="#E3E3E3"/>
<rect x="245.423" y="199.94" width="149.849" height="3.29338" rx="1.64669" fill="#E3E3E3"/>
<rect x="245.423" y="194.451" width="149.849" height="3.29338" rx="1.64669" fill="#E3E3E3"/>
<rect x="245.423" y="208.723" width="20.3091" height="6.58675" fill="#E3E3E3"/>
</g>
<mask id="mask1_334_122" style="mask-type:alpha" maskUnits="userSpaceOnUse" x="33" y="25" width="396" height="216">
<path d="M36.2934 240.559L33 27.0383L428.205 25.3916L36.2934 240.559Z" fill="white"/>
</mask>
<g mask="url(#mask1_334_122)">
<rect x="113.139" y="54.2086" width="62.0252" height="42.265" rx="5" fill="#EEEEEE"/>
<path d="M127.342 77.2806L113.139 92.1093C113.139 94.5196 115.093 96.4736 117.503 96.4736H170.164C172.925 96.4736 175.164 94.235 175.164 91.4736V81.8876L158.334 70.5214C157.936 70.2526 157.403 70.3047 157.064 70.6457L143.253 84.5618C142.936 84.8816 142.444 84.9497 142.051 84.728L128.556 77.1017C128.158 76.8767 127.658 76.9504 127.342 77.2806Z" fill="#376C74"/>
<ellipse cx="131.258" cy="65.0368" rx="1.74228" ry="1.74649" fill="#376C74"/>
<rect x="118.628" y="99.767" width="50.4984" height="9.33123" rx="4.66562" fill="#E3E3E3"/>
<rect x="118.628" y="112.392" width="50.4984" height="3.29338" rx="1.64669" fill="#E3E3E3"/>
<rect x="118.628" y="123.37" width="50.4984" height="3.29338" rx="1.64669" fill="#E3E3E3"/>
<rect x="118.628" y="117.88" width="50.4984" height="3.29338" rx="1.64669" fill="#E3E3E3"/>
<rect x="118.628" y="129.956" width="20.3091" height="6.58675" fill="#E3E3E3"/>
<g filter="url(#filter0_d_334_122)">
<path d="M118.139 55.7086H170.164C172.097 55.7086 173.664 57.2756 173.664 59.2086V137.581C173.664 139.514 172.097 141.081 170.164 141.081H118.139C116.206 141.081 114.639 139.514 114.639 137.581V59.2086C114.639 57.2756 116.206 55.7086 118.139 55.7086Z" stroke="#D3D3D3" stroke-width="3" shape-rendering="crispEdges"/>
</g>
<rect x="182.848" y="54.2086" width="62.0252" height="42.265" rx="5" fill="#EEEEEE"/>
<path d="M197.051 77.2806L182.848 92.1093C182.848 94.5196 184.802 96.4736 187.213 96.4736H239.874C242.635 96.4736 244.874 94.235 244.874 91.4736V81.8876L228.043 70.5214C227.645 70.2526 227.112 70.3047 226.774 70.6457L212.963 84.5618C212.645 84.8816 212.153 84.9497 211.761 84.728L198.265 77.1017C197.867 76.8767 197.368 76.9504 197.051 77.2806Z" fill="#376C74"/>
<ellipse cx="200.968" cy="65.0368" rx="1.74228" ry="1.74649" fill="#376C74"/>
<rect x="188.337" y="99.767" width="50.4984" height="9.33123" rx="4.66562" fill="#E3E3E3"/>
<rect x="188.337" y="112.392" width="50.4984" height="3.29338" rx="1.64669" fill="#E3E3E3"/>
<rect x="188.337" y="123.37" width="50.4984" height="3.29338" rx="1.64669" fill="#E3E3E3"/>
<rect x="188.337" y="117.88" width="50.4984" height="3.29338" rx="1.64669" fill="#E3E3E3"/>
<rect x="188.337" y="129.956" width="20.3091" height="6.58675" fill="#E3E3E3"/>
<g filter="url(#filter1_d_334_122)">
<path d="M187.848 55.7086H239.874C241.807 55.7086 243.374 57.2756 243.374 59.2086V137.581C243.374 139.514 241.807 141.081 239.874 141.081H187.848C185.915 141.081 184.348 139.514 184.348 137.581V59.2086C184.348 57.2756 185.915 55.7086 187.848 55.7086Z" stroke="#D3D3D3" stroke-width="3" shape-rendering="crispEdges"/>
</g>
<rect x="252.558" y="54.2086" width="62.0252" height="42.265" rx="5" fill="#EEEEEE"/>
<path d="M266.761 77.2806L252.558 92.1093C252.558 94.5196 254.512 96.4736 256.923 96.4736H309.583C312.345 96.4736 314.583 94.235 314.583 91.4736V81.8876L297.753 70.5214C297.355 70.2526 296.822 70.3047 296.484 70.6457L282.673 84.5618C282.355 84.8816 281.863 84.9497 281.471 84.728L267.975 77.1017C267.577 76.8767 267.077 76.9504 266.761 77.2806Z" fill="#376C74"/>
<ellipse cx="270.678" cy="65.0368" rx="1.74228" ry="1.74649" fill="#376C74"/>
<rect x="258.047" y="99.767" width="50.4984" height="9.33123" rx="4.66562" fill="#E3E3E3"/>
<rect x="258.047" y="112.392" width="50.4984" height="3.29338" rx="1.64669" fill="#E3E3E3"/>
<rect x="258.047" y="123.37" width="50.4984" height="3.29338" rx="1.64669" fill="#E3E3E3"/>
<rect x="258.047" y="117.88" width="50.4984" height="3.29338" rx="1.64669" fill="#E3E3E3"/>
<rect x="258.047" y="129.956" width="20.3091" height="6.58675" fill="#E3E3E3"/>
<g filter="url(#filter2_d_334_122)">
<path d="M257.558 55.7086H309.583C311.516 55.7086 313.083 57.2756 313.083 59.2086V137.581C313.083 139.514 311.516 141.081 309.583 141.081H257.558C255.625 141.081 254.058 139.514 254.058 137.581V59.2086C254.058 57.2756 255.625 55.7086 257.558 55.7086Z" stroke="#D3D3D3" stroke-width="3" shape-rendering="crispEdges"/>
</g>
</g>
<path d="M83 222.448L83 30" stroke="#376C74" stroke-width="3" stroke-linecap="round"/>
<path d="M83 30L430.758 30" stroke="#376C74" stroke-width="3" stroke-linecap="round"/>
<path d="M430.567 30L83.2174 222.305" stroke="#376C74" stroke-width="3" stroke-linecap="round" stroke-dasharray="10 10"/>
<path d="M431.258 30.5515L431.258 223" stroke="#376C74" stroke-width="3" stroke-linecap="round"/>
<path d="M431.258 223L83.5003 223" stroke="#376C74" stroke-width="3" stroke-linecap="round"/>
<defs>
<filter id="filter0_d_334_122" x="111.139" y="54.2086" width="66.0253" height="92.3722" filterUnits="userSpaceOnUse" color-interpolation-filters="sRGB">
<feFlood flood-opacity="0" result="BackgroundImageFix"/>
<feColorMatrix in="SourceAlpha" type="matrix" values="0 0 0 0 0 0 0 0 0 0 0 0 0 0 0 0 0 0 127 0" result="hardAlpha"/>
<feOffset dy="2"/>
<feGaussianBlur stdDeviation="1"/>
<feComposite in2="hardAlpha" operator="out"/>
<feColorMatrix type="matrix" values="0 0 0 0 0 0 0 0 0 0 0 0 0 0 0 0 0 0 0.11 0"/>
<feBlend mode="normal" in2="BackgroundImageFix" result="effect1_dropShadow_334_122"/>
<feBlend mode="normal" in="SourceGraphic" in2="effect1_dropShadow_334_122" result="shape"/>
</filter>
<filter id="filter1_d_334_122" x="180.848" y="54.2086" width="66.0253" height="92.3722" filterUnits="userSpaceOnUse" color-interpolation-filters="sRGB">
<feFlood flood-opacity="0" result="BackgroundImageFix"/>
<feColorMatrix in="SourceAlpha" type="matrix" values="0 0 0 0 0 0 0 0 0 0 0 0 0 0 0 0 0 0 127 0" result="hardAlpha"/>
<feOffset dy="2"/>
<feGaussianBlur stdDeviation="1"/>
<feComposite in2="hardAlpha" operator="out"/>
<feColorMatrix type="matrix" values="0 0 0 0 0 0 0 0 0 0 0 0 0 0 0 0 0 0 0.11 0"/>
<feBlend mode="normal" in2="BackgroundImageFix" result="effect1_dropShadow_334_122"/>
<feBlend mode="normal" in="SourceGraphic" in2="effect1_dropShadow_334_122" result="shape"/>
</filter>
<filter id="filter2_d_334_122" x="250.558" y="54.2086" width="66.0253" height="92.3722" filterUnits="userSpaceOnUse" color-interpolation-filters="sRGB">
<feFlood flood-opacity="0" result="BackgroundImageFix"/>
<feColorMatrix in="SourceAlpha" type="matrix" values="0 0 0 0 0 0 0 0 0 0 0 0 0 0 0 0 0 0 127 0" result="hardAlpha"/>
<feOffset dy="2"/>
<feGaussianBlur stdDeviation="1"/>
<feComposite in2="hardAlpha" operator="out"/>
<feColorMatrix type="matrix" values="0 0 0 0 0 0 0 0 0 0 0 0 0 0 0 0 0 0 0.11 0"/>
<feBlend mode="normal" in2="BackgroundImageFix" result="effect1_dropShadow_334_122"/>
<feBlend mode="normal" in="SourceGraphic" in2="effect1_dropShadow_334_122" result="shape"/>
</filter>
</defs>
</svg>
