<svg width="27" height="24" viewBox="0 0 27 24" fill="none" xmlns="http://www.w3.org/2000/svg">
<path d="M8.66016 18.3008C9.98047 18.8086 11.5039 19.0625 13.1289 19.0625C19.4258 19.0625 23.6914 15 23.6914 10.9375C23.6914 6.92578 19.4258 2.8125 13.1289 2.8125C6.78125 2.8125 2.56641 6.92578 2.56641 10.9375C2.56641 12.5625 3.17578 14.1367 4.34375 15.5078C4.80078 15.9648 5.00391 16.625 4.95312 17.2852C4.90234 18.1992 4.64844 19.0625 4.39453 19.7734C5.25781 19.418 5.96875 18.9609 6.375 18.6562C7.03516 18.1484 7.89844 18.0469 8.66016 18.3008ZM1.44922 20.2812C1.95703 19.4688 2.41406 18.3516 2.51562 17.082C0.992188 15.3555 0.128906 13.2734 0.128906 10.9375C0.128906 5.14844 5.91797 0.375 13.1289 0.375C20.2891 0.375 26.1289 5.14844 26.1289 10.9375C26.1289 16.7773 20.2891 21.5 13.1289 21.5C11.25 21.5 9.47266 21.1953 7.84766 20.6367C7.23828 21.043 6.22266 21.6523 5.05469 22.1602C4.29297 22.5156 3.42969 22.8203 2.51562 22.9727C2.51562 22.9727 2.46484 23.0234 2.41406 23.0234C2.21094 23.0742 1.95703 23.0742 1.75391 23.125H1.70312C1.44922 23.125 1.19531 23.1758 0.941406 23.1758C0.585938 23.1758 0.28125 22.9727 0.179688 22.668C0.0273438 22.3633 0.128906 22.0078 0.332031 21.7539C0.535156 21.5508 0.738281 21.2969 0.941406 21.0938C0.992188 20.9414 1.09375 20.8398 1.14453 20.7383L1.19531 20.6875C1.29688 20.5859 1.34766 20.4336 1.44922 20.2812ZM11.5039 6.875C11.5039 6.46875 11.8594 6.0625 12.3164 6.0625H13.9414C14.3477 6.0625 14.7539 6.46875 14.7539 6.875V9.3125H17.1914C17.5977 9.3125 18.0039 9.71875 18.0039 10.125V11.75C18.0039 12.207 17.5977 12.5625 17.1914 12.5625H14.7539V15C14.7539 15.457 14.3477 15.8125 13.9414 15.8125H12.3164C11.8594 15.8125 11.5039 15.457 11.5039 15V12.5625H9.06641C8.60938 12.5625 8.25391 12.207 8.25391 11.75V10.125C8.25391 9.71875 8.60938 9.3125 9.06641 9.3125H11.5039V6.875Z" fill="#68B0EE"/>
</svg>
