<?xml version="1.0" encoding="UTF-8"?>
<svg id="Layer_1" data-name="Layer 1" xmlns="http://www.w3.org/2000/svg" viewBox="0 0 79.64 35" height="35px">
  <defs>
    <style>
      .cls-1 {
        fill: #00356b;
        stroke-width: 0px;
      }
    </style>
  </defs>
  <path class="cls-1" d="M32.28,4.16v1.03c-2.63.14-3.85.99-5.22,3.24l-7.8,12.83v9.12c.99,2.21,3.15,2.44,5.31,2.54v1.08h-14.99v-1.08c2.16-.09,4.75-.47,5.45-1.88v-9.35L6.95,8.39c-1.36-2.21-2.63-3.06-5.22-3.2v-1.03h12.97v1.03c-2.49.14-3.24.66-3.95,1.22l7.43,12.6,7.33-12.5c-.75-.56-1.46-1.18-3.95-1.32v-1.03h10.72ZM48.59,30.57v1.22c-1.13,1.17-3.43,2.63-4.94,2.63-2.4,0-3.38-1.93-3.43-3.01-1.64,1.69-4.23,3.01-5.97,3.01-2.3,0-4.7-1.55-4.7-4.28,0-1.27.19-2.87.94-3.95l9.73-3.43.05-3.29c.05-2.16-1.74-4.51-3.9-4.51-1.32,0-2.44,1.65-2.54,3.95l-3.81.7v-.52c1.32-3.95,6.35-5.92,8.41-5.92,4.28,0,5.69,2.26,5.64,5.88l-.19,10.15c-.05,1.93.99,2.54,1.97,2.54s1.65-.42,2.73-1.17ZM40.17,30.52l.05-6.63c-1.22.56-4.79,1.93-6.16,2.68-.19.75-.33,1.79-.33,2.73,0,1.41.8,2.73,2.21,2.73,1.88,0,2.77-.47,4.23-1.5ZM59.23,32.92v1.08h-10.34v-1.08c2.26-.14,2.82-.61,3.2-1.41V6.32c0-1.6.09-2.26-3.15-2.58v-.89l7.05-2.12h.75v.66l-.89,1.6v28.53c.47.94,1.03,1.17,3.38,1.41ZM77.97,29.11l.71,1.08c-2.87,2.63-5.03,4.18-8.88,4.18-4.84,0-8.55-3.9-8.55-9.59,0-6.91,4.14-11.56,9.82-11.56,4.75,0,6.96,2.49,6.96,6.96v.8l-12.83-.09c-.05.42-.09,1.46-.09,2.54,0,4.94,3.29,8.23,7.19,8.23,2.68,0,3.67-.8,5.69-2.54ZM65.37,19.62l8.84-.09c0-2.54-1.88-4.89-4-4.89-2.49,0-4.32,1.88-4.84,4.98Z"/>
</svg>
