<?xml version="1.0" encoding="UTF-8"?>
<svg id="Layer_2" data-name="Layer 2" xmlns="http://www.w3.org/2000/svg" viewBox="0 0 393.2 393.2">
  <defs>
    <style>
      .cls-1 {
        fill: #00356b;
      }

      .cls-1, .cls-2 {
        stroke-width: 0px;
      }

      .cls-2 {
        fill: #fff;
      }
    </style>
  </defs>
  <path class="cls-1" d="M393.2,196.6c0,108.13-88.47,196.6-196.6,196.6S0,304.73,0,196.6,88.47,0,196.6,0s196.6,88.47,196.6,196.6Z"/>
  <path class="cls-2" d="M266.58,129.04l-54.13,88.79v63.47c7.05,15.39,21.78,17.95,36.83,18.59v6.41h-104.41v-6.41c15.05-.64,32.99-4.17,37.79-13.78v-65.07l-56.05-92.31c-9.61-16.03-18.26-22.12-36.51-23.08v-6.41h90.64v6.41c-17.29.96-22.42,5.45-27.54,9.3l52.52,87.83,50.92-87.19c-5.12-3.85-10.89-8.98-28.18-9.94v-6.41h74.62v6.41c-18.25.96-26.9,7.37-36.51,23.4Z"/>
</svg>