<?xml version="1.0" standalone="no"?>
<!DOCTYPE svg PUBLIC "-//W3C//DTD SVG 20010904//EN"
 "http://www.w3.org/TR/2001/REC-SVG-20010904/DTD/svg10.dtd">
<svg version="1.0" xmlns="http://www.w3.org/2000/svg"
 width="228.000000pt" height="228.000000pt" viewBox="0 0 228.000000 228.000000"
 preserveAspectRatio="xMidYMid meet">
<metadata>
Created by potrace 1.14, written by Peter Selinger 2001-2017
</metadata>
<g transform="translate(0.000000,228.000000) scale(0.100000,-0.100000)"
fill="#000000" stroke="none">
<path d="M0 1140 l0 -1140 1140 0 1140 0 0 1140 0 1140 -1140 0 -1140 0 0
-1140z m1020 780 c0 -32 -2 -33 -90 -45 -64 -8 -133 -43 -125 -63 12 -32 397
-692 403 -692 4 0 81 132 172 292 91 161 180 318 198 349 l32 57 -34 22 c-19
11 -63 26 -98 31 -113 19 -108 17 -108 49 l0 30 315 0 315 0 0 -30 c0 -31 0
-32 -85 -45 -56 -9 -112 -40 -157 -88 -22 -23 -141 -212 -264 -420 l-224 -378
0 -259 0 -258 26 -32 c38 -44 93 -69 184 -82 l80 -12 0 -33 0 -33 -425 0 -425
0 0 34 0 33 70 7 c92 9 167 32 208 62 l32 25 0 260 0 260 -227 387 c-251 426
-295 484 -387 515 -27 9 -60 17 -72 17 -40 0 -54 11 -54 41 l0 29 370 0 370 0
0 -30z"/>
</g>
</svg>
