<svg width="132" height="95" viewBox="0 0 132 95" fill="none" xmlns="http://www.w3.org/2000/svg">
<rect x="0.5" y="0.5" width="131" height="94" rx="8.5" fill="#EDECF1" stroke="#8A8D97"/>
<rect x="8.5" y="7.5" width="116" height="80" rx="2.5" fill="#D9D9D9" stroke="#C6C6C6"/>
<rect x="9" y="11" width="115" height="13" fill="#FEDD39"/>
<path d="M19 13.5161C20.9132 13.5161 22.4839 15.0657 22.4839 17C22.4839 18.924 20.9256 20.4839 19 20.4839C17.0767 20.4839 15.5161 18.9264 15.5161 17C15.5161 15.0774 17.0742 13.5161 19 13.5161ZM19 13C16.791 13 15 14.7917 15 17C15 19.2096 16.791 21 19 21C21.209 21 23 19.2096 23 17C23 14.7917 21.209 13 19 13ZM18.4194 18.5484H18.6129V16.6129H18.4194C18.3125 16.6129 18.2258 16.5262 18.2258 16.4194V16.2903C18.2258 16.1834 18.3125 16.0968 18.4194 16.0968H19.1935C19.3004 16.0968 19.3871 16.1834 19.3871 16.2903V18.5484H19.5806C19.6875 18.5484 19.7742 18.635 19.7742 18.7419V18.871C19.7742 18.9779 19.6875 19.0645 19.5806 19.0645H18.4194C18.3125 19.0645 18.2258 18.9779 18.2258 18.871V18.7419C18.2258 18.635 18.3125 18.5484 18.4194 18.5484ZM19 14.6774C18.715 14.6774 18.4839 14.9085 18.4839 15.1935C18.4839 15.4786 18.715 15.7097 19 15.7097C19.285 15.7097 19.5161 15.4786 19.5161 15.1935C19.5161 14.9085 19.285 14.6774 19 14.6774Z" fill="#404040"/>
<path d="M15 29C15 28.4477 15.4477 28 16 28H80C80.5523 28 81 28.4477 81 29V32C81 32.5523 80.5523 33 80 33H16C15.4477 33 15 32.5523 15 32V29Z" fill="#C9C8CE"/>
<rect x="15" y="36" width="8" height="3" fill="#A4A4AA"/>
<rect x="30" y="36" width="8" height="3" fill="#C9C8CE"/>
<rect x="47" y="36" width="8" height="3" fill="#C9C8CE"/>
<rect x="15" y="42" width="86" height="1" fill="#C9C8CE"/>
<rect x="15" y="45" width="86" height="34" rx="1" fill="#C9C8CE"/>
<rect x="15" y="42" width="8" height="1" fill="#A4A4AA"/>
</svg>
