<svg width="28" height="24" viewBox="0 0 28 24" fill="none" xmlns="http://www.w3.org/2000/svg">
<path d="M13.134 7.5H14.8597C15.025 7.5 15.1563 7.63125 15.1514 7.79062L14.7868 16.9781C14.7819 17.1281 14.6507 17.25 14.4951 17.25H13.4986C13.343 17.25 13.2117 17.1328 13.2069 16.9781L12.8423 7.79062C12.8374 7.63125 12.9687 7.5 13.134 7.5ZM13.9993 18.1875C13.2458 18.1875 12.6381 18.7734 12.6381 19.5C12.6381 20.2266 13.2458 20.8125 13.9993 20.8125C14.7528 20.8125 15.3604 20.2266 15.3604 19.5C15.3604 18.7734 14.7528 18.1875 13.9993 18.1875ZM27.6839 20.625L16.0216 1.125C15.1271 -0.375 12.8763 -0.375 11.977 1.125L0.314678 20.625C-0.579804 22.1203 0.538298 24 2.33698 24H25.6664C27.4554 24 28.5832 22.125 27.6839 20.625ZM25.6664 22.5H2.33212C1.73418 22.5 1.35986 21.8766 1.6564 21.375L13.3236 1.875C13.6201 1.37812 14.3736 1.37344 14.6701 1.875L26.3373 21.375C26.6387 21.8719 26.2644 22.5 25.6664 22.5Z" fill="white"/>
</svg>
