<svg width="132" height="95" viewBox="0 0 132 95" fill="none" xmlns="http://www.w3.org/2000/svg">
<rect x="0.5" y="0.5" width="131" height="94" rx="8.5" fill="#EDECF1" stroke="#8A8D97"/>
<rect x="8.5" y="7.5" width="116" height="80" rx="2.5" fill="#D9D9D9" stroke="#C6C6C6"/>
<path d="M15 29C15 28.4477 15.4477 28 16 28H80C80.5523 28 81 28.4477 81 29V32C81 32.5523 80.5523 33 80 33H16C15.4477 33 15 32.5523 15 32V29Z" fill="#C9C8CE"/>
<rect x="15" y="36" width="8" height="3" fill="#A4A4AA"/>
<rect x="30" y="36" width="8" height="3" fill="#C9C8CE"/>
<rect x="47" y="36" width="8" height="3" fill="#C9C8CE"/>
<rect x="15" y="42" width="86" height="1" fill="#C9C8CE"/>
<rect x="15" y="45" width="86" height="34" rx="1" fill="#C9C8CE"/>
<rect x="15" y="42" width="8" height="1" fill="#A4A4AA"/>
<rect x="9" y="11" width="115" height="13" fill="#D52020"/>
<path d="M18.2216 15.5H18.7763C18.8295 15.5 18.8717 15.5438 18.8701 15.5969L18.7529 18.6594C18.7513 18.7094 18.7092 18.75 18.6591 18.75H18.3388C18.2888 18.75 18.2466 18.7109 18.2451 18.6594L18.1279 15.5969C18.1263 15.5438 18.1685 15.5 18.2216 15.5ZM18.4998 19.0625C18.2576 19.0625 18.0622 19.2578 18.0622 19.5C18.0622 19.7422 18.2576 19.9375 18.4998 19.9375C18.742 19.9375 18.9373 19.7422 18.9373 19.5C18.9373 19.2578 18.742 19.0625 18.4998 19.0625ZM22.8984 19.875L19.1498 13.375C18.8623 12.875 18.1388 12.875 17.8497 13.375L14.1011 19.875C13.8136 20.3734 14.173 21 14.7512 21H22.2499C22.8249 21 23.1875 20.375 22.8984 19.875ZM22.2499 20.5H14.7496C14.5574 20.5 14.4371 20.2922 14.5324 20.125L18.2826 13.625C18.3779 13.4594 18.6201 13.4578 18.7154 13.625L22.4656 20.125C22.5624 20.2906 22.4421 20.5 22.2499 20.5Z" fill="white"/>
</svg>
