<svg width="132" height="95" viewBox="0 0 132 95" fill="none" xmlns="http://www.w3.org/2000/svg">
<rect x="0.5" y="0.5" width="131" height="94" rx="8.5" fill="#EDECF1" stroke="#8A8D97"/>
<rect x="8.5" y="7.5" width="116" height="80" rx="2.5" fill="#D9D9D9" stroke="#C6C6C6"/>
<path d="M15 29C15 28.4477 15.4477 28 16 28H80C80.5523 28 81 28.4477 81 29V32C81 32.5523 80.5523 33 80 33H16C15.4477 33 15 32.5523 15 32V29Z" fill="#C9C8CE"/>
<rect x="15" y="36" width="8" height="3" fill="#A4A4AA"/>
<rect x="30" y="36" width="8" height="3" fill="#C9C8CE"/>
<rect x="47" y="36" width="8" height="3" fill="#C9C8CE"/>
<rect x="15" y="42" width="86" height="1" fill="#C9C8CE"/>
<rect x="15" y="45" width="86" height="34" rx="1" fill="#C9C8CE"/>
<rect x="15" y="42" width="8" height="1" fill="#A4A4AA"/>
<rect x="9" y="11" width="115" height="13" fill="#B3E8FF"/>
</svg>
