<svg width="50" height="51" viewBox="0 0 50 51" fill="none" xmlns="http://www.w3.org/2000/svg">
<g clip-path="url(#clip0_3_3)">
<mask id="mask0_3_3" style="mask-type:luminance" maskUnits="userSpaceOnUse" x="0" y="0" width="50" height="51">
<path d="M49.6141 0.936707H0.399902V50.3038H49.6141V0.936707Z" fill="white"/>
</mask>
<g mask="url(#mask0_3_3)">
<rect y="10" width="50" height="37" rx="10" fill="white"/>
<path d="M14.4611 0.936707C16.4055 0.936707 17.9764 2.31551 17.9764 4.02215V7.10759H32.0376V4.02215C32.0376 2.31551 33.6085 0.936707 35.5529 0.936707C37.4973 0.936707 39.0682 2.31551 39.0682 4.02215V7.10759H44.3412C47.2523 7.10759 49.6141 9.18062 49.6141 11.7358V16.3639H0.399902V11.7358C0.399902 9.18062 2.76174 7.10759 5.67285 7.10759H10.9458V4.02215C10.9458 2.31551 12.5167 0.936707 14.4611 0.936707ZM0.399902 19.4494H49.6141V45.6756C49.6141 48.2308 47.2523 50.3038 44.3412 50.3038H5.67285C2.76174 50.3038 0.399902 48.2308 0.399902 45.6756V19.4494ZM7.4305 27.163V30.2484C7.4305 31.0969 8.22145 31.7911 9.18815 31.7911H12.7035C13.6702 31.7911 14.4611 31.0969 14.4611 30.2484V27.163C14.4611 26.3145 13.6702 25.6203 12.7035 25.6203H9.18815C8.22145 25.6203 7.4305 26.3145 7.4305 27.163ZM21.4917 27.163V30.2484C21.4917 31.0969 22.2826 31.7911 23.2494 31.7911H26.7647C27.7314 31.7911 28.5223 31.0969 28.5223 30.2484V27.163C28.5223 26.3145 27.7314 25.6203 26.7647 25.6203H23.2494C22.2826 25.6203 21.4917 26.3145 21.4917 27.163ZM37.3106 25.6203C36.3438 25.6203 35.5529 26.3145 35.5529 27.163V30.2484C35.5529 31.0969 36.3438 31.7911 37.3106 31.7911H40.8259C41.7926 31.7911 42.5835 31.0969 42.5835 30.2484V27.163C42.5835 26.3145 41.7926 25.6203 40.8259 25.6203H37.3106ZM7.4305 39.5047V42.5902C7.4305 43.4387 8.22145 44.1329 9.18815 44.1329H12.7035C13.6702 44.1329 14.4611 43.4387 14.4611 42.5902V39.5047C14.4611 38.6562 13.6702 37.962 12.7035 37.962H9.18815C8.22145 37.962 7.4305 38.6562 7.4305 39.5047ZM23.2494 37.962C22.2826 37.962 21.4917 38.6562 21.4917 39.5047V42.5902C21.4917 43.4387 22.2826 44.1329 23.2494 44.1329H26.7647C27.7314 44.1329 28.5223 43.4387 28.5223 42.5902V39.5047C28.5223 38.6562 27.7314 37.962 26.7647 37.962H23.2494ZM35.5529 39.5047V42.5902C35.5529 43.4387 36.3438 44.1329 37.3106 44.1329H40.8259C41.7926 44.1329 42.5835 43.4387 42.5835 42.5902V39.5047C42.5835 38.6562 41.7926 37.962 40.8259 37.962H37.3106C36.3438 37.962 35.5529 38.6562 35.5529 39.5047Z" fill="#8C8C8C"/>
</g>
</g>
<defs>
<clipPath id="clip0_3_3">
<rect width="50" height="51" fill="white"/>
</clipPath>
</defs>
</svg>
