<svg width="58" height="58" viewBox="0 0 58 58" fill="none" xmlns="http://www.w3.org/2000/svg">
<path d="M57.1021 29.4108C57.1021 13.7496 44.3401 0.987488 28.6788 0.987488C13.0176 0.987488 0.255493 13.7496 0.255493 29.4108C0.255493 37.6536 3.80841 45.0721 9.43623 50.2735C9.43623 50.302 9.43623 50.302 9.4078 50.3304C9.69204 50.6146 10.0331 50.842 10.3173 51.0978C10.4879 51.2399 10.63 51.382 10.8005 51.4957C11.3122 51.9221 11.8806 52.32 12.4207 52.7179C12.6196 52.8601 12.7902 52.9737 12.9891 53.1159C13.5292 53.4854 14.0977 53.8265 14.6945 54.1391C14.8935 54.2528 15.1209 54.3949 15.3199 54.5086C15.8883 54.8213 16.4852 55.1055 17.1105 55.3613C17.3379 55.475 17.5653 55.5887 17.7927 55.674C18.418 55.9298 19.0433 56.1572 19.6686 56.3561C19.896 56.4414 20.1234 56.5267 20.3508 56.5835C21.0329 56.7825 21.7151 56.953 22.3973 57.1236C22.5962 57.1804 22.7952 57.2372 23.0226 57.2657C23.8184 57.4362 24.6143 57.5499 25.4386 57.6352C25.5522 57.6352 25.6659 57.6636 25.7796 57.692C26.746 57.7773 27.7124 57.8341 28.6788 57.8341C29.6452 57.8341 30.6116 57.7773 31.5496 57.692C31.6633 57.692 31.777 57.6636 31.8907 57.6352C32.7149 57.5499 33.5108 57.4362 34.3066 57.2657C34.5056 57.2372 34.7046 57.152 34.9319 57.1236C35.6141 56.953 36.3247 56.8109 36.9784 56.5835C37.2058 56.4982 37.4332 56.413 37.6606 56.3561C38.2859 56.1287 38.9396 55.9298 39.5365 55.674C39.7639 55.5887 39.9913 55.475 40.2187 55.3613C40.8156 55.1055 41.4125 54.8213 42.0094 54.5086C42.2367 54.3949 42.4357 54.2528 42.6347 54.1391C43.2031 53.798 43.7716 53.4854 44.3401 53.1159C44.539 53.0022 44.7096 52.8601 44.9085 52.7179C45.477 52.32 46.017 51.9221 46.5287 51.4957C46.6992 51.3536 46.8413 51.2115 47.0119 51.0978C47.3245 50.842 47.6372 50.5862 47.9214 50.3304C47.9214 50.302 47.9214 50.302 47.893 50.2735C53.5492 45.0721 57.1021 37.6536 57.1021 29.4108ZM42.7199 43.5372C35.0172 38.3642 22.3973 38.3642 14.6377 43.5372C13.3871 44.3615 12.3638 45.3279 11.5111 46.3795C7.19078 42.0023 4.51899 36.005 4.51899 29.4108C4.51899 16.0803 15.3483 5.25099 28.6788 5.25099C42.0094 5.25099 52.8386 16.0803 52.8386 29.4108C52.8386 36.005 50.1669 42.0023 45.8465 46.3795C45.0222 45.3279 43.9706 44.3615 42.7199 43.5372Z" fill="#8C8C8C"/>
<path d="M28.6789 14.9993C22.7953 14.9993 18.0201 19.7744 18.0201 25.6581C18.0201 31.428 22.5394 36.1178 28.5368 36.2884H28.7926H28.9915H29.0484C34.7899 36.0894 39.3092 31.428 39.3376 25.6581C39.3376 19.7744 34.5625 14.9993 28.6789 14.9993Z" fill="#8C8C8C"/>
</svg>
