<svg width="61" height="58" viewBox="0 0 61 58" fill="none" xmlns="http://www.w3.org/2000/svg">
<g clip-path="url(#clip0_3_47)">
<mask id="mask0_3_47" style="mask-type:luminance" maskUnits="userSpaceOnUse" x="0" y="0" width="61" height="58">
<path d="M60.1518 0.261353H0.894043V57.6597H60.1518V0.261353Z" fill="white"/>
</mask>
<g mask="url(#mask0_3_47)">
<path d="M33.154 44.164H52.9066C56.2623 44.164 59.0078 41.1649 59.0078 37.4994V8.1755C59.0078 4.51 56.3004 1.51096 52.9066 1.51096H8.13915C4.74537 1.51096 2.03796 4.46835 2.03796 8.1755V37.4994C2.03796 41.1649 4.74537 44.164 8.13915 44.164H11.7999L13.3252 45.8718L22.4388 55.9102L31.6287 45.9551L33.154 44.164Z" fill="white"/>
<path d="M22.4389 57.6597L11.3423 45.4136H8.1392C4.1353 45.4136 0.894043 41.873 0.894043 37.4994V8.17548C0.894043 3.80188 4.1353 0.261353 8.1392 0.261353H52.9067C56.9106 0.261353 60.1518 3.80188 60.1518 8.17548V37.5411C60.1518 41.9147 56.9106 45.4552 52.9067 45.4552H33.6498L32.4296 46.8714L22.4389 57.6597ZM8.1392 2.76055C5.39367 2.76055 3.18199 5.17644 3.18199 8.17548V37.5411C3.18199 40.5401 5.39367 42.956 8.1392 42.956H12.2956L14.1641 45.0387L22.477 54.2024L30.828 45.1637L32.6584 42.9977H52.9067C55.6522 42.9977 57.8639 40.5818 57.8639 37.5827V8.17548C57.8639 5.17644 55.6522 2.76055 52.9067 2.76055H8.1392Z" fill="#8C8C8C"/>
<path d="M53.5931 8.13382H8.0249V13.1322H53.5931V8.13382Z" fill="#8C8C8C"/>
<path d="M19.579 18.2973H7.75793V37.5411H19.579V18.2973Z" fill="#8C8C8C"/>
<path d="M53.555 19.1303H26.0615V24.1287H53.555V19.1303Z" fill="#8C8C8C"/>
<path d="M53.555 30.4184H26.0615V35.4168H53.555V30.4184Z" fill="#8C8C8C"/>
</g>
</g>
<defs>
<clipPath id="clip0_3_47">
<rect width="61" height="58" fill="white"/>
</clipPath>
</defs>
</svg>
