<svg width="42" height="55" viewBox="0 0 42 55" fill="none" xmlns="http://www.w3.org/2000/svg">
<path d="M39.7276 10.5253L30.7167 1.51435C29.75 0.547745 28.4398 0 27.0758 0H5.15524C2.30912 0.0107401 0 2.31986 0 5.16598V49.8448C0 52.6909 2.30912 55 5.15524 55H36.0867C38.9328 55 41.2419 52.6909 41.2419 49.8448V14.1769C41.2419 12.8129 40.6942 11.4919 39.7276 10.5253ZM35.6678 13.7581H27.4946V5.58485L35.6678 13.7581ZM5.15524 49.8448V5.16598H22.3394V16.3357C22.3394 17.7641 23.4886 18.9133 24.917 18.9133H36.0867V49.8448H5.15524Z" fill="#8C8C8C"/>
</svg>
