<svg width="58" height="58" viewBox="0 0 58 58" fill="none" xmlns="http://www.w3.org/2000/svg">
<path d="M56.8466 29.4233C56.8466 13.7621 44.0846 1 28.4233 1C12.7621 1 0 13.7621 0 29.4233C0 37.6661 3.55292 45.0846 9.18074 50.286C9.18074 50.3145 9.18074 50.3145 9.15231 50.3429C9.43655 50.6271 9.77761 50.8545 10.0618 51.1103C10.2324 51.2524 10.3745 51.3945 10.545 51.5082C11.0567 51.9346 11.6251 52.3325 12.1652 52.7304C12.3641 52.8726 12.5347 52.9862 12.7336 53.1284C13.2737 53.4979 13.8422 53.839 14.439 54.1516C14.638 54.2653 14.8654 54.4074 15.0644 54.5211C15.6328 54.8338 16.2297 55.118 16.855 55.3738C17.0824 55.4875 17.3098 55.6012 17.5372 55.6865C18.1625 55.9423 18.7878 56.1697 19.4131 56.3686C19.6405 56.4539 19.8679 56.5392 20.0953 56.596C20.7774 56.795 21.4596 56.9655 22.1418 57.1361C22.3407 57.1929 22.5397 57.2497 22.7671 57.2782C23.5629 57.4487 24.3588 57.5624 25.1831 57.6477C25.2967 57.6477 25.4104 57.6761 25.5241 57.7045C26.4905 57.7898 27.4569 57.8466 28.4233 57.8466C29.3897 57.8466 30.3561 57.7898 31.2941 57.7045C31.4078 57.7045 31.5215 57.6761 31.6352 57.6477C32.4594 57.5624 33.2553 57.4487 34.0511 57.2782C34.2501 57.2497 34.4491 57.1645 34.6764 57.1361C35.3586 56.9655 36.0692 56.8234 36.7229 56.596C36.9503 56.5107 37.1777 56.4255 37.4051 56.3686C38.0304 56.1412 38.6841 55.9423 39.281 55.6865C39.5084 55.6012 39.7358 55.4875 39.9632 55.3738C40.5601 55.118 41.157 54.8338 41.7539 54.5211C41.9812 54.4074 42.1802 54.2653 42.3792 54.1516C42.9476 53.8105 43.5161 53.4979 44.0846 53.1284C44.2835 53.0147 44.4541 52.8726 44.653 52.7304C45.2215 52.3325 45.7615 51.9346 46.2732 51.5082C46.4437 51.3661 46.5858 51.224 46.7564 51.1103C47.069 50.8545 47.3817 50.5987 47.6659 50.3429C47.6659 50.3145 47.6659 50.3145 47.6375 50.286C53.2937 45.0846 56.8466 37.6661 56.8466 29.4233Z" fill="white"/>
<path d="M56.8466 29.4233C56.8466 13.7621 44.0846 1 28.4233 1C12.7621 1 0 13.7621 0 29.4233C0 37.6661 3.55292 45.0846 9.18074 50.286C9.18074 50.3145 9.18074 50.3145 9.15231 50.3429C9.43655 50.6271 9.77761 50.8545 10.0618 51.1103C10.2324 51.2524 10.3745 51.3945 10.545 51.5082C11.0567 51.9346 11.6251 52.3325 12.1652 52.7304C12.3641 52.8726 12.5347 52.9862 12.7336 53.1284C13.2737 53.4979 13.8422 53.839 14.439 54.1516C14.638 54.2653 14.8654 54.4074 15.0644 54.5211C15.6328 54.8338 16.2297 55.118 16.855 55.3738C17.0824 55.4875 17.3098 55.6012 17.5372 55.6865C18.1625 55.9423 18.7878 56.1697 19.4131 56.3686C19.6405 56.4539 19.8679 56.5392 20.0953 56.596C20.7774 56.795 21.4596 56.9655 22.1418 57.1361C22.3407 57.1929 22.5397 57.2497 22.7671 57.2782C23.5629 57.4487 24.3588 57.5624 25.1831 57.6477C25.2967 57.6477 25.4104 57.6761 25.5241 57.7045C26.4905 57.7898 27.4569 57.8466 28.4233 57.8466C29.3897 57.8466 30.3561 57.7898 31.2941 57.7045C31.4078 57.7045 31.5215 57.6761 31.6352 57.6477C32.4594 57.5624 33.2553 57.4487 34.0511 57.2782C34.2501 57.2497 34.4491 57.1645 34.6764 57.1361C35.3586 56.9655 36.0692 56.8234 36.7229 56.596C36.9503 56.5107 37.1777 56.4255 37.4051 56.3686C38.0304 56.1412 38.6841 55.9423 39.281 55.6865C39.5084 55.6012 39.7358 55.4875 39.9632 55.3738C40.5601 55.118 41.157 54.8338 41.7539 54.5211C41.9812 54.4074 42.1802 54.2653 42.3792 54.1516C42.9476 53.8105 43.5161 53.4979 44.0846 53.1284C44.2835 53.0147 44.4541 52.8726 44.653 52.7304C45.2215 52.3325 45.7615 51.9346 46.2732 51.5082C46.4437 51.3661 46.5858 51.224 46.7564 51.1103C47.069 50.8545 47.3817 50.5987 47.6659 50.3429C47.6659 50.3145 47.6659 50.3145 47.6375 50.286C53.2937 45.0846 56.8466 37.6661 56.8466 29.4233ZM42.4644 43.5497C34.7617 38.3767 22.1418 38.3767 14.3822 43.5497C13.1316 44.374 12.1083 45.3404 11.2556 46.392C6.93529 42.0148 4.2635 36.0175 4.2635 29.4233C4.2635 16.0928 15.0928 5.2635 28.4233 5.2635C41.7539 5.2635 52.5831 16.0928 52.5831 29.4233C52.5831 36.0175 49.9114 42.0148 45.591 46.392C44.7667 45.3404 43.7151 44.374 42.4644 43.5497Z" fill="#8C8C8C"/>
<path d="M28.6588 15.0118C22.7752 15.0118 18 19.7869 18 25.6706C18 31.4405 22.5193 36.1303 28.5167 36.3009H28.7725H28.9714H29.0283C34.7698 36.1019 39.2891 31.4405 39.3175 25.6706C39.3175 19.7869 34.5424 15.0118 28.6588 15.0118Z" fill="#8C8C8C"/>
</svg>
