<svg width="185" height="166" viewBox="0 0 185 166" fill="none" xmlns="http://www.w3.org/2000/svg">
<g filter="url(#filter0_d_1196_2319)">
<rect x="4" width="176.981" height="158" rx="5" fill="white"/>
<rect x="4.5" y="0.5" width="175.981" height="157" rx="4.5" stroke="#DCDCDC"/>
</g>
<rect x="126.5" y="60.5" width="47" height="36" rx="0.5" stroke="#8C8C8C"/>
<rect x="129.667" y="65" width="24.4444" height="6.11111" fill="#8C8C8C"/>
<rect x="129.667" y="74.7778" width="35.4444" height="2.44444" fill="#8C8C8C"/>
<rect x="129.667" y="78.4444" width="35.4444" height="2.44444" fill="#8C8C8C"/>
<rect x="129.667" y="82.1111" width="35.4444" height="2.44444" fill="#8C8C8C"/>
<rect x="129.667" y="86" width="35.4444" height="2.44444" fill="#8C8C8C"/>
<rect x="70.5" y="60.5" width="47" height="36" rx="0.5" stroke="#8C8C8C"/>
<rect x="73.6667" y="65" width="24.4444" height="6.11111" fill="#8C8C8C"/>
<rect x="73.6667" y="74.7778" width="35.4444" height="2.44444" fill="#8C8C8C"/>
<rect x="73.6667" y="78.4444" width="35.4444" height="2.44444" fill="#8C8C8C"/>
<rect x="73.6667" y="82.1111" width="35.4444" height="2.44444" fill="#8C8C8C"/>
<rect x="73.6667" y="86" width="35.4444" height="2.44444" fill="#8C8C8C"/>
<rect x="14.5" y="60.5" width="47" height="36" rx="0.5" stroke="#8C8C8C"/>
<rect x="17.6667" y="65" width="24.4444" height="6.11111" fill="#8C8C8C"/>
<rect x="17.6667" y="74.7778" width="35.4444" height="2.44444" fill="#8C8C8C"/>
<rect x="17.6667" y="78.4444" width="35.4444" height="2.44444" fill="#8C8C8C"/>
<rect x="17.6667" y="82.1111" width="35.4444" height="2.44444" fill="#8C8C8C"/>
<rect x="17.6667" y="86" width="35.4444" height="2.44444" fill="#8C8C8C"/>
<defs>
<filter id="filter0_d_1196_2319" x="0" y="0" width="184.981" height="166" filterUnits="userSpaceOnUse" color-interpolation-filters="sRGB">
<feFlood flood-opacity="0" result="BackgroundImageFix"/>
<feColorMatrix in="SourceAlpha" type="matrix" values="0 0 0 0 0 0 0 0 0 0 0 0 0 0 0 0 0 0 127 0" result="hardAlpha"/>
<feOffset dy="4"/>
<feGaussianBlur stdDeviation="2"/>
<feComposite in2="hardAlpha" operator="out"/>
<feColorMatrix type="matrix" values="0 0 0 0 0 0 0 0 0 0 0 0 0 0 0 0 0 0 0.25 0"/>
<feBlend mode="normal" in2="BackgroundImageFix" result="effect1_dropShadow_1196_2319"/>
<feBlend mode="normal" in="SourceGraphic" in2="effect1_dropShadow_1196_2319" result="shape"/>
</filter>
</defs>
</svg>
