<svg width="185" height="166" viewBox="0 0 185 166" fill="none" xmlns="http://www.w3.org/2000/svg">

<rect x="20" y="55" width="43.2578" height="29.4766" rx="5" fill="#8C8C8C"/>
<path d="M52.8632 70.0917C52.8632 64.0964 47.9777 59.2109 41.9824 59.2109C35.987 59.2109 31.1016 64.0964 31.1016 70.0917C31.1016 73.2472 32.4617 76.0871 34.6161 78.0782C34.6161 78.0891 34.6161 78.0891 34.6052 78.1C34.714 78.2088 34.8446 78.2959 34.9534 78.3938C35.0187 78.4482 35.0731 78.5026 35.1383 78.5461C35.3342 78.7093 35.5518 78.8617 35.7585 79.014C35.8347 79.0684 35.9 79.1119 35.9762 79.1663C36.1829 79.3078 36.4005 79.4384 36.629 79.558C36.7052 79.6016 36.7922 79.656 36.8684 79.6995C37.086 79.8192 37.3145 79.928 37.5539 80.0259C37.6409 80.0694 37.728 80.113 37.815 80.1456C38.0544 80.2435 38.2938 80.3306 38.5332 80.4067C38.6202 80.4394 38.7072 80.472 38.7943 80.4938C39.0554 80.57 39.3166 80.6352 39.5777 80.7005C39.6539 80.7223 39.73 80.744 39.8171 80.7549C40.1217 80.8202 40.4264 80.8637 40.742 80.8964C40.7855 80.8964 40.829 80.9073 40.8725 80.9181C41.2425 80.9508 41.6124 80.9725 41.9824 80.9725C42.3523 80.9725 42.7223 80.9508 43.0813 80.9181C43.1249 80.9181 43.1684 80.9073 43.2119 80.8964C43.5274 80.8637 43.8321 80.8202 44.1368 80.7549C44.2129 80.744 44.2891 80.7114 44.3761 80.7005C44.6373 80.6352 44.9093 80.5808 45.1596 80.4938C45.2466 80.4611 45.3337 80.4285 45.4207 80.4067C45.6601 80.3197 45.9103 80.2435 46.1388 80.1456C46.2259 80.113 46.3129 80.0694 46.4 80.0259C46.6285 79.928 46.857 79.8192 47.0855 79.6995C47.1725 79.656 47.2487 79.6016 47.3248 79.558C47.5425 79.4275 47.7601 79.3078 47.9777 79.1663C48.0539 79.1228 48.1191 79.0684 48.1953 79.014C48.4129 78.8617 48.6197 78.7093 48.8155 78.5461C48.8808 78.4917 48.9352 78.4373 49.0005 78.3938C49.1202 78.2959 49.2399 78.1979 49.3487 78.1C49.3487 78.0891 49.3487 78.0891 49.3378 78.0782C51.5031 76.0871 52.8632 73.2472 52.8632 70.0917ZM47.3575 75.4995C44.4088 73.5192 39.5777 73.5192 36.6072 75.4995C36.1285 75.815 35.7368 76.185 35.4104 76.5876C33.7565 74.9119 32.7337 72.6161 32.7337 70.0917C32.7337 64.9886 36.8793 60.8431 41.9824 60.8431C47.0855 60.8431 51.231 64.9886 51.231 70.0917C51.231 72.6161 50.2083 74.9119 48.5544 76.5876C48.2388 76.185 47.8362 75.815 47.3575 75.4995Z" fill="white"/>
<path d="M41.9824 64.5748C39.7301 64.5748 37.9021 66.4028 37.9021 68.6551C37.9021 70.8639 39.6321 72.6593 41.928 72.7246H42.0259H42.1021H42.1239C44.3218 72.6484 46.0518 70.8639 46.0627 68.6551C46.0627 66.4028 44.2347 64.5748 41.9824 64.5748Z" fill="white"/>
<rect x="20" y="98.2578" width="43.2578" height="5.74219" rx="2.87109" fill="#8C8C8C"/>
<rect x="20" y="88.6875" width="43.2578" height="5.74219" rx="2.87109" fill="#8C8C8C"/>
<rect x="70.5312" y="55" width="43.2578" height="29.4766" rx="5" fill="#8C8C8C"/>
<path d="M103.394 70.0917C103.394 64.0964 98.5089 59.2109 92.5136 59.2109C86.5183 59.2109 81.6328 64.0964 81.6328 70.0917C81.6328 73.2472 82.9929 76.0871 85.1473 78.0782C85.1473 78.0891 85.1473 78.0891 85.1364 78.1C85.2452 78.2088 85.3758 78.2959 85.4846 78.3938C85.5499 78.4482 85.6043 78.5026 85.6696 78.5461C85.8654 78.7093 86.0831 78.8617 86.2898 79.014C86.366 79.0684 86.4312 79.1119 86.5074 79.1663C86.7141 79.3078 86.9318 79.4384 87.1603 79.558C87.2364 79.6016 87.3235 79.656 87.3996 79.6995C87.6173 79.8192 87.8458 79.928 88.0851 80.0259C88.1722 80.0694 88.2592 80.113 88.3463 80.1456C88.5856 80.2435 88.825 80.3306 89.0644 80.4067C89.1514 80.4394 89.2385 80.472 89.3255 80.4938C89.5867 80.57 89.8478 80.6352 90.109 80.7005C90.1851 80.7223 90.2613 80.744 90.3483 80.7549C90.653 80.8202 90.9577 80.8637 91.2732 80.8964C91.3167 80.8964 91.3602 80.9073 91.4038 80.9181C91.7737 80.9508 92.1437 80.9725 92.5136 80.9725C92.8836 80.9725 93.2535 80.9508 93.6126 80.9181C93.6561 80.9181 93.6996 80.9073 93.7431 80.8964C94.0587 80.8637 94.3634 80.8202 94.668 80.7549C94.7442 80.744 94.8203 80.7114 94.9074 80.7005C95.1685 80.6352 95.4406 80.5808 95.6908 80.4938C95.7779 80.4611 95.8649 80.4285 95.9519 80.4067C96.1913 80.3197 96.4416 80.2435 96.6701 80.1456C96.7571 80.113 96.8442 80.0694 96.9312 80.0259C97.1597 79.928 97.3882 79.8192 97.6167 79.6995C97.7038 79.656 97.7799 79.6016 97.8561 79.558C98.0737 79.4275 98.2913 79.3078 98.5089 79.1663C98.5851 79.1228 98.6504 79.0684 98.7266 79.014C98.9442 78.8617 99.1509 78.7093 99.3468 78.5461C99.412 78.4917 99.4664 78.4373 99.5317 78.3938C99.6514 78.2959 99.7711 78.1979 99.8799 78.1C99.8799 78.0891 99.8799 78.0891 99.869 78.0782C102.034 76.0871 103.394 73.2472 103.394 70.0917ZM97.8887 75.4995C94.94 73.5192 90.109 73.5192 87.1385 75.4995C86.6597 75.815 86.268 76.185 85.9416 76.5876C84.2877 74.9119 83.2649 72.6161 83.2649 70.0917C83.2649 64.9886 87.4105 60.8431 92.5136 60.8431C97.6167 60.8431 101.762 64.9886 101.762 70.0917C101.762 72.6161 100.74 74.9119 99.0856 76.5876C98.7701 76.185 98.3675 75.815 97.8887 75.4995Z" fill="white"/>
<path d="M92.5137 64.5748C90.2613 64.5748 88.4333 66.4028 88.4333 68.6551C88.4333 70.8639 90.1634 72.6593 92.4592 72.7246H92.5572H92.6333H92.6551C94.853 72.6484 96.5831 70.8639 96.594 68.6551C96.594 66.4028 94.766 64.5748 92.5137 64.5748Z" fill="white"/>
<rect x="70.5312" y="98.2578" width="43.2578" height="5.74219" rx="2.87109" fill="#8C8C8C"/>
<rect x="70.5312" y="88.6875" width="43.2578" height="5.74219" rx="2.87109" fill="#8C8C8C"/>
<rect x="121.062" y="55" width="43.2578" height="29.4766" rx="5" fill="#8C8C8C"/>
<path d="M153.926 70.0917C153.926 64.0964 149.04 59.2109 143.045 59.2109C137.05 59.2109 132.164 64.0964 132.164 70.0917C132.164 73.2472 133.524 76.0871 135.679 78.0782C135.679 78.0891 135.679 78.0891 135.668 78.1C135.776 78.2088 135.907 78.2959 136.016 78.3938C136.081 78.4482 136.136 78.5026 136.201 78.5461C136.397 78.7093 136.614 78.8617 136.821 79.014C136.897 79.0684 136.962 79.1119 137.039 79.1663C137.245 79.3078 137.463 79.4384 137.692 79.558C137.768 79.6016 137.855 79.656 137.931 79.6995C138.149 79.8192 138.377 79.928 138.616 80.0259C138.703 80.0694 138.79 80.113 138.878 80.1456C139.117 80.2435 139.356 80.3306 139.596 80.4067C139.683 80.4394 139.77 80.472 139.857 80.4938C140.118 80.57 140.379 80.6352 140.64 80.7005C140.716 80.7223 140.793 80.744 140.88 80.7549C141.184 80.8202 141.489 80.8637 141.804 80.8964C141.848 80.8964 141.891 80.9073 141.935 80.9181C142.305 80.9508 142.675 80.9725 143.045 80.9725C143.415 80.9725 143.785 80.9508 144.144 80.9181C144.187 80.9181 144.231 80.9073 144.274 80.8964C144.59 80.8637 144.895 80.8202 145.199 80.7549C145.275 80.744 145.352 80.7114 145.439 80.7005C145.7 80.6352 145.972 80.5808 146.222 80.4938C146.309 80.4611 146.396 80.4285 146.483 80.4067C146.723 80.3197 146.973 80.2435 147.201 80.1456C147.288 80.113 147.375 80.0694 147.462 80.0259C147.691 79.928 147.919 79.8192 148.148 79.6995C148.235 79.656 148.311 79.6016 148.387 79.558C148.605 79.4275 148.823 79.3078 149.04 79.1663C149.116 79.1228 149.182 79.0684 149.258 79.014C149.475 78.8617 149.682 78.7093 149.878 78.5461C149.943 78.4917 149.998 78.4373 150.063 78.3938C150.183 78.2959 150.302 78.1979 150.411 78.1C150.411 78.0891 150.411 78.0891 150.4 78.0782C152.566 76.0871 153.926 73.2472 153.926 70.0917ZM148.42 75.4995C145.471 73.5192 140.64 73.5192 137.67 75.4995C137.191 75.815 136.799 76.185 136.473 76.5876C134.819 74.9119 133.796 72.6161 133.796 70.0917C133.796 64.9886 137.942 60.8431 143.045 60.8431C148.148 60.8431 152.294 64.9886 152.294 70.0917C152.294 72.6161 151.271 74.9119 149.617 76.5876C149.301 76.185 148.899 75.815 148.42 75.4995Z" fill="white"/>
<path d="M143.045 64.5748C140.793 64.5748 138.965 66.4028 138.965 68.6551C138.965 70.8639 140.695 72.6593 142.99 72.7246H143.088H143.165H143.186C145.384 72.6484 147.114 70.8639 147.125 68.6551C147.125 66.4028 145.297 64.5748 143.045 64.5748Z" fill="white"/>
<rect x="121.062" y="98.2578" width="43.2578" height="5.74219" rx="2.87109" fill="#8C8C8C"/>
<rect x="121.062" y="88.6875" width="43.2578" height="5.74219" rx="2.87109" fill="#8C8C8C"/>
<defs>
<filter id="filter0_d_1004_85" x="0" y="0" width="184.981" height="166" filterUnits="userSpaceOnUse" color-interpolation-filters="sRGB">
<feFlood flood-opacity="0" result="BackgroundImageFix"/>
<feColorMatrix in="SourceAlpha" type="matrix" values="0 0 0 0 0 0 0 0 0 0 0 0 0 0 0 0 0 0 127 0" result="hardAlpha"/>
<feOffset dy="4"/>
<feGaussianBlur stdDeviation="2"/>
<feComposite in2="hardAlpha" operator="out"/>
<feColorMatrix type="matrix" values="0 0 0 0 0 0 0 0 0 0 0 0 0 0 0 0 0 0 0.25 0"/>
<feBlend mode="normal" in2="BackgroundImageFix" result="effect1_dropShadow_1004_85"/>
<feBlend mode="normal" in="SourceGraphic" in2="effect1_dropShadow_1004_85" result="shape"/>
</filter>
</defs>
</svg>
