<svg width="160" height="66" viewBox="0 0 160 66" fill="none" xmlns="http://www.w3.org/2000/svg">
<path d="M0 3C0 1.34314 1.34315 0 3 0H44.6667C46.3235 0 47.6667 1.34315 47.6667 3V33H0V3Z" fill="#8C8C8C"/>
<rect x="0.5" y="0.5" width="46.6667" height="65" rx="2.5" stroke="#8C8C8C"/>
<rect x="3.66669" y="36.6667" width="24.4444" height="6.11111" fill="#8C8C8C"/>
<rect x="3.66669" y="46.4444" width="35.4444" height="2.44444" fill="#8C8C8C"/>
<rect x="3.66669" y="50.1111" width="35.4444" height="2.44444" fill="#8C8C8C"/>
<rect x="3.66669" y="53.7778" width="35.4444" height="2.44444" fill="#8C8C8C"/>
<path d="M56 3C56 1.34314 57.3431 0 59 0H100.667C102.324 0 103.667 1.34315 103.667 3V33H56V3Z" fill="#8C8C8C"/>
<rect x="56.5" y="0.5" width="46.6667" height="65" rx="2.5" stroke="#8C8C8C"/>
<rect x="59.6666" y="36.6667" width="24.4444" height="6.11111" fill="#8C8C8C"/>
<rect x="59.6666" y="46.4444" width="35.4444" height="2.44444" fill="#8C8C8C"/>
<rect x="59.6666" y="50.1111" width="35.4444" height="2.44444" fill="#8C8C8C"/>
<rect x="59.6666" y="53.7778" width="35.4444" height="2.44444" fill="#8C8C8C"/>
<path d="M112 3C112 1.34314 113.343 0 115 0H156.667C158.324 0 159.667 1.34315 159.667 3V33H112V3Z" fill="#8C8C8C"/>
<rect x="112.5" y="0.5" width="46.6667" height="65" rx="2.5" stroke="#8C8C8C"/>
<rect x="115.667" y="36.6667" width="24.4444" height="6.11111" fill="#8C8C8C"/>
<rect x="115.667" y="46.4444" width="35.4444" height="2.44444" fill="#8C8C8C"/>
<rect x="115.667" y="50.1111" width="35.4444" height="2.44444" fill="#8C8C8C"/>
<rect x="115.667" y="53.7778" width="35.4444" height="2.44444" fill="#8C8C8C"/>
</svg>
