<svg width="160" height="66" viewBox="0 0 160 66" fill="none" xmlns="http://www.w3.org/2000/svg">
<g clip-path="url(#clip0_3_14)">
<rect x="1" y="2" width="46" height="63" rx="2" fill="white"/>
<rect x="57" y="2" width="46" height="63" rx="2" fill="white"/>
<rect x="113" y="2" width="46" height="63" rx="2" fill="white"/>
<path d="M0 3C0 1.34314 1.34315 0 3 0H44.6667C46.3235 0 47.6667 1.34315 47.6667 3V33H0V3Z" fill="#8C8C8C"/>
<path d="M44.6667 0.5H3C1.61929 0.5 0.5 1.61929 0.5 3V63C0.5 64.3807 1.61929 65.5 3 65.5H44.6667C46.0474 65.5 47.1667 64.3807 47.1667 63V3C47.1667 1.61929 46.0474 0.5 44.6667 0.5Z" stroke="#8C8C8C"/>
<path d="M28.1111 36.6667H3.66669V42.7778H28.1111V36.6667Z" fill="#8C8C8C"/>
<path d="M39.1111 46.4444H3.66669V48.8888H39.1111V46.4444Z" fill="#8C8C8C"/>
<path d="M39.1111 50.1111H3.66669V52.5555H39.1111V50.1111Z" fill="#8C8C8C"/>
<path d="M39.1111 53.7778H3.66669V56.2222H39.1111V53.7778Z" fill="#8C8C8C"/>
<path d="M56 3C56 1.34314 57.3431 0 59 0H100.667C102.324 0 103.667 1.34315 103.667 3V33H56V3Z" fill="#8C8C8C"/>
<path d="M100.667 0.5H59C57.6193 0.5 56.5 1.61929 56.5 3V63C56.5 64.3807 57.6193 65.5 59 65.5H100.667C102.047 65.5 103.167 64.3807 103.167 63V3C103.167 1.61929 102.047 0.5 100.667 0.5Z" stroke="#8C8C8C"/>
<path d="M84.111 36.6667H59.6666V42.7778H84.111V36.6667Z" fill="#8C8C8C"/>
<path d="M95.111 46.4444H59.6666V48.8888H95.111V46.4444Z" fill="#8C8C8C"/>
<path d="M95.111 50.1111H59.6666V52.5555H95.111V50.1111Z" fill="#8C8C8C"/>
<path d="M95.111 53.7778H59.6666V56.2222H95.111V53.7778Z" fill="#8C8C8C"/>
<path d="M112 3C112 1.34314 113.343 0 115 0H156.667C158.324 0 159.667 1.34315 159.667 3V33H112V3Z" fill="#8C8C8C"/>
<path d="M156.667 0.5H115C113.619 0.5 112.5 1.61929 112.5 3V63C112.5 64.3807 113.619 65.5 115 65.5H156.667C158.047 65.5 159.167 64.3807 159.167 63V3C159.167 1.61929 158.047 0.5 156.667 0.5Z" stroke="#8C8C8C"/>
<path d="M140.111 36.6667H115.667V42.7778H140.111V36.6667Z" fill="#8C8C8C"/>
<path d="M151.111 46.4444H115.667V48.8888H151.111V46.4444Z" fill="#8C8C8C"/>
<path d="M151.111 50.1111H115.667V52.5555H151.111V50.1111Z" fill="#8C8C8C"/>
<path d="M151.111 53.7778H115.667V56.2222H151.111V53.7778Z" fill="#8C8C8C"/>
</g>
<defs>
<clipPath id="clip0_3_14">
<rect width="160" height="66" fill="white"/>
</clipPath>
</defs>
</svg>
