<svg width="501" height="261" viewBox="0 0 501 261" fill="none" xmlns="http://www.w3.org/2000/svg">
<rect width="501" height="261" fill="white"/>
<rect x="59" y="36" width="384" height="190" fill="white" stroke="#509FAB" stroke-width="2"/>
<path d="M79.712 57.216C79.712 59.104 78.064 60.24 75.92 60.24C74.688 60.24 73.744 59.888 73.136 59.616L72.848 57.072H73.2C73.344 57.776 73.792 58.608 74.416 59.024C74.832 59.296 75.488 59.632 76.208 59.632C77.632 59.632 78.336 58.8 78.336 57.824C78.336 56.704 77.648 56.16 76.224 55.616C74.112 54.8 73.232 54.096 73.232 52.576C73.232 50.816 74.88 49.616 77.136 49.616C78.192 49.616 78.944 49.856 79.488 50.096V52.592H79.136C79.072 51.872 78.832 51.072 78.208 50.72C77.952 50.576 77.456 50.256 76.72 50.256C75.216 50.256 74.608 51.056 74.608 51.92C74.608 52.928 74.944 53.424 76.864 54.24C78.816 55.072 79.712 55.712 79.712 57.216ZM92.2738 49.84V50.192C91.5538 50.224 90.9458 50.576 90.7858 50.896V56.016C90.7858 58.96 88.9778 60.256 86.4978 60.256C83.9538 60.256 82.4178 58.816 82.4178 56.304V50.768C82.2578 50.448 81.6497 50.224 80.9298 50.192V49.84H85.4098V50.192C84.6738 50.224 84.0338 50.448 83.8738 50.768V56.064C83.8738 58.096 84.9458 59.28 86.8658 59.28C88.8978 59.28 89.9058 58.048 89.9058 55.744V53.664C89.9058 52.784 89.8418 51.392 89.8258 50.896C89.6658 50.576 88.8018 50.224 88.0498 50.192V49.84H92.2738ZM104.753 49.84V50.192C104.001 50.224 103.393 50.576 103.233 50.896V57.12C103.233 57.968 103.281 59.456 103.329 60.128H102.705L96.2734 52.56L95.4734 51.424H95.4254L95.4734 52.464V56.192C95.4734 57.056 95.5534 58.272 95.5694 58.944C95.7294 59.264 96.6254 59.6 97.3614 59.632V60H93.0254V59.632C93.7774 59.6 94.4334 59.264 94.5774 58.944V53.12C94.5774 52.32 94.5934 51.456 94.4974 50.848C94.3374 50.528 93.7454 50.224 93.0094 50.192V49.84H95.8254L96.7374 50.976L102.353 57.584V53.632C102.353 52.752 102.289 51.392 102.273 50.896C102.113 50.576 101.217 50.224 100.481 50.192V49.84H104.753Z" fill="black"/>
<path d="M141.128 59.632V60H136.536V59.632C137.272 59.6 138.04 59.392 138.168 59.072L137.864 53.152L137.928 51.488L137.464 52.768L133.96 60.016H133.448L130.44 52.464L130.104 51.216L130.12 52.352L129.656 58.944C129.768 59.264 130.536 59.6 131.272 59.632V60H127.192V59.632C127.928 59.6 128.568 59.264 128.76 58.944L129.208 53.12C129.256 52.528 129.336 51.392 129.336 51.312C129.336 51.104 129.336 50.912 129.32 50.752C129.16 50.496 128.664 50.224 127.928 50.192V49.84H130.872L131.416 51.36L134.088 58.032L137.224 51.504L137.96 49.84H140.52V50.192C139.784 50.224 139.288 50.464 139.128 50.72V51.152C139.128 51.312 139.208 52.592 139.24 53.12L139.576 59.072C139.768 59.392 140.392 59.6 141.128 59.632ZM152.703 54.784C152.703 58 150.159 60.24 147.007 60.24C143.839 60.24 141.999 58.048 141.999 54.976C141.999 51.856 144.527 49.616 147.679 49.616C150.895 49.616 152.703 51.84 152.703 54.784ZM151.087 55.344C151.087 52.304 149.423 50.256 146.799 50.256C145.183 50.256 143.615 52 143.615 54.48C143.615 57.392 145.119 59.584 147.791 59.584C149.487 59.584 151.087 57.888 151.087 55.344ZM165.472 49.84V50.192C164.72 50.224 164.112 50.576 163.952 50.896V57.12C163.952 57.968 164 59.456 164.048 60.128H163.424L156.992 52.56L156.192 51.424H156.144L156.192 52.464V56.192C156.192 57.056 156.272 58.272 156.288 58.944C156.448 59.264 157.344 59.6 158.08 59.632V60H153.744V59.632C154.496 59.6 155.152 59.264 155.296 58.944V53.12C155.296 52.32 155.312 51.456 155.216 50.848C155.056 50.528 154.464 50.224 153.728 50.192V49.84H156.544L157.456 50.976L163.072 57.584V53.632C163.072 52.752 163.008 51.392 162.992 50.896C162.832 50.576 161.936 50.224 161.2 50.192V49.84H165.472Z" fill="black"/>
<path d="M197.016 49.744V52.448H196.696C196.664 51.088 195.944 50.608 194.76 50.592L192.968 50.576V58.752C193.32 59.504 194.168 59.6 194.904 59.632V60H189.544V59.632C190.28 59.6 191.288 59.456 191.512 58.976V50.576L189.72 50.592C188.536 50.608 187.832 51.088 187.8 52.448H187.464V49.744H187.768C187.976 49.808 188.2 49.856 188.728 49.856H195.752C196.152 49.856 196.504 49.808 196.712 49.744H197.016ZM209.18 49.84V50.192C208.46 50.224 207.852 50.576 207.692 50.896V56.016C207.692 58.96 205.884 60.256 203.404 60.256C200.86 60.256 199.324 58.816 199.324 56.304V50.768C199.164 50.448 198.556 50.224 197.836 50.192V49.84H202.316V50.192C201.58 50.224 200.94 50.448 200.78 50.768V56.064C200.78 58.096 201.852 59.28 203.772 59.28C205.804 59.28 206.812 58.048 206.812 55.744V53.664C206.812 52.784 206.748 51.392 206.732 50.896C206.572 50.576 205.708 50.224 204.956 50.192V49.84H209.18ZM218.044 57.424V60H212.732L209.42 60.048V59.68C210.156 59.648 211.26 59.424 211.484 58.896V50.768C211.34 50.448 210.7 50.24 209.964 50.208V49.856H216.188C216.652 49.856 216.94 49.808 217.148 49.744H217.452V52.32H217.116C217.052 50.912 216.444 50.576 215.244 50.576H212.94V54.448H215.1C216.172 54.448 216.636 54.432 216.796 53.264H217.1V56.512H216.764C216.636 55.216 216.268 55.232 215.1 55.232H212.94V58.752C212.988 58.96 213.084 59.184 213.372 59.296L215.868 59.248C216.972 59.232 217.692 58.784 217.724 57.424H218.044Z" fill="black"/>
<path d="M256.304 49.84V50.192C255.568 50.224 254.8 50.624 254.624 51.088L251.072 60.176H250.224L247.888 52.944L245.232 60.176H244.352L241.216 50.928C241.088 50.528 240.304 50.256 239.616 50.192V49.84H244.16V50.192C243.424 50.224 242.832 50.432 242.688 50.768L245.2 58.304L247.52 51.872L247.216 50.928C247.088 50.528 246.368 50.256 245.632 50.192V49.84H250.128V50.192C249.392 50.224 248.768 50.432 248.608 50.768L251.04 58.304L253.728 50.944C253.568 50.56 252.848 50.224 252.112 50.192V49.84H256.304ZM264.387 57.424V60H259.075L255.763 60.048V59.68C256.499 59.648 257.603 59.424 257.827 58.896V50.768C257.683 50.448 257.043 50.24 256.307 50.208V49.856H262.531C262.995 49.856 263.283 49.808 263.491 49.744H263.795V52.32H263.459C263.395 50.912 262.787 50.576 261.587 50.576H259.283V54.448H261.443C262.515 54.448 262.979 54.432 263.139 53.264H263.443V56.512H263.107C262.979 55.216 262.611 55.232 261.443 55.232H259.283V58.752C259.331 58.96 259.427 59.184 259.715 59.296L262.211 59.248C263.315 59.232 264.035 58.784 264.067 57.424H264.387ZM276.179 54.576C276.179 57.696 273.811 60.032 270.675 60.016L265.603 60V59.632C266.339 59.6 267.027 59.392 267.171 59.072V50.768C267.027 50.448 266.259 50.224 265.523 50.192V49.84C267.395 49.76 268.947 49.664 270.355 49.664C273.987 49.664 276.179 51.536 276.179 54.576ZM274.547 55.152C274.547 51.888 272.675 50.224 269.651 50.224H268.627V58.96C268.819 59.184 269.779 59.456 270.435 59.456C273.139 59.456 274.547 57.664 274.547 55.152Z" fill="black"/>
<path d="M308.016 49.744V52.448H307.696C307.664 51.088 306.944 50.608 305.76 50.592L303.968 50.576V58.752C304.32 59.504 305.168 59.6 305.904 59.632V60H300.544V59.632C301.28 59.6 302.288 59.456 302.512 58.976V50.576L300.72 50.592C299.536 50.608 298.832 51.088 298.8 52.448H298.464V49.744H298.768C298.976 49.808 299.2 49.856 299.728 49.856H306.752C307.152 49.856 307.504 49.808 307.712 49.744H308.016ZM320.708 59.632V60H316.244V59.632C316.98 59.6 317.588 59.392 317.748 59.072V55.216H311.924V59.072C312.068 59.392 312.692 59.6 313.428 59.632V60H308.964V59.632C309.7 59.6 310.324 59.392 310.468 59.072V50.768C310.324 50.448 309.7 50.224 308.964 50.192V49.84H313.428V50.192C312.692 50.224 312.068 50.448 311.924 50.768V54.416H317.748V50.768C317.588 50.448 316.98 50.224 316.244 50.192V49.84H320.708V50.192C319.972 50.224 319.364 50.448 319.204 50.768V59.072C319.364 59.392 319.972 59.6 320.708 59.632ZM332.868 49.84V50.192C332.148 50.224 331.54 50.576 331.38 50.896V56.016C331.38 58.96 329.572 60.256 327.092 60.256C324.548 60.256 323.012 58.816 323.012 56.304V50.768C322.852 50.448 322.243 50.224 321.524 50.192V49.84H326.004V50.192C325.268 50.224 324.628 50.448 324.468 50.768V56.064C324.468 58.096 325.54 59.28 327.46 59.28C329.492 59.28 330.5 58.048 330.5 55.744V53.664C330.5 52.784 330.436 51.392 330.42 50.896C330.26 50.576 329.396 50.224 328.644 50.192V49.84H332.868Z" fill="black"/>
<path d="M362.888 49.744V52.32H362.552C362.488 50.912 361.88 50.576 360.68 50.576H358.424V54.56L360.584 54.48C361.656 54.448 362.12 54.432 362.28 53.264H362.584V56.624H362.248C362.12 55.328 361.704 55.328 360.584 55.312L358.424 55.28V58.832C358.648 59.36 359.544 59.6 360.28 59.632V60H355.288V59.632C356.024 59.6 356.744 59.44 356.968 58.912V50.816C356.808 50.448 356.12 50.24 355.384 50.208V49.856H361.624C361.992 49.856 362.36 49.824 362.584 49.744H362.888ZM375.402 59.728L375.354 60.08L373.946 60.064C372.346 60.048 372.346 60.112 371.306 58.928C370.074 57.52 369.402 56.576 368.826 55.872H367.002V58.816C367.226 59.344 368.01 59.6 368.746 59.632V60H363.882V59.632C364.618 59.6 365.322 59.424 365.546 58.896V50.8C365.386 50.432 364.634 50.224 363.898 50.192V49.84C365.674 49.84 366.218 49.792 368.09 49.792C370.762 49.792 371.93 50.608 371.93 52.4C371.93 53.408 371.226 54.592 370.01 55.136L372.442 58.016C373.018 58.688 373.69 59.232 373.866 59.344C374.106 59.504 374.986 59.664 375.402 59.728ZM370.362 52.464C370.362 51.328 369.594 50.352 367.994 50.352C367.738 50.352 367.37 50.352 367.002 50.384V55.264H368.09C369.866 55.264 370.362 54.16 370.362 52.464ZM379.822 59.632V60H375.166V59.632C375.918 59.6 376.622 59.392 376.766 59.072V50.768C376.622 50.448 375.918 50.224 375.166 50.192V49.84H379.822V50.192C379.07 50.224 378.366 50.448 378.222 50.768V59.072C378.366 59.392 379.07 59.6 379.822 59.632Z" fill="black"/>
<path d="M409.712 57.216C409.712 59.104 408.064 60.24 405.92 60.24C404.688 60.24 403.744 59.888 403.136 59.616L402.848 57.072H403.2C403.344 57.776 403.792 58.608 404.416 59.024C404.832 59.296 405.488 59.632 406.208 59.632C407.632 59.632 408.336 58.8 408.336 57.824C408.336 56.704 407.648 56.16 406.224 55.616C404.112 54.8 403.232 54.096 403.232 52.576C403.232 50.816 404.88 49.616 407.136 49.616C408.192 49.616 408.944 49.856 409.488 50.096V52.592H409.136C409.072 51.872 408.832 51.072 408.208 50.72C407.952 50.576 407.456 50.256 406.72 50.256C405.216 50.256 404.608 51.056 404.608 51.92C404.608 52.928 404.944 53.424 406.864 54.24C408.816 55.072 409.712 55.712 409.712 57.216ZM420.838 59.632V60H416.326V59.632C417.078 59.6 417.702 59.424 417.862 59.088L416.726 55.776H413.574L412.454 58.896C412.63 59.28 413.27 59.6 414.006 59.632V60H409.893V59.632C410.63 59.6 411.11 59.472 411.43 59.056C411.862 58 412.406 56.672 412.886 55.376C413.542 53.6 414.182 51.856 414.549 50.752C414.742 50.192 414.726 50 414.758 49.696H416.406C416.454 50.192 416.454 50.416 416.614 50.928C417.142 52.624 417.59 53.968 418.038 55.312C418.422 56.448 418.806 57.552 419.318 58.928C419.494 59.408 420.102 59.6 420.838 59.632ZM413.814 55.072H416.486L415.462 51.776L415.254 50.896H415.19L414.95 51.776L413.814 55.072ZM429.688 49.744V52.448H429.368C429.336 51.088 428.616 50.608 427.432 50.592L425.64 50.576V58.752C425.992 59.504 426.84 59.6 427.576 59.632V60H422.216V59.632C422.952 59.6 423.96 59.456 424.184 58.976V50.576L422.392 50.592C421.208 50.608 420.504 51.088 420.472 52.448H420.136V49.744H420.44C420.648 49.808 420.872 49.856 421.4 49.856H428.424C428.824 49.856 429.176 49.808 429.384 49.744H429.688Z" fill="black"/>
<line x1="58" y1="70.5" x2="444" y2="70.5" stroke="#509FAB"/>
<line x1="115.5" y1="35" x2="115.5" y2="227" stroke="#509FAB"/>
<line x1="179.5" y1="35" x2="179.5" y2="227" stroke="#509FAB"/>
<line x1="232.5" y1="35" x2="232.5" y2="227" stroke="#509FAB"/>
<line x1="288.5" y1="35" x2="288.5" y2="227" stroke="#509FAB"/>
<line x1="344.5" y1="35" x2="344.5" y2="227" stroke="#509FAB"/>
<line x1="392.5" y1="35" x2="392.5" y2="227" stroke="#509FAB"/>
<line x1="58" y1="101.5" x2="444" y2="101.5" stroke="#509FAB"/>
<line x1="58" y1="133.5" x2="444" y2="133.5" stroke="#509FAB"/>
<line x1="58" y1="164.5" x2="444" y2="164.5" stroke="#509FAB"/>
<line x1="58" y1="195.5" x2="444" y2="195.5" stroke="#509FAB"/>
<line x1="58" y1="226.5" x2="444" y2="226.5" stroke="#509FAB"/>
</svg>
