<svg width="190" height="137" viewBox="0 0 190 137" fill="none" xmlns="http://www.w3.org/2000/svg">
<path d="M80.5714 25C83.6926 25 86.2143 27.2064 86.2143 29.9375V34.875H108.786V29.9375C108.786 27.2064 111.307 25 114.429 25C117.55 25 120.071 27.2064 120.071 29.9375V34.875H128.536C133.209 34.875 137 38.1924 137 42.2812V49.6875H58V42.2812C58 38.1924 61.7913 34.875 66.4643 34.875H74.9286V29.9375C74.9286 27.2064 77.4502 25 80.5714 25ZM58 54.625H137V96.5938C137 100.683 133.209 104 128.536 104H66.4643C61.7913 104 58 100.683 58 96.5938V54.625ZM69.2857 66.9688V71.9062C69.2857 73.2641 70.5554 74.375 72.1071 74.375H77.75C79.3018 74.375 80.5714 73.2641 80.5714 71.9062V66.9688C80.5714 65.6109 79.3018 64.5 77.75 64.5H72.1071C70.5554 64.5 69.2857 65.6109 69.2857 66.9688ZM91.8571 66.9688V71.9062C91.8571 73.2641 93.1268 74.375 94.6786 74.375H100.321C101.873 74.375 103.143 73.2641 103.143 71.9062V66.9688C103.143 65.6109 101.873 64.5 100.321 64.5H94.6786C93.1268 64.5 91.8571 65.6109 91.8571 66.9688ZM117.25 64.5C115.698 64.5 114.429 65.6109 114.429 66.9688V71.9062C114.429 73.2641 115.698 74.375 117.25 74.375H122.893C124.445 74.375 125.714 73.2641 125.714 71.9062V66.9688C125.714 65.6109 124.445 64.5 122.893 64.5H117.25ZM69.2857 86.7188V91.6562C69.2857 93.0141 70.5554 94.125 72.1071 94.125H77.75C79.3018 94.125 80.5714 93.0141 80.5714 91.6562V86.7188C80.5714 85.3609 79.3018 84.25 77.75 84.25H72.1071C70.5554 84.25 69.2857 85.3609 69.2857 86.7188ZM94.6786 84.25C93.1268 84.25 91.8571 85.3609 91.8571 86.7188V91.6562C91.8571 93.0141 93.1268 94.125 94.6786 94.125H100.321C101.873 94.125 103.143 93.0141 103.143 91.6562V86.7188C103.143 85.3609 101.873 84.25 100.321 84.25H94.6786ZM114.429 86.7188V91.6562C114.429 93.0141 115.698 94.125 117.25 94.125H122.893C124.445 94.125 125.714 93.0141 125.714 91.6562V86.7188C125.714 85.3609 124.445 84.25 122.893 84.25H117.25C115.698 84.25 114.429 85.3609 114.429 86.7188Z" fill="white"/>
</svg>
