<svg width="190" height="137" viewBox="0 0 190 137" fill="none" xmlns="http://www.w3.org/2000/svg">
<path d="M80.5714 37C82.5864 37 84.2143 38.4244 84.2143 40.1875V43.375H98.7857V40.1875C98.7857 38.4244 100.414 37 102.429 37C104.444 37 106.071 38.4244 106.071 40.1875V43.375H111.536C114.552 43.375 117 45.5166 117 48.1562V52.9375H66V48.1562C66 45.5166 68.4475 43.375 71.4643 43.375H76.9286V40.1875C76.9286 38.4244 78.5565 37 80.5714 37ZM66 56.125H117V83.2188C117 85.8584 114.552 88 111.536 88H71.4643C68.4475 88 66 85.8584 66 83.2188V56.125ZM73.2857 64.0938V67.2812C73.2857 68.1578 74.1054 68.875 75.1071 68.875H78.75C79.7518 68.875 80.5714 68.1578 80.5714 67.2812V64.0938C80.5714 63.2172 79.7518 62.5 78.75 62.5H75.1071C74.1054 62.5 73.2857 63.2172 73.2857 64.0938ZM87.8571 64.0938V67.2812C87.8571 68.1578 88.6768 68.875 89.6786 68.875H93.3214C94.3232 68.875 95.1429 68.1578 95.1429 67.2812V64.0938C95.1429 63.2172 94.3232 62.5 93.3214 62.5H89.6786C88.6768 62.5 87.8571 63.2172 87.8571 64.0938ZM104.25 62.5C103.248 62.5 102.429 63.2172 102.429 64.0938V67.2812C102.429 68.1578 103.248 68.875 104.25 68.875H107.893C108.895 68.875 109.714 68.1578 109.714 67.2812V64.0938C109.714 63.2172 108.895 62.5 107.893 62.5H104.25ZM73.2857 76.8438V80.0312C73.2857 80.9078 74.1054 81.625 75.1071 81.625H78.75C79.7518 81.625 80.5714 80.9078 80.5714 80.0312V76.8438C80.5714 75.9672 79.7518 75.25 78.75 75.25H75.1071C74.1054 75.25 73.2857 75.9672 73.2857 76.8438ZM89.6786 75.25C88.6768 75.25 87.8571 75.9672 87.8571 76.8438V80.0312C87.8571 80.9078 88.6768 81.625 89.6786 81.625H93.3214C94.3232 81.625 95.1429 80.9078 95.1429 80.0312V76.8438C95.1429 75.9672 94.3232 75.25 93.3214 75.25H89.6786ZM102.429 76.8438V80.0312C102.429 80.9078 103.248 81.625 104.25 81.625H107.893C108.895 81.625 109.714 80.9078 109.714 80.0312V76.8438C109.714 75.9672 108.895 75.25 107.893 75.25H104.25C103.248 75.25 102.429 75.9672 102.429 76.8438Z" fill="white"/>
<path d="M93.3539 17L93.3539 13.5H93.3539V17ZM126.361 50.4159C124.934 49.1122 122.72 49.2122 121.416 50.6394C120.112 52.0665 120.212 54.2803 121.639 55.5841L126.361 50.4159ZM138.267 66.034L135.907 68.618L138.448 70.9393L140.812 68.4377L138.267 66.034ZM154.544 53.9037C155.872 52.4987 155.809 50.2835 154.404 48.956C152.999 47.6284 150.784 47.6912 149.456 49.0963L154.544 53.9037ZM93.3539 104.5C70.2492 104.5 51.5 85.7066 51.5 62.5H44.5C44.5 89.5513 66.362 111.5 93.3539 111.5V104.5ZM51.5 62.5C51.5 39.2934 70.2492 20.5 93.3539 20.5V13.5C66.362 13.5 44.5 35.4487 44.5 62.5H51.5ZM93.3539 20.5C116.459 20.5 135.208 39.2934 135.208 62.5L142.208 62.5C142.208 35.4487 120.346 13.5 93.3539 13.5L93.3539 20.5ZM121.639 55.5841L135.907 68.618L140.628 63.4499L126.361 50.4159L121.639 55.5841ZM140.812 68.4377L154.544 53.9037L149.456 49.0963L135.723 63.6302L140.812 68.4377Z" fill="white"/>
</svg>
