<svg width="190" height="137" viewBox="0 0 190 137" fill="none" xmlns="http://www.w3.org/2000/svg">
<path d="M84.5714 37C86.5864 37 88.2143 38.4244 88.2143 40.1875V43.375H102.786V40.1875C102.786 38.4244 104.414 37 106.429 37C108.444 37 110.071 38.4244 110.071 40.1875V43.375H115.536C118.552 43.375 121 45.5166 121 48.1562V52.9375H70V48.1562C70 45.5166 72.4475 43.375 75.4643 43.375H80.9286V40.1875C80.9286 38.4244 82.5565 37 84.5714 37ZM70 56.125H121V83.2188C121 85.8584 118.552 88 115.536 88H75.4643C72.4475 88 70 85.8584 70 83.2188V56.125ZM77.2857 64.0938V67.2812C77.2857 68.1578 78.1054 68.875 79.1071 68.875H82.75C83.7518 68.875 84.5714 68.1578 84.5714 67.2812V64.0938C84.5714 63.2172 83.7518 62.5 82.75 62.5H79.1071C78.1054 62.5 77.2857 63.2172 77.2857 64.0938ZM91.8571 64.0938V67.2812C91.8571 68.1578 92.6768 68.875 93.6786 68.875H97.3214C98.3232 68.875 99.1429 68.1578 99.1429 67.2812V64.0938C99.1429 63.2172 98.3232 62.5 97.3214 62.5H93.6786C92.6768 62.5 91.8571 63.2172 91.8571 64.0938ZM108.25 62.5C107.248 62.5 106.429 63.2172 106.429 64.0938V67.2812C106.429 68.1578 107.248 68.875 108.25 68.875H111.893C112.895 68.875 113.714 68.1578 113.714 67.2812V64.0938C113.714 63.2172 112.895 62.5 111.893 62.5H108.25ZM77.2857 76.8438V80.0312C77.2857 80.9078 78.1054 81.625 79.1071 81.625H82.75C83.7518 81.625 84.5714 80.9078 84.5714 80.0312V76.8438C84.5714 75.9672 83.7518 75.25 82.75 75.25H79.1071C78.1054 75.25 77.2857 75.9672 77.2857 76.8438ZM93.6786 75.25C92.6768 75.25 91.8571 75.9672 91.8571 76.8438V80.0312C91.8571 80.9078 92.6768 81.625 93.6786 81.625H97.3214C98.3232 81.625 99.1429 80.9078 99.1429 80.0312V76.8438C99.1429 75.9672 98.3232 75.25 97.3214 75.25H93.6786ZM106.429 76.8438V80.0312C106.429 80.9078 107.248 81.625 108.25 81.625H111.893C112.895 81.625 113.714 80.9078 113.714 80.0312V76.8438C113.714 75.9672 112.895 75.25 111.893 75.25H108.25C107.248 75.25 106.429 75.9672 106.429 76.8438Z" fill="white"/>
<path d="M60.6413 51.36C62.0694 50.0574 64.2831 50.159 65.5858 51.5872C66.8885 53.0153 66.7868 55.229 65.3587 56.5317L60.6413 51.36ZM48.7325 66.9602L51.0912 69.5461L48.5523 71.862L46.1903 69.3659L48.7325 66.9602ZM32.4578 54.8538C31.1292 53.4497 31.1903 51.2345 32.5944 49.9059C33.9984 48.5773 36.2136 48.6384 37.5422 50.0425L32.4578 54.8538ZM93.6461 105.363C116.756 105.363 135.5 86.5954 135.5 63.4316H142.5C142.5 90.4501 120.633 112.363 93.6461 112.363V105.363ZM135.5 63.4316C135.5 40.2678 116.756 21.5 93.6461 21.5V14.5C120.633 14.5 142.5 36.4131 142.5 63.4316H135.5ZM93.6461 21.5C70.5365 21.5 51.7922 40.2678 51.7922 63.4316H44.7922C44.7922 36.4131 66.6592 14.5 93.6461 14.5V21.5ZM65.3587 56.5317L51.0912 69.5461L46.3738 64.3744L60.6413 51.36L65.3587 56.5317ZM46.1903 69.3659L32.4578 54.8538L37.5422 50.0425L51.2747 64.5546L46.1903 69.3659Z" fill="white"/>
</svg>
