<svg width="33" height="33" viewBox="0 0 33 33" fill="none" xmlns="http://www.w3.org/2000/svg">
<rect width="33" height="33" rx="1.43478" fill="#757575"/>
<path d="M23.1852 11.6172C22.7376 11.5344 22.3259 11.3165 22.0053 10.9928C21.6848 10.6691 21.4707 10.255 21.3917 9.80607L20.4975 5L19.6083 9.80607C19.5266 10.2523 19.3112 10.663 18.9909 10.9838C18.6705 11.3046 18.2603 11.5202 17.8148 11.602L13 12.4924L17.8148 13.3828C18.2607 13.4656 18.6711 13.6822 18.9914 14.0039C19.3117 14.3255 19.5268 14.737 19.6083 15.1838L20.4975 20L21.3917 15.1838C21.4732 14.737 21.6883 14.3255 22.0086 14.0039C22.3289 13.6822 22.7393 13.4656 23.1852 13.3828L28 12.4924L23.1852 11.6172Z" fill="white"/>
<path d="M12.9165 22.9274L12.5 21L12.0781 22.9274C12.0391 23.1056 11.9382 23.2695 11.7886 23.3976C11.6389 23.5258 11.4476 23.6122 11.2396 23.6456L9 23.9884L11.245 24.3452C11.4538 24.3794 11.6454 24.4673 11.7943 24.5973C11.9432 24.7273 12.0422 24.8931 12.0781 25.0726L12.4946 27L12.9111 25.0726C12.95 24.8941 13.0517 24.7301 13.2025 24.6025C13.3534 24.475 13.5462 24.39 13.755 24.3591L16 23.9884L13.755 23.6317C13.5489 23.5998 13.3587 23.5157 13.2092 23.3901C13.0597 23.2645 12.9577 23.1033 12.9165 22.9274Z" fill="white"/>
<path d="M8.03586 15.7624C7.94704 15.7386 7.86547 15.6803 7.80142 15.5948C7.73736 15.5093 7.69368 15.4004 7.67586 15.2818L7.49793 14L7.32 15.2818C7.3035 15.4002 7.26077 15.5094 7.19733 15.595C7.13389 15.6807 7.05266 15.739 6.96414 15.7624L6 16L6.96414 16.2376C7.05281 16.2584 7.13452 16.3152 7.19818 16.4002C7.26185 16.4852 7.30438 16.5943 7.32 16.7127L7.49793 18L7.67586 16.7127C7.69338 16.5945 7.73706 16.4861 7.80123 16.4014C7.86541 16.3166 7.94714 16.2596 8.03586 16.2376L9 16L8.03586 15.7624Z" fill="white"/>
</svg>
