<svg xmlns="http://www.w3.org/2000/svg" width="16" height="16" viewBox="0 0 16 16" fill="none">
  <path d="M14.6953 1.91016L9.07031 7.53516L14.6484 13.1133C15.1172 13.5352 15.1172 14.2383 14.6484 14.6602C14.2266 15.1289 13.5234 15.1289 13.1016 14.6602L7.47656 9.08203L1.89844 14.6602C1.47656 15.1289 0.773438 15.1289 0.351562 14.6602C-0.117188 14.2383 -0.117188 13.5352 0.351562 13.0664L5.92969 7.48828L0.351562 1.91016C-0.117188 1.48828 -0.117188 0.785156 0.351562 0.316406C0.773438 -0.105469 1.47656 -0.105469 1.94531 0.316406L7.52344 5.94141L13.1016 0.363281C13.5234 -0.105469 14.2266 -0.105469 14.6953 0.363281C15.1172 0.785156 15.1172 1.48828 14.6953 1.91016Z" fill="#286DC0"/>
</svg>