<svg width="66" height="46" viewBox="0 0 66 46" fill="none" xmlns="http://www.w3.org/2000/svg">
<path d="M40.1719 17.4219L34.5469 23.0469L40.125 28.625C40.5938 29.0469 40.5938 29.75 40.125 30.1719C39.7031 30.6406 39 30.6406 38.5781 30.1719L32.9531 24.5938L27.375 30.1719C26.9531 30.6406 26.25 30.6406 25.8281 30.1719C25.3594 29.75 25.3594 29.0469 25.8281 28.5781L31.4062 23L25.8281 17.4219C25.3594 17 25.3594 16.2969 25.8281 15.8281C26.25 15.4062 26.9531 15.4062 27.4219 15.8281L33 21.4531L38.5781 15.875C39 15.4062 39.7031 15.4062 40.1719 15.875C40.5938 16.2969 40.5938 17 40.1719 17.4219Z" fill="#286DC0"/>
<rect x="0.5" y="0.5" width="65" height="45" rx="1.5" stroke="#286DC0"/>
</svg>
