<svg width="161" height="46" viewBox="0 0 161 46" fill="none" xmlns="http://www.w3.org/2000/svg">
<path d="M48.1303 44.0024L47.941 45.0909H34.8316L35.0209 44.0024C37.2925 43.9078 38.9963 43.3872 39.7062 42.3933L38.4284 32.5494H29.0104L23.7098 41.8254C23.9938 42.9612 25.9342 43.9078 28.0639 44.0024L27.8746 45.0909H15.5696L15.7589 44.0024C17.652 43.9078 19.2611 43.5292 20.4443 42.2987C22.3847 39.1751 24.8457 35.247 27.07 31.4136C30.1462 26.1603 33.0805 21.0017 34.8789 17.7362C35.7781 16.0797 35.8727 15.5118 36.1567 14.6126H40.9367C40.7947 16.0797 40.7474 16.7423 40.8894 18.2568C41.41 23.2734 41.8832 27.2488 42.3565 31.2243C42.7824 34.5844 43.2557 37.85 43.8709 41.9201C44.1076 43.3399 46.0006 43.9078 48.1303 44.0024ZM30.1462 30.5617H38.1444L37.1979 20.7651L37.0559 18.1621H36.8666L35.5888 20.7651L30.1462 30.5617ZM62.8466 26.8702C62.8466 27.5801 61.3794 28.8106 60.5276 29.2365C59.3917 27.8641 57.9719 26.4916 55.9369 26.4916C55.7949 26.4916 55.6529 26.4916 55.5109 26.5389C55.1323 26.8229 54.3278 28.1007 54.3278 29.2365C54.3278 29.9464 54.6117 30.9403 55.1797 31.6502C56.2682 33.0227 57.546 34.1585 58.5872 35.247C59.439 36.1462 60.3856 37.424 60.3856 38.7965C60.3856 42.1094 56.8361 45.6115 52.3874 45.6115C49.3112 45.6115 47.6547 43.4818 47.6547 42.4407C47.6547 41.6834 49.1219 40.5003 49.9264 40.1217C50.731 41.3995 52.5294 43.5765 55.4636 43.5765C55.7476 43.5765 56.0789 43.5292 56.4101 43.4345C56.9307 43.1506 57.8299 42.0147 57.8299 40.9262C57.8299 39.4118 55.9842 37.992 54.2331 36.1462C52.482 34.3005 51.2989 33.0227 51.2989 31.2716C51.2989 28.1953 55.4163 24.3146 58.7765 24.3146C61.3321 24.3146 62.8466 25.7817 62.8466 26.8702ZM82.9321 39.0331L83.784 39.743C81.0864 43.1506 79.146 45.4696 76.7797 45.4696C76.0225 45.4696 75.2179 44.4284 74.6973 43.5765C72.9462 40.7369 72.331 39.1751 70.6272 35.531L69.2074 36.1462L67.4563 45.0909H63.9542L69.586 17.4522C69.7753 16.6003 69.87 16.0324 69.87 15.5591C69.87 14.6126 69.4441 14.2813 68.1189 14.2813C67.693 14.2813 66.9831 14.4233 66.3678 14.4706L66.6045 13.3821L73.5141 11.5837H74.2714L69.4914 34.8211C75.2179 32.8334 77.4423 30.6563 77.7262 30.2777C78.1995 29.5205 78.2468 29.0946 78.2468 28.3847C78.2468 27.3908 77.7735 26.8229 77.1583 26.0183C77.8209 25.2611 80.0925 24.3146 81.0391 24.2672C81.7016 24.3619 82.3169 25.0718 82.3169 26.1603C82.3169 26.8229 82.1749 27.4854 81.607 28.4793C80.2345 30.893 77.6316 32.6914 73.8454 34.3478C75.0286 36.9981 76.0225 39.2698 77.5369 41.4468C77.9155 42.0147 78.5308 42.7246 79.004 42.7246C79.6666 42.7246 81.2757 41.2102 82.9321 39.0331ZM113.273 15.0386V16.0797C110.623 16.2217 109.392 17.0736 108.02 19.3453L100.164 32.2654V41.4468C101.158 43.6711 103.335 43.9078 105.512 44.0024V45.0909H90.4144V44.0024C92.5914 43.9078 95.1944 43.5292 95.9043 42.1094V32.6914L87.7641 19.2979C86.3917 17.0736 85.1138 16.2217 82.5109 16.0797V15.0386H95.573V16.0797C93.0647 16.2217 92.3075 16.7423 91.5976 17.3102L99.0752 29.9938L106.458 17.4049C105.701 16.837 104.991 16.2217 102.483 16.0797V15.0386H113.273ZM129.695 41.6361V42.8666C128.559 44.0498 126.24 45.5169 124.726 45.5169C122.312 45.5169 121.318 43.5765 121.271 42.488C119.614 44.1917 117.011 45.5169 115.26 45.5169C112.941 45.5169 110.528 43.9551 110.528 41.2102C110.528 39.9323 110.717 38.3232 111.474 37.2347L121.271 33.7799L121.318 30.467C121.366 28.29 119.567 25.9237 117.39 25.9237C116.065 25.9237 114.929 27.5801 114.834 29.8991L111.001 30.609V30.0884C112.326 26.113 117.39 24.1253 119.472 24.1253C123.779 24.1253 125.199 26.3969 125.152 30.0411L124.962 40.2636C124.915 42.204 125.956 42.8193 126.95 42.8193C127.991 42.8193 128.606 42.3933 129.695 41.6361ZM121.224 41.5888L121.271 34.9157C120.04 35.4836 116.444 36.8561 115.071 37.6133C114.882 38.3706 114.74 39.4118 114.74 40.3583C114.74 41.7781 115.544 43.1032 116.964 43.1032C118.857 43.1032 119.756 42.63 121.224 41.5888ZM140.414 44.0024V45.0909H130.003V44.0024C132.274 43.8605 132.842 43.3872 133.221 42.5826V17.2156C133.221 15.6065 133.315 14.9439 130.05 14.6126V13.7134L137.149 11.5837H137.906V12.2463L137.007 13.8554V42.5826C137.48 43.5292 138.048 43.7658 140.414 44.0024ZM159.281 40.169L159.991 41.2575C157.104 43.9078 154.927 45.4696 151.046 45.4696C146.171 45.4696 142.433 41.5414 142.433 35.8149C142.433 28.8579 146.597 24.1726 152.324 24.1726C157.104 24.1726 159.328 26.6809 159.328 31.1769V31.9815L146.408 31.8868C146.361 32.3128 146.313 33.3539 146.313 34.4425C146.313 39.4118 149.626 42.7246 153.554 42.7246C156.252 42.7246 157.246 41.9201 159.281 40.169ZM146.597 30.609L155.495 30.5144C155.495 27.9587 153.602 25.5924 151.472 25.5924C148.964 25.5924 147.118 27.4854 146.597 30.609Z" fill="#00356B"/>
<path d="M17.9168 3.54546L19.3713 0.636365L20.8259 3.54546L23.735 5L20.8259 6.45455L19.3713 9.36364L17.9168 6.45455L15.0077 5L17.9168 3.54546ZM6.28042 9.36364L9.18951 3.54546L12.0986 9.36364L17.9168 12.2727L12.0986 15.1818L9.18951 21L6.28042 15.1818L0.462234 12.2727L6.28042 9.36364ZM19.3713 15.1818L20.8259 18.0909L23.735 19.5455L20.8259 21L19.3713 23.9091L17.9168 21L15.0077 19.5455L17.9168 18.0909L19.3713 15.1818Z" fill="#106EBE"/>
</svg>
